<svg width="30" height="30" xmlns="http://www.w3.org/2000/svg"><g fill="none" fill-rule="nonzero"><circle fill="#FFF" cx="15" cy="15" r="15"/><path d="M6.656 17.7h.124a1 1 0 0 1 .644.221L7.51 18l4.65 4.62a1 1 0 0 1 .26.76c0 .23-.075.453-.211.635l-.089.105-.14.13a1 1 0 0 1-.73.3 1 1 0 0 1-.652-.22l-.088-.08-4.64-4.64a1 1 0 0 1-.084-1.394L6 18a1 1 0 0 1 .656-.3zm1.252-3.5l.092.08 7.85 7.88a1.05 1.05 0 0 1 .082 1.42l-.082.09-.14.13a1 1 0 0 1-1.384.082l-.086-.082-7.88-7.89a1 1 0 0 1-.3-.73c0-.23.075-.453.211-.635l.089-.105.14-.13a1 1 0 0 1 .73-.31 1 1 0 0 1 .678.2zm-.718 7.59l1.16 1.15-.75.75a.44.44 0 0 1-.533.052L7 23.69l-.56-.56a.41.41 0 0 1-.13-.29.42.42 0 0 1 .075-.236l.055-.064.75-.75zm9.33-9.43a.33.33 0 0 1 .197.055l.053.045.74.74a.31.31 0 0 1 .1.24.33.33 0 0 1-.051.142l-.049.058-4 4a.36.36 0 0 1-.427.047l-.063-.047-.74-.74a.33.33 0 0 1-.1-.25.31.31 0 0 1 .056-.19l.044-.05 4-3.95a.31.31 0 0 1 .24-.1zM15 6.17a1 1 0 0 1 .68.226l.09.084 7.88 7.92a1 1 0 0 1 .082 1.384L23.52 16a1 1 0 0 1-1.384.082L22.05 16l-7.92-7.92a1.05 1.05 0 0 1-.085-1.372l.085-.098.14-.13a1 1 0 0 1 .73-.31zm3.73-.47l.117.005a1 1 0 0 1 .508.202L19.46 6l4.65 4.66c.37.38.399.969.086 1.38l-.086.1-.14.13a1 1 0 0 1-1.384.082l-.086-.082-4.63-4.67a1 1 0 0 1-.082-1.384L18 6a1 1 0 0 1 .73-.3zm4.21.736l.06.044.64.69a.33.33 0 0 1 .087.415l-.037.055-.82.81-1.15-1.15.82-.82a.34.34 0 0 1 .4-.044z" fill="#354657"/></g></svg>