<svg xmlns="http://www.w3.org/2000/svg" width="30" height="30"><path fill="#BD8BCA" fill-rule="evenodd" d="M30 15c0 8.284-6.716 15-15 15-8.284 0-15-6.716-15-15C0 6.716 6.716 0 15 0c8.284 0 15 6.716 15 15zm-7.75 5.25H7.75v-.67c1.18-.3 2.13-1.28 2.38-2.56l1.18-6.1c.22-1.19.98-2.22 2.02-2.76.15-.07.44-.19.45-.19.28-.12.47-.39.47-.7V6.5c0-.41.34-.75.75-.75s.75.34.75.75v.77c0 .32.21.61.51.71.14.05.28.11.42.19 1.03.53 1.79 1.56 2.01 2.75l1.18 6.1c.25 1.28 1.2 2.26 2.38 2.56v.67zM15 23c-.84 0-1.56-.52-1.85-1.25h3.7C16.56 22.48 15.84 23 15 23zm8-4.83c-.8 0-1.49-.6-1.65-1.43l-1.18-6.1c-.32-1.65-1.36-3.07-2.8-3.8-.04-.02-.08-.05-.12-.07V6.5c0-1.24-1.01-2.25-2.25-2.25s-2.25 1.01-2.25 2.25v.28c-.04.02-.08.04-.11.05-1.45.74-2.49 2.16-2.81 3.81l-1.18 6.1c-.16.83-.85 1.43-1.65 1.43-.41 0-.75.34-.75.75V21c0 .41.34.75.75.75h5.1A3.003 3.003 0 0 0 15 24c1.39 0 2.57-.96 2.9-2.25H23c.41 0 .75-.34.75-.75v-2.08c0-.41-.34-.75-.75-.75z"/></svg>