<svg width="30" height="30" xmlns="http://www.w3.org/2000/svg"><g fill="none" fill-rule="evenodd"><circle cx="15" cy="15" r="15"/><path d="M14.19 3.29l-.19.18a6.67 6.67 0 0 0-.42.66 6 6 0 0 0-.76 2.56 7.63 7.63 0 0 0 .77 3.72c1.75 3.8 5.62 7.33 4.76 11.64A7.84 7.84 0 0 1 17.7 24a6.3 6.3 0 0 1-1.95 2.41l-.43.28c-.13.08-.25.13-.34.18l-.28.13.21-.2.26-.24.29-.35a5.75 5.75 0 0 0 1.028-2.173l.062-.297a7.26 7.26 0 0 0 .17-1.74c0-4.11-3.89-7.21-5.06-11.07a7.23 7.23 0 0 1 0-4.35 6.28 6.28 0 0 1 2.28-3.11l.25-.18zM9.15 9.4L9 9.54v.17c0 .07-.05.16-.09.24a3.55 3.55 0 0 0-.12 1.49 6.72 6.72 0 0 0 1.53 3.12 19.27 19.27 0 0 1 2.49 3.89A3.94 3.94 0 0 1 13 21.1a3 3 0 0 1-1.1 1.52l-.25.17-.2.11-.19.1.19-.3.12-.23a2.49 2.49 0 0 0 .21-1.47c-.26-1.77-1.84-3.08-2.88-4.56-1.04-1.48-1.9-3.3-1.34-5.1a3.58 3.58 0 0 1 1-1.53 1.74 1.74 0 0 1 .22-.19l.37-.22zm8.62-3.85l-.09.15-.11.16-.063.118-.057.122a2.54 2.54 0 0 0-.22 1.5A7 7 0 0 0 19 10.75a18.23 18.23 0 0 1 2.75 4.07 4.33 4.33 0 0 1 .25 2.72 3 3 0 0 1-1 1.61l-.25.19-.2.12-.17.09.09-.14.1-.18.11-.24a2.6 2.6 0 0 0 .16-1.5c-.224-1.241-1.101-2.204-1.925-3.221l-.638-.798c-1.402-1.77-2.84-3.837-2.237-5.961a3.05 3.05 0 0 1 1.1-1.58l.26-.18.21-.11.16-.09z" fill="#BD8BCA" fill-rule="nonzero"/></g></svg>