<svg width="30" height="30" xmlns="http://www.w3.org/2000/svg"><path d="M24.979 12.333a.75.75 0 0 0-.75-.75h-6.5a.75.75 0 0 0 0 1.5h6.5a.75.75 0 0 0 .75-.75zm0-5.5a.75.75 0 0 0-.75-.75h-6.5a.75.75 0 0 0 0 1.5h6.5a.75.75 0 0 0 .75-.75zm-.021 16.417a.75.75 0 0 0-.75-.75h-18.5a.75.75 0 1 0 0 1.5h18.5a.75.75 0 0 0 .75-.75zm0-5.5a.75.75 0 0 0-.75-.75h-18.5a.75.75 0 1 0 0 1.5h18.5a.75.75 0 0 0 .75-.75zM12 5H6a1 1 0 0 0-1 1v6a1 1 0 0 0 1 1h6a1 1 0 0 0 1-1V6a1 1 0 0 0-1-1zm-5.5 6.5h5v-5h-5v5zM28 0H2C.899 0 0 .9 0 2v26c0 1.1.899 2 2 2h26c1.099 0 2-.9 2-2V2c0-1.1-.901-2-2-2zm0 1.5c.271 0 .5.229.5.5v26c0 .271-.229.5-.5.5H2a.507.507 0 0 1-.5-.5V2c0-.271.229-.5.5-.5h26z" fill="#354657" fill-rule="evenodd"/></svg>