<svg width="30" height="30" xmlns="http://www.w3.org/2000/svg"><path d="M6.5 11.5v-5h5v5h-5zm17.729-3.917a.749.749 0 1 0 0-1.5h-6.5a.75.75 0 0 0 0 1.5h6.5zm0 5.5a.749.749 0 1 0 0-1.5h-6.5a.75.75 0 0 0 0 1.5h6.5zm-.021 5.417a.75.75 0 1 0 0-1.5h-18.5a.75.75 0 0 0 0 1.5h18.5zm0 5.5a.75.75 0 1 0 0-1.5h-18.5a.75.75 0 0 0 0 1.5h18.5zM5 6v6a1 1 0 0 0 1 1h6a1 1 0 0 0 1-1V6a1 1 0 0 0-1-1H6a1 1 0 0 0-1 1zm23-6c1.1 0 2 .9 2 2v26c0 1.1-.9 2-2 2H2c-1.1 0-2-.9-2-2V2C0 .9.9 0 2 0h26z" fill="#354657" fill-rule="evenodd"/></svg>