<svg width="30" height="30" xmlns="http://www.w3.org/2000/svg"><g fill="none" fill-rule="evenodd"><circle cx="15" cy="15" r="15"/><path d="M25.05 11.44a5.53 5.53 0 0 0-8.5-3.7c-.55.38-1 .88-1.56 1.34l-.13-.17A5.34 5.34 0 0 0 11 6.85a5.46 5.46 0 0 0-5.62 3.4A4.57 4.57 0 0 0 5 12.11a6.79 6.79 0 0 0 1.3 4.56c.41.53.81 1.06 1.24 1.57a36.47 36.47 0 0 0 7.35 6.4c.11.1.28.1.39 0 1.13-.86 2.29-1.69 3.4-2.59a29.21 29.21 0 0 0 5.12-5.3 6.93 6.93 0 0 0 1.25-5.31zM10.9 8.6v.46c0 .17-.09.3-.19.3h-.16c-1.31 0-2.13.59-2.86 2a1.57 1.57 0 0 0-.13.51.32.32 0 0 1-.33.29h-.49a.29.29 0 0 1-.28-.32 2.59 2.59 0 0 1 .25-.95c.91-1.81 2.08-2.62 3.81-2.62h.2c.11.02.2.16.18.33zm12.41 3.08l-.45.07a.35.35 0 0 1-.37-.26 3 3 0 0 0-2.64-2.14.33.33 0 0 1-.3-.32v-.46a.29.29 0 0 1 .3-.3 4.09 4.09 0 0 1 3.71 3.07.28.28 0 0 1-.25.34z" fill="#354657" fill-rule="nonzero"/></g></svg>