<svg xmlns="http://www.w3.org/2000/svg" width="30" height="30"><path fill="#BD8BCA" fill-rule="evenodd" d="M15 0C6.716 0 0 6.716 0 15c0 8.284 6.716 15 15 15 8.284 0 15-6.716 15-15 0-8.284-6.716-15-15-15m0 1.5c7.444 0 13.5 6.056 13.5 13.5S22.444 28.5 15 28.5 1.5 22.444 1.5 15 7.556 1.5 15 1.5m5.5 5h-11c-.552 0-1 .442-1 .987v15.024c0 .578.481.989 1.002.989a.999.999 0 0 0 .522-.148L15 20.327l4.976 3.025a.999.999 0 0 0 .522.148.995.995 0 0 0 1.002-.989V7.487a.994.994 0 0 0-1-.987M20 8v13.611l-4.221-2.565a1.493 1.493 0 0 0-1.558 0L10 21.611V8h10"/></svg>