<svg width="48" height="44" xmlns="http://www.w3.org/2000/svg" xmlns:xlink="http://www.w3.org/1999/xlink"><defs><path d="M56.105 39.83a1.79 1.79 0 0 1 1.472 2.806c-1.575 2.275-4.99 3.42-8.609 4.633-3.585 1.203-7.65 2.564-8.544 4.804a.898.898 0 0 0 .244.895c1.129 1.079 2.99 1.5 5.706 1.288 2.893-.218 5.6-1.366 8.22-2.475 1.39-.59 2.703-1.145 4.025-1.56.709-.222 1.394-.415 2.047-.602 4.108-1.161 5.54-1.739 5.782-5.193.217-3.105-1.134-6.364-3.802-9.18-3.875-4.089-9.894-6.5-16.106-6.368-11.567.188-19.964 6.783-19.964 15.674 0 2.374.908 4.851 7.64 5.22.189.008.272-.006.3-.008-.008-.011.133-.147.381-.596 2.675-4.565 8.747-5.98 14.104-7.228 2.493-.582 4.85-1.132 6.253-1.893.27-.148.561-.217.851-.217m-7.003 18.38a1.8 1.8 0 0 1-.33-.681c-.691.138-1.4.24-2.127.294-3.767.29-6.536-.45-8.436-2.258a4.448 4.448 0 0 1-1.387-3.085c-.738.642-1.612.923-2.771.863-7.342-.403-11.052-3.358-11.052-8.79 0-10.755 10.097-19.03 23.48-19.25 7.345-.103 14.141 2.609 18.762 7.483 3.367 3.55 5.062 7.774 4.775 11.89-.23 3.267-1.482 5.118-3.19 6.303a1.8 1.8 0 0 1 .236.765c.166 2.192-.798 4.594-2.647 6.588-2.038 2.198-4.805 3.512-7.399 3.512-3.185 0-6.143-1.36-7.914-3.634zm-.24 9.855c-.568 0-1.124-.269-1.471-.77l-4.242-6.123a1.787 1.787 0 1 1 2.94-2.033l4.241 6.123a1.787 1.787 0 0 1-1.467 2.803zm5.364-10.338a7.25 7.25 0 0 0 2.79.543c1.592 0 3.422-.909 4.777-2.37.389-.418.72-.862.982-1.31l-.65.186c-.663.188-1.263.356-1.9.559-1.093.342-2.248.83-3.469 1.345-.812.345-1.656.704-2.53 1.047z" id="a"/></defs><use fill="#354657" xlink:href="#a" transform="translate(-22.167 -25)" fill-rule="evenodd"/></svg>