<svg width="30" height="30" xmlns="http://www.w3.org/2000/svg"><g fill="none" fill-rule="evenodd"><path d="M0 30h30V0H0z"/><path d="M8.5 21.75h13v-10.5h-13v10.5zm1-15.5c0-.28.22-.5.5-.5s.5.22.5.5v2c0 .28-.22.5-.5.5s-.5-.22-.5-.5v-2zm10 0c0-.28.22-.5.5-.5s.5.22.5.5v2c0 .28-.22.5-.5.5s-.5-.22-.5-.5v-2zm2.5 1h-.5v-1c0-.83-.67-1.5-1.5-1.5s-1.5.67-1.5 1.5v1h-7v-1c0-.83-.67-1.5-1.5-1.5s-1.5.67-1.5 1.5v1H8c-.55 0-1 .45-1 1v14c0 .55.45 1 1 1h14c.55 0 1-.45 1-1v-14c0-.55-.45-1-1-1zm-4.17 7.05l-.63-.63.53-.529.63.629-.53.53zm-5.34 5.33l-.73.11.11-.73 4.8-4.81.63.63-4.81 4.8zm6.6-6.54l-.68-.68a.955.955 0 0 0-.68-.29c-.25 0-.49.1-.68.29l-6.01 6.01c-.08.08-.13.17-.14.269l-.27 1.911c-.02.15.09.28.24.28.01 0 .02-.01.03-.01l1.91-.27c.1-.01.19-.06.27-.14l6.01-6.01c.38-.38.38-.99 0-1.36z" fill="#FFF"/></g></svg>