<svg xmlns="http://www.w3.org/2000/svg" width="30" height="30"><g fill="none" fill-rule="evenodd"><path d="M0 30h30V0H0z"/><path fill="#FFF" d="M8.5 21.75h13v-10.5h-13v10.5zm1-15.5c0-.28.22-.5.5-.5s.5.22.5.5v2c0 .28-.22.5-.5.5s-.5-.22-.5-.5v-2zm10 0c0-.28.22-.5.5-.5s.5.22.5.5v2c0 .28-.22.5-.5.5s-.5-.22-.5-.5v-2zm2.5 1h-.5v-1c0-.83-.67-1.5-1.5-1.5s-1.5.67-1.5 1.5v1h-7v-1c0-.83-.67-1.5-1.5-1.5s-1.5.67-1.5 1.5v1H8c-.55 0-1 .45-1 1v14c0 .55.45 1 1 1h14c.55 0 1-.45 1-1v-14c0-.55-.45-1-1-1z"/></g></svg>