<svg width="16" height="20" xmlns="http://www.w3.org/2000/svg"><g fill="none" fill-rule="evenodd"><path d="M-7 26h30V-4H-7z"/><path d="M1.5 17.75h13V7.25h-13v10.5zm1-15.5c0-.28.22-.5.5-.5s.5.22.5.5v2c0 .28-.22.5-.5.5s-.5-.22-.5-.5v-2zm10 0c0-.28.22-.5.5-.5s.5.22.5.5v2c0 .28-.22.5-.5.5s-.5-.22-.5-.5v-2zm2.5 1h-.5v-1c0-.83-.67-1.5-1.5-1.5s-1.5.67-1.5 1.5v1h-7v-1c0-.83-.67-1.5-1.5-1.5s-1.5.67-1.5 1.5v1H1c-.55 0-1 .45-1 1v14c0 .55.45 1 1 1h14c.55 0 1-.45 1-1v-14c0-.55-.45-1-1-1z" fill="#BD8BCA"/><path d="M12.163 9.17a.588.588 0 0 0-.828 0L5.917 14.59 4 12.669a.588.588 0 0 0-.828 0 .588.588 0 0 0 0 .829l2.332 2.333c.117.11.263.169.414.169a.597.597 0 0 0 .414-.17L12.163 10a.588.588 0 0 0 0-.828" fill="#BD8BCA"/></g></svg>