<svg width="42" height="49" xmlns="http://www.w3.org/2000/svg" xmlns:xlink="http://www.w3.org/1999/xlink"><defs><path d="M62.297 43.699c5.284 6.605 7.426 17.744 3.323 21.847-2.348 2.348-9.638 2.825-16.946 1.333-8.647-1.764-15.745-5.855-19.138-12.076-4.904-8.99-4.904-16.995.134-23.712l.16-.184 10.35-10.35c1.716-1.716 5.173-2.1 7.283-.835 2.955 1.774 2.35 5.28-1.393 9.024-.53.53-.992 1.008-1.394 1.444.67-.482 1.419-.953 2.252-1.433l.424-.243c1.694-.972 2.45-1.48 3.178-2.207 2.255-2.255 5.647-2.255 7.615-.288 2.226 2.227 1.406 5.509-2.057 7.587-2.397 1.438-3.605 2.696-3.883 3.795 3.753.469 7.134 2.6 10.092 6.298zM32.564 53.15c2.825 5.178 9.054 8.768 16.8 10.349 6.249 1.275 12.561.862 13.816-.392 2.537-2.537.747-11.848-3.577-17.253-2.76-3.45-5.735-5.103-9.003-5.103a1.725 1.725 0 0 1-1.636-1.179c-1.09-3.267.905-6.258 5.348-8.925 1.695-1.017 1.87-1.712 1.393-2.188-.62-.62-1.828-.62-2.735.287-1.011 1.011-1.95 1.641-3.901 2.76l-.42.241c-3.652 2.104-4.986 3.635-5.541 7.523-.303 2.121-3.433 1.899-3.433-.244 0-.79-.107-1.391-.365-2.293-.004-.015-.15-.517-.192-.667a10.282 10.282 0 0 1-.182-.75c-.533-2.665.624-4.94 4.694-9.01 1.394-1.393 2.093-2.496 2.215-3.205.046-.263.021-.313-.158-.42-.765-.46-2.483-.269-3.067.315L32.358 33.258c-4.09 5.53-4.066 12.06.206 19.892zm18.157-4.336a1.15 1.15 0 0 1 2.058-1.028c1.735 3.47 1.294 7-1.259 10.404a1.15 1.15 0 1 1-1.84-1.38c2.047-2.73 2.373-5.333 1.041-7.996zm1.222 4.818a1.15 1.15 0 0 1 .32-1.595 1.59 1.59 0 0 1 .388-.184c1.688-.55 3.974.842 6.941 5.081a1.15 1.15 0 1 1-1.884 1.32c-1.457-2.081-2.665-3.328-3.609-3.902-.437-.266-.655-.318-.72-.314a1.15 1.15 0 0 1-1.435-.406z" id="a"/></defs><g transform="translate(-25.833 -19)" fill="none" fill-rule="evenodd"><mask id="b" fill="#fff"><use xlink:href="#a"/></mask><use fill="#354657" fill-rule="nonzero" xlink:href="#a"/><g mask="url(#b)" fill="#364657"><path d="M0 0h92v92H0z"/></g></g></svg>