<svg xmlns="http://www.w3.org/2000/svg" width="30" height="30"><g fill="none" fill-rule="evenodd"><path d="M0 30h30V0H0z"/><path fill="#FFF" d="M10.45 13.95a1 1 0 1 0 0 2 1 1 0 0 0 0-2zm4 0a1 1 0 1 0 0 2 1 1 0 0 0 0-2zm4 0a1 1 0 1 0 0 2 1 1 0 0 0 0-2zm2.89 6.43l-.04-.43-.14-1.5-.24-2.66.53.37 1.5 1.07 1.73 1.22-.78.22-.74.21.39.67 1.2 2.08-.7.4-1.2-2.08-.18-.32-.2-.35-.55.54-.13.13-.45.43zM7.7 18.45a.25.25 0 0 1-.25-.25v-6.5a.25.25 0 0 1 .25-.25h13.5a.25.25 0 0 1 .25.25v3.73l-1.25-.88.36 3.9H7.7zm14.22-8.5H6.98c-.57 0-1.03.46-1.03 1.03v7.94c0 .57.46 1.03 1.03 1.03h13.71l.16 1.73 1.48-1.43 1.5 2.6 1.74-1-1.5-2.6 1.98-.57-3.1-2.19v-5.51c0-.57-.46-1.03-1.03-1.03z"/></g></svg>