<svg xmlns="http://www.w3.org/2000/svg" width="30" height="30"><g fill="none" fill-rule="evenodd"><path d="M0 30h30V0H0z"/><path fill="#FFF" d="M15 7.5c-4.136 0-7.5 2.908-7.5 6.483 0 1.52.599 2.949 1.731 4.132.167.175.24.42.195.658a7.543 7.543 0 0 1-1.037 2.636 6.252 6.252 0 0 0 2.916-1.339.75.75 0 0 1 .735-.126c.95.347 1.946.523 2.96.523 4.136 0 7.5-2.908 7.5-6.484 0-3.575-3.364-6.483-7.5-6.483M7.331 23H6.75a.75.75 0 0 1-.53-1.28c.833-.835 1.384-1.805 1.653-2.868C6.662 17.455 6 15.741 6 13.983 6 9.581 10.038 6 15 6c4.963 0 9 3.581 9 7.983 0 4.403-4.037 7.984-9 7.984a10.07 10.07 0 0 1-3.076-.478A7.76 7.76 0 0 1 7.331 23"/></g></svg>