<svg width="30" height="30" xmlns="http://www.w3.org/2000/svg"><g fill="none" fill-rule="evenodd"><circle cx="15" cy="15" r="15"/><path d="M14.13 5.68a2.2 2.2 0 0 1 1.54.62 2.23 2.23 0 0 1 3 .64 2.25 2.25 0 0 1 2.74 1.37 2.25 2.25 0 0 1 2.14 2.19 2.21 2.21 0 0 1 1.46 2.09 2.1 2.1 0 0 1-.17.86c.403.415.63.971.63 1.55a2.23 2.23 0 0 1-1.34 2.01c.053.236.077.478.07.72a2.67 2.67 0 0 1-2.492 2.514l-.168.006h-.7l.69 2a1.7 1.7 0 0 1-.26 1.51 1.65 1.65 0 0 1-1.33.67 1.67 1.67 0 0 1-1.36-.715l-.08-.125a4.2 4.2 0 0 0-1.85-1.64 3.8 3.8 0 0 1-3.11-2.22 3 3 0 0 1-1 .17 3.46 3.46 0 0 1-1.09-.18 3.38 3.38 0 0 1-1.5-1 2.21 2.21 0 0 1-.95.22 2.25 2.25 0 0 1-1.564-.594L7.3 18.21h-.24a2.23 2.23 0 0 1-2.23-2.23 2.39 2.39 0 0 1 .09-.66 2.22 2.22 0 0 1 .53-3.06A2.24 2.24 0 0 1 7 9.17a2.23 2.23 0 0 1 2.18-1.71c.1-.01.2-.01.3 0a2.22 2.22 0 0 1 2-1.27 2.28 2.28 0 0 1 1 .21 2.27 2.27 0 0 1 1.65-.72zm.235.93A1.39 1.39 0 0 0 13.08 7a1.2 1.2 0 0 0-.21 1.12.1.1 0 0 1 0 .11.08.08 0 0 1-.09 0 1.4 1.4 0 0 1-.094-.387l-.006-.133v-.1l-.06-.06A1.37 1.37 0 0 0 11.51 7a1.39 1.39 0 0 0-1.39 1.35.85.85 0 0 0 .39.74.13.13 0 0 1 0 .06.08.08 0 0 1-.1 0 .91.91 0 0 1-.384-.454L9.99 8.58v-.09h-.08a1.34 1.34 0 0 0-.72-.21 1.39 1.39 0 0 0-1.36 1.45l-.004.09.004.09V10c.047.27.185.517.39.7.03.03.03.08 0 .11a.06.06 0 0 1-.06 0 1.37 1.37 0 0 1-.383-.5L7.66 10h-.17a1.38 1.38 0 0 0-.54 2.62c.072.031.147.055.224.072l.116.018a.08.08 0 0 1 .08.08.08.08 0 0 1-.09.07 1.31 1.31 0 0 1-.291-.064l-.139-.056h-.13a1.39 1.39 0 0 0-1.23 1.38c0 .295.094.583.27.82.207.156.46.24.72.24l.004.025-.004.025a.07.07 0 0 1-.07.08 1 1 0 0 1-.222-.021l-.108-.029h-.2l-.08.19a1.33 1.33 0 0 0-.12.55 1.39 1.39 0 0 0 1.51 1.47l.125.008.125-.008h.24v-.24a1.43 1.43 0 0 1 0-.62.06.06 0 0 1 .06 0 .08.08 0 0 1 .06.09c-.066.344-.002.7.18 1a1.4 1.4 0 0 0 1.98.22l.11-.1.09-.09v-.12a1.4 1.4 0 0 1 .092-.868l.068-.132h.06a.18.18 0 0 1 0 .06 1.27 1.27 0 0 0-.13.93 2.29 2.29 0 0 0 1.46 1.31 2.51 2.51 0 0 0 2.025-.17l.165-.1.1-.07v-.12a1.78 1.78 0 0 1 1.68-1.6.07.07 0 0 1 .08.07 1.65 1.65 0 0 0-1.58 1.9 2.87 2.87 0 0 0 2.73 2.33 5.08 5.08 0 0 1 2.205 1.78l.145.22a.84.84 0 0 0 .71.41.79.79 0 0 0 .65-.33.83.83 0 0 0 .157-.639l-.027-.111-.75-2.12a.77.77 0 0 1-.025-.338L20 19.91l.1-.31h-2.28a.08.08 0 0 1-.031-.154l.031-.006h3.75a1.81 1.81 0 0 0 1.81-1.71 1.77 1.77 0 0 0-.222-.958l-.088-.142-.07-.1h-2a.08.08 0 0 1-.08-.08.08.08 0 0 1 .051-.065L21 16.38h2.47c.57-.18.88-.618.987-1.21a1.39 1.39 0 0 0-.59-1.399l-.117-.071-.11-.06-.12.07a1.25 1.25 0 0 1-1 .13.06.06 0 0 1 0-.06.07.07 0 0 1 .09-.05 1.19 1.19 0 0 0 1.029-.254l.101-.096h.05a1.3 1.3 0 0 0 .25-.79 1.4 1.4 0 0 0-1.27-1.38 1.2 1.2 0 0 0-1 .58.07.07 0 0 1-.05.021l-.027-.005-.023-.016v-.11a1.45 1.45 0 0 1 .62-.538l.13-.052h.12v-.11c.04-.137.06-.278.06-.42a1.38 1.38 0 0 0-1.39-1.38 1.25 1.25 0 0 0-.43.07 1.24 1.24 0 0 0-.483.854l-.007.146h-.06a.07.07 0 0 1-.07-.07c.01-.33.132-.646.344-.897l.096-.103.09-.07V9a1.38 1.38 0 0 0-1.36-1.3 1.39 1.39 0 0 0-.826.275l-.114.095-.07.08a1.2 1.2 0 0 0-.17 1.11.08.08 0 0 1-.15.05 1.45 1.45 0 0 1-.034-1.011l.054-.139.06-.09v-.1a1.39 1.39 0 0 0-2.54-.42 1.26 1.26 0 0 0-.095.797l.035.133a.06.06 0 0 1 0 .06.08.08 0 0 1-.1 0 1.56 1.56 0 0 1-.041-.714l.041-.176v-.16a1.39 1.39 0 0 0-1.015-.88zm5.175 9.59a.11.11 0 0 1 .08.14 2 2 0 0 1-1.797 1.33h-.483a.12.12 0 0 1-.1-.13.12.12 0 0 1 .11-.1h.32a1.77 1.77 0 0 0 1.7-1.008l.06-.142a.11.11 0 0 1 .072-.084l.038-.006zm-.38-4.183l.03.003a.13.13 0 0 1 .11.08c.037.12.06.244.07.37v.2h.31a1.48 1.48 0 0 1 1.39.91.11.11 0 0 1-.034.135l-.026.015a.11.11 0 0 1-.01-.13 1.24 1.24 0 0 0-1.17-.78 1 1 0 0 0-.24 0h-.12v.11a1.11 1.11 0 0 1-.19.34 1.81 1.81 0 0 1-.839.486l-.161.034a1.77 1.77 0 0 0-.94.5 1.81 1.81 0 0 0-.2 1.78.11.11 0 0 1 0 .08.13.13 0 0 1-.07.06l-.07.05a.15.15 0 0 1-.11-.08 2 2 0 0 1 .26-2 2 2 0 0 1 1-.57 1.58 1.58 0 0 0 .85-.44 1.16 1.16 0 0 0 .13-1.06.13.13 0 0 1 0-.09l.03-.003zM14.1 13.88c.06 0 .11.05.11.11a.1.1 0 0 1-.11.11 1.72 1.72 0 0 0-1.742 1.328l-.028.152a.1.1 0 0 1-.11.09l-.04-.04a.1.1 0 0 1-.08 0c-.008-.02-.01-.04-.008-.06l.008-.03a1.94 1.94 0 0 1 2-1.66zm1.11-3.65c.057.03.083.1.06.16a1.78 1.78 0 0 1-1.61 1h-.23a2 2 0 0 0-.76-.18 1.5 1.5 0 0 0-.52.1 2.07 2.07 0 0 0-1 1.13.13.13 0 0 1-.11.08 2.71 2.71 0 0 0-.54 0 1.47 1.47 0 0 0-1 .34 1.64 1.64 0 0 0-.502 1.12l.002.16a.11.11 0 0 1-.1.12l.01-.04a.1.1 0 0 1-.11-.1 1.92 1.92 0 0 1 .54-1.46 1.71 1.71 0 0 1 1.19-.4c.11-.01.22-.01.33 0H11l.06-.12a2.14 2.14 0 0 1 1-1 1.38 1.38 0 0 1 .6-.13 2 2 0 0 1 .79.18h.2a1.52 1.52 0 0 0 1.41-.89.12.12 0 0 1 .1-.07h.05zm2.09 1.3a.12.12 0 0 1 .12.12.11.11 0 0 1-.12.11 1.17 1.17 0 0 0-1.29.84.12.12 0 0 1-.099.065l-.041-.005a.11.11 0 0 1-.09-.13 1.41 1.41 0 0 1 1.52-1z" fill="#354657" fill-rule="nonzero"/></g></svg>