<svg width="30" height="30" xmlns="http://www.w3.org/2000/svg"><path d="M11.404 6a.74.74 0 0 0-.244.041l-1.691.646-3.063 1.166a.734.734 0 0 0-.214.14L6.186 8a.564.564 0 0 0-.11.153.452.452 0 0 0-.059.177c-.011.041-.023.082-.013.131a.437.437 0 0 0 .016.161.24.24 0 0 0 .027.106c.862 3.698 2.822 7.064 5.492 9.734 2.671 2.671 6.036 4.631 9.734 5.493a.254.254 0 0 0 .106.027.408.408 0 0 0 .16.016l.042.002a.274.274 0 0 0 .048-.004l.01.001a.04.04 0 0 0 .031-.012.447.447 0 0 0 .177-.059.553.553 0 0 0 .154-.11l.006-.006a.724.724 0 0 0 .141-.214l1.165-3.064.646-1.69a.766.766 0 0 0-.041-.592.933.933 0 0 0-.468-.43l-4.255-1.629a.812.812 0 0 0-.278-.05.643.643 0 0 0-.277.06l-2.197 1.006a19.19 19.19 0 0 1-3.649-3.648L13.8 11.36a.722.722 0 0 0 .01-.554l-1.629-4.255a.933.933 0 0 0-.429-.469.77.77 0 0 0-.348-.082m-.388 1.702l1.28 3.342-.866 1.891a1.5 1.5 0 0 0 .17 1.532 20.674 20.674 0 0 0 3.934 3.934 1.496 1.496 0 0 0 1.533.17l1.89-.865 3.341 1.279-.388 1.014-.891 2.346C17.9 21.502 15 19.802 12.6 17.401c-2.4-2.4-4.1-5.299-4.943-8.42l2.348-.892 1.011-.387M15 0C6.716 0 0 6.716 0 15c0 8.284 6.716 15 15 15 8.284 0 15-6.716 15-15 0-8.284-6.716-15-15-15m0 1.5c7.444 0 13.5 6.056 13.5 13.5S22.444 28.5 15 28.5 1.5 22.444 1.5 15 7.556 1.5 15 1.5" fill="#FFF" fill-rule="evenodd"/></svg>