<svg width="30" height="30" xmlns="http://www.w3.org/2000/svg"><g fill="none" fill-rule="nonzero"><circle fill="#FFF" cx="15" cy="15" r="15"/><path d="M15.06 7.26a8 8 0 1 1 0 16 8 8 0 0 1 0-16zm-8.49.41a.22.22 0 0 1 .212.162l.008.058L7 11c0 1-.66 1.33-1 1.85a33.81 33.81 0 0 1 .29 4.91c0 2.33.39 3.18.39 4.28 0 .43-.54.78-1 .78-.46 0-1-.35-1-.78 0-1.1.39-1.95.39-4.28a33.81 33.81 0 0 1 .25-4.87c-.308-.485-.912-.84-.991-1.698L4.32 11l.23-3.11a.22.22 0 0 1 .22-.22.24.24 0 0 1 .218.162L5 7.89V11h.34l.1-3.11a.24.24 0 0 1 .23-.22.22.22 0 0 1 .212.162l.008.058L6 11h.35V7.89a.22.22 0 0 1 .22-.22zm18.6 0a.21.21 0 0 1 .22.16c.03.106.048.215.056.325l.004.165v6.39a.71.71 0 0 1-.216.517l-.074.063.39 6.71a.77.77 0 0 1-.77.78.78.78 0 0 1-.773-.674L24 22l.3-6.71a.71.71 0 0 1-.293-.482L24 14.71v-3.58c0-2.13.54-3.46 1.17-3.46zm-14.744 2.926a6.54 6.54 0 1 0 9.248 9.248 6.54 6.54 0 0 0-9.248-9.248zm4.634-.956a5.59 5.59 0 1 1-.02 11.18 5.59 5.59 0 0 1 .02-11.18z" fill="#354657"/></g></svg>