<svg xmlns="http://www.w3.org/2000/svg" width="30" height="30"><path fill="#354657" fill-rule="evenodd" d="M16.41 15l4.95-4.95a.996.996 0 1 0-1.41-1.41L15 13.59l-4.95-4.95a.996.996 0 1 0-1.41 1.41L13.59 15l-4.95 4.95a.996.996 0 0 0 0 1.41c.19.2.45.3.7.3.26 0 .51-.1.71-.3L15 16.41l4.95 4.95c.2.2.45.3.71.3.25 0 .51-.1.7-.3a.996.996 0 0 0 0-1.41L16.41 15zM15 0C6.716 0 0 6.716 0 15c0 8.284 6.716 15 15 15 8.284 0 15-6.716 15-15 0-8.284-6.716-15-15-15zm0 1.5c7.444 0 13.5 6.056 13.5 13.5S22.444 28.5 15 28.5 1.5 22.444 1.5 15 7.556 1.5 15 1.5z"/></svg>