<svg xmlns="http://www.w3.org/2000/svg" width="30" height="30"><path fill="#BD8BCA" fill-rule="evenodd" d="M30 15c0 8.284-6.716 15-15 15-8.284 0-15-6.716-15-15C0 6.716 6.716 0 15 0c8.284 0 15 6.716 15 15zm-6.75 3.5h-.83a2.265 2.265 0 0 0-2.84 0h-.83V12h1.94l2.56 2.561V18.5zm-1.5 1.75c0 .41-.34.75-.75.75s-.75-.34-.75-.75c0-.09.02-.17.05-.25.1-.29.38-.5.7-.5.32 0 .6.21.7.5.03.08.05.16.05.25zm-4.5-1.75h-6.83a2.265 2.265 0 0 0-2.84 0h-.83V9h10.5v9.5zm-7.5 1.75c0 .41-.34.75-.75.75s-.75-.34-.75-.75c0-.09.02-.17.05-.25.1-.29.38-.5.7-.5.32 0 .6.21.7.5.03.08.05.16.05.25zm14.78-6.53l-3-3a.75.75 0 0 0-.53-.22h-2.25V8.25c0-.41-.34-.75-.75-.75H6c-.41 0-.75.34-.75.75v11c0 .41.34.75.75.75h.76c-.01.08-.01.17-.01.25 0 1.24 1.01 2.25 2.25 2.25s2.25-1.01 2.25-2.25c0-.08 0-.17-.01-.25h7.52c-.01.08-.01.17-.01.25 0 1.24 1.01 2.25 2.25 2.25s2.25-1.01 2.25-2.25c0-.08 0-.17-.01-.25H24c.41 0 .75-.34.75-.75v-5c0-.2-.08-.39-.22-.53z"/></svg>