<svg width="30" height="30" fill="none" xmlns="http://www.w3.org/2000/svg"><path fill-rule="evenodd" clip-rule="evenodd" d="M19.77 21.648l-.24.301h-9.04l-.24-.301a7.315 7.315 0 0 1-1.63-3.59H21.4c-.2 1.31-.76 2.55-1.63 3.59zM8.88 14.779c.1-1.031 1.03-1.83 2.13-1.83.13 0 .26.009.39.029l7.54 1.29c1.41.23 2.44 1.35 2.51 2.681H8.62l.26-2.17zm13.56 2.17c-.06-1.821-1.45-3.361-3.34-3.661l-7.54-1.29c-.18-.03-.37-.049-.55-.049-1.59 0-2.97 1.159-3.12 2.739l-.27 2.261-.07.569c.01.181.03.36.06.54.21 1.54.85 3.011 1.87 4.23l.54.661H20l.54-.661a8.352 8.352 0 0 0 1.87-4.23c.02-.1.03-.21.04-.319v-.661c0-.04 0-.089-.01-.129zm-8.782-6.102l.364-.723a2.26 2.26 0 0 0-.259-2.452 1.521 1.521 0 0 1-.29-1.349l.212-.798a.375.375 0 0 0-.266-.459.38.38 0 0 0-.458.265l-.212.798a2.266 2.266 0 0 0 .428 2.01c.38.478.448 1.108.175 1.647l-.364.723a.375.375 0 1 0 .67.338zm2.989.784l.399-.83a2.64 2.64 0 0 0-.278-2.749 1.895 1.895 0 0 1-.327-1.614l.232-.918a.376.376 0 0 0-.728-.184l-.231.918a2.636 2.636 0 0 0 .457 2.251c.432.571.508 1.326.199 1.972l-.399.83a.376.376 0 0 0 .337.537c.14 0 .275-.078.339-.213zM15 0C6.716 0 0 6.716 0 15c0 8.285 6.716 15 15 15 8.284 0 15-6.715 15-15 0-8.284-6.716-15-15-15zm0 1.5c7.444 0 13.5 6.057 13.5 13.5 0 7.444-6.056 13.5-13.5 13.5S1.5 22.444 1.5 15C1.5 7.557 7.556 1.5 15 1.5z" fill="#354657"/></svg>