<svg width="30" height="30" fill="none" xmlns="http://www.w3.org/2000/svg"><path fill-rule="evenodd" clip-rule="evenodd" d="M16.309 11.844a.374.374 0 0 1-.337-.537l.399-.83a1.896 1.896 0 0 0-.2-1.972 2.643 2.643 0 0 1-.457-2.251l.232-.918a.374.374 0 1 1 .727.184l-.231.918a1.888 1.888 0 0 0 .327 1.614c.603.795.71 1.849.277 2.749l-.398.83a.375.375 0 0 1-.34.213zm3.46 9.804l-.238.3h-9.04l-.242-.3a7.3 7.3 0 0 1-1.629-3.59H21.4a7.313 7.313 0 0 1-1.63 3.59zm-10.89-6.87c.1-1.03 1.032-1.83 2.13-1.83.131 0 .26.01.39.03l7.542 1.29c1.409.23 2.439 1.35 2.51 2.68H8.62l.258-2.17zm13.562 2.17c-.061-1.82-1.45-3.36-3.341-3.66l-7.54-1.29a3.32 3.32 0 0 0-.55-.05c-1.59 0-2.97 1.16-3.12 2.74l-.27 2.26-.07.57c.01.18.03.36.06.54a8.36 8.36 0 0 0 1.87 4.23l.54.66H20l.54-.66a8.368 8.368 0 0 0 1.87-4.23c.02-.1.03-.21.04-.32v-.66c0-.04 0-.09-.01-.13zm-9.287-5.935a.374.374 0 0 0 .504-.166l.364-.723a2.262 2.262 0 0 0-.259-2.452 1.522 1.522 0 0 1-.29-1.35l.212-.797a.375.375 0 0 0-.724-.194l-.212.798a2.266 2.266 0 0 0 .427 2.01c.381.477.45 1.108.176 1.647l-.364.723a.374.374 0 0 0 .166.504z" fill="#354657"/></svg>