<svg xmlns="http://www.w3.org/2000/svg" width="30" height="30"><g fill="none" fill-rule="evenodd"><path d="M0 30h30V0H0z"/><path fill="#FFF" d="M12.41 12.37c.35-.4.69-.81.99-1.21.68-.93 1.22-1.91 1.6-2.71.38.8.92 1.78 1.6 2.71.22.3.47.61.72.93.35.45.72.93 1.06 1.41H11.5c.28-.38.59-.75.91-1.13m6.09-1.2c-.24-.31-.48-.62-.7-.91-1.35-1.83-2.08-3.98-2.09-4-.1-.3-.39-.51-.71-.51-.32 0-.61.21-.71.51-.01.02-.73 2.17-2.1 4-.28.39-.6.76-.92 1.14-1.18 1.4-2.52 2.98-2.52 5.21 0 3.72 2.75 6.64 6.25 6.64s6.25-2.92 6.25-6.64c0-1.91-1.46-3.78-2.75-5.44"/></g></svg>