<svg xmlns="http://www.w3.org/2000/svg" width="30" height="30"><g fill="none" fill-rule="evenodd"><path d="M0 30h30V0H0z"/><path fill="#354657" d="M9.223 17.667c-.398 0-.723-.294-.723-.653V10.14c0-.36.325-.654.723-.654h1.75c.329 0 .617.202.699.491l.214.75 3.023-1.002h3.885c.32 0 .607.194.695.473l1.983 6.276a.574.574 0 0 1 .028.177c0 .361-.324.654-.722.654h-4.136l.922 3.424c.089.329.04.673-.133.971a1.385 1.385 0 0 1-.432.453l-1.927-4.806-3.222-1.029-.166.815c-.064.309-.362.534-.711.534h-1.75zM10.973 8h-1.75C7.997 8 7 8.96 7 10.14v6.874c0 1.179.997 2.139 2.223 2.139h1.75c.763 0 1.452-.376 1.854-.961l1.112.355L16.126 24l.799-.206a2.92 2.92 0 0 0 1.803-1.348 2.724 2.724 0 0 0 .285-2.101l-.418-1.553h2.183c1.225 0 2.222-.961 2.222-2.141 0-.21-.032-.42-.096-.623L20.92 9.754c-.286-.906-1.14-1.516-2.126-1.516l-4.245.038-1.79.593A2.257 2.257 0 0 0 10.974 8z"/></g></svg>