<svg xmlns="http://www.w3.org/2000/svg" width="30" height="30"><path fill="#354657" fill-rule="evenodd" d="M20.777 18.791h-2.183l.418 1.554a2.72 2.72 0 0 1-.285 2.101 2.918 2.918 0 0 1-1.803 1.348l-.798.206-2.188-5.453-1.111-.355a2.252 2.252 0 0 1-1.855.961h-1.75c-1.225 0-2.222-.96-2.222-2.139v-6.873C7 8.96 7.997 8 9.222 8h1.75c.719 0 1.377.336 1.787.869l1.789-.592 4.246-.039c.985 0 1.839.61 2.126 1.516l1.983 6.274c.064.203.097.413.097.623 0 1.18-.997 2.14-2.223 2.14M15 0C6.715 0 0 6.716 0 15c0 8.284 6.715 15 15 15 8.284 0 15-6.716 15-15 0-8.284-6.716-15-15-15"/></svg>