<svg xmlns="http://www.w3.org/2000/svg" width="30" height="30"><path fill="#FFF" fill-rule="evenodd" d="M15 0C6.716 0 0 6.716 0 15c0 8.284 6.716 15 15 15 8.284 0 15-6.716 15-15 0-8.284-6.716-15-15-15zm0 1.5c7.444 0 13.5 6.056 13.5 13.5 0 7.443-6.056 13.5-13.5 13.5S1.5 22.443 1.5 15C1.5 7.556 7.556 1.5 15 1.5zM9.223 17.667c-.399 0-.723-.294-.723-.653V10.14c0-.36.324-.654.723-.654h1.75c.329 0 .617.202.699.491l.214.75 3.022-1.002h3.886c.32 0 .606.194.694.473l1.984 6.276a.605.605 0 0 1 .028.177c0 .361-.324.654-.723.654h-4.135l.921 3.424c.089.329.041.673-.132.971a1.396 1.396 0 0 1-.432.453l-1.928-4.806-3.221-1.029-.166.815c-.064.309-.363.534-.711.534h-1.75zM10.973 8h-1.75C7.997 8 7 8.96 7 10.14v6.874c0 1.179.997 2.139 2.223 2.139h1.75a2.25 2.25 0 0 0 1.854-.961l1.111.355L16.126 24l.799-.206a2.924 2.924 0 0 0 1.803-1.348 2.724 2.724 0 0 0 .285-2.101l-.418-1.553h2.182c1.226 0 2.223-.961 2.223-2.141 0-.21-.032-.42-.097-.623L20.92 9.754c-.286-.906-1.141-1.516-2.126-1.516l-4.245.038-1.789.593A2.258 2.258 0 0 0 10.973 8z"/></svg>