<svg xmlns="http://www.w3.org/2000/svg" width="30" height="30"><g fill="none" fill-rule="evenodd"><path d="M0 30h30V0H0z"/><path fill="#354657" d="M22.952 25H7.049a2.05 2.05 0 0 1-2.05-2.048V7.048A2.05 2.05 0 0 1 7.05 5h7.95a.75.75 0 0 1 0 1.5H7.05a.549.549 0 0 0-.55.548v15.904c0 .302.247.548.55.548h15.903a.549.549 0 0 0 .548-.548V15a.75.75 0 0 1 1.5 0v7.952A2.05 2.05 0 0 1 22.952 25zM22.72 8.57l-.78.789-1.29-1.289.78-.79a.087.087 0 0 1 .07-.03c.05 0 .07.02.08.03l1.14 1.14c.01.01.03.03.03.08a.09.09 0 0 1-.03.07zm-9.88 9.88l-1.51.22.22-1.51 8.39-8.38 1.29 1.29-8.39 8.38zM23.78 7.359L22.64 6.22a1.604 1.604 0 0 0-2.27 0L10.32 16.27a.857.857 0 0 0-.23.45l-.45 3.19c-.04.24.16.449.4.449h.05l3.19-.449c.17-.03.33-.11.45-.23L23.78 9.63c.63-.63.63-1.64 0-2.271z"/></g></svg>