<svg width="30" height="30" xmlns="http://www.w3.org/2000/svg"><g transform="translate(1)" fill-rule="nonzero" fill="none"><circle cx="14" cy="15" r="15"/><path d="M22.77 18.74a1.78 1.78 0 0 0-1-.27l-.12-.61c.349.018.69.11 1 .27.71-4.63-2.06-9.44-2.28-9.81l-.9-2.1a3.44 3.44 0 0 0-2.19-1.94l-2.9-1.18a2.23 2.23 0 0 0-1.51-.05 2.08 2.08 0 0 0-1.07.82l-1 1.43a.7.7 0 0 0 .3 1h.06a.1.1 0 0 1 .05.07.11.11 0 0 1 0 .12l-.12.2a.69.69 0 0 0 .33 1l1.68.68a2 2 0 0 0 1.9-.16c.24-.165.53-.24.82-.21.29.08.39.59.32.88a15.75 15.75 0 0 0-.4 6.6 4.74 4.74 0 0 0-1.81-.35 5.55 5.55 0 0 0-3.31 1.17 3.42 3.42 0 0 0-1.14-.2 4.28 4.28 0 0 0-2.82 1.21l-.08.08v8.41h.21c.455.115.92.182 1.39.2a5.75 5.75 0 0 0 4.28-1.89 3.62 3.62 0 0 1-1.4-1l.31-.52a6.33 6.33 0 0 0 2.33 1.83 4.7 4.7 0 0 0 1.05.12c2.92 0 5.11-2.45 5.35-2.72h.06c.122.01.243.034.36.07a1.82 1.82 0 0 0 2.23-1 1.93 1.93 0 0 0 .09-1.94.41.41 0 0 1-.07-.21zM20 18.23a1.49 1.49 0 0 1 .08 1.83c-.73.83-1.89.17-1.89.17s-3.33 3.24-7 1.17a7.74 7.74 0 0 1-4.09 1.77v-5.59a3.69 3.69 0 0 1 2.37-1c.373 0 .743.071 1.09.21l.15.06.12-.1a5.18 5.18 0 0 1 3.09-1.14 4.37 4.37 0 0 1 2.06.52c.365.194.669.485.88.84l.47-.23a2.7 2.7 0 0 0-1-1A14.91 14.91 0 0 1 16.64 9 1.26 1.26 0 0 0 16 7.46a1.67 1.67 0 0 0-1.26.3 1.68 1.68 0 0 1-1.48.13l-1.66-.66a.14.14 0 0 1-.09-.1.15.15 0 0 1 0-.13l.08-.14a.68.68 0 0 0 .12-.26l.72.31a.51.51 0 0 0 .68-.26l.06-.17.16-.43a.34.34 0 0 0-.56-.36l-.37.39a.29.29 0 0 0-.09.21l-.93-.41c-.12-.09-.19-.26 0-.51l.81-1.16a1.69 1.69 0 0 1 1.28-.75c.24-.01.478.03.7.12l2.91 1.18A2.94 2.94 0 0 1 19 6.42l.91 2.11a20.4 20.4 0 0 1 1.38 3c.19 1.79.28 4.91-1.29 6.7z" fill="#BD8BCA"/></g></svg>