<svg xmlns="http://www.w3.org/2000/svg" width="30" height="30"><path fill="#DE6C6C" fill-rule="evenodd" d="M15 30c8.284 0 15-6.716 15-15 0-8.284-6.716-15-15-15C6.716 0 0 6.716 0 15c0 8.284 6.716 15 15 15m0-1.5C7.556 28.5 1.5 22.444 1.5 15S7.556 1.5 15 1.5 28.5 7.556 28.5 15 22.444 28.5 15 28.5M14 9.25v8a1 1 0 1 0 2 0v-8a1 1 0 1 0-2 0m1 10.5a.992.992 0 0 1 1 1.006.992.992 0 0 1-.08.383c-.05.121-.119.231-.21.332-.38.372-1.04.372-1.42 0a1.187 1.187 0 0 1-.21-.332.999.999 0 0 1 .21-1.097c.19-.19.44-.292.71-.292"/></svg>