<svg xmlns="http://www.w3.org/2000/svg" width="30" height="30"><g fill="none" fill-rule="evenodd"><path d="M0 30h30V0H0z"/><path fill="#FFF" d="M10.076 5c-1.56 0-3.12.6-4.306 1.809-2.36 2.419-2.36 6.367 0 8.775L14.999 25l9.228-9.416C25.413 14.385 26 12.793 26 11.201a6.247 6.247 0 0 0-1.773-4.392 6.015 6.015 0 0 0-4.303-1.806 5.992 5.992 0 0 0-4.297 1.806l-.628.64-.628-.64A5.964 5.964 0 0 0 10.076 5m0 1.5c1.228 0 2.37.48 3.224 1.358l.628.642 1.07 1.093L16.07 8.5l.629-.642a4.48 4.48 0 0 1 3.225-1.355c1.223 0 2.372.482 3.232 1.355a4.74 4.74 0 0 1 1.344 3.343c0 1.273-.475 2.454-1.344 3.333l-8.157 8.323-8.157-8.323c-1.8-1.837-1.8-4.832 0-6.676A4.494 4.494 0 0 1 10.076 6.5"/></g></svg>