<svg xmlns="http://www.w3.org/2000/svg" width="30" height="30"><g fill="none" fill-rule="evenodd"><path d="M0 30h30V0H0z"/><path fill="#FFF" d="M15.168 22.477h-5.21l-2.59-4.479 7.73-.78c.15-.01.28-.05.4-.12.12-.07.23-.17.31-.29l4.55-6.31 3.89 6.74-9.08 5.24zm-9.41-7.26l12.99-7.5.79 1.36-4.81 6.671-8.18.83-.79-1.36zm20.04 1.71l-6.01-10.4a.988.988 0 0 0-1.36-.37c-2.63 1.5-11.12 6.42-13.86 8.01-.48.28-.64.88-.36 1.36l4.01 6.95h-2.22c-.41 0-.75.34-.75.75s.34.75.75.75h18c.41 0 .75-.34.75-.75s-.34-.75-.75-.75h-5.83l7.26-4.189a1 1 0 0 0 .37-1.36z"/></g></svg>