<svg xmlns="http://www.w3.org/2000/svg" width="41" height="40"><path fill="#BD8BCA" d="M23 28v-8h6v8h-6zm-8 0v-8h6v8h-6zm-1-10v-2h7v2h-7zm4-8c.361.033 1.117.338 1.883 1.117.8.8 1.095 1.555 1.117 1.883-.361-.033-1.117-.338-1.883-1.117-.8-.8-1.095-1.555-1.117-1.883zm6.117 1.117c.766-.779 1.522-1.084 1.883-1.117-.022.328-.318 1.084-1.117 1.883-.766.779-1.522 1.084-1.883 1.117.022-.328.318-1.084 1.117-1.883zM23 18v-2h7v2h-7zm7.75-4.321h-5.238c.213-.157.425-.339.625-.531 1.463-1.414 2.063-3.145 1.325-3.846C27.25 9.097 26.95 9 26.587 9c-.862 0-2.062.58-3.1 1.583-.75.726-1.262 1.524-1.487 2.225-.225-.7-.738-1.499-1.488-2.225C19.475 9.579 18.275 9 17.412 9c-.362 0-.662.097-.875.302-.737.701-.137 2.432 1.325 3.846.2.192.413.374.625.53H13.25c-.688 0-1.25.545-1.25 1.21v3.627c0 .665.562 1.209 1.25 1.209v9.248c0 .569.475 1.028 1.062 1.028h15.375c.588 0 1.063-.46 1.063-1.028v-9.248c.687 0 1.25-.544 1.25-1.21v-3.626c0-.665-.563-1.21-1.25-1.21z"/></svg>