<svg xmlns="http://www.w3.org/2000/svg" width="41" height="40"><path fill="#FFF" d="M22.563 26.446v-7.254h4.78v7.254h-4.78zm-6.907 0v-7.254h4.781v7.254h-4.78zm-1.062-8.809v-2.072h5.844v2.072h-5.844zm3.06-6.6c.35.03 1.083.32 1.827 1.056.776.757 1.063 1.472 1.084 1.783-.35-.031-1.084-.32-1.828-1.057-.775-.757-1.062-1.472-1.083-1.783zm5.865 1.056c.744-.737 1.477-1.026 1.827-1.057-.021.311-.308 1.026-1.084 1.783-.743.736-1.476 1.026-1.827 1.057.021-.311.308-1.026 1.084-1.783zm-.956 5.544v-2.072h5.843v2.072h-5.843zm6.375-3.627h-4.452c.18-.134.36-.29.53-.455 1.244-1.212 1.754-2.695 1.127-3.296-.18-.176-.436-.259-.744-.259-.733 0-1.753.496-2.635 1.356-.637.623-1.073 1.307-1.264 1.908-.191-.6-.627-1.285-1.264-1.908C19.354 10.496 18.334 10 17.6 10c-.308 0-.563.083-.744.26-.627.6-.117 2.083 1.126 3.295.17.165.35.32.531.455h-4.451c-.585 0-1.063.467-1.063 1.037v3.108c0 .57.478 1.037 1.063 1.037v7.927c0 .487.403.881.903.881h13.068c.5 0 .904-.394.904-.88v-7.928c.584 0 1.062-.467 1.062-1.037v-3.108c0-.57-.478-1.037-1.063-1.037z"/></svg>