<svg width="30" height="30" xmlns="http://www.w3.org/2000/svg"><g fill="none" fill-rule="evenodd"><path d="M0 30h30V0H0z"/><path d="M16.44 22.36c.21-.5.57-.94.9-1.19.3-.23.68-.68.84-1.03.15-.35.36-.66.57-.98.3-.47-.74-1.16-1.07-1.31-.76-.32-1.32-.77-2-1.24-.47-.34-1.45.18-1.99-.06-.74-.32-1.34-.88-1.99-1.37-.66-.5-.63-1.08-.63-1.82.52.02 1.26-.14 1.61.28.1.13.48.72.73.51.2-.17-.15-.86-.22-1.02-.21-.49.48-.69.84-1.02.46-.44 1.45-1.13 1.38-1.44-.08-.32-1-1.21-1.54-1.07-.08.02-.79.77-.93.88.01-.24.01-.48.02-.73 0-.15-.29-.31-.28-.41.04-.25.73-.7.91-.9-.13-.08-.54-.43-.67-.38-.3.13-.64.21-.95.34 0-.09-.01-.17-.02-.25.63-.28 1.3-.48 2.01-.57l.5.2.42.5.42.43.37.12.58-.55-.15-.39v-.3c1.15.16 2.21.59 3.13 1.22-.16.01-.32.03-.5.05-.09-.05-.2-.07-.3-.11.28.6.57 1.18.86 1.77.31.63 1 1.3 1.13 1.96.14.78.04 1.49.12 2.4.07.88.99 1.89.99 1.89s.39.13.73.09a7.494 7.494 0 0 1-5.82 5.5m-2.33.08A7.489 7.489 0 0 1 7.5 15c0-1.84.66-3.51 1.77-4.82.03.34.09.69.07.95-.06 1.01-.16 1.64.43 2.49.22.33.28.8.39 1.18.11.38.55.57.85.81.61.46 1.19 1 1.83 1.41.43.27.69.41.57.93-.1.41-.13.67-.35 1.04-.06.12.25.85.36.95.32.32.63.61.98.89.52.44-.03.99-.29 1.61M15 6A9 9 0 1 0 15 24.002 9 9 0 0 0 15 6" fill="#FFF"/></g></svg>