<svg xmlns="http://www.w3.org/2000/svg" width="30" height="30"><g fill="none" fill-rule="evenodd"><path d="M0 0h30v30H0z"/><path fill="#354657" d="M7.5 7H11a.5.5 0 0 1 .5.5V11a.5.5 0 0 1-.5.5H7.5A.5.5 0 0 1 7 11V7.5a.5.5 0 0 1 .5-.5zm0 5.75H11a.5.5 0 0 1 .5.5v3.5a.5.5 0 0 1-.5.5H7.5a.5.5 0 0 1-.5-.5v-3.5a.5.5 0 0 1 .5-.5zM13.25 7h3.5a.5.5 0 0 1 .5.5V11a.5.5 0 0 1-.5.5h-3.5a.5.5 0 0 1-.5-.5V7.5a.5.5 0 0 1 .5-.5zm0 5.75h3.5a.5.5 0 0 1 .5.5v3.5a.5.5 0 0 1-.5.5h-3.5a.5.5 0 0 1-.5-.5v-3.5a.5.5 0 0 1 .5-.5zM19 7h3.5a.5.5 0 0 1 .5.5V11a.5.5 0 0 1-.5.5H19a.5.5 0 0 1-.5-.5V7.5A.5.5 0 0 1 19 7zm0 5.75h3.5a.5.5 0 0 1 .5.5v3.5a.5.5 0 0 1-.5.5H19a.5.5 0 0 1-.5-.5v-3.5a.5.5 0 0 1 .5-.5zM7.5 18.5H11a.5.5 0 0 1 .5.5v3.5a.5.5 0 0 1-.5.5H7.5a.5.5 0 0 1-.5-.5V19a.5.5 0 0 1 .5-.5zm5.75 0h3.5a.5.5 0 0 1 .5.5v3.5a.5.5 0 0 1-.5.5h-3.5a.5.5 0 0 1-.5-.5V19a.5.5 0 0 1 .5-.5zm5.75 0h3.5a.5.5 0 0 1 .5.5v3.5a.5.5 0 0 1-.5.5H19a.5.5 0 0 1-.5-.5V19a.5.5 0 0 1 .5-.5z"/></g></svg>