<svg xmlns="http://www.w3.org/2000/svg" width="30" height="30"><path fill="#354657" fill-rule="evenodd" d="M30 15c0 8.284-6.716 15-15 15-8.284 0-15-6.716-15-15C0 6.716 6.716 0 15 0c8.284 0 15 6.716 15 15zm-9.75-2.72v8.97H16.5V17.3c0-.17-.13-.3-.3-.3h-2.4c-.17 0-.3.13-.3.3v3.95H9.75v-8.97H8.54L15 6.92l6.46 5.36h-1.21zm3.09-.39l-7.77-6.44c-.35-.24-.79-.23-1.2.04l-7.63 6.35c-.4.25-.58.73-.45 1.19.14.45.54.75 1 .75h.96v7.72c0 .69.56 1.25 1.25 1.25h11c.69 0 1.25-.56 1.25-1.25v-7.72h.96c.46 0 .86-.3 1-.75.13-.46-.05-.94-.37-1.14z"/></svg>