<svg width="30" height="30" xmlns="http://www.w3.org/2000/svg"><g fill="none" fill-rule="evenodd"><circle cx="15" cy="15" r="15"/><path d="M16.37 10.06v2.44a2.92 2.92 0 0 0 1.08 2.05 5.06 5.06 0 0 1 1.66 3.91v7.77H10v-7.77a5.06 5.06 0 0 1 1.66-3.91 2.92 2.92 0 0 0 1.08-2.05v-2.44h3.63zm-.97.94h-1.68v1.5a4.2 4.2 0 0 1-1.27 2.844l-.17.156A3.76 3.76 0 0 0 11 18.33v7h7.14v-6.87a3.72 3.72 0 0 0-1.143-2.79l-.167-.15a4.2 4.2 0 0 1-1.43-3V11zm.81 6.27c.276.005.548.054.808.145l.192.075v6.93h-5.26v-6.56c.29.216.64.335 1 .34 1.26 0 2.04-.93 3.26-.93zm2.68-10.05a11.06 11.06 0 0 0 1.2 4.79l.18.34c.194.29-.976.582-1.958-1.562l-.182-.418-.147-.404a7.783 7.783 0 0 1-.073-.216 2.3 2.3 0 0 0-.81-1.12 2.41 2.41 0 0 1 1.79-1.41zm.44-2.66v2.2l-.23.008c-2.02.149-2.526 2.235-2.607 2.65l-.013.072h-3.71c0-1.83-1.73-1.63-2.47-1.63 0-2.73 1.196-3.244 2.787-3.295l.303-.005h5.94zm-.94.99h-5l-.336.005c-1.016.033-1.574.257-1.764 1.325a2.35 2.35 0 0 1 2.187 1.443l.063.167h2.22a3.91 3.91 0 0 1 2.41-2.548l.22-.072v-.32zM21.01 5l.02.1v1.12c0 .439-.799.521-1.152.536l-.158.004v-2.2l.092.002c.256.008.932.059 1.15.353l.047.086z" fill="#354657" fill-rule="nonzero"/></g></svg>