<svg width="30" height="30" fill="none" xmlns="http://www.w3.org/2000/svg"><path d="M0 7.724C0 6.634.884 5.75 1.974 5.75h26.052c1.09 0 1.974.884 1.974 1.974v14.802c0 1.09-.884 1.974-1.974 1.974H1.974A1.974 1.974 0 0 1 0 22.526V7.724z" fill="#FF8CAF"/><path fill-rule="evenodd" clip-rule="evenodd" d="M16.974 22.039h-9.08V8.383h9.08c3.716.052 6.71 2.56 6.71 6.829 0 4.268-2.994 6.776-6.71 6.828zm-.08-.71H8.606V9.092h8.29c3.565.018 6.079 2.407 6.079 6.118 0 3.712-2.514 6.101-6.08 6.119z" fill="#fff"/><path d="M16.895 21.329h-8.29V9.092h8.29c3.565.018 6.079 2.407 6.079 6.118 0 3.712-2.514 6.101-6.08 6.119z" fill="#fff"/><path fill-rule="evenodd" clip-rule="evenodd" d="M16.974 22.039h-9.08V8.383h9.08c3.716.052 6.71 2.56 6.71 6.829 0 4.268-2.994 6.776-6.71 6.828zm-.08-.71H8.606V9.092h8.29c3.565.018 6.079 2.407 6.079 6.118 0 3.712-2.514 6.101-6.08 6.119z" fill="#000"/><path fill-rule="evenodd" clip-rule="evenodd" d="M9.553 16.119h2.369v4.263H9.553v-4.263zm1.184-.632a1.5 1.5 0 1 0 0-3 1.5 1.5 0 0 0 0 3z" fill="#000"/><path fill-rule="evenodd" clip-rule="evenodd" d="M22.003 14.618c-.376-4.579-5.108-4.579-5.108-4.579h-3.71v10.342h3.71s5.053 0 5.131-5.052H20.29v-2.764H21v2.053h1.003zm-6.765-2.053h1.657v.711h-.947v.316h.868v.631h-.868v.395h1.026v.71h-1.736v-2.762zm-1.056 1.382c0-.67-.444-.67-.444-.67h-.553v-.711h.474s1.184 0 1.184 1.381c0 1.382-1.184 1.382-1.184 1.382h-.474v-.71h.553s.444 0 .444-.672zm3.955-1.381h.969l.833 2.763h-.719l-.15-.526h-.91l-.154.526h-.717l.848-2.764zm.485.73l.248.815h-.501l.253-.815z" fill="#E54279"/></svg>