<svg width="30" height="30" xmlns="http://www.w3.org/2000/svg"><path d="M28.5 19.58l-4.47-4.471a.756.756 0 0 0-1.06 0L18 20.08l-7.97-7.971a.756.756 0 0 0-1.06 0L1.5 19.58V2c0-.27.23-.5.5-.5h26c.27 0 .5.23.5.5v17.58zM28 0H2C.9 0 0 .9 0 2v26c0 1.1.9 2 2 2h26c1.1 0 2-.9 2-2V2c0-1.1-.9-2-2-2zm-7 11c-1.1 0-2-.9-2-2s.9-2 2-2 2 .9 2 2-.9 2-2 2zm0-5.5c-1.93 0-3.5 1.57-3.5 3.5s1.57 3.5 3.5 3.5 3.5-1.57 3.5-3.5-1.57-3.5-3.5-3.5zm0 5.5c-1.1 0-2-.9-2-2s.9-2 2-2 2 .9 2 2-.9 2-2 2zm0-5.5c-1.93 0-3.5 1.57-3.5 3.5s1.57 3.5 3.5 3.5 3.5-1.57 3.5-3.5-1.57-3.5-3.5-3.5zm0 5.5c-1.1 0-2-.9-2-2s.9-2 2-2 2 .9 2 2-.9 2-2 2zm0-5.5c-1.93 0-3.5 1.57-3.5 3.5s1.57 3.5 3.5 3.5 3.5-1.57 3.5-3.5-1.57-3.5-3.5-3.5z" fill="#354657" fill-rule="evenodd"/></svg>