<svg width="30" height="30" xmlns="http://www.w3.org/2000/svg"><path d="M21 5.5a3.5 3.5 0 1 0 0 7 3.5 3.5 0 1 0 0-7zM21 7c1.103 0 2 .897 2 2s-.897 2-2 2-2-.897-2-2 .897-2 2-2zm7.5 21c0 .27-.23.5-.5.5H2c-.27 0-.5-.23-.5-.5v-6.3l8-8 7.97 7.97c.29.29.77.29 1.06 0l4.97-4.97 5 5V28zM1.5 2c0-.27.23-.5.5-.5h26c.27 0 .5.23.5.5v17.58l-4.47-4.471a.756.756 0 0 0-1.06 0L18 20.08l-7.97-7.971a.756.756 0 0 0-1.06 0L1.5 19.58V2zM28 0H2C.9 0 0 .9 0 2v26c0 1.1.9 2 2 2h26c1.1 0 2-.9 2-2V2c0-1.1-.9-2-2-2z" fill="#354657" fill-rule="evenodd"/></svg>