<svg width="38" height="47" xmlns="http://www.w3.org/2000/svg"><g fill-rule="nonzero" fill="#354657"><path d="M13.096 19.78a1.725 1.725 0 0 1 2.44 2.44l-2.3 2.3a1.725 1.725 0 0 1-2.44-2.44l2.3-2.3zM24.596 15.18a1.725 1.725 0 0 1 2.44 2.44l-2.3 2.3a1.725 1.725 0 0 1-2.44-2.44l2.3-2.3zM17.696 10.72a1.725 1.725 0 0 1 2.44-2.44l2.3 2.3a1.725 1.725 0 0 1-2.44 2.44l-2.3-2.3zM19.996 26.82a1.725 1.725 0 0 1 2.44-2.44l2.3 2.3a1.725 1.725 0 0 1-2.44 2.44l-2.3-2.3zM10.796 13.02a1.725 1.725 0 0 1 2.44-2.44l2.3 2.3a1.725 1.725 0 0 1-2.44 2.44l-2.3-2.3z"/><path d="M11.853 35.696C2.5 31.726-1.864 20.925 2.106 11.571c3.97-9.353 14.771-13.717 24.125-9.747 9.353 3.97 13.717 14.771 9.747 24.125-3.97 9.353-14.771 13.717-24.125 9.747zm1.348-3.176c7.6 3.226 16.375-.32 19.601-7.919 3.226-7.6-.32-16.375-7.92-19.601-7.599-3.226-16.374.32-19.6 7.92-3.226 7.599.32 16.375 7.92 19.6z"/><path d="M10.281 34.985a2.3 2.3 0 0 1 4.234 1.797l-3.45 8.128a2.3 2.3 0 0 1-4.234-1.797l3.45-8.128z"/></g></svg>