<svg xmlns="http://www.w3.org/2000/svg" width="30" height="30"><g fill="none" fill-rule="evenodd"><path d="M0 0h30v30H0z"/><path fill="#BD8BCA" fill-rule="nonzero" d="M15 21.5a7 7 0 1 0 0-14 7 7 0 0 0 0 14zm0 1.5a8.5 8.5 0 1 1 0-17 8.5 8.5 0 0 1 0 17zm-.116-10.75a.88.88 0 0 1 .88.88v5.24a.88.88 0 0 1-1.76 0v-5.24a.88.88 0 0 1 .88-.88zm-.09-.649c-.255 0-.452-.07-.589-.21-.137-.139-.205-.34-.205-.6v-.23c0-.261.068-.462.205-.602.137-.14.334-.209.59-.209h.172c.256 0 .452.07.59.21.136.14.205.34.205.6v.23c0 .262-.069.462-.206.602-.137.14-.333.21-.59.21h-.171z"/></g></svg>