<svg xmlns="http://www.w3.org/2000/svg" width="30" height="30"><g fill="none" fill-rule="evenodd"><path d="M0 0h30v30H0z"/><path fill="#BD8BCA" d="M15 23a8.5 8.5 0 1 1 0-17 8.5 8.5 0 0 1 0 17zm-.116-10.75a.88.88 0 0 0-.88.88v5.24a.88.88 0 1 0 1.76 0v-5.24a.88.88 0 0 0-.88-.88zm-.09-.649h.173c.256 0 .452-.07.59-.21.136-.139.205-.34.205-.6v-.23c0-.261-.069-.462-.206-.602-.137-.14-.333-.209-.59-.209h-.171c-.256 0-.453.07-.59.21-.137.14-.205.34-.205.6v.23c0 .262.068.462.205.602.137.14.334.21.59.21z"/></g></svg>