<svg width="30" height="30" fill="none" xmlns="http://www.w3.org/2000/svg"><path fill-rule="evenodd" clip-rule="evenodd" d="M0 15C0 6.716 6.716 0 15 0c8.284 0 15 6.716 15 15 0 8.284-6.716 15-15 15-8.284 0-15-6.716-15-15zm28.5 0c0-7.443-6.056-13.5-13.5-13.5S1.5 7.557 1.5 15 7.556 28.5 15 28.5 28.5 22.443 28.5 15zm-11.6.73l1.71.43-.5 6.46h-6.22l-.51-6.64.39.13c.4.13.81.19 1.23.19.42 0 .83-.06 1.23-.19l.92-.31a3.15 3.15 0 0 1 1.75-.07zm-5.86-4.11h7.92l-.29 3.78-1.59-.4a3.81 3.81 0 0 0-2.17.09l-.92.31c-.64.21-1.34.21-1.98 0l-.7-.23-.27-3.55zm8.03 11.5L20 11.21c.02-.319-.21-.59-.51-.59h-8.98c-.3 0-.53.271-.51.59l.93 11.91c.02.28.24.5.5.5h7.14c.26 0 .48-.22.5-.5zm-5.5-13.26c.87 0 1.56-.73 1.56-1.66 0-.465-.348-.921-.66-1.331a7.498 7.498 0 0 1-.03-.039c-.06-.07-.12-.15-.17-.22-.286-.387-.459-.83-.512-.968-.01-.026-.016-.041-.018-.043a.176.176 0 0 0-.17-.12c-.08 0-.16.051-.18.12-.002.002-.007.017-.018.043-.053.137-.226.581-.512.968-.07.09-.15.19-.23.28l-.016.019C12.329 7.254 12 7.65 12 8.2c0 .93.69 1.66 1.57 1.66zm3.785-4.445c.025.033.05.065.075.095.27.35.57.74.57 1.14 0 .77-.57 1.38-1.3 1.38-.73 0-1.31-.61-1.31-1.38 0-.47.28-.8.53-1.09.03-.04.063-.08.095-.12.032-.04.065-.08.095-.12.29-.38.44-.83.44-.83a.15.15 0 0 1 .15-.11c.06 0 .12.04.14.11a.35.35 0 0 1 .027.06c.056.136.195.474.413.77.025.03.05.063.075.095z" fill="#354657"/></svg>