<svg width="30" height="30" fill="none" xmlns="http://www.w3.org/2000/svg"><path fill-rule="evenodd" clip-rule="evenodd" d="M18.96 11.62h-7.92l.27 3.55.7.23c.64.21 1.34.21 1.98 0l.92-.31a3.81 3.81 0 0 1 2.17-.09l1.59.4.29-3.78zm-.35 4.54l-1.71-.43a3.15 3.15 0 0 0-1.75.07l-.92.31c-.4.13-.81.19-1.23.19-.42 0-.83-.06-1.23-.19l-.39-.13.51 6.64h6.22l.5-6.46zM20 11.21l-.93 11.91c-.02.28-.24.5-.5.5h-7.14c-.26 0-.48-.22-.5-.5L10 11.21c-.02-.319.21-.59.51-.59h8.98c.3 0 .53.271.51.59zm-2.57-5.7c-.05-.06-.1-.13-.15-.19-.28-.38-.43-.83-.44-.83a.147.147 0 0 0-.14-.11.15.15 0 0 0-.15.11s-.15.45-.44.83c-.06.08-.13.16-.19.24-.25.29-.53.62-.53 1.09 0 .77.58 1.38 1.31 1.38.73 0 1.3-.61 1.3-1.38 0-.4-.3-.79-.57-1.14zm-2.3 2.69c0 .93-.69 1.66-1.56 1.66-.88 0-1.57-.73-1.57-1.66 0-.56.34-.96.63-1.31.08-.09.16-.19.23-.28.34-.46.52-1 .53-1.01.02-.07.1-.12.18-.12.08 0 .15.05.17.12.01.01.19.55.53 1.01.05.07.11.15.17.22.32.42.69.89.69 1.37z" fill="#FFF"/></svg>