<svg width="30" height="30" xmlns="http://www.w3.org/2000/svg"><g fill="none" fill-rule="nonzero"><circle fill="#FFF" cx="15" cy="15" r="15"/><path d="M20.15 9.85a.46.46 0 0 1 .33.15.42.42 0 0 1 .12.35l-1.31 14.78a1.22 1.22 0 0 1-1.19 1.1h-6.2a1.22 1.22 0 0 1-1.19-1.1L9.4 10.36a.46.46 0 0 1 .11-.36.49.49 0 0 1 .34-.15h10.3zm-.51.93h-9.28l1.26 14.27a.32.32 0 0 0 .28.26h6.2a.3.3 0 0 0 .27-.26l1.27-14.27zm-5.867 4.206L14 15a3.48 3.48 0 0 1 1.36.48c.36.205.752.347 1.16.42a3.78 3.78 0 0 0 1.905-.18l.225-.09-.81 9.12h-5.68l-.84-9.14a4.31 4.31 0 0 1 2-.61l.227-.014h.226zM15.06 3.87c.126 0 .24.07.3.18 0 .06.64 1.26 1 2.06a2.08 2.08 0 0 1-.08 2.47 1.76 1.76 0 0 1-1.28.54 1.8 1.8 0 0 1-1.28-.54c-.565-.574-.624-1.387-.154-2.315L14.76 4.04a.35.35 0 0 1 .3-.17zm-.02 1.07l-.79 1.47h.01c-.55 1.01-.32 1.44-.07 1.7.416.416 1.028-2.542.87-3.119l-.02-.051z" fill="#354657"/></g></svg>