<svg width="30" height="30" xmlns="http://www.w3.org/2000/svg"><g fill="none" fill-rule="evenodd"><circle cx="15" cy="15" r="15"/><path d="M5.299 9.761a1 1 0 0 1 .905.24l.086.089 2.35 2.34a2.31 2.31 0 0 0 3.128.122l.132-.122 2.36-2.36a1 1 0 0 1 .85-.28 1 1 0 0 1 .55.218l.09.082 2.34 2.34a2.32 2.32 0 0 0 3.137.122l.133-.122 2.36-2.36a1 1 0 0 1 1.41 0 1 1 0 0 1 .06 1.323l-.09.097-3.1 3.09 1.25 5.18H22v1.82a1 1 0 0 1-1.993.117L20 21.58v-1.82h-.56v1.82a1 1 0 0 1-1.993.117l-.007-.117v-1.82h-1.25l1.23-5.18L15 12.17l-2.37 2.36v7a1 1 0 0 1-1.993.117l-.007-.117v-3a.32.32 0 0 0-.32-.31.31.31 0 0 0-.302.239L10 18.53v3.06a1 1 0 0 1-1.993.117L8 21.59v-7l-3.13-3.1a1 1 0 0 1 .429-1.729zM19.72 7.75a2.31 2.31 0 1 1 0 4.62 2.3 2.3 0 0 1-2.31-2.31 2.31 2.31 0 0 1 2.31-2.31zm-7.762.691a2.31 2.31 0 0 1-1.688 3.929A2.3 2.3 0 0 1 8 10.06a2.31 2.31 0 0 1 3.958-1.619z" fill="#354657" fill-rule="nonzero"/></g></svg>