<svg width="32" height="50" xmlns="http://www.w3.org/2000/svg" xmlns:xlink="http://www.w3.org/1999/xlink"><defs><path d="M37.424 22.59a1.725 1.725 0 1 1 3.352.82l-2.3 9.409a1.725 1.725 0 0 1-1.294 1.272c-2.25.512-3.257 1.884-3.257 4.59 0 4.657.82 5.594 5.27 5.594 3.034 0 4.578-1.186 5.114-3.843a1.725 1.725 0 0 1 3.382.682c-.87 4.312-3.862 6.611-8.495 6.611-6.465 0-8.721-2.576-8.721-9.043 0-3.858 1.688-6.526 4.886-7.652l2.063-8.44zm21.18 22.085c1.891 1.575 2.921 3.292 2.921 5.158 0 .99-.478 1.81-1.466 3.022-.403.494-2.09 2.407-2.393 2.765-2.039 2.407-3.041 4.194-3.041 5.713V69a1.725 1.725 0 1 1-3.45 0v-7.667c0-2.593 1.32-4.946 3.859-7.943.343-.405 1.999-2.283 2.35-2.715.472-.579.691-.954.691-.842 0-.689-.503-1.528-1.68-2.508a1.725 1.725 0 0 1 2.21-2.65zM54.576 22.59l2.063 8.44c3.198 1.126 4.886 3.794 4.886 7.652 0 6.467-2.256 9.043-8.72 9.043-4.634 0-7.626-2.299-8.496-6.611a1.725 1.725 0 1 1 3.382-.682c.536 2.657 2.08 3.843 5.114 3.843 4.45 0 5.27-.937 5.27-5.593 0-2.707-1.006-4.08-3.257-4.59a1.725 1.725 0 0 1-1.293-1.273l-2.3-9.41a1.725 1.725 0 1 1 3.351-.819zm-21.18 22.085a1.725 1.725 0 0 1 2.208 2.65c-1.176.98-1.679 1.82-1.679 2.508 0-.112.219.263.69.842.352.432 2.008 2.31 2.351 2.715 2.539 2.997 3.859 5.35 3.859 7.943V69a1.725 1.725 0 1 1-3.45 0v-7.667c0-1.52-1.002-3.306-3.041-5.713-.304-.358-1.99-2.27-2.393-2.765-.988-1.212-1.466-2.033-1.466-3.022 0-1.866 1.03-3.583 2.92-5.158z" id="a"/></defs><g transform="translate(-30.084 -21)" fill="none" fill-rule="evenodd"><mask id="b" fill="#fff"><use xlink:href="#a"/></mask><use fill="#BD8BCA" fill-rule="nonzero" xlink:href="#a"/><g mask="url(#b)" fill="#BD8BCA"><path d="M0 0h92v92H0z"/></g></g></svg>