<svg xmlns="http://www.w3.org/2000/svg" width="30" height="30"><path fill="#FFF" fill-rule="evenodd" d="M15 0C6.716 0 0 6.716 0 15c0 8.284 6.716 15 15 15 8.284 0 15-6.716 15-15 0-8.284-6.716-15-15-15zm0 1.5c7.444 0 13.5 6.056 13.5 13.5S22.444 28.5 15 28.5 1.5 22.444 1.5 15 7.556 1.5 15 1.5zM9.223 12.333c-.399 0-.723.294-.723.653v6.874c0 .36.324.654.723.654h1.75c.329 0 .617-.202.699-.491l.214-.75 3.022 1.002h3.886c.32 0 .606-.194.694-.473l1.984-6.276a.605.605 0 0 0 .028-.177c0-.361-.324-.654-.723-.654h-4.135l.921-3.424a1.263 1.263 0 0 0-.132-.971 1.396 1.396 0 0 0-.432-.453l-1.928 4.806-3.221 1.029-.166-.815c-.064-.309-.363-.534-.711-.534h-1.75zM10.973 22h-1.75C7.997 22 7 21.04 7 19.86v-6.874c0-1.179.997-2.139 2.223-2.139h1.75a2.25 2.25 0 0 1 1.854.961l1.111-.355L16.126 6l.799.206c.771.201 1.411.68 1.803 1.348.376.641.477 1.387.285 2.101l-.418 1.553h2.182c1.226 0 2.223.961 2.223 2.141 0 .21-.032.42-.097.623l-1.983 6.274c-.286.906-1.141 1.516-2.126 1.516l-4.245-.038-1.789-.593a2.258 2.258 0 0 1-1.787.869z"/></svg>