<svg xmlns="http://www.w3.org/2000/svg" width="30" height="30"><path fill="#FFF" fill-rule="evenodd" d="M22.903 13.972l-1.983 6.274c-.287.907-1.141 1.516-2.126 1.516l-4.245-.039-1.79-.592a2.257 2.257 0 0 1-1.787.869h-1.75C7.997 22 7 21.04 7 19.86v-6.873c0-1.18.997-2.14 2.222-2.14h1.75c.763 0 1.452.376 1.855.961l1.111-.355L16.126 6l.798.206c.772.202 1.412.68 1.803 1.348.376.642.478 1.388.285 2.102l-.418 1.553h2.183c1.226 0 2.223.96 2.223 2.14 0 .21-.033.42-.097.623M15 0C6.716 0 0 6.716 0 15c0 8.285 6.716 15 15 15 8.284 0 15-6.715 15-15 0-8.284-6.716-15-15-15"/></svg>