<svg xmlns="http://www.w3.org/2000/svg" width="30" height="30"><path fill="#FFF" fill-rule="evenodd" d="M21.895 13.763l-2.829 2.828a3.754 3.754 0 0 1-5.303 0l-.177-.177a.749.749 0 1 1 1.061-1.06l.177.177a2.252 2.252 0 0 0 3.182 0l2.828-2.829a2.253 2.253 0 0 0 0-3.182l-.354-.354a2.253 2.253 0 0 0-3.182 0l-1.767 1.768a.75.75 0 1 1-1.061-1.061l1.768-1.767a3.754 3.754 0 0 1 5.303 0l.354.353a3.756 3.756 0 0 1 0 5.304m-6.364 6.364l-1.768 1.768a3.754 3.754 0 0 1-5.303 0l-.354-.354a3.755 3.755 0 0 1 0-5.303l2.829-2.829a3.756 3.756 0 0 1 5.303 0l.177.177a.75.75 0 1 1-1.061 1.061l-.177-.177a2.252 2.252 0 0 0-3.182 0l-2.828 2.828a2.254 2.254 0 0 0 0 3.183l.353.353a2.254 2.254 0 0 0 3.183 0l1.767-1.767a.75.75 0 0 1 1.061 1.06M15 0C6.716 0 0 6.716 0 15c0 8.284 6.716 15 15 15 8.285 0 15-6.716 15-15 0-8.284-6.715-15-15-15"/></svg>