<svg xmlns="http://www.w3.org/2000/svg" width="30" height="30"><g fill="none" fill-rule="evenodd"><path d="M0 30h30V0H0z"/><path fill="#354657" d="M21.895 8.459l-.354-.354a3.756 3.756 0 0 0-5.303 0L14.47 9.873a.751.751 0 0 0 1.06 1.062l1.768-1.769a2.254 2.254 0 0 1 3.183 0l.352.354a2.253 2.253 0 0 1 0 3.182l-2.828 2.828a2.252 2.252 0 0 1-3.181 0l-.178-.176a.75.75 0 0 0-1.06 1.06l.176.177a3.754 3.754 0 0 0 5.303 0l2.83-2.828a3.755 3.755 0 0 0 0-5.304M15.53 20.127l-1.769 1.768a3.756 3.756 0 0 1-5.303 0l-.354-.354a3.756 3.756 0 0 1 0-5.304l2.83-2.828a3.754 3.754 0 0 1 5.303 0l.177.177a.749.749 0 1 1-1.061 1.06l-.177-.176a2.253 2.253 0 0 0-3.182 0l-2.829 2.828a2.253 2.253 0 0 0 0 3.182l.354.354a2.253 2.253 0 0 0 3.181 0l1.768-1.769a.751.751 0 0 1 1.061 1.062"/></g></svg>