<svg width="30" height="30" xmlns="http://www.w3.org/2000/svg"><g fill="none" fill-rule="evenodd"><path d="M0 30h30V0H0z"/><path d="M23 9a1 1 0 0 0-1-1H11a1 1 0 1 0 0 2h11a1 1 0 0 0 1-1m-14.62.92c.12-.05.23-.12.33-.21.09-.101.16-.21.21-.33.05-.12.08-.25.08-.38 0-.061-.01-.13-.02-.19a.603.603 0 0 0-.06-.19.782.782 0 0 0-.09-.181l-.12-.149c-.05-.04-.1-.09-.15-.12a.757.757 0 0 0-.18-.09.949.949 0 0 0-.76 0c-.13.05-.23.12-.33.21l-.12.149a.782.782 0 0 0-.09.181c-.03.06-.05.12-.06.19-.01.06-.02.129-.02.19 0 .13.03.26.08.38s.12.229.21.33c.19.18.44.29.71.29.13 0 .26-.03.38-.08M23 21a1 1 0 0 0-1-1H11a1 1 0 1 0 0 2h11a1 1 0 0 0 1-1m-14.29.71A.99.99 0 0 0 9 21c0-.26-.11-.521-.29-.71-.28-.27-.72-.37-1.09-.21-.12.05-.23.12-.33.21-.18.189-.29.45-.29.71 0 .27.1.52.29.71.1.09.21.16.33.21a.995.995 0 0 0 1.09-.21M23 17a1 1 0 0 0-1-1H11a1 1 0 1 0 0 2h11a1 1 0 0 0 1-1m-14.62.92c.12-.05.23-.12.33-.22A.95.95 0 0 0 9 17c0-.26-.11-.521-.29-.71-.1-.09-.2-.16-.33-.21a.991.991 0 0 0-.76 0c-.13.05-.23.12-.33.21-.09.1-.16.2-.21.33-.05.12-.08.25-.08.38s.03.26.08.38.12.229.21.32c.1.1.21.17.33.22.12.05.25.08.38.08s.26-.03.38-.08M23 13a1 1 0 0 0-1-1H11a1 1 0 1 0 0 2h11a1 1 0 0 0 1-1M8 14c-.13 0-.26-.03-.38-.08s-.23-.12-.33-.21c-.09-.101-.16-.21-.21-.33A.995.995 0 0 1 7 13c0-.13.03-.26.08-.38.05-.13.12-.23.21-.33.28-.28.72-.37 1.09-.21.12.05.23.12.33.21.09.1.16.2.21.33a.995.995 0 0 1-.21 1.09c-.1.09-.21.16-.33.21-.12.05-.25.08-.38.08" fill="#FFF"/></g></svg>