<svg width="30" height="30" xmlns="http://www.w3.org/2000/svg"><g fill="none" fill-rule="evenodd"><path d="M0 30h30V0H0z"/><path d="M27.75 22.075H21.2c-1.98 0-3.89.65-5.45 1.81V9.665c0-2.45 2-4.47 4.45-4.49l7.55-.08v16.98zm-25.5 0V5.095l7.55.08c2.45.02 4.45 2.04 4.45 4.49v14.22a9.138 9.138 0 0 0-5.45-1.81H2.25zm26-18.49h-.01l-8.05.09A6.01 6.01 0 0 0 15 6.755a6.01 6.01 0 0 0-5.19-3.08l-8.05-.09h-.01c-.55 0-1 .45-1 1v17.99c0 .55.45 1 1 1H8.8c2.08 0 4.06.85 5.49 2.35.09.3.37.49.67.49.01 0 .03 0 .04-.01.01.01.03.01.04.01.3 0 .58-.19.67-.49a7.578 7.578 0 0 1 5.49-2.35h7.05c.55 0 1-.45 1-1V4.585c0-.55-.45-1-1-1z" fill="#354657"/></g></svg>