<svg width="49" height="53" xmlns="http://www.w3.org/2000/svg" xmlns:xlink="http://www.w3.org/1999/xlink"><defs><path d="M39.988 34.413l-1.155.693-.953-.952c-4.133-4.133-6.255-7.529-6.255-10.42 0-.665-.582-1.228-1.322-1.302-.64-.064-.978.24-.978 1.302 0 .989.121 1.815.384 2.635.691 2.148-.509.457 8.471 12.43 4.113 5.484 1.609 9.824-6.43 16.97-5.598 4.975-7.025 6.56-7.025 8.215 0 5.618 19.808 6.461 30.61-1.395 11.814-8.591 13.84-22.099 4.658-28.22-6.331-4.22-12.897-4.22-20.005.044zM61.907 31.5c11.466 7.644 9.009 24.025-4.542 33.88-12.654 9.203-36.09 8.206-36.09-1.395 0-3.204 1.424-4.787 8.183-10.794 6.725-5.978 8.462-8.988 5.962-12.321-9.618-12.824-8.114-10.705-8.995-13.445-.377-1.172-.55-2.354-.55-3.69 0-3.107 2.105-5.002 4.772-4.735 2.412.241 4.428 2.19 4.428 4.735 0 1.554 1.415 3.959 4.33 7.04 7.805-4.243 15.395-4.013 22.502.725z" id="a"/></defs><g transform="translate(-21.167 -19)" fill="none" fill-rule="evenodd"><mask id="b" fill="#fff"><use xlink:href="#a"/></mask><use fill="#354657" fill-rule="nonzero" xlink:href="#a"/><g mask="url(#b)" fill="#FFF"><path d="M0 0h92v92H0z"/></g></g></svg>