<svg xmlns="http://www.w3.org/2000/svg" xmlns:xlink="http://www.w3.org/1999/xlink" width="34" height="36"><defs><path id="a" d="M21.024 33c0 1.449-1.142 2.625-2.552 2.625-1.41 0-2.552-1.176-2.552-2.625s1.142-2.625 2.552-2.625c1.41 0 2.552 1.176 2.552 2.625zM18.472 0c-1.61 0-2.916 1.344-2.916 3s1.306 3 2.916 3c1.61 0 2.917-1.344 2.917-3s-1.307-3-2.917-3zm14.584 16.125c1.004 0 1.821.841 1.821 1.875 0 1.035-.817 1.875-1.821 1.875-1.007 0-1.822-.838-1.822-1.875 0-1.034.815-1.875 1.822-1.875zM.972 18c0 1.657 1.307 3 2.917 3 1.61 0 2.917-1.343 2.917-3 0-1.656-1.307-3-2.917-3-1.61 0-2.917 1.344-2.917 3zM28.681 6c.803 0 1.458.673 1.458 1.5 0 .83-.655 1.503-1.458 1.5-.804 0-1.459-.67-1.459-1.497 0-.83.655-1.503 1.459-1.503zm0 20.25c1.207 0 2.187 1.008 2.187 2.25s-.98 2.252-2.19 2.25c-1.205 0-2.185-1.006-2.185-2.248 0-1.244.98-2.252 2.188-2.252zM8.264 4.5c1.61 0 2.917 1.344 2.917 3s-1.307 3-2.919 3c-1.608 0-2.915-1.342-2.915-3 0-1.657 1.307-3 2.917-3zm0 21c1.61 0 2.917 1.344 2.917 3s-1.307 3-2.919 3c-1.608 0-2.915-1.343-2.915-3s1.307-3 2.917-3z"/></defs><g fill="none" fill-rule="evenodd" transform="translate(-1)"><mask id="b" fill="#fff"><use xlink:href="#a"/></mask><use fill="#A25EB5" fill-rule="nonzero" xlink:href="#a"/><g fill="#D1D1D1" mask="url(#b)"><path d="M0 0h35v36H0z"/></g></g></svg>