<svg xmlns="http://www.w3.org/2000/svg" width="30" height="30"><g fill="none" fill-rule="evenodd"><path d="M0 30h30V0H0z"/><path fill="#354657" d="M16.75 15.38c0 .7-.41 1.3-1 1.57v2.18h-1.5v-2.18c-.59-.27-1-.87-1-1.57 0-.97.78-1.75 1.75-1.75s1.75.78 1.75 1.75zM9.5 20.5h11v-9h-11v9zm5.5-13c1.38 0 2.5 1.13 2.5 2.5h-5c0-1.37 1.12-2.5 2.5-2.5zm5.92 2.5H19c0-2.2-1.79-4-4-4s-4 1.8-4 4H9.08c-.6 0-1.08.49-1.08 1.09v9.83c0 .6.48 1.08 1.08 1.08h11.84c.6 0 1.08-.48 1.08-1.08v-9.83c0-.6-.48-1.09-1.08-1.09z"/></g></svg>