<svg xmlns="http://www.w3.org/2000/svg" width="30" height="30"><g fill="#354657" fill-rule="evenodd"><path d="M15 0c-3.36 0-6.62 1.12-9.25 3.19V2c0-.41-.34-.75-.75-.75s-.75.34-.75.75v3c0 .41.34.75.75.75h3c.41 0 .75-.34.75-.75s-.34-.75-.75-.75H6.84C9.18 2.47 12.04 1.5 15 1.5c7.44 0 13.5 6.06 13.5 13.5 0 1.63-.29 3.22-.85 4.74a.743.743 0 0 0 .7 1.01c.3 0 .59-.19.7-.49.63-1.68.95-3.45.95-5.26 0-8.27-6.73-15-15-15m10 24.25h-3c-.41 0-.75.34-.75.75s.34.75.75.75h1.17c-2.35 1.79-5.2 2.75-8.17 2.75-7.44 0-13.5-6.06-13.5-13.5 0-1.63.29-3.22.85-4.74a.743.743 0 0 0-.43-.96c-.4-.15-.83.05-.97.44A14.93 14.93 0 0 0 0 15c0 8.27 6.73 15 15 15 3.38 0 6.62-1.13 9.25-3.2V28c0 .41.34.75.75.75s.75-.34.75-.75v-3c0-.41-.34-.75-.75-.75"/><text font-family="Raleway-Bold, Raleway" font-size="10" font-weight="bold"><tspan x="5.105" y="18">21st</tspan></text></g></svg>