<svg width="56" height="44" xmlns="http://www.w3.org/2000/svg" xmlns:xlink="http://www.w3.org/1999/xlink"><defs><path d="M37.47 34.936c0-1.066-.375-1.274-1.819-.818-2.116.668-4.749 2.787-6.873 5.76-4.906 6.87-7.69 17.794-5.702 23.008 1.448 3.795 13.366 2.152 14.498-.96.501-1.38.61-6.146.382-13.414a512.278 512.278 0 0 0-.184-4.993c-.002-.04-.17-4.047-.207-5.022-.064-1.663-.095-2.779-.095-3.561zM46 43.378c-1.079 1.509-2.651 2.385-4.68 2.555.032.869.06 1.677.084 2.471.249 7.938.14 12.696-.588 14.701-2.133 5.866-18.263 8.089-20.963 1.01-2.468-6.468.605-18.523 6.118-26.242 2.53-3.542 5.748-6.131 8.641-7.045 3.482-1.1 6.308.464 6.308 4.108 0 .725.03 1.808.092 3.428.027.681.117 2.861.17 4.111 2.15-.277 3.093-2.061 3.093-5.884V25.3h3.45v11.29c0 4.213 1.144 5.95 3.788 5.924.052-1.243.144-3.462.17-4.15.063-1.62.093-2.703.093-3.428 0-3.644 2.826-5.207 6.308-4.108 2.893.914 6.111 3.503 8.641 7.045 5.513 7.719 8.586 19.774 6.118 26.243-2.7 7.078-18.83 4.855-20.963-1.01-.729-2.006-.837-6.764-.588-14.702.024-.784.052-1.583.084-2.44-2.369-.014-4.177-.91-5.376-2.586zm9.226-8.442c0 .782-.03 1.898-.095 3.56-.037.976-.205 4.984-.207 5.023a512.28 512.28 0 0 0-.184 4.993c-.228 7.268-.12 12.034.382 13.414 1.132 3.112 13.05 4.755 14.498.96 1.988-5.214-.796-16.139-5.702-23.008-2.124-2.973-4.757-5.092-6.873-5.76-1.444-.456-1.819-.248-1.819.818z" id="a"/></defs><g transform="translate(-18.084 -25)" fill="none" fill-rule="evenodd"><mask id="b" fill="#fff"><use xlink:href="#a"/></mask><use fill="#BD8BCA" fill-rule="nonzero" xlink:href="#a"/><g mask="url(#b)" fill="#BD8BCA"><path d="M0 0h92v92H0z"/></g></g></svg>