<svg xmlns="http://www.w3.org/2000/svg" xmlns:xlink="http://www.w3.org/1999/xlink" width="40" height="40"><defs><path id="a" d="M26.839 22.25c0 1.128-.149 2.166-.445 3.114-.298.948-.741 1.766-1.331 2.452a6.01 6.01 0 0 1-2.214 1.608c-.887.384-1.914.576-3.083.576-1.138 0-2.13-.169-2.975-.507a5.44 5.44 0 0 1-2.115-1.476c-.563-.646-.984-1.43-1.26-2.353-.278-.923-.416-1.968-.416-3.137 0-1.127.146-2.165.438-3.114.293-.947.733-1.765 1.323-2.452a5.961 5.961 0 0 1 2.206-1.6c.882-.378 1.912-.568 3.09-.568 1.139 0 2.13.169 2.976.507a5.43 5.43 0 0 1 2.115 1.476c.563.647.986 1.43 1.269 2.352.28.924.422 1.964.422 3.122m-2.63.17c0 .8-.082 1.532-.248 2.199-.166.666-.424 1.24-.775 1.722a3.578 3.578 0 0 1-1.35 1.122c-.549.267-1.195.4-1.94.4-.817 0-1.499-.146-2.048-.439a3.515 3.515 0 0 1-1.31-1.183 5.026 5.026 0 0 1-.698-1.745c-.14-.667-.21-1.38-.21-2.138 0-.79.085-1.517.256-2.183.17-.667.432-1.244.783-1.73.352-.487.8-.864 1.343-1.13.542-.267 1.19-.4 1.946-.4.818 0 1.5.146 2.048.438.548.292.983.69 1.304 1.191.32.503.55 1.086.69 1.754.14.666.21 1.373.21 2.121zm-8.272-10.26c-.54.001-.538-.767-.54-1.08 0-.333 0-1.08.54-1.08h7.958c.543 0 .543.747.54 1.08-.001.313.003 1.081-.54 1.08h-7.958z"/></defs><g fill="none" fill-rule="evenodd"><mask id="b" fill="#fff"><use xlink:href="#a"/></mask><use fill="#ffffff" xlink:href="#a"/><g fill="#ffffff" mask="url(#b)"><path d="M0 0h40v40H0z"/></g></g></svg>