<svg width="48" height="40" xmlns="http://www.w3.org/2000/svg" xmlns:xlink="http://www.w3.org/1999/xlink"><defs><path d="M34.073 55.391c-.081.442-.159.812-.234 1.115-.94 3.79-2.715 6.532-5.351 8.114a1.725 1.725 0 1 1-1.776-2.958c1.776-1.066 3.044-3.024 3.779-5.987.144-.58.32-1.595.521-3.016.018-.127.05-.248.092-.363a8.688 8.688 0 0 0-.072-.067c-.567-.52-.94-.716-1.205-.716a1.725 1.725 0 1 1 0-3.45c1.298 0 2.393.575 3.536 1.623.34.311.675.654 1.105 1.12.093.1.826.905 1.045 1.138 1.074 1.149 1.88 1.832 2.766 2.275 2.96 1.48 8.472 1.48 13.191-.093 3.902-1.3 14.182-18.091 14.182-22.259 0-1.434-.61-2.05-1.987-2.36-.65-.145-1.243-.182-2.262-.182-.55 0-.835.398-.835 1.689 0 1.576.2 2.014 1.602 3.416.864.865.58 2.329-.545 2.807-6.331 2.695-9.455 5.783-10.656 8.955-.079.208-.558 2.35-1.137 2.813-1.18.505-1.18.505-2.132.05-.404-.375-.404-.375-.525-.58a4.44 4.44 0 0 1-.278-.572l-.288-.684c-.141-.332-.278-.645-.433-.988-1.546-3.425-4.65-4.478-9.938-3.094a1.725 1.725 0 0 1-1.872-.712c-2.664-3.996-6.044-4.953-10.697-2.994a1.725 1.725 0 0 1-1.338-3.18c5.763-2.427 10.647-1.302 14.196 3.273 5.484-1.15 9.6.099 11.981 3.787 1.663-3.033 4.723-5.854 9.654-8.282-.78-1.175-1.044-2.318-1.044-4.015 0-2.996 1.535-5.139 4.285-5.139 1.261 0 2.048.049 3.019.267 2.826.636 4.68 2.506 4.68 5.725 0 5.56-11.121 23.725-16.54 25.532-5.522 1.84-11.958 1.84-15.826-.094-.956-.478-1.782-1.084-2.663-1.914z" id="a"/></defs><g transform="translate(-21.084 -25)" fill="none" fill-rule="evenodd"><mask id="b" fill="#fff"><use xlink:href="#a"/></mask><use fill="#354657" fill-rule="nonzero" xlink:href="#a"/><g mask="url(#b)" fill="#364657"><path d="M0 0h92v92H0z"/></g></g></svg>