<svg xmlns="http://www.w3.org/2000/svg" width="30" height="30"><path fill="#BD8BCA" fill-rule="evenodd" d="M17.75 10A2.752 2.752 0 0 1 15 12.75 2.752 2.752 0 0 1 12.25 10 2.752 2.752 0 0 1 15 7.25 2.752 2.752 0 0 1 17.75 10zm1.5 0A4.255 4.255 0 0 0 15 5.75 4.255 4.255 0 0 0 10.75 10 4.255 4.255 0 0 0 15 14.25 4.255 4.255 0 0 0 19.25 10zm-4.248 6.251c3.026 0 7.248 1.236 7.248 3.249v1c0 .136-.114.25-.25.25H8a.253.253 0 0 1-.25-.25v-1c0-1.192 1.507-1.978 2.405-2.34 1.665-.67 3.593-.909 4.844-.909h.003zM23.75 20.5v-1c0-3.588-5.894-4.749-8.748-4.749v-.001c-2.856 0-8.752 1.161-8.752 4.75v1c0 .965.785 1.75 1.75 1.75h14c.965 0 1.75-.785 1.75-1.75zM30 15c0 8.284-6.716 15-15 15-8.284 0-15-6.716-15-15C0 6.716 6.716 0 15 0c8.284 0 15 6.716 15 15z"/></svg>