<svg xmlns="http://www.w3.org/2000/svg" width="30" height="30"><path fill="#FFF" fill-rule="evenodd" d="M12.25 10A2.752 2.752 0 0 0 15 12.75 2.752 2.752 0 0 0 17.75 10 2.752 2.752 0 0 0 15 7.25 2.752 2.752 0 0 0 12.25 10zm-1.5 0A4.255 4.255 0 0 1 15 5.75 4.255 4.255 0 0 1 19.25 10 4.255 4.255 0 0 1 15 14.25 4.255 4.255 0 0 1 10.75 10zm-.595 7.16c-.898.362-2.405 1.148-2.405 2.34v1c0 .136.114.25.25.25h14c.136 0 .25-.114.25-.25v-1c0-2.013-4.222-3.249-7.248-3.249-1.254 0-3.182.239-4.847.909zM8 22.25c-.965 0-1.75-.785-1.75-1.75v-1c0-3.589 5.896-4.75 8.752-4.75 2.854.001 8.748 1.162 8.748 4.75v1c0 .965-.785 1.75-1.75 1.75H8zM0 15c0 8.284 6.716 15 15 15 8.284 0 15-6.716 15-15 0-8.284-6.716-15-15-15C6.716 0 0 6.716 0 15zm28.5 0c0 7.444-6.056 13.5-13.5 13.5S1.5 22.444 1.5 15 7.556 1.5 15 1.5 28.5 7.556 28.5 15z"/></svg>