<svg xmlns="http://www.w3.org/2000/svg" width="30" height="30"><g fill="none" fill-rule="evenodd"><path d="M0 30h30V0H0z"/><path fill="#354657" d="M21.5 23c0 .27-.23.5-.5.5H9c-.27 0-.5-.23-.5-.5V7c0-.27.23-.5.5-.5h2c0 .55.45 1 1 1h6c.55 0 1-.45 1-1h2c.27 0 .5.23.5.5v16zM12 6.5h6v-1h-6v1zM21 5h-2c0-.28-.22-.5-.5-.5h-7c-.28 0-.5.22-.5.5H9c-1.1 0-2 .9-2 2v16c0 1.1.9 2 2 2h12c1.1 0 2-.9 2-2V7c0-1.1-.9-2-2-2zm-1.5 7a.5.5 0 0 0-.5-.5h-8a.5.5 0 0 0 0 1h8a.5.5 0 0 0 .5-.5zm0 6a.5.5 0 0 0-.5-.5h-8a.5.5 0 0 0 0 1h8a.5.5 0 0 0 .5-.5zm-.5-2.5h-8a.5.5 0 0 1 0-1h8a.5.5 0 0 1 0 1z"/></g></svg>