<svg xmlns="http://www.w3.org/2000/svg" width="30" height="30"><path fill="#354657" fill-rule="evenodd" d="M15 0c8.284 0 15 6.716 15 15 0 8.284-6.716 15-15 15-8.284 0-15-6.716-15-15C0 6.716 6.716 0 15 0zm0 1.5C7.556 1.5 1.5 7.557 1.5 15S7.556 28.5 15 28.5 28.5 22.443 28.5 15 22.444 1.5 15 1.5zm7.9 13.968c-.12.97-.58 3.359-2.28 4.79-1.58 1.319-3.78 1.45-4.87 1.41v2.46c0 .409-.34.75-.75.75a.756.756 0 0 1-.75-.75v-2.46c-1.09.04-3.29-.091-4.87-1.41-1.7-1.431-2.16-3.82-2.28-4.79-.03-.23.15-.44.39-.45.97-.06 3.4-.02 5.11 1.41.78.66 1.31 1.54 1.65 2.38v-3.68c-1.41-.03-3.58-.35-5.19-1.7-2.04-1.71-2.59-4.59-2.74-5.75-.03-.28.18-.53.46-.54 1.17-.061 4.09-.021 6.13 1.689 1.02.87 1.68 2.03 2.09 3.11.41-1.08 1.07-2.24 2.09-3.11 2.04-1.71 4.96-1.75 6.13-1.69.28.01.49.26.46.54-.15 1.16-.7 4.04-2.74 5.75-1.61 1.35-3.78 1.67-5.19 1.7v3.68c.34-.84.87-1.72 1.65-2.38 1.71-1.43 4.14-1.47 5.11-1.41.24.01.42.22.39.45z"/></svg>