<svg xmlns="http://www.w3.org/2000/svg" width="30" height="30"><path fill="#354657" fill-rule="evenodd" d="M21.25 16.61c0 3.72-2.75 6.64-6.25 6.64s-6.25-2.92-6.25-6.64c0-2.23 1.34-3.811 2.52-5.21.32-.381.64-.75.92-1.141 1.37-1.83 2.09-3.979 2.1-4 .1-.299.39-.509.71-.509.32 0 .61.21.71.509.01.021.74 2.17 2.1 4 .21.29.45.601.69.911 1.29 1.66 2.75 3.53 2.75 5.44M15 28.5C7.56 28.5 1.5 22.44 1.5 15 1.5 7.559 7.56 1.5 15 1.5S28.5 7.559 28.5 15c0 7.44-6.06 13.5-13.5 13.5M15 0C6.72 0 0 6.719 0 15c0 8.28 6.72 15 15 15 8.28 0 15-6.72 15-15 0-8.281-6.72-15-15-15"/></svg>