<svg width="30" height="30" xmlns="http://www.w3.org/2000/svg"><path d="M13.4 11.16c.68-.93 1.22-1.91 1.6-2.71.38.8.92 1.78 1.599 2.71.221.3.471.609.721.93.35.45.72.929 1.06 1.41H11.5c.28-.38.59-.75.91-1.13.35-.4.689-.811.99-1.21zm4.4-.9c-1.35-1.83-2.08-3.98-2.09-4-.1-.3-.39-.51-.71-.51-.32 0-.611.21-.71.51-.01.02-.731 2.17-2.1 4-.28.39-.6.759-.921 1.14-1.179 1.4-2.519 2.98-2.519 5.21 0 3.72 2.75 6.64 6.25 6.64s6.25-2.92 6.25-6.64c0-1.91-1.46-3.78-2.75-5.44-.24-.31-.481-.62-.7-.91zM1.5 15C1.5 7.559 7.559 1.5 15 1.5c7.44 0 13.5 6.059 13.5 13.5 0 7.44-6.06 13.5-13.5 13.5-7.441 0-13.5-6.06-13.5-13.5zM0 15c0 8.28 6.72 15 15 15 8.28 0 15-6.72 15-15 0-8.28-6.72-15-15-15C6.72 0 0 6.72 0 15z" fill="#FFF" fill-rule="evenodd"/></svg>