<svg width="30" height="30" xmlns="http://www.w3.org/2000/svg"><path d="M10.32 17.5c-.051-.29-.07-.59-.07-.89 0-1.68 1.049-2.92 2.16-4.24.349-.4.689-.81.99-1.21.68-.93 1.22-1.91 1.6-2.71.38.8.92 1.78 1.599 2.71.221.3.471.61.721.93 1.14 1.47 2.43 3.13 2.43 4.52 0 .3-.02.6-.071.89H10.32zm8.18-6.33c-.241-.31-.481-.62-.701-.91-1.349-1.83-2.08-3.98-2.089-4-.1-.3-.39-.51-.71-.51a.753.753 0 0 0-.71.51c-.01.02-.731 2.17-2.1 4-.28.39-.6.76-.921 1.14-1.179 1.4-2.519 2.98-2.519 5.21 0 3.72 2.75 6.64 6.25 6.64s6.25-2.92 6.25-6.64c0-1.91-1.46-3.78-2.75-5.44zM15 28.5C7.559 28.5 1.5 22.44 1.5 15S7.559 1.5 15 1.5c7.44 0 13.5 6.06 13.5 13.5S22.44 28.5 15 28.5zM15 0C6.719 0 0 6.72 0 15c0 8.28 6.719 15 15 15 8.28 0 15-6.72 15-15 0-8.28-6.72-15-15-15z" fill="#FFF" fill-rule="evenodd"/></svg>