<svg xmlns="http://www.w3.org/2000/svg" width="30" height="30"><path fill="#5597E2" fill-rule="evenodd" d="M15 0c8.284 0 15 6.716 15 15 0 8.284-6.716 15-15 15-8.284 0-15-6.716-15-15C0 6.716 6.716 0 15 0zm0 1.5C7.556 1.5 1.5 7.556 1.5 15S7.556 28.5 15 28.5 28.5 22.444 28.5 15 22.444 1.5 15 1.5zm-.51 16.048V19H9.666v-1.452h1.656v-5.544c-.064.096-.17.202-.318.318a4.24 4.24 0 0 1-1.08.606 1.564 1.564 0 0 1-.534.108v-1.488c.216 0 .436-.058.66-.174.224-.116.43-.244.618-.384s.342-.27.462-.39.184-.188.192-.204h1.644v7.152h1.524zm1.992-4.836l1.356 1.968.096.216.12-.216 1.344-1.968h1.656l-2.244 3.156L21.09 19h-1.656l-1.392-1.956-.108-.204-.096.204L16.458 19h-1.656l2.268-3.132-2.232-3.156h1.644z"/></svg>