<svg xmlns="http://www.w3.org/2000/svg" width="30" height="30"><g fill="none" fill-rule="evenodd"><path d="M0 30h30V0H0z"/><path fill="#BD8BCA" d="M21.5 7c0-.27-.23-.5-.5-.5h-2c0 .55-.45 1-1 1h-6c-.55 0-1-.45-1-1H9c-.27 0-.5.23-.5.5v16c0 .27.23.5.5.5h12c.27 0 .5-.23.5-.5V7zM12 6.5h6v-1h-6v1zM23 7v16c0 1.1-.9 2-2 2H9c-1.1 0-2-.9-2-2V7c0-1.1.9-2 2-2h2c0-.28.22-.5.5-.5h7c.28 0 .5.22.5.5h2c1.1 0 2 .9 2 2zm-3.73 5.9l-5.31 5.31a.78.78 0 0 1-.55.229c-.21 0-.4-.079-.55-.229l-2.13-2.13c-.31-.3-.31-.8 0-1.1.3-.31.8-.31 1.11 0l1.57 1.57 4.75-4.76c.31-.3.81-.3 1.11 0 .31.31.31.8 0 1.11z"/></g></svg>