<svg width="30" height="30" xmlns="http://www.w3.org/2000/svg"><g fill="none" fill-rule="evenodd"><path d="M0 30h30V0H0z"/><path d="M22.25 19.79l-6.5 2.17v-9.09l6.5-2.16v9.08zM15 11.54L9.37 9.67 15 7.79l5.63 1.88L15 11.54zm-.75 10.42l-6.5-2.17v-9.08l6.5 2.16v9.09zm9.48-12.441c0-.029-.01-.059-.02-.089a.576.576 0 0 0-.13-.23.318.318 0 0 0-.1-.1.42.42 0 0 0-.14-.09c-.02-.02-.05-.03-.08-.04-.01-.01-.02-.01-.03-.01l-7.99-2.67h-.01a.587.587 0 0 0-.23-.04c-.08 0-.16.01-.23.04h-.01L6.77 8.96h-.01c-.01 0-.01.01-.02.01-.03.01-.06.02-.08.04a.28.28 0 0 0-.13.09c-.04.01-.07.05-.1.1a.594.594 0 0 0-.16.319c-.01.051-.02.091-.02.131v10.68c0 .31.19.6.51.71l7.95 2.65c.02 0 .03.01.05.01v.01h.01c.01 0 .01.01.02.01s.01 0 .01-.01c.01 0 .01.01.02.01s.02.01.03.01h.03c.04.02.08.02.12.02.06 0 .12-.01.18-.03.01 0 .01-.01.02-.01 0 .01 0 .01.01.01s.01-.01.02-.01h.01v-.01c.02 0 .03-.01.05-.01l7.95-2.65c.32-.11.51-.4.51-.71V9.65c0-.04-.01-.08-.02-.131z" fill="#BD8BCA"/></g></svg>