<svg width="90" height="90" fill="none" xmlns="http://www.w3.org/2000/svg"><path fill-rule="evenodd" clip-rule="evenodd" d="M59.25 59.25c0 5.376 4.374 9.75 9.75 9.75s9.75-4.374 9.75-9.75S74.376 49.5 69 49.5s-9.75 4.374-9.75 9.75zm-12-20.64v27.27l10.2-3.39c-.3-1.02-.45-2.1-.45-3.24 0-5.85 4.2-10.74 9.75-11.79V32.13l-19.5 6.48zm-19.138-9.6l16.89 5.61 16.89-5.61-16.89-5.64-16.89 5.64zM23.25 59.37l19.5 6.51V38.61l-19.5-6.48v27.24zm48-30.42v18.51C76.8 48.51 81 53.4 81 59.25c0 6.63-5.37 12-12 12-3.9 0-7.35-1.86-9.54-4.71l-13.59 4.53-.15.06h-.03c-.015 0-.023.008-.03.015-.007.008-.015.015-.03.015h-.09c-.18.06-.36.09-.54.09-.12 0-.24 0-.36-.06h-.09a.107.107 0 0 1-.045-.015c-.015-.007-.03-.015-.045-.015h-.09c-.015 0-.023-.007-.03-.015-.008-.007-.015-.015-.03-.015h-.03l-.15-.06-23.85-7.95a2.24 2.24 0 0 1-1.53-2.13V28.95c0-.1.02-.199.045-.315l.015-.075c0-.09.03-.18.06-.27.09-.27.24-.51.42-.69.09-.15.18-.27.3-.3a.84.84 0 0 1 .39-.27c.06-.06.15-.09.24-.12.015 0 .023-.008.03-.015.008-.008.015-.015.03-.015h.03l23.97-8.01h.03c.21-.09.45-.12.69-.12.24 0 .48.03.69.12h.03l23.97 8.01c.03 0 .06 0 .09.03.09.03.18.06.24.12.15.06.3.15.42.27.12.06.21.18.3.3.18.18.3.42.39.69.03.09.06.18.06.27l.015.075c.024.116.045.216.045.315zm4.166 27.123c.24-.213.36-.513.36-.813 0-.33-.12-.63-.36-.84-.42-.45-1.2-.45-1.65 0l-7.17 7.17-2.37-2.37c-.45-.45-1.2-.48-1.65 0-.48.45-.48 1.2 0 1.65l3.18 3.21c.24.21.54.33.84.33.3 0 .6-.12.84-.33l7.98-8.007z" fill="#BD8BCA"/></svg>