<svg width="30" height="30" xmlns="http://www.w3.org/2000/svg"><g fill="none" fill-rule="evenodd"><path d="M0 30h30V0H0z"/><path d="M23 23a3.254 3.254 0 0 0 3.25-3.25A3.254 3.254 0 0 0 23 16.5a3.254 3.254 0 0 0-3.25 3.25A3.254 3.254 0 0 0 23 23zm-7.25-1.04l3.4-1.13a4.004 4.004 0 0 1 3.1-5.01v-5.11l-6.5 2.16v9.09zM15 11.54l5.63-1.87L15 7.79 9.37 9.67 15 11.54zm-.75 10.42v-9.09l-6.5-2.16v9.08l6.5 2.17zm9.5-6.14c1.85.35 3.25 1.98 3.25 3.93a4.003 4.003 0 1 1-7.18 2.43l-4.53 1.51-.05.02h-.01c-.01 0-.01.01-.02.01h-.03c-.06.02-.12.03-.18.03-.04 0-.08 0-.12-.02h-.03c-.01 0-.02-.01-.03-.01h-.03c-.01 0-.01-.01-.02-.01h-.01l-.05-.02-7.95-2.65a.747.747 0 0 1-.51-.71V9.65c0-.04.01-.08.02-.13 0-.03.01-.06.02-.09.03-.09.08-.17.14-.23.03-.05.06-.09.1-.1a.28.28 0 0 1 .13-.09c.02-.02.05-.03.08-.04.01 0 .01-.01.02-.01h.01l7.99-2.67h.01c.07-.03.15-.04.23-.04.08 0 .16.01.23.04h.01l7.99 2.67c.01 0 .02 0 .03.01.03.01.06.02.08.04.05.02.1.05.14.09.04.02.07.06.1.1.06.06.1.14.13.23.01.03.02.06.02.09.01.05.02.09.02.13v6.17zm1.51 2.6c0 .1-.04.2-.12.27l-2.66 2.67a.43.43 0 0 1-.28.11c-.1 0-.2-.04-.28-.11l-1.06-1.07a.375.375 0 0 1 0-.55c.15-.16.4-.15.55 0l.79.79 2.39-2.39c.15-.15.41-.15.55 0 .08.07.12.17.12.28z" fill="#354657"/></g></svg>