<svg width="50" height="41" xmlns="http://www.w3.org/2000/svg" xmlns:xlink="http://www.w3.org/1999/xlink"><defs><path d="M28.498 65.904a163.642 163.642 0 0 0 3.87-2.496c.387-.257 1.822-1.214 1.585-1.055.617-.411 1.066-.708 1.512-.997.429-.28.832-.537 1.23-.786 1.854-1.158 3.714-2.198 6.125-3.404 1.429-.714 1.975-.997 2.554-1.331 2.587-1.496 2.903-2.743 1.805-11.532-1.103-8.82-7.717-12.574-14.202-10.413-5.446 1.816-9.828 9.537-8.626 15.547 1.023 5.114 2.042 9.445 3.054 12.986l.132.465v.483c0 1.252.096 2.235.265 2.925.198-.097.432-.227.696-.392zm-4.41-2.533c-1.04-3.64-2.08-8.058-3.12-13.257-1.56-7.799 3.9-17.157 10.918-19.497 7.018-2.34 17.156.78 18.716 13.258 1.56 12.477 0 13.257-6.239 16.377-6.238 3.119-7.798 4.679-14.037 8.578-4.16 2.6-6.239.78-6.239-5.459zm28.85-24.972c0-2.6.78-3.899 2.34-3.899 2.34 0 10.138 0 14.037 3.9 3.9 3.898-6.239 9.357-11.697 14.036-5.46 4.68-4.68 2.34-4.68-2.34V38.4zm7.302 7.649a176.73 176.73 0 0 0 1.615-1.21c2.405-1.829 3.847-3.115 4.577-4.126.045-.063.085-.12.119-.171-.977-.823-2.431-1.47-4.27-1.912-1.908-.459-3.694-.63-5.882-.67a9.05 9.05 0 0 0-.01.44v10.57c.835-.673 1.831-1.421 3.85-2.921z" id="a"/></defs><g transform="translate(-20.25 -29)" fill="none" fill-rule="evenodd"><mask id="b" fill="#fff"><use xlink:href="#a"/></mask><use fill="#354657" fill-rule="nonzero" xlink:href="#a"/><g mask="url(#b)" fill="#364657"><path d="M0 0h92v92H0z"/></g></g></svg>