<svg width="24" height="24" fill="none" xmlns="http://www.w3.org/2000/svg"><path d="M0 5.6A1.6 1.6 0 0 1 1.6 4h20.8A1.6 1.6 0 0 1 24 5.6v12.8a1.6 1.6 0 0 1-1.6 1.6H1.6A1.6 1.6 0 0 1 0 18.4V5.6z" fill="#fff"/><path d="M24 12.8S17.22 17.774 4.8 20h17.6a1.6 1.6 0 0 0 1.6-1.6v-5.6z" fill="#EF7D00"/><ellipse cx="12.603" cy="11.68" rx="1.643" ry="1.68" fill="#EF7D00"/><path d="M8.436 11.676c0 .913.702 1.621 1.604 1.621.255 0 .474-.051.743-.18v-.714c-.237.242-.447.34-.715.34-.597 0-1.021-.442-1.021-1.071 0-.596.437-1.067.993-1.067.283 0 .497.103.743.35v-.713a1.488 1.488 0 0 0-.73-.191c-.897 0-1.617.722-1.617 1.625zM6.915 10.922c0 .168.105.256.46.391.675.252.874.475.874.969 0 .601-.432 1.02-1.048 1.02-.45 0-.779-.182-1.052-.591l.383-.377c.137.27.364.414.647.414.265 0 .46-.187.46-.438 0-.13-.059-.243-.177-.322a2.351 2.351 0 0 0-.41-.177c-.557-.204-.748-.423-.748-.851 0-.509.41-.89.948-.89.333 0 .638.116.893.344l-.31.415c-.155-.177-.3-.251-.478-.251-.256 0-.442.148-.442.344z" fill="#000"/><path fill-rule="evenodd" clip-rule="evenodd" d="M3.43 10.121h-.87v3.106h.865c.46 0 .793-.11 1.084-.358.347-.293.552-.736.552-1.193 0-.916-.67-1.555-1.631-1.555zm.692 2.333c-.186.172-.428.247-.81.247h-.16v-2.054h.16c.382 0 .615.07.81.252.205.186.328.475.328.773 0 .298-.123.596-.328.782z" fill="#000"/><path d="M5.926 10.121h-.592v3.106h.592v-3.106zM14.672 10.121l.81 2.086.82-2.086h.643l-1.313 3.186h-.318l-1.29-3.186h.648zM17.213 13.227h1.68v-.526h-1.088v-.838h1.049v-.526h-1.049v-.69h1.089v-.526h-1.681v3.106z" fill="#000"/><path fill-rule="evenodd" clip-rule="evenodd" d="M20.165 10.121c.683 0 1.075.335 1.075.917 0 .476-.246.788-.692.88l.957 1.31h-.73l-.82-1.249h-.077v1.248h-.592v-3.106h.879zm-.287 1.43h.173c.379 0 .58-.168.58-.48 0-.303-.201-.46-.57-.46h-.183v.94zM21.619 10.238c0-.055-.037-.084-.102-.084h-.085v.273h.064v-.106l.074.106h.078l-.088-.113a.075.075 0 0 0 .059-.076zm-.113.037h-.01v-.071h.01c.032 0 .049.011.049.035 0 .024-.017.036-.049.036z" fill="#000"/><path fill-rule="evenodd" clip-rule="evenodd" d="M21.298 10.29c0-.133.103-.238.232-.238.127 0 .23.107.23.238 0 .13-.104.238-.23.238a.235.235 0 0 1-.232-.238zm.046 0a.19.19 0 0 0 .185.195c.102 0 .185-.088.185-.195 0-.107-.083-.195-.185-.195a.19.19 0 0 0-.185.195z" fill="#000"/></svg>