<svg width="24" height="24" fill="none" xmlns="http://www.w3.org/2000/svg"><path d="M0 5.6A1.6 1.6 0 0 1 1.6 4h20.8A1.6 1.6 0 0 1 24 5.6v12.8a1.6 1.6 0 0 1-1.6 1.6H1.6A1.6 1.6 0 0 1 0 18.4V5.6z" fill="#006FCF"/><path fill-rule="evenodd" clip-rule="evenodd" d="M11.728 10H11.2L10 12.552 8.8 10H7.2v3.376L5.664 10h-1.52L2.4 14h1.192l.36-.888h1.872L6.2 14h2v-2.88L9.536 14h.968l1.224-2.64V14H12.8v-4h-1.072zm-7.4 2.2l.544-1.328.568 1.328H4.328zM21.6 10h-1.408l-1.136 1.2-1.112-1.2h-4.408v4h4.32l1.176-1.256L20.185 14h1.416l-1.848-2 1.848-2zm-4.8 3.6v-.52h-2.24v-.632h2.24v-.904h-2.24v-.632h2.24v-.608L18.347 12l-1.544 1.6z" fill="#fff"/></svg>