<svg width="24" height="24" fill="none" xmlns="http://www.w3.org/2000/svg"><path d="M22.4 4H1.6A1.6 1.6 0 0 0 0 5.6v12.8A1.6 1.6 0 0 0 1.6 20h20.8a1.6 1.6 0 0 0 1.6-1.6V5.6A1.6 1.6 0 0 0 22.4 4z" fill="#000"/><path d="M15.166 6.788h-6.33V17.21h6.33V6.788z" fill="#FF5F00"/><path d="M9.488 12c0-1.004.225-1.994.66-2.897a6.608 6.608 0 0 1 1.851-2.314 6.53 6.53 0 0 0-6.938-.75 6.594 6.594 0 0 0-2.699 2.445 6.668 6.668 0 0 0 0 7.033 6.595 6.595 0 0 0 2.7 2.446 6.53 6.53 0 0 0 6.937-.75 6.607 6.607 0 0 1-1.851-2.315A6.661 6.661 0 0 1 9.488 12z" fill="#EB001B"/><path d="M22.01 16.108v-.214h.092v-.044h-.217v.044h.086v.214h.04zm.423 0v-.258h-.066l-.077.184-.076-.184h-.066v.258h.047v-.196l.072.168h.049l.071-.167v.195h.046zM22.64 12a6.667 6.667 0 0 1-1.003 3.517 6.594 6.594 0 0 1-2.7 2.445 6.531 6.531 0 0 1-6.938-.751 6.62 6.62 0 0 0 1.851-2.315 6.673 6.673 0 0 0 0-5.794A6.619 6.619 0 0 0 12 6.788a6.53 6.53 0 0 1 6.938-.751 6.594 6.594 0 0 1 2.7 2.445 6.667 6.667 0 0 1 1.002 3.516V12z" fill="#F79E1B"/></svg>