<svg width="24" height="24" fill="none" xmlns="http://www.w3.org/2000/svg"><path d="M0 5.6A1.6 1.6 0 0 1 1.6 4h20.8A1.6 1.6 0 0 1 24 5.6v12.8a1.6 1.6 0 0 1-1.6 1.6H1.6A1.6 1.6 0 0 1 0 18.4V5.6z" fill="#fff"/><path d="M0 17.6h24v.8a1.6 1.6 0 0 1-1.6 1.6H1.6A1.6 1.6 0 0 1 0 18.4v-.8z" fill="#F7B700"/><path d="M0 5.6A1.6 1.6 0 0 1 1.6 4h20.8A1.6 1.6 0 0 1 24 5.6v.8H0v-.8z" fill="#1A1F71"/><path fill-rule="evenodd" clip-rule="evenodd" d="M15.637 12.681c0-.977-.784-1.402-1.41-1.74-.421-.229-.77-.418-.764-.71 0-.224.21-.458.658-.52.523-.05 1.05.046 1.525.278l.272-1.31a4.053 4.053 0 0 0-1.455-.279c-1.535 0-2.63.844-2.63 2.046 0 .898.771 1.392 1.358 1.688.588.296.807.494.807.772 0 .413-.482.601-.93.601a3.167 3.167 0 0 1-1.595-.395l-.298 1.356a4.568 4.568 0 0 0 1.753.332c1.631 0 2.692-.826 2.7-2.119h.01zM9.213 8.518L6.697 14.7H5.04l-1.219-4.9a.673.673 0 0 0-.368-.548 6.35 6.35 0 0 0-1.534-.53v-.18h2.63c.358 0 .663.267.719.629l.657 3.59 1.613-4.21 1.675-.035zM21.118 14.7H19.68l-.175-.898h-1.99l-.325.898h-1.63l2.331-5.727a.71.71 0 0 1 .658-.457h1.315l1.254 6.184zm-3.19-2.19l.815-2.325.5 2.307-1.315.018zm-7.803 2.19l1.28-6.184H9.879L8.6 14.7h1.526z" fill="#1A1F71"/></svg>