<svg width="24" height="24" fill="none" xmlns="http://www.w3.org/2000/svg"><path d="M0 5.6A1.6 1.6 0 0 1 1.6 4h20.8A1.6 1.6 0 0 1 24 5.6v12.8a1.6 1.6 0 0 1-1.6 1.6H1.6A1.6 1.6 0 0 1 0 18.4V5.6z" fill="#000"/><path d="M6.029 9.432c.226-.278.38-.651.339-1.032-.331.016-.735.214-.969.492-.21.238-.395.627-.347.992.372.032.743-.182.977-.452zM6.364 9.955c-.54-.031-.999.3-1.256.3-.258 0-.652-.284-1.08-.276a1.595 1.595 0 0 0-1.352.807c-.58.981-.153 2.437.411 3.236.274.395.604.83 1.038.815.411-.016.572-.261 1.071-.261.5 0 .644.26 1.079.253.45-.008.733-.396 1.006-.791.314-.451.443-.886.451-.91-.008-.008-.87-.333-.877-1.306-.008-.815.676-1.202.708-1.226-.386-.562-.99-.625-1.2-.64zM11.062 8.852c1.173 0 1.99.794 1.99 1.95 0 1.16-.834 1.958-2.02 1.958H9.736v2.028h-.938V8.852h2.265zm-1.327 3.135h1.076c.817 0 1.281-.432 1.281-1.18 0-.75-.464-1.177-1.277-1.177h-1.08v2.357zM13.297 13.558c0-.757.59-1.222 1.637-1.28l1.206-.07v-.332c0-.482-.33-.77-.883-.77-.524 0-.85.247-.93.634h-.854c.05-.782.728-1.357 1.817-1.357 1.068 0 1.75.555 1.75 1.423v2.982h-.866v-.712h-.021c-.256.481-.813.786-1.39.786-.863 0-1.466-.527-1.466-1.304zm2.843-.39v-.342l-1.084.066c-.54.037-.846.271-.846.641 0 .379.318.625.804.625.632 0 1.126-.427 1.126-.99zM17.858 16.38v-.72c.067.016.218.016.293.016.419 0 .645-.173.783-.617 0-.008.08-.263.08-.267l-1.591-4.331h.98l1.113 3.52h.017l1.114-3.52h.955l-1.65 4.553c-.377 1.049-.813 1.386-1.725 1.386-.076 0-.302-.008-.369-.02z" fill="#fff"/></svg>