<svg width="24" height="24" fill="none" xmlns="http://www.w3.org/2000/svg"><path d="M0 5.6A1.6 1.6 0 0 1 1.6 4h20.8A1.6 1.6 0 0 1 24 5.6v12.8a1.6 1.6 0 0 1-1.6 1.6H1.6A1.6 1.6 0 0 1 0 18.4V5.6z" fill="#3590D5"/><path fill-rule="evenodd" clip-rule="evenodd" d="M16.655 10.807c.08-.86-.5-1.206-1.126-1.206V9.6h-1.656c-.123 0-.19.068-.219.251l-.572 3.725c-.024.16.014.232.124.232h.692c.105 0 .176-.069.197-.21l.144-.928c.028-.182.08-.27.187-.27h.743c.85-.003 1.39-.57 1.486-1.593zm-1.69.788h-.563l.182-1.18.53-.002c.292-.001.476.197.462.473-.024.447-.258.695-.61.709zm3.69 1.912c.008-.072-.056-.042-.119.016l.003.002c-.247.229-.465.375-.954.375-.674 0-1.186-.57-1.133-1.295.069-.937.708-1.668 1.656-1.689.408-.01.7.114.815.39.033.078.068.065.08-.013l.025-.148c.016-.095.046-.13.107-.13h.675c.09 0 .12.06.1.181l-.378 2.416c-.026.163-.076.205-.18.205h-.614c-.083 0-.118-.048-.106-.138l.022-.172zm-1.267-1.092a.624.624 0 0 0 .633.736c.409 0 .79-.33.85-.736a.624.624 0 0 0-.634-.736c-.408 0-.79.33-.849.736zm2.759 1.406h.71c.027 0 .054-.01.076-.027a.125.125 0 0 0 .042-.07l.623-4.013a.088.088 0 0 0-.021-.07.084.084 0 0 0-.066-.028h-.71a.121.121 0 0 0-.075.028.125.125 0 0 0-.043.07l-.623 4.012a.086.086 0 0 0 .05.091.084.084 0 0 0 .037.007zM5.981 10.808C6.06 9.947 5.48 9.6 4.855 9.6H3.197c-.123 0-.19.068-.219.252l-.57 3.724c-.025.16.013.232.123.232h.692c.105 0 .176-.07.197-.21l.144-.93c.028-.18.08-.27.187-.27h.743c.851-.002 1.39-.568 1.487-1.591zm-1.69.787h-.563l.182-1.18.53-.001c.292-.002.476.196.461.472-.023.447-.257.695-.61.709zm3.689 1.912c.009-.072-.055-.042-.119.017h.002c-.246.23-.465.376-.954.376-.674 0-1.185-.57-1.132-1.295.068-.937.707-1.668 1.655-1.688.408-.01.7.114.815.39.033.077.068.064.081-.014l.025-.148c.016-.095.045-.13.106-.13h.676c.091 0 .12.06.101.181l-.379 2.416c-.025.163-.075.205-.179.205h-.615c-.082 0-.117-.047-.106-.138l.023-.172zm-1.267-1.091a.624.624 0 0 0 .634.736c.408 0 .79-.331.848-.736a.624.624 0 0 0-.633-.737c-.408 0-.79.331-.849.736zm2.963-1.19c-.041-.12.011-.218.14-.218h.624c.119 0 .184.049.21.137l.443 1.465.993-1.461c.065-.096.11-.142.224-.142h.663c.12 0 .155.112.082.219l-2.38 3.469a.216.216 0 0 1-.209.104h-.7c-.09 0-.14-.084-.075-.175l.759-1.096-.774-2.303z" fill="#fff"/></svg>