<svg width="24" height="24" fill="none" xmlns="http://www.w3.org/2000/svg"><path d="M0 5.6A1.6 1.6 0 0 1 1.6 4h20.8A1.6 1.6 0 0 1 24 5.6v12.8a1.6 1.6 0 0 1-1.6 1.6H1.6A1.6 1.6 0 0 1 0 18.4V5.6z" fill="#000"/><path d="M11.481 12.379v2.27h-.709V9.046h1.88c.454-.01.894.165 1.216.487a1.634 1.634 0 0 1 0 2.367 1.69 1.69 0 0 1-1.216.478h-1.17zm0-2.644v1.956h1.19a.92.92 0 0 0 .7-.29.995.995 0 0 0-.023-1.39.96.96 0 0 0-.678-.276h-1.189zM16.013 10.69c.524 0 .938.144 1.242.425.304.281.454.674.454 1.17v2.363h-.679v-.531H17c-.296.437-.683.656-1.172.656-.414 0-.766-.125-1.043-.375a1.192 1.192 0 0 1-.419-.938c0-.398.15-.71.445-.947.295-.237.691-.353 1.185-.353.422 0 .766.08 1.039.232v-.165a.845.845 0 0 0-.29-.639 1.023 1.023 0 0 0-.683-.263c-.397 0-.71.17-.938.51l-.626-.399c.335-.495.841-.745 1.515-.745zm-.916 2.783c0 .188.088.362.234.47a.857.857 0 0 0 .55.187c.3 0 .586-.12.797-.335.233-.223.352-.487.352-.79-.22-.18-.528-.269-.924-.264-.287 0-.529.071-.723.21-.189.138-.286.312-.286.522z" fill="#fff"/><path fill-rule="evenodd" clip-rule="evenodd" d="M21.599 10.816l-2.369 5.516h-.731l.88-1.93-1.554-3.586h.77l1.124 2.751h.013l1.096-2.751h.771z" fill="#fff"/><path fill-rule="evenodd" clip-rule="evenodd" d="M8.614 11.888a4.03 4.03 0 0 0-.053-.652H5.57v1.237h1.713c-.07.397-.3.755-.634.978v.804H7.67c.6-.558.943-1.385.943-2.367z" fill="#4285F4"/><path fill-rule="evenodd" clip-rule="evenodd" d="M5.572 15.032c.854 0 1.576-.286 2.1-.777l-1.021-.804c-.287.197-.652.308-1.08.308-.827 0-1.527-.567-1.778-1.326H2.74v.83a3.162 3.162 0 0 0 2.832 1.77z" fill="#34A853"/><path fill-rule="evenodd" clip-rule="evenodd" d="M3.793 12.433a1.967 1.967 0 0 1 0-1.233v-.826H2.74a3.23 3.23 0 0 0 0 2.885l1.053-.826z" fill="#FBBC04"/><path fill-rule="evenodd" clip-rule="evenodd" d="M5.572 9.873c.453-.009.89.166 1.215.483l.907-.92A3.037 3.037 0 0 0 5.572 8.6a3.167 3.167 0 0 0-2.832 1.774l1.053.83c.25-.764.95-1.33 1.779-1.33z" fill="#EA4335"/></svg>