<svg xmlns="http://www.w3.org/2000/svg" width="30" height="30"><path fill="#BD8BCA" fill-rule="evenodd" d="M24.498 17.456c-.065-.961-1.648-1.576-1.665-1.583-.611-.221-1.276-.329-2.032-.329-.808 0-1.68.12-2.801.387a9.856 9.856 0 0 1-2.5-2.624c-.284-.442-.54-.883-.762-1.314.543-1.327 1.032-2.754.944-4.351C15.61 6.36 15.044 5.5 14.275 5.5c-.527 0-.982.399-1.352 1.187-.658 1.405-.486 3.203.515 5.347-.36.864-.695 1.761-1.019 2.628-.403 1.079-.818 2.192-1.287 3.251-1.313.53-2.391 1.174-3.291 1.964-.589.517-1.299 1.307-1.339 2.131-.02.387.11.744.375 1.029a1.37 1.37 0 0 0 1.024.463c1.284 0 2.52-1.802 2.754-2.163a19.72 19.72 0 0 0 1.346-2.471c1.09-.402 2.252-.703 3.377-.993l.404-.105c.303-.078.617-.165.941-.255.342-.095.693-.193 1.051-.286 1.156.751 2.399 1.241 3.612 1.42 1.021.152 1.927.065 2.542-.262.552-.294.583-.747.57-.929m-14.207 2.176c-.201.368-.407.714-.619 1.04-.509.783-1.342 1.623-1.771 1.623-.042 0-.092-.006-.167-.087-.048-.052-.056-.088-.054-.139.015-.288.389-.801.931-1.277a9.117 9.117 0 0 1 1.68-1.16m4.213-11.921c.052.941-.147 1.846-.439 2.715-.359-1.074-.526-2.26-.077-3.217.115-.246.21-.377.27-.445.095.149.219.482.246.947m2.052 8.599l-.142.04c-.318.088-.626.174-.923.251l-.402.104c-.806.208-1.632.421-2.446.675.31-.763.597-1.533.878-2.287.209-.559.422-1.129.643-1.692.111.189.228.377.35.567a10.92 10.92 0 0 0 2.042 2.342m6.578 1.105c-.39.118-.964.132-1.578.04a7.466 7.466 0 0 1-1.993-.606c1.179-.176 2.093-.122 2.875.161.186.067.491.247.696.405M15 0C6.716 0 0 6.716 0 15c0 8.284 6.716 15 15 15 8.284 0 15-6.716 15-15 0-8.284-6.716-15-15-15m0 1.5c7.444 0 13.5 6.056 13.5 13.5S22.444 28.5 15 28.5 1.5 22.444 1.5 15 7.556 1.5 15 1.5"/></svg>