<svg xmlns="http://www.w3.org/2000/svg" width="30" height="30"><path fill="#354657" fill-rule="evenodd" d="M7.68 22.07c.016-.288.39-.803.931-1.279a9.166 9.166 0 0 1 1.68-1.16c-.2.37-.407.715-.617 1.041-.511.784-1.345 1.623-1.772 1.623-.043 0-.093-.006-.168-.087-.048-.051-.056-.087-.053-.138zM14.505 7.71c.052.941-.146 1.846-.438 2.715-.359-1.074-.527-2.26-.078-3.217a1.86 1.86 0 0 1 .271-.445c.095.148.22.482.245.947zm.01 6.257a10.95 10.95 0 0 0 2.042 2.343l-.142.039c-.317.089-.626.175-.923.251l-.401.104c-.807.208-1.632.421-2.447.675.31-.763.598-1.534.879-2.288.209-.558.422-1.128.642-1.69.112.188.228.377.35.566zm5.05 2.88c1.178-.175 2.092-.121 2.874.162.187.067.491.247.696.405-.39.119-.963.132-1.578.04a7.361 7.361 0 0 1-1.993-.607zm4.364 1.537c.552-.294.583-.748.57-.929-.065-.961-1.648-1.576-1.664-1.583-.612-.22-1.277-.329-2.032-.329-.81 0-1.681.12-2.802.388a9.875 9.875 0 0 1-2.5-2.625 16.279 16.279 0 0 1-.762-1.314c.544-1.327 1.033-2.754.944-4.351-.071-1.281-.638-2.142-1.406-2.142-.528 0-.983.4-1.352 1.188-.659 1.404-.486 3.202.514 5.346a77.24 77.24 0 0 0-1.019 2.628c-.403 1.079-.818 2.192-1.286 3.25-1.313.532-2.392 1.175-3.291 1.965-.589.517-1.299 1.307-1.34 2.131a1.38 1.38 0 0 0 .376 1.029 1.37 1.37 0 0 0 1.024.463c1.284 0 2.519-1.802 2.754-2.163a19.65 19.65 0 0 0 1.346-2.471c1.09-.402 2.251-.703 3.377-.993l.403-.104c.303-.078.618-.165.941-.256.342-.095.694-.192 1.052-.285 1.155.751 2.399 1.24 3.611 1.42 1.021.151 1.928.063 2.542-.263zM15 0c8.284 0 15 6.716 15 15 0 8.284-6.716 15-15 15-8.284 0-15-6.716-15-15C0 6.716 6.716 0 15 0z"/></svg>