<svg xmlns="http://www.w3.org/2000/svg" width="30" height="30"><g fill="none" fill-rule="evenodd"><path d="M0 30h30V0H0z"/><path fill="#354657" d="M24.498 17.456c-.065-.96-1.648-1.576-1.664-1.583-.612-.22-1.277-.329-2.032-.329-.81 0-1.682.12-2.802.387a9.856 9.856 0 0 1-2.5-2.624c-.284-.442-.54-.883-.762-1.314.543-1.327 1.032-2.754.944-4.35C15.61 6.36 15.044 5.5 14.275 5.5c-.527 0-.982.4-1.352 1.187-.658 1.405-.486 3.203.515 5.347-.36.864-.695 1.761-1.019 2.628-.403 1.08-.818 2.192-1.287 3.251-1.313.53-2.391 1.174-3.291 1.964-.589.517-1.299 1.307-1.339 2.131-.02.387.11.744.375 1.03a1.37 1.37 0 0 0 1.024.462c1.284 0 2.52-1.802 2.754-2.163a19.72 19.72 0 0 0 1.346-2.47c1.09-.403 2.252-.704 3.377-.994l.404-.105c.303-.078.617-.165.941-.255.342-.095.693-.193 1.051-.286 1.156.751 2.399 1.241 3.612 1.42 1.02.152 1.927.065 2.542-.262.551-.294.583-.747.57-.929m-14.207 2.176c-.201.368-.407.714-.619 1.04-.509.783-1.342 1.623-1.771 1.623-.042 0-.092-.006-.167-.087-.048-.052-.056-.088-.054-.139.015-.288.389-.8.931-1.277a9.117 9.117 0 0 1 1.68-1.16m4.213-11.92c.052.94-.147 1.845-.439 2.714-.359-1.074-.526-2.26-.077-3.217.115-.246.21-.377.27-.445.095.15.219.482.246.947m2.052 8.6l-.142.04c-.317.087-.626.173-.923.25l-.402.104c-.806.208-1.632.421-2.446.675.31-.763.597-1.533.878-2.287.209-.559.422-1.129.643-1.692.111.19.228.377.35.567a10.92 10.92 0 0 0 2.042 2.342m6.578 1.105c-.391.118-.963.132-1.577.04a7.468 7.468 0 0 1-1.995-.606c1.179-.176 2.094-.122 2.876.161.186.067.491.247.696.405"/></g></svg>