<svg xmlns="http://www.w3.org/2000/svg" width="30" height="30"><path fill="#354657" fill-rule="evenodd" d="M17.067 18.572l1.89-.866 3.34 1.28L21.91 20l-.891 2.345c-3.12-.842-6.02-2.543-8.42-4.944-2.4-2.4-4.1-5.3-4.942-8.42l2.348-.892 1.01-.387 1.28 3.342-.865 1.89a1.502 1.502 0 0 0 .17 1.534 20.674 20.674 0 0 0 3.934 3.933 1.501 1.501 0 0 0 1.533.17zm6.892.27a.77.77 0 0 0-.041-.592.935.935 0 0 0-.468-.429l-4.256-1.629a.78.78 0 0 0-.277-.051.643.643 0 0 0-.277.06l-2.198 1.006a19.213 19.213 0 0 1-3.648-3.648l1.006-2.198a.73.73 0 0 0 .01-.555l-1.629-4.255a.933.933 0 0 0-.429-.469.787.787 0 0 0-.348-.082.73.73 0 0 0-.244.041l-1.691.647-3.063 1.165a.721.721 0 0 0-.214.14L6.186 8a.553.553 0 0 0-.11.154.442.442 0 0 0-.059.176.27.27 0 0 0-.014.131.437.437 0 0 0 .017.161.254.254 0 0 0 .026.106c.863 3.698 2.823 7.064 5.493 9.734 2.67 2.671 6.036 4.631 9.734 5.493a.254.254 0 0 0 .105.028.448.448 0 0 0 .122.017l.039-.002.042.002c.015 0 .03-.001.048-.004l.01.001c.01 0 .021-.002.031-.011a.454.454 0 0 0 .177-.06.53.53 0 0 0 .154-.109l.006-.007a.721.721 0 0 0 .14-.214l1.166-3.064.646-1.69zM15 0c8.284 0 15 6.716 15 15 0 8.284-6.716 15-15 15-8.284 0-15-6.716-15-15C0 6.716 6.716 0 15 0z"/></svg>