<svg xmlns="http://www.w3.org/2000/svg" width="30" height="30"><g fill="none" fill-rule="evenodd"><path d="M0 30h30V0H0z"/><path fill="#354657" d="M11.404 6a.74.74 0 0 0-.244.041l-1.691.646-3.063 1.166a.734.734 0 0 0-.214.14L6.186 8a.564.564 0 0 0-.11.153.452.452 0 0 0-.06.177c-.01.041-.022.082-.012.131a.437.437 0 0 0 .016.161.24.24 0 0 0 .027.106c.862 3.698 2.822 7.064 5.492 9.734 2.67 2.671 6.035 4.631 9.734 5.493a.254.254 0 0 0 .106.027.404.404 0 0 0 .16.016l.042.002a.274.274 0 0 0 .048-.004l.01.001a.04.04 0 0 0 .03-.012.447.447 0 0 0 .178-.059.535.535 0 0 0 .153-.11l.007-.006a.705.705 0 0 0 .14-.214l1.166-3.064.646-1.69a.766.766 0 0 0-.041-.592.929.929 0 0 0-.468-.43l-4.255-1.629a.812.812 0 0 0-.278-.05.646.646 0 0 0-.277.06l-2.197 1.006a19.19 19.19 0 0 1-3.65-3.648L13.8 11.36a.722.722 0 0 0 .01-.554l-1.63-4.255a.933.933 0 0 0-.428-.469.77.77 0 0 0-.348-.082m-.388 1.702l1.28 3.342-.866 1.891a1.5 1.5 0 0 0 .17 1.532 20.674 20.674 0 0 0 3.934 3.934 1.496 1.496 0 0 0 1.533.17l1.889-.865 3.342 1.279-.388 1.014-.891 2.346c-3.12-.843-6.02-2.543-8.42-4.944-2.4-2.4-4.1-5.299-4.942-8.42l2.348-.892 1.01-.387"/></g></svg>