<svg xmlns="http://www.w3.org/2000/svg" width="30" height="30"><path fill="#FFF" fill-rule="evenodd" d="M8.5 14v-.2l.71-3.3h11.58l.71 3.3v.2h-13zm1 5.5H16v-4H9.5v4zm12.67-9.71c-.1-.46-.51-.79-.98-.79H8.81c-.47 0-.88.33-.98.79L7 13.64v.86c0 .55.45 1 1 1V20c0 .55.45 1 1 1h7.5c.55 0 1-.45 1-1v-4.5h3v4.75c0 .41.34.75.75.75s.75-.34.75-.75V15.5c.55 0 1-.45 1-1v-.86l-.83-3.85zM15 0C6.716 0 0 6.716 0 15c0 8.284 6.716 15 15 15 8.284 0 15-6.716 15-15 0-8.284-6.716-15-15-15zm0 1.5c7.444 0 13.5 6.056 13.5 13.5S22.444 28.5 15 28.5 1.5 22.444 1.5 15 7.556 1.5 15 1.5z"/></svg>