<svg xmlns="http://www.w3.org/2000/svg" width="40" height="40"><path fill="#BD8BCA" d="M19.77 5.02c-2.401.286-4.263 1.062-6.029 2.526-2.305 1.903-3.716 4.89-3.738 7.885-.008 1.002.126 1.771.502 2.95 1.072 3.353 4.256 8.865 8.556 14.81 1.337 1.859 1.529 2.012 1.987 1.653.466-.366 4.337-5.98 5.91-8.565 2.305-3.806 3.739-6.845 4.226-8.96.45-1.948.17-4.173-.783-6.193-1.455-3.083-4.285-5.271-7.669-5.938-.68-.13-2.423-.233-2.962-.167zm2.253 5.19c1.426.433 2.616 1.692 2.963 3.156.162.68.103 1.794-.118 2.423a4.46 4.46 0 0 1-2.172 2.445c-.983.476-1.892.6-2.875.396-2.06-.432-3.516-2.189-3.524-4.26 0-.726.111-1.201.451-1.904.65-1.34 1.958-2.277 3.42-2.424.725-.073 1.16-.036 1.855.169z"/></svg>