<svg xmlns="http://www.w3.org/2000/svg" width="30" height="30"><g fill="none" fill-rule="evenodd"><path d="M0 30h30V0H0z"/><path fill="#354657" d="M21.5 18.5c0 .28-.22.5-.5.5h-1.31l-.33-1h-8.72l-.33 1H9c-.28 0-.5-.22-.5-.5v-6c0-.28.22-.5.5-.5h12c.28 0 .5.22.5.5v6zM19.31 21h-8.62l.17-.5.5-1.5h7.28l.5 1.5.17.5zM12.6 9.5h4.8l.22 1h-5.24l.22-1zm8.4 1h-1.84l-.38-1.72c-.11-.46-.51-.78-.98-.78h-5.6c-.47 0-.87.32-.98.78l-.38 1.72H9c-1.1 0-2 .9-2 2v6c0 1.1.9 2 2 2h.81l-.5 1.5h11.38l-.5-1.5H21c1.1 0 2-.9 2-2v-6c0-1.1-.9-2-2-2z"/></g></svg>