<svg xmlns="http://www.w3.org/2000/svg" width="30" height="30"><path fill="#BD8BCA" fill-rule="evenodd" d="M21 12c.28 0 .5.22.5.5v6c0 .28-.22.5-.5.5h-1.31l-.33-1h-8.72l-.33 1H9c-.28 0-.5-.22-.5-.5v-6c0-.28.22-.5.5-.5h12zm-3.6-2.5l.22 1h-5.24l.22-1h4.8zm1.24 9.5l.5 1.5.17.5h-8.62l.17-.5.5-1.5h7.28zm4.36-.5v-6c0-1.1-.9-2-2-2h-1.84l-.38-1.72c-.11-.46-.51-.78-.98-.78h-5.6c-.47 0-.87.32-.98.78l-.38 1.72H9c-1.1 0-2 .9-2 2v6c0 1.1.9 2 2 2h.81l-.5 1.5h11.38l-.5-1.5H21c1.1 0 2-.9 2-2zM15 0c8.284 0 15 6.716 15 15 0 8.284-6.716 15-15 15-8.284 0-15-6.716-15-15C0 6.716 6.716 0 15 0z"/></svg>