<svg xmlns="http://www.w3.org/2000/svg" width="30" height="30"><path fill="#354657" fill-rule="evenodd" d="M21.5 18.5c0 .28-.22.5-.5.5h-1.31l-.33-1h-8.72l-.33 1H9c-.28 0-.5-.22-.5-.5v-6c0-.28.22-.5.5-.5h12c.28 0 .5.22.5.5v6zM19.31 21h-8.62l.17-.5.5-1.5h7.28l.5 1.5.17.5zM12.6 9.5h4.8l.22 1h-5.24l.22-1zm8.4 1h-1.84l-.38-1.72c-.11-.46-.51-.78-.98-.78h-5.6c-.47 0-.87.32-.98.78l-.38 1.72H9c-1.1 0-2 .9-2 2v6c0 1.1.9 2 2 2h.81l-.5 1.5h11.38l-.5-1.5H21c1.1 0 2-.9 2-2v-6c0-1.1-.9-2-2-2zM15 0C6.716 0 0 6.716 0 15c0 8.284 6.716 15 15 15 8.284 0 15-6.716 15-15 0-8.284-6.716-15-15-15zm0 1.5c7.444 0 13.5 6.056 13.5 13.5S22.444 28.5 15 28.5 1.5 22.444 1.5 15 7.556 1.5 15 1.5z"/></svg>