<svg width="30" height="30" xmlns="http://www.w3.org/2000/svg"><path d="M15.094 0a14.61 14.61 0 0 0-9.192 3.256V2.04a.761.761 0 0 0-.745-.765.761.761 0 0 0-.745.765v3.062c0 .418.338.765.745.765h2.981a.761.761 0 0 0 .745-.765.761.761 0 0 0-.745-.766H6.985a13.154 13.154 0 0 1 8.11-2.806c7.392 0 13.414 6.184 13.414 13.777a14.27 14.27 0 0 1-.844 4.838c-.15.388.05.837.427.98.09.03.179.05.268.05a.749.749 0 0 0 .696-.5c.626-1.714.944-3.52.944-5.368C30 6.868 23.312 0 15.094 0m9.749 24.132h-2.981a.761.761 0 0 0-.745.765c0 .419.337.766.745.766h1.162a13.12 13.12 0 0 1-8.118 2.806c-7.393 0-13.415-6.184-13.415-13.777 0-1.664.288-3.287.844-4.838a.765.765 0 0 0-.427-.98.733.733 0 0 0-.964.45A15.603 15.603 0 0 0 0 14.692C0 23.132 6.688 30 14.906 30a14.58 14.58 0 0 0 9.192-3.266v1.225c0 .418.338.765.745.765a.761.761 0 0 0 .745-.765v-3.062a.761.761 0 0 0-.745-.765" fill="#354657" fill-rule="evenodd"/></svg>