<svg xmlns="http://www.w3.org/2000/svg" width="30" height="30"><g fill="none" fill-rule="evenodd"><path d="M0 30h30V0H0z"/><path fill="#FFF" d="M16 21.5h4.5v-7H16v7zm-6.5 0H14v-7H9.5v7zm-1-8.5H14v-2H8.5v2zm2.88-6.37c.33.03 1.02.309 1.72 1.02.73.73 1 1.42 1.02 1.72-.33-.03-1.02-.309-1.72-1.02-.73-.73-1-1.42-1.02-1.72zm5.52 1.02c.7-.711 1.39-.99 1.72-1.02-.02.3-.29.99-1.02 1.72-.7.711-1.39.99-1.72 1.02.02-.3.29-.99 1.02-1.72zM16 13h5.5v-2H16v2zm6-3.5h-4.19c.17-.13.34-.28.5-.439 1.17-1.17 1.65-2.601 1.06-3.181-.17-.17-.41-.25-.7-.25-.69 0-1.65.479-2.48 1.309-.6.601-1.01 1.261-1.19 1.841-.18-.58-.59-1.24-1.19-1.841-.83-.83-1.79-1.309-2.48-1.309-.29 0-.53.08-.7.25-.59.58-.11 2.011 1.06 3.181.16.159.33.309.5.439H8c-.55 0-1 .45-1 1v3c0 .55.45 1 1 1v7.65c0 .47.38.85.85.85h12.3c.47 0 .85-.38.85-.85V14.5c.55 0 1-.45 1-1v-3c0-.55-.45-1-1-1z"/></g></svg>