<svg xmlns="http://www.w3.org/2000/svg" width="30" height="30"><g fill="none" fill-rule="evenodd"><path d="M0 30h30V0H0z"/><path fill="#FFF" d="M22.004 8.552l-1.008 5.294a.29.29 0 0 0 .293.338h1.115c.329 0 .596.256.596.57v5.46a.584.584 0 0 1-.596.572h-5.782a.584.584 0 0 1-.596-.572v-5.79c0-.225.035-.448.103-.663l1.69-5.344a.299.299 0 0 1 .287-.203h3.605a.29.29 0 0 1 .293.338m-9.023 0l-1.008 5.294c-.034.176.107.338.293.338h1.112c.329 0 .596.256.596.57v5.46a.584.584 0 0 1-.596.572H7.596A.584.584 0 0 1 7 20.214v-5.79c0-.225.035-.448.103-.664l1.694-5.343a.297.297 0 0 1 .285-.203h3.606a.29.29 0 0 1 .293.338"/></g></svg>