<svg width="30" height="30" xmlns="http://www.w3.org/2000/svg"><g fill="none" fill-rule="nonzero"><circle fill="#FFF" cx="15" cy="15" r="15"/><path d="M6.44 15.52a12.38 12.38 0 0 0 1.881 2.853l.289.317a7.93 7.93 0 0 0 4.6 2.61 7 7 0 0 1-3.975-.097L8.94 21.1A11.14 11.14 0 0 1 3 16.37a10.37 10.37 0 0 1 3.44-.85zm17.21 0a10.37 10.37 0 0 1 3.44.85 11.14 11.14 0 0 1-5.9 4.73 7 7 0 0 1-4.25.2 7.93 7.93 0 0 0 4.328-2.375l.212-.235a12.38 12.38 0 0 0 2.17-3.17zm.29-4.62a11.93 11.93 0 0 1-3.12 7.09 6.72 6.72 0 0 1-4.44 2.38 8.19 8.19 0 0 0 2.09-6.01c0-.4-.05-.81-.05-1.22a10.63 10.63 0 0 1 5.52-2.24zm-17.81 0a10.63 10.63 0 0 1 5.52 2.25c-.05.41-.05.82-.05 1.22a8.19 8.19 0 0 0 2.11 6 6.72 6.72 0 0 1-4.44-2.38 11.91 11.91 0 0 1-3.14-7.09zM15.04 7a11.93 11.93 0 0 1 2.53 7.36c0 4.19-2.19 5.65-2.53 5.85l-.156-.103c-.6-.425-2.364-1.987-2.364-5.747A12 12 0 0 1 15.04 7zm-5.1 1.14a10.08 10.08 0 0 1 2.44 1.75 13.62 13.62 0 0 0-.58 2.17 11.4 11.4 0 0 0-2.26-1.27c.03-.896.165-1.785.4-2.65zm10.2.01c.238.861.376 1.747.41 2.64a11.4 11.4 0 0 0-2.26 1.26 13.91 13.91 0 0 0-.58-2.17 10.08 10.08 0 0 1 2.43-1.73z" fill="#354657"/></g></svg>