<svg width="65" height="54" xmlns="http://www.w3.org/2000/svg" xmlns:xlink="http://www.w3.org/1999/xlink"><defs><path d="M50.244 71.682a235.619 235.619 0 0 0 .325-4.752c.169-2.899.285-5.762.324-8.429.018-1.252.02-2.432.002-3.527.048-2.584-.043-4.737-.293-6.286a22.208 22.208 0 0 0-1.157-2.506 1.765 1.765 0 0 1 .152-1.927l4.34-6.607c1.063-2.492.656-5.168-1.012-7.16-.992-1.186-2.438-2.012-3.942-2.323l-3.27-.404-3.303.381c-1.647.334-3.094 1.16-4.085 2.346-1.668 1.993-2.075 4.668-1.013 7.16l4.41 6.712c.316.481.38 1.086.17 1.622l-1.062 2.716c-.249 1.548-.34 3.697-.291 6.276-.018 1.095-.017 2.275.002 3.527.039 2.667.155 5.53.324 8.429.074 1.275.153 2.47.233 3.552.034.469.063.84.088 1.208-2.122-1.429-3.518-3.812-3.511-6.43a131.064 131.064 0 0 1-.35-3.722 109.6 109.6 0 0 1-.335-6.394c-.058-2.928.05-5.376.37-7.224l.096-.343.795-2.034-3.99-6.07-.137-.251c-1.086-2.43-1.223-5.028-.499-7.387-2.679-.813-5-2.522-6.563-4.844l-3.235-3.724c-.969-1.235-2.562-1.637-3.923-1.045a3.222 3.222 0 0 0-1.815 2.063l-.614 2.135a3.199 3.199 0 0 0 1.02 3.332l1.425 1.199c1.627-.881 4.05-.336 6.158 1.29 2.743 2.117 4.455 5.521 3.642 8.003-1.033 3.156-4.714 3.054-7.745.715-2.345-1.81-3.937-4.56-3.842-6.871l-1.924-1.62a6.75 6.75 0 0 1-2.147-7.028l.614-2.135a6.772 6.772 0 0 1 3.811-4.339 6.81 6.81 0 0 1 8.079 2.043l3.25 3.738.143.188a8.623 8.623 0 0 0 5.086 3.61l.24.06c.102-.133.207-.266.316-.396 1.524-1.822 3.688-3.057 6.245-3.57l3.691-.429.386.013 3.624.44c2.414.49 4.578 1.724 6.101 3.546.182.217.354.44.516.668a1.78 1.78 0 0 1 .377-.142l.751-.19a8.623 8.623 0 0 0 5.086-3.61l.143-.188 3.25-3.738a6.81 6.81 0 0 1 8.08-2.043 6.772 6.772 0 0 1 3.811 4.34l.613 2.134a6.75 6.75 0 0 1-2.146 7.029l-1.924 1.619c.095 2.31-1.497 5.06-3.843 6.87-3.03 2.34-6.712 2.442-7.745-.714-.812-2.482.9-5.886 3.643-8.003 2.109-1.626 4.53-2.171 6.158-1.29l1.424-1.2a3.199 3.199 0 0 0 1.02-3.331l-.613-2.135a3.222 3.222 0 0 0-1.815-2.063c-1.361-.592-2.955-.19-3.923 1.045l-3.235 3.724a12.176 12.176 0 0 1-7.113 4.997l-.46.116c.634 2.287.467 4.78-.578 7.118l-.137.25-3.929 5.98a27.493 27.493 0 0 1 .932 2.16l.083.308c.32 1.848.428 4.296.37 7.224a109.6 109.6 0 0 1-.335 6.393c-.077.961-.158 1.862-.24 2.679-.05.492-.088.848-.099.84 0 2.747-1.4 5.18-3.526 6.626zm15.748-32.543c.034.106.807.084 2.201-.991 1.682-1.299 2.693-3.308 2.438-4.086-.034-.107-.807-.085-2.202.99-1.682 1.299-2.692 3.308-2.437 4.087zm-39.646 0c.255-.78-.756-2.788-2.438-4.086-1.394-1.076-2.167-1.098-2.202-.991-.255.778.756 2.787 2.439 4.086 1.393 1.075 2.166 1.097 2.2.991z" id="a"/></defs><g transform="translate(-13.75 -18)" fill="none" fill-rule="evenodd"><mask id="b" fill="#fff"><use xlink:href="#a"/></mask><use fill="#FFF" fill-rule="nonzero" xlink:href="#a"/><g mask="url(#b)" fill="#FFF"><path d="M0 0h92v92H0z"/></g></g></svg>