<svg xmlns="http://www.w3.org/2000/svg" width="30" height="30"><path fill="#354657" fill-rule="evenodd" d="M15 0c-3.39 0-6.62 1.12-9.25 3.19V2c0-.41-.34-.75-.75-.75s-.75.34-.75.75v3c0 .41.34.75.75.75h3c.41 0 .75-.34.75-.75s-.34-.75-.75-.75H6.83C9.17 2.47 12.02 1.5 15 1.5c7.44 0 13.5 6.06 13.5 13.5 0 3.61-1.4 7-3.95 9.55A13.41 13.41 0 0 1 15 28.5C7.56 28.5 1.5 22.44 1.5 15c0-1.63.29-3.22.85-4.74a.743.743 0 0 0-.43-.96c-.4-.15-.83.05-.97.44A14.93 14.93 0 0 0 0 15c0 8.27 6.73 15 15 15 4.01 0 7.77-1.56 10.61-4.39C28.44 22.77 30 19.01 30 15c0-8.27-6.73-15-15-15zm7.25 10.71l-6.5 2.16v9.09l6.5-2.17v-9.08zm-1.62-1.04L15 7.79 9.37 9.67 15 11.54l5.63-1.87zm-6.38 3.2l-6.5-2.16v9.08l6.5 2.17v-9.09zm9.5-3.22v10.68c0 .31-.19.6-.51.71l-7.95 2.65c-.02 0-.03.01-.05.01v.01h-.01c-.01 0-.01.01-.02.01s-.01 0-.01-.01c-.01 0-.01.01-.02.01-.06.02-.12.03-.18.03-.04 0-.08 0-.12-.02h-.03c-.01 0-.02-.01-.03-.01-.01 0-.01-.01-.02-.01 0 .01 0 .01-.01.01s-.01-.01-.02-.01h-.01v-.01c-.02 0-.03-.01-.05-.01l-7.95-2.65a.747.747 0 0 1-.51-.71V9.65c0-.04.01-.08.02-.13 0-.03.01-.06.02-.09.03-.09.08-.17.14-.23.03-.05.06-.09.1-.1a.28.28 0 0 1 .13-.09c.02-.02.05-.03.08-.04.01 0 .01-.01.02-.01h.01l7.99-2.67h.01c.07-.03.15-.04.23-.04.08 0 .16.01.23.04h.01l7.99 2.67c.01 0 .02 0 .03.01.03.01.06.02.08.04.05.02.1.05.14.09.04.02.07.06.1.1.06.06.1.14.13.23.01.03.02.06.02.09.01.05.02.09.02.13z"/></svg>