<svg xmlns="http://www.w3.org/2000/svg" width="30" height="30"><path fill="#BD8BCA" fill-rule="evenodd" d="M15.39 21.36l-.06-.03c-.01-.01-.03-.01-.04-.01-.04-.03-.08-.04-.12-.051a.675.675 0 0 0-.34 0c-.04.011-.08.021-.12.051-.04 0-.07.019-.1.04l-2.63 1.31.69-4.14a6.02 6.02 0 0 0 4.66 0l.69 4.14-2.63-1.31zM10.5 13c0-2.481 2.02-4.5 4.5-4.5s4.5 2.019 4.5 4.5c0 2.48-2.02 4.5-4.5 4.5s-4.5-2.02-4.5-4.5zm8.24 4.88c-.01-.06-.03-.111-.04-.161A5.979 5.979 0 0 0 21 13c0-3.31-2.69-6-6-6s-6 2.69-6 6c0 1.92.9 3.62 2.3 4.719-.01.05-.03.101-.04.161l-.98 5.91a.56.56 0 0 0-.03.179v.04c0 .05.01.101.02.151a.898.898 0 0 0 .16.33c.01.01.02.01.02.019.04.05.09.08.14.121.01.009.03.009.04.02.05.029.11.06.17.069.06.021.13.031.2.031.11 0 .23-.031.33-.08l.07-.031 3.6-1.8 3.6 1.8.07.031c.1.049.22.08.33.08.04 0 .08 0 .12-.01.03 0 .06-.01.08-.021.06-.009.12-.04.17-.069.01-.011.03-.011.04-.02.05-.041.1-.071.14-.121 0-.009.01-.009.02-.019a.898.898 0 0 0 .16-.33c.01-.05.02-.101.02-.151v-.04a.56.56 0 0 0-.03-.179l-.98-5.91zM19.75 5.5a.75.75 0 0 0-.75-.75h-8a.75.75 0 0 0 0 1.5h8a.75.75 0 0 0 .75-.75zm0 18.469a.56.56 0 0 0-.03-.179l.02.09c.01.03.01.06.01.089zm-8.95.75c.02.011.05.021.08.021a.617.617 0 0 1-.08-.021zm-.54-.839l.02-.09a.56.56 0 0 0-.03.179c0-.029 0-.059.01-.089zM15 0C6.716 0 0 6.715 0 15c0 8.284 6.716 15 15 15 8.284 0 15-6.716 15-15 0-8.285-6.716-15-15-15zm0 1.5c7.444 0 13.5 6.055 13.5 13.5 0 7.444-6.056 13.5-13.5 13.5S1.5 22.444 1.5 15C1.5 7.555 7.556 1.5 15 1.5z"/></svg>