<svg xmlns="http://www.w3.org/2000/svg" width="30" height="30"><g fill="none" fill-rule="evenodd"><path d="M0 30h30V0H0z"/><path fill="#FFF" d="M15.39 21.36l-.06-.03c-.01-.01-.03-.01-.04-.01-.04-.03-.08-.04-.12-.05a.675.675 0 0 0-.34 0c-.04.01-.08.02-.12.05-.04 0-.07.02-.1.04l-2.63 1.31.69-4.14a6.02 6.02 0 0 0 4.66 0l.69 4.14-2.63-1.31zM10.5 13c0-2.48 2.02-4.5 4.5-4.5s4.5 2.02 4.5 4.5-2.02 4.5-4.5 4.5-4.5-2.02-4.5-4.5zm8.24 4.88c-.01-.06-.03-.11-.04-.16A5.982 5.982 0 0 0 21 13c0-3.31-2.69-6-6-6s-6 2.69-6 6c0 1.92.9 3.62 2.3 4.72-.01.05-.03.1-.04.16l-.98 5.91a.56.56 0 0 0-.03.18v.04c0 .05.01.1.02.15a.898.898 0 0 0 .16.33c.01.01.02.01.02.02.04.05.09.08.14.12.01.01.03.01.04.02.05.03.11.06.17.07.06.02.13.03.2.03.11 0 .23-.03.33-.08l.07-.03 3.6-1.8 3.6 1.8.07.03c.1.05.22.08.33.08.04 0 .08 0 .12-.01.03 0 .06-.01.08-.02.06-.01.12-.04.17-.07.01-.01.03-.01.04-.02.05-.04.1-.07.14-.12 0-.01.01-.01.02-.02a.898.898 0 0 0 .16-.33c.01-.05.02-.1.02-.15v-.04a.56.56 0 0 0-.03-.18l-.98-5.91zM19.75 5.5a.75.75 0 0 0-.75-.75h-8a.75.75 0 0 0 0 1.5h8a.75.75 0 0 0 .75-.75zm0 18.47a.56.56 0 0 0-.03-.18l.02.09c.01.03.01.06.01.09zm-8.95.75c.02.01.05.02.08.02a.617.617 0 0 1-.08-.021zm-.54-.84l.02-.09a.56.56 0 0 0-.03.18c0-.03 0-.06.01-.09z"/></g></svg>