<svg width="30" height="30" xmlns="http://www.w3.org/2000/svg"><g fill="none" fill-rule="evenodd"><path opacity=".606" d="M0 0h30v30H0z"/><path d="M12.928 17.741a6.001 6.001 0 0 0 7.921-8.984 6 6 0 0 0-8.983 7.922l.465.597.597.465zm-1.292 1.644L9.17 21.85l2.486-2.485.042-.045-.063.066zm-3.879 1.05L5.293 22.9l2.464-2.464zm0 0l2.465-2.464-.02.022.04-.043-2.485 2.485zM10.95 7.343a8 8 0 1 1 .75 11.976l-.043.045-4.95 4.95a1 1 0 1 1-1.414-1.415l4.95-4.95.045-.042a8.001 8.001 0 0 1 .662-10.564z" fill="#BD8BCA" fill-rule="nonzero"/></g></svg>