<svg width="30" height="30" xmlns="http://www.w3.org/2000/svg"><g fill="none" fill-rule="evenodd"><circle cx="15" cy="15" r="15"/><path d="M14.156 23.458l1.26.088-.144 2.05-1.26-.088.144-2.05zm5.674-1.467l.999 1.79-1.1.614-1-1.79 1.1-.614zm-10.138-.443l1.009.755-1.23 1.64-1.008-.755 1.23-1.64zM20.528 9.62c.552.608 1 1.304 1.325 2.06a7.936 7.936 0 0 1-.856 7.673 7.768 7.768 0 0 1-6.94 3.242 8.185 8.185 0 0 1-2.222-.525A7.787 7.787 0 0 1 9.47 20.55L20.528 9.62zm2.272 8.65l1.812.959-.59 1.113-1.812-.96.59-1.113zM15.5 5l.78.78-1.33 1.34V8.4l1.14-1.14.78.78-1.92 1.92v3.13l2.21-2.21V8.17h1.11v1.61l.84-.85V6.96h1.1v2.09L8.94 20.34H6.83v-1.1h1.98l.88-.89H8.08v-1.1h2.71l2.06-2.05h-2.82l-1.92 1.91-.78-.78 1.14-1.13H7.11l-1.33 1.33-.78-.79 1.13-1.12L5 13.49l.78-.78 1.38 1.38h1.35l-1.18-1.17.78-.78 1.96 1.95h3.13l-2.41-2.41H8.08v-1.1h1.61l-.88-.88H6.83V8.6h1.64V6.96h1.1v1.95l.92.92V8.17h1.1v2.76l2.26 2.25V10l-1.96-1.96.78-.78 1.18 1.18V7.23L12.4 5.78l.78-.78 1.16 1.16L15.5 5zm9.806 8.335l.113 1.254-2.051.185-.113-1.255 2.051-.184zM22.86 8.26l.6.76-1.62 1.27-.61-.78c.55-.41 1.09-.83 1.63-1.25z" fill="#BD8BCA" fill-rule="nonzero"/></g></svg>