<svg xmlns="http://www.w3.org/2000/svg" width="30" height="30"><g fill="none" fill-rule="evenodd"><path d="M0 30h30V0H0z"/><path fill="#354657" d="M10.32 17.5c-.05-.29-.07-.59-.07-.89 0-1.68 1.05-2.92 2.16-4.24.35-.4.69-.81.99-1.21.68-.93 1.22-1.91 1.6-2.71.38.8.92 1.78 1.6 2.71.22.3.47.61.72.93 1.14 1.47 2.43 3.13 2.43 4.52 0 .3-.02.6-.07.89h-9.36zm8.18-6.33c-.24-.31-.48-.62-.7-.91-1.35-1.83-2.08-3.98-2.09-4-.1-.3-.39-.51-.71-.51a.753.753 0 0 0-.71.51c-.01.02-.73 2.17-2.1 4-.28.39-.6.76-.92 1.14-1.18 1.4-2.52 2.98-2.52 5.21 0 3.72 2.75 6.64 6.25 6.64s6.25-2.92 6.25-6.64c0-1.91-1.46-3.78-2.75-5.44z"/></g></svg>