<svg xmlns="http://www.w3.org/2000/svg" width="30" height="30"><g fill="none" fill-rule="evenodd"><path d="M0 30h30V0H0z"/><path fill="#FFF" d="M19.41 18.59c.79.78.79 2.04 0 2.82-.78.79-2.04.79-2.82 0a1.926 1.926 0 0 1-.51-1.93l-4.73-3.02c-.78.74-2 .72-2.76-.05-.79-.78-.79-2.04 0-2.82.76-.77 1.99-.79 2.77-.04l4.72-3.04a1.933 1.933 0 0 1 .51-1.92c.78-.79 2.04-.79 2.82 0 .79.78.79 2.04 0 2.82-.78.79-2.04.79-2.82 0l-.02-.02-4.68 3.01c.15.4.14.83 0 1.22l4.68 3c0-.01.01-.02.02-.03.78-.79 2.04-.79 2.82 0"/></g></svg>