<svg xmlns="http://www.w3.org/2000/svg" width="30" height="30"><path fill="#FFF" fill-rule="evenodd" d="M16.59 18.59c-.01.01-.02.021-.02.03l-4.68-3c.14-.389.15-.82 0-1.219l4.68-3.011.02.02c.78.79 2.04.79 2.82 0 .79-.78.79-2.04 0-2.82-.78-.79-2.04-.79-2.82 0-.53.521-.7 1.26-.51 1.92l-4.72 3.04c-.78-.75-2.01-.73-2.77.04-.79.78-.79 2.04 0 2.82.76.77 1.98.79 2.76.05l4.73 3.021c-.2.659-.02 1.409.51 1.929.78.79 2.04.79 2.82 0 .79-.78.79-2.04 0-2.82-.78-.79-2.04-.79-2.82 0M15 0C6.716 0 0 6.716 0 15c0 8.284 6.716 15 15 15 8.284 0 15-6.716 15-15 0-8.284-6.716-15-15-15m0 1.5c7.444 0 13.5 6.056 13.5 13.5S22.444 28.5 15 28.5 1.5 22.444 1.5 15 7.556 1.5 15 1.5"/></svg>