<svg xmlns="http://www.w3.org/2000/svg" width="30" height="30"><path fill="#BD8BCA" fill-rule="evenodd" d="M11.89 15.62l4.68 3c0-.01.01-.021.02-.03.78-.79 2.04-.79 2.82 0 .79.78.79 2.04 0 2.82-.78.79-2.04.79-2.82 0a1.93 1.93 0 0 1-.51-1.93l-4.73-3.02c-.78.74-2 .72-2.76-.05-.79-.78-.79-2.04 0-2.82.76-.77 1.99-.79 2.77-.04l4.72-3.04c-.19-.661-.02-1.4.51-1.92.78-.79 2.04-.79 2.82 0 .79.78.79 2.04 0 2.82-.78.79-2.04.79-2.82 0l-.02-.02-4.68 3.01c.15.4.14.83 0 1.22M15 0C6.716 0 0 6.716 0 15c0 8.284 6.716 15 15 15 8.284 0 15-6.716 15-15 0-8.284-6.716-15-15-15"/></svg>