<svg width="42" height="53" xmlns="http://www.w3.org/2000/svg" xmlns:xlink="http://www.w3.org/1999/xlink"><defs><path d="M24.198 49.64c.897-.688 1.705-1.633 2.36-2.825 1.382-2.511 2.111-6.019 2.111-10.083.058-2.093.472-3.53 1.171-4.053 1.044-.777 3.512-.108 5.69.481.644.173 1.282.34 1.907.488-.184 7.863-5.798 14.405-13.239 15.992M3.97 33.783c.004 0 .009.003.014 0 .782-.177 1.621-.444 2.479-.72 1.863-.602 3.972-1.285 4.929-.625.43.292 1.18 1.251 1.352 4.239 0 6.918 1.997 11.093 4.557 12.988C9.856 48.124 4.216 41.624 3.97 33.783M20.7 16.497c.069 0 .133.009.202.011-.053.334-.122.67-.172 1.003-.874 5.812-1.543 11.68-1.75 17.556-.049 1.419-.122 2.838-.046 4.26.052.972-.019 3.288 1.055 3.85.15.08.32.124.518.126 1.587.018 1.946-2.28 2.113-3.445.322-2.236.44-4.5.532-6.75.03-.725.057-1.448.094-2.172.237-4.69.531-9.377 1.021-14.048 6.307 1.373 11.286 6.306 12.742 12.58l-.45-.114c-3.043-.824-6.493-1.758-9.072.165-1.761 1.309-2.665 3.634-2.76 7.158 0 4.367-.883 6.89-1.623 8.24-.702 1.277-1.594 2.038-2.388 2.038-1.626 0-4.032-3.266-4.034-10.389-.207-3.696-1.21-6.11-3.061-7.38-2.551-1.753-5.776-.709-8.37.124-.308.099-.589.168-.888.262 1.684-7.473 8.363-13.075 16.337-13.075m4.025-3.545c.087-.618.172-1.235.287-1.849.552-2.958 1.392-6.143 2.827-8.804-1.992.202-3.015 2.426-3.861 3.96-1.105 1.994-1.827 4.136-2.344 6.341-.313-.011-.619-.046-.934-.046-11.433 0-20.7 9.267-20.7 20.7 0 11.434 9.267 20.7 20.7 20.7s20.7-9.266 20.7-20.7c0-10.053-7.17-18.427-16.675-20.302" id="a"/></defs><g transform="translate(.467 -1.6)" fill="none" fill-rule="evenodd"><mask id="b" fill="#fff"><use xlink:href="#a"/></mask><use fill="#354657" xlink:href="#a"/><g mask="url(#b)" fill="#364657"><path d="M-32.2-18.4h92v92h-92z"/></g></g></svg>