<svg width="30" height="30" xmlns="http://www.w3.org/2000/svg"><path d="M17.53 14.75h-4.48l-.581 3.5h4.481l.58-3.5zm4.68-.75c0 .41-.33.75-.75.75h-2.41l-.581 3.5h2.071c.41 0 .75.34.75.75s-.34.75-.75.75h-2.321l-.479 2.87a.75.75 0 0 1-.74.63c-.04 0-.08 0-.12-.01a.748.748 0 0 1-.621-.86l.441-2.63h-4.481l-.479 2.87a.75.75 0 0 1-.74.63c-.04 0-.08 0-.12-.01a.748.748 0 0 1-.621-.86l.441-2.63H8.54a.749.749 0 1 1 0-1.5h2.41l.58-3.5H9.46c-.41 0-.75-.34-.75-.75s.34-.75.75-.75h2.32l.479-2.87a.756.756 0 0 1 .861-.62c.41.07.69.45.62.86l-.44 2.63h4.48l.479-2.87a.753.753 0 0 1 .861-.62c.41.07.69.45.62.86l-.44 2.63h2.16c.42 0 .75.34.75.75zM0 6.75V28c0 1.1.9 2 2 2h26c1.1 0 2-.9 2-2V6.75H0zM30 2v3.25H0V2C0 .9.9 0 2 0h26c1.1 0 2 .9 2 2z" fill="#354657" fill-rule="evenodd"/></svg>