<svg xmlns="http://www.w3.org/2000/svg" width="30" height="30"><g fill="none" fill-rule="evenodd"><circle cx="15" cy="15" r="15" fill="#BD081C"/><path fill="#FFF" fill-rule="nonzero" d="M8 12.958c0-.779.138-1.513.413-2.201a5.632 5.632 0 0 1 1.139-1.801 7.705 7.705 0 0 1 1.673-1.331 7.759 7.759 0 0 1 2.036-.844 8.859 8.859 0 0 1 2.223-.281c1.159 0 2.237.24 3.235.72a6.08 6.08 0 0 1 2.432 2.093c.624.915.936 1.95.936 3.104 0 .692-.07 1.37-.21 2.034a8.12 8.12 0 0 1-.66 1.914 6.665 6.665 0 0 1-1.1 1.618 4.775 4.775 0 0 1-1.596 1.114 5.108 5.108 0 0 1-2.08.416c-.499 0-.994-.115-1.486-.346-.491-.23-.843-.548-1.056-.952-.073.281-.176.687-.308 1.217s-.219.873-.259 1.028c-.04.155-.115.41-.225.768-.11.357-.206.613-.287.768l-.352.676a7.638 7.638 0 0 1-.506.838c-.183.263-.41.575-.682.936l-.154.054-.1-.108c-.11-1.132-.165-1.81-.165-2.034 0-.663.08-1.408.237-2.234.158-.825.402-1.862.732-3.11.33-1.247.52-1.98.572-2.195-.235-.47-.352-1.079-.352-1.829 0-.598.19-1.16.572-1.687.382-.527.866-.79 1.453-.79.448 0 .796.146 1.046.438.249.292.374.662.374 1.11 0 .475-.162 1.164-.485 2.065-.322.902-.484 1.576-.484 2.023 0 .454.165.831.495 1.13.33.3.73.45 1.2.45.404 0 .778-.09 1.123-.271a2.52 2.52 0 0 0 .864-.736c.23-.31.436-.652.616-1.027.18-.375.319-.774.418-1.196.1-.421.172-.822.22-1.2.048-.379.072-.738.072-1.077 0-1.247-.402-2.219-1.205-2.915-.804-.696-1.851-1.044-3.142-1.044-1.468 0-2.693.467-3.676 1.401-.983.934-1.475 2.118-1.475 3.554 0 .317.046.623.138.919.091.296.19.53.297.703.106.173.205.337.297.492.092.155.137.265.137.33 0 .202-.055.465-.165.79-.11.324-.245.487-.407.487a2.04 2.04 0 0 1-.187-.033 2.258 2.258 0 0 1-.996-.606 3.148 3.148 0 0 1-.671-1.022 6.58 6.58 0 0 1-.358-1.168A5.72 5.72 0 0 1 8 12.958z"/></g></svg>