<svg width="30" height="30" xmlns="http://www.w3.org/2000/svg"><path d="M16.95 18.25h-4.48l.58-3.5h4.48l-.58 3.5zm4.51-5H19.3l.44-2.63a.748.748 0 0 0-.62-.86.752.752 0 0 0-.86.62l-.48 2.87H13.3l.44-2.63a.747.747 0 0 0-.62-.86.755.755 0 0 0-.86.62l-.48 2.87H9.46c-.41 0-.75.34-.75.75s.34.75.75.75h2.07l-.58 3.5H8.54a.749.749 0 1 0 0 1.5h2.16l-.44 2.63c-.07.41.21.79.62.86a.75.75 0 0 0 .86-.62l.48-2.87h4.48l-.44 2.63c-.07.41.21.79.62.86a.751.751 0 0 0 .86-.62l.48-2.87h2.32c.41 0 .75-.34.75-.75s-.34-.75-.75-.75h-2.07l.58-3.5h2.41a.749.749 0 1 0 0-1.5zm7.04-8h-27V2c0-.27.23-.5.5-.5h26c.269 0 .5.23.5.5v3.25zm0 22.75c0 .27-.231.5-.5.5H2c-.27 0-.5-.23-.5-.5V6.75h27V28zM28 0H2C.9 0 0 .9 0 2v26c0 1.1.9 2 2 2h26c1.099 0 2-.9 2-2V2c0-1.1-.901-2-2-2z" fill="#354657" fill-rule="evenodd"/></svg>