<svg xmlns="http://www.w3.org/2000/svg" width="30" height="30"><g fill="none" fill-rule="evenodd"><circle cx="15" cy="15" r="15" fill="red"/><path fill="#FFF" d="M23.63 10.972c.385 1.409.37 4.344.37 4.344s0 2.921-.37 4.33a2.255 2.255 0 0 1-1.587 1.586c-1.409.37-7.043.37-7.043.37s-5.62 0-7.043-.385a2.255 2.255 0 0 1-1.586-1.586C6 18.237 6 15.3 6 15.3s0-2.92.37-4.329a2.302 2.302 0 0 1 1.587-1.601C9.366 9 15 9 15 9s5.634 0 7.043.386a2.255 2.255 0 0 1 1.586 1.586zM13.205 18l4.685-2.699-4.685-2.698V18z"/></g></svg>