<svg xmlns="http://www.w3.org/2000/svg" width="30" height="30"><defs><linearGradient id="a" x1="100%" x2="0%" y1="0%" y2="100%"><stop offset="0%" stop-color="#4A32DE"/><stop offset="49.756%" stop-color="#D3155C"/><stop offset="100%" stop-color="#EF592F"/></linearGradient></defs><g fill="none" fill-rule="evenodd"><circle cx="15" cy="15" r="15" fill="url(#a)"/><path fill="#FFF" fill-rule="nonzero" d="M15 7.622c2.403 0 2.688.01 3.637.053 2.44.11 3.579 1.268 3.69 3.689.043.949.051 1.234.051 3.637s-.009 2.688-.051 3.636c-.112 2.42-1.248 3.579-3.69 3.69-.949.043-1.233.052-3.637.052-2.403 0-2.688-.009-3.637-.052-2.445-.112-3.578-1.275-3.689-3.69-.044-.949-.053-1.233-.053-3.637 0-2.403.01-2.687.053-3.637.112-2.42 1.248-3.578 3.69-3.689.949-.043 1.233-.052 3.636-.052zM15 6c-2.444 0-2.75.01-3.71.054-3.269.15-5.085 1.963-5.235 5.235C6.01 12.249 6 12.556 6 15s.01 2.751.054 3.711c.15 3.269 1.963 5.085 5.235 5.235.96.043 1.267.054 3.711.054s2.751-.01 3.711-.054c3.266-.15 5.087-1.963 5.234-5.235.044-.96.055-1.267.055-3.711s-.01-2.75-.054-3.71c-.147-3.266-1.963-5.085-5.234-5.235C17.75 6.01 17.444 6 15 6zm0 4.379a4.622 4.622 0 1 0 0 9.243 4.622 4.622 0 0 0 0-9.243zM15 18a3 3 0 1 1 0-6 3 3 0 0 1 0 6zm4.805-8.884a1.08 1.08 0 1 0-.001 2.161 1.08 1.08 0 0 0 0-2.16z"/></g></svg>