<svg width="30" height="30" xmlns="http://www.w3.org/2000/svg"><g fill="none" fill-rule="nonzero"><circle fill="#354657" cx="15" cy="15" r="15"/><path d="M8.44 5a.52.52 0 0 1 .529.473c.038.416.095.983.151 1.247.068.322.16.637.274.945.097.28.227.546.388.794.128.209.287.397.472.558.153.132.334.229.53.283.265.076.548.06.803-.047.283-.142.387-.407.557-.898.17-.58.463-1.115.86-1.569a3.837 3.837 0 0 1 1.39-.945 5.67 5.67 0 0 1 3.723-.189 7.239 7.239 0 0 1 3.477 2.278 11.094 11.094 0 0 1 2.779 5.953 10.395 10.395 0 0 1-1.494 7.22 5.925 5.925 0 0 1-2.362 2.032 5.67 5.67 0 0 1-2.315.491 5.273 5.273 0 0 1-3.554-1.474c-.86-.709-1.417-1.115-2.07-.945a1.19 1.19 0 0 0-.708.482.794.794 0 0 0-.085.265 2.4 2.4 0 0 0 .454 1.54c.271.426.588.822.945 1.181a.671.671 0 0 1-.19 1.059l-.944.567a1.011 1.011 0 0 1-1.153-.085 6.889 6.889 0 0 1-1.011-1.021 4.98 4.98 0 0 1-1.134-3.355 4.12 4.12 0 0 1 1.124-2.835 3.44 3.44 0 0 1 2.117-.87 2.41 2.41 0 0 0 1.578-.642 3.26 3.26 0 0 0 .577-2.608c-.2-.87-.72-1.632-1.456-2.136a3.033 3.033 0 0 0-1.814-.397 4.31 4.31 0 0 1-1.238-.104l-.17-.056a2.561 2.561 0 0 1-.492-.227 2.74 2.74 0 0 1-.463-.33 3.856 3.856 0 0 1-.434-.445 4.564 4.564 0 0 1-.407-.548 7.267 7.267 0 0 1-.368-.652 8.175 8.175 0 0 1-.34-.756c-.114-.293-.199-.586-.303-.87a10.52 10.52 0 0 1-.283-.945 20.17 20.17 0 0 1-.246-1.086l-.113-.558a.567.567 0 0 1 .529-.718zm-.492.775h-.793a.303.303 0 0 0-.293.378c.67 3.194 1.663 4.99 2.995 5.349.342.071.691.1 1.04.085h.227a3.44 3.44 0 0 1 2.003.51 4.328 4.328 0 0 1 1.796 2.637 3.94 3.94 0 0 1-.766 3.26 3.062 3.062 0 0 1-2.022.879c-.63.03-1.232.27-1.71.68a3.42 3.42 0 0 0-.946 2.363 4.64 4.64 0 0 0 1.654 3.496c.217.2.54.235.794.085l.453-.264a.17.17 0 0 0 .057-.255c-.453-.567-2.041-2.335-1.21-3.676a2.088 2.088 0 0 1 1.163-.842c1.058-.274 1.871.378 2.731 1.059a4.63 4.63 0 0 0 3.043 1.351 4.961 4.961 0 0 0 2.022-.425 5.226 5.226 0 0 0 2.05-1.786c1.796-2.476 1.513-5.736 1.38-6.672-.27-2.067-1.172-4-2.58-5.537a6.473 6.473 0 0 0-3.108-2.051 4.782 4.782 0 0 0-3.213.142 3.147 3.147 0 0 0-1.144.756 3.43 3.43 0 0 0-.7 1.313 2.041 2.041 0 0 1-.944 1.323 1.833 1.833 0 0 1-1.323.104C9.375 9.735 8.487 8.194 8.24 6.05a.293.293 0 0 0-.293-.274zm12.802 4.17c.053-.016.11.001.145.045a9.176 9.176 0 0 1 1.654 4.148c.085.596.406 3.667-1.191 5.878a4.101 4.101 0 0 1-1.625 1.446 3.846 3.846 0 0 1-1.579.321h-.085a3.78 3.78 0 0 1-2.258-1.115 4.848 4.848 0 0 0-.945-.604c-.501-.284-.955-.492-.945-.577.01-.085.17-.094.425-.246.214-.14.407-.309.577-.5.69-.747 1.512-2.883 1.039-4.196-.123-.388.35-.199.567-.463.406-.501.227-.85.5-1.106.483-.425 1.447.208 1.796-.142.35-.35.114-1.01.416-1.294.303-.284.718-.19.945-.331.227-.142.473-.454.473-1.144a.132.132 0 0 1 .091-.12zm-3.446.187a.378.378 0 1 1 0 .756.378.378 0 0 1 0-.756zm2.117-.501a.406.406 0 1 1 0 .812.406.406 0 0 1 0-.812zm-2.098-1.739a.548.548 0 1 1 0 1.096.548.548 0 0 1 0-1.096z" fill="#FFF"/></g></svg>