<svg xmlns="http://www.w3.org/2000/svg" width="30" height="30"><g fill="none" fill-rule="evenodd"><path d="M0 30h30V0H0z"/><path fill="#95c0f1" d="M18.061 11.54l.707-.707a.5.5 0 0 0-.707-.707l-.706.707a.5.5 0 0 0 .706.707m3.183 2.621h.707a.5.5 0 1 0 0-.999h-.707a.5.5 0 1 0 0 .999M17.02 9.01a.501.501 0 0 0 .633-.317l.353-1.06a.5.5 0 1 0-.95-.317l-.353 1.061a.5.5 0 0 0 .317.633m-2.09 4.174a.5.5 0 0 0 .678-.202l.395-.728c.5-.924.24-2.086-.604-2.717a1.114 1.114 0 0 1-.446-.781 1.114 1.114 0 0 1 .269-.859l1.553-1.79a.497.497 0 0 0-.05-.705.502.502 0 0 0-.706.05l-1.552 1.79a2.126 2.126 0 0 0 .338 3.098c.443.333.584.948.319 1.437l-.396.729a.502.502 0 0 0 .203.678m2.216 1.214a4.564 4.564 0 0 0 2.257-1.402 3.59 3.59 0 0 1 3.407-1.144l2.06.421a.498.498 0 1 0 .202-.978l-2.064-.423a4.591 4.591 0 0 0-4.358 1.466 3.57 3.57 0 0 1-1.764 1.095.498.498 0 0 0-.224.836.497.497 0 0 0 .483.129m-5.524-1.874L8.56 20.688l8.165-3.061a14.11 14.11 0 0 1-5.101-5.103M6.748 22.5a.751.751 0 0 1-.173-.793l4.244-11.313a.752.752 0 0 1 1.392-.033 12.634 12.634 0 0 0 6.676 6.676c.28.121.46.401.453.708a.747.747 0 0 1-.485.685L7.54 22.673a.752.752 0 0 1-.793-.173"/></g></svg>