<svg xmlns="http://www.w3.org/2000/svg" width="30" height="30"><g fill="none" fill-rule="evenodd"><path d="M0 30h30V0H0z"/><path fill="#FFF" d="M19.34 17.74c-.01.31-.2.58-.49.69L7.54 22.67a.73.73 0 0 1-.79-.17.73.73 0 0 1-.17-.79l4.24-11.32c.11-.28.38-.48.68-.48.31-.01.59.17.71.45a12.616 12.616 0 0 0 6.68 6.68c.28.12.46.4.45.7zm5.73-6.45l-2.06-.42a4.589 4.589 0 0 0-4.36 1.47c-.47.53-1.08.91-1.76 1.09a.504.504 0 0 0-.36.61c.03.09.07.17.13.23.13.12.31.18.49.13A4.648 4.648 0 0 0 19.4 13a3.593 3.593 0 0 1 3.41-1.15l2.06.42c.27.06.54-.12.59-.39a.499.499 0 0 0-.39-.59zm-8.3-5.18a.503.503 0 0 0-.04-.71.505.505 0 0 0-.71.05l-1.55 1.79c-.39.45-.58 1.04-.51 1.63.06.58.37 1.12.84 1.47.45.33.59.95.32 1.44l-.39.73a.485.485 0 0 0 .2.67c.24.13.55.04.68-.2l.39-.73c.5-.92.24-2.08-.6-2.71a1.166 1.166 0 0 1-.45-.78c-.03-.32.06-.62.27-.86l1.55-1.79zm.92.89a.49.49 0 0 0-.63.32l-.36 1.06c-.06.18-.01.38.12.51a.7.7 0 0 0 .2.12c.26.09.54-.05.63-.32l.36-1.06a.51.51 0 0 0-.32-.63zm4.26 6.16h-.71c-.27 0-.5.23-.5.5 0 .14.06.26.15.36.09.09.22.14.35.14h.71a.5.5 0 0 0 0-1zm-3.18-3.03a.493.493 0 0 0-.71 0l-.71.7c-.19.2-.19.51 0 .71.2.2.52.2.71 0l.71-.71c.19-.19.19-.51 0-.7z"/></g></svg>