<svg xmlns="http://www.w3.org/2000/svg" width="30" height="30"><path fill="#FFF" fill-rule="evenodd" d="M18.062 11.54l.707-.707a.5.5 0 0 0-.707-.707l-.707.707a.5.5 0 0 0 .707.707m3.182 2.621h.707a.5.5 0 1 0 0-.999h-.707a.5.5 0 0 0 0 .999M17.02 9.01a.5.5 0 0 0 .632-.317l.354-1.06a.5.5 0 1 0-.949-.317l-.353 1.061a.5.5 0 0 0 .316.633m-2.089 4.174a.5.5 0 0 0 .678-.202l.394-.728a2.134 2.134 0 0 0-.603-2.717 1.114 1.114 0 0 1-.447-.781 1.114 1.114 0 0 1 .269-.859l1.553-1.79a.497.497 0 0 0-.049-.705.502.502 0 0 0-.706.05l-1.553 1.79a2.126 2.126 0 0 0 .338 3.098c.443.333.584.948.319 1.437l-.395.729a.502.502 0 0 0 .202.678m2.216 1.214a4.56 4.56 0 0 0 2.256-1.402 3.593 3.593 0 0 1 3.408-1.144l2.061.421a.498.498 0 1 0 .2-.978l-2.061-.423a4.591 4.591 0 0 0-4.36 1.466 3.57 3.57 0 0 1-1.763 1.095.5.5 0 1 0 .259.965m-5.524-1.874L8.56 20.688l8.165-3.061a14.11 14.11 0 0 1-5.102-5.103M6.748 22.5a.751.751 0 0 1-.172-.793l4.243-11.313a.752.752 0 0 1 1.392-.033 12.634 12.634 0 0 0 6.676 6.676.752.752 0 0 1-.032 1.393L7.541 22.673a.752.752 0 0 1-.793-.173M15 0C6.716 0 0 6.716 0 15c0 8.284 6.716 15 15 15 8.285 0 15-6.716 15-15 0-8.284-6.715-15-15-15m0 1.5c7.444 0 13.5 6.057 13.5 13.5S22.444 28.5 15 28.5C7.557 28.5 1.5 22.443 1.5 15S7.557 1.5 15 1.5"/></svg>