<svg xmlns="http://www.w3.org/2000/svg" width="30" height="30"><g fill="none" fill-rule="evenodd"><path d="M0 30h30V0H0z"/><path fill="#BD8BCA" d="M26.38 17.52v-.74c0-1.4-3.19-2.3-5.38-2.3-.94 0-2.37.17-3.61.66-.21.08-.48.2-.73.35.27.09.53.19.79.29 1.09.44 2.06 1.04 2.66 1.84h6.14c.07 0 .13-.05.13-.1zm-7.13 1.98c0-.22-.05-.42-.15-.62-.21-.48-.67-.9-1.29-1.26s-1.38-.65-2.19-.87c-.4-.11-.81-.2-1.22-.27a13.43 13.43 0 0 0-2.4-.23c-1.25 0-3.18.24-4.84.91-.9.36-2.41 1.15-2.41 2.34v1c0 .14.11.25.25.25h14c.14 0 .25-.11.25-.25v-1zM21 13.23c2.16 0 6.62.86 6.62 3.55v.74c0 .75-.61 1.36-1.37 1.36h-5.57c.05.2.07.41.07.62v1c0 .96-.79 1.75-1.75 1.75H5c-.96 0-1.75-.79-1.75-1.75v-1c0-3.59 5.9-4.75 8.75-4.75.85 0 1.96.1 3.11.34 1.36-1.38 4.27-1.87 5.89-1.87v.01zm-9-5.98A2.752 2.752 0 0 0 9.25 10 2.752 2.752 0 0 0 12 12.75 2.752 2.752 0 0 0 14.75 10 2.752 2.752 0 0 0 12 7.25zm0 7A4.255 4.255 0 0 1 7.75 10 4.255 4.255 0 0 1 12 5.75 4.255 4.255 0 0 1 16.25 10 4.255 4.255 0 0 1 12 14.25zm9-6.309a1.878 1.878 0 0 0-1.875 1.875c0 1.034.842 1.875 1.875 1.875a1.878 1.878 0 0 0 1.875-1.875A1.878 1.878 0 0 0 21 7.941zm0 5a3.129 3.129 0 0 1-3.125-3.125A3.129 3.129 0 0 1 21 6.691a3.129 3.129 0 0 1 3.125 3.125A3.129 3.129 0 0 1 21 12.941z"/></g></svg>