<svg width="30" height="30" fill="none" xmlns="http://www.w3.org/2000/svg"><path fill-rule="evenodd" clip-rule="evenodd" d="M23.997 15.282l-4.19 2.159a1.89 1.89 0 0 1-.9.221h-5.92c-.63 0-1.26.21-1.77.59l-.84.63-2.08-2.861 2.74-2.05 6.73-1.12c.2-.029.33.05.4.101a.491.491 0 0 1-.24.859l-3.88.651c-.2.03-.36.179-.41.37-.04.189.03.399.19.519l.23.17c.4.311.91.471 1.41.471h3.69c.29 0 .58-.051.85-.15l3.74-1.401c.14-.05.28-.04.4.051.12.08.19.21.19.359 0 .181-.11.34-.34.431zm-15.2 5.68l-2.94-4.04.49-.361.72-.519 2.94 4.04-.73.529-.48.351zm15.92-7.29c-.39-.271-.88-.34-1.32-.17l-3.74 1.399c-.16.061-.33.091-.5.091h-2.27l1.21-.2a1.48 1.48 0 0 0 1.24-1.46c0-.441-.19-.861-.53-1.141a1.459 1.459 0 0 0-1.2-.33l-6.85 1.141a.526.526 0 0 0-.22.09l-2.83 2.12-.12-.17a.59.59 0 0 0-.33-.2.493.493 0 0 0-.37.089l-2.02 1.47a.509.509 0 0 0-.11.7l3.52 4.861a.6.6 0 0 0 .33.2h.08c.1 0 .21-.03.29-.09l2.03-1.471c.22-.17.27-.479.11-.7l-.15-.21.85-.639c.33-.25.75-.39 1.17-.39h5.92c.47 0 .94-.11 1.36-.33l4.14-2.141c.56-.21.93-.75.93-1.34 0-.479-.23-.92-.62-1.179zM14.44 6.83a3.53 3.53 0 0 1-.17-.22c-.34-.46-.52-1-.53-1.011a.176.176 0 0 0-.17-.12c-.08 0-.16.051-.18.12-.01.011-.19.551-.53 1.011-.07.09-.15.19-.23.279-.29.351-.63.75-.63 1.311 0 .93.69 1.66 1.57 1.66.87 0 1.56-.73 1.56-1.66 0-.48-.37-.95-.69-1.37zm2.99-1.32c-.05-.06-.1-.13-.15-.19-.28-.38-.43-.83-.44-.83a.147.147 0 0 0-.14-.11.15.15 0 0 0-.15.11s-.15.45-.44.83c-.06.08-.13.159-.19.239-.25.29-.53.62-.53 1.091 0 .77.58 1.38 1.31 1.38.73 0 1.3-.61 1.3-1.38 0-.4-.3-.79-.57-1.14zM15 0C6.716 0 0 6.716 0 15c0 8.284 6.716 15 15 15 8.284 0 15-6.716 15-15 0-8.284-6.716-15-15-15zm0 1.5c7.444 0 13.5 6.056 13.5 13.5 0 7.443-6.056 13.5-13.5 13.5S1.5 22.443 1.5 15C1.5 7.556 7.556 1.5 15 1.5z" fill="#354657"/></svg>