<svg width="30" height="30" fill="none" xmlns="http://www.w3.org/2000/svg"><path fill-rule="evenodd" clip-rule="evenodd" d="M18 6.65c0 .77-.57 1.38-1.3 1.38-.73 0-1.31-.61-1.31-1.38 0-.47.28-.8.53-1.09.03-.04.063-.08.095-.12.032-.04.065-.08.095-.12.29-.38.44-.83.44-.83.02-.07.08-.11.15-.11.06 0 .12.04.14.11a.35.35 0 0 1 .027.06c.056.136.195.475.413.77.025.03.05.062.075.095.025.032.05.065.075.094.27.351.57.741.57 1.141zM15.13 8.2c0 .93-.69 1.66-1.56 1.66-.88 0-1.57-.73-1.57-1.66 0-.549.326-.943.611-1.288l.019-.023c.08-.089.16-.189.23-.279.286-.387.459-.83.512-.968.01-.026.016-.041.018-.043.02-.069.1-.12.18-.12.08 0 .15.051.17.12.002.002.007.017.017.043.054.138.227.581.513.968.05.07.11.15.17.22l.03.039c.312.41.66.866.66 1.331zm4.677 9.241l4.19-2.159c.23-.09.34-.25.34-.43a.422.422 0 0 0-.19-.36.405.405 0 0 0-.4-.05l-3.74 1.4c-.27.1-.56.15-.85.15h-3.69c-.5 0-1.01-.16-1.41-.47l-.23-.17a.521.521 0 0 1-.19-.52c.05-.19.21-.34.41-.37l3.88-.65a.491.491 0 0 0 .24-.86.521.521 0 0 0-.4-.1l-6.73 1.12-2.74 2.05 2.08 2.86.84-.63c.51-.38 1.14-.59 1.77-.59h5.92c.31 0 .62-.07.9-.22zm-13.95-.519l2.94 4.04.48-.35.73-.53-2.94-4.04-.72.52-.49.36zm17.54-3.42c.44-.17.93-.1 1.32.17.39.26.62.7.62 1.18 0 .59-.37 1.13-.93 1.34l-4.14 2.14c-.42.22-.89.33-1.36.33h-5.92c-.42 0-.84.14-1.17.39l-.85.64.15.21c.16.22.11.53-.11.7l-2.03 1.47c-.08.06-.19.09-.29.09h-.08a.6.6 0 0 1-.33-.2l-3.52-4.86a.509.509 0 0 1 .11-.7l2.02-1.47c.11-.08.24-.11.37-.09.13.03.25.1.33.2l.12.17 2.83-2.12c.06-.04.14-.08.22-.09l6.85-1.14a1.46 1.46 0 0 1 1.2.33c.34.28.53.7.53 1.14 0 .72-.52 1.34-1.24 1.46l-1.21.2h2.27c.17 0 .34-.03.5-.09l3.74-1.4z" fill="#354657"/></svg>