<svg width="30" height="30" xmlns="http://www.w3.org/2000/svg"><g fill="none" fill-rule="evenodd"><circle cx="15" cy="15" r="15"/><path d="M8.2 13.38a5.62 5.62 0 0 1 2.8-.42 5 5 0 0 1 2.07 1.1c.531.407 1.1.762 1.7 1.06 2.08.96 3.72 2.5 3.51 3.3a.51.51 0 0 1-.24.37c-.33.165-1.072-.076-1.915-.404l-.395-.156-.77-.31a12.21 12.21 0 0 0-3.84-1.03.26.26 0 0 0-.29.24.27.27 0 0 0 .24.29 12.11 12.11 0 0 1 3.28.832l.39.168.78.32.666.253c.91.336 1.595.52 2.074.277a1 1 0 0 0 .52-.7 1.35 1.35 0 0 0-.05-.75l-.06-.14 2.419-1.423c1.835-1.064 3.92-2.153 4.481-1.657a.47.47 0 0 1 .17.4c-.05.9-2.29 2.34-5.05 4.07l-.624.384c-2.443 1.472-4.253 2.196-5.296 2.196a6.94 6.94 0 0 1-3.33-1 10.918 10.918 0 0 1-.997-.596l-.223-.164-.19-.12a8.34 8.34 0 0 0-2.962-.861l-.388-.029v-5c.47-.13.97-.29 1.52-.5zm-2.05-.35v6.99H4v-6.99h2.15zM16.94 7a.37.37 0 0 1 .34.21l.404.79c.22.435.486.979.69 1.44l.205.466c.3.716.593 1.72-.219 2.524a2 2 0 0 1-1.48.61 2.06 2.06 0 0 1-1.46-.61c-.7-.7-.72-1.67-.07-2.87l.236-.407A46.143 46.143 0 0 0 16.6 7.21a.38.38 0 0 1 .34-.21zm.01 1.22l-.91 1.7c-.63 1.17-.37 1.66-.09 1.95.52.5 1.25-3.16 1-3.65z" fill="#354657" fill-rule="nonzero"/></g></svg>