<svg width="30" height="30" fill="none" xmlns="http://www.w3.org/2000/svg"><path fill-rule="evenodd" clip-rule="evenodd" d="M30 15c0 8.284-6.716 15-15 15-8.284 0-15-6.716-15-15C0 6.716 6.716 0 15 0c8.284 0 15 6.716 15 15z" fill="#354657"/><path fill-rule="evenodd" clip-rule="evenodd" d="M24.337 14.852a.423.423 0 0 0-.19-.36.407.407 0 0 0-.4-.05l-3.74 1.4c-.27.1-.56.15-.85.15h-3.69c-.5 0-1.01-.16-1.41-.47l-.23-.17a.522.522 0 0 1-.19-.52c.05-.19.21-.34.41-.37l3.88-.65a.492.492 0 0 0 .24-.86.521.521 0 0 0-.4-.1l-6.73 1.12-2.74 2.05 2.08 2.86.84-.63a2.993 2.993 0 0 1 1.77-.59h5.92c.31 0 .62-.07.9-.22l4.19-2.16c.23-.09.34-.25.34-.43zm-15.06 5.76l.73-.53-2.941-4.04-.72.52-.49.36 2.94 4.04.48-.35zm16.06-5.76c0 .59-.37 1.13-.93 1.34l-4.14 2.14c-.42.22-.89.33-1.36.33h-5.92c-.421 0-.84.14-1.171.39l-.85.64.15.21c.16.22.11.53-.11.7l-2.03 1.47a.505.505 0 0 1-.29.09h-.08a.602.602 0 0 1-.33-.2l-3.52-4.86a.509.509 0 0 1 .11-.7l2.02-1.47c.11-.08.24-.11.37-.09a.6.6 0 0 1 .33.2l.12.17 2.83-2.12a.54.54 0 0 1 .22-.09l6.85-1.14c.43-.08.87.05 1.2.33.34.28.53.7.53 1.14 0 .72-.52 1.34-1.24 1.46l-1.21.2h2.27c.17 0 .34-.03.5-.09l3.74-1.4c.44-.17.93-.1 1.32.17.39.26.62.7.62 1.18zM17.43 5.51c-.05-.06-.1-.13-.15-.19-.28-.38-.43-.83-.44-.83a.147.147 0 0 0-.14-.11.15.15 0 0 0-.15.11s-.15.45-.44.83c-.06.08-.13.16-.19.24-.25.29-.53.62-.53 1.09 0 .77.58 1.38 1.31 1.38.73 0 1.3-.61 1.3-1.38 0-.4-.3-.79-.57-1.14zm-2.3 2.69c0 .93-.69 1.66-1.56 1.66-.88 0-1.57-.73-1.57-1.66 0-.56.34-.96.63-1.31.08-.09.16-.19.23-.28.34-.46.52-1 .53-1.01.02-.07.1-.12.18-.12.08 0 .15.05.17.12.01.01.19.55.53 1.01.05.07.11.15.17.22.32.42.69.89.69 1.37z" fill="#fff"/></svg>