<svg width="30" height="30" fill="none" xmlns="http://www.w3.org/2000/svg"><g clip-path="url(#clip0)" fill-rule="evenodd" clip-rule="evenodd" fill="#354657"><path d="M6 17.75a2.995 2.995 0 0 0-2.247-2.892l-.002-.108c0-6.203 5.047-11.25 11.25-11.25 5.625 0 8.767 4.153 8.798 4.195a.751.751 0 0 0 1.208-.889C24.863 6.61 21.406 2 15.001 2c-7.03 0-12.75 5.72-12.75 12.75l-.001.107A2.995 2.995 0 0 0 0 17.75c0 1.654 1.346 3 3 3s3-1.346 3-3zm-3 1.5c-.827 0-1.5-.673-1.5-1.5a1.501 1.501 0 0 1 3 0c0 .827-.673 1.5-1.5 1.5zM27 8.75c-1.654 0-3 1.346-3 3 0 1.393.96 2.557 2.248 2.893l.001.107C26.25 20.953 21.202 26 15 26c-5.625 0-8.767-4.153-8.798-4.195a.752.752 0 0 0-1.048-.157.748.748 0 0 0-.16 1.046C5.137 22.89 8.594 27.5 15 27.5c7.03 0 12.75-5.72 12.75-12.75v-.106A2.997 2.997 0 0 0 30 11.75c0-1.654-1.346-3-3-3zm0 4.5c-.827 0-1.5-.673-1.5-1.5s.673-1.5 1.5-1.5 1.5.673 1.5 1.5-.673 1.5-1.5 1.5z"/><path d="M15.435 20.869v1.785h-.884v-1.819a8.764 8.764 0 0 1-2.329-.476 7.508 7.508 0 0 1-2.023-1.122l.867-1.631c.125.135.306.283.544.441.238.159.516.311.833.459a7.75 7.75 0 0 0 1.037.391c.385.114.782.193 1.19.238v-3.519l-.22-.051-.205-.068a16.7 16.7 0 0 1-1.58-.493 4.08 4.08 0 0 1-1.106-.646 2.617 2.617 0 0 1-.68-.867c-.147-.34-.22-.748-.22-1.224 0-.555.096-1.048.288-1.479.192-.431.464-.799.816-1.105.351-.317.76-.561 1.224-.731a5.634 5.634 0 0 1 1.564-.34V6.895h.884v1.717a6.514 6.514 0 0 1 2.04.442 7.361 7.361 0 0 1 1.65.901l-.868 1.564a2.128 2.128 0 0 0-.459-.357 3.84 3.84 0 0 0-.68-.374 4.636 4.636 0 0 0-.867-.306 4.425 4.425 0 0 0-.953-.17v3.519l.323.068a14.42 14.42 0 0 1 1.65.493c.498.181.917.402 1.257.663.34.26.6.583.782.969.192.374.29.833.29 1.377 0 .601-.108 1.116-.324 1.547a2.973 2.973 0 0 1-.9 1.054 4.019 4.019 0 0 1-1.326.646 6.65 6.65 0 0 1-1.615.221zm1.53-4.386c-.398-.26-.953-.493-1.667-.697v3.366c.726-.012 1.281-.147 1.667-.408.397-.261.595-.641.595-1.139 0-.499-.199-.873-.595-1.122zm-4.318-4.522c0 .476.164.833.493 1.071.34.238.85.447 1.53.629v-3.349c-.692.034-1.2.198-1.53.493-.328.283-.493.669-.493 1.156z"/></g><defs><clipPath id="clip0"><path fill="#fff" d="M0 0h30v30H0z"/></clipPath></defs></svg>