<svg width="56" height="41" xmlns="http://www.w3.org/2000/svg" xmlns:xlink="http://www.w3.org/1999/xlink"><defs><path d="M54.856 43.627L50.6 40.79v14.985h-3.45V24.558h3.45v12.085l3.685 2.457c.834-3.904 5.352-4.766 10.345-3.552l.24.078c9.682 3.925 10.283 15.39 4.933 22.91-3.586 5.04-8.725 6.87-12.364 4.509-3.544-2.298-5.004-6.56-3.162-11.04.971-2.362 1.226-4.97.752-7.857-.06-.18-.119-.353-.173-.521zm-17.105-4.55l2.499-1.667v-5.785h3.45v31.05h-3.45V41.557l-3.054 2.036c-.058.178-.12.363-.185.555-.474 2.887-.219 5.495.752 7.857 1.842 4.48.382 8.742-3.161 11.04-3.64 2.36-8.779.53-12.365-4.51-5.35-7.518-4.749-18.984 4.933-22.91l.24-.077c4.983-1.212 9.493-.355 10.34 3.528zM25.048 56.534c2.623 3.687 5.814 4.823 7.676 3.616 2.183-1.416 3.043-3.928 1.848-6.834-1.24-3.018-1.55-6.325-.94-9.884l.069-.268c.494-1.441.742-2.407.742-2.69 0-1.818-2.507-2.448-6.093-1.604-7.07 2.959-7.507 11.755-3.302 17.664zm32.55-16.06c0 .283.247 1.249.741 2.69l.069.268c.61 3.56.3 6.866-.94 9.884-1.195 2.906-.335 5.418 1.848 6.834 1.862 1.207 5.053.071 7.676-3.616 4.205-5.909 3.768-14.705-3.302-17.664-3.586-.844-6.093-.214-6.093 1.603z" id="a"/></defs><use fill="#354657" fill-rule="nonzero" xlink:href="#a" transform="translate(-18 -24)"/></svg>