<svg xmlns="http://www.w3.org/2000/svg" width="30" height="30"><g fill="none" fill-rule="evenodd"><path d="M0 0h30v30H0z"/><path fill="#354657" fill-rule="nonzero" d="M15.941 1.485c.35.187.637.474.824.824l12.666 23.75A2 2 0 0 1 27.667 29H2.333a2 2 0 0 1-1.764-2.941l12.666-23.75a2 2 0 0 1 2.706-.824zM14.608 2.94l-.05.076-12.666 23.75a.5.5 0 0 0 .351.727l.09.008h25.334a.5.5 0 0 0 .476-.652l-.035-.083L15.44 3.015a.48.48 0 0 0-.124-.152l-.082-.054a.5.5 0 0 0-.627.13zM15 21.433a.93.93 0 0 1 .859 1.297 1.082 1.082 0 0 1-.196.31.975.975 0 0 1-1.326 0 1.127 1.127 0 0 1-.196-.31.932.932 0 0 1 .196-1.024.93.93 0 0 1 .663-.273zM15 10.7c.48 0 .873.36.927.824l.006.11V19.1a.932.932 0 0 1-1.86.109l-.006-.109v-7.467c0-.516.417-.933.933-.933z"/></g></svg>