<svg xmlns="http://www.w3.org/2000/svg" width="30" height="30"><g fill="none" fill-rule="evenodd"><path d="M0 0h30v30H0z"/><path fill="#354657" fill-rule="nonzero" d="M15.941 1.485c.35.187.637.474.824.824l12.666 23.75A2 2 0 0 1 27.667 29H2.333a2 2 0 0 1-1.764-2.941l12.666-23.75a2 2 0 0 1 2.706-.824zM15 21.433a.93.93 0 0 0-.859 1.297c.048.113.112.215.196.31a.975.975 0 0 0 1.326 0c.085-.095.149-.197.196-.31a.936.936 0 0 0-.196-1.024.93.93 0 0 0-.663-.273zM15 10.7a.932.932 0 0 0-.933.933V19.1l.006.109a.932.932 0 0 0 1.86-.109v-7.467l-.006-.109A.933.933 0 0 0 15 10.7z"/></g></svg>