<svg width="108" height="20" viewBox="0 0 108 20" fill="none" xmlns="http://www.w3.org/2000/svg">
<path d="M4.84814 14.7568C7.104 14.7568 8.47363 13.6143 8.47363 11.7539C8.47363 10.355 7.47021 9.32227 6.03467 9.18311V9.12451C7.11865 8.94873 7.96094 7.95996 7.96094 6.82471C7.96094 5.2207 6.72314 4.18799 4.8042 4.18799H0.416992V14.7568H4.84814ZM2.30664 5.66016H4.32812C5.45605 5.66016 6.09326 6.18018 6.09326 7.10303C6.09326 8.08447 5.35352 8.64111 4.03516 8.64111H2.30664V5.66016ZM2.30664 13.2847V9.98145H4.33545C5.78564 9.98145 6.54736 10.5454 6.54736 11.6221C6.54736 12.7061 5.80762 13.2847 4.41602 13.2847H2.30664Z" fill="white"/>
<path d="M16.5229 6.99316H14.6992V11.4829C14.6992 12.6108 14.0474 13.3579 12.9927 13.3579C11.9673 13.3579 11.4253 12.7573 11.4253 11.644V6.99316H9.60156V12.0103C9.60156 13.8047 10.6709 14.896 12.3555 14.896C13.5347 14.896 14.3184 14.354 14.7285 13.4092H14.7651V14.7568H16.5229V6.99316Z" fill="white"/>
<path d="M18.8887 17.6426C20.6611 17.6426 21.5181 16.9907 22.1772 15.0645L24.9897 6.99316H23.0708L21.2397 13.2041H21.2031L19.3794 6.99316H17.3872L20.1484 14.7642C20.1558 14.7861 20.0386 15.1743 20.0386 15.1963C19.8408 15.9141 19.4526 16.1997 18.6982 16.1997C18.5884 16.1997 18.2661 16.1924 18.1709 16.1704V17.6133C18.2661 17.6353 18.7788 17.6426 18.8887 17.6426Z" fill="white"/>
<path d="M39.3892 6.99316H37.5874L36.2764 12.9551H36.2324L34.7163 6.99316H32.9658L31.4497 12.9551H31.4131L30.1021 6.99316H28.271L30.373 14.7568H32.2773L33.8008 9.08057H33.8374L35.3682 14.7568H37.2871L39.3892 6.99316Z" fill="white"/>
<path d="M41.2495 5.82129C41.8062 5.82129 42.2456 5.37451 42.2456 4.83252C42.2456 4.2832 41.8062 3.84375 41.2495 3.84375C40.6929 3.84375 40.2461 4.2832 40.2461 4.83252C40.2461 5.37451 40.6929 5.82129 41.2495 5.82129ZM40.3413 14.7568H42.165V6.99316H40.3413V14.7568Z" fill="white"/>
<path d="M44.2012 5.17676V6.99316H43.0879V8.39941H44.2012V12.6914C44.2012 14.2002 44.8604 14.7935 46.5376 14.7935C46.9258 14.7935 47.2847 14.7642 47.4824 14.7202V13.3286C47.3652 13.3506 47.1309 13.3652 46.9624 13.3652C46.3179 13.3652 46.0249 13.0723 46.0249 12.4351V8.39941H47.4897V6.99316H46.0249V5.17676H44.2012Z" fill="white"/>
<path d="M48.7861 14.7568H50.6099V10.2964C50.6099 9.15381 51.2764 8.39209 52.375 8.39209C53.4297 8.39209 53.9717 9.04395 53.9717 10.1279V14.7568H55.7954V9.75439C55.7954 7.97461 54.792 6.84668 53.0781 6.84668C51.8989 6.84668 51.042 7.38135 50.6245 8.32617H50.5879V4.18799H48.7861V14.7568Z" fill="white"/>
<path d="M70.6937 2.51638C71.2353 1.83898 71.6028 0.929442 71.5059 0C70.7131 0.039421 69.7457 0.523032 69.1856 1.20096C68.6826 1.7815 68.2375 2.72912 68.3536 3.6196C69.2435 3.69679 70.1326 3.17476 70.6937 2.51638Z" fill="white"/>
<path d="M71.4959 3.79349C70.2035 3.7165 69.1046 4.527 68.4874 4.527C67.8699 4.527 66.9247 3.83228 65.9025 3.85101C64.572 3.87055 63.3375 4.62282 62.6623 5.8193C61.2736 8.21283 62.2958 11.7633 63.6463 13.7127C64.3021 14.6771 65.0924 15.739 66.1339 15.7009C67.1178 15.6623 67.5035 15.0637 68.6996 15.0637C69.8947 15.0637 70.2422 15.7009 71.2838 15.6816C72.3639 15.6623 73.0392 14.7167 73.695 13.7513C74.4473 12.6519 74.7553 11.5903 74.7747 11.5321C74.7553 11.5128 72.6918 10.7212 72.6727 8.34752C72.6532 6.36003 74.2928 5.41467 74.3699 5.35604C73.4441 3.98669 71.9974 3.83228 71.4959 3.79349Z" fill="white"/>
<path d="M82.7495 1.10376C85.5585 1.10376 87.5146 3.04007 87.5146 5.85918C87.5146 8.68837 85.5183 10.6347 82.679 10.6347H79.5689V15.5808H77.3218V1.10376H82.7495V1.10376ZM79.5689 8.74855H82.1472C84.1037 8.74855 85.2172 7.69525 85.2172 5.86925C85.2172 4.04344 84.1037 3.00001 82.1573 3.00001H79.5689V8.74855Z" fill="white"/>
<path d="M88.1016 12.5809C88.1016 10.7348 89.5162 9.60118 92.0245 9.46069L94.9137 9.2902V8.47764C94.9137 7.30378 94.121 6.60151 92.797 6.60151C91.5426 6.60151 90.7601 7.20334 90.5696 8.14653H88.523C88.6434 6.24022 90.2685 4.83569 92.8771 4.83569C95.4354 4.83569 97.0706 6.1901 97.0706 8.30696V15.5806H94.9938V13.8449H94.9438C94.332 15.0188 92.9975 15.7611 91.6131 15.7611C89.5463 15.7611 88.1016 14.477 88.1016 12.5809ZM94.9137 11.6279V10.7952L92.3151 10.9556C91.0209 11.046 90.2887 11.6178 90.2887 12.5207C90.2887 13.4436 91.0511 14.0456 92.2149 14.0456C93.7297 14.0456 94.9137 13.0022 94.9137 11.6279Z" fill="white"/>
<path d="M99.0312 19.4633V17.7076C99.1915 17.7476 99.5526 17.7476 99.7333 17.7476C100.736 17.7476 101.278 17.3263 101.609 16.2429C101.609 16.2227 101.8 15.6008 101.8 15.5907L97.9878 5.02637H100.335L103.004 13.6143H103.044L105.713 5.02637H108L104.047 16.1324C103.145 18.6908 102.101 19.5134 99.914 19.5134C99.7333 19.5134 99.1915 19.4933 99.0312 19.4633Z" fill="white"/>
</svg>
