<svg width="46" height="20" viewBox="0 0 46 20" fill="none" xmlns="http://www.w3.org/2000/svg">
<path d="M8.69353 2.51638C9.23511 1.83898 9.60262 0.929442 9.50569 0C8.7129 0.039421 7.74545 0.523032 7.18534 1.20096C6.68243 1.7815 6.23731 2.72912 6.35335 3.6196C7.2433 3.69679 8.13243 3.17476 8.69353 2.51638Z" fill="white"/>
<path d="M9.4959 3.79349C8.20348 3.7165 7.10461 4.527 6.48741 4.527C5.86987 4.527 4.92474 3.83228 3.90251 3.85101C2.572 3.87055 1.33745 4.62282 0.662277 5.8193C-0.726441 8.21283 0.295795 11.7633 1.64625 13.7127C2.30206 14.6771 3.09243 15.739 4.13385 15.7009C5.11783 15.6623 5.5035 15.0637 6.69956 15.0637C7.89475 15.0637 8.24216 15.7009 9.28376 15.6816C10.3639 15.6623 11.0392 14.7167 11.695 13.7513C12.4473 12.6519 12.7553 11.5903 12.7747 11.5321C12.7553 11.5128 10.6918 10.7212 10.6727 8.34752C10.6532 6.36003 12.2928 5.41467 12.3699 5.35604C11.4441 3.98669 9.99743 3.83228 9.4959 3.79349Z" fill="white"/>
<path d="M20.7493 1.10376C23.5584 1.10376 25.5144 3.04007 25.5144 5.85918C25.5144 8.68837 23.5182 10.6347 20.6789 10.6347H17.5687V15.5808H15.3217V1.10376H20.7493V1.10376ZM17.5687 8.74855H20.1471C22.1036 8.74855 23.217 7.69525 23.217 5.86925C23.217 4.04344 22.1036 3.00001 20.1572 3.00001H17.5687V8.74855Z" fill="white"/>
<path d="M26.1016 12.581C26.1016 10.7349 27.5162 9.6013 30.0245 9.46081L32.9137 9.29033V8.47776C32.9137 7.3039 32.1211 6.60164 30.797 6.60164C29.5427 6.60164 28.7601 7.20347 28.5697 8.14665H26.5231C26.6434 6.24034 28.2686 4.83582 30.8772 4.83582C33.4354 4.83582 35.0706 6.19022 35.0706 8.30708V15.5807H32.9938V13.8451H32.9439C32.332 15.0189 30.9975 15.7613 29.6131 15.7613C27.5464 15.7613 26.1016 14.4771 26.1016 12.581ZM32.9137 11.628V10.7953L30.3152 10.9557C29.021 11.0461 28.2887 11.6179 28.2887 12.5209C28.2887 13.4437 29.0512 14.0457 30.215 14.0457C31.7298 14.0457 32.9137 13.0023 32.9137 11.628Z" fill="white"/>
<path d="M37.0309 19.4634V17.7077C37.1911 17.7477 37.5522 17.7477 37.733 17.7477C38.7362 17.7477 39.278 17.3265 39.6089 16.243C39.6089 16.2228 39.7997 15.6009 39.7997 15.5908L35.9875 5.02649H38.3348L41.0038 13.6145H41.0436L43.7126 5.02649H45.9999L42.0468 16.1325C41.1443 18.6909 40.1008 19.5136 37.9137 19.5136C37.733 19.5136 37.1912 19.4934 37.0309 19.4634Z" fill="white"/>
</svg>
