<?xml version="1.0" encoding="UTF-8"?>
<svg width="30px" height="30px" viewBox="0 0 30 30" version="1.1" xmlns="http://www.w3.org/2000/svg" xmlns:xlink="http://www.w3.org/1999/xlink">
    <!-- Generator: Sketch 53.2 (72643) - https://sketchapp.com -->
    <title>Icons / Navigation / Arrows / Right / Circle / Outline / White Copy</title>
    <desc>Created with Sketch.</desc>
    <g id="Product-Detail" stroke="none" stroke-width="1" fill="none" fill-rule="evenodd">
        <g id="Product-Detail-/-Lavender" transform="translate(-760.000000, -6842.000000)" fill="#354657">
            <g id="Group-53" transform="translate(0.000000, 6250.000000)">
                <g id="Group-52" transform="translate(60.000000, 80.000000)">
                    <g id="Group-38" transform="translate(670.000000, 127.000000)">
                        <g id="Group-33">
                            <g id="Group-19" transform="translate(30.000000, 298.000000)">
                                <g id="Icons-/-Navigation-/-Arrows-/-Left-/-Circle-/-Outline-/-Body-Blue" transform="translate(0.000000, 87.000000)">
                                    <path d="M15,0 C23.284,0 30,6.716 30,15 C30,23.284 23.284,30 15,30 C6.716,30 0,23.284 0,15 C0,6.716 6.716,0 15,0 L15,0 Z M15,1.5 C7.556,1.5 1.5,7.556 1.5,15 C1.5,22.444 7.556,28.5 15,28.5 C22.444,28.5 28.5,22.444 28.5,15 C28.5,7.556 22.444,1.5 15,1.5 L15,1.5 Z M18.21,21.29 C18.6,21.68 18.6,22.32 18.21,22.71 C18.01,22.9 17.76,23 17.5,23 C17.24,23 16.99,22.9 16.79,22.71 L9.79,15.71 C9.4,15.32 9.4,14.68 9.79,14.29 L16.79,7.29 C17.18,6.9 17.82,6.9 18.21,7.29 C18.6,7.68 18.6,8.32 18.21,8.71 L11.92,15 L18.21,21.29 Z" id="Icons-/-Arrows-/-Left-/-Circle-/-Outline-/-Body-Blue"></path>
                                </g>
                            </g>
                        </g>
                    </g>
                </g>
            </g>
        </g>
    </g>
</svg>