<?xml version="1.0" encoding="UTF-8"?>
<svg width="190px" height="86px" viewBox="0 0 190 86" version="1.1" xmlns="http://www.w3.org/2000/svg" xmlns:xlink="http://www.w3.org/1999/xlink">
    <!-- Generator: Sketch 55.2 (78181) - https://sketchapp.com -->
    <title>bottle-placeholder</title>
    <desc>Created with Sketch.</desc>
    <g id="Page-1" stroke="none" stroke-width="1" fill="none" fill-rule="evenodd">
        <g id="bottle-placeholder" transform="translate(100.105263, 43.000000) rotate(-270.000000) translate(-100.105263, -43.000000) translate(58.000000, -57.000000)" fill="#364657">
            <path d="M74.5473684,56.4736842 C74.9157895,56.6421053 75.1368421,56.8736842 75.1578947,57.2631579 L75.7052632,66.0736842 C75.7578947,67.0210526 75.6105263,67.1789474 74.5789474,67.3684211 C73.1578947,67.6315789 71.7368421,67.8842105 70.3052632,68.1263158 C69.6947368,68.2315789 69.5684211,68.3368421 69.6210526,68.8736842 C69.6684268,69.3340599 69.7600789,69.7887954 69.8947368,70.2315789 C70.0842105,70.8631579 70.2631579,71.4947368 70.5684211,72.0736842 C70.8421053,72.6 71.1789474,73.1263158 71.8,73.4421053 C72.2631579,73.6842105 72.6631579,74.0210526 73.0947368,74.3052632 C73.2352096,74.3819376 73.3886801,74.4319047 73.5473684,74.4526316 C75.5263158,74.8 77.4736842,75.2421053 79.3052632,76.0105263 C81.5894737,76.9789474 83.2,78.4947368 83.8421053,80.7157895 C84.0836379,81.5362624 84.2076781,82.3868242 84.2105263,83.2421053 C84.2105263,89.6421053 84.1894737,96.0315789 84.1368421,102.421053 C84.0526316,111.294737 83.9473684,120.178947 83.8210526,129.063158 C83.7157895,137.463158 83.5473684,145.873684 83.4526316,154.273684 C83.3684211,161.326316 83.3789474,168.357895 83.2842105,175.4 C83.2315789,180.042105 83.0736842,184.694737 82.9473684,189.336842 C82.9263158,189.968421 82.9473684,190.6 82.4210526,191.136842 C82.2,191.347368 82.2315789,191.778947 82.1473684,192.115789 C81.8421053,193.326316 80.9894737,194.221053 79.9894737,195.010526 C79.3769333,195.5249 78.737431,196.006284 78.0736842,196.452632 C77.4934093,196.851279 76.8680105,197.179878 76.2105263,197.431579 C75.0376816,197.896942 73.8039964,198.191183 72.5473684,198.305263 C71.9368421,198.336842 71.3368421,198.515789 70.7263158,198.6 C69.8631579,198.705263 69,198.8 68.1263158,198.873684 L60.4947368,199.505263 L53.5263158,199.810526 C52.8105263,199.842105 52.1052632,199.831579 51.3894737,199.842105 C47.0105263,199.905263 42.6210526,200.031579 38.2315789,199.989474 C33.9263158,199.957895 29.6210526,199.8 25.3157895,199.631579 C22.3684211,199.526316 19.4210526,199.315789 16.4842105,199.105263 C15.4736842,199.021053 14.4631579,198.8 13.4526316,198.652632 L12.2105263,198.473684 C11.6842105,198.389474 11.1473684,198.336842 10.6210526,198.242105 C9.45263158,198.031579 8.27368421,197.831579 7.12631579,197.547368 C6.32631579,197.357895 5.57894737,197.021053 4.81052632,196.747368 C3.96842105,196.052632 3.41052632,195.484211 2.76842105,195.031579 C1.67213585,194.311777 0.814727836,193.282155 0.305263158,192.073684 C0.03839214,191.424399 -0.0418143691,190.713477 0.0736842105,190.021053 C0.189473684,189.368421 0.157894737,188.694737 0.147368421,188.021053 C0.105263158,185.4 -0.0105263158,182.768421 -0.000673129374,180.147368 C0.0315789474,174.431579 0.126315789,168.726316 0.189473684,163.021053 C0.294736842,152.631579 0.357894737,142.231579 0.484210526,131.842105 C0.642105263,118.042105 0.831578947,104.242105 1.03157895,90.4421053 C1.06315789,87.6526316 1.13684211,84.8631579 1.27368421,82.0736842 C1.37894737,79.9684211 2.33684211,78.1473684 4.11578947,76.7789474 C5.31202276,75.9201865 6.68034055,75.3311993 8.12631579,75.0526316 C9.47368421,74.7473684 10.8315789,74.4631579 12.1684211,74.1473684 C12.7473684,74.0105263 13.3052632,73.8315789 13.8526316,73.6315789 C14.0222947,73.5604617 14.1631585,73.4344256 14.2526316,73.2736842 C14.8,72.2842105 15.3473684,71.3052632 15.8315789,70.2842105 C16.0421053,69.8 16.1052632,69.2526316 16.2526316,68.6947368 C15.5263158,68.5684211 14.9263158,68.5052632 14.3578947,68.3578947 C13.7789474,68.2105263 13.2421053,67.9578947 12.6736842,67.7894737 C12.3052632,67.6842105 11.9052632,67.6842105 11.5263158,67.5894737 C11.1854207,67.5095837 10.8563505,67.38574 10.5473684,67.2210526 C10.3926144,65.5591496 10.3328681,63.8897667 10.3684211,62.2210526 C10.3894737,60.8105263 10.4421053,59.4105263 10.4210526,58.0105263 C10.4210526,57.2736842 10.6631579,56.7263158 11.4105263,56.3684211 C11.7473684,56.2105263 11.6526316,55.9894737 11.2736842,55.7789474 C11.0181103,55.6383743 10.7899137,55.4529645 10.6,55.2315789 C10.5157895,53.5684211 10.5789474,52.3894737 10.6,51.2315789 C10.6,50.6 10.7578947,50.0631579 11.3684211,49.7263158 C12.1052632,49.3052632 12.2526316,48.7157895 12.2421053,47.9894737 C12.2,42.8315789 12.0947368,37.6842105 12.1789474,32.5368421 C12.2315789,29.0631579 12.5473684,25.6 12.7578947,22.1368421 C12.8105263,21.3473684 12.8947368,20.5578947 12.9684211,19.7684211 C13.0105263,19.3157895 13.2526316,19.0526316 13.7263158,18.8210526 C14.0631579,18.6526316 14.3368421,18.2105263 14.4210526,17.8526316 C14.5894737,17.1157895 14.6631579,16.3789474 14.6736842,15.6210526 C14.6947368,14.6947368 15.2736842,14.1052632 16.0421053,13.6526316 C17.8105263,12.6210526 19.8,12.1789474 21.8315789,11.8631579 C25.6885641,11.2635002 29.5747842,10.8699589 33.4736842,10.6842105 C38.1578947,10.4315789 42.8421053,10.5052632 47.5368421,10.6210526 C51.1263158,10.7052632 54.7368421,10.8736842 58.3052632,11.2210526 C61.4315789,11.5157895 64.5473684,11.9368421 67.5473684,12.8421053 C68.6,13.1578947 69.5789474,13.6 70.4105263,14.2842105 C70.8736842,14.6736842 70.8526316,15.1578947 70.8947368,15.6421053 C70.9684211,16.3789474 70.9894737,17.1157895 71.0631579,17.8421053 C71.0842105,18.0210526 71.2210526,18.2 71.3263158,18.3684211 C71.497543,18.618788 71.6801921,18.8611492 71.8736842,19.0947368 C72.5473684,19.4 72.6947368,19.6631579 72.7157895,20.0210526 C72.8,21.8105263 72.9263158,23.6105263 72.9894737,25.4105263 C73.2631579,32.9473684 73.3263158,40.4736842 73.2526316,48.0105263 C73.2526316,48.3263158 73.4,48.7473684 73.6421053,48.9578947 C74.5875134,49.7280891 75.078762,50.9245172 74.9473684,52.1368421 C74.8947368,52.7473684 74.9578947,53.3578947 74.9684211,53.9684211 C74.9684211,54.8736842 74.6736842,55.2315789 73.7368421,55.5473684 C73.6,55.5894737 73.4631579,55.6631579 73.3263158,55.7263158 C73.7473684,56.0631579 74.1473684,56.2736842 74.5578947,56.4631579 L74.5473684,56.4736842 Z" id="Path"></path>
        </g>
    </g>
</svg>