<svg width="55" height="22" viewBox="0 0 55 22" fill="none" xmlns="http://www.w3.org/2000/svg">
<path d="M25.838 10.7524V17.2087H23.8208V1.27144H29.1707C30.4612 1.24602 31.7141 1.74168 32.6287 2.65673C34.4579 4.38517 34.5707 7.29556 32.8542 9.1638C32.779 9.24006 32.7039 9.31631 32.6287 9.39256C31.689 10.2949 30.5364 10.7524 29.1707 10.7524H25.838ZM25.838 3.22864V8.79524H29.2208C29.9725 8.82065 30.6992 8.51564 31.2129 7.96914C32.2654 6.86345 32.2403 5.08417 31.1503 4.01661C30.6366 3.50824 29.9475 3.22864 29.2208 3.22864H25.838Z" fill="white"/>
<path d="M38.7303 5.94836C40.2213 5.94836 41.399 6.35506 42.2635 7.15573C43.128 7.9564 43.554 9.07481 43.554 10.4855V17.2086H41.6245V15.6963H41.5368C40.6974 16.9417 39.5948 17.5645 38.2041 17.5645C37.0264 17.5645 36.0241 17.2086 35.2347 16.4969C34.4579 15.8361 34.0194 14.8575 34.0445 13.828C34.0445 12.6969 34.4705 11.8073 35.3099 11.1337C36.1493 10.4601 37.277 10.1297 38.6802 10.1297C39.883 10.1297 40.8603 10.3584 41.6371 10.7905V10.3203C41.6371 9.6213 41.3364 8.96042 40.8101 8.5029C40.2714 8.01995 39.5823 7.75306 38.8681 7.75306C37.7405 7.75306 36.851 8.23601 36.1995 9.2019L34.4203 8.07079C35.3726 6.66007 36.8134 5.94836 38.7303 5.94836ZM36.1243 13.8661C36.1243 14.3999 36.3749 14.8956 36.7883 15.2006C37.2394 15.5565 37.7907 15.7471 38.3545 15.7344C39.2064 15.7344 40.0208 15.3912 40.6222 14.7812C41.2862 14.1457 41.6245 13.3959 41.6245 12.5317C40.9981 12.0233 40.121 11.7691 38.9934 11.7818C38.1791 11.7818 37.49 11.9852 36.9387 12.3792C36.3999 12.7732 36.1243 13.2688 36.1243 13.8661Z" fill="white"/>
<path fill-rule="evenodd" clip-rule="evenodd" d="M54.6295 6.3042L47.8888 22H45.809L48.3148 16.5096L43.8921 6.3042H46.0847L49.2796 14.133H49.3172L52.4369 6.3042H54.6295Z" fill="white"/>
<path fill-rule="evenodd" clip-rule="evenodd" d="M17.6815 9.35455C17.6815 8.73181 17.6314 8.10906 17.5311 7.49902H9.02393V11.0194H13.8977C13.6972 12.1506 13.0457 13.1673 12.0935 13.8027V16.0904H15.0003C16.7042 14.5017 17.6815 12.1506 17.6815 9.35455Z" fill="#4285F4"/>
<path fill-rule="evenodd" clip-rule="evenodd" d="M9.02393 18.3016C11.4546 18.3016 13.5093 17.4882 15.0003 16.0902L12.0935 13.8026C11.2792 14.3618 10.2392 14.6795 9.02393 14.6795C6.66848 14.6795 4.67636 13.0655 3.96221 10.9049H0.967773V13.2688C2.49631 16.3571 5.61604 18.3016 9.02393 18.3016Z" fill="#34A853"/>
<path fill-rule="evenodd" clip-rule="evenodd" d="M3.9623 10.9049C3.58643 9.77381 3.58643 8.54103 3.9623 7.39721V5.04602H0.967867C-0.322622 7.62597 -0.322622 10.6762 0.967867 13.2561L3.9623 10.9049Z" fill="#FBBC04"/>
<path fill-rule="evenodd" clip-rule="evenodd" d="M9.02392 3.62265C10.3144 3.59723 11.5548 4.09289 12.4819 4.99524L15.0629 2.37716C13.4216 0.826646 11.2666 -0.0248651 9.02392 0.000553113C5.61602 0.000553113 2.4963 1.95776 0.967758 5.04607L3.96219 7.40997C4.67635 5.23671 6.66846 3.62265 9.02392 3.62265Z" fill="#EA4335"/>
</svg>
