<svg width="136" height="22" viewBox="0 0 136 22" fill="none" xmlns="http://www.w3.org/2000/svg">
<path d="M107.126 10.7524V17.2087H105.108V1.27144H110.458C111.749 1.24602 113.002 1.74168 113.916 2.65673C115.746 4.38517 115.858 7.29556 114.142 9.1638C114.067 9.24006 113.991 9.31631 113.916 9.39256C112.977 10.2949 111.824 10.7524 110.458 10.7524H107.126ZM107.126 3.22864V8.79524H110.508C111.26 8.82065 111.987 8.51564 112.501 7.96914C113.553 6.86345 113.528 5.08417 112.438 4.01661C111.924 3.50824 111.235 3.22864 110.508 3.22864H107.126Z" fill="white"/>
<path d="M120.018 5.94849C121.509 5.94849 122.687 6.35518 123.551 7.15585C124.416 7.95653 124.842 9.07493 124.842 10.4856V17.2088H122.912V15.6964H122.824C121.985 16.9419 120.882 17.5646 119.492 17.5646C118.314 17.5646 117.312 17.2088 116.522 16.4971C115.746 15.8362 115.307 14.8576 115.332 13.8281C115.332 12.697 115.758 11.8074 116.598 11.1338C117.437 10.4602 118.565 10.1298 119.968 10.1298C121.171 10.1298 122.148 10.3585 122.925 10.7907V10.3204C122.925 9.62142 122.624 8.96055 122.098 8.50302C121.559 8.02007 120.87 7.75318 120.156 7.75318C119.028 7.75318 118.139 8.23613 117.487 9.20202L115.708 8.07091C116.66 6.6602 118.101 5.94849 120.018 5.94849ZM117.412 13.8663C117.412 14.4 117.662 14.8957 118.076 15.2007C118.527 15.5566 119.078 15.7472 119.642 15.7345C120.494 15.7345 121.308 15.3914 121.91 14.7813C122.574 14.1459 122.912 13.396 122.912 12.5318C122.286 12.0234 121.409 11.7693 120.281 11.782C119.467 11.782 118.778 11.9853 118.226 12.3793C117.688 12.7733 117.412 13.2689 117.412 13.8663Z" fill="white"/>
<path fill-rule="evenodd" clip-rule="evenodd" d="M135.918 6.3042L129.177 22H127.098L129.603 16.5096L125.181 6.3042H127.373L130.568 14.133H130.606L133.725 6.3042H135.918Z" fill="white"/>
<path fill-rule="evenodd" clip-rule="evenodd" d="M98.9691 9.35455C98.9691 8.73181 98.919 8.10906 98.8187 7.49902H90.3115V11.0194H95.1853C94.9848 12.1506 94.3333 13.1673 93.3811 13.8027V16.0904H96.2879C97.9918 14.5017 98.9691 12.1506 98.9691 9.35455Z" fill="#4285F4"/>
<path fill-rule="evenodd" clip-rule="evenodd" d="M90.311 18.3017C92.7417 18.3017 94.7964 17.4884 96.2874 16.0903L93.3806 13.8027C92.5663 14.3619 91.5264 14.6796 90.311 14.6796C87.9556 14.6796 85.9635 13.0656 85.2493 10.905H82.2549V13.2689C83.7834 16.3572 86.9031 18.3017 90.311 18.3017Z" fill="#34A853"/>
<path fill-rule="evenodd" clip-rule="evenodd" d="M85.2499 10.905C84.874 9.77393 84.874 8.54115 85.2499 7.39733V5.04614H82.2555C80.965 7.62609 80.965 10.6763 82.2555 13.2562L85.2499 10.905Z" fill="#FBBC04"/>
<path fill-rule="evenodd" clip-rule="evenodd" d="M90.311 3.62265C91.6015 3.59723 92.8419 4.09289 93.769 4.99524L96.35 2.37716C94.7087 0.826646 92.5537 -0.0248651 90.311 0.000553113C86.9031 0.000553113 83.7834 1.95776 82.2549 5.04607L85.2493 7.40997C85.9635 5.23671 87.9556 3.62265 90.311 3.62265Z" fill="#EA4335"/>
<path d="M0 17V2.68002H5.18C6.31333 2.68002 7.28667 3.05335 8.1 3.80002C8.91333 4.53335 9.32 5.46002 9.32 6.58002C9.32 7.99335 8.67333 8.98669 7.38 9.56002V9.64002C8.11333 9.88002 8.7 10.3 9.14 10.9C9.58 11.4867 9.8 12.16 9.8 12.92C9.8 14.0934 9.37333 15.0667 8.52 15.84C7.69333 16.6134 6.67333 17 5.46 17H0ZM1.84 4.44002V8.82002H5.18C5.83333 8.82002 6.38 8.60002 6.82 8.16002C7.26 7.70669 7.48 7.19335 7.48 6.62002C7.48 6.06002 7.26667 5.55335 6.84 5.10002C6.41333 4.66002 5.88667 4.44002 5.26 4.44002H1.84ZM1.84 10.54V15.24H5.54C6.20667 15.24 6.77333 15.0067 7.24 14.54C7.69333 14.0734 7.92 13.52 7.92 12.88C7.92 12.2534 7.68667 11.7067 7.22 11.24C6.75333 10.7734 6.16667 10.54 5.46 10.54H1.84Z" fill="white"/>
<path d="M20.155 17H18.395V15.64H18.315C18.035 16.12 17.6017 16.52 17.015 16.84C16.4417 17.16 15.8417 17.32 15.215 17.32C14.015 17.32 13.0883 16.98 12.435 16.3C11.795 15.6067 11.475 14.6267 11.475 13.36V7.20002H13.315V13.24C13.355 14.84 14.1617 15.64 15.735 15.64C16.4683 15.64 17.0817 15.3467 17.575 14.76C18.0683 14.16 18.315 13.4467 18.315 12.62V7.20002H20.155V17Z" fill="white"/>
<path d="M31.1548 7.20002L25.0148 21.32H23.1148L25.3948 16.38L21.3548 7.20002H23.3548L26.2748 14.24H26.3148L29.1548 7.20002H31.1548Z" fill="white"/>
<path d="M50.6303 7.20002L47.4703 17H45.5903L43.1503 9.48002L40.7303 17H38.8703L35.7103 7.20002H37.6303L39.8103 14.6H39.8303L42.2503 7.20002H44.1503L46.5703 14.6H46.5903L48.7503 7.20002H50.6303Z" fill="white"/>
<path d="M54.2084 3.82002C54.2084 4.18002 54.0818 4.48669 53.8284 4.74002C53.5751 4.99335 53.2684 5.12002 52.9084 5.12002C52.5484 5.12002 52.2418 4.99335 51.9884 4.74002C51.7351 4.48669 51.6084 4.18002 51.6084 3.82002C51.6084 3.46002 51.7351 3.15335 51.9884 2.90002C52.2418 2.64669 52.5484 2.52002 52.9084 2.52002C53.2684 2.52002 53.5751 2.64669 53.8284 2.90002C54.0818 3.15335 54.2084 3.46002 54.2084 3.82002ZM53.8284 7.20002V17H51.9884V7.20002H53.8284Z" fill="white"/>
<path d="M60.0053 17.16C59.2053 17.16 58.5386 16.9134 58.0053 16.42C57.4853 15.9267 57.2186 15.24 57.2053 14.36V8.88002H55.4853V7.20002H57.2053V4.20002H59.0453V7.20002H61.4453V8.88002H59.0453V13.76C59.0453 14.4134 59.172 14.86 59.4253 15.1C59.6786 15.3267 59.9653 15.44 60.2853 15.44C60.432 15.44 60.572 15.4267 60.7053 15.4C60.852 15.36 60.9853 15.3134 61.1053 15.26L61.6853 16.9C61.2053 17.0734 60.6453 17.16 60.0053 17.16Z" fill="white"/>
<path d="M63.2933 2.68002H65.1333V7.20002L65.0533 8.56002H65.1333C65.4133 8.08002 65.8399 7.68002 66.4133 7.36002C66.9999 7.04002 67.6066 6.88002 68.2333 6.88002C69.4333 6.88002 70.3533 7.22669 70.9933 7.92002C71.6466 8.60002 71.9733 9.57335 71.9733 10.84V17H70.1333V11.2C70.1333 9.44002 69.3533 8.56002 67.7933 8.56002C67.0466 8.56002 66.4133 8.87335 65.8933 9.50002C65.3866 10.1134 65.1333 10.8334 65.1333 11.66V17H63.2933V2.68002Z" fill="white"/>
</svg>
