<?xml version="1.0" encoding="UTF-8"?>
<svg width="30px" height="30px" viewBox="0 0 30 30" version="1.1" xmlns="http://www.w3.org/2000/svg" xmlns:xlink="http://www.w3.org/1999/xlink">
    <!-- Generator: sketchtool 54.1 (76490) - https://sketchapp.com -->
    <title>D33B91AA-5559-4B44-8E70-B368633EDFB8</title>
    <desc>Created with sketchtool.</desc>
    <g id="Symbols" stroke="none" stroke-width="1" fill="none" fill-rule="evenodd">
        <g id="Icons-/-Ecommerce-/-Rewards-/-Default-/-Purple">
            <g id="Icons-/-Rewards-/-Default-/-Purple">
                <polygon id="Fill-25" points="0 30 30 30 30 0 0 0"></polygon>
                <path d="M15.3901,21.3604 L15.3301,21.3304 C15.3201,21.3204 15.3001,21.3204 15.2901,21.3204 C15.2501,21.2904 15.2101,21.2804 15.1701,21.2694 C15.0601,21.2404 14.9401,21.2404 14.8301,21.2694 C14.7901,21.2804 14.7501,21.2904 14.7101,21.3204 C14.6701,21.3204 14.6401,21.3394 14.6101,21.3604 L11.9801,22.6704 L12.6701,18.5304 C13.3901,18.8304 14.1701,19.0004 15.0001,19.0004 C15.8301,19.0004 16.6101,18.8304 17.3301,18.5304 L18.0191,22.6704 L15.3901,21.3604 Z M10.5001,13.0004 C10.5001,10.5194 12.5201,8.5004 15.0001,8.5004 C17.4801,8.5004 19.5001,10.5194 19.5001,13.0004 C19.5001,15.4804 17.4801,17.5004 15.0001,17.5004 C12.5201,17.5004 10.5001,15.4804 10.5001,13.0004 L10.5001,13.0004 Z M18.7401,17.8804 C18.7301,17.8204 18.7101,17.7694 18.7001,17.7194 C20.0991,16.6204 21.0001,14.9204 21.0001,13.0004 C21.0001,9.6904 18.3091,7.0004 15.0001,7.0004 C11.6901,7.0004 9.0001,9.6904 9.0001,13.0004 C9.0001,14.9204 9.9001,16.6204 11.3001,17.7194 C11.2901,17.7694 11.2701,17.8204 11.2601,17.8804 L10.2801,23.7904 C10.2601,23.8494 10.2501,23.9104 10.2501,23.9694 L10.2501,24.0094 C10.2501,24.0594 10.2601,24.1104 10.2701,24.1604 C10.2801,24.2194 10.3001,24.2804 10.3301,24.3304 C10.3601,24.3894 10.3901,24.4404 10.4301,24.4904 C10.4401,24.5004 10.4501,24.5004 10.4501,24.5094 C10.4901,24.5594 10.5401,24.5894 10.5901,24.6304 C10.6001,24.6394 10.6201,24.6394 10.6301,24.6504 C10.6801,24.6794 10.7401,24.7104 10.8001,24.7194 C10.8601,24.7404 10.9301,24.7504 11.0001,24.7504 C11.1101,24.7504 11.2301,24.7194 11.3301,24.6704 L11.4001,24.6394 L15.0001,22.8394 L18.5991,24.6394 L18.6701,24.6704 C18.7691,24.7194 18.8901,24.7504 19.0001,24.7504 C19.0401,24.7504 19.0801,24.7504 19.1201,24.7404 C19.1501,24.7404 19.1801,24.7304 19.2001,24.7194 C19.2601,24.7104 19.3201,24.6794 19.3701,24.6504 C19.3801,24.6394 19.4001,24.6394 19.4101,24.6304 C19.4601,24.5894 19.5101,24.5594 19.5501,24.5094 C19.5501,24.5004 19.5591,24.5004 19.5701,24.4904 C19.6101,24.4404 19.6401,24.3894 19.6701,24.3304 C19.7001,24.2804 19.7201,24.2194 19.7301,24.1604 C19.7401,24.1104 19.7501,24.0594 19.7501,24.0094 L19.7501,23.9694 C19.7501,23.9104 19.7401,23.8494 19.7201,23.7904 L18.7401,17.8804 Z M19.7501,5.5004 C19.7501,5.0864 19.4141,4.7504 19.0001,4.7504 L11.0001,4.7504 C10.5861,4.7504 10.2501,5.0864 10.2501,5.5004 C10.2501,5.9144 10.5861,6.2504 11.0001,6.2504 L19.0001,6.2504 C19.4141,6.2504 19.7501,5.9144 19.7501,5.5004 L19.7501,5.5004 Z M19.7501,23.9694 C19.7501,23.9104 19.7401,23.8494 19.7201,23.7904 L19.7401,23.8804 C19.7501,23.9104 19.7501,23.9404 19.7501,23.9694 L19.7501,23.9694 Z M10.8001,24.7194 C10.8201,24.7304 10.8501,24.7404 10.8801,24.7404 C10.9201,24.7504 10.9601,24.7504 11.0001,24.7504 C10.9301,24.7504 10.8601,24.7404 10.8001,24.7194 L10.8001,24.7194 Z M10.2601,23.8804 L10.2801,23.7904 C10.2601,23.8494 10.2501,23.9104 10.2501,23.9694 C10.2501,23.9404 10.2501,23.9104 10.2601,23.8804 L10.2601,23.8804 Z" id="Fill-26" fill="#BD8BCA"></path>
            </g>
        </g>
    </g>
</svg>