<?xml version="1.0" encoding="UTF-8"?>
<svg width="81px" height="71px" viewBox="0 0 81 71" version="1.1" xmlns="http://www.w3.org/2000/svg" xmlns:xlink="http://www.w3.org/1999/xlink">
    <!-- Generator: Sketch 53.2 (72643) - https://sketchapp.com -->
    <title>Cleanse Icon</title>
    <desc>Created with Sketch.</desc>
    <g id="Page-1" stroke="none" stroke-width="1" fill="none" fill-rule="evenodd">
        <g id="Product-Detail-/-Verage" transform="translate(-178.000000, -4834.000000)">
            <g id="Group" transform="translate(60.000000, 4038.000000)">
                <g id="1" transform="translate(0.000000, 708.000000)">
                    <g id="Cleanse-Icon" transform="translate(118.000000, 88.000000)">
                        <path d="M0.202247191,33.5862069 C5.71535581,59.1034483 19.4981273,71.5172414 41.5505618,70.8275862 C63.6029963,70.137931 76.3520599,57.3793103 79.7977528,32.5517241 L61.1910112,32.5517241 C57.0561798,34.6206897 53.9550562,38.0689655 51.8876404,42.8965517 C48.7865169,50.137931 45.6853933,55.3103448 42.5842697,55.3103448 C39.4831461,55.3103448 34.3146067,51.1724138 31.2134831,41.862069 C29.1460674,35.6551724 24.6666667,32.8965517 17.7752809,33.5862069 L0.202247191,33.5862069 Z" id="Path-2" fill-opacity="0.5" fill="#7FCFA4" fill-rule="nonzero"></path>
                        <path d="M41.5865748,56.8275862 C35.9585638,56.8275862 33.3171678,51.1727597 30.7626637,45.7041386 C28.1694106,40.1528889 25.7205858,34.90946 20.646217,34.90946 L1.46776837,34.90946 C0.656973123,34.90946 0,34.2583229 0,33.45473 C0,32.6511372 0.656973123,32 1.46776837,32 L20.646217,32 C27.5958067,32 30.6933851,38.6312413 33.4269569,44.4821654 C35.6931912,49.3345628 37.8343717,53.9181262 41.5865748,53.9181262 C45.6029762,53.9181262 47.8692105,48.8894155 50.2687183,43.5656855 C52.8314419,37.8794368 55.4816444,32 60.9611173,32 L79.1614451,32 C79.9716533,32 80.6292135,32.6511372 80.6292135,33.45473 C80.6292135,34.2583229 79.9716533,34.90946 79.1614451,34.90946 L60.9611173,34.90946 C57.3856336,34.90946 55.2303625,39.6908666 52.9488633,44.7527452 C50.2734151,50.6892074 47.5063782,56.8275862 41.5865748,56.8275862" id="Fill-4" fill="#364657"></path>
                        <path d="M36.8988764,29.3793103 C35.435532,29.3793103 34.2456929,30.5700414 34.2456929,32.0344828 C34.2456929,33.4989241 35.435532,34.6896552 36.8988764,34.6896552 C38.3622208,34.6896552 39.5520599,33.4989241 39.5520599,32.0344828 C39.5520599,30.5700414 38.3622208,29.3793103 36.8988764,29.3793103 M36.8988764,37.7241379 C33.764178,37.7241379 31.2134831,35.171531 31.2134831,32.0344828 C31.2134831,28.8974345 33.764178,26.3448276 36.8988764,26.3448276 C40.0335748,26.3448276 42.5842697,28.8974345 42.5842697,32.0344828 C42.5842697,35.171531 40.0335748,37.7241379 36.8988764,37.7241379" id="Fill-6" fill="#364657"></path>
                        <path d="M50.3370787,19.6717647 C48.0851745,19.6717647 46.2528015,21.5048288 46.2528015,23.758921 C46.2528015,26.0124126 48.0851745,27.8454767 50.3370787,27.8454767 C52.5889828,27.8454767 54.4213558,26.0124126 54.4213558,23.758921 C54.4213558,21.5048288 52.5889828,19.6717647 50.3370787,19.6717647 M50.3370787,30.4827586 C46.6321201,30.4827586 43.6179775,27.4664913 43.6179775,23.758921 C43.6179775,20.0513507 46.6321201,17.0344828 50.3370787,17.0344828 C54.0420372,17.0344828 57.0561798,20.0513507 57.0561798,23.758921 C57.0561798,27.4664913 54.0420372,30.4827586 50.3370787,30.4827586" id="Fill-8" fill="#364657"></path>
                        <path d="M34.8314607,3.4137931 C31.6015371,3.4137931 28.9737828,6.04351724 28.9737828,9.27586207 C28.9737828,12.5082069 31.6015371,15.137931 34.8314607,15.137931 C38.0613843,15.137931 40.6891386,12.5082069 40.6891386,9.27586207 C40.6891386,6.04351724 38.0613843,3.4137931 34.8314607,3.4137931 M34.8314607,18.0689655 C29.9865753,18.0689655 26.0449438,14.1243793 26.0449438,9.27586207 C26.0449438,4.42734483 29.9865753,0.482758621 34.8314607,0.482758621 C39.6763461,0.482758621 43.6179775,4.42734483 43.6179775,9.27586207 C43.6179775,14.1243793 39.6763461,18.0689655 34.8314607,18.0689655" id="Fill-10" fill="#364657"></path>
                    </g>
                </g>
            </g>
        </g>
    </g>
</svg>