<?xml version="1.0" encoding="UTF-8"?>
<svg width="90px" height="84px" viewBox="0 0 90 84" version="1.1" xmlns="http://www.w3.org/2000/svg" xmlns:xlink="http://www.w3.org/1999/xlink">
    <!-- Generator: Sketch 53.2 (72643) - https://sketchapp.com -->
    <title>Group 17 Copy</title>
    <desc>Created with Sketch.</desc>
    <defs>
        <polygon id="path-1" points="0 0.696457875 54.9873811 0.696457875 54.9873811 77.6606337 0 77.6606337"></polygon>
        <polygon id="path-3" points="0.488938946 0.233265705 52.6693357 0.233265705 52.6693357 58.4777839 0.488938946 58.4777839"></polygon>
    </defs>
    <g id="Page-1" stroke="none" stroke-width="1" fill="none" fill-rule="evenodd">
        <g id="Product-Detail-/-Lavender" transform="translate(-905.000000, -6910.000000)">
            <g id="Group-19" transform="translate(0.000000, 6417.000000)">
                <g id="Did-you-know?">
                    <g id="facts" transform="translate(845.000000, 39.968032)">
                        <g id="Group-46">
                            <g id="Group-45" transform="translate(60.000000, 452.000000)">
                                <g id="Group-17-Copy" transform="translate(0.000000, 0.031968)">
                                    <g id="Group-3" transform="translate(0.000000, 0.604322)">
                                        <mask id="mask-2" fill="white">
                                            <use xlink:href="#path-1"></use>
                                        </mask>
                                        <g id="Clip-2"></g>
                                        <path d="M52.2251084,62.1220989 C51.0863671,62.1220989 50.1621713,63.0472088 50.1621713,64.191696 L50.1621713,68.6185641 L9.47073776,68.6185641 L9.47073776,9.43222711 L9.47073776,4.83565201 L50.861507,4.83565201 L50.861507,21.7173553 C50.861507,22.8597729 51.7857028,23.7869524 52.9244441,23.7869524 C54.0652483,23.7869524 54.9873811,22.8597729 54.9873811,21.7173553 L54.9873811,2.76605495 C54.9873811,1.62363736 54.0652483,0.696457875 52.9244441,0.696457875 L7.4078007,0.696457875 C6.26905944,0.696457875 5.34486364,1.62363736 5.34486364,2.76605495 L5.34486364,7.36263004 L2.06273077,7.36263004 C0.92398951,7.36263004 -0.000206293706,8.28773993 -0.000206293706,9.43222711 L-0.000206293706,75.5910366 C-0.000206293706,76.7355238 0.92398951,77.6606337 2.06273077,77.6606337 L46.4509476,77.6606337 C47.5896888,77.6606337 48.5138846,76.7355238 48.5138846,75.5910366 L48.5138846,72.7577582 L52.2251084,72.7577582 C53.3638497,72.7577582 54.2880455,71.8305788 54.2880455,70.6881612 L54.2880455,64.191696 C54.2880455,63.0472088 53.3638497,62.1220989 52.2251084,62.1220989" id="Fill-1" fill="#B298C7" mask="url(#mask-2)"></path>
                                    </g>
                                    <path d="M42.6367832,22.3206429 C42.6367832,21.1761557 41.7125874,20.2510458 40.5738462,20.2510458 L15.8701748,20.2510458 C14.7314336,20.2510458 13.8072378,21.1761557 13.8072378,22.3206429 C13.8072378,23.46513 14.7314336,24.3902399 15.8701748,24.3902399 L40.5738462,24.3902399 C41.7125874,24.3902399 42.6367832,23.46513 42.6367832,22.3206429" id="Fill-4" fill="#B298C7"></path>
                                    <path d="M30.6921713,31.4601905 L15.8699685,31.4601905 C14.7312273,31.4601905 13.8070315,32.3853004 13.8070315,33.5297875 C13.8070315,34.6742747 14.7312273,35.5993846 15.8699685,35.5993846 L30.6921713,35.5993846 C31.8309126,35.5993846 32.7551084,34.6742747 32.7551084,33.5297875 C32.7551084,32.3853004 31.8309126,31.4601905 30.6921713,31.4601905" id="Fill-6" fill="#B298C7"></path>
                                    <path d="M30.1663287,41.7717509 L15.8701748,41.7717509 C14.7314336,41.7717509 13.8072378,42.6968608 13.8072378,43.841348 C13.8072378,44.9858352 14.7314336,45.9109451 15.8701748,45.9109451 L30.1663287,45.9109451 C31.3050699,45.9109451 32.2292657,44.9858352 32.2292657,43.841348 C32.2292657,42.6968608 31.3050699,41.7717509 30.1663287,41.7717509" id="Fill-8" fill="#B298C7"></path>
                                    <g id="Group-12" transform="translate(36.608392, 26.208718)">
                                        <mask id="mask-4" fill="white">
                                            <use xlink:href="#path-3"></use>
                                        </mask>
                                        <g id="Clip-11"></g>
                                        <path d="M27.4967587,26.3555678 C25.0934371,29.0274176 21.7989266,30.5961722 18.2197308,30.7824359 C14.6425979,30.9231685 11.2036818,29.7352198 8.54249301,27.3262088 C5.8813042,24.9171978 4.3175979,21.6141209 4.1339965,18.0213004 C3.9503951,14.4264103 5.17371678,10.9826007 7.57497552,8.31075092 C9.9782972,5.64304029 13.2728077,4.07014652 16.8520035,3.89009158 C17.0871783,3.87767399 17.3182273,3.8735348 17.5513392,3.8735348 C20.8788566,3.8735348 24.0434021,5.09045788 26.5292413,7.34010989 L26.5292413,7.34010989 C29.1904301,9.75119048 30.7561993,13.056337 30.9377378,16.6512271 C31.1213392,20.2399084 29.8980175,23.6878571 27.4967587,26.3555678 M52.2808846,50.9030586 L35.6907448,29.8159341 C35.0698007,29.0274176 33.9269336,28.8949634 33.1430175,29.5158425 L32.0166538,30.4057692 L30.4735769,28.4437912 C33.3286818,25.1055311 34.7851154,20.8752747 34.5602552,16.4649634 C34.3292063,11.9015018 32.340535,7.70021978 28.9593811,4.64135531 L28.9593811,4.64135531 C25.5802902,1.58042125 21.2233671,0.0240842491 16.6663392,0.255879121 C12.1196259,0.48974359 7.93598951,2.48276557 4.88490559,5.87483516 C1.83175874,9.26483516 0.28043007,13.642033 0.511479021,18.2054945 C0.744590909,22.7710256 2.73326224,26.9660989 6.11235315,30.0249634 C9.27070979,32.8872161 13.2913741,34.4352747 17.5162692,34.4352747 C17.8112692,34.4352747 18.1083322,34.4269963 18.4053951,34.4166484 C21.5472483,34.2510806 24.5075629,33.2307692 27.0491014,31.5088645 L28.4209545,33.2535348 L27.2966538,34.1455311 C26.9191364,34.4435531 26.6757098,34.8802381 26.6200105,35.3624542 C26.5622483,35.8384615 26.6984021,36.3186081 26.997528,36.6994139 L43.5876678,57.7886081 C43.9466189,58.2439194 44.4767937,58.4777839 45.0131573,58.4777839 C45.4071783,58.4777839 45.8032622,58.3536081 46.1353951,58.0907692 L51.9796958,53.4631502 C52.7677378,52.8402015 52.8997657,51.6957143 52.2808846,50.9030586" id="Fill-10" fill="#B298C7" mask="url(#mask-4)"></path>
                                    </g>
                                    <path d="M49.6656224,33.234663 C48.4938741,33.9010733 47.4376503,34.7496081 46.532021,35.7575018 C45.349958,37.071696 44.4732098,38.5825018 43.9285944,40.2485275 C43.6170909,41.2026117 44.1348881,42.2291319 45.087965,42.5437106 C45.2756923,42.6037289 45.4654825,42.6327033 45.6532098,42.6327033 C46.4144336,42.6327033 47.1261469,42.1484176 47.3757622,41.3847363 C47.7615315,40.1988571 48.3824755,39.1288755 49.2241538,38.1934176 C49.8698531,37.4794066 50.6186993,36.8730147 51.4521259,36.4032161 C52.3247483,35.9065128 52.6300629,34.7951392 52.137021,33.9217692 C51.643979,33.0483993 50.5361818,32.7379597 49.6656224,33.234663" id="Fill-13" fill="#B298C7"></path>
                                    <path d="M47.2127902,46.3879872 C46.9652378,45.413207 45.975028,44.827511 45.0054476,45.073793 C44.0358671,45.3242143 43.449993,46.3155513 43.6996084,47.2903315 C43.9966713,48.4575842 44.4628951,49.5730971 45.0776503,50.6078956 C45.415972,51.1770348 46.0183497,51.4936832 46.6351678,51.4936832 C46.9528601,51.4936832 47.2726154,51.4088297 47.5655524,51.2349835 C48.4237343,50.7175842 48.7042937,49.6020714 48.1906224,48.741119 C47.7532797,48.0084817 47.4252727,47.215826 47.2127902,46.3879872" id="Fill-15" fill="#B298C7"></path>
                                </g>
                            </g>
                        </g>
                    </g>
                </g>
            </g>
        </g>
    </g>
</svg>