<?xml version="1.0" encoding="UTF-8"?>
<svg width="30px" height="30px" viewBox="0 0 30 30" version="1.1" xmlns="http://www.w3.org/2000/svg" xmlns:xlink="http://www.w3.org/1999/xlink">
    <!-- Generator: sketchtool 53.2 (72643) - https://sketchapp.com -->
    <title>5F07C6F7-8EA0-4130-9787-A04AD7CA5CD0</title>
    <desc>Created with sketchtool.</desc>
    <g id="Symbols" stroke="none" stroke-width="1" fill="none" fill-rule="evenodd">
        <g id="Icons-/-Supportive-/-Success-/-Normal-/-Purple">
            <g>
                <polygon id="Fill-4-Copy-27" points="0 30 30 30 30 0 0 0"></polygon>
                <path d="M18.0615,11.54 L18.7685,10.833 C18.9635,10.638 18.9635,10.321 18.7685,10.126 C18.5735,9.931 18.2565,9.931 18.0615,10.126 L17.3545,10.833 C17.1595,11.028 17.1595,11.345 17.3545,11.54 C17.5495,11.735 17.8665,11.735 18.0615,11.54 M21.2435,14.161 L21.9505,14.161 C22.2265,14.161 22.4505,13.937 22.4505,13.662 C22.4505,13.386 22.2265,13.162 21.9505,13.162 L21.2435,13.162 C20.9665,13.162 20.7435,13.386 20.7435,13.662 C20.7435,13.8 20.7995,13.925 20.8895,14.016 C20.9805,14.105 21.1055,14.161 21.2435,14.161 M17.0195,9.01 C17.2825,9.097 17.5645,8.955 17.6525,8.693 L18.0055,7.633 C18.0915,7.371 17.9525,7.086 17.6895,7 C17.4265,6.913 17.1445,7.055 17.0565,7.316 L16.7035,8.377 C16.6415,8.562 16.6945,8.759 16.8245,8.889 C16.8775,8.942 16.9435,8.984 17.0195,9.01 M14.9305,13.184 C15.1735,13.315 15.4775,13.225 15.6085,12.982 L16.0025,12.254 C16.5025,11.33 16.2435,10.168 15.3995,9.537 C15.1465,9.348 14.9865,9.072 14.9525,8.756 C14.9185,8.441 15.0135,8.137 15.2215,7.897 L16.7745,6.107 C16.9575,5.898 16.9345,5.572 16.7255,5.402 C16.5165,5.222 16.2015,5.244 16.0195,5.452 L14.4665,7.242 C14.0795,7.686 13.8945,8.278 13.9585,8.865 C14.0215,9.451 14.3325,9.989 14.8045,10.34 C15.2475,10.673 15.3885,11.288 15.1235,11.777 L14.7285,12.506 C14.6215,12.705 14.6625,12.945 14.8155,13.098 C14.8485,13.131 14.8875,13.159 14.9305,13.184 M17.1465,14.398 C18.0235,14.163 18.8025,13.68 19.4035,12.996 C20.2485,12.034 21.5545,11.596 22.8105,11.852 L24.8715,12.273 C25.1425,12.329 25.4065,12.155 25.4615,11.885 C25.5165,11.614 25.3445,11.349 25.0725,11.295 L23.0095,10.872 C21.4035,10.544 19.7335,11.105 18.6505,12.338 C18.1815,12.871 17.5735,13.249 16.8875,13.433 C16.6215,13.504 16.4625,13.778 16.5355,14.045 C16.5575,14.133 16.6035,14.209 16.6635,14.269 C16.7865,14.392 16.9675,14.446 17.1465,14.398 M11.6225,12.524 L8.5595,20.688 L16.7245,17.627 C14.6075,16.394 12.8555,14.642 11.6225,12.524 M6.7475,22.5 C6.5405,22.293 6.4725,21.982 6.5755,21.707 L10.8185,10.394 C10.9265,10.106 11.1975,9.913 11.5025,9.907 C11.8095,9.9 12.0885,10.079 12.2105,10.361 C13.5005,13.376 15.8715,15.748 18.8865,17.037 C19.1665,17.158 19.3475,17.438 19.3405,17.745 C19.3345,18.051 19.1425,18.322 18.8545,18.43 L7.5405,22.673 C7.2665,22.775 6.9555,22.708 6.7475,22.5" id="Fill-6-Copy-8" fill="#BD8BCA"></path>
            </g>
        </g>
    </g>
</svg>