<?xml version="1.0" encoding="UTF-8"?>
<svg width="30px" height="30px" viewBox="0 0 30 30" version="1.1" xmlns="http://www.w3.org/2000/svg" xmlns:xlink="http://www.w3.org/1999/xlink">
    <!-- Generator: sketchtool 53.2 (72643) - https://sketchapp.com -->
    <title>181A892A-DE70-4D52-8AFD-F074171CB6CE</title>
    <desc>Created with sketchtool.</desc>
    <g id="Symbols" stroke="none" stroke-width="1" fill="none" fill-rule="evenodd">
        <g id="Icons-/-Action-/-Share-/-Default-/-Body-Blue">
            <g id="Icons-/-Share-/-Default-/-Body-Blue">
                <polygon id="Fill-1" points="0 30 30 30 30 0 0 0"></polygon>
                <path d="M19.4102,18.5898 C20.2002,19.3698 20.2002,20.6298 19.4102,21.4098 C18.6302,22.1998 17.3702,22.1998 16.5902,21.4098 C16.0592,20.8898 15.8802,20.1398 16.0802,19.4808 L11.3502,16.4598 C10.5702,17.1998 9.3502,17.1798 8.5902,16.4098 C7.8002,15.6298 7.8002,14.3698 8.5902,13.5898 C9.3502,12.8198 10.5802,12.7998 11.3602,13.5498 L16.0802,10.5098 C15.8902,9.8498 16.0592,9.1108 16.5902,8.5898 C17.3702,7.7998 18.6302,7.7998 19.4102,8.5898 C20.2002,9.3698 20.2002,10.6298 19.4102,11.4098 C18.6302,12.1998 17.3702,12.1998 16.5902,11.4098 C16.5802,11.4008 16.5802,11.4008 16.5702,11.3898 L11.8902,14.4008 C12.0402,14.7998 12.0302,15.2308 11.8902,15.6198 L16.5702,18.6198 C16.5702,18.6108 16.5802,18.5998 16.5902,18.5898 C17.3702,17.7998 18.6302,17.7998 19.4102,18.5898" id="Fill-2" fill="#354657"></path>
            </g>
        </g>
    </g>
</svg>