<?xml version="1.0" encoding="UTF-8"?>
<svg width="82px" height="67px" viewBox="0 0 82 67" version="1.1" xmlns="http://www.w3.org/2000/svg" xmlns:xlink="http://www.w3.org/1999/xlink">
    <!-- Generator: Sketch 53.2 (72643) - https://sketchapp.com -->
    <title>Group 23</title>
    <desc>Created with Sketch.</desc>
    <g id="Page-1" stroke="none" stroke-width="1" fill="none" fill-rule="evenodd">
        <g id="Product-Detail-/-Verage" transform="translate(-513.000000, -4838.000000)">
            <g id="Group" transform="translate(60.000000, 4038.000000)">
                <g id="2" transform="translate(335.000000, 708.000000)">
                    <g id="Group-23" transform="translate(118.000000, 94.000000)">
                        <g id="Cleanse-Icon" transform="translate(1.000000, 26.000000)" fill="#7FCFA4" fill-opacity="0.5" fill-rule="nonzero">
                            <path d="M0.202247191,1.5862069 C5.04868914,27.1034483 18.4981273,39.5172414 40.5505618,38.8275862 C62.6029963,38.137931 75.6853933,25.3793103 79.7977528,0.551724138 L54.1910112,0.551724138 C49.3970037,0.551724138 46.6292135,4 45.8876404,10.8965517 C44.7752809,21.2413793 44.6853933,23.3103448 41.5842697,23.3103448 C38.4831461,23.3103448 36.4269663,21.2413793 35.2134831,9.86206897 C34.4044944,2.27586207 30.9250936,-0.482758621 24.7752809,1.5862069 L0.202247191,1.5862069 Z" id="Path-2"></path>
                        </g>
                        <g id="Tone-Icon">
                            <path d="M24.0499511,6.15374286 L24.0499511,0.651763571 L37.8029439,9.63339929 L24.0499511,18.6144421 L24.0499511,13.1127 L15.7298417,13.1127 L15.7298417,6.15374286 L24.0499511,6.15374286 Z" id="Combined-Shape" stroke="#364657" stroke-width="2.5"></path>
                            <path d="M59.9312173,6.15374286 L68.2506187,6.15374286 L68.2506187,13.1127 L59.9312173,13.1127 L59.9312173,18.6145607 L46.1776345,9.632925 L59.9312173,0.651882143 L59.9312173,6.15374286 Z" id="Combined-Shape" stroke="#364657" stroke-width="2.5"></path>
                            <path d="M42.3262173,50.3888857 C36.2310806,50.3888857 35.8246201,44.088 35.4671237,38.5293714 C35.0087496,31.4109357 34.333282,28.0577357 30.1341741,28.0577357 L2.01407338,28.0577357 C1.19938273,28.0577357 0.539253237,27.3943286 0.539253237,26.5755929 C0.539253237,25.7568571 1.19938273,25.09345 2.01407338,25.09345 L30.1341741,25.09345 C37.5578288,25.09345 38.0309511,32.4371714 38.4102748,38.3378786 C38.8084763,44.5142643 39.3240734,47.4246 42.3262173,47.4246 C45.3767353,47.4246 45.920059,44.4858071 46.042764,37.4563 C46.1383324,31.9486571 46.2574978,25.09345 52.2564763,25.09345 L80.0816129,25.09345 C80.8963036,25.09345 81.5564331,25.7568571 81.5564331,26.5755929 C81.5564331,27.3943286 80.8963036,28.0577357 80.0816129,28.0577357 L52.2564763,28.0577357 C49.5870518,28.0577357 49.1074403,30.8435714 48.9918144,37.5078786 C48.8915266,43.2467357 48.7676417,50.3888857 42.3262173,50.3888857" id="Fill-9" fill="#364657"></path>
                        </g>
                    </g>
                </g>
            </g>
        </g>
    </g>
</svg>