<?xml version="1.0" encoding="UTF-8"?>
<svg width="30px" height="30px" viewBox="0 0 30 30" version="1.1" xmlns="http://www.w3.org/2000/svg" xmlns:xlink="http://www.w3.org/1999/xlink">
    <!-- Generator: sketchtool 54.1 (76490) - https://sketchapp.com -->
    <title>DF7A9265-40BD-4548-ACD1-818BECFD6958</title>
    <desc>Created with sketchtool.</desc>
    <g id="Symbols" stroke="none" stroke-width="1" fill="none" fill-rule="evenodd">
        <g id="Icons-/-Supportive-/-Promotion-/-Purple">
            <g>
                <polygon id="Fill-3" points="0 30 30 30 30 0 0 0"></polygon>
                <path d="M16,21.5 L20.5,21.5 L20.5,14.5 L16,14.5 L16,21.5 Z M9.5,21.5 L14,21.5 L14,14.5 L9.5,14.5 L9.5,21.5 Z M8.5,13 L14,13 L14,11 L8.5,11 L8.5,13 Z M11.38,6.63 C11.71,6.66 12.4,6.939 13.1,7.65 C13.83,8.38 14.1,9.07 14.12,9.37 C13.79,9.34 13.1,9.061 12.4,8.35 C11.67,7.62 11.4,6.93 11.38,6.63 L11.38,6.63 Z M16.9,7.65 C17.6,6.939 18.29,6.66 18.62,6.63 C18.6,6.93 18.33,7.62 17.6,8.35 C16.9,9.061 16.21,9.34 15.88,9.37 C15.9,9.07 16.17,8.38 16.9,7.65 L16.9,7.65 Z M16,13 L21.5,13 L21.5,11 L16,11 L16,13 Z M22,9.5 L17.81,9.5 C17.98,9.37 18.15,9.22 18.31,9.061 C19.48,7.891 19.96,6.46 19.37,5.88 C19.2,5.71 18.96,5.63 18.67,5.63 C17.98,5.63 17.02,6.109 16.19,6.939 C15.59,7.54 15.18,8.2 15,8.78 C14.82,8.2 14.41,7.54 13.81,6.939 C12.98,6.109 12.02,5.63 11.33,5.63 C11.04,5.63 10.8,5.71 10.63,5.88 C10.04,6.46 10.52,7.891 11.69,9.061 C11.85,9.22 12.02,9.37 12.19,9.5 L8,9.5 C7.45,9.5 7,9.95 7,10.5 L7,13.5 C7,14.05 7.45,14.5 8,14.5 L8,22.15 C8,22.62 8.38,23 8.85,23 L21.15,23 C21.62,23 22,22.62 22,22.15 L22,14.5 C22.55,14.5 23,14.05 23,13.5 L23,10.5 C23,9.95 22.55,9.5 22,9.5 L22,9.5 Z" id="Fill-6" fill="#BD8BCA"></path>
            </g>
        </g>
    </g>
</svg>