<?xml version="1.0" encoding="UTF-8"?>
<svg width="55px" height="74px" viewBox="0 0 55 74" version="1.1" xmlns="http://www.w3.org/2000/svg" xmlns:xlink="http://www.w3.org/1999/xlink">
    <!-- Generator: Sketch 53.2 (72643) - https://sketchapp.com -->
    <title>Cleanse Icon</title>
    <desc>Created with Sketch.</desc>
    <g id="Page-1" stroke="none" stroke-width="1" fill="none" fill-rule="evenodd">
        <g id="Product-Detail-/-Verage" transform="translate(-1195.000000, -4831.000000)">
            <g id="Group" transform="translate(60.000000, 4038.000000)">
                <g id="4" transform="translate(1005.000000, 708.000000)">
                    <g id="Cleanse-Icon" transform="translate(122.000000, 78.000000)">
                        <g id="Group-10">
                            <g id="Group-3" transform="translate(0.000000, 0.979279)">
                                <path d="M35.629737,78.6885246 C21.0755474,78.6885246 9.23404255,67.6255315 9.23404255,54.0275524 C9.23404255,41.6108245 23.0623771,22.6898971 34.663343,9.0041081 L35.6254984,7.86885246 L36.5812959,9.01038023 C48.1769637,22.8759703 62,41.942202 62,54.0275524 C62,67.6255315 50.1701512,78.6885246 35.629737,78.6885246" id="Fill-1" fill-opacity="0.5" fill="#7FCFA4"></path>
                                <path d="M35.6127827,11.7251674 C20.199223,30.1077369 11.728441,45.1002198 11.728441,54.0275524 C11.728441,66.269706 22.4509633,76.2277587 35.629737,76.2277587 C48.7957949,76.2277587 59.5066612,66.269706 59.5066612,54.0275524 C59.5066612,45.2172996 51.2499269,30.6063713 35.6127827,11.7251674 M35.629737,78.6885246 C21.0755474,78.6885246 9.23404255,67.6255315 9.23404255,54.0275524 C9.23404255,41.6108245 23.0623771,22.6898971 34.663343,9.0041081 L35.6254984,7.86885246 L36.5812959,9.01038023 C48.1769637,22.8759703 62,41.942202 62,54.0275524 C62,67.6255315 50.1701512,78.6885246 35.629737,78.6885246" id="Fill-1" stroke="#364657" stroke-width="1.30932897" fill="#364657"></path>
                            </g>
                            <polygon id="Fill-4" fill="#FFFFFF" points="21.5258001 64.2622951 19.787234 62.5328036 45.7518405 36.7213115 47.4893617 38.450803"></polygon>
                            <polygon id="Fill-4" fill="#364657" points="22.844949 65.5737705 21.106383 63.844279 47.0709894 38.0327869 48.8085106 39.7622784"></polygon>
                            <path d="M25.7254911,47.2131148 C24.1394516,47.2131148 22.6483658,46.5972168 21.5277037,45.4769285 C20.4049547,44.3566403 19.787234,42.8674385 19.787234,41.2834031 C19.787234,39.6983255 20.4049547,38.2101659 21.5277037,37.0898776 C23.7679845,34.8503433 27.678824,34.8493012 29.9222351,37.0898776 C32.2386876,39.4013189 32.2386876,43.1654873 29.9222351,45.4769285 C28.801573,46.5972168 27.3104872,47.2131148 25.7254911,47.2131148" id="Path" fill="#FFFFFF"></path>
                            <path d="M41.5552784,64.2622951 C39.9692389,64.2622951 38.4781531,63.6463971 37.3574909,62.5261089 C36.2347419,61.4058206 35.6170213,59.9166189 35.6170213,58.3325834 C35.6170213,56.7475058 36.2347419,55.2593462 37.3574909,54.139058 C39.5977717,51.8995236 43.5086112,51.8984815 45.7520224,54.139058 C48.0684748,56.4504992 48.0684748,60.2146676 45.7520224,62.5261089 C44.6313603,63.6463971 43.1402744,64.2622951 41.5552784,64.2622951" id="Path" fill="#FFFFFF"></path>
                            <path d="M27.0446401,39.1172954 C26.1138853,39.1172954 25.2405202,39.478914 24.5821051,40.1364972 C23.9247334,40.791996 23.5626573,41.6663419 23.5626573,42.5948785 C23.5626573,43.5234151 23.9247334,44.3967188 24.5821051,45.0532598 C25.8958049,46.3663419 28.1893015,46.3694682 29.5061317,45.0532598 C30.8626128,43.6984927 30.8626128,41.4912643 29.5061317,40.1364972 C28.84876,39.478914 27.9743514,39.1172954 27.0446401,39.1172954 M27.0446401,48.5245902 C25.4586006,48.5245902 23.9675148,47.9086922 22.8468526,46.7884039 C21.7241036,45.6681157 21.106383,44.1789139 21.106383,42.5948785 C21.106383,41.0098009 21.7241036,39.5216413 22.8468526,38.401353 C25.0871334,36.1618187 28.9979729,36.1607766 31.2413841,38.401353 C33.5578365,40.7127943 33.5578365,44.4769627 31.2413841,46.7884039 C30.120722,47.9086922 28.6296361,48.5245902 27.0446401,48.5245902" id="Fill-6" fill="#364657"></path>
                            <path d="M42.8728622,56.1665756 C41.9409821,56.1665756 41.0675401,56.5281503 40.4101107,57.1856537 C39.0514233,58.5402564 39.0514233,60.7472168 40.4101107,62.1028615 C41.7249696,63.4168262 44.0197113,63.4168262 45.3356137,62.1028615 C46.6932576,60.7472168 46.6932576,58.5402564 45.3356137,57.1856537 C44.6771407,56.5281503 43.8036988,56.1665756 42.8728622,56.1665756 M42.8728622,65.5737705 C41.2856397,65.5737705 39.7944229,64.9579473 38.6736622,63.837795 C36.3570062,61.5255924 36.3570062,57.7629228 38.6736622,55.4507202 C40.916227,53.2104157 44.8284538,53.2104157 47.0710186,55.4507202 C49.3876746,57.7629228 49.3876746,61.5255924 47.0710186,63.837795 C45.950258,64.9579473 44.4590411,65.5737705 42.8728622,65.5737705" id="Fill-8" fill="#364657"></path>
                        </g>
                    </g>
                </g>
            </g>
        </g>
    </g>
</svg>