<?xml version="1.0" encoding="UTF-8"?>
<svg width="60px" height="60px" viewBox="0 0 60 60" version="1.1" xmlns="http://www.w3.org/2000/svg" xmlns:xlink="http://www.w3.org/1999/xlink">
    <!-- Generator: sketchtool 54.1 (76490) - https://sketchapp.com -->
    <title>E42AB015-A5B8-4CD8-AC1C-304175C3DC9C</title>
    <desc>Created with sketchtool.</desc>
    <g id="RWP---Replicated-Site" stroke="none" stroke-width="1" fill="none" fill-rule="evenodd">
        <g id="RWP-/-Landing-/-Navigation-/-Sign-up" transform="translate(-244.000000, -279.000000)" fill="#FFFFFF">
            <g id="Group-39" transform="translate(157.000000, 279.000000)">
                <g id="Icons-/-Navigation-/-My-Account-/-Circle-/-Outline-/-White" transform="translate(87.000000, 0.000000)">
                    <path d="M24.5,20 C24.5,23.034 26.966,25.5 30,25.5 C33.034,25.5 35.5,23.034 35.5,20 C35.5,16.966 33.034,14.5 30,14.5 C26.966,14.5 24.5,16.966 24.5,20 Z M21.5,20 C21.5,15.312 25.314,11.5 30,11.5 C34.686,11.5 38.5,15.312 38.5,20 C38.5,24.688 34.686,28.5 30,28.5 C25.314,28.5 21.5,24.688 21.5,20 Z M20.31,34.32 C18.514,35.044 15.5,36.616 15.5,39 L15.5,41 C15.5,41.272 15.728,41.5 16,41.5 L44,41.5 C44.272,41.5 44.5,41.272 44.5,41 L44.5,39 C44.5,34.974 36.056,32.502 30.004,32.502 C27.496,32.502 23.64,32.98 20.31,34.32 Z M16,44.5 C14.07,44.5 12.5,42.93 12.5,41 L12.5,39 C12.5,31.822 24.292,29.5 30.004,29.5 C35.712,29.502 47.5,31.824 47.5,39 L47.5,41 C47.5,42.93 45.93,44.5 44,44.5 L16,44.5 Z M0,30 C0,46.568 13.432,60 30,60 C46.568,60 60,46.568 60,30 C60,13.432 46.568,0 30,0 C13.432,0 0,13.432 0,30 Z M57,30 C57,44.888 44.888,57 30,57 C15.112,57 3,44.888 3,30 C3,15.112 15.112,3 30,3 C44.888,3 57,15.112 57,30 Z" id="Icons-/-My-Account-/-Circle-/-Outline-/-White"></path>
                </g>
            </g>
        </g>
    </g>
</svg>