<?xml version="1.0" encoding="UTF-8"?>
<svg width="80px" height="80px" viewBox="0 0 80 80" version="1.1" xmlns="http://www.w3.org/2000/svg" xmlns:xlink="http://www.w3.org/1999/xlink">
    <!-- Generator: sketchtool 53.2 (72643) - https://sketchapp.com -->
    <title>CCC91D70-CB91-40F5-AC98-C4DB5FC16F65</title>
    <desc>Created with sketchtool.</desc>
    <g id="Account" stroke="none" stroke-width="1" fill="none" fill-rule="evenodd">
        <g id="Account-/-Home-/-Modal---Update-LRP" transform="translate(-680.000000, -339.000000)" fill="#354657">
            <g id="Global-Components-/-Desktop-/-Modals-/-Exit" transform="translate(395.000000, 286.000000)">
                <g id="Icons-/-Ecommerce-/-Loyalty-Order-/-Body-Blue" transform="translate(285.000000, 53.000000)">
                    <path d="M40,0 C31.04,0 22.3466667,2.98666667 15.3333333,8.50666667 L15.3333333,5.33333333 C15.3333333,4.24 14.4266667,3.33333333 13.3333333,3.33333333 C12.24,3.33333333 11.3333333,4.24 11.3333333,5.33333333 L11.3333333,13.3333333 C11.3333333,14.4266667 12.24,15.3333333 13.3333333,15.3333333 L21.3333333,15.3333333 C22.4266667,15.3333333 23.3333333,14.4266667 23.3333333,13.3333333 C23.3333333,12.24 22.4266667,11.3333333 21.3333333,11.3333333 L18.24,11.3333333 C24.48,6.58666667 32.1066667,4 40,4 C59.84,4 76,20.16 76,40 C76,44.3466667 75.2266667,48.5866667 73.7333333,52.64 C73.3333333,53.6533333 73.8666667,54.8266667 74.88,55.2 C75.12,55.28 75.36,55.3333333 75.6,55.3333333 C76.4,55.3333333 77.1733333,54.8266667 77.4666667,54.0266667 C79.1466667,49.5466667 80,44.8266667 80,40 C80,17.9466667 62.0533333,0 40,0 L40,0 Z M66.6666667,64.6666667 L58.6666667,64.6666667 C57.5733333,64.6666667 56.6666667,65.5733333 56.6666667,66.6666667 C56.6666667,67.76 57.5733333,68.6666667 58.6666667,68.6666667 L61.7866667,68.6666667 C55.52,73.44 47.92,76 40,76 C20.16,76 4,59.84 4,40 C4,35.6533333 4.77333333,31.4133333 6.26666667,27.36 C6.66666667,26.3466667 6.13333333,25.1733333 5.12,24.8 C4.05333333,24.4 2.90666667,24.9333333 2.53333333,25.9733333 C0.853333333,30.4533333 0,35.1733333 0,40 C0,62.0533333 17.9466667,80 40,80 C49.0133333,80 57.6533333,76.9866667 64.6666667,71.4666667 L64.6666667,74.6666667 C64.6666667,75.76 65.5733333,76.6666667 66.6666667,76.6666667 C67.76,76.6666667 68.6666667,75.76 68.6666667,74.6666667 L68.6666667,66.6666667 C68.6666667,65.5733333 67.76,64.6666667 66.6666667,64.6666667 L66.6666667,64.6666667 Z M41.04,56.96 L40.88,56.88 C40.8533333,56.8533333 40.8,56.8533333 40.7733333,56.8533333 C40.6666667,56.7733333 40.56,56.7466667 40.4533333,56.72 C40.16,56.64 39.84,56.64 39.5466667,56.72 C39.44,56.7466667 39.3333333,56.7733333 39.2266667,56.8533333 C39.12,56.8533333 39.04,56.9066667 38.96,56.96 L31.9466667,60.4533333 L33.7866667,49.4133333 C35.7066667,50.2133333 37.7866667,50.6666667 40,50.6666667 C42.2133333,50.6666667 44.2933333,50.2133333 46.2133333,49.4133333 L48.0533333,60.4533333 L41.04,56.96 Z M28,34.6666667 C28,28.0533333 33.3866667,22.6666667 40,22.6666667 C46.6133333,22.6666667 52,28.0533333 52,34.6666667 C52,41.28 46.6133333,46.6666667 40,46.6666667 C33.3866667,46.6666667 28,41.28 28,34.6666667 L28,34.6666667 Z M49.9733333,47.68 C49.9466667,47.52 49.8933333,47.3866667 49.8666667,47.2533333 C53.6,44.32 56,39.7866667 56,34.6666667 C56,25.84 48.8266667,18.6666667 40,18.6666667 C31.1733333,18.6666667 24,25.84 24,34.6666667 C24,39.7866667 26.4,44.32 30.1333333,47.2533333 C30.1066667,47.3866667 30.0533333,47.52 30.0266667,47.68 L27.4133333,63.44 C27.36,63.6 27.3333333,63.76 27.3333333,63.92 L27.3333333,64.0266667 C27.3333333,64.16 27.36,64.2933333 27.3866667,64.4266667 C27.4133333,64.5866667 27.4666667,64.7466667 27.5466667,64.88 C27.6266667,65.04 27.7066667,65.1733333 27.8133333,65.3066667 C27.84,65.3333333 27.8666667,65.3333333 27.8666667,65.36 C27.9733333,65.4933333 28.1066667,65.5733333 28.24,65.68 C28.2666667,65.7066667 28.32,65.7066667 28.3466667,65.7333333 C28.48,65.8133333 28.64,65.8933333 28.8,65.92 C28.96,65.9733333 29.1466667,66 29.3333333,66 C29.6266667,66 29.9466667,65.92 30.2133333,65.7866667 L30.4,65.7066667 L40,60.9066667 L49.6,65.7066667 L49.7866667,65.7866667 C50.0533333,65.92 50.3733333,66 50.6666667,66 C50.7733333,66 50.88,66 50.9866667,65.9733333 C51.0666667,65.9733333 51.1466667,65.9466667 51.2,65.92 C51.36,65.8933333 51.52,65.8133333 51.6533333,65.7333333 C51.68,65.7066667 51.7333333,65.7066667 51.76,65.68 C51.8933333,65.5733333 52.0266667,65.4933333 52.1333333,65.36 C52.1333333,65.3333333 52.16,65.3333333 52.1866667,65.3066667 C52.2933333,65.1733333 52.3733333,65.04 52.4533333,64.88 C52.5333333,64.7466667 52.5866667,64.5866667 52.6133333,64.4266667 C52.64,64.2933333 52.6666667,64.16 52.6666667,64.0266667 L52.6666667,63.92 C52.6666667,63.76 52.64,63.6 52.5866667,63.44 L49.9733333,47.68 Z M52.6666667,14.6666667 C52.6666667,13.5626667 51.7706667,12.6666667 50.6666667,12.6666667 L29.3333333,12.6666667 C28.2293333,12.6666667 27.3333333,13.5626667 27.3333333,14.6666667 C27.3333333,15.7706667 28.2293333,16.6666667 29.3333333,16.6666667 L50.6666667,16.6666667 C51.7706667,16.6666667 52.6666667,15.7706667 52.6666667,14.6666667 L52.6666667,14.6666667 Z M52.6666667,63.92 C52.6666667,63.76 52.64,63.6 52.5866667,63.44 L52.64,63.68 C52.6666667,63.76 52.6666667,63.84 52.6666667,63.92 L52.6666667,63.92 Z M28.8,65.92 C28.8533333,65.9466667 28.9333333,65.9733333 29.0133333,65.9733333 C29.12,66 29.2266667,66 29.3333333,66 C29.1466667,66 28.96,65.9733333 28.8,65.92 L28.8,65.92 Z M27.36,63.68 L27.4133333,63.44 C27.36,63.6 27.3333333,63.76 27.3333333,63.92 C27.3333333,63.84 27.3333333,63.76 27.36,63.68 L27.36,63.68 Z" id="Icons-/-Loyalty-Order-/-Body-Blue"></path>
                </g>
            </g>
        </g>
    </g>
</svg>