<?xml version="1.0" encoding="UTF-8"?>
<svg width="30px" height="30px" viewBox="0 0 30 30" version="1.1" xmlns="http://www.w3.org/2000/svg" xmlns:xlink="http://www.w3.org/1999/xlink">
    <!-- Generator: sketchtool 53.2 (72643) - https://sketchapp.com -->
    <title>AC254207-FA1A-4BB6-B184-1438BE0EB1B4</title>
    <desc>Created with sketchtool.</desc>
    <g id="Symbols" stroke="none" stroke-width="1" fill="none" fill-rule="evenodd">
        <g id="Icons-/-Supportive-/-Payment-Type-/-Generic">
            <g>
                <polygon id="Fill-7" points="0 30 30 30 30 0 0 0"></polygon>
                <path d="M14.5,16.375 L8.5,16.375 C8.293,16.375 8.125,16.207 8.125,16 C8.125,15.793 8.293,15.625 8.5,15.625 L14.5,15.625 C14.707,15.625 14.875,15.793 14.875,16 C14.875,16.207 14.707,16.375 14.5,16.375 L14.5,16.375 Z M23,19.83 C23,20.061 22.81,20.25 22.58,20.25 L7.42,20.25 C7.19,20.25 7,20.061 7,19.83 L7,14 L23,14 L23,19.83 Z M7,10.17 C7,9.939 7.19,9.75 7.42,9.75 L22.58,9.75 C22.81,9.75 23,9.939 23,10.17 L23,12 L7,12 L7,10.17 Z M22.58,8.75 L7.42,8.75 C6.64,8.75 6,9.391 6,10.17 L6,19.83 C6,20.609 6.64,21.25 7.42,21.25 L22.58,21.25 C23.36,21.25 24,20.609 24,19.83 L24,10.17 C24,9.391 23.36,8.75 22.58,8.75 L22.58,8.75 Z" id="Fill-8" fill="#354657"></path>
            </g>
        </g>
    </g>
</svg>