<?xml version="1.0" encoding="UTF-8"?>
<svg width="100px" height="100px" viewBox="0 0 100 100" version="1.1" xmlns="http://www.w3.org/2000/svg" xmlns:xlink="http://www.w3.org/1999/xlink">
    <!-- Generator: sketchtool 53.2 (72643) - https://sketchapp.com -->
    <title>B7D94729-311A-49A3-B8EC-F5947B6195D4</title>
    <desc>Created with sketchtool.</desc>
    <g id="LRP-Create" stroke="none" stroke-width="1" fill="none" fill-rule="evenodd">
        <g id="LRP-Create-/-Feature-Page" transform="translate(-223.000000, -1443.000000)" fill="#BD8BCA">
            <g id="Group-29" transform="translate(60.000000, 1270.000000)">
                <g id="Group-28" transform="translate(0.000000, 88.000000)">
                    <g id="Group-25">
                        <g id="Group-23" transform="translate(163.000000, 85.000000)">
                            <g id="Icons-/-Ecommerce-/-Loyalty-Order-/-Purple">
                                <path d="M50,0 C38.8,0 27.9333333,3.73333333 19.1666667,10.6333333 L19.1666667,6.66666667 C19.1666667,5.3 18.0333333,4.16666667 16.6666667,4.16666667 C15.3,4.16666667 14.1666667,5.3 14.1666667,6.66666667 L14.1666667,16.6666667 C14.1666667,18.0333333 15.3,19.1666667 16.6666667,19.1666667 L26.6666667,19.1666667 C28.0333333,19.1666667 29.1666667,18.0333333 29.1666667,16.6666667 C29.1666667,15.3 28.0333333,14.1666667 26.6666667,14.1666667 L22.8,14.1666667 C30.6,8.23333333 40.1333333,5 50,5 C74.8,5 95,25.2 95,50 C95,55.4333333 94.0333333,60.7333333 92.1666667,65.8 C91.6666667,67.0666667 92.3333333,68.5333333 93.6,69 C93.9,69.1 94.2,69.1666667 94.5,69.1666667 C95.5,69.1666667 96.4666667,68.5333333 96.8333333,67.5333333 C98.9333333,61.9333333 100,56.0333333 100,50 C100,22.4333333 77.5666667,0 50,0 L50,0 Z M83.3333333,80.8333333 L73.3333333,80.8333333 C71.9666667,80.8333333 70.8333333,81.9666667 70.8333333,83.3333333 C70.8333333,84.7 71.9666667,85.8333333 73.3333333,85.8333333 L77.2333333,85.8333333 C69.4,91.8 59.9,95 50,95 C25.2,95 5,74.8 5,50 C5,44.5666667 5.96666667,39.2666667 7.83333333,34.2 C8.33333333,32.9333333 7.66666667,31.4666667 6.4,31 C5.06666667,30.5 3.63333333,31.1666667 3.16666667,32.4666667 C1.06666667,38.0666667 0,43.9666667 0,50 C0,77.5666667 22.4333333,100 50,100 C61.2666667,100 72.0666667,96.2333333 80.8333333,89.3333333 L80.8333333,93.3333333 C80.8333333,94.7 81.9666667,95.8333333 83.3333333,95.8333333 C84.7,95.8333333 85.8333333,94.7 85.8333333,93.3333333 L85.8333333,83.3333333 C85.8333333,81.9666667 84.7,80.8333333 83.3333333,80.8333333 L83.3333333,80.8333333 Z M51.3,71.2 L51.1,71.1 C51.0666667,71.0666667 51,71.0666667 50.9666667,71.0666667 C50.8333333,70.9666667 50.7,70.9333333 50.5666667,70.9 C50.2,70.8 49.8,70.8 49.4333333,70.9 C49.3,70.9333333 49.1666667,70.9666667 49.0333333,71.0666667 C48.9,71.0666667 48.8,71.1333333 48.7,71.2 L39.9333333,75.5666667 L42.2333333,61.7666667 C44.6333333,62.7666667 47.2333333,63.3333333 50,63.3333333 C52.7666667,63.3333333 55.3666667,62.7666667 57.7666667,61.7666667 L60.0666667,75.5666667 L51.3,71.2 Z M35,43.3333333 C35,35.0666667 41.7333333,28.3333333 50,28.3333333 C58.2666667,28.3333333 65,35.0666667 65,43.3333333 C65,51.6 58.2666667,58.3333333 50,58.3333333 C41.7333333,58.3333333 35,51.6 35,43.3333333 L35,43.3333333 Z M62.4666667,59.6 C62.4333333,59.4 62.3666667,59.2333333 62.3333333,59.0666667 C67,55.4 70,49.7333333 70,43.3333333 C70,32.3 61.0333333,23.3333333 50,23.3333333 C38.9666667,23.3333333 30,32.3 30,43.3333333 C30,49.7333333 33,55.4 37.6666667,59.0666667 C37.6333333,59.2333333 37.5666667,59.4 37.5333333,59.6 L34.2666667,79.3 C34.2,79.5 34.1666667,79.7 34.1666667,79.9 L34.1666667,80.0333333 C34.1666667,80.2 34.2,80.3666667 34.2333333,80.5333333 C34.2666667,80.7333333 34.3333333,80.9333333 34.4333333,81.1 C34.5333333,81.3 34.6333333,81.4666667 34.7666667,81.6333333 C34.8,81.6666667 34.8333333,81.6666667 34.8333333,81.7 C34.9666667,81.8666667 35.1333333,81.9666667 35.3,82.1 C35.3333333,82.1333333 35.4,82.1333333 35.4333333,82.1666667 C35.6,82.2666667 35.8,82.3666667 36,82.4 C36.2,82.4666667 36.4333333,82.5 36.6666667,82.5 C37.0333333,82.5 37.4333333,82.4 37.7666667,82.2333333 L38,82.1333333 L50,76.1333333 L62,82.1333333 L62.2333333,82.2333333 C62.5666667,82.4 62.9666667,82.5 63.3333333,82.5 C63.4666667,82.5 63.6,82.5 63.7333333,82.4666667 C63.8333333,82.4666667 63.9333333,82.4333333 64,82.4 C64.2,82.3666667 64.4,82.2666667 64.5666667,82.1666667 C64.6,82.1333333 64.6666667,82.1333333 64.7,82.1 C64.8666667,81.9666667 65.0333333,81.8666667 65.1666667,81.7 C65.1666667,81.6666667 65.2,81.6666667 65.2333333,81.6333333 C65.3666667,81.4666667 65.4666667,81.3 65.5666667,81.1 C65.6666667,80.9333333 65.7333333,80.7333333 65.7666667,80.5333333 C65.8,80.3666667 65.8333333,80.2 65.8333333,80.0333333 L65.8333333,79.9 C65.8333333,79.7 65.8,79.5 65.7333333,79.3 L62.4666667,59.6 Z M65.8333333,18.3333333 C65.8333333,16.9533333 64.7133333,15.8333333 63.3333333,15.8333333 L36.6666667,15.8333333 C35.2866667,15.8333333 34.1666667,16.9533333 34.1666667,18.3333333 C34.1666667,19.7133333 35.2866667,20.8333333 36.6666667,20.8333333 L63.3333333,20.8333333 C64.7133333,20.8333333 65.8333333,19.7133333 65.8333333,18.3333333 L65.8333333,18.3333333 Z M65.8333333,79.9 C65.8333333,79.7 65.8,79.5 65.7333333,79.3 L65.8,79.6 C65.8333333,79.7 65.8333333,79.8 65.8333333,79.9 L65.8333333,79.9 Z M36,82.4 C36.0666667,82.4333333 36.1666667,82.4666667 36.2666667,82.4666667 C36.4,82.5 36.5333333,82.5 36.6666667,82.5 C36.4333333,82.5 36.2,82.4666667 36,82.4 L36,82.4 Z M34.2,79.6 L34.2666667,79.3 C34.2,79.5 34.1666667,79.7 34.1666667,79.9 C34.1666667,79.8 34.1666667,79.7 34.2,79.6 L34.2,79.6 Z" id="Icons-/-Loyalty-Order-/-Purple"></path>
                            </g>
                        </g>
                    </g>
                </g>
            </g>
        </g>
    </g>
</svg>