<?xml version="1.0" encoding="UTF-8"?>
<svg width="70px" height="70px" viewBox="0 0 70 70" version="1.1" xmlns="http://www.w3.org/2000/svg" xmlns:xlink="http://www.w3.org/1999/xlink">
    <!-- Generator: sketchtool 54.1 (76490) - https://sketchapp.com -->
    <title>D8C50614-163D-4FF4-96C5-F79C177624E4</title>
    <desc>Created with sketchtool.</desc>
    <g id="RWP---Replicated-Site" stroke="none" stroke-width="1" fill="none" fill-rule="evenodd">
        <g id="RWP---Landing" transform="translate(-685.000000, -3528.000000)" fill="#BD8BCA">
            <g id="Group-21-Copy" transform="translate(0.000000, 3408.000000)">
                <g id="Group-6" transform="translate(395.000000, 60.000000)">
                    <g id="Group-39" transform="translate(290.000000, 60.000000)">
                        <g id="Icons-/-Navigation-/-My-Account-/-Circle-/-Outline-/-Purple">
                            <path d="M35,16.9166667 C31.4603333,16.9166667 28.5833333,19.7936667 28.5833333,23.3333333 C28.5833333,26.873 31.4603333,29.75 35,29.75 C38.5396667,29.75 41.4166667,26.873 41.4166667,23.3333333 C41.4166667,19.7936667 38.5396667,16.9166667 35,16.9166667 L35,16.9166667 Z M35,33.25 C29.533,33.25 25.0833333,28.8026667 25.0833333,23.3333333 C25.0833333,17.864 29.533,13.4166667 35,13.4166667 C40.467,13.4166667 44.9166667,17.864 44.9166667,23.3333333 C44.9166667,28.8026667 40.467,33.25 35,33.25 L35,33.25 Z M34.9976667,37.919 C32.0786667,37.919 27.58,38.4766667 23.695,40.04 C21.5996667,40.8846667 18.0833333,42.7186667 18.0833333,45.5 L18.0833333,47.8333333 C18.0833333,48.1506667 18.3493333,48.4166667 18.6666667,48.4166667 L51.3333333,48.4166667 C51.6506667,48.4166667 51.9166667,48.1506667 51.9166667,47.8333333 L51.9166667,45.5 C51.9166667,40.803 42.0653333,37.919 35.0046667,37.919 L34.9976667,37.919 Z M51.3333333,51.9166667 L18.6666667,51.9166667 C16.415,51.9166667 14.5833333,50.085 14.5833333,47.8333333 L14.5833333,45.5 C14.5833333,37.1256667 28.3406667,34.4166667 35.0046667,34.4166667 L35.0046667,34.419 C41.664,34.419 55.4166667,37.128 55.4166667,45.5 L55.4166667,47.8333333 C55.4166667,50.085 53.585,51.9166667 51.3333333,51.9166667 L51.3333333,51.9166667 Z M35,0 C15.6706667,0 0,15.6706667 0,35 C0,54.3293333 15.6706667,70 35,70 C54.3293333,70 70,54.3293333 70,35 C70,15.6706667 54.3293333,0 35,0 L35,0 Z M35,3.5 C52.3693333,3.5 66.5,17.6306667 66.5,35 C66.5,52.3693333 52.3693333,66.5 35,66.5 C17.6306667,66.5 3.5,52.3693333 3.5,35 C3.5,17.6306667 17.6306667,3.5 35,3.5 L35,3.5 Z" id="Icons-/-My-Account-/-Circle-/-Outline-/-Purple"></path>
                        </g>
                    </g>
                </g>
            </g>
        </g>
    </g>
</svg>