<?xml version="1.0" encoding="UTF-8"?>
<svg width="30px" height="30px" viewBox="0 0 30 30" version="1.1" xmlns="http://www.w3.org/2000/svg" xmlns:xlink="http://www.w3.org/1999/xlink">
    <!-- Generator: sketchtool 53.2 (72643) - https://sketchapp.com -->
    <title>CE730A1C-B4F0-4427-8776-C0DBE34E7711</title>
    <desc>Created with sketchtool.</desc>
    <g id="Symbols" stroke="none" stroke-width="1" fill="none" fill-rule="evenodd">
        <g id="Icons-/-Supportive-/-Star-/-Normal-/-Purple">
            <g id="Icons-/-Star-/-Normal-/-Purple">
                <polygon id="Fill-20" points="0 30 30 30 30 0 0 0"></polygon>
                <path d="M15,5 L11.91,11.254 L5,12.258 L10,17.126 L8.82,24 L15,20.754 L21.181,24 L20,17.126 L25,12.258 L18.09,11.254 L15,5 Z M15,8.387 L16.745,11.919 L17.095,12.626 L17.875,12.739 L21.774,13.305 L18.953,16.051 L18.388,16.602 L18.521,17.38 L19.187,21.26 L15.697,19.427 L15,19.061 L14.303,19.427 L10.812,21.26 L11.479,17.38 L11.612,16.602 L11.046,16.051 L8.226,13.305 L12.125,12.739 L12.905,12.626 L13.255,11.919 L15,8.387 Z" id="Fill-22" fill="#BD8BCA"></path>
            </g>
        </g>
    </g>
</svg>