<?xml version="1.0" encoding="UTF-8"?>
<svg width="30px" height="30px" viewBox="0 0 30 30" version="1.1" xmlns="http://www.w3.org/2000/svg" xmlns:xlink="http://www.w3.org/1999/xlink">
    <!-- Generator: sketchtool 54.1 (76490) - https://sketchapp.com -->
    <title>0F60A2D7-C64D-4891-A81B-6D4159CDA736</title>
    <desc>Created with sketchtool.</desc>
    <g id="Symbols" stroke="none" stroke-width="1" fill="none" fill-rule="evenodd">
        <g id="Icons-/-Supportive-/-Team-/-Purple">
            <g id="Icons-/-Team-/-Default-/-Purple">
                <polygon id="Fill-1" points="0 30 30 30 30 0 0 0"></polygon>
                <path d="M26.3799,17.5195 L26.3799,16.7805 C26.3799,15.3795 23.1909,14.4805 20.9999,14.4805 C20.0599,14.4805 18.6299,14.6505 17.3899,15.1395 C17.1799,15.2195 16.9099,15.3395 16.6599,15.4905 C16.9299,15.5805 17.1909,15.6795 17.4499,15.7805 C18.5399,16.2195 19.5099,16.8205 20.1099,17.6205 L26.2499,17.6205 C26.3199,17.6205 26.3799,17.5705 26.3799,17.5195 Z M19.2499,19.4995 C19.2499,19.2805 19.1999,19.0805 19.0999,18.8795 C18.8899,18.4005 18.4299,17.9805 17.8099,17.6205 C17.1909,17.2595 16.4299,16.9695 15.6199,16.7495 C15.2199,16.6395 14.8099,16.5495 14.3999,16.4805 C13.5899,16.3305 12.7599,16.2495 11.9999,16.2495 C10.7499,16.2495 8.8199,16.4905 7.1599,17.1605 C6.2599,17.5195 4.7499,18.3105 4.7499,19.4995 L4.7499,20.4995 C4.7499,20.6395 4.8599,20.7495 4.9999,20.7495 L18.9999,20.7495 C19.1399,20.7495 19.2499,20.6395 19.2499,20.4995 L19.2499,19.4995 Z M20.9999,13.2305 C23.1599,13.2305 27.6199,14.0895 27.6199,16.7805 L27.6199,17.5195 C27.6199,18.2695 27.0099,18.8795 26.2499,18.8795 L20.6799,18.8795 C20.7309,19.0805 20.7499,19.2905 20.7499,19.4995 L20.7499,20.4995 C20.7499,21.4595 19.9599,22.2495 18.9999,22.2495 L4.9999,22.2495 C4.0399,22.2495 3.2499,21.4595 3.2499,20.4995 L3.2499,19.4995 C3.2499,15.9105 9.1499,14.7495 11.9999,14.7495 C12.8499,14.7495 13.9599,14.8495 15.1099,15.0895 C16.4699,13.7095 19.3799,13.2195 20.9999,13.2195 L20.9999,13.2305 Z M12,7.25 C10.483,7.25 9.25,8.483 9.25,10 C9.25,11.517 10.483,12.75 12,12.75 C13.517,12.75 14.75,11.517 14.75,10 C14.75,8.483 13.517,7.25 12,7.25 Z M12,14.25 C9.657,14.25 7.75,12.344 7.75,10 C7.75,7.656 9.657,5.75 12,5.75 C14.343,5.75 16.25,7.656 16.25,10 C16.25,12.344 14.343,14.25 12,14.25 Z M21,7.9414 C19.967,7.9414 19.125,8.7824 19.125,9.8164 C19.125,10.8504 19.967,11.6914 21,11.6914 C22.033,11.6914 22.875,10.8504 22.875,9.8164 C22.875,8.7824 22.033,7.9414 21,7.9414 Z M21,12.9414 C19.277,12.9414 17.875,11.5394 17.875,9.8164 C17.875,8.0934 19.277,6.6914 21,6.6914 C22.723,6.6914 24.125,8.0934 24.125,9.8164 C24.125,11.5394 22.723,12.9414 21,12.9414 Z" id="Combined-Shape" fill="#BD8BCA"></path>
            </g>
        </g>
    </g>
</svg>