<?xml version="1.0" encoding="UTF-8"?>
<svg width="90px" height="97px" viewBox="0 0 90 97" version="1.1" xmlns="http://www.w3.org/2000/svg" xmlns:xlink="http://www.w3.org/1999/xlink">
    <!-- Generator: Sketch 53.2 (72643) - https://sketchapp.com -->
    <title>Group 8 Copy</title>
    <desc>Created with Sketch.</desc>
    <defs>
        <polygon id="path-1" points="0 0 89.9804565 0 89.9804565 42.8496301 0 42.8496301"></polygon>
    </defs>
    <g id="Page-1" stroke="none" stroke-width="1" fill="none" fill-rule="evenodd">
        <g id="Product-Detail-/-Lavender" transform="translate(-905.000000, -7069.000000)">
            <g id="Group-19" transform="translate(0.000000, 6417.000000)">
                <g id="Did-you-know?">
                    <g id="facts" transform="translate(845.000000, 39.968032)">
                        <g id="Group-46">
                            <g id="Group-44" transform="translate(60.000000, 613.000000)">
                                <g id="Group-8-Copy">
                                    <path d="M26.8100289,28.1978017 C27.7096569,28.1285191 28.426234,27.3798199 28.4373956,26.4590315 L28.555709,17.8501076 C28.555709,17.7942345 28.5244564,12.0326027 32.6274742,7.86670595 C35.455833,4.99482972 39.6168913,3.53989476 44.994568,3.53989476 C50.3543861,3.53989476 54.5042828,4.9836551 57.3304093,7.83765195 C61.4244977,11.9700248 61.4289624,17.7987044 61.4289624,17.8992759 L61.5383464,26.4567966 C61.5495081,27.3708802 62.2794791,28.1173445 63.1724101,28.1978017 C63.2706325,28.4749322 63.4135014,29.1722282 63.4135014,30.8864143 C63.4135014,34.6477899 61.065093,38.9075534 58.7457048,41.1715305 C58.5068458,41.4061975 58.3394212,41.7012073 58.2612898,42.0275061 C57.67642,44.4814517 55.3972137,48.3769227 54.5377677,49.8430323 C54.4216866,50.0419405 54.2788177,50.287782 54.1560397,50.5537379 L54.151575,50.551503 L53.6894833,51.2666784 C51.4906408,53.9709354 47.9613311,55.5353816 44.4922943,55.3454131 C41.1505002,55.1621494 37.8846052,53.3161029 35.9915916,50.5604426 C35.0138322,49.0608092 32.3395039,44.6043725 31.7233816,42.0252712 C31.6474824,41.7012073 31.4778255,41.4061975 31.2389665,41.1715305 C28.9195783,38.9075534 26.5734022,34.6477899 26.5734022,30.8886492 C26.5734022,29.1766981 26.7140389,28.479402 26.8100289,28.1978017 M33.056081,52.5316449 C35.578611,56.2080934 39.8847706,58.6396898 44.2980819,58.8810615 C44.5503348,58.8922361 44.8025878,58.9011758 45.0526085,58.9011758 C49.3900207,58.9011758 53.6984126,56.8673957 56.5357007,53.3630363 L57.1004795,52.5070607 C57.165217,52.4064892 57.2210252,52.3014478 57.2634394,52.1941715 C57.3304093,52.0779555 57.444258,51.8857521 57.5915916,51.6309708 C58.5537247,49.9883023 60.7369409,46.2582156 61.569599,43.3461108 C64.2260686,40.5703362 66.9495081,35.6378609 66.9495081,30.8864143 C66.9495081,28.4145893 66.7262753,26.6601746 65.6168086,25.5628274 C65.4717073,25.4175574 65.2864241,25.2655826 65.0587267,25.1247824 L64.964969,17.9015108 C64.9694337,17.606501 65.0073832,10.5910773 59.8774948,5.3792365 C56.3593468,1.80782933 51.3544688,-0.000223492314 44.9923357,-0.000223492314 C38.6324349,-0.000223492314 33.6230922,1.80782933 30.1094088,5.3792365 C24.9772881,10.5866074 25.0152377,17.606501 25.0197024,17.8501076 L24.9192476,25.1247824 C24.6937826,25.2655826 24.5107317,25.4175574 24.3656304,25.5583575 C23.258396,26.6557048 23.0373956,28.4123544 23.0373956,30.8886492 C23.0373956,35.6378609 25.7608351,40.5703362 28.4150723,43.3461108 C29.4888218,47.0449086 32.8819595,52.2701588 33.056081,52.5316449" id="Fill-1" fill="#B298C7"></path>
                                    <path d="M64.1557503,77.4512613 C64.1557503,79.7465274 65.9215213,81.6149231 68.0891112,81.6149231 C70.2567011,81.6149231 72.0202398,79.7465274 72.0202398,77.4512613 C72.0202398,75.1604651 70.2567011,73.2920694 68.0891112,73.2920694 C65.9215213,73.2920694 64.1557503,75.1604651 64.1557503,77.4512613" id="Fill-3" fill="#B298C7"></path>
                                    <g id="Group-7" transform="translate(0.000000, 52.250357)">
                                        <mask id="mask-2" fill="white">
                                            <use xlink:href="#path-1"></use>
                                        </mask>
                                        <g id="Clip-6"></g>
                                        <path d="M89.8362216,31.8663394 C89.7201406,31.0237734 89.5906656,30.1677978 89.4388673,29.347581 C88.7758661,25.2844907 87.6195205,21.5119405 85.9542042,18.0187556 C85.2153038,16.4543094 84.3938074,15.0083142 83.5053411,13.7098238 C82.032005,11.5777071 80.1747086,9.81435278 78.2749979,8.74605952 C76.2993882,7.63977257 73.1406449,6.15131376 70.0042249,4.7455471 L70.1270029,6.30775838 C70.1939727,6.50219669 70.2118313,6.70557469 70.2743365,6.90224793 C70.5087309,7.6621218 70.700711,8.42870043 70.8391153,9.19974892 C71.348086,12.0425711 71.1784291,14.9390315 70.3971145,17.7237458 C73.3795039,18.7607501 75.5560232,21.699674 75.5560232,25.2017986 C75.5560232,29.5621336 72.207532,33.1067217 68.088888,33.1067217 C63.9702439,33.1067217 60.6195205,29.5621336 60.6195205,25.2017986 C60.6195205,21.3197371 63.2826871,18.1014478 66.7718148,17.4399105 C67.8790492,14.1791577 67.9080695,10.6546839 66.7316329,7.38722625 C66.7271683,7.37381671 66.7271683,7.36040717 66.7249359,7.34699764 C66.6735924,7.19502286 66.6334105,7.03857824 66.6222489,6.87542885 L66.4927739,5.21711588 L66.3275816,3.12075798 C63.0014138,1.67252779 60.3270856,0.559536066 60.0859942,0.458964525 C59.2555684,0.114786362 58.3112939,0.481313756 57.8849194,1.31270516 L56.6638363,3.70630784 C54.5386606,7.86102996 51.7236957,11.5039547 48.2948408,14.5300406 L44.6829351,17.7148061 L41.075494,14.5322755 C37.6444068,11.5039547 34.8294419,7.86102996 32.7064986,3.701838 L31.4854155,1.31270516 C31.0568086,0.467904218 30.0924432,0.0902022073 29.2575527,0.472374064 C29.0231583,0.572945605 26.3778504,1.73063579 23.1052584,3.21462475 C23.1342786,3.34872014 23.1811575,3.47387584 23.1811575,3.614676 L23.1811575,5.21935081 L23.1811575,7.25760071 L23.1811575,15.3502574 L24.5607358,16.1570646 C28.7039355,18.5752515 31.3001323,22.9557008 31.3291525,27.5864616 L31.3313849,31.4864024 C31.3313849,32.5211719 30.541141,33.3570331 29.5633816,33.3570331 L24.2080281,33.3570331 C23.2302687,33.3570331 22.4400248,32.5211719 22.4400248,31.4864024 C22.4400248,30.451633 23.2302687,29.6135369 24.2080281,29.6135369 L27.7953783,29.6135369 L27.7953783,27.689268 C27.7708227,24.3324135 25.877809,21.1990512 22.8530054,19.4356969 L21.4131542,18.5976007 L19.9755353,19.4356969 C16.9484994,21.1990512 15.0554857,24.3324135 15.0331625,27.6155156 L15.0331625,29.6135369 L18.6182803,29.6135369 C19.5960397,29.6135369 20.3862836,30.451633 20.3862836,31.4864024 C20.3862836,32.5211719 19.5960397,33.3570331 18.6182803,33.3570331 L13.2651592,33.3570331 C12.2873998,33.3570331 11.4971558,32.5211719 11.4971558,31.4864024 L11.4971558,27.689268 C11.5284084,22.9534659 14.1223729,18.5730166 18.2655726,16.1570646 L19.6451509,15.3524923 L19.6451509,8.90473906 L19.6451509,6.85531454 L19.6451509,4.80812495 C16.6649938,6.19824714 13.6580488,7.65765195 11.7136916,8.74605952 C9.82067797,9.80541309 7.96561389,11.5687674 6.48558082,13.7165286 C5.53684167,15.099946 4.66623398,16.6442779 3.80902026,18.4947942 L3.527747,19.1384521 C2.13700703,22.2941636 1.13022737,25.7582944 0.538660604,29.4213335 C0.534195949,29.4392128 0.485084746,29.7409275 0.480620091,29.754337 L0.402488632,30.2303756 C0.313195535,30.7801667 0.223902439,31.3210181 0.148003307,31.8641045 C0.0832658123,32.3334383 0.0118313353,33.2229377 0.0118313353,33.8420114 C0.00736668045,33.913529 0.00513435304,33.9872814 0.00959900785,34.0565641 C-0.066300124,35.1986098 0.250690368,37.3374312 3.46300951,38.9935093 L6.45209591,40.0238088 C6.541389,40.0550978 6.63514675,40.077447 6.73113683,40.0953264 C19.4040595,42.1492207 32.1729723,43.1728155 44.9441174,43.1728155 C56.7598264,43.1728155 68.5777677,42.2944907 80.3153452,40.5378412 L83.1861182,40.0997962 C83.2218355,40.0953264 83.2530881,40.0953264 83.286573,40.0908565 C83.286573,40.0908565 83.7196445,40.0148691 84.3491608,39.8316054 L84.3558578,39.8293705 C84.3781811,39.8249007 84.398272,39.8226657 84.418363,39.815961 C89.2848367,38.4146642 90.0215048,35.8065089 89.9746259,34.1437261 C90.0081108,33.4017316 89.8942621,32.2753303 89.8362216,31.8663394" id="Fill-5" fill="#B298C7" mask="url(#mask-2)"></path>
                                    </g>
                                </g>
                            </g>
                        </g>
                    </g>
                </g>
            </g>
        </g>
    </g>
</svg>