<?xml version="1.0" encoding="UTF-8"?>
<svg width="80px" height="78px" viewBox="0 0 80 78" version="1.1" xmlns="http://www.w3.org/2000/svg" xmlns:xlink="http://www.w3.org/1999/xlink">
    <!-- Generator: Sketch 53.2 (72643) - https://sketchapp.com -->
    <title>Cleanse Icon</title>
    <desc>Created with Sketch.</desc>
    <g id="Page-1" stroke="none" stroke-width="1" fill="none" fill-rule="evenodd">
        <g id="Product-Detail-/-Verage" transform="translate(-848.000000, -4829.000000)">
            <g id="Group" transform="translate(60.000000, 4038.000000)">
                <g id="3" transform="translate(670.000000, 708.000000)">
                    <g id="Cleanse-Icon" transform="translate(118.000000, 85.000000)">
                        <g id="Group-3" transform="translate(0.000000, 42.337486)" fill="#364657">
                            <g id="Fill-1">
                                <path d="M39.9567127,21.1809271 C27.9279394,21.1809271 17.7681584,16.9700368 17.7681584,11.985414 C17.7681584,10.8124157 18.3385321,9.65677676 19.4640015,8.54329634 C19.7186326,8.29034533 20.0725699,8.15147026 20.4570628,8.15147026 C20.818639,8.15147026 21.1649373,8.27546586 21.4272073,8.50361775 L21.8906359,8.89544382 C22.2649437,9.2054328 22.3591572,9.57493967 22.374435,9.83037059 C22.3973518,10.2445159 22.226749,10.6735406 21.9059138,11.0033689 C21.5570692,11.3604762 21.3890127,11.7051839 21.3890127,12.0573314 C21.3890127,14.1999753 30.0897575,17.7412894 40.0050926,17.7412894 C49.9204278,17.7412894 58.6211726,14.1999753 58.6211726,12.0573314 C58.6211726,11.702704 58.4480234,11.3555164 58.0940862,10.9959292 C57.7630658,10.6586611 57.584824,10.2246766 57.6051945,9.80061165 C57.6204723,9.53774099 57.7172322,9.15583456 58.1017251,8.83344602 L58.4913107,8.50361775 C58.7510344,8.27794577 59.0947864,8.15395018 59.4589089,8.15395018 C59.8408556,8.15395018 60.1947928,8.29282524 60.4494239,8.54577625 C61.5748934,9.65677676 62.145267,10.8148956 62.145267,11.985414 C62.145267,16.9700368 51.985486,21.1809271 39.9567127,21.1809271 M40,33.5780065 C17.9438538,33.5780065 0,25.0024713 0,14.4628459 C0,9.03183897 4.96530651,3.81906425 13.622764,0.16119427 C13.8290152,0.0719174438 14.047998,0.0297589422 14.2720733,0.0297589422 C14.8704564,0.0297589422 15.3924502,0.344707748 15.6267108,0.853089678 C15.7336559,1.08372148 15.8431472,1.30939346 15.9577312,1.53506544 C16.135973,1.88969283 16.1614361,2.30879794 16.0239353,2.68078471 C15.8889808,3.04533176 15.6190719,3.33052162 15.2651346,3.48675607 C8.22203832,6.58416597 3.49099242,10.9959292 3.49099242,14.460366 C3.49099242,19.7698573 16.3625947,30.1011701 39.9567127,30.1011701 C63.553377,30.1011701 76.4249793,19.7698573 76.4249793,14.460366 C76.4249793,10.9959292 71.6939334,6.58416597 64.6508371,3.48675607 C64.2968999,3.33052162 64.0269909,3.04533176 63.8920364,2.68078471 C63.7545356,2.30383811 63.7774524,1.89713257 63.9582405,1.53754535 C64.0779171,1.29947381 64.1925011,1.06388219 64.3019925,0.823330735 C64.5362531,0.314948805 65.0557006,0 65.65663,0 C65.8807053,0 66.0996881,0.0446384134 66.3059393,0.131435328 C75.0066841,3.78930531 80,9.01199968 80,14.4628459 C80,25.0024713 62.0535998,33.5780065 40,33.5780065"></path>
                            </g>
                        </g>
                        <path d="M40.0094641,51.0969664 C29.1770496,51.0969664 20.3636364,43.1149274 20.3636364,33.3038754 C20.3636364,24.3451058 30.6558103,10.6935036 39.2901949,0.81909613 L40.0063094,0 L40.7176918,0.823621523 C49.3481331,10.8277569 59.6363636,24.5841974 59.6363636,33.3038754 C59.6363636,43.1149274 50.8316258,51.0969664 40.0094641,51.0969664" id="Path" fill-opacity="0.5" fill="#7FCFA4"></path>
                        <path d="M39.9968453,2.78236245 C28.5248176,16.0455351 22.220171,26.8627328 22.220171,33.3038754 C22.220171,42.1366883 30.2007463,49.3215039 40.0094641,49.3215039 C49.8087178,49.3215039 57.7806176,42.1366883 57.7806176,33.3038754 C57.7806176,26.9472068 51.6352829,16.4053038 39.9968453,2.78236245 M40.0094641,51.0969664 C29.1770496,51.0969664 20.3636364,43.1149274 20.3636364,33.3038754 C20.3636364,24.3451058 30.6558103,10.6935036 39.2901949,0.81909613 L40.0063094,0 L40.7176918,0.823621523 C49.3481331,10.8277569 59.6363636,24.5841974 59.6363636,33.3038754 C59.6363636,43.1149274 50.8316258,51.0969664 40.0094641,51.0969664" id="Fill-1" stroke="#364657" stroke-width="1.62162162" fill="#364657"></path>
                        <g id="Group-3" transform="translate(39.272727, 29.198267)" fill="#364657">
                            <path d="M7.4301552,11.4991739 C8.03633046,11.6168606 9.32040399,11.6793066 9.32040399,11.6793066 C10.5998502,11.6793066 11.6363636,10.6033141 11.6363636,9.27753772 C11.6363636,7.94935953 10.5998502,6.87576884 9.32040399,6.87576884 C9.32040399,6.87576884 8.10111254,6.76528747 7.55971938,6.56834242 C6.45611024,6.16244348 5.56535652,5.39147567 5.08411816,4.41875927 C4.8296171,3.9071825 4.66072094,2.77835112 4.66072094,2.77835112 C4.85969449,1.46698531 4.13320965,0.359769855 2.88615445,0.0619505131 C1.6414129,-0.235868829 0.396671354,0.568723748 0.107465604,1.86087541 C0.107465604,1.86087541 -0.186367438,2.63184322 0.197697798,4.54845479 C0.889477953,8.01901083 3.75145806,10.7858486 7.4301552,11.4991739" id="Fill-1" transform="translate(5.818182, 5.839653) scale(-1, 1) translate(-5.818182, -5.839653) "></path>
                        </g>
                    </g>
                </g>
            </g>
        </g>
    </g>
</svg>