<?xml version="1.0" encoding="UTF-8"?>
<svg width="8px" height="18px" viewBox="0 0 8 18" version="1.1" xmlns="http://www.w3.org/2000/svg" xmlns:xlink="http://www.w3.org/1999/xlink">
    <!-- Generator: sketchtool 53.2 (72643) - https://sketchapp.com -->
    <title>841A2B9F-E9B2-4F05-B1BC-72EA3A0F0989</title>
    <desc>Created with sketchtool.</desc>
    <g id="Symbols" stroke="none" stroke-width="1" fill="none" fill-rule="evenodd">
        <g id="Icons-/-Supportive-/-Oil-Bottle-/-Purple" transform="translate(-11.000000, -6.000000)" fill="#BD8BCA">
            <g id="bottle-placeholder">
                <path d="M18.0824832,10.3647697 C18.1170202,10.3807215 18.1380083,10.4031446 18.1402365,10.439837 C18.1571277,10.7189124 18.1753126,10.9979231 18.1918084,11.2769985 C18.1970914,11.3664321 18.1833988,11.3816073 18.0847473,11.3999858 C17.9498339,11.4251269 17.8144891,11.4486178 17.6792162,11.4723028 C17.6210676,11.4824951 17.6088125,11.492105 17.6140596,11.5433902 C17.6184441,11.5865538 17.627249,11.6298793 17.6398994,11.6717163 C17.6577968,11.7310906 17.6747239,11.7918563 17.7037982,11.8469595 C17.7303209,11.8971445 17.7619828,11.9470707 17.8211377,11.9775506 C17.864911,12.0001355 17.9025027,12.0322979 17.9441556,12.0586038 C17.9563747,12.0663371 17.9724752,12.0706405 17.9874975,12.0732614 C18.1752407,12.1060062 18.360001,12.147908 18.5341235,12.221325 C18.7509051,12.312797 18.9033926,12.4572368 18.9654945,12.6677486 C18.9884233,12.7455015 18.9999955,12.8283343 18.9999955,12.9088698 C19.0001034,13.5158143 18.9982705,14.1227913 18.9927719,14.7297682 C18.9851529,15.5734981 18.9750901,16.417228 18.9638054,17.260958 C18.9531316,18.0593887 18.9373186,18.8577547 18.9279027,19.6561855 C18.9199603,20.3251899 18.9207869,20.9942267 18.9122694,21.6632312 C18.906663,22.1044777 18.8916407,22.5456596 18.8798169,22.9867443 C18.8782356,23.046604 18.880895,23.1064636 18.8293591,23.1580077 C18.8085506,23.1788129 18.8122164,23.2192587 18.8043099,23.2506769 C18.7752715,23.3661251 18.6931518,23.4501875 18.5994599,23.5263225 C18.54088,23.5739837 18.4812219,23.6211273 18.417395,23.6626407 C18.3618698,23.6987183 18.3030743,23.7343105 18.2398224,23.7564748 C18.1280174,23.7956586 18.0145952,23.832448 17.891829,23.8390164 C17.8339678,23.8420579 17.7772208,23.8594334 17.7194315,23.8667783 C17.637204,23.8771324 17.5545812,23.8856099 17.4718865,23.8925989 C17.2303791,23.9131453 16.9887639,23.9325593 16.7471847,23.9523938 C16.5120385,23.9632009 16.2983835,23.9730697 16.0846567,23.9817736 C16.0172,23.9845563 15.9496354,23.9844268 15.8820708,23.9852681 C15.4655066,23.990704 15.0489064,24.0026436 14.632414,23.9994726 C14.2230734,23.9963988 13.8136969,23.9811588 13.4046078,23.96511 C13.1248259,23.9541087 12.8453674,23.9347595 12.5661604,23.9144719 C12.4695934,23.9074506 12.3743202,23.8861599 12.278436,23.8716318 C12.2390473,23.8656782 12.1995508,23.860307 12.1601262,23.8546446 C12.1096684,23.8474291 12.0588153,23.8417991 12.0087887,23.8326422 C11.8978822,23.8122899 11.7861851,23.7941702 11.6771833,23.7673466 C11.6014966,23.7487739 11.5296913,23.7174851 11.4564844,23.6911469 C11.3771679,23.6250424 11.3240147,23.5718806 11.2627394,23.527908 C11.1568284,23.4518053 11.0728758,23.3623394 11.0285276,23.2465029 C11.0045925,23.1841194 10.9953204,23.1202799 11.007252,23.0522988 C11.0181414,22.9903036 11.0149069,22.9259463 11.0138647,22.862754 C11.0097677,22.6130907 10.9988423,22.3633303 11.0001002,22.1136994 C11.0028675,21.5714679 11.0123912,21.0292365 11.0177101,20.4870375 C11.0274495,19.4996444 11.034134,18.5121865 11.0456344,17.5248258 C11.0609802,16.2139317 11.0790573,14.9030376 11.0975297,13.5922082 C11.1012314,13.3270138 11.1071253,13.0616899 11.1211773,12.7968513 C11.1317792,12.5975996 11.2222007,12.4243301 11.3901418,12.293739 C11.4983169,12.2096443 11.6329788,12.162339 11.7721331,12.1304678 C11.9000386,12.1011851 12.0286268,12.0742321 12.1562089,12.0439463 C12.210548,12.031036 12.2638449,12.0137253 12.3161356,11.9950555 C12.331697,11.9895226 12.3466475,11.9745415 12.3543024,11.9605311 C12.4055868,11.8667941 12.4583806,11.7735101 12.5032319,11.6772493 C12.5246873,11.6311735 12.5298624,11.57895 12.5433753,11.5257235 C12.4749842,11.5140104 12.41777,11.5078626 12.3631073,11.4938199 C12.3088401,11.4798742 12.2578791,11.4557686 12.2039712,11.4403021 C12.169003,11.4303039 12.1306206,11.4302392 12.0952211,11.4212117 C12.0626966,11.4129608 12.0301003,11.4015713 12.0016729,11.3855224 C11.9835239,11.1979838 11.9838833,11.0543206 11.985249,10.9107221 C11.9865068,10.7774131 11.9918617,10.644104 11.990496,10.5108596 C11.989885,10.4410989 12.012742,10.3887783 12.0837926,10.3551922 C12.1155982,10.3401787 12.1073683,10.3189528 12.0711063,10.2991829 C12.0468477,10.2860138 12.0245298,10.2675706 12.0072074,10.2473801 C11.9985462,10.0888005 12.0046917,9.97794692 12.0060933,9.86706095 C12.0068481,9.807719 12.0218704,9.75594848 12.0802706,9.72365663 C12.1505665,9.68479639 12.1640435,9.62797825 12.1633606,9.55876754 C12.1586886,9.06960091 12.149093,8.58030485 12.1566401,8.09123528 C12.1617793,7.76158654 12.1920396,7.43222901 12.2120215,7.10277441 C12.2165498,7.02790131 12.2246719,6.95315763 12.2317877,6.87841395 C12.2359207,6.83541207 12.2593526,6.81001216 12.304204,6.78762141 C12.335794,6.77189612 12.3616339,6.73005907 12.3695404,6.6959876 C12.3856408,6.62684161 12.3932598,6.55513945 12.3944817,6.48434328 C12.3959552,6.39565392 12.451121,6.33964469 12.5247592,6.29670752 C12.6917299,6.19937896 12.88127,6.15734777 13.0742603,6.12647961 C13.439648,6.06801128 13.8081264,6.03503994 14.1785095,6.01565835 C14.6239325,5.99236162 15.0695711,5.99922121 15.5148143,6.00960767 C15.8564466,6.01759975 16.1986899,6.03436045 16.5383815,6.06655524 C16.8346592,6.09460838 17.1312964,6.13485996 17.416002,6.22086372 C17.5151925,6.25082591 17.6089563,6.29301887 17.6879852,6.3584115 C17.7316866,6.39458615 17.7296021,6.44147082 17.7340226,6.48689945 C17.7407431,6.55649843 17.7428635,6.62645333 17.750195,6.69595525 C17.7519919,6.71310423 17.7649298,6.729962 17.7753879,6.74552551 C17.7913806,6.76937231 17.8089905,6.79241018 17.8273192,6.81493036 C17.8911821,6.8439542 17.90527,6.86899819 17.9069591,6.9032638 C17.9154406,7.07391235 17.92633,7.24446383 17.9326552,7.4151771 C17.9591779,8.13054852 17.9648562,8.84614643 17.9576685,9.56187377 C17.957381,9.59245073 17.9717564,9.63163454 17.9951524,9.65240746 C18.0899944,9.73663161 18.1285924,9.83518973 18.1187093,9.95367949 C18.1138935,10.011533 18.1204703,10.0700661 18.1208297,10.1283079 C18.121261,10.2135998 18.0932648,10.2485449 18.0041371,10.2777305 C17.9905882,10.2821634 17.9781535,10.2893466 17.9652156,10.2952354 C18.004784,10.3271067 18.0432383,10.3466177 18.0824832,10.3647697 Z"></path>
            </g>
        </g>
    </g>
</svg>