<?xml version="1.0" encoding="UTF-8"?>
<svg width="30px" height="30px" viewBox="0 0 30 30" version="1.1" xmlns="http://www.w3.org/2000/svg" xmlns:xlink="http://www.w3.org/1999/xlink">
    <!-- Generator: sketchtool 53.2 (72643) - https://sketchapp.com -->
    <title>C8E231F2-9CC6-474F-9C92-ABE6E75EBFE8</title>
    <desc>Created with sketchtool.</desc>
    <g id="Symbols" stroke="none" stroke-width="1" fill="none" fill-rule="evenodd">
        <g id="Icons-/-Supportive-/-Phone-/-Default-/-Body-Blue">
            <g id="Icons-/-Phone-/-Default-/-Body-Blue">
                <polygon id="Fill-1" points="0 30 30 30 30 0 0 0"></polygon>
                <path d="M11.4038,6 C11.3198,6 11.2368,6.014 11.1598,6.041 L9.4688,6.687 L6.4058,7.853 C6.3248,7.89 6.2518,7.934 6.1918,7.993 L6.1858,8 C6.1398,8.046 6.1008,8.1 6.0758,8.153 C6.0448,8.214 6.0208,8.268 6.0168,8.33 C6.0058,8.371 5.9938,8.412 6.0038,8.461 C5.9998,8.51 6.0028,8.565 6.0198,8.622 C6.0218,8.664 6.0308,8.699 6.0468,8.728 C6.9088,12.426 8.8688,15.792 11.5388,18.462 C14.2098,21.133 17.5738,23.093 21.2728,23.955 C21.3018,23.971 21.3368,23.979 21.3788,23.982 C21.4198,23.995 21.4618,24 21.4998,24 C21.5138,24 21.5268,23.999 21.5388,23.998 C21.5528,23.999 21.5668,24 21.5808,24 C21.5958,24 21.6118,23.999 21.6288,23.996 C21.6328,23.996 21.6358,23.997 21.6388,23.997 C21.6498,23.997 21.6598,23.995 21.6698,23.985 C21.7328,23.981 21.7858,23.957 21.8468,23.926 C21.9018,23.901 21.9538,23.862 21.9998,23.816 L22.0068,23.81 C22.0668,23.751 22.1108,23.677 22.1478,23.596 L23.3128,20.532 L23.9588,18.842 C24.0248,18.658 24.0118,18.436 23.9178,18.25 C23.8178,18.057 23.6488,17.901 23.4498,17.82 L19.1948,16.191 C19.1048,16.158 19.0098,16.141 18.9168,16.141 C18.8208,16.141 18.7268,16.16 18.6398,16.201 L16.4428,17.207 C15.0718,16.165 13.8358,14.929 12.7938,13.559 L13.7998,11.36 C13.8808,11.191 13.8758,10.99 13.8098,10.806 L12.1808,6.551 C12.0998,6.352 11.9448,6.183 11.7518,6.082 C11.6438,6.027 11.5228,6 11.4038,6 M11.0158,7.702 L12.2958,11.044 L11.4298,12.935 C11.1998,13.437 11.2648,14.026 11.5998,14.467 C12.7278,15.949 14.0508,17.273 15.5338,18.401 C15.7998,18.604 16.1198,18.707 16.4428,18.707 C16.6538,18.707 16.8668,18.662 17.0668,18.571 L18.9558,17.706 L22.2978,18.985 L21.9098,19.999 L21.0188,22.345 C17.8998,21.502 14.9998,19.802 12.5998,17.401 C10.1998,15.001 8.4998,12.102 7.6568,8.981 L10.0048,8.089 L11.0158,7.702" id="Fill-2" fill="#354657"></path>
            </g>
        </g>
    </g>
</svg>