<?xml version="1.0" encoding="UTF-8"?>
<svg width="30px" height="30px" viewBox="0 0 30 30" version="1.1" xmlns="http://www.w3.org/2000/svg" xmlns:xlink="http://www.w3.org/1999/xlink">
    <!-- Generator: sketchtool 53.2 (72643) - https://sketchapp.com -->
    <title>5C448AF7-660E-4FE9-AAEB-0B6106151CD7</title>
    <desc>Created with sketchtool.</desc>
    <g id="Symbols" stroke="none" stroke-width="1" fill="none" fill-rule="evenodd">
        <g id="Icons-/-Ecommerce-/-Delivery-/-Default-/-Purple">
            <g id="Icons-/-Delivery-/-Default-/-Purple">
                <polygon id="Fill-1" points="0 30 30 30 30 0 0 0"></polygon>
                <path d="M23.25,18.5 L22.42,18.5 C22.03,18.189 21.54,18 21,18 C20.46,18 19.97,18.189 19.58,18.5 L18.75,18.5 L18.75,12 L20.69,12 L23.25,14.561 L23.25,18.5 Z M21.75,20.25 C21.75,20.66 21.41,21 21,21 C20.59,21 20.25,20.66 20.25,20.25 C20.25,20.16 20.27,20.08 20.3,20 C20.4,19.71 20.68,19.5 21,19.5 C21.32,19.5 21.6,19.71 21.7,20 C21.73,20.08 21.75,20.16 21.75,20.25 L21.75,20.25 Z M17.25,18.5 L10.42,18.5 C10.03,18.189 9.54,18 9,18 C8.46,18 7.97,18.189 7.58,18.5 L6.75,18.5 L6.75,9 L17.25,9 L17.25,18.5 Z M9.75,20.25 C9.75,20.66 9.41,21 9,21 C8.59,21 8.25,20.66 8.25,20.25 C8.25,20.16 8.27,20.08 8.3,20 C8.4,19.71 8.68,19.5 9,19.5 C9.32,19.5 9.6,19.71 9.7,20 C9.73,20.08 9.75,20.16 9.75,20.25 L9.75,20.25 Z M24.53,13.72 L21.53,10.72 C21.39,10.58 21.2,10.5 21,10.5 L18.75,10.5 L18.75,8.25 C18.75,7.84 18.41,7.5 18,7.5 L6,7.5 C5.59,7.5 5.25,7.84 5.25,8.25 L5.25,19.25 C5.25,19.66 5.59,20 6,20 L6.76,20 C6.75,20.08 6.75,20.17 6.75,20.25 C6.75,21.49 7.76,22.5 9,22.5 C10.24,22.5 11.25,21.49 11.25,20.25 C11.25,20.17 11.25,20.08 11.24,20 L18.76,20 C18.75,20.08 18.75,20.17 18.75,20.25 C18.75,21.49 19.76,22.5 21,22.5 C22.24,22.5 23.25,21.49 23.25,20.25 C23.25,20.17 23.25,20.08 23.24,20 L24,20 C24.41,20 24.75,19.66 24.75,19.25 L24.75,14.25 C24.75,14.05 24.67,13.86 24.53,13.72 L24.53,13.72 Z" id="Fill-2" fill="#BD8BCA"></path>
            </g>
        </g>
    </g>
</svg>