<?xml version="1.0" encoding="UTF-8"?>
<svg width="142px" height="96px" viewBox="0 0 142 96" version="1.1" xmlns="http://www.w3.org/2000/svg" xmlns:xlink="http://www.w3.org/1999/xlink">
    <!-- Generator: Sketch 51.1 (57501) - http://www.bohemiancoding.com/sketch -->
    <title>Group 11</title>
    <desc>Created with Sketch.</desc>
    <defs>
        <path d="M91.8699119,93.4033024 C91.681499,93.4033025 91.5061168,93.4746231 91.3654,93.6489 C90.9744,94.1319 90.5994,94.6309 90.2594,95.1499 C90.1791665,95.2728219 90.123269,95.4132022 90.1232709,95.559885 L90.1232709,93.4033024 L91.8699117,93.4033024 Z M91.8699122,93.4033024 L92.9434257,93.4033024 L92.9434257,94.3184969 C92.9434257,94.3169593 92.9434172,94.3154268 92.9434,94.3139 C92.9374,93.8959 92.6384,93.6529 92.2764,93.4969 C92.1394615,93.4380946 92.0015083,93.4033024 91.8699119,93.4033024 Z M92.9434257,94.3184977 L92.9434257,96 L90.5258444,96 C90.5656019,95.9991846 90.6033493,95.9929483 90.6354,95.9759 C91.3274,95.6109 92.0194,95.2449 92.6864,94.8369 C92.8291649,94.7496548 92.9434251,94.4962963 92.9434257,94.3184976 Z M90.1232709,95.559885 L90.1232709,96 L90.5067698,96 Z M106.496222,36.2333725 C106.608071,35.955284 106.681656,35.7005944 106.809202,35.4711038 C107.09373,34.9581249 107.494031,34.8681286 108.001274,35.1813157 C108.102331,35.2434132 108.196519,35.3181101 108.278934,35.4000068 C108.55365,35.6717956 108.906857,35.711394 109.282629,35.711394 C109.782024,35.711394 110.255909,35.8139898 110.653267,36.1064778 C110.880889,36.2738709 111.097718,36.5033615 110.953492,36.7742503 C110.859304,36.9497431 110.628739,37.1324356 110.423683,37.1774338 C109.556364,37.3682259 108.676291,37.51312 107.799162,37.6661137 C107.162409,37.7768092 106.522713,37.8749051 105.758413,38 C105.561206,37.8650055 105.27766,37.6715135 105,37.4816213 C105.062792,37.3115283 105.066717,37.1666342 105.146188,37.1117365 C105.563168,36.8210484 105.999771,36.5519595 106.496222,36.2333725 Z M77,82.2892897 C77.6660379,82.6005461 78.0345057,82.7722024 78.4758682,82.9790172 C78.5897038,82.8135654 78.7414845,82.6677609 78.8033951,82.488866 C79.0200821,81.8653193 79.433485,81.5095977 80.0485965,81.3503503 C80.5538666,81.2190229 80.9462998,80.9181073 81.1470099,80.3907294 C81.4575613,79.5717426 82.0556973,79.2077485 82.8934872,79.1963737 C83.0872074,79.1932715 83.2789304,79.08883 83.4556751,79.0360922 C83.392766,77.4115615 83.5095972,77.1964741 84.5840453,77 C84.6529457,77.3639941 84.7068679,77.7341927 84.7947409,78.0961187 C84.9245534,78.6348714 85.1502274,79.0733188 85.8052813,78.9988655 C85.8472207,78.9936951 85.9011428,79.103307 86,79.2180892 C85.7293909,79.4662671 85.4607789,79.7185812 85.1861755,79.9626227 C84.8266948,80.2821516 84.7188505,80.6523502 84.9295462,81.1114792 C85.1252635,81.5385518 85.2960169,81.9769993 85.4917342,82.404072 C85.8801731,83.2551151 85.7184067,83.9893078 85.0793299,84.633536 C84.9595029,84.7534886 84.8506602,84.8848161 84.726839,84.9995983 C84.0208588,85.6531332 83.8001775,86.50004 83.808166,87.4420816 C83.8111617,87.8246891 83.7971818,88.2072966 83.7851992,88.58887 C83.7842006,88.6271307 83.7462554,88.6633233 83.7153001,88.7170952 C83.2909131,89.0324878 82.8006213,89.034556 82.2983468,88.9590685 C81.5184733,88.8432522 80.7366027,88.7377767 79.9597248,88.6002448 C79.7220681,88.5588818 79.4914013,88.4420314 79.2717186,88.3293173 C79.1249307,88.254864 78.9941196,88.1390477 78.8722956,88.0242654 C77.2855875,86.5320963 77.0119827,84.5983775 77,82.2892897 Z M73.1892609,92 C72.9510064,91.9457635 72.7292167,91.9641834 72.6730429,91.8710604 C72.1364861,90.9817866 71.2716031,90.6420411 70.4076886,90.2848989 C69.0188396,89.7128574 68.9810675,90.0382763 68.5006846,88.0079896 C68.3166669,87.2282121 68.1665472,86.4300146 68.0977827,85.6307939 C68.0251442,84.7916633 67.7810787,84.0487257 67.2726088,83.4183544 C66.5956175,82.5782004 65.8847283,81.7697697 65.1883667,80.9480357 C64.8397016,80.536657 64.4745719,80.1406283 64.1520567,79.708783 C64.0464887,79.5665401 64.0513312,79.3311742 64,79.1121816 C64.6711802,78.8338358 65.1912722,79.1162749 65.6116073,79.491837 C66.6546969,80.4210207 67.7694565,81.2734546 68.6285284,82.4144676 C69.2580625,83.2505282 70.0009128,83.959696 70.7650703,84.6535137 C71.3413361,85.1764354 71.8691763,85.7617801 72.3950794,86.3430316 C72.7272797,86.7093837 72.9994321,87.1043891 73.5253352,87.2343521 C73.9514814,87.3387317 74.0686716,87.6835939 73.9640721,88.1236258 C73.9350166,88.2464255 73.9020872,88.3733184 73.8430078,88.4817914 C73.4710984,89.1674225 73.3936173,89.9246867 73.3355065,90.6911609 C73.3035455,91.1066329 73.2434976,91.5190349 73.1892609,92 Z M97.8825108,45.3306192 C98.459799,45.414374 99.0100916,45.486442 99.5583078,45.5750662 C100.133519,45.667586 100.622553,45.6052569 101.127161,45.2439428 C101.666033,44.8573076 102.300427,44.5534531 102.940012,44.3362751 C103.490305,44.1502617 103.791408,43.8249816 104.011525,43.3662783 C104.473564,42.4060205 104.905491,41.4457626 104.914836,40.355977 C104.917951,39.9712896 105.078886,39.5729676 105.238782,39.2077579 C105.363376,38.9243553 105.839951,38.9331203 105.970775,39.2204185 C106.32587,39.9985585 106.651892,40.7874114 106.961302,41.5821075 C107.053709,41.8187634 106.982068,42.0865838 106.730802,42.2229287 C106.19816,42.5112008 106.141054,42.9854864 106.122365,43.4802238 C106.045532,45.4708597 106.142093,45.0472166 104.346892,46.0415607 C103.94196,46.2665298 103.494458,46.427222 103.0563,46.5947315 C102.647215,46.7505543 102.330537,46.9599412 102.084463,47.3348897 C101.732483,47.8695566 101.410614,47.9250685 100.767913,47.7020472 C100.611132,47.6475092 100.478231,47.5355116 100.279918,47.4166967 C100.134558,47.6202402 99.988159,47.812097 99.8573347,48.0127188 C99.5458483,48.4909 99.1201502,48.6603572 98.5387089,48.4792133 C98.2625242,48.3935107 97.9749184,48.3418944 97.6177473,48.2571658 C97.5180717,48.5308296 97.4485064,48.7499553 97.357137,48.9603161 C97.2460402,49.2174237 97.1650537,49.503748 96.9843916,49.7102132 C96.6334502,50.1124308 96.0987318,50.0890573 95.7675179,49.6829442 C95.3127477,49.1249039 95.0521374,48.4879783 95.0022996,47.7838541 C94.9836104,47.5238249 95.0770564,47.2550306 95.3480495,47.1888059 C96.423716,46.9258549 97.0186551,46.0912292 97.8825108,45.3306192 Z M67.4275982,74 C67.5065896,74.0205786 67.5915804,74.0277812 67.6615728,74.0637938 C67.733565,74.1018642 67.7935585,74.165658 67.853552,74.2232782 C68.7074594,75.041279 70.8512269,78.0869171 71.3361743,79.1919899 C71.5071557,79.5798971 71.6941355,79.973978 71.781126,80.3855507 C71.9681058,81.2766057 72.2840715,82.0976933 72.7810176,82.8529292 C72.8920056,83.021674 72.9599982,83.2367208 72.9949944,83.4404493 C73.0509883,83.7748521 72.6250345,84.1051392 72.3260669,83.9682913 C72.1770831,83.9003818 72.0370983,83.8036622 71.910112,83.6976822 C71.5551505,83.4013498 71.210188,83.0926703 70.8612258,82.7891354 C70.3772783,82.3683023 69.9893204,81.875444 69.7663445,81.257056 C69.3773867,80.1766776 68.9384343,79.1117332 68.6114698,78.0118051 C68.3754954,77.2164408 68.139521,76.4961885 67.4235986,75.9868673 C66.931652,75.6370305 66.8766579,74.6204459 67.2146213,74.1100957 C67.253617,74.0504177 67.355606,74.0360126 67.4275982,74 Z M86.277733,72 C86.2722047,71.2545516 86.7078341,70.942128 87.0572222,70.5993167 C87.3867084,70.2764474 87.7449417,69.9744696 88.0257789,69.7199725 C88.0456808,69.1957846 87.6476438,69.0087103 87.3867084,68.7437675 C87.0019393,68.3534755 86.5663099,67.9897726 86.2545142,67.5595967 C85.8266244,66.9670364 85.9460355,66.5748451 86.5541476,66.0933899 C86.6215928,66.0402114 86.6901436,65.9851337 86.7686453,65.9452499 C87.5359723,65.5540082 87.9948205,65.0070295 87.9892922,64.2122011 C87.9892922,64.1542745 88.0976467,64.096348 88.1949447,64.0004368 C88.679223,63.9880918 89.0064979,64.2387903 89.265222,64.580652 C89.4974102,64.8873779 89.666576,65.2377861 89.5438479,65.5900936 C89.4587122,65.8341448 89.2309466,66.0582541 89.0186602,66.2519758 C88.2170578,66.9831799 88.2104239,66.9774822 88.0744279,68.075238 C89.0507243,68.1502577 90.0568734,68.1758973 91,68.673496 C90.8850115,68.8349306 90.8308343,68.9992142 90.7047892,69.0675865 C90.5179329,69.1691954 90.2857447,69.2432654 90.0668243,69.2575097 C89.4100632,69.2992928 88.9777508,69.6022202 88.5940873,70.0333457 C87.9804469,70.7208676 87.3159462,71.3732536 86.277733,72 Z M86.8813179,85 C87.4708724,85.3452462 88.0408682,85.3254045 88.6229717,85.2470296 C88.9247342,85.2063541 89.2376731,85.2202433 89.5422297,85.2500059 C89.7843847,85.273816 89.9790402,85.4077477 89.9985988,85.7073579 C90.0181575,86.0010156 89.8318844,86.223243 89.5068378,86.2787999 C89.3559565,86.3045941 89.2013498,86.3085625 89.0476745,86.3125308 C88.8576759,86.3184833 88.6676773,86.3135229 88.4925805,86.3135229 C88.3240034,86.7173022 88.5810603,86.8988541 88.7952744,87.0446909 C89.7182578,87.6726818 89.9334032,88.6409585 89.9632069,89.7054676 C89.9650697,89.77789 89.9101191,89.8532886 89.8784527,89.9356318 C89.512426,90.0913894 89.1817911,89.9475368 88.9396361,89.6856259 C88.7049319,89.4326438 88.5214529,89.1072393 88.3798853,88.7818348 C88.2876801,88.5695283 88.3323856,88.292736 88.2737096,88.0576115 C88.2280727,87.8730833 88.1181715,87.7064127 87.9980254,87.4524385 C87.699057,87.6766501 87.4531765,87.8562179 87.2110214,88.0427302 C87.0862184,88.1389626 86.9744545,88.2540447 86.8468574,88.3453166 C86.6475452,88.4891692 86.4193606,88.5814333 86.2004896,88.4326203 C85.9769619,88.280831 85.9741678,88.0169359 86.0309811,87.7699063 C86.2144601,86.9762369 86.402596,86.1845516 86.6028396,85.3948505 C86.6298492,85.2886973 86.7332308,85.2043699 86.8813179,85 Z M77.699248,92.9429691 C76.842638,93.0003121 76.1645289,93.0786807 75.4873899,93.0758136 C75.1818042,93.0739021 74.853906,92.9544377 74.5783938,92.809169 C74.2039301,92.6113359 73.9924454,92.2538984 74.0002064,91.8286051 C74.0079673,91.4491862 74.1777371,91.1404901 74.674435,91 C74.7840578,91.0821915 74.9839011,91.1662945 75.0750918,91.315386 C75.3273212,91.7234765 75.6493988,91.9518924 76.1499772,91.9585824 C76.4274296,91.9624053 76.7077923,92.0312168 76.9784539,92.1038511 C77.2083707,92.1659726 77.424706,92.2758799 77.7002181,92.3848314 C78.2881067,91.9585824 78.9477837,92.0474639 79.6258928,92.2538984 C80.0090875,92.36954 80.4097443,92.4307058 80.80167,92.5214987 C81.349784,92.6495646 81.7261879,92.9792863 81.9599852,93.4791254 C82.0734884,93.7228328 81.9347622,94.0019017 81.6796225,93.9999902 C81.4390344,93.9990345 81.1994164,93.9674959 80.9597985,93.9426473 C80.5610819,93.9015516 80.1594551,93.79929 79.7636489,93.8212715 C79.0263628,93.8623672 78.4181019,93.6521099 77.9194637,93.1188208 C77.8399144,93.0328064 77.7351422,92.9706849 77.699248,92.9429691 Z M88,76.3626225 C88.0273874,75.5254468 88.5203612,75.2375642 89.0228153,74.9485786 C89.6190187,74.6044431 90.0972454,75.2011652 90.7292631,75.1757963 C91.0547523,74.8195278 91.4076288,74.4312724 91.8015865,74 C92.0733541,74.2878826 92.3345881,74.5217182 92.5463141,74.7974678 C93.341603,75.8386983 93.0645686,77.1545754 91.92483,77.7887995 C91.7720924,77.8737303 91.5993409,77.9222623 91.4318562,77.9696912 C91.1506083,78.0480041 90.8430263,77.9785152 90.7482237,77.7148986 C90.3616395,76.6416811 89.5052555,76.5512353 88.6077904,76.5004973 C88.4392523,76.4905704 88.272821,76.4265965 88,76.3626225 Z M49,76.9270837 C49.175538,76.0561283 49.3436289,75.1600298 49.550019,74.271977 C49.5766157,74.1573247 49.7840697,74.0426724 49.9298194,74.0034492 C50.0170564,73.9803176 50.1968499,74.0778727 50.2521709,74.1663762 C51.1394357,75.5894732 51.2841215,77.0457589 50.4319644,78.5342278 C50.3691963,78.6418401 50.2798315,78.7373837 50.1925944,78.8299101 C49.9340748,79.105478 49.446824,79.0401061 49.3478844,78.6780461 C49.1957514,78.1198703 49.1180892,77.5445971 49,76.9270837 Z M92,83.0679278 C91.9988978,83.4568011 91.7035195,83.7149029 91.0774937,83.7727177 C90.0855515,83.8656344 89.0880984,83.9372146 88.0895433,83.9964059 C87.8305361,84.0115479 87.5406685,83.9778226 87.2992959,83.9145016 C87.0127348,83.8401683 86.9565248,83.6598412 87.0281651,83.4795141 C87.0909881,83.3177703 87.2992959,83.2310481 87.5384642,83.2682148 C88.6075575,83.4354647 89.6182365,83.2289833 90.6432434,83.1078475 C91.0003427,83.0651747 91.3596462,83.0286963 91.7200519,83.0004772 C91.7972029,82.994971 91.8831712,83.0383321 92,83.0679278 Z M94.9349887,82.0338791 C95.0988075,82.9842626 94.9376743,83.8328532 94.6234645,84.6433904 C94.5851954,84.7432805 94.5207421,84.826998 94.4603171,84.9059588 C94.3099261,85.1000311 94.0172008,84.9763575 94.0057872,84.6938111 C93.9648325,83.6359269 94.133351,82.6855434 94.7651274,82.0053391 C94.7805694,81.9891664 94.816153,82.0129498 94.9349887,82.0338791 Z M88.102518,73.7561614 C88.0495826,73.5870344 88.0054698,73.5062899 88.002823,73.4233631 C87.9825311,72.861425 88.0636987,72.2754817 88.5074738,72.0594356 C88.9935973,71.8226578 89.2979758,72.3420414 89.5644173,72.7599488 C89.7585138,73.0643774 90.0143682,73.3480743 89.9993699,73.7932602 C89.3385596,74.075866 89.1753421,74.0736837 88.102518,73.7561614 Z M88.9042475,57.04659 C89.2064631,58.11626 88.7757752,59.2925864 87.8593399,59.904566 C87.5999483,60.0774943 87.2108609,60.0060449 87.1019654,59.7658092 C86.7030897,58.8804579 87.5302062,57.3624171 88.6142673,57.0072411 C88.6937977,56.9813536 88.8075874,57.032093 88.9042475,57.04659 Z M91.0158476,72.0319644 C91.0317349,71.979473 91.0529179,71.7800059 91.1522134,71.617866 C91.3269735,71.3332463 91.4712829,70.980971 91.9452534,71.0008011 C92.3662662,71.0182982 92.8243494,71.4032347 92.9607152,71.8196661 C93.0811937,72.1941043 92.9170252,72.6676929 92.5714769,72.8298328 C92.3861253,72.9173184 92.1676752,72.9663103 91.9571688,72.9896398 C91.2793116,73.0631276 90.9178761,72.7458466 91.0158476,72.0319644 Z M86.5131037,94.9981442 C86.2229582,94.9681798 85.9916951,94.7134826 86.0002288,94.433815 C86.0070558,94.1907705 86.2349053,93.993505 86.4994498,94.0001638 C86.8006891,94.0076549 87.0191517,94.2490346 86.9986708,94.5528402 C86.9816034,94.8075375 86.7469269,95.0222822 86.5131037,94.9981442 Z M140.376413,14.2714416 C140.569626,15.166347 141.572729,15.45897 141.781959,16.2376279 C141.642806,16.5933853 141.357492,16.6024045 141.140254,16.5262424 C140.253278,16.2145788 139.411352,16.463108 138.56442,16.6755603 C137.389127,16.9701876 136.229852,17.3159237 135.203723,17.9903597 C134.112523,18.7078874 132.909199,18.9393803 131.626789,18.869231 C130.961056,18.8331541 130.294323,18.8060965 129.628591,18.7860539 C129.295224,18.7760325 128.960856,18.7800411 128.62749,18.7990816 C127.943737,18.8381648 127.26399,18.9584208 126.898588,19.6128141 C126.584242,20.1770154 126.144759,20.7291911 126.444088,21.4777849 C126.523175,21.6762074 126.427069,21.9638198 126.366002,22.1983191 C126.197817,22.842691 125.995594,23.4780438 125.828411,24.1224158 C125.74632,24.4400921 125.548102,24.6585573 125.265792,24.7417344 C124.274702,25.0353596 123.685053,25.7669171 123.130443,26.5696262 C122.848132,26.9784968 122.514766,27.362314 122.159375,27.7110565 C121.270397,28.5799064 120.356391,29.423703 119.378316,30.3476703 C119.394333,30.1041518 119.371308,29.91074 119.425367,29.7423815 C119.553508,29.3465387 119.687656,28.9466874 119.875863,28.5779022 C120.206226,27.9335302 120.192211,27.2981774 119.933927,26.6457884 C119.764741,26.2188794 119.595554,25.7929726 119.433376,25.3640594 C119.047952,24.3499001 119.19111,23.4339499 119.806787,22.5220083 C120.462508,21.5519428 121.266392,20.8083596 122.368605,20.4225382 C123.826208,19.9124521 124.922414,18.8742416 126.093702,17.940253 C126.274902,17.7949436 126.312944,17.6215745 126.221843,17.4191435 C125.606166,17.7578647 125.001501,18.1216392 124.368805,18.4242836 C124.012413,18.5956485 123.69106,18.3841982 123.638001,18.0023853 C123.598958,17.7147729 123.610971,17.4191435 123.573931,17.130529 C123.540894,16.8719785 123.302632,16.7046222 123.036339,16.7176499 C122.508759,16.7437054 122.039243,16.9531513 121.706877,17.3359664 C120.681749,18.5194863 119.247171,19.1929201 118.139953,20.271216 C117.663429,20.7352039 117.049754,20.676078 116.487135,20.5087217 C116.014615,20.3694251 115.560116,20.1329215 115.139653,19.8733689 C114.756231,19.6358632 114.411852,19.5196157 113.97337,19.7070147 C112.789067,20.2130922 111.541695,20.2311306 110.284312,20.1529642 C109.659625,20.113881 109.032936,20.1128789 108.411252,20.0517487 C107.688457,19.9795951 107.111822,20.2281242 106.615276,20.7352039 C106.207828,21.1530936 105.777355,21.5499386 105.367904,21.9658241 C104.690159,22.655292 103.960356,23.2515616 103.038342,23.6113276 C102.581839,23.7887052 102.174391,24.1073838 101.768945,24.3970004 C101.608769,24.5122458 101.492641,24.708664 101.402542,24.8920544 C101.357493,24.9842507 101.372509,25.1846775 101.438582,25.2357863 C101.552707,25.3259783 101.759935,25.4141661 101.870057,25.3670658 C102.16438,25.240797 102.42767,25.0433766 102.713985,24.8680032 C103.107418,25.968346 102.850135,26.3311184 104.308739,25.7368531 C104.462909,25.6737187 104.618079,25.6095822 104.778256,25.5694968 C105.259785,25.4472365 105.686254,25.5233987 106.013614,25.9372799 C106.113725,26.0645509 106.232856,26.1767898 106.314946,26.2649776 C106.933626,26.1838048 107.499249,26.1096469 108.0008,26.043506 C108.712583,26.7239548 108.477324,27.302186 107.974772,27.7862165 C109.02793,29.5920615 109.034938,29.611102 109.055961,30.9279057 C108.973871,31.0140892 108.875763,31.1493772 108.749624,31.2485884 C108.23706,31.6514462 108.066873,32.1274597 108.230052,32.7898701 C108.363199,33.3300201 108.536389,33.9132619 108.222044,34.5235613 C107.536289,34.4093181 107.126839,34.0285073 107.080788,33.3811289 C107.008709,32.385008 106.979677,31.3818722 107.005706,30.3837471 C107.025728,29.5840444 106.996696,28.8053865 106.707378,27.9134875 C106.558213,28.1690316 106.426068,28.3213559 106.37301,28.4977315 C106.157773,29.2162613 105.96456,29.940804 105.767344,30.6653466 C105.396936,32.0262442 104.721193,33.1827065 103.665031,34.1457569 C102.556812,35.1569098 101.477625,36.2081481 100.476524,37.3235229 C99.9279202,37.9358266 99.3743112,38.0009653 98.6925613,37.766466 C98.4252673,37.6742697 98.1779953,37.5249518 97.92772,37.4056978 C97.3130438,37.9057626 96.7093798,38.3487056 96.166783,38.8567874 C95.9064966,39.1013081 95.6522169,39.4490484 95.5881465,39.7867675 C95.4790264,40.3670029 95.1546696,40.6465982 94.6551201,40.8410121 C94.4318746,40.9281978 94.2356587,41.0835285 93.9553504,41.251887 C94.0854935,41.5906081 94.1775949,41.9032739 94.3237556,42.1878798 C94.4949439,42.5205882 94.7151862,42.8282432 94.9124031,43.1479239 C95.7753524,44.542894 95.395935,46.2976301 94.0344374,47.1975461 C93.7561312,47.3819387 93.4748218,47.586374 93.1134243,47.4761393 C92.6619276,47.338847 92.2584838,47.1354139 92.1323451,46.5331315 C92.2745015,46.2525341 92.4486931,45.9248364 92.6088693,45.5911258 C93.0643703,44.6431074 92.98228,44.2522752 92.1153264,43.351357 C91.9541491,43.4435533 91.7799575,43.5437667 91.6057659,43.6429779 C91.4666128,43.7231486 91.3264586,43.8023172 91.1042142,43.928586 C91.0291316,43.6910804 90.9190104,43.5076899 90.9270192,43.3293101 C90.9410347,43.0416977 91.0541591,42.7600982 91.0861943,42.4714837 C91.152267,41.8862376 91.1342472,41.3150214 90.6537186,40.8209695 C89.7937727,41.0534645 89.2651912,41.9183059 88.3551902,42.0135086 C87.9517465,41.7208855 88.075883,41.3330598 88.1099204,40.9742959 C88.1469612,40.5744446 88.4332761,40.2116722 88.3391726,39.7717355 C87.8596451,39.7747419 87.6363996,40.105446 87.3681045,40.3499666 C86.7854636,40.8810975 86.2508755,41.4382838 85.4319747,41.664766 C84.8193008,41.8341266 84.7452193,42.4484346 85.1806983,42.9575185 C85.315847,43.1158556 85.4790265,43.2511437 85.6101707,43.4124872 C86.0506553,43.9576479 86.5852433,44.153064 87.2729998,43.9345988 C87.5483027,43.8464111 87.8456297,43.8113364 88.1359491,43.7963044 C88.590449,43.7722532 88.9388322,44.1881387 88.8016814,44.6290775 C88.7195911,44.8916365 88.5554105,45.1732361 88.3441781,45.3405924 C88.0228246,45.5951344 87.6283908,45.7564779 87.2669932,45.9609132 C86.987686,46.1182482 86.7123832,46.2825981 86.3850231,46.4730035 C86.5652213,46.8027055 86.6883567,47.0602538 86.8405241,47.2997638 C87.1778952,47.825884 87.5442983,48.3339658 87.8716584,48.8660987 C88.3161473,49.5906414 88.5564116,50.382327 88.5774347,51.2381492 C88.5894479,51.6961243 88.5684248,52.1631186 88.6465107,52.6120745 C88.7646406,53.2885147 88.5694259,53.8577267 88.1539689,54.3567892 C87.7004701,54.8999457 87.2429668,55.449115 86.7253975,55.9281349 C85.8944835,56.6967714 85.1516664,57.5275402 84.4989484,58.4545139 C83.2075278,60.2874164 81.3014311,60.9017244 79.1760933,60.9498268 C78.0989084,60.973878 77.3881265,61.8427279 77.7535285,62.8568872 C77.8636496,63.1615359 78.0678742,63.4331141 78.2690956,63.7908758 C77.9457399,64.2939469 77.6293919,64.8300884 77.2669933,65.3341617 C76.9826805,65.7290024 76.4651112,65.710964 76.2428668,65.2780422 C76.0796873,64.9593637 75.9475419,64.5605145 75.9855837,64.2167826 C76.0416454,63.6886582 76.2428668,63.1735615 76.4080484,62.6614711 C76.5101608,62.345799 76.6913601,62.0551803 76.779457,61.7375039 C76.8665528,61.4258403 76.6543193,61.025989 76.3700066,60.8967137 C76.076684,60.7634299 75.7883668,60.8095281 75.5661223,61.0450295 C74.910401,61.7395081 74.266693,62.4450103 73.6009607,63.1635401 C73.8822701,64.1085522 74.3197513,64.8781909 74.8993889,65.6117527 C75.6722391,66.5888331 76.3529879,67.6410735 77.0537587,68.6752754 C77.3701067,69.1432719 77.4401838,69.6924411 77.3691056,70.2396061 C77.3110417,70.6915684 77.1548699,71.130503 77.0827907,71.5814631 C76.9336266,72.517456 76.4410848,73.0776487 75.4790265,73.2349837 C74.8473317,73.3382035 74.4819297,73.7751338 74.2506754,74.3623841 C74.0224243,74.9446238 73.7551303,75.5118315 73.4788263,76.0730263 C73.3356688,76.362643 73.1374508,76.6262041 72.9011909,77 C72.7500246,76.7234111 72.6268892,76.5600633 72.5668231,76.3756707 C72.2925214,75.5449019 72.0532582,74.7011053 71.7689455,73.8733429 C71.2814092,72.4543216 70.4665128,71.2667932 69.2111319,70.4149795 C69.0509557,70.3067491 68.8487332,70.2606509 68.6525174,70.1804802 C68.3752124,71.2868358 68.1149261,72.330057 67.8656519,73.3281822 C67.4922411,73.4334062 67.4201618,73.1959005 67.3190506,73.0435762 C66.8064868,72.2649183 66.4661124,71.4341495 66.4500948,70.4751075 C66.4340771,69.4749781 66.3549901,68.4758508 66.303934,67.4757214 C66.2909197,67.2261901 66.293923,66.9746545 66.2618877,66.7281297 C66.2298525,66.4775962 65.9615574,66.3052292 65.7042744,66.3593445 C65.1476621,66.4765941 64.7101809,66.738151 64.4719188,67.2983437 C64.1615774,68.0268949 63.8232052,68.7444226 63.4738209,69.4549354 C63.3727096,69.6593707 63.1945136,69.8257249 63.0703771,69.9850642 C62.7700467,69.8998828 62.7920709,69.7054689 62.7990787,69.5551488 C62.8391227,68.6812882 62.8401238,67.7994106 62.9602559,66.9345692 C63.1734905,65.4013047 62.8751623,64.0444156 61.8640501,62.8448616 C61.2713982,62.1413638 60.7728498,61.3707229 60.5065569,60.4698048 C60.4635095,60.3275018 60.3143455,60.2172671 60.1641803,60.0298681 C59.9028929,60.2122564 59.6245867,60.3305082 59.4584039,60.5379498 C59.0769844,61.0119591 58.5964558,61.1532599 58.0238259,61.1262023 C57.7335066,61.1121725 57.4401839,61.131213 57.1488634,61.1332173 C56.3810188,61.1402322 55.7673438,61.4528979 55.3679044,62.1092955 C54.6250873,63.3298943 53.5589145,64.2859299 52.6969664,65.4103239 C52.4016415,65.7951432 51.9491438,66.0617108 51.5537088,66.3643551 C51.3234555,66.5407307 51.0541593,66.6669995 50.8199016,66.8393665 C50.2332563,67.2712861 49.9839821,67.8445066 50.0810889,68.582077 C50.1791969,69.3256602 50.240264,70.0742541 50.30934,70.8218458 C50.3774149,71.5513991 50.1952145,72.2258351 49.8458301,72.8641943 C49.2251474,73.9976075 48.6194812,75.1390377 47.9837819,76.2634317 C47.8526376,76.4939225 47.6173789,76.6652873 47.4271696,76.8667162 C46.9346278,76.5089545 46.8355188,76.0309367 46.8525375,75.5920022 C46.9015915,74.3894417 46.3379715,73.424387 45.7823604,72.4412938 C44.5660224,70.2877085 43.6289917,68.0228864 43.0563618,65.6107506 C42.8621481,64.7910052 42.7770545,63.972262 42.8261085,63.1294676 C42.861147,62.5091468 42.8321151,61.8838154 42.8321151,61.2614904 C42.3746118,61.1211917 42.2134346,61.4889747 41.9721692,61.6713631 C41.0741814,62.3498076 40.5986583,62.2195302 40.2442685,61.1262023 C40.1181297,60.7373745 40.0670736,60.3094634 40.0630692,59.8995907 C40.0570626,59.2712529 39.8157972,58.815282 39.1971166,58.7030431 C38.5143656,58.5797806 38.082891,58.1909527 37.7425166,57.6357707 C37.6333965,57.4573909 37.5132644,57.2850239 37.3831212,57.1236804 C36.9526477,56.588541 36.6112722,56.521398 36.1487634,57.0324862 C35.7423164,57.4814421 35.2818098,57.6718475 34.7211931,57.6598219 C33.5138651,57.6337664 32.3055359,57.5956853 31.1002101,57.5325509 C30.2993291,57.4894592 29.6896585,57.0976249 29.2481728,56.4181782 C28.9778755,56.004297 28.6585242,55.6224841 28.3722093,55.2406712 C27.5362898,55.2306498 27.0807887,55.9672181 26.2608868,56.0393717 C25.9485433,55.823913 25.5731303,55.569371 25.2017218,55.3088162 C24.9284211,55.1164066 24.6841524,54.8728881 24.3898287,54.7265766 C23.3516867,54.2094756 22.7370106,53.3576619 22.3625987,52.2943981 C22.3215536,52.1771485 22.2785062,52.0578945 22.2224446,51.9466577 C21.9461406,51.3924778 21.5787365,51.3133092 21.1402542,51.7081499 C20.4314745,52.3485133 20.3413754,53.0309664 20.8859745,53.8136328 C21.0761837,54.085211 21.3024326,54.3347423 21.524677,54.5822693 C21.9441384,55.0502658 22.3345679,55.5162579 22.4827309,56.1656406 C22.5508058,56.4652785 22.7930723,56.7498845 23.0173189,56.9833816 C23.5068574,57.4944698 24.056462,57.9434257 24.1045148,58.7411241 C24.1175292,58.9525743 24.3788166,59.0608048 24.5990588,58.987649 C24.8323154,58.9084805 25.0705775,58.8042586 25.2627889,58.6539385 C26.0116126,58.0716988 26.7414154,57.4674122 27.5022523,56.8511 C27.5202722,56.8591171 27.6394032,56.8701405 27.6624285,56.9242558 C27.9367303,57.5576042 28.340174,57.9945345 29.0289317,58.2550893 C29.7667433,58.5346846 30.397437,59.0517856 30.9029931,59.6811255 C31.2653918,60.1320857 31.2713984,60.4317237 30.9740713,60.9408076 C30.555611,61.6603396 30.1111221,62.3668438 29.7186904,63.1004057 C29.0779856,64.2989576 28.1940133,65.284055 27.1688856,66.1549092 C27.0417458,66.2631396 26.9216136,66.393417 26.7744518,66.4615621 C25.540094,67.037789 24.3768144,67.7753594 23.0763839,68.2032705 C21.8780658,68.597109 20.7718489,69.1723337 19.7036739,69.8247228 C18.9067974,70.3117597 18.0458503,70.6033806 17.1408548,70.7767498 C16.3059364,70.9380933 15.9815797,70.7647242 15.7162878,69.9660236 C15.5330863,69.4148501 15.420963,68.8376211 15.3038341,68.267407 C15.1867053,67.6951887 15.1186304,67.112949 14.9994994,66.5417328 C14.7312042,65.2519867 14.2626889,64.0404071 13.2485734,63.1555231 C12.0722794,62.1293382 11.6257883,60.7584193 11.3134447,59.3223617 C11.1943137,58.7711881 11.0801881,58.2791405 10.564621,57.9554513 C10.2232455,57.7409947 10.1811993,57.3371348 10.0490539,56.9853859 C9.7126839,56.0894784 9.34527976,55.2045943 8.97787562,54.3207124 C8.90279303,54.1413305 8.77965758,54.0260851 8.62849129,53.9689635 C8.32215433,52.9798575 7.61137247,51.101859 7.25197714,50.277103 C8.62648909,48.3279529 9.00991085,46.8167353 8.66953644,44.8254957 C8.43527876,44.850549 8.19101007,44.8495469 7.96175789,44.9076707 C7.55831411,45.0088862 7.16688353,45.1582041 6.76444085,45.2644303 C6.31494641,45.382682 5.85744316,45.4177567 5.40894982,45.2544089 C4.84432874,45.0499736 4.29071977,45.0279267 3.69406345,45.1732361 C3.20352386,45.29249 2.70897986,45.1541955 2.27149864,44.8545576 C1.72489738,44.4777553 1.17028731,44.1099722 0.60566623,43.7602276 C0.216237861,43.5187134 0.00900991085,43.2060477 0.0170187205,42.7370491 C0.0240264289,42.4043407 0.0160176193,42.069628 0,41.7369197 C0.48953849,41.3731451 1.13124436,40.8660655 1.71088196,40.3088791 C2.21343477,40.1094545 2.60186203,39.8919915 3.01131243,39.8258507 C3.49784761,39.74568 4.00840923,39.8198379 4.50795873,39.8088144 C4.94043445,39.7997952 5.32185401,39.6534837 5.61918107,39.3227796 C6.01561715,38.8808386 6.54920409,38.7986637 7.09880865,38.7675975 C7.99679643,38.7164887 8.83271594,38.9219261 9.60556607,39.3899226 C10.0710781,39.6715221 10.5466012,39.9521196 11.1142256,39.9280683 C11.9040944,39.8939958 12.6999699,39.8809681 13.4808288,39.7687291 C14.3577935,39.6434624 14.6090699,39.078259 14.2036239,38.3096224 C14.9644608,38.4298785 16.3840223,38.688429 16.9816798,39.0291544 C17.8175993,39.5041658 18.6525177,40.6736558 19.2091299,40.6465982 C19.7667433,40.6195406 19.170087,39.6174069 20.1842025,39.4410314 C20.8949844,39.3177689 21.8380217,40.0683671 22.3415756,40.5313528 C22.3415756,40.5313528 22.3405745,40.532355 22.3405745,40.5333571 C21.8840724,41.169712 21.2523775,41.5214609 20.55461,41.6256828 C20.2793071,42.091675 20.3483831,42.4955349 20.4184602,42.9144267 C20.5165681,43.4996728 20.7788566,43.9105476 21.3765141,44.0919338 C21.9731704,44.27332 22.5588146,44.4887788 23.1434577,44.7022333 C23.8902792,44.9758158 24.6180798,44.8685874 25.3388726,44.6140455 C25.847432,44.4346636 25.9445389,44.2442582 25.876464,43.6580099 C25.7413153,42.4955349 25.4259684,41.3901814 24.7702471,40.4030797 C24.9264189,40.1796039 25.0515566,40.0172582 25.1596755,39.842887 C25.26379,39.6755307 25.3498847,39.4971509 25.4630092,39.2877049 C25.2567823,39.1213507 25.1186304,38.9439731 24.9404343,38.8798365 C24.432876,38.6974482 24.1385523,38.3396864 23.8952847,37.8756985 C23.4487935,37.0208785 23.4297726,37.0308998 22.5197716,36.5568906 C22.3966362,36.1760798 22.4867353,35.8243309 22.7029732,35.4986374 C22.9212132,35.1709397 23.2205425,34.9655023 23.6850534,34.9344362 C24.4909399,35.4405137 25.3588947,35.7000663 26.291921,34.9835407 C26.0456501,34.2229212 25.6301931,33.561513 25.0605665,33.1225784 C24.2226448,32.4782065 23.4808288,32.2677584 22.7380117,33.096523 C22.6829511,33.1576531 22.602863,33.1967363 22.5478025,33.2578665 C21.979177,33.8731766 21.2904193,34.0194881 20.4995494,33.8040294 C20.4404844,33.7879952 20.3794173,33.7769717 20.317349,33.7659483 C19.4734207,33.0534312 18.071879,31.7055614 18.2540794,30.7224683 C18.5133646,29.3285003 19.6275902,30.1412307 20.0450494,29.7353666 C20.4635098,29.3285003 24.0834917,27.2610985 24.2226448,26.4132934 C24.3617978,25.5644861 25.3368704,23.3347387 25.3368704,22.497957 C25.3368704,21.6621775 25.1977174,18.5956485 23.9443386,18.5956485 C22.6909599,18.5956485 23.8932825,16.9361151 27.5643206,17.4802737 C28.7966762,17.662662 29.6786464,16.7467118 30.0961056,16.4681186 C30.5145659,16.1895255 30.3463809,13.9457481 30.9039942,14.1712282 C31.4185603,14.3806741 31.9371307,10.3480882 33.522875,8.51418351 C33.9002901,8.53522832 34.2737009,8.58633714 34.6451094,8.71260599 C35.1536688,8.88597511 35.6962657,8.95412021 36.213835,9.10544239 C36.6523174,9.23271337 37.0717788,9.42111451 37.5062567,9.56341749 C37.9006906,9.6916906 38.2981277,9.82697865 38.7045748,9.89111521 C38.8717587,9.91717068 39.1340472,9.81595518 39.2361596,9.6826714 C39.4193611,9.44416358 39.2511761,9.19763869 39.0539591,9.03529303 C38.7666431,8.79778735 38.4442885,8.60237128 38.1469615,8.37488693 C37.9187104,8.19951354 37.6714384,8.02915081 37.4962457,7.80667713 C37.1859043,7.41484286 37.2750023,6.79552423 37.7315045,6.62716577 C38.6915605,6.27241045 39.2291519,5.46569282 39.9008908,4.79827179 C40.0780857,4.62189626 40.2432674,4.43249299 40.4294722,4.26714093 C40.6697365,4.05468859 40.9560514,3.98754563 41.2343576,4.1709361 C41.8600458,4.58281304 42.4807286,5.00370919 43.0863948,5.44665228 C43.355691,5.64206835 43.3997395,5.97177034 43.2475721,6.23934003 C42.7189907,7.16430943 42.8681547,8.11433217 43.1825005,9.0252717 C43.4768243,9.87808747 43.1865049,10.481372 42.6168783,11.0455732 C42.2915204,11.3672581 41.941135,11.665894 41.6307937,12.0026109 C41.4716186,12.1769822 41.3765139,12.4104793 41.1913102,12.7171322 C41.4455899,12.745192 41.604765,12.8093285 41.7309038,12.768241 C42.662929,12.4706073 43.4868353,12.0266621 44.0174189,11.1427802 C44.2296524,10.789027 44.5239761,10.4803698 44.8052856,10.1737169 C45.0885972,9.86505973 45.3999397,9.58045376 45.8634496,9.60350284 C47.1588745,10.7960419 47.2709978,10.8180889 48.4272697,10.0604758 C48.2660924,9.58245803 48.0969063,9.08339545 47.9086993,8.52420485 C46.5892479,8.17746659 45.5871456,8.81281935 44.6691358,9.54337482 C44.3417757,9.46119985 44.3077383,9.23972831 44.3507856,9.0403037 C44.5099607,8.2877013 44.4959453,7.55814797 44.2136348,6.82959678 C44.1475621,6.65823192 44.166583,6.40068356 44.2496744,6.23332723 C44.4659123,5.79439268 44.7332063,5.37850719 45.1897084,4.98266439 C45.2968263,5.25223835 45.3989386,5.42560748 45.432976,5.61100221 C45.4840322,5.89661031 45.4810289,6.19223975 45.5130641,6.48185639 C45.5601159,6.89974614 45.7152866,7.12322195 45.9545498,7.14326462 C46.3780156,7.17733717 46.7794572,6.9909403 46.8835717,6.66123832 C46.9836818,6.34556621 47.0077082,6.00684502 47.1018117,5.68916864 C47.3260584,4.93456197 47.9787764,4.6529624 48.6705373,5.01373053 C48.8887774,5.12797377 49.1050153,5.27528742 49.2691959,5.45567149 C49.6796473,5.90462738 50.1822002,6.16418001 50.7588344,6.32251713 C51.4986482,6.52494814 52.0512561,6.90876534 52.0522572,7.77861739 C52.0532583,7.85778595 52.0943035,7.93996091 52.1263387,8.01612307 C52.248473,8.2967205 52.5578133,8.46808537 52.832115,8.41296801 C53.1244366,8.35484426 53.3096403,8.1123279 53.306637,7.77260458 C53.3006304,7.05708113 53.069376,6.47484145 52.3836217,6.13010746 C51.7879665,5.83147162 51.2003201,5.51379524 50.6286913,5.17306979 C50.3944336,5.0337732 50.1091198,4.87643821 50.1922112,4.41044605 C50.3443786,4.3733671 50.5315845,4.29219427 50.7197915,4.2871836 C51.2613873,4.2721516 51.8079885,4.24308972 52.3445788,4.30121348 C53.4908396,4.42447592 54.4899386,4.05268432 55.3999396,3.42534863 C55.9915905,3.01748022 56.6342974,2.74991052 57.2810088,2.45828962 C58.1920109,2.0474148 59.1310438,1.90811822 60.0880966,2.06545321 C61.3985381,2.28091195 62.3245567,1.63653999 63.2115324,0.840845838 C63.5128638,0.569267608 63.6790466,0.141356521 64.2186402,0.0120812752 C64.355791,0.33376619 64.493943,0.656453239 64.6481126,1.0182235 C66.7764537,2.15564524 68.5443985,1.26274412 70.1481626,0.00105780459 C70.6487132,0.00105780459 71.0591647,0.00606847305 71.4696162,0.00105780459 C72.7820599,-0.0149763345 73.1875059,0.142358655 74.1765939,1.08837286 C74.4138548,1.0122107 74.6881566,0.935046405 74.9534484,0.836837303 C75.5501047,0.616367891 76.1647809,0.506133185 76.7954746,0.56726334 C77.7895681,0.663468175 78.7836616,0.772700747 79.7727496,0.914001598 C80.1371504,0.96611255 80.5025524,1.09338353 80.8399235,1.24670998 C81.2934223,1.45214739 81.4235655,1.8419774 81.1692858,2.28492049 C80.9029929,2.74590199 80.5686251,3.1688024 80.29132,3.56865375 C80.340374,3.95046668 80.5866449,4.01861177 80.8369202,4.03865445 C81.1262384,4.06170352 81.4205622,4.03163951 81.7108815,4.04466725 C82.7510257,4.09477393 83.7911698,4.14788702 84.8303129,4.21102144 C85.4630089,4.25010466 86.0686751,4.41144818 86.6062664,4.7541779 C87.3280604,5.21315513 88.0638698,5.15002071 88.7366098,4.73413523 C90.3964356,3.70895246 92.2164376,3.73901647 94.0544594,3.82620211 C94.534988,3.84925118 94.8313139,4.12183154 94.9364296,4.57279171 C95.0215232,4.9355641 95.0285309,5.31737704 95.1116223,5.68115157 C95.1847027,6.00083222 95.2587842,6.34255981 95.4309736,6.61213377 C95.9034933,7.3597255 96.5041541,7.4519218 97.2179392,6.92780588 C97.6153764,6.63518284 97.9947938,6.3185086 98.3962353,6.00183435 C98.5924512,6.10906265 98.7516263,6.16418001 98.8697562,6.26639764 C99.1040139,6.47183505 99.352287,6.55100361 99.668635,6.5179332 C100.697767,6.4107049 101.759935,6.56102495 102.741015,6.08501145 C102.88217,6.01586422 103.074381,5.99882795 103.231554,6.02688769 C104.246671,6.20827389 104.657122,5.53183365 104.985483,4.77822911 C105.116628,4.47959327 105.164681,4.13485928 105.20072,3.8051573 C105.252777,3.33415446 105.00951,3.02148875 104.517969,2.92127538 C104.192611,2.85413242 103.857242,2.84511322 103.525878,2.80803427 C103.277605,2.77997453 103.026328,2.76694679 102.78206,2.71684011 C102.490739,2.65771422 102.222444,2.53545391 102.104314,2.22980313 C101.975172,1.89509048 102.097306,1.62050585 102.543798,1.2026161 C103.262588,1.59645464 103.264591,1.61950372 104.043447,1.55436503 C104.613074,1.50726474 105.21874,1.71170002 105.748323,1.34291482 C106.859545,1.4761986 107.96376,1.65658266 109.023926,2.01334226 C109.261187,2.09351295 109.422364,2.40217013 109.653618,2.64067795 C108.822704,3.22993256 107.858644,3.23093469 107.05476,3.58168148 C106.863549,3.91739627 107.053759,4.12383581 107.287015,4.19097877 C107.815597,4.34330309 108.298127,4.5667789 108.738612,4.89347449 C109.12804,5.18409326 109.588547,5.22618287 110.051056,5.20413593 C110.466513,5.18409326 110.885974,5.15402925 111.293422,5.07586282 C112.081289,4.92454063 112.777054,5.12797377 113.433777,5.54486139 C113.89128,5.83548016 114.364801,6.10405199 114.801281,6.4227305 C115.514065,6.94283789 116.288917,7.14126036 117.157873,7.00497018 C117.445189,6.96087629 117.73651,6.93582295 118.026829,6.90876534 C118.607468,6.85565226 119.193112,6.83160105 119.769746,6.75042822 C121.241365,6.54398868 122.487736,7.04605766 123.552908,8.00008893 C124.112523,8.50015364 124.690159,8.61640115 125.390929,8.48812804 C126.046651,8.367872 126.70938,8.26264796 127.37311,8.22456688 C128.244068,8.17546233 129.11903,8.16744526 129.990989,8.19750927 C130.927019,8.22857541 131.823005,8.39893814 132.387626,9.28682859 C132.447692,9.38002702 132.588847,9.43113584 132.702973,9.47522973 C132.774051,9.50328947 132.86415,9.48124253 133.034337,9.48124253 C133.260586,9.09542106 133.499849,8.66350143 133.763139,8.24460955 C134.084492,7.73251924 134.335769,7.64032294 134.917408,7.81569633 C135.154669,7.88684782 135.395935,7.97603772 135.608168,8.10130443 C136.208829,8.45706189 136.858544,8.53222192 137.536289,8.51819205 C138.370206,8.50115578 139.204124,8.50215791 140.03704,8.49714724 C140.607668,8.49313871 141.093202,8.69556971 141.502652,9.09241465 C141.830012,9.41009104 142.017218,9.79491037 141.798978,10.2158065 C141.499649,10.7910313 141.554709,11.3331856 141.775953,11.9013954 C141.867053,12.1338904 141.932125,12.3794132 141.977174,12.6249359 C142.071278,13.1330177 141.871057,13.5348733 141.438582,13.7884131 C141.123235,13.9738079 140.770847,14.095066 140.376413,14.2714416 Z M98.4207805,88.9542007 C98.2693587,88.1672146 99.0661015,87.6963765 99.2175233,86.9877022 C98.6209824,86.3728089 97.665704,86.652218 97.0000579,86.1697781 C96.9949766,85.7472806 97.3252591,85.5297476 97.5905013,85.2977124 C98.0579779,84.8877835 98.3679353,84.8897171 98.7409004,85.3750574 C99.0163051,85.7327784 99.32423,85.8874686 99.7754466,85.9619132 C100.389264,86.0653622 100.983772,86.2780612 101.637223,86.4578885 C103.119937,85.9561123 104.604684,86.1272383 106,86.843647 L106,94 C105.928862,93.8762479 105.854676,93.7495953 105.773375,93.6123078 C105.471548,93.6065069 105.144314,93.5987724 104.816065,93.5949052 C104.523383,93.5920047 104.230702,93.5949052 103.960379,93.5949052 C103.760177,93.2942262 103.903469,93.0979631 104.118915,92.9490738 C104.351637,92.7885828 104.608749,92.6599966 104.84452,92.5227091 C104.550822,91.3557653 103.61282,90.3560802 102.508153,90.0244632 C102.22665,89.9403504 101.938034,89.8552708 101.647386,89.8272333 C101.101658,89.7750253 100.68601,89.5545919 100.450239,89.0808533 C100.074225,89.0808533 99.7388614,89.0760192 99.404514,89.0827869 C99.0772803,89.0885878 98.7337866,89.2374771 98.4207805,88.9542007 Z" id="path-1"></path>
    </defs>
    <g id="⭕️-Symbols" stroke="none" stroke-width="1" fill="none" fill-rule="evenodd">
        <g id="Desktop-/-HD-/-Elements-/-Region-select-default" transform="translate(-705.000000, 0.000000)">
            <g id="Group-11" transform="translate(705.000000, 0.000000)">
                <g id="Asia">
                    <mask id="mask-2" fill="white">
                        <use xlink:href="#path-1"></use>
                    </mask>
                    <use id="Mask" fill="#D1D1D1" xlink:href="#path-1"></use>
                    <g id="Group-5" mask="url(#mask-2)">
                        <g transform="translate(-8.000000, -15.000000)" id="Colours-/-brand-/-Purple-#a25eb5">
                            <g>
                                <rect fill="#A25EB5" x="0" y="0" width="158" height="117"></rect>
                            </g>
                        </g>
                    </g>
                </g>
            </g>
        </g>
    </g>
</svg>