<?xml version="1.0" encoding="UTF-8"?>
<svg width="45px" height="74px" viewBox="0 0 45 74" version="1.1" xmlns="http://www.w3.org/2000/svg" xmlns:xlink="http://www.w3.org/1999/xlink">
    <!-- Generator: Sketch 51.1 (57501) - http://www.bohemiancoding.com/sketch -->
    <title>Group 8</title>
    <desc>Created with Sketch.</desc>
    <defs>
        <path d="M43.0512973,18.5573192 C42.2292001,18.2837273 41.5662835,17.8813275 40.9839646,17.2302986 C40.3835112,16.5612965 39.6087652,16.1618923 38.6174127,16.4424737 C38.0280415,16.6102235 37.4668795,16.462444 36.9550837,16.089001 C36.3828396,15.6696266 35.7662666,15.3081657 35.1849553,14.8997749 C34.4364035,14.3745583 33.6233735,14.1359143 32.7831418,14.2147966 C32.0668291,14.7420102 31.9338428,15.5188515 31.6144742,16.1419221 C31.2084629,16.2607448 30.8598776,16.3486138 30.5677107,15.9512065 C30.8649149,15.6945893 31.1419698,15.4998798 31.3595837,15.2532476 C31.5761902,15.0066155 31.76358,14.724037 31.9076485,14.4294764 C32.0758964,14.0829932 31.983209,13.6945726 31.7323484,13.5178363 C31.4311142,13.3071505 31.0926036,13.2921729 30.7792798,13.4619197 C30.6039797,13.5557797 30.448829,13.7175384 30.3309547,13.8812941 C29.9722947,14.3765554 29.4725885,14.5163468 28.8983294,14.4883885 C28.6787005,14.4774049 28.4530268,14.4075092 28.4530268,14.1558845 C28.4530268,14.0190886 28.5638487,13.8333656 28.6827304,13.7564803 C28.8882547,13.6226799 29.147175,13.5697588 29.3698264,13.4569271 C29.7798675,13.2502354 30.2030058,13.0575229 30.5777854,12.7979101 C31.2074554,12.3625595 31.2477543,11.3640489 30.5697256,11.0325434 C29.960205,10.7349873 29.7435985,10.2646888 29.4887081,9.74346625 C28.9275461,8.59817462 28.06515,7.69651956 27.0778273,6.90470067 C26.4350602,6.39046772 25.7469567,6.2376956 24.9742256,6.63210728 C24.7233651,6.76091515 24.4382505,6.82681685 24.1843675,6.91568429 C23.660482,6.62611622 23.5667871,6.07793391 23.2343213,5.71447606 C22.8706239,5.31407331 22.507934,4.91367057 22.126102,4.49329762 C21.4531107,4.51127081 20.8073211,4.41141975 20.2199648,3.95110637 C20.4275041,3.350003 20.6531778,2.73392197 20.8486274,2.10885435 C20.8979936,1.95208819 21.0128454,1.73441288 20.7710521,1.60360799 C20.3297793,1.78433841 20.3821678,2.49028539 19.7676099,2.46731965 C19.4945849,2.22867562 19.2306272,1.96107478 18.9304006,1.74339948 C18.5324491,1.45682694 18.0750568,1.42587311 17.6075897,1.56466608 C17.2136681,1.68049331 16.9728823,1.92912244 16.8711276,2.33451774 C16.8338511,2.48229731 16.6968349,2.6041156 16.6101923,2.72992793 C16.532617,2.70196963 16.4842583,2.69797559 16.4560491,2.67301283 C16.3663841,2.59113496 16.2716817,2.5102556 16.1991437,2.41439859 C15.6017128,1.6135931 15.3448074,1.52971821 14.4098733,1.83925649 C14.2224835,1.90116415 14.0350937,1.96007627 13.8215096,2.0289735 C13.500126,1.54369736 13.2109815,1.10734823 12.9188146,0.665008047 C11.2131644,1.02746739 11.2393586,2.49827347 10.7950634,3.80732085 C10.6378978,3.48879597 10.5079339,3.32504024 10.4777097,3.14430982 C10.3527832,2.39842242 10.3215516,1.65652905 10.704391,0.955574626 C10.8625641,0.665008047 11.0408866,0.362459341 10.7053984,0 C10.5351356,0.0359463809 10.3124843,0.0339493598 10.1452439,0.127809354 C9.78255399,0.332504024 9.47326006,0.642042304 9.0964655,0.810790592 C8.049702,1.27809354 7.35454625,2.07490499 6.78431705,3.02548706 C6.61606921,3.30606854 6.39241041,3.57067384 6.14457227,3.78535361 C5.69826214,4.17177721 5.22273531,4.11286509 4.89329194,3.60562171 C4.57593823,3.11635152 4.14877006,2.84675367 3.62790699,2.70396665 C3.08185712,3.0105094 2.58718833,3.31805066 2.06531778,3.57466788 C1.26840736,3.96608403 0.863403581,3.87022701 0.373772145,3.21220854 C0.158173118,3.68550256 0.0473511882,4.15779806 0,4.58116655 C0.38586181,4.8687376 0.79086559,5.13134588 1.23012342,5.35101821 C1.26538494,5.3689914 1.28452691,5.41492288 1.31676602,5.44088416 C1.79330032,5.82131669 2.24364034,5.76140606 2.56099405,5.237188 C2.74536144,4.93064525 2.86525062,4.58516059 2.99722947,4.29459401 C3.53924945,4.21671019 3.9452607,4.3405255 4.15279995,4.75490739 C4.54067671,5.53374564 4.91444885,6.32456602 5.21568301,7.13835215 C5.35471416,7.51379213 5.38796073,7.96611742 5.33053483,8.36452314 C5.21266059,9.18030629 5.00209892,9.98310879 4.85601547,10.6690856 C4.15985226,11.231247 3.53219715,11.6596081 3.00226683,12.1848246 C2.20434893,12.9746465 1.68449333,13.8902807 1.97666024,15.0944845 C2.20737135,16.046065 2.10057931,16.9636963 1.71270255,17.8933096 C1.26739989,18.9627145 1.50818572,19.5787955 2.41289565,20.2797499 C2.57812108,20.4075593 2.75241375,20.524385 2.92066159,20.6491988 C3.23398541,20.8798548 3.41432291,21.1903916 3.54529428,21.5568449 C4.16085973,23.2772787 4.78750737,24.9937184 5.43228951,26.7031685 C5.65292589,27.2882957 5.9017715,27.8584452 5.92796577,28.495495 C5.95416005,29.1335432 6.29267067,29.6038417 6.81655616,29.9213681 C7.27797837,30.200951 7.78372936,30.4106383 8.26630849,30.6562719 C8.63605075,30.8449904 9.01788267,31.0177327 9.36445307,31.2423976 C9.78456893,31.5139925 10.1724457,31.8355129 10.5754345,32.1320705 C11.5053313,32.8160503 12.0322392,33.7296874 12.1148519,34.8719835 C12.1511209,35.3662463 12.129964,35.8704941 12.0846277,36.3657554 C11.9738058,37.5659651 11.839812,38.7641778 11.7048107,39.9623905 C11.5929813,40.9609011 11.5728319,41.9574146 11.8126102,42.9389505 C11.9889179,43.6618722 11.8962304,44.2529905 11.1708505,44.63542 C11.0308119,44.7093098 10.9280498,44.8530953 10.8444296,44.9299806 C10.7013685,45.3383715 11.1305516,45.7417697 10.7759215,46.045317 C10.2560659,46.4906527 10.3739401,46.993902 10.5391655,47.5291037 C10.6892789,48.0123828 10.7759215,48.5156321 10.6016288,49.0009083 C10.2923349,49.8606259 9.96792885,50.717348 9.59717912,51.5521028 C9.37553527,52.0513581 9.1216523,52.5246521 9.18008568,53.0918061 C9.21232479,53.408334 9.04911431,53.6399884 8.84862736,53.8676488 C8.53228113,54.2271127 8.50004202,54.6454886 8.80832848,55.0029554 C9.23045928,55.4902285 9.19318282,56.0004675 8.9665016,56.5176959 C8.54437079,57.4802601 8.50608685,58.4418258 8.84157506,59.4323483 C9.01284531,59.9355977 8.91814294,60.4258663 8.64914789,60.8722006 C8.32675682,61.4054052 8.00134333,61.9406069 7.63260855,62.4428577 C7.20342544,63.0279849 6.96062467,63.599133 7.44924863,64.2631425 C7.73436323,64.6515631 7.67895227,65.0389852 7.42406183,65.4214148 C7.35555373,65.5252599 7.30115023,65.6400886 7.25077663,65.7539188 C6.86289987,66.6455888 6.90118381,66.7624145 7.72025862,67.377497 C7.80891617,67.4443972 7.84216274,67.5841887 7.90261107,67.6920279 C7.72227357,68.0245319 7.54898837,68.3430567 7.381748,68.6515965 C7.49458487,68.795382 7.55100331,68.9261869 7.65074305,68.9841005 C8.21089753,69.309615 8.5081018,69.7469626 8.41440689,70.4219558 C8.34589879,70.9202126 8.59877428,71.2996466 8.98362862,71.6021953 C9.18008568,71.7569644 9.42389393,71.8837753 9.55688024,72.0824789 C9.96188402,72.6875763 10.5522627,72.8912724 11.2282764,72.9491861 C11.1960373,73.0580237 11.1305516,73.2167869 11.1577534,73.2337616 C12.0161196,73.7869364 12.8966502,74.2133005 13.9796827,73.885789 C14.8199144,73.6311688 15.6863404,73.461422 16.5366469,73.2367571 C16.7300815,73.1858331 16.9043742,73.0650133 17.217698,72.9132397 C16.8076569,72.804402 16.5336245,72.6785897 16.2545547,72.6656091 C14.8138696,72.5997074 14.0008396,71.6451312 13.3076988,70.584713 C12.7576191,69.7439671 12.9984049,68.6985265 13.771136,68.0155453 C14.3655445,67.4893302 14.9609605,66.9641136 15.5422719,66.4239194 C16.0550752,65.9476299 16.280749,65.3525176 16.2867938,64.7174648 C15.8878349,64.2990889 15.4254052,64.4748268 15.0334985,64.3639921 C14.7292419,64.2781202 14.5730838,63.9705789 14.7161448,63.6840064 C14.7715558,63.5731717 14.8320041,63.46034 14.9126019,63.368477 C15.7054824,62.4588339 16.5054152,61.5551818 17.2972883,60.6455387 C17.5944926,60.3050466 17.9662498,60.0005008 17.9350181,59.4822738 C16.7240367,59.1317966 16.566871,58.9001422 16.8086643,57.7149101 C17.3295274,57.8576971 17.8423307,58.0124663 18.3621863,58.1342846 C18.5858451,58.1862071 18.8256235,58.1682339 19.0926036,58.1852086 C19.238687,57.4463108 18.6845774,56.6884412 19.4401814,56.0633736 C19.618504,56.0713617 19.8673496,56.1073081 20.1111579,56.0893349 C20.9040384,56.0334183 21.6959114,55.95853 22.4877845,55.8916298 C22.849467,55.860676 23.120477,55.6829411 23.3048444,55.3803924 C23.715893,54.7044007 24.1259341,54.0284091 24.5238856,53.3454278 C24.7153053,53.0169178 24.6619093,52.7033855 24.3828395,52.4407772 C24.1098146,52.182163 23.8216776,51.9395249 23.5526825,51.6769166 C22.6026363,50.7512973 22.5794645,50.6674224 22.9935355,49.3803423 C23.0489465,49.2066015 23.1889851,49.0598204 23.3511881,48.8052002 C23.4801445,49.4312663 23.5466377,49.9265276 23.6866763,50.4008201 C24.0675007,51.6829077 25.5625893,52.2640409 26.5761062,51.4093158 C27.7074974,50.4547397 28.9215013,49.4961695 29.1391152,47.8486271 C29.2227354,47.2115773 29.526992,46.6703846 30.1667368,46.3728284 C30.5737555,46.1841099 30.7430108,45.7847057 30.9142811,45.4042732 C31.0714467,45.055793 31.2447319,44.7402636 31.639661,44.5914855 C32.2552264,44.3608296 32.3892202,43.8515892 32.3398541,43.2714546 C32.3156747,42.982885 32.2834356,42.6843303 32.1867183,42.4147325 C31.8955589,41.5989493 32.2280247,41.0687402 32.9000086,40.6264 C34.4081943,39.6338805 35.9002604,38.6303774 37.7993453,38.5275308 C38.3927464,38.4955784 38.7957352,38.1610774 38.9921923,37.5799442 C39.2873816,36.7102415 39.6994377,35.8954569 40.2162709,35.1295993 C40.4973556,34.7132204 40.7149696,34.2449189 40.6373942,33.7236964 C40.553774,33.165529 40.6877678,32.6443064 40.8509783,32.131072 C41.1219883,31.2813395 41.2418775,30.4475832 40.9648226,29.5629028 C40.7502311,28.8779245 41.0010916,28.2498614 41.4635213,27.7156582 C41.6539335,27.4949874 41.8644952,27.2902927 42.0780793,27.0905906 C43.5641006,25.7036594 44.39728,23.9602599 44.8939638,22.0351315 C45.2899003,20.5044148 44.5554532,19.057573 43.0512973,18.5573192 M11.9899253,72.1184253 C11.7582068,72.3900201 11.498279,72.6376508 11.2514483,72.898262 C11.2554782,72.9172337 11.2564857,72.9342084 11.261523,72.9531801 C11.261523,72.9531801 11.2363362,72.9232248 11.2323063,72.9182322 C11.2383512,72.9112427 11.2454035,72.9052516 11.2514483,72.898262 C11.1386114,72.3690514 11.4196961,71.9127321 11.5718244,71.437441 C11.6000336,71.3495721 11.8720511,71.2507196 11.965746,71.294654 C12.0765679,71.3465766 12.1692554,71.5472772 12.1712703,71.6850717 C12.1732853,71.8298557 12.0886576,72.0015995 11.9899253,72.1184253" id="path-1"></path>
    </defs>
    <g id="⭕️-Symbols" stroke="none" stroke-width="1" fill="none" fill-rule="evenodd">
        <g id="Desktop-/-HD-/-Elements-/-Region-select-default" transform="translate(-251.000000, -10.000000)">
            <g id="Group-8" transform="translate(251.000000, 10.000000)">
                <g id="South-America">
                    <mask id="mask-2" fill="white">
                        <use xlink:href="#path-1"></use>
                    </mask>
                    <use id="Mask" fill="#D1D1D1" xlink:href="#path-1"></use>
                    <g id="Group-2" mask="url(#mask-2)">
                        <g transform="translate(-14.000000, -10.000000)" id="Colours-/-brand-/-Grey-#D1D1D1">
                            <g>
                                <rect fill="#D1D1D1" x="0" y="0" width="70" height="97"></rect>
                            </g>
                        </g>
                    </g>
                </g>
            </g>
        </g>
    </g>
</svg>