<?xml version="1.0" encoding="UTF-8"?>
<svg width="63px" height="79px" viewBox="0 0 63 79" version="1.1" xmlns="http://www.w3.org/2000/svg" xmlns:xlink="http://www.w3.org/1999/xlink">
    <!-- Generator: Sketch 51.1 (57501) - http://www.bohemiancoding.com/sketch -->
    <title>Group 10</title>
    <desc>Created with Sketch.</desc>
    <defs>
        <path d="M62,58.1448368 C61.8854017,58.7303481 61.7560164,59.6183907 61.5369857,60.4776209 C60.938117,62.8206951 60.3078261,65.1534792 59.6775352,67.4862633 C59.5444533,67.9760759 59.3901152,68.4658885 59.1858714,68.9227726 C58.7764596,69.8344826 58.1812875,70.1328979 57.2820602,69.9476746 C56.8098042,69.8499179 56.4530706,69.5309223 56.4669333,69.0215583 C56.4974313,67.8896384 56.2377366,66.8204885 56.0353412,65.7338454 C55.9641793,65.3520797 55.9937531,64.970314 56.1859825,64.6173608 C56.6610112,63.7457824 56.5722899,62.8104049 56.4124067,61.8739984 C56.3772878,61.6651078 56.3135194,61.4593041 56.2423575,61.2607036 C55.8874723,60.2615271 56.4216485,59.4259643 57.142509,59.2232478 C58.5278551,58.8332499 59.1729329,57.6375308 59.8346459,56.4294636 C60.0333446,56.0651912 60.1719716,55.6577 60.3900781,55.3098919 C60.6654838,54.8705011 61.1950391,54.9054877 61.4436435,55.3695749 C61.8493586,56.1259032 61.9491701,56.9738142 62,58.1448368 Z M46.8061611,7.14177547 C46.9373098,6.96867249 47.0575294,6.80057248 47.1747684,6.63447366 C47.531453,7.45796358 48.2368738,9.33307914 48.5399067,10.3206667 C48.4345903,10.2796423 48.3173514,10.2636327 48.1842156,10.29265 C47.8285245,10.3686953 47.4817754,10.4887667 47.0873359,10.601834 C47.1300586,10.8209643 47.1360199,10.9860625 47.1946394,11.1291477 C47.7917632,12.5930186 48.3928612,14.0548883 49.0038947,15.511755 C49.2671856,16.1391282 49.3645535,16.7895152 49.3605793,17.4629158 C49.3575987,18.0882879 49.3685277,18.7126593 49.3625664,19.3380314 C49.3566051,19.9684064 49.6119476,20.4637011 50.092826,20.8529326 C50.4475235,21.1391029 50.8002339,21.4302761 51.1569185,21.7144452 C51.6854874,22.1346952 52.0978108,22.6349928 52.358121,23.2743732 C52.6919539,24.0928601 53.1907163,24.7922762 53.874279,25.3736221 C54.6482548,26.0330144 55.1231719,26.9285472 55.4868113,27.8601014 C55.628889,28.2253187 55.5464244,28.6785883 55.5732502,29.0908336 C55.6110051,29.6701782 55.8514443,29.9243294 56.4098197,29.9793622 C57.1828019,30.056408 57.8683517,29.772239 58.552908,29.4600532 C59.3805355,29.0818282 60.2101501,28.7056044 61.0556615,28.3714056 C61.4749398,28.2063073 61.9270053,28.1112508 62.3731094,28.0332044 C62.7456908,27.9681657 62.9970591,28.234324 62.9990462,28.6235556 C62.9990462,28.706605 63.0050075,28.7926562 62.9871236,28.8727038 C62.6383874,30.4116193 62.3492642,31.9635426 61.4828882,33.3363594 C60.798332,34.4210046 60.1237112,35.5096523 59.7282781,36.7664 C59.4480969,37.6559292 58.7734762,38.3463399 57.9061066,38.7225638 C57.1907503,39.0327483 56.6383363,39.5110328 56.1773289,40.1033852 C55.3864627,41.1189895 54.6194418,42.1546056 53.8663306,43.199227 C53.3337875,43.938667 52.8499285,44.7051229 52.249824,45.4055396 C51.5682484,46.2020135 51.5334741,47.2476356 51.6586615,48.255235 C51.7301971,48.8285761 51.9328814,49.3849071 52.0680043,49.951244 C52.1862368,50.4475393 52.3899146,50.8978071 52.7346766,51.2730304 C53.2791423,51.8643822 53.4987169,52.4867525 53.2374131,53.3242507 C53.0853999,53.8125412 53.1569355,54.403893 53.2453615,54.9292055 C53.4818265,56.3170312 53.0933483,57.4857265 52.141527,58.478317 C51.6258743,59.0166373 51.0953184,59.5459522 50.5299882,60.0312409 C49.7361414,60.7146475 49.0565529,61.4801028 48.5061259,62.3786374 C48.1106929,63.0240214 47.995441,63.6563976 48.2160092,64.3958375 C48.428629,65.1102625 48.5548099,65.8527042 48.693907,66.5881418 C48.7306683,66.7822572 48.6750295,66.995384 48.6631069,67.1704882 C48.2130286,67.6657829 47.6139177,67.7448299 47.0684585,67.902924 C45.8175785,68.2641389 45.4638745,68.4502496 46.1384953,69.8010532 C46.5577735,70.6385515 46.3789345,71.3059485 45.8324817,71.9803497 C44.7872667,73.2711176 43.7639097,74.5808969 42.7226688,75.8756672 C42.4881909,76.1658398 42.2268872,76.4360005 41.9606157,76.6971559 C41.4678146,77.1794428 40.8706908,77.4476024 40.1831539,77.4846244 C39.7708305,77.5066375 39.3515522,77.5396571 38.9441965,77.490628 C37.6297293,77.3315333 36.4871463,77.7477809 35.4737248,78.5402524 C35.0554401,78.8674471 34.6659683,79.1326048 34.1294511,78.9284834 C33.4896046,78.6843381 32.9292422,78.3401333 32.7702741,77.5996928 C32.6917836,77.233475 32.6560158,76.8592523 32.5844802,76.4920339 C32.4265057,75.6765487 32.2695247,74.860063 32.0906856,74.0495808 C31.9635112,73.4722373 31.674388,72.9749414 31.3226711,72.4976575 C30.956051,71.9983604 30.670902,71.4390277 30.3221658,70.9237211 C29.9317005,70.3463776 29.9466038,69.7600288 30.197972,69.1416609 C30.3231594,68.8344782 30.4284757,68.5172895 30.5268372,68.1991002 C30.7474054,67.4796722 30.6748762,66.7992674 30.2277785,66.1778977 C30.0827202,65.9747769 29.9545522,65.7566471 29.7866421,65.5745387 C28.5437105,64.2297387 27.9108189,62.5397332 27.2272562,60.893754 C26.6549712,59.5149337 26.6778228,58.0360539 26.8964039,56.5811883 C27.0285461,55.7036663 27.4090759,54.8971865 28.0668063,54.282821 C28.6867818,53.7024757 28.7404335,53.059093 28.3698392,52.3636792 C27.8800188,51.442131 27.7886122,50.4675512 27.8651156,49.4539482 C27.9098254,48.8615957 27.7866251,48.3132695 27.5501601,47.7589397 C27.2401724,47.0355094 27.0374881,46.2660516 26.7781714,45.5186069 C26.642055,45.1263736 26.4890482,44.7391432 26.3380286,44.3519128 C26.1025571,43.7485539 25.7150724,43.3062907 25.1318583,42.989102 C24.188979,42.4767973 24.1760628,42.3627294 24.3986181,41.293093 C24.4910183,40.8468275 24.5784507,40.3935579 24.6003089,39.9402882 C24.6370702,39.1748328 24.781135,38.4784185 25.2679747,37.8430405 C25.7011627,37.2777042 25.6256529,36.8934756 25.1070196,36.4302 C24.7682189,36.1280202 24.385702,35.8758702 23.972385,35.5626839 C23.7687071,35.6857571 23.5650293,35.8058285 23.3643321,35.9299023 C23.0851444,36.1050065 22.8248342,36.3261381 22.524782,36.4502119 C21.8412193,36.7353815 21.3295408,36.5172518 21.0006756,35.8328446 C20.8754883,35.5716892 20.7840816,35.2935237 20.6807524,35.0213618 C20.2813451,33.9647332 19.4904789,33.4594326 18.3995606,33.3983963 C18.0706954,33.3803855 17.7388495,33.4084022 17.4089908,33.4244117 C17.0155448,33.443423 16.6976087,33.6115231 16.4462404,33.920707 C16.210769,34.209879 15.965362,34.4920469 15.7179679,34.7732142 C15.2519928,35.3025291 14.665798,35.5726898 13.9633579,35.5546791 C13.4675762,35.5416714 12.9727881,35.4896404 12.4770064,35.4756321 C11.8977665,35.4596225 11.3185266,35.4456142 10.7402802,35.4666267 C10.0775821,35.4896404 9.5261616,35.7037678 9.31155471,36.4312006 C9.26883204,36.5752863 9.12178657,36.6883535 8.97573466,36.8764655 C8.71045669,36.7213732 8.43623677,36.6213137 8.24150089,36.4362035 C7.63841577,35.8658642 7.05222101,35.2765136 6.48887791,34.6661505 C6.26830972,34.4270082 6.09841259,34.1288308 5.95534133,33.8326546 C5.52414044,32.9331195 5.07505564,32.0385873 4.71340328,31.1090343 C4.41732525,30.3495824 3.92055003,29.8662949 3.18432915,29.5831265 C2.76008312,29.4200294 2.33484353,29.25293 1.92550075,29.0558127 C1.5916678,28.8947169 1.26876391,28.7036032 0.963743925,28.4924776 C0.637859381,28.2663431 0.484852614,27.9281419 0.488826816,27.5259026 C0.489820366,27.4008281 0.480878412,27.2727519 0.501742971,27.1516799 C0.645807785,26.3351942 0.516646228,25.5777435 0,24.9093459 C0.444117046,24.0698464 0.875317936,23.2663684 1.29658332,22.4558863 C1.59266135,21.8885487 1.73672617,21.2791862 1.61153881,20.6448088 C1.47442885,19.9523969 1.33632534,19.2529808 1.11178294,18.5865843 C0.800801653,17.6680378 0.814711359,16.8445479 1.28267362,15.9510163 C1.72182291,15.1125175 1.98511378,14.1769609 2.28019826,13.2684204 C2.92004474,11.3042518 3.06609665,11.1131381 4.89025526,10.1895887 C5.29661739,9.98346607 5.70198597,9.77534225 6.1162965,9.58622974 C6.61903302,9.35609283 6.87437548,8.9588565 6.92305945,8.41953564 C6.95286597,8.08833861 6.95385952,7.75413978 6.97571763,7.42094155 C7.02936935,6.56743378 7.34134419,5.80297898 7.79440319,5.09155574 C7.90468729,4.91845275 8.03285529,4.74134739 8.19082981,4.61527238 C8.87141186,4.07495093 9.56987782,3.55664258 10.2534405,3.0203235 C10.7074931,2.66511218 11.2330813,2.52102646 11.7715856,2.6390967 C12.7701038,2.85722647 13.6384669,2.54604134 14.5137848,2.13179489 C15.523232,1.65351035 16.5525503,1.21725081 17.5739202,0.762980548 C18.1899214,0.488817441 18.8287744,0.375750174 19.5073693,0.407769223 C20.1670868,0.438787677 20.8337591,0.446792439 21.4914895,0.392760294 C22.2704331,0.328722196 23.0424218,0.178632904 23.8183847,0.0815751612 C24.1859983,0.034547183 24.5585797,-0.0154825811 24.9261934,0.00452932453 C25.5362334,0.0385495641 26.0449312,0.323719219 26.3867125,0.835023408 C26.7881069,1.43738177 27.01563,2.08576751 26.7314745,2.86423064 C26.3469705,2.94127648 25.9833311,2.99330743 25.6326078,3.09036517 C25.2779103,3.18842351 25.1646455,3.60367055 25.3872008,3.89984676 C25.4120396,3.9328664 25.4329041,3.975892 25.4666848,3.99390271 C26.3737964,4.47218726 27.0454365,5.33870277 28.0966128,5.58384862 C28.9510662,5.78296708 29.7389517,6.12817245 30.4185402,6.71352069 C30.8288765,7.06773142 31.3167098,7.28686179 31.842298,7.44795763 C32.3112538,7.59304394 32.7464289,7.84619455 33.1994879,8.04331182 C33.9029216,8.35149517 34.2655675,8.26744516 34.6788845,7.63106656 C34.9481367,7.21481893 35.1458532,6.75054271 35.3852989,6.31328258 C35.6018929,5.91704684 35.7598674,5.46577837 36.3788493,5.27066229 C36.7385146,5.42475397 37.1955478,5.60386052 37.6376777,5.81598672 C38.2477177,6.11016173 38.8786222,6.2442415 39.5582107,6.21822602 C40.2189217,6.19321114 40.8826134,6.2032171 41.5423309,6.2442415 C41.7569378,6.25724924 41.9626028,6.41834508 42.2000613,6.52340759 C42.0490416,7.11976237 41.6088988,7.3909237 41.2740723,7.74213264 C40.9442136,8.08833861 40.4782384,8.32748088 40.3301994,8.96686126 C40.5517611,8.93284102 40.7405357,8.9598571 40.8289617,8.87780828 C41.071388,8.65467554 41.2949369,8.40252553 41.4837115,8.1323648 C42.2308614,7.06372904 43.3813928,6.87761832 44.5339113,6.70551593 C44.6819503,6.68350283 44.901525,6.732532 44.9949187,6.83459272 C45.542365,7.42994691 46.1841986,7.25884512 46.8061611,7.14177547 Z" id="path-1"></path>
    </defs>
    <g id="⭕️-Symbols" stroke="none" stroke-width="1" fill="none" fill-rule="evenodd">
        <g id="Desktop-/-HD-/-Elements-/-Region-select-default" transform="translate(-551.000000, -12.000000)">
            <g id="Group-10" transform="translate(551.000000, 12.000000)">
                <g id="Africa">
                    <mask id="mask-2" fill="white">
                        <use xlink:href="#path-1"></use>
                    </mask>
                    <use id="Mask" fill="#D1D1D1" xlink:href="#path-1"></use>
                    <g id="Group-4" mask="url(#mask-2)">
                        <g transform="translate(-17.000000, -27.000000)" id="Colours-/-brand-/-Grey-#D1D1D1">
                            <g>
                                <rect fill="#D1D1D1" x="0" y="0" width="94" height="117"></rect>
                            </g>
                        </g>
                    </g>
                </g>
            </g>
        </g>
    </g>
</svg>