<?xml version="1.0" encoding="UTF-8"?>
<svg width="144px" height="89px" viewBox="0 0 144 89" version="1.1" xmlns="http://www.w3.org/2000/svg" xmlns:xlink="http://www.w3.org/1999/xlink">
    <!-- Generator: Sketch 51.1 (57501) - http://www.bohemiancoding.com/sketch -->
    <title>Group 7</title>
    <desc>Created with Sketch.</desc>
    <defs>
        <path d="M110.38899,23.4234292 C109.933963,23.2904629 109.545357,23.1777968 109.170629,23.0681758 C108.863313,22.2967683 108.913871,21.6025016 109.449196,21.026991 C109.947842,20.4890358 110.564457,20.6331672 111.138445,20.813839 C111.447744,21.3934096 111.143402,21.9313648 111.167194,22.5515358 C111.372402,22.6642019 111.606359,22.7920931 111.811567,22.9037442 C111.906736,22.8255884 111.948372,22.8052882 111.970182,22.7717929 C112.377624,22.1292917 112.114918,21.5598712 111.768939,21.0117659 C111.389255,20.4098651 111.04625,19.7592438 110.23434,19.6628178 C109.911162,19.6252625 109.682162,19.7561987 109.494798,20.0150262 C109.231101,20.3814448 109.031841,20.812824 108.633321,21.0148109 C108.30816,20.9640604 108.322039,20.7224881 108.295273,20.5286212 C108.190191,19.7764989 108.087091,19.0233617 108.004809,18.2681944 C107.891796,17.2349144 107.36341,16.580233 106.398833,16.2381747 C105.31133,15.852471 104.273394,15.331771 103.11947,15.124709 C102.379928,14.9917427 101.654265,14.8953167 100.909767,15.0140729 C100.828476,15.027268 100.746195,15.0364031 100.663913,15.0445232 C99.6011936,15.1480542 99.5912801,15.1439941 98.9013053,14.1848099 C98.7823441,14.4375473 98.6960973,14.6598345 98.5771361,14.8597914 C98.4502442,15.0729435 98.3203782,15.2972606 98.1419365,15.4586472 C97.8336288,15.7387899 97.4103252,15.7215347 97.1347319,15.4271819 C96.9077143,15.1845945 96.7124197,14.9085119 96.5210905,14.6344592 C96.1364493,14.0853389 95.6487085,13.7514007 94.9636904,13.7564757 C94.7624477,13.7574907 94.5512916,13.7179054 94.3599624,13.6509147 C94.1666505,13.5839241 93.9951481,13.4570478 94.0001049,13.1190496 C94.2885857,12.8419519 94.7019758,12.8480419 95.0965304,12.8023665 C95.46531,12.7607511 95.8479685,12.7698862 96.1969212,12.6633102 C96.8680606,12.4582782 97.5253211,12.238021 97.7453992,11.3874428 C97.8703085,10.9073432 98.2926206,10.6667858 98.8061364,10.677951 C98.9300543,10.680996 99.0539722,10.685056 99.1768987,10.684041 C99.6091243,10.679981 99.8658822,10.4302886 99.9947568,10.0374798 C100.059194,9.84056786 100.081004,9.6274158 100.112727,9.42035379 C100.276298,8.3667736 100.867139,7.93031938 101.905075,8.09475097 C102.066664,8.12012622 102.231227,8.15565156 102.391825,8.14347145 C102.77944,8.11505117 103.117488,7.80648819 103.051068,7.39642422 C102.955899,6.80264348 103.243388,6.53772592 103.678588,6.31442376 C104.389381,5.94902022 105.157672,5.76936349 105.934885,5.68105763 C106.628825,5.60188687 107.338627,5.58260168 108.03455,5.63335217 C108.471732,5.66481748 108.91288,5.83736914 109.325278,6.01195083 C109.918102,6.26367327 110.502994,6.35705417 111.132497,6.18653252 C111.808593,6.00383075 112.20513,5.57854164 112.287412,4.8710798 C112.327065,4.53612656 112.313187,4.19609827 112.330039,3.8581 C112.349866,3.45818614 112.465853,3.11105278 112.926828,2.90094575 C113.051737,3.00853679 113.22324,3.11714284 113.341209,3.26939431 C113.590037,3.59115242 113.6515,4.064147 114.160059,4.26816397 C114.306778,4.12200256 114.509012,3.97990118 114.63293,3.78603431 C114.835164,3.46935125 115.002701,3.12627793 115.156359,2.78117459 C115.357601,2.33051023 115.650048,2.02093224 116.143737,1.91740124 C116.838668,1.77225483 117.46718,1.46267684 118.061985,1.06682301 C118.554683,0.739989852 119.106861,0.565408163 119.691754,0.517702702 C120.39065,0.460862152 121.09153,0.426351819 121.789436,0.3624062 C122.404068,0.30658066 123.022667,0.260905219 123.628377,0.1451941 C124.367919,0.00309272569 125.110435,-0.0598378829 125.844029,0.073128403 C127.142689,0.30861068 128.431435,0.600933507 129.720181,0.886151265 C129.853021,0.91558655 129.960086,1.06682301 130.096891,1.17542906 C129.789575,1.64131857 129.319678,1.5306825 128.947924,1.65552871 C128.557335,1.78544996 128.145928,1.84939558 127.743443,1.93973145 C127.380611,2.02093224 127.018771,2.10619306 126.653956,2.17521373 C126.248497,2.25133947 125.839072,2.30208996 125.433613,2.38024571 C125.046989,2.45535644 124.628642,2.40663597 124.041767,2.6989588 C125.373141,2.93342606 126.454696,2.95677129 127.507503,2.53655722 C128.166746,2.27265467 128.809136,2.06457766 129.545704,2.15897357 C129.877804,2.20160399 130.269385,2.02600729 130.587606,1.85751566 C131.384646,1.43527158 132.198539,1.24647975 133.095704,1.39264116 C133.411943,1.44440666 133.746025,1.375386 134.072177,1.36828093 C134.314065,1.36320588 134.555953,1.36726592 134.780987,1.36726592 C135.183473,1.79661507 135.183473,2.3274652 135.242953,2.81568492 C135.341096,3.6297228 135.569105,4.37372499 136.022149,5.05784161 C136.228348,5.36843461 136.34731,5.73891319 136.516829,6.07691146 C136.666522,6.37735437 136.801345,6.69200741 136.994657,6.96098501 C137.56567,7.75269267 138.381546,7.88870398 139.15975,7.32537353 C139.426421,7.13150666 139.655422,6.88181424 139.894335,6.64836199 C140.132258,6.41490973 140.344405,6.15100718 140.597198,5.9358251 C141.401177,5.25069347 143.035902,5.25576852 143.833933,5.96424537 C143.958842,6.07488144 144.017331,6.34791908 143.995522,6.53265087 C143.930093,7.07466611 143.596011,7.49691019 143.140984,7.70701722 C141.49932,8.46522956 140.427678,9.88116825 139.237075,11.1600806 C139.01204,11.401653 138.811789,11.6797656 138.652182,11.9710735 C138.439044,12.3577922 138.454905,12.7861263 138.590719,13.2002503 C138.721576,13.6052393 139.021953,13.7950461 139.423447,13.8529017 C139.489867,13.8630518 139.544391,13.9574477 139.651456,14.0579336 C139.444266,14.4314573 139.178586,14.8009208 139.027901,15.2150448 C138.886139,15.6027786 138.847477,16.0351728 138.796919,16.4513268 C138.741403,16.9040212 138.835581,17.3729557 138.676966,17.9038058 C138.370641,17.8581304 138.093065,17.8459503 137.833333,17.7728696 C137.357488,17.6368582 136.900479,17.4237062 136.418686,17.3191602 C135.739616,17.1729988 135.281616,17.6358432 135.388681,18.337215 C135.438248,18.6681082 135.548287,18.9929114 135.6613,19.3085794 C135.831811,19.783604 136.045941,20.2434035 136.20753,20.7204581 C136.395885,21.2736384 136.169859,21.7232878 135.633543,21.9374548 C135.11507,22.1445168 134.632286,21.9293348 134.425095,21.3984846 C134.410225,21.3588992 134.39139,21.3182988 134.388416,21.2776985 C134.315056,20.1114522 133.468449,19.8150693 132.59111,19.5176714 C132.245132,20.4413304 132.451331,21.024961 133.206735,21.3913796 C134.030541,21.7912934 134.159415,21.9323798 134.479619,22.8154383 C134.31803,22.8499487 134.159415,22.9189693 134.004766,22.9098342 C133.449614,22.8773539 132.941055,23.0225003 132.461245,23.2894479 C131.148706,24.0172099 129.750912,24.2709624 128.27282,24.0984107 C128.19153,24.0892756 128.107265,24.0994257 128.025975,24.0842006 C127.352853,23.9593544 126.928558,24.2993827 126.618268,24.8637281 C126.356553,25.3417978 126.086908,25.8158073 125.818254,26.294892 C125.242284,26.5181941 124.662348,26.4075581 124.096291,26.3588376 C123.456875,26.3040271 122.890818,26.3933479 122.335666,26.7709316 C121.861804,27.0916747 121.307643,27.2875716 120.793136,27.537264 C120.532413,27.9432679 120.720768,28.362467 120.735638,28.775576 C120.75943,29.4241672 120.62659,29.5733737 119.976269,29.6444244 C119.854334,29.6576195 119.730416,29.6525444 119.607489,29.6677696 C119.571801,29.6718296 119.539087,29.71243 119.480598,29.7530304 C119.162376,30.122494 119.241684,30.6066537 119.240692,31.059348 C119.23871,31.7586898 118.928419,32.2661947 118.40499,32.6701686 C117.685275,33.224364 117.144993,33.0812476 116.761343,32.2326994 C116.694923,32.084508 116.630486,31.9342865 116.532343,31.7099693 C116.281533,31.8043653 116.061455,31.884551 115.844351,31.9708269 C115.655004,32.0459376 115.46764,32.1281534 115.230709,32.2266093 C115.045328,32.0510126 114.877791,31.8764309 114.694393,31.7231645 C114.120405,31.2440798 113.573184,30.7223648 112.954586,30.3123008 C112.238836,29.8372762 111.923589,29.1287994 111.66584,28.366527 C111.620238,28.2325457 111.705493,28.050859 111.738208,27.843797 C111.516147,27.7341759 111.303999,27.6194798 111.083921,27.5220388 C110.761735,27.3789225 110.552561,27.1302451 110.41179,26.812547 C110.325544,26.6196951 110.25615,26.4197382 110.159989,26.2339914 C109.71785,25.3783381 109.650439,24.5551652 110.321578,23.7756376 C110.36718,23.7218421 110.354293,23.6152661 110.38899,23.4234292 Z M72.0496337,12 C72.8484449,12.1851307 73.5670704,12.3782718 74.2988911,12.5144496 C75.5686659,12.7494232 76.6922795,13.2167001 77.6504469,13.9883745 C77.8361934,14.1379031 78.0655851,14.2455993 78.2594516,14.3880075 C78.6684998,14.6897349 79.1303283,14.7903107 79.6652375,14.7885306 C81.7348384,14.7823002 83.8034244,14.8009913 85.8730253,14.8179023 C86.6596564,14.8250227 87.2991113,15.0083733 87.9923617,15.3973257 C88.037022,15.6180584 87.8796958,15.7577964 87.6807543,15.8085293 C87.3204265,15.9010947 86.9458886,15.99366 86.5764257,15.9981103 C85.9014455,16.0079008 85.2234203,15.9794192 84.5514851,15.9180056 C83.2461851,15.7996288 81.9530651,15.7542362 80.6345699,15.871723 C79.3059247,15.9918799 78.0117897,15.7622467 77.015052,14.8686352 C76.6110789,14.5072744 76.1330102,14.3079029 75.583891,14.205547 C74.4470822,13.9937148 73.4767348,13.4596841 72.4830421,12.9701559 C72.1176393,12.7894755 71.8953526,12.5509417 72.0496337,12 Z M68.9630596,15.5228071 C68.4106409,14.729933 67.4977715,14.8986812 66.6175775,15.031096 C66.4399049,15.0577404 66.2704012,15.2103404 66.1407207,15.3338737 C66.0079768,15.4606367 65.9579426,15.6439182 65.8180509,15.7626071 C65.6863282,15.8740293 65.484149,16.0015996 65.3136242,15.9999848 C65.0859174,15.9975626 65.0042289,15.8150885 65.0103555,15.6261552 C65.0185244,15.3911997 64.9981022,15.1562441 65.0001445,14.9212886 C65.0062711,14.2656738 65.1788381,14.1090367 66.0324833,14.0331404 C66.4113139,13.9992293 66.7962712,14.0040738 67.1781651,14.002459 C67.9848394,13.9984219 68.7915137,14.0000367 69.598188,14.002459 C69.8095571,14.002459 70.0270529,13.9903479 70.2312742,14.0226441 C71.0277374,14.1469849 71.2278744,14.6314293 70.7254899,15.1312145 C70.2976461,15.5575256 69.741143,15.6124293 68.9630596,15.5228071 Z M69.2066042,19.3759359 C68.606397,19.423803 68.13503,19.4836367 67.6636631,19.4906173 C67.2918069,19.4966007 67.0487911,19.2343293 67.0047969,18.8533876 C66.9744199,18.5781522 67.0875479,18.3747174 67.3661782,18.2710055 C67.4457868,18.2420858 67.5337753,18.2051883 67.6154789,18.2111717 C68.5697351,18.2849667 69.4998992,18.086518 70.4405381,18.0107286 C71.4461209,17.929953 71.8871108,18.3019196 71.9950015,19.2413099 C72.0211885,19.4676811 71.9405324,19.7219746 71.8452115,19.9383734 C71.7635079,20.1208665 71.5990532,20.2754371 71.4534532,20.4260187 C70.7034561,21.2008662 69.9597438,21.2766556 69.5376085,20.1208665 C69.4548574,19.8925009 69.3406819,19.6741076 69.2066042,19.3759359 Z M92,75.80363 C91.330666,76.1450786 90.8111538,75.9948762 90.325692,75.7058237 C89.7195945,75.3451632 89.0969582,74.9949819 88.5502057,74.5696993 C88.086147,74.2081655 87.5958209,74.0570897 87.0033436,74.0745551 C86.315525,74.0946403 85.6286793,74.1042463 84.9408608,74.1068661 C84.7005621,74.1077394 84.4563719,74.0928938 84.2228833,74.0466105 C84.1314336,74.0291451 84.0185807,73.9121269 84.0030148,73.8274197 C83.9855032,73.7400927 84.0467939,73.579411 84.1217049,73.5488465 C85.2074269,73.1130847 86.323308,72.7856084 87.5121542,73.1707205 C87.8798988,73.2894853 88.2223487,73.5069295 88.5317211,73.7296134 C89.2010552,74.2107853 89.872335,74.643054 90.7683475,74.739987 C91.3832009,74.8072288 91.7373253,75.2106796 92,75.80363 Z M93,77.2018822 C93.7638575,76.3078936 94.7668086,75.9143137 96.0833759,76.01552 C96.7095735,76.0645166 97.2260571,76.2813872 97.6297216,76.6492639 C98.0230357,77.0083052 98.0789277,77.4187528 97.9102167,77.8621326 C97.140149,77.7231748 97.1349738,77.7135361 96.4373587,77.895868 C96.1020066,77.9834195 95.7583743,78.0773967 95.4582135,77.8974745 C94.8154553,77.5119268 94.0764387,77.4026883 93.2991258,77.3625271 C93.2308133,77.3593142 93.1687111,77.2950562 93,77.2018822 Z M68.9999763,12.9481876 C68.0575092,13.0756381 67.2337781,13.0201494 66.6150521,12.1748146 C66.2310153,12.212096 65.8191497,12.2762548 65.4063565,12.2866589 C65.068701,12.295329 64.7208416,12.2719197 64.3924623,12.2025589 C64.1642665,12.1548734 64.0167741,11.9667322 64.0010045,11.7239693 C63.9852348,11.4768715 64.1568455,11.2150344 64.3961728,11.1248654 C64.4314225,11.1118602 64.4666723,11.091052 64.5037773,11.0875839 C65.7300977,10.9610004 66.9582734,10.9020438 68.1113114,11.4109787 C68.760649,11.697959 69.0027592,12.2398403 68.9999763,12.9481876 Z M73.9398593,19 C73.7535812,18.9693291 73.5661741,18.9500178 73.3855408,18.9057153 C73.0152425,18.8148385 72.8594463,18.3627265 73.1541044,18.1582538 C73.7276151,17.7595319 74.3293499,17.3960247 74.94689,17.0688683 C75.1286523,16.9723117 75.4210524,16.9859432 75.6265228,17.0563727 C76.0227872,17.1926879 76.405504,17.3823932 76.7712864,17.5914098 C77.1099739,17.7856589 77.0591708,18.3547748 76.7069358,18.5365284 C76.6245219,18.5785589 76.5387211,18.6274052 76.4495334,18.6399007 C75.6152333,18.7637204 74.7786752,18.8807242 73.9398593,19 Z M59.9986612,12.957845 C59.9814207,13.0877498 59.9660959,13.3039113 59.922037,13.5127982 C59.8559487,13.8287266 59.5724393,14.0854185 59.3100016,13.9731807 C58.6797678,13.704018 58.0725214,13.7965102 57.4489923,13.9544744 C57.2354024,14.0074756 57.0333062,13.8890024 57.0026565,13.6499776 C56.9844583,13.5096805 57.0620403,13.2716949 57.1654829,13.2072622 C57.7823074,12.822744 58.4058365,12.4434221 59.0533106,12.1264544 C59.7007848,11.8094868 60.023564,12.0890419 59.9986612,12.957845 Z M5,40.8995462 C5.43494438,40.6558989 5.62501391,40.479029 5.85939412,40.4321044 C6.6208383,40.2805017 7.13274335,39.9673698 7.31581645,39.3528373 C7.3496325,39.2391353 7.52221097,39.1497979 7.6842948,39 C8.0702642,39.2878647 8.00962853,39.5865582 7.97231426,39.8599846 C7.93849821,40.1117534 7.87086611,40.369839 7.7437644,40.6008527 C7.68196265,40.7127499 7.46157529,40.7903561 7.29249503,40.8444999 C6.69313468,41.0376129 6.37363131,41.0448321 5,40.8995462 Z M3,41.552535 C1.88006418,42.0879637 0.934622605,42.1902812 0.0113893918,41.5982302 C-0.0510055219,41.2624697 0.154157414,41.1452515 0.354032646,41.1075033 C1.21381341,40.9435965 2.06830646,40.8839941 3,41.552535 Z M90,78.5115756 C89.9828015,78.7729844 89.7824387,78.9606084 89.5433793,78.995744 C89.3223784,79.0280688 89.0747197,78.8727694 89.024844,78.6486044 C89.0007661,78.5382786 88.9792679,78.403358 89.0360231,78.3113027 C89.1082568,78.1939498 89.2389656,78.0653536 89.3825732,78.02038 C89.6130333,77.947298 89.7850185,78.0822187 89.8907894,78.2431397 C89.9552839,78.3415193 89.9793618,78.4574668 90,78.5115756 Z M75,15.6957006 C74.6580482,16.1192951 74.166642,16.0066469 73.690779,15.9107563 C73.1969815,15.8120727 72.975789,15.6407729 73.0020929,15.4126836 C73.0331795,15.1482861 73.4755646,14.9471951 73.9263192,15.0123634 C74.4320731,15.0859106 74.8696757,15.2385909 75,15.6957006 Z M100.998964,77.6296799 C100.923863,77.7042868 100.820713,77.8542045 100.662367,77.9485189 C100.505831,78.0414256 100.302244,78.0041221 100.181902,77.8725043 C100.100467,77.7824129 100.032605,77.6726141 100.010889,77.5656306 C99.9475507,77.245384 100.168329,76.987779 100.470543,77.0004481 C100.796282,77.0145249 101.017061,77.2418648 100.998964,77.6296799 Z M7,32.3636831 C7.28337664,31.9646831 7.60491575,31.9326831 7.95730962,32.0826831 C8.07098506,32.4516831 7.9451301,32.7226831 7.72752283,32.8256831 C7.40598372,32.9786831 7.17132513,32.7536831 7,32.3636831 Z M89.9998811,71.4765247 C89.9939841,71.7045247 89.7600672,71.8745247 89.4671796,71.8645247 C89.1851034,71.8545247 88.9816547,71.6555247 89.0013115,71.4065247 C89.0199856,71.1615247 89.2647138,70.9715247 89.5192704,71.0035247 C89.7915182,71.0375247 90.0057782,71.2485247 89.9998811,71.4765247 Z M87.6096246,30.0000036 C87.6826246,30.0800036 87.8546246,30.1950036 87.9156246,30.3530036 C87.9896246,30.5450036 87.6956246,30.7750036 87.4286246,30.7480036 C87.2196246,30.7270036 87.0406246,30.6350036 87.0026246,30.4010036 C86.9706246,30.2050036 87.2346246,29.9990036 87.6096246,30.0000036 Z M84.9198303,29.3791793 C84.8678303,29.4511793 84.8058303,29.6151793 84.7328303,29.6201793 C84.5418303,29.6341793 84.3378303,29.6031793 84.1568303,29.5401793 C84.0778303,29.5131793 83.9858303,29.3521793 84.0018303,29.2711793 C84.0198303,29.1781793 84.1368303,29.0661793 84.2348303,29.0331793 C84.5528303,28.9281793 84.8558303,29.0801793 84.9198303,29.3791793 Z M112.961365,45.7182944 C113.024378,45.8494208 112.989371,46.0265915 112.997373,46.1376986 C112.687307,46.4439937 112.495267,46.1196812 112.268219,46.1096715 C112.061175,46.1016638 111.84713,46.0566204 111.649088,46.0946571 C111.410038,46.1407014 111.18399,46.2568133 110.863922,46.3749271 C110.408826,46.0436079 109.861711,45.7713455 109.204572,46.0215867 C109.058541,46.0776407 108.870502,46.0606243 108.708467,46.0335982 C108.279377,45.9595269 107.715258,46.2768326 107.4432,45.787361 C107.213152,45.3749636 107.720259,45.0546549 107.824281,44.6632778 C108.021322,43.925567 108.373397,43.2819468 108.95752,42.7584424 C109.112553,42.6203092 109.167564,42.3140141 109.175566,42.0807894 C109.188569,41.7194412 108.726471,41.5022319 108.445412,41.725447 C108.154351,41.9556688 107.888294,42.2169206 107.492211,42.570261 C107.340179,42.570261 107.007108,42.6062957 106.68504,42.5632543 C105.932882,42.4621569 105.428775,42.9065851 104.913667,43.3279912 C104.83465,43.3930539 104.811645,43.5381937 104.780638,43.6523037 C104.580596,44.3950193 104.45857,44.4770984 103.46136,44.5201399 C103.088281,44.1047396 103.355338,43.5552101 103.156296,43.0246989 C102.79822,42.9756517 102.396135,43.2028706 102.003052,42.9636401 C101.631974,42.7384231 101.229889,42.8004829 100.819802,43.0206951 C100.463727,43.2108783 100.046639,43.3099738 99.6455546,43.38905 C98.0582195,43.7053548 97.8521761,43.9015438 97.5151049,45.5301131 C97.6921423,45.7323079 97.8971856,45.6342134 98.0852252,45.5661478 C98.9824146,45.2408343 99.931615,45.052653 100.751788,44.5231428 C100.886817,44.4360589 101.057853,44.3920164 101.218887,44.3599856 C102.204095,44.1597927 102.841229,44.8484563 102.574173,45.8243967 C102.531164,45.9795462 102.454147,46.125687 102.382132,46.3038587 C102.574173,46.5390853 102.75221,46.7582965 102.930248,46.9755058 C103.091282,46.9354673 103.221309,46.9284605 103.323331,46.8714055 C103.563382,46.7382773 103.790429,46.5821268 104.103496,46.3839358 C104.183512,46.7202599 104.255528,46.9514827 104.289535,47.1877103 C104.328543,47.4559688 104.421563,47.733236 104.69162,47.7442466 C104.904665,47.7522543 105.148716,47.5981058 105.335756,47.4579707 C105.556802,47.2898087 105.731839,47.0595869 105.955886,46.8263621 C106.524006,47.3488656 106.668037,47.9824762 106.816068,48.5670394 C106.553013,49.058513 106.11292,49.0955487 105.718836,49.198648 C105.115709,49.3557995 104.50358,49.4799191 103.897452,49.6290628 C103.289324,49.7802084 102.689197,49.9493714 102.209096,50.3917977 C102.119077,50.4748778 102.006053,50.5369376 101.89803,50.5979964 C101.18588,51.004388 100.819802,50.836226 100.674772,50.0284476 C100.610758,49.6721042 100.57275,49.3107561 100.519739,48.9233828 C100.317696,48.9574156 100.14666,48.9343934 100.092649,49.00346 C99.6705599,49.5439808 99.088437,49.6911226 98.4503023,49.7461756 C98.0222119,49.7832113 97.6571349,49.9864071 97.3430686,50.2776878 C96.7809499,50.7971884 96.7109352,51.2666407 97.0830137,51.9472966 C97.2610513,52.2716091 97.4310872,52.5999255 97.6001228,52.9282418 C97.615126,52.9582707 97.5931214,53.007318 97.5781182,53.1344405 C97.435088,53.1894936 97.2540498,53.3196189 97.0740118,53.318618 C96.4938894,53.3136132 95.9137669,53.2635649 95.3336445,53.2225254 C95.1286012,53.2085119 94.9235579,53.1444501 94.7205151,53.1534588 C94.3154296,53.1724772 94.0893818,53.4277231 94.0483732,53.8801591 C94.03337,54.0423153 94.0453726,54.2074745 94.0453726,54.416676 C93.7403082,54.557812 93.4492467,54.6919413 93.1601857,54.8240686 C92.8891285,55.4376598 93.4862545,56.3435327 92.4550369,56.6888655 C92.2359906,56.6077874 91.9739353,56.5096928 91.7268832,56.4186051 C91.6518674,56.5247073 91.5808524,56.5827633 91.5668494,56.6538317 C91.4778306,57.0952571 91.6858745,57.4666149 91.8749144,57.8369718 C92.0629541,58.2063277 92.2699978,58.565674 92.5110487,59.0040964 C92.2820004,59.1972826 92.0999619,59.4615372 91.8599113,59.5366095 C90.8857056,59.8389008 90.2395693,60.5045422 89.6654481,61.299308 C89.1273345,62.0420237 88.5382102,62.737694 87.7340404,63.2321705 C87.4649836,63.3973297 87.2669418,63.6996209 87.0789021,63.9688804 C86.8228481,64.3352334 86.8308498,64.7085932 87.0088874,65.1450137 C87.3709638,66.0288654 87.661025,66.942746 87.9650892,67.8496198 C88.1841354,68.5042506 88.1621308,69.1628853 87.9100776,69.8075064 C87.8510651,69.959653 87.7610461,70.1037919 87.6640257,70.2359192 C87.4849879,70.4761507 87.0268912,70.4491247 86.9328713,70.1618478 C86.7318289,69.5482566 86.348748,69.1018264 85.9016537,68.6453866 C85.3975473,68.1308909 85.2995266,67.3791665 85.1444939,66.688501 C85.0554751,66.2881152 85.0734789,65.8577004 84.8004212,65.4733301 C84.5023583,65.616468 84.2222992,65.7505972 83.8982308,65.9057467 C83.572162,65.5353899 83.2760995,65.2000668 82.9730355,64.8577369 C82.3529046,64.7836655 81.8467978,65.1720397 81.2766775,65.2351005 C80.7035565,65.2981613 80.1244343,65.3141767 79.5543139,65.3512124 C79.3372681,65.7125606 79.1512289,66.0248615 78.9281818,66.3972203 C78.6341197,66.2961229 78.337057,66.2540824 78.1100091,66.1059396 C77.2008172,65.5113667 76.1926044,65.6144661 75.2013952,65.6835326 C74.9533428,65.700549 74.6712833,65.9197602 74.4942459,66.122956 C74.0221463,66.6664798 73.4990359,67.1169138 72.8428974,67.4292147 C72.4328108,67.6254038 72.0527306,67.8956642 71.8876958,68.3571088 C72.3988036,69.5192286 72.4278098,69.6263318 72.068734,70.8685288 C71.6966554,72.1567701 71.8246825,73.4340008 72.1277464,74.6972181 C72.2307682,75.1256309 72.4818212,75.5540437 72.769882,75.8933707 C73.2799896,76.4959513 73.8471093,77.0534885 74.4312326,77.5850007 C74.9233365,78.0314309 75.2304013,78.0254251 75.7855185,77.6991106 C75.8215261,77.6780904 75.8535328,77.6500634 75.8885402,77.6280422 C76.6827078,77.1385705 76.6827078,77.1385705 77.6079031,77.264692 C77.9649785,77.0524876 78.100007,76.7201673 78.0880045,76.3197815 C78.081003,76.0705414 78.0279918,75.8203002 78.042995,75.573062 C78.0790026,74.9834939 78.3910684,74.6731949 78.9791926,74.6061303 C79.5983232,74.5350618 80.2174539,74.4559856 80.838585,74.4049364 C81.4057047,74.3588921 81.6907649,74.586111 81.7947868,75.150655 C81.9058103,75.7482308 81.8708029,76.3508114 81.4377115,76.8012455 C80.8965973,77.3627866 80.7845736,78.0084087 80.7855738,78.7461195 C80.786574,79.3166693 80.658547,79.88822 80.5755295,80.5518595 C80.7805728,80.6079135 81.0936388,80.6619656 81.3806994,80.7790784 C81.9308155,81.0032945 82.4119171,80.9092038 82.928026,80.6359405 C83.7121915,80.2195393 83.9642447,80.283601 84.5693725,80.8991942 C85.1194886,81.4597343 85.4375557,82.0442976 85.1965048,82.9121338 C84.9764584,83.7038968 84.9444516,84.5557176 84.8974417,85.3845162 C84.8524322,86.1542579 85.121489,86.856935 85.5545804,87.4955503 C85.5885876,87.5445976 85.6195941,87.5836352 85.6526011,87.6276777 C85.4385559,88.1021348 85.3285327,88.575591 85.2815228,89 C84.7104022,88.5695853 84.1822908,88.0831165 83.6581801,87.590642 C83.4521367,87.3974558 83.1650761,87.280343 82.9020205,87.1592263 C82.2278783,86.8469253 81.8848058,86.3574537 81.8978086,85.5897139 C81.9148122,84.6057658 81.3877009,83.9471311 80.5225183,83.5397386 C80.3754873,83.4696711 80.1914484,83.3645698 80.0554197,83.3986026 C79.2072407,83.611808 78.5411001,83.0372544 77.7799394,82.8821049 C77.4088611,82.8060316 77.0587872,82.4767143 76.7667256,82.1934413 C76.3206314,81.7600237 75.944552,81.2545366 75.5154615,80.8000987 C74.8773268,80.1234467 74.2561957,80.1444669 73.6050582,80.8421392 C73.5210405,80.933227 73.4560268,81.044334 73.3690084,81.1334199 C73.115955,81.3936707 72.845898,81.439715 72.6058473,81.2044884 C72.3407914,80.9432366 72.125746,80.6309357 71.9077,80.3636782 C71.2435598,80.4597708 70.7154483,80.5558634 70.183336,80.6079135 C69.3991705,80.6839868 69.1301137,80.5318402 68.8080457,79.8231573 C68.6540132,79.4838304 68.5089826,79.1234831 68.4609725,78.7591321 C68.358951,77.9903913 67.8968534,77.5789949 67.2197105,77.3477721 C66.866636,77.2266554 66.5005587,77.1435753 66.1404827,77.040476 C65.1452726,76.757203 64.3821116,75.969444 64.4891342,74.9764872 C64.6451671,73.5170809 63.8850066,72.5861839 62.9058,71.7904171 C62.4026938,71.3820236 61.9946076,70.9426002 61.688543,70.4010784 C61.0093997,69.1939152 60.1972283,68.0938552 59.2060191,67.1259225 C58.9679688,66.8936987 58.7599249,66.630445 58.5418789,66.379203 C58.0177683,65.7756213 57.5866773,65.1239935 57.3886355,64.3302286 C57.3206211,64.0559643 57.182592,63.7857039 57.0185574,63.5554821 C56.9565443,63.4683981 56.6954892,63.4303615 56.5844657,63.4864155 C56.1013638,63.7286489 55.9703361,64.1880916 56.216388,64.6375247 C56.2563965,64.7105951 56.2934043,64.7946761 56.3544172,64.8447244 C57.5376669,65.8206648 57.940752,67.3761636 59.0309821,68.4331821 C59.3300452,68.7234618 59.485078,69.2379576 59.5500917,69.6733772 C59.6391105,70.2609433 59.9261711,70.6603282 60.3512608,71.0286831 C60.6633266,71.2989435 60.9653904,71.5982319 61.2024404,71.934556 C61.3304675,72.1157306 61.3584734,72.4030074 61.3484713,72.6382341 C61.3354685,72.9355205 60.9243817,73.1287067 60.6833309,72.9755591 C60.5102943,72.865453 60.3312566,72.7423344 60.20523,72.584182 C59.8891632,72.1878 59.5440904,71.8564808 59.0669897,71.6412734 C58.8779498,71.5571924 58.6999122,71.2879329 58.6559029,71.0737265 C58.4658628,70.1518382 57.7127039,69.6233289 57.201596,68.9316625 C57.0905726,68.7815178 56.7585025,68.7815178 56.5234529,68.7434811 C56.2884032,68.7044435 56.0473524,68.7084474 55.8103023,68.6854252 C55.7812962,68.6824223 55.7572911,68.6263683 55.7142821,68.5743181 C55.6452675,67.9907558 56.1843813,67.6454231 56.3404142,67.1259225 C56.3694203,66.7545646 56.1483737,66.4782984 55.8573122,66.3241499 C55.1711674,65.9587979 54.8891079,65.3241864 54.6220515,64.6615478 C54.3419924,63.9668785 54.0709352,63.2662033 53.7638704,62.5825445 C53.5778311,62.1661433 53.3447819,61.7687604 53.1087321,61.3763823 C52.81467,60.8859097 52.4135854,60.6006348 51.7984556,60.5575933 C51.3573625,60.5265634 50.9212704,60.3333773 50.4961807,60.1752249 C49.6750074,59.8709317 49.2419159,59.2643472 49.1598986,58.3895042 C49.0688794,57.4135638 48.7018019,56.560742 48.1296812,55.7499608 C47.3415148,54.6348863 46.944431,53.3766739 47.0984635,51.9763246 C47.2024855,51.0244073 47.2494954,50.0654833 47.337514,49.1105632 C47.3995271,48.4349121 47.3325129,47.7822832 47.0934625,47.1446689 C46.9764378,46.8333689 46.830407,46.5160631 46.8014008,46.1917506 C46.7243846,45.3449347 46.2492843,44.8314399 45.523131,44.48911 C45.1480519,44.3129402 44.7829748,44.1127473 44.3978935,43.9616017 C43.6607379,43.671322 43.4186868,43.3680297 43.3886805,42.5872774 C43.3806788,42.3800778 43.4036837,42.1708762 43.4256883,41.9646775 C43.4997039,41.273011 43.2396491,40.6834429 42.6635275,40.3651362 C41.9863845,39.9917764 41.652314,39.411217 41.3402482,38.7675968 C41.1862156,38.4502911 41.1232023,38.0428985 40.6941118,37.9197799 C40.4580619,38.6234579 40.4240548,38.820648 40.7641266,39.2830936 C41.0511871,39.6724688 41.1922169,40.087869 41.2562304,40.5433079 C41.2772349,40.6934526 41.2082203,40.8576107 41.1672116,41.0958403 C40.9281612,41.0327795 40.7201173,41.020768 40.5600835,40.9276783 C40.2380155,40.738496 39.9519551,40.4862529 39.6318876,40.2940677 C39.0677685,39.9567427 38.8607248,39.4482527 38.8637254,38.8226499 C38.8667261,38.4482892 38.8557237,38.0719265 38.8827294,37.6985667 C38.9177368,37.211097 38.6876883,36.8897874 38.2706002,36.7156196 C37.928528,36.5734826 37.5644512,36.4473611 37.2003744,36.4043196 C36.7092707,36.3472646 36.4202097,36.1280534 36.3752002,35.6395827 C36.2441725,34.2402343 35.3539846,33.6456614 34.0887176,33.3854106 C32.7864427,33.1181531 31.4921695,32.8078541 30.1988966,32.4965542 C29.9198377,32.4294895 29.6567821,32.2863516 29.3937266,32.162232 C28.9056236,31.9300082 28.4425258,31.6677555 27.8514011,31.794878 C27.6403565,31.8399214 27.3743004,31.7017883 27.1512533,31.6046948 C26.8501898,31.4745694 26.5661298,31.3024035 26.2130553,31.1152231 C26.0700251,31.3554546 25.9389974,31.5526446 25.8349755,31.7628472 C25.7609599,31.909989 25.7309535,32.079152 25.6659398,32.2322995 C25.2658554,33.1672004 24.8637705,33.3363634 23.9195712,32.9750152 C23.8035467,32.9309728 23.6895226,32.8839274 23.5094846,32.8128589 C23.2904384,32.9289708 23.0493875,33.0881242 22.786332,33.1882206 C22.5692862,33.2702997 22.3262349,33.2843132 22.099187,33.3273547 C21.7181065,32.7518001 22.4202547,32.2413082 22.0561779,31.6997864 C21.9631583,31.7067932 21.8391321,31.6887758 21.7401112,31.7298153 C21.3670324,31.8859658 21.1479862,32.1872561 21.0609678,32.5716265 C20.9219385,33.1822148 20.8009129,33.7958061 19.9637362,34.2432372 C20.5988703,34.3723617 20.9389421,34.4404272 21.270012,34.5074919 C21.4860576,34.8718429 21.3470282,35.1911506 21.1239811,35.434385 C20.8179165,35.7687072 20.4628416,36.0639917 20.1017654,36.3402579 C19.7646942,36.5995077 19.3926157,36.5724817 19.0685473,36.3012203 C18.8174943,36.0910177 18.5954474,35.8467824 18.3914044,35.6495924 C17.9273064,35.6636059 17.7982792,36.0149444 17.5662302,36.2351566 C17.1161352,36.6645704 16.6860444,37.1210102 16.1989416,37.5033787 C15.7158396,37.8817432 15.1457193,38.0248812 14.5635964,37.6985667 C14.1925181,37.4903661 13.860448,37.5554288 13.4963712,37.7155831 C12.8872426,37.9828407 12.2671117,38.2310799 11.6409796,38.4562969 C11.3319143,38.5674039 10.9998442,38.6394734 10.6727752,38.6654985 C10.5557505,38.6745071 10.36371,38.5193576 10.3156998,38.396239 C10.2666895,38.2691165 10.3056977,38.0599149 10.3857146,37.9408001 C10.4697324,37.8166805 10.6437691,37.7456121 10.7887997,37.6715407 C12.3071202,36.8957932 13.8354427,36.139064 15.3417607,35.3402943 C15.6978358,35.152113 16.0069011,34.8518237 16.2929615,34.5585411 C16.4359916,34.4113993 16.432991,34.1451427 16.2469517,33.9980009 C16.1339279,33.9079141 15.9378865,33.8508591 15.7998574,33.8798871 C15.5227989,33.9379431 15.2607436,34.0640646 14.9676817,34.1711678 C14.6426131,33.881889 14.3365485,33.6086257 13.9784729,33.2893181 C13.7014145,33.4925138 13.448361,33.6776923 13.1853055,33.8708784 C12.7302095,33.8418505 12.5571729,33.5245447 12.5111632,33.1241589 C12.4831573,32.8799236 12.5551725,32.6236766 12.5181647,32.3824442 C12.4961601,32.247314 12.344128,32.1312021 12.2301039,31.9790555 C11.5749656,32.2973622 11.2769027,33.1391734 10.3897155,33.0400779 C9.96362553,32.5315879 9.50752926,31.9960719 9.06443574,31.4515472 C8.93340808,31.2913929 8.82138444,31.1122202 8.72936501,30.9270418 C8.55932913,30.5857129 8.61634116,30.3024399 8.91440407,30.0291766 C9.82559639,29.1933713 10.8168056,28.5347366 12.1340836,28.6348331 C12.6962023,28.6768736 13.0952865,28.4336392 13.3463395,27.9351589 C13.462364,27.7019341 13.2893275,27.366611 13.0332734,27.3906342 C12.7532143,27.4176602 12.4381478,27.452694 12.2121001,27.5978338 C10.9458328,28.410617 9.63955713,28.1363527 8.36628838,27.7159476 C7.68714503,27.4907306 7.23104877,26.9181789 7,26.1874748 C7.99521006,25.5258373 9.19446318,25.5828923 10.1976749,25.0353647 C10.4527288,25.2295518 10.6737754,25.4167321 10.9128259,25.5758855 C11.4829462,25.9532491 12.1100786,26.1504391 12.8002242,26.1134035 C13.0672806,26.0993899 13.2223133,25.816117 13.1092895,25.5658759 C12.9282513,25.167492 12.6271877,24.886221 12.2381056,24.7090502 C11.7500026,24.4858352 11.2618996,24.2546123 10.7527921,24.0904542 C10.3617096,23.9643326 9.94062067,23.9222921 9.52953391,23.86824 C9.11044545,23.814188 8.84738993,23.5959777 8.71136121,23.2025986 C8.5843344,22.8312408 8.65534939,22.5529727 8.96141399,22.318747 C9.29648472,22.0625001 9.65856114,21.8432888 10.093653,21.8492946 C10.908825,21.8603052 11.647981,21.5920467 12.3801356,21.2837497 C12.9582576,21.0405153 13.5373798,20.8363185 14.1875171,20.8853658 C14.4695766,20.9063861 14.7626384,20.8112944 15.0466984,20.7492346 C15.6818325,20.6111015 16.2259473,20.344845 16.5150083,19.7082315 C16.5630185,19.6011283 16.6740419,19.5230531 16.7990683,19.383919 C17.2141559,19.6541794 17.5972367,20.0395508 18.0493322,20.1586656 C18.5024278,20.2767794 19.0255382,20.1146231 19.5186423,20.1046135 C19.7226854,20.1006096 19.9347301,20.1506578 20.1317717,20.2127176 C20.625876,20.3678671 21.1209805,20.3558556 21.6120842,20.229734 C22.5362792,19.9915045 23.4504722,20.0395508 24.2936501,20.4649607 C25.5269105,21.0855587 26.7761741,21.0435182 28.0574446,20.7162028 C28.1384617,20.6951825 28.2214792,20.683171 28.3004959,20.6581469 C29.3467167,20.3378382 30.3119204,20.2757784 31.1040876,21.2647313 C31.3861472,21.6160699 31.8632479,21.8082551 32.3503507,21.7051557 C33.4545837,21.4699291 34.2877596,21.9423843 35.0339171,22.6760913 C35.0919293,22.7331463 35.1719462,22.7661781 35.293972,22.8422514 C36.0921404,22.798209 36.5072281,22.1335685 37.0433412,21.5379947 C37.5234425,21.5920467 38.0195473,21.6150689 38.501649,21.7101606 C39.3868358,21.8843284 40.2250128,21.922365 41.003177,21.3357998 C41.4282667,21.0154912 41.9443757,21.0265018 42.443481,21.1786484 C42.7605479,21.274741 43.0676127,21.4018635 43.4046839,21.5249821 C43.6917445,21.3658288 43.973804,21.2096783 44.3138758,21.020496 C44.5749309,21.359823 44.8199826,21.6771287 45.0500312,21.9774181 C45.1750576,21.9563978 45.2800797,21.9714123 45.3270896,21.9263689 C45.9152138,21.3608239 46.6093603,21.2337014 47.4005273,21.3147796 C48.0186578,21.3778403 48.6487908,21.3408046 49.2729225,21.3327969 C49.9970753,21.3227873 50.6742183,21.4579175 51.2933489,21.8633081 C51.5333996,22.0204596 51.805457,22.1395743 52.0765142,22.2376689 C52.6226295,22.4328569 53.1787469,22.6030209 53.7298632,22.7821935 C54.0979409,22.9023093 54.3800004,22.8082186 54.5970462,22.3657923 C54.1489517,21.8853293 53.652847,21.3998616 53.2137543,20.8683494 C52.7706608,20.3318324 52.4425915,19.7032267 51.9394853,19.1226673 C51.7574469,19.3018399 51.6004138,19.3929277 51.5414013,19.5270569 C51.2703441,20.1406482 50.7512345,20.3668662 50.1481072,20.4389356 C49.5699852,20.5070012 48.9878623,20.5470398 48.4067397,20.5580504 C48.2166996,20.5620543 47.9576449,20.4949896 47.844621,20.3628623 C47.4575393,19.9094254 46.9614346,19.778299 46.4073177,19.7212441 C46.2102761,19.7002238 46.0222364,19.5941216 45.8552011,19.5370666 C45.8552011,19.4029374 45.8291956,19.271811 45.859202,19.2567965 C46.5053383,18.9404917 46.8484108,18.4059767 47.0004428,17.7243199 C47.0274485,17.6022022 47.0814599,17.4870913 47.1114663,17.3659746 C47.2204893,16.9215463 47.5415571,16.7814113 47.9526438,16.7814113 C48.9928634,16.7824123 50.0340831,16.762393 51.0733025,16.8024315 C51.6244188,16.8244528 52.1395275,16.8154441 52.6456344,16.5471856 C52.8906861,16.4170602 53.1987511,16.3840284 53.4838113,16.3610062 C53.8248833,16.3329792 54.1499519,16.4190621 54.3669977,16.7223544 C54.6760629,17.1527691 55.1401609,17.3339437 55.6022584,17.5321347 C56.0973629,17.7453401 56.5964683,17.9585456 57.0615664,18.226804 C57.4456475,18.4480172 57.8207267,18.5270934 58.2538181,18.454023 C58.9099566,18.3429159 59.5700959,18.2468233 60.2312354,18.1667462 C61.3774774,18.0286131 61.669539,18.2127905 62.138638,19.2848235 C62.2666651,19.5771052 62.3076737,19.9424572 62.7657704,20.0986077 C62.9228036,19.1697126 62.1926494,18.3609333 62.4817105,17.4300363 C61.3594736,16.9385627 60.2112312,16.9625859 59.0479857,17.1307479 C58.6388994,17.1898048 58.229813,17.2648771 57.817726,17.2818935 C57.3686312,17.2999109 57.0285595,17.1017199 56.8175149,16.6723062 C56.6764852,16.3850293 56.4734423,16.1277815 56.2613975,15.7994651 C55.7532903,16.0577139 55.3171982,16.2789271 54.8691037,16.507147 C54.1069428,16.3610062 54.0829377,15.6262982 53.7688714,15.1037948 C53.2747672,14.9096076 52.7936656,15.040734 52.3235664,15.2149018 C51.3563622,15.5722462 50.3581515,15.5221979 49.3599409,15.4561343 C49.2129098,15.4471256 49.0728803,15.322005 48.9458535,15.2579433 C48.9638573,14.8455459 49.2189111,14.7094147 49.5199746,14.6643713 C49.8480439,14.6153241 50.0550876,14.5002132 50.071091,14.1288553 C50.0750918,14.0377676 50.2051192,13.9056402 50.3031399,13.8736094 C51.369365,13.5232718 52.4155858,13.0888532 53.5518256,13.0077751 C54.1159447,12.9677365 54.6470568,13.0708358 54.9791269,13.5883345 C55.2031742,13.9376711 55.5112392,14.0968245 55.9053224,14.137864 C56.0293486,14.1508765 56.1503741,14.1969209 56.2744003,14.2039277 C57.2476057,14.2549769 58.158798,14.4661804 58.9299608,15.1178083 C59.2680321,15.4020822 59.6461119,15.3029867 59.973181,15.0817735 C60.1762238,14.9456424 60.3222547,14.7284331 60.5142952,14.5712816 C60.7353418,14.3891061 60.9613896,14.1999238 61.2154432,14.0758042 C61.5385114,13.9186528 61.8665806,13.9666991 62.1306364,14.2409634 C62.2166545,14.3310502 62.2936708,14.4301456 62.3686866,14.5302421 C62.6707504,14.9316289 63.0408285,14.9346318 63.4809214,14.7754784 C64.5441458,14.392109 64.711181,14.5652759 64.5711515,15.6513224 C64.4681297,16.4540959 63.986028,16.9745974 63.431911,17.4580633 C64.1420609,18.0806632 65.0252473,17.3339437 65.7043907,17.804397 C65.7043907,17.9385263 65.7293959,18.0276121 65.6993896,18.0906729 C65.5053486,18.4950625 65.1312697,18.8854387 65.3953254,19.3618978 C65.7243949,19.9544688 66.1964945,20.4329298 66.8816391,20.6161063 C67.1616983,20.6901777 67.4597612,20.6901777 67.7458215,20.7462317 C67.9888728,20.7932771 68.235925,20.8493311 68.4639731,20.9434217 C68.7940428,21.0795529 68.9100673,21.471931 68.7420318,21.781229 C68.5329877,22.1655994 68.2119199,22.4118367 67.8068344,22.5649842 C67.250717,22.7751868 66.672595,22.8142244 66.0854711,22.8072177 C65.6173723,22.8012119 65.1762792,22.8852929 64.8172034,23.2266218 C64.5891553,23.4428301 64.6281635,23.8442169 64.9182247,23.9483172 C65.1472731,24.0303963 65.3973258,24.0874513 65.6393769,24.0914551 C67.0966845,24.1174802 68.5539921,24.1284908 70.0112997,24.1334956 C70.3423696,24.1354976 70.6814412,24.1274899 71.0055096,24.0644291 C71.6026356,23.9483172 71.8626905,23.3036961 71.4986136,22.8062167 C71.2865689,22.515937 70.9815045,22.2937229 70.6954441,22.0174567 C71.3275775,21.3438075 72.1047416,22.0344731 72.7248725,21.6491017 C73.063944,22.0825194 73.0109328,22.5559756 73.0749464,22.995399 C73.1219563,23.3237154 73.1239567,23.6620414 73.1989725,23.98235 C73.2819901,24.3336885 73.727084,24.5108593 73.9941404,24.2976538 C74.3792216,23.9903577 74.7633027,23.6680471 75.0833703,23.2966893 C75.2233998,23.1345331 75.2754108,22.8212312 75.2374028,22.5980161 C75.1553855,22.1095454 74.9893504,21.6340873 74.8583228,21.1526233 C74.7593019,20.7932771 74.6242734,20.4389356 74.5722624,20.0725826 C74.5072487,19.6041312 74.9363392,19.2507907 75.3714311,19.4269605 C75.6664933,19.5470762 75.9605554,19.7462682 76.1736004,19.9844977 C76.9987746,20.9093889 77.791942,21.8633081 78.6631258,22.883291 C78.9021763,22.7531656 79.1772344,22.5920103 79.4622945,22.4498733 C80.080425,22.1425772 80.7555675,22.4969187 80.8475869,23.19359 C80.8945968,23.5489324 80.8805939,23.9122825 80.8925964,24.2546123 C81.3256878,24.3587127 81.506726,24.1204831 81.6507564,23.8642362 C81.8437972,23.5209054 82.0968506,23.2626565 82.4799315,23.1535514 C83.1990832,22.9483537 83.2770997,22.4198444 83.2300898,21.7752232 C82.5279416,21.4328934 81.8187919,21.5019599 81.122645,21.5339908 C80.511516,21.5620178 79.976403,21.4058673 79.4862996,21.0425172 C78.9971964,20.6801681 78.6321193,20.2657688 78.6091144,19.609136 C78.5991123,19.327865 78.4890891,19.0485959 78.4120729,18.7112709 C78.6361201,18.538104 78.8401632,18.3258995 79.0882156,18.199778 C79.6443329,17.917506 80.2194543,17.6732707 80.7915751,17.4230295 C80.942607,17.3559649 81.1066416,17.3089196 81.2686758,17.2788907 C82.0048312,17.1417585 82.5069372,17.5381405 82.5129384,18.2798552 C82.5149388,18.5260924 82.4319213,18.7713287 82.4089165,19.0195679 C82.3909127,19.2177589 82.4059158,19.4199537 82.4059158,19.6201466 C83.757201,19.6161428 83.8522211,19.5080386 83.6871863,18.1807597 C84.2883131,17.7513459 85.0204677,17.8224144 85.7056123,17.7553498 C86.7808392,17.6512495 87.8700691,17.6682658 88.9412952,17.5311337 C89.9115,17.4060131 90.7586788,17.6122118 91.5428443,18.1517317 C92.3730196,18.7232824 93.3032159,19.0866326 94.2104074,19.5070377 C95.3936571,20.0565672 96.6329187,20.3788778 97.9081879,20.6020928 C98.3972911,20.6881758 98.8793929,20.8062896 99.4075043,20.9183976 C99.5035246,21.2707371 99.5925434,21.584039 99.6735605,21.9003438 C99.7555778,22.2236554 99.8095892,22.5549746 99.9126109,22.8712794 C100.073645,23.3667568 100.349703,23.5819642 100.850809,23.4308186 C101.603968,23.2035996 102.201094,23.4818677 102.670193,23.9573259 C103.359338,24.6570001 104.198516,24.9302634 105.108708,25.1074341 C105.26174,25.1364621 105.406771,25.2075306 105.630818,25.2856058 C105.445779,25.9212183 105.092704,26.3566378 104.577596,26.6509214 C103.481364,27.2775252 103.580385,27.6328676 102.273109,26.69096 C101.759001,26.3206031 101.205884,26.040333 100.550746,26.0313244 C100.213674,26.0263195 99.9956285,26.3346166 100.164664,26.6198915 C100.28769,26.8270911 100.452725,27.0252821 100.640765,27.1744258 C100.866812,27.3545994 101.133869,27.4837239 101.388923,27.6238589 C102.336122,28.1443604 102.787218,28.8940829 102.482153,30.0662123 C102.251105,29.9601101 102.033059,29.8660194 101.821014,29.7599172 C100.986838,29.3435159 100.955831,29.3485208 100.225677,30.0962413 L98.8113785,30.0962413 C98.3782871,29.7418998 97.9992071,29.4326018 97.6381309,29.1373172 C97.3750753,29.2634388 97.1900363,29.3525246 97.003997,29.4416105 C96.927981,29.4225921 96.8269597,29.427597 96.7789495,29.3795507 C96.1398146,28.749944 95.2056174,28.6448427 94.521473,28.099317 C93.4082381,28.0272476 92.3080058,27.6739071 91.1797677,27.9511743 C90.8166911,28.0392592 90.4526142,28.1223392 90.1095418,28.2034174 C89.6854523,27.9651878 89.6874527,27.5758126 89.6864525,27.2064567 C89.6834519,26.4106899 90.0655325,26.0513437 90.8536989,26.1234131 C91.2247772,26.1574459 91.5868536,26.2715558 91.9559315,26.3306128 C92.3110065,26.3876677 92.6560793,26.3065896 92.811112,25.9642597 C93.1651868,25.1865103 93.7743153,24.7330734 94.5474785,24.4467975 C94.6545011,24.4077599 94.7335178,24.29365 94.8555436,24.1875477 C94.516472,23.6940722 93.9723571,23.5919738 93.4372442,23.3267182 C93.0881705,23.8111851 92.7530998,24.2736307 92.4000253,24.7641033 C91.8219032,24.8371737 91.2607848,24.8692046 90.5956444,24.6179625 C90.7236714,24.4367879 90.7976871,24.3146702 90.8887063,24.207567 C90.9417175,24.1455072 91.0267354,24.1124754 91.0867481,24.0564214 C91.4738298,23.6970751 91.7748933,23.2586527 91.5638488,22.7361492 C91.3438023,22.1866197 90.8206919,22.1405753 90.2895798,22.2286602 C90.2115634,22.2416727 90.1265454,22.2116438 90.0195228,22.1986312 C89.8714916,21.9333756 89.7174591,21.6551075 89.5764293,21.4018635 C89.0783242,21.4108722 89.2663639,21.8883322 88.9462963,22.0725097 C88.0711116,22.233665 86.9098665,21.7331827 86.1487058,22.8953025 C86.4127615,23.0854858 86.6528122,23.2306257 86.8568553,23.4148031 C87.0368933,23.5779603 87.2129304,23.7661417 87.3239539,23.9773452 C87.4909891,24.2946509 87.3849668,24.7050464 87.0628988,24.8411776 C86.1186995,25.2385605 85.2095076,25.8111122 84.0942722,25.4918045 C83.6171715,25.3546723 83.1100645,25.2705913 82.6329638,25.5148267 C82.5509464,25.5568672 82.4989355,25.6990041 82.4819319,25.8031045 C82.4719298,25.8591585 82.5569477,25.9782732 82.6159602,25.9902848 C83.3261101,26.1394285 84.0002523,26.6649349 84.7454096,26.0993899 C85.4425568,26.8441075 86.1987164,27.3405859 87.0759015,27.6408753 C87.153918,27.6679013 87.2239328,27.7179496 87.295948,27.7589891 C87.59001,27.9241483 87.8900734,28.0923103 87.9040763,28.4836874 C87.9140784,28.7819748 87.5890098,29.08827 87.1499171,29.2264031 C86.8848612,29.3094831 86.6548126,29.2454214 86.4767751,29.0362198 C86.3977584,28.9431301 86.348748,28.8240154 86.2847345,28.7169122 C85.803633,27.9121367 85.5365766,27.8150431 84.6843967,28.1703855 C84.3783321,28.298509 84.0942722,28.4796836 83.7932086,28.6208196 C83.2891022,28.8580481 83.2861016,28.8530433 82.4089165,28.7689623 C82.4569266,28.6128118 82.4849325,28.4636681 82.548946,28.3315408 C82.6179606,28.1874019 82.7209823,28.0582775 82.8180028,27.9091338 C82.6249621,27.3776216 82.0618432,27.2484972 81.7707818,26.6729426 C81.4277094,27.3245705 81.4137064,27.902127 81.2796781,28.5307328 C80.9676122,28.4296353 80.7095578,28.3455543 80.4525035,28.2614733 C79.6693382,28.0062273 78.9641894,28.186401 78.3530604,28.6988948 C77.5238854,29.3935642 76.7277173,30.1272712 75.9035434,30.8269453 C75.5154615,31.1572636 75.3784325,31.5116051 75.4964575,32.0351095 C75.6144824,32.556612 75.5964786,33.1081435 75.6464891,33.7517637 C76.2056071,34.0820819 76.5866876,34.6506298 76.7457211,35.3933455 C76.9967741,35.3933455 77.2038178,35.434385 77.3878567,35.3863387 C78.0840036,35.2021612 78.6951326,35.3623156 79.2912584,35.7356753 C80.2614632,36.3442617 81.3536937,36.6385453 82.4709296,36.7846861 C83.0790579,36.8647633 83.7171926,36.816717 84.3293218,36.7356389 C85.3335338,36.6025106 85.7856292,36.8617604 86.0666885,37.8447076 C86.2257221,38.4002429 86.3937575,38.9537762 86.5437892,39.4622662 C86.9338715,39.693489 86.9678787,39.2280405 87.3249541,39.2760868 C87.3609617,39.3501582 87.4929896,39.5103125 87.5059923,39.6804765 C87.5229959,39.919707 87.4469798,40.1649433 87.4199741,40.4091786 C87.4029706,40.5703339 87.3509596,40.7525095 87.4039708,40.8926445 C87.6150153,41.4591904 88.1371255,41.3470824 88.5762182,41.3630978 C89.0723229,41.3821161 89.3653848,41.1749165 89.4153953,40.8015567 C89.4434012,40.5993619 89.4524031,40.3791497 89.4033928,40.1839616 C89.1793455,39.3061157 89.1573408,38.3572014 88.5402106,37.6104819 C88.5142051,37.578451 88.4811981,37.5384124 88.4811981,37.5023777 C88.4801979,37.3482292 88.4351884,37.156044 88.509204,37.0489408 C88.6592357,36.8337334 88.8802824,36.929826 89.0573197,37.0499417 C89.2593624,37.1880748 89.4474021,37.3482292 89.636442,37.49437 C90.2055621,37.4142928 90.5716394,37.0729639 90.8907067,36.6905955 C91.3267987,36.168092 91.3578053,35.6395827 90.934716,35.1070696 C90.4726185,34.5255092 89.944507,33.995999 89.4003921,33.3934184 C89.6344415,33.2452756 89.8964969,33.0791155 90.1985606,32.8859294 C90.1985606,32.2272947 90.1745555,31.5646562 90.2105631,30.9060215 C90.2255663,30.6277534 90.3695967,30.357493 90.4796199,30.0051535 C91.5928549,29.820976 92.7060899,29.6908506 93.8233257,29.8439982 C94.2144082,29.8980503 94.6164931,30.1092538 94.9435621,30.3454814 C95.5366873,30.7748952 96.1688207,31.0311421 96.894974,31.0992077 C97.4310872,31.1492559 97.9401946,31.2923938 98.4102939,31.7548395 C98.1102305,32.0671404 97.8511758,32.3183825 97.6161262,32.5906448 C97.4270863,32.810857 97.4520916,33.0751116 97.6421317,33.2682978 C97.8121676,33.4404637 98.0282132,33.5876055 98.2522605,33.6776923 C98.5183167,33.7847955 98.8343834,33.7767878 99.0954385,33.8928997 C99.8555989,34.2322266 100.377709,33.8939006 100.829805,33.3333605 C101.037848,33.0741107 101.200883,32.7778252 101.414928,32.5235802 C101.620972,32.2773429 101.866023,32.0641375 102.127078,31.8048877 C103.053274,32.4665252 103.497368,33.4404637 104.192514,34.1911871 C104.92967,34.9869539 105.040693,36.0669946 105.513793,37.0629543 C105.936882,37.0629543 106.34997,37.1019919 106.752055,37.0539456 C107.304171,36.9878819 107.732261,37.1810681 108.095338,37.5624356 C108.324386,37.802667 108.617448,38.030887 108.730472,38.3231686 C109.001529,39.0248447 109.52664,39.3471553 110.193781,39.5573578 C110.411827,39.6264244 110.595866,39.8035951 110.811911,39.9407272 C110.530852,41.0137612 109.778693,41.8055241 109.47663,42.8565369 C109.99874,43.3349979 110.536853,43.7213702 111.32602,43.5552101 C111.633085,43.4911484 111.903142,43.6593104 112.054174,43.9385795 C112.36924,44.5241438 112.675305,45.1167147 112.961365,45.7182944 Z" id="path-1"></path>
    </defs>
    <g id="⭕️-Symbols" stroke="none" stroke-width="1" fill="none" fill-rule="evenodd">
        <g id="Desktop-/-HD-/-Elements-/-Region-select-default" transform="translate(0.000000, -2.000000)">
            <g id="Group-7" transform="translate(0.000000, 2.000000)">
                <g id="North-America">
                    <mask id="mask-2" fill="white">
                        <use xlink:href="#path-1"></use>
                    </mask>
                    <use id="Mask" fill="#D1D1D1" xlink:href="#path-1"></use>
                    <g id="Group" mask="url(#mask-2)">
                        <g transform="translate(-16.000000, -22.000000)" id="Colours-/-brand-/-Purple-#a25eb5">
                            <g>
                                <rect fill="#A25EB5" x="0" y="0" width="172" height="122"></rect>
                            </g>
                        </g>
                    </g>
                </g>
            </g>
        </g>
    </g>
</svg>