<?xml version="1.0" encoding="UTF-8"?>
<svg width="63px" height="50px" viewBox="0 0 63 50" version="1.1" xmlns="http://www.w3.org/2000/svg" xmlns:xlink="http://www.w3.org/1999/xlink">
    <!-- Generator: Sketch 51.1 (57501) - http://www.bohemiancoding.com/sketch -->
    <title>Group 12</title>
    <desc>Created with Sketch.</desc>
    <defs>
        <path d="M38.290728,28.7549213 C38.549389,29.3543307 38.7314466,29.9911417 38.8995762,30.6230315 C39.1244123,31.4665354 38.9801591,32.2559055 38.3812594,32.9222441 C37.912685,33.4419291 37.4540592,33.976378 36.9327578,34.4409449 C35.9796915,35.2933071 35.358905,36.3287402 35.007723,37.5374016 C34.9619599,37.6948819 34.9092328,37.8503937 34.868444,38.0098425 C34.6565409,38.8188976 34.2406936,39.3897638 33.3383647,39.5905512 C32.8707852,39.6938976 32.4499636,40.011811 32.0142193,40.2431102 C31.7257128,40.3956693 31.4481496,40.5679134 31.193468,40.7165354 C30.556764,40.5177165 30.1488755,39.9104331 29.4087071,40.0344488 C29.1261697,40.3257874 28.8217456,40.6387795 28.4705636,41 C28.0527266,40.5748031 27.7353694,40.1338583 27.3105684,39.8543307 C26.9106387,39.5915354 26.3972961,39.4990157 25.9416548,39.3346457 C25.6730453,38.9124016 25.7566127,38.4498031 25.7367157,38.0059055 C25.7168187,37.5738189 25.615344,37.1574803 25.2183989,36.9498031 C24.6980923,36.6761811 24.4931532,36.1889764 24.2434459,35.7047244 C24.0375119,35.7805118 23.8654029,35.8444882 23.6763814,35.9143701 C23.2495907,35.4242126 23.6515101,34.7814961 23.3441014,34.2244094 C22.8228,34.2332677 22.5492163,34.6181102 22.245787,34.9222441 C22.0756677,35.0935039 21.9383784,35.3139764 21.8408831,35.5354331 C21.5802324,36.1269685 21.1056889,36.0767717 20.5963257,36.0669291 C20.4102888,35.617126 20.6112485,35.2755906 20.6679549,34.9291339 C20.7923112,34.1791339 20.6570116,33.8887795 19.9715599,33.5511811 C19.7497084,33.4419291 19.5139289,33.3612205 19.2801391,33.2775591 C18.27932,32.9153543 18.2783252,32.9173228 17.5590486,32.1299213 C16.6855703,32.0393701 15.8648191,32.3494094 15.0699339,32.6742126 C14.3695595,32.9596457 13.7169379,33.1594488 12.9250373,33.0255906 C11.9819195,32.8651575 11.6546138,33.1200787 11.3551639,34.0206693 C11.1233639,34.7155512 10.9691621,35.4360236 10.7622333,36.2185039 C10.5065569,36.1791339 10.2727671,36.1574803 10.0469362,36.1043307 C9.76539363,36.0393701 9.48484592,35.9635827 9.21225702,35.8661417 C8.25819586,35.5265748 7.38272785,35.5374016 6.54605898,36.226378 C5.96606143,36.7037402 5.24081577,36.9202756 4.47876066,36.9862205 C3.94552105,37.0324803 3.494854,36.8996063 3.15461529,36.4744094 C2.97554229,36.25 2.77856199,36.0354331 2.62734479,35.7933071 C2.31894128,35.3011811 2.35774043,34.9931102 2.75965984,34.5875984 C3.04816634,34.2952756 3.36651834,34.0295276 3.6401021,33.7244094 C3.91567555,33.4173228 3.95347985,33.0649606 3.69879825,32.7125984 C3.5784214,32.5462598 3.4689879,32.3690945 3.33269344,32.2165354 C2.91187189,31.742126 2.65619544,31.2372047 2.62137569,30.5679134 C2.60048384,30.1574803 2.33386403,29.7125984 2.06326483,29.371063 C1.36686982,28.4901575 1.11119337,27.5718504 1.62254627,26.5108268 C1.34796767,26.0147638 0.870439663,25.7401575 0.487422408,25.3779528 C-0.0706884486,24.8494094 -0.1433125,24.6604331 0.237715055,23.9891732 C0.537164909,23.4596457 0.890336663,22.9311024 1.32707582,22.511811 C1.97870258,21.886811 2.72583494,21.3582677 3.4291939,20.7854331 C3.8947837,20.4064961 4.39817781,20.1811024 5.02692302,20.2716535 C5.57210082,20.351378 6.08643828,20.257874 6.57789419,19.9665354 C6.81466849,19.8267717 7.12804624,19.8120079 7.4075991,19.7450787 C7.7617657,19.6604331 8.117922,19.5807087 8.51486716,19.488189 C8.51486716,19.1860236 8.52581051,18.9488189 8.51287746,18.7125984 C8.47308346,17.976378 8.40543366,17.242126 8.38653151,16.5059055 C8.37956756,16.2332677 8.47805771,15.9586614 8.52481566,15.7047244 C9.49976867,15.3218504 10.3563345,16.0492126 11.2327974,15.8543307 C11.6476498,15.5246063 11.6924181,15.0482283 11.872486,14.644685 C12.2604775,13.7765748 12.303256,13.7224409 13.3707301,13.1978346 C13.5667155,13.3415354 13.802495,13.4931102 14.0114135,13.6761811 C14.2282908,13.8651575 14.4003998,14.1033465 14.6222514,14.2854331 C15.0868463,14.6683071 15.5076679,14.6003937 15.7036534,14.0659449 C15.918541,13.4812992 16.2160011,12.9625984 16.568178,12.4507874 C16.7880399,12.1309055 16.8308184,11.6909449 16.9750717,11.2332677 C17.1153455,11.3366142 17.2814855,11.4301181 17.4118108,11.5590551 C17.6416212,11.7854331 17.8495448,12.0344488 18.1131801,12.3248031 C18.5469347,11.9163386 18.1141749,11.1761811 18.803606,10.9183071 C18.9369159,11.003937 19.1239477,11.0915354 19.2662112,11.2253937 C19.413449,11.3661417 19.5169134,11.5521654 19.5567074,11.605315 C20.6381094,11.8543307 21.6150521,11.2283465 22.4746025,11.8011811 C22.6845159,12.2627953 22.5213605,12.640748 22.3731278,13.0255906 C22.22589,13.4074803 22.0876059,13.7942913 21.9731981,14.1860236 C21.8717234,14.5344488 21.9911054,14.8425197 22.2736428,15.0639764 C22.5323038,15.265748 22.802903,15.4606299 23.0933992,15.6141732 C23.8992278,16.0413386 24.6662571,16.5177165 25.3457397,17.1318898 C25.5506788,17.3169291 25.8282419,17.4232283 26.1605218,17.617126 C26.776334,16.9468504 26.8937263,16.2007874 27.1414439,15.5206693 C27.4001049,14.8080709 27.3603109,14.1141732 27.1404491,13.363189 C26.8240868,12.2785433 27.0499177,11.1948819 27.5811677,10 C27.7691943,10.386811 27.9204115,10.613189 27.9930356,10.8622047 C28.3332743,12.0226378 28.8814366,13.0600394 29.7151209,13.9537402 C30.5537795,14.851378 31.041256,15.9192913 31.2352517,17.1279528 C31.31285,17.6122047 31.4352166,18.0915354 31.5705162,18.5639764 C31.764512,19.2431102 32.1813541,19.7096457 32.9135637,19.8651575 C33.4388445,19.9773622 33.9551717,20.1309055 34.4784628,20.2519685 C35.0684088,20.3887795 35.4086475,20.6751969 35.4205857,21.3444882 C35.4424724,22.601378 35.9548202,23.7253937 36.4950238,24.8415354 C37.1217793,26.132874 37.7226687,27.4379921 38.290728,28.7549213 Z M57.003323,43 C58.2848384,43.8661537 58.1492072,44.4605322 57.6036905,45.6275057 C57.4969807,45.8557138 57.342401,46.0787354 57.1618919,46.2478169 C55.9272491,47.40338 54.7384815,48.6035474 53.7731065,49.958274 C53.0221485,50.0682288 52.3679274,49.9479009 51.7326548,49.7487374 C51.006629,49.5205292 50.7832365,48.8659868 51.2300216,48.2280413 C51.494303,47.8504605 51.833381,47.5122975 52.1894128,47.2239254 C52.8446312,46.6948974 53.5347546,46.2135857 54.2149052,45.7187889 C54.6936035,45.3692155 55.1533534,45.0082317 55.4076619,44.4304502 C55.7277914,43.706408 56.4767549,43.5259161 57.003323,43 Z M60.3629775,40.016353 C60.6204212,39.9628011 60.8301901,40.0870818 60.9341211,40.3528202 C61.0304241,40.6013816 61.0380521,40.8711616 60.8416321,41.0540462 C60.2209067,41.6299812 59.9243697,42.4130506 59.5734835,43.1658076 C59.4695525,43.3891087 59.3379702,43.6033161 59.1911319,43.7983256 C59.0376192,44.0014185 58.6762445,44.0741682 58.5541971,43.9084606 C58.4483592,43.764982 58.378754,43.5335977 58.3987774,43.3547547 C58.4359637,43.0384957 58.5532436,42.7333512 58.6295233,42.448415 C58.1356128,41.9735213 57.3518397,42.3837486 57,41.6562519 C57.0972565,41.5188358 57.1640012,41.3450449 57.2860486,41.2662328 C57.9544487,40.8297347 57.9744721,40.1871126 57.7942615,39.4959907 C57.6998655,39.1352736 57.5425388,38.7927438 57.4080959,38.4451621 C57.3489792,38.290569 57.2507692,38.1470905 57.2135829,37.9874453 C57.1382568,37.6701759 56.998093,37.3256254 57.304165,37.0558453 C57.5101199,36.875992 57.8409827,37.1447616 58.0507517,37.658051 C58.2080784,38.043018 58.3425212,38.44011 58.5131968,38.8190145 C58.8821995,39.636438 59.3932729,40.2194458 60.3629775,40.016353 Z M32.089118,43.4478399 C32.3133444,43.2711866 32.5916643,43.1756984 32.9266952,43 C32.9572319,43.2883745 33.0305199,43.4879449 32.9860236,43.6493201 C32.8516622,44.1401297 32.6893817,44.6242551 32.5035442,45.0940572 C32.3744177,45.4196722 32.2112647,45.753881 31.8762338,45.8770609 C31.5324782,46.0031054 31.1756354,46.095729 30.7716789,45.8235874 C30.7655716,45.1647185 30.4488627,44.6156611 30.0257118,44.1143478 C29.9672559,44.0455963 30.018732,43.8154696 30.0780603,43.6961093 C30.1129594,43.6264029 30.2638978,43.6120797 30.365105,43.6025308 C30.4322857,43.5958467 30.5090636,43.6302224 30.5718819,43.666508 C31.1267768,43.9883034 31.6092561,43.8250184 32.089118,43.4478399 Z M50.9257728,22.0431688 C51.0585544,22.3284329 51.0057935,22.6652761 50.8264064,22.878961 C50.6760379,23.057909 50.3585931,23.0400142 50.13348,22.8147503 C49.6832536,22.3663278 49.4361568,21.7431679 49,21.0136918 C49.7377732,20.9389548 50.1897583,21.1779029 50.5986552,21.5421146 C50.7358335,21.6642203 50.840476,21.8589577 50.9257728,22.0431688 Z M62.91,16.2079 C63.146,16.8039 62.864,17.1249 62.582,17.4109 C62.185,17.8139 61.778,18.2449 61.028,18.0899 C61.46,17.2219 61.975,16.5579 62.91,16.2079 Z M26.379065,8.22951826 C26.2479675,8.02291091 26.1280488,7.80607548 26,7.56980669 L26,0 C26.0609756,0.0327298762 26.1229675,0.0603457093 26.1839431,0.0961440115 C27.0965447,0.6280045 27.9441057,1.25907743 28.9827236,1.5526235 C29.4928862,1.69683952 29.8343496,2.1090314 30.0995935,2.5478163 C30.4806911,3.17786642 30.9227642,3.72609185 31.5904472,4.06873274 C31.9481707,4.25181549 32.1168699,4.56377212 32.2286585,4.96369029 C32.4979675,5.93229007 33.0640244,6.72087552 33.8617886,7.33149228 C34.7063008,7.97688452 34.9796748,8.86468242 35,10 C33.3810976,9.81794006 32.0589431,8.87695612 31.527439,7.60765061 C31.4949187,7.52991715 31.4695122,7.44809246 31.4502033,7.36524496 C31.3495935,6.92543725 31.1656504,6.5408612 30.6707317,6.47335584 C30.0487805,6.3864171 29.476626,6.53370154 29.0965447,7.06965327 C28.8526423,7.41229416 28.6941057,7.81528076 28.4827236,8.18246906 C27.7601626,9.43745525 27.1575203,9.45177457 26.379065,8.22951826 Z" id="path-1"></path>
    </defs>
    <g id="⭕️-Symbols" stroke="none" stroke-width="1" fill="none" fill-rule="evenodd">
        <g id="Desktop-/-HD-/-Elements-/-Region-select-default" transform="translate(-928.000000, -28.000000)">
            <g id="Group-12" transform="translate(928.000000, 28.000000)">
                <g id="Australia">
                    <mask id="mask-2" fill="white">
                        <use xlink:href="#path-1"></use>
                    </mask>
                    <use id="Mask" fill="#D1D1D1" xlink:href="#path-1"></use>
                    <g id="Group-6" mask="url(#mask-2)">
                        <g transform="translate(-26.000000, -14.000000)" id="Colours-/-brand-/-Grey-#D1D1D1">
                            <g>
                                <rect fill="#D1D1D1" x="0" y="0" width="98" height="77"></rect>
                            </g>
                        </g>
                    </g>
                </g>
            </g>
        </g>
    </g>
</svg>