<?xml version="1.0" encoding="UTF-8"?>
<svg width="86px" height="46px" viewBox="0 0 86 46" version="1.1" xmlns="http://www.w3.org/2000/svg" xmlns:xlink="http://www.w3.org/1999/xlink">
    <!-- Generator: Sketch 51.1 (57501) - http://www.bohemiancoding.com/sketch -->
    <title>Group 9</title>
    <desc>Created with Sketch.</desc>
    <defs>
        <path d="M30.0006785,41.3192371 C30.0086785,41.2512438 30.1096785,41.0671642 30.1236785,41 C30.1096785,41.0671642 30.1486785,41.3665008 30.2176785,41.539801 C30.3816785,41.8747927 30.1366785,41.8723051 30.3786785,42 C30.1366785,41.8723051 29.9886785,41.619403 30.0006785,41.3192371 Z M17.1133828,27.9616503 C17.7117581,26.8292578 18.747593,26.054616 19.6764719,25.1742971 C19.3372962,24.7147474 18.8911645,24.6139179 18.4883934,24.4956372 C17.2945334,24.1466121 16.7048302,23.1955187 16.1469247,22.2066142 C16.0708029,22.0708823 16.0486408,21.9002478 16.0226245,21.742217 C15.92145,21.1217279 16.1555968,20.8657761 16.8060048,20.8793493 C17.0025725,20.8832274 17.1981767,20.8997091 17.3417482,20.9084348 C17.8428033,20.616611 18.0451524,20.0174513 18.7726458,20 C19.3112799,20.2821286 20.0098662,20.4004094 20.7373596,20.4294948 C21.1304951,20.4459765 21.5968617,20.4828181 21.7847573,20.8890445 C22.0179406,21.3970699 21.5506104,21.678229 21.279848,22.0059248 C21.0784624,22.2502424 20.8741862,22.4926209 20.6284765,22.7873532 C21.3540427,23.7685016 21.8493163,24.8727782 22.9015319,25.5659808 C23.2541975,25.7976947 23.5384499,26.1806528 23.7677789,26.5490682 C24.4008427,27.565119 23.6646772,28.8448777 22.4640723,28.8487558 C22.2260712,28.8497253 21.9871064,28.8002801 21.7510324,28.7595605 C21.5949345,28.7314446 21.4426909,28.6771518 21.2875565,28.6344932 C20.5273019,28.4250781 19.785355,28.3252181 19.2409395,29 C18.8150427,28.9650975 18.9451243,28.6403102 18.8458769,28.4454379 C18.3428947,28.1070775 17.6288913,28.586987 17.1133828,27.9616503 Z M9,13.1049953 C8.7061272,14.0302685 8.29882981,14.553848 7.42958501,14.6015425 C7.00578949,14.6248598 6.63355062,14.848494 6.28605892,15.1389005 C5.71068691,15.6200849 4.98270728,15.7705875 4.28153709,15.9592458 C3.92373407,16.0556946 3.51746781,15.9889223 3.35970452,15.6730788 C2.91941088,14.7912606 2.17905766,14.7721828 1.38817893,14.805039 C1.26341188,14.8103384 1.13658257,14.7753625 0.971601348,14.7541649 C0.517902991,14.4203034 0.292084945,13.8924844 0.0899829501,13.3689048 C-0.21213891,12.5835355 0.278680221,11.9136929 1.08193254,12.0090818 C1.63152623,12.0737344 2.16359067,12.207279 2.64925414,12.5337213 C2.87919671,12.6895233 3.21019029,12.7891518 3.4793159,12.7594752 C4.36815223,12.6609066 5.27761121,12.5888349 6.12520223,12.3238655 C7.26357265,11.9677466 8.09879008,12.3980569 9,13.1049953 Z M16.994665,25.9751217 C17.0327413,26.7944599 16.8664081,27.2396371 16.5147034,27.5872993 C15.8654025,28.2285666 15.0908507,28.671624 14.2571804,28.9556894 C13.528721,29.2037168 12.7531671,28.3621198 13.0748115,27.6349969 C13.3132893,27.0944245 13.3022673,26.6534871 13.1649922,26.125634 C13.0307232,25.6073205 13.1489601,25.3327945 13.6018675,25.1971215 C14.0247147,25.068868 14.3203069,24.8377998 14.6209092,24.5092166 C15.4255212,23.6284016 16.4876492,23.9294262 16.8293338,25.1102059 C16.9375506,25.4854267 16.9776309,25.8829064 16.994665,25.9751217 Z M70,6.40810952 C70.0609334,5.70372547 70.3785862,5.23829176 70.9309825,4.93077306 C71.7371015,4.48196199 72.5352293,4.01860611 73.3493395,3.58537875 C73.9836463,3.24669261 74.5789956,2.86333315 75.0414902,2.28569668 C75.4020961,1.83792452 75.8336245,1.5937796 76.4209825,1.52001667 C77.450857,1.39015235 78.4687445,1.15847441 79.487631,0.946535851 C80.1878657,0.801087818 80.8841048,0.744986433 81.5923308,0.873811834 C81.8370633,0.918485159 82.0887882,0.955886082 82.3365175,0.951730424 C83.0866976,0.936146706 83.8099072,0.891473381 84.4282314,0.307603417 C84.9256878,-0.161985949 85.490071,-0.0716003849 85.9995142,0.427078588 C86.0154967,0.974586543 85.6339138,1.27794959 85.3292467,1.61351898 C84.6409989,2.3729655 83.8718395,2.7521693 82.7820306,2.62646064 C81.5114192,2.47997369 80.2108406,2.59113755 78.9242467,2.62542173 C78.2489847,2.64308327 77.6186736,2.8955395 77.037309,3.24253696 C76.4259771,3.60927378 75.8306277,4.00717805 75.2422707,4.41235471 C75.0384934,4.55260817 74.8536954,4.73961279 74.6988646,4.93700655 C74.4601255,5.2414085 74.477107,5.58113356 74.7248362,5.87826311 C74.8317194,6.0060496 74.9975382,6.08604602 75.0924345,6.22214382 C75.5779039,6.91094415 75.3071998,7.74103686 74.5120688,7.94881976 C74.2393668,8.01946595 73.9317031,8.01011572 73.6520087,7.96232565 C73.3703166,7.91453558 73.0796343,7.81376087 72.8329039,7.66623501 C72.1046998,7.22989091 71.3365393,6.92341112 70.5204312,6.72290062 C70.3356332,6.6782273 70.1768068,6.51823446 70,6.40810952 Z M49.02537,40.5247867 C49.0434524,40.5177722 49.0595256,40.5107577 49.0776079,40.5037432 C48.4959588,41.059894 47.852026,41.5679452 47.3607886,41.9306958 C47.3547611,41.8054366 47.3517474,41.6801775 47.3417017,41.5559203 C47.3145781,41.2262382 47.2512899,40.8955539 47.1608781,40.5778966 C47.0744846,40.2682559 46.7550296,40.1600319 46.453657,40.3003222 C46.3783139,40.3353948 46.3009616,40.3704674 46.233655,40.4185669 C45.6931935,40.8023611 45.154741,41.1901635 44.6072475,41.5829763 C44.6424076,42.0429281 45.0663384,42.1571645 45.3044228,42.4156994 C45.9373053,43.1021198 45.9131955,43.609169 45.1999469,44.2144214 C44.6906272,44.645313 44.1903487,45.0872274 43.6729924,45.5091004 C43.3876929,45.7405793 43.1325308,46.0502201 42.6402889,45.9931019 C42.5659503,45.7876768 42.4494195,45.5662186 42.4082319,45.3317333 C42.3359025,44.9208832 42.3007424,44.5040206 42.2665868,44.0881601 C42.1811979,43.0339788 41.9762645,42.0238887 41.2640206,41.1861552 C40.863195,39.8934804 39.9440085,39.0056432 38.9424469,38.1659056 C37.91778,37.3081307 36.9363098,36.4012542 35.9226932,35.5304523 C35.7378514,35.3711226 35.4977579,35.2699132 35.272733,35.1626913 C35.0677996,35.0654902 34.832729,35.076513 34.7141891,35.2749236 C34.6167452,35.4372595 34.5323609,35.6887799 34.5906263,35.8451034 C34.6880701,36.1056425 34.8648754,36.3681858 35.0778453,36.5475569 C35.5630553,36.9543988 35.9819632,37.4013236 36.3225142,37.939437 C36.6891843,38.5166314 37.2678197,38.8693612 37.8384185,39.2250973 C38.4401592,39.6008749 39.0228129,40.0057126 39.604462,40.4115524 C39.730034,40.4987328 39.8154229,40.6440334 39.9620909,40.8103776 C39.6577045,41.100979 39.2799842,40.9767219 38.9454606,41.1470743 C38.6099324,42.0048493 39.4296659,42.8505993 39.1443665,43.7264116 C38.717422,43.8386438 38.5315755,43.568084 38.4060036,43.3305925 C38.1930336,42.927759 38.0443565,42.491857 37.884629,42.0639716 C37.5933021,41.2813522 37.1221563,40.6861205 36.2933816,40.4135565 C35.9377619,40.2963139 35.5982154,40.1279656 35.2496277,39.9866732 C34.0823111,39.5146966 33.1470515,38.7891954 32.6578232,37.5917175 C32.5222056,37.2600312 32.3062219,37.0305563 31.9807394,36.8982826 C31.6130648,36.7479716 31.2463948,36.7279301 30.9008209,36.9533967 C30.5853842,37.1588218 30.2729613,37.3682551 29.9725932,37.5947237 C29.3919487,38.0336319 28.7791577,38.1578891 28.0910235,37.8592711 C27.8238065,37.7430306 27.5395116,37.6608606 27.257226,37.5887113 C26.8011487,37.4704666 26.5138402,37.6007362 26.3561218,38.0246133 C26.225527,38.375339 26.1501839,38.7461062 26.0406852,39.1048485 C25.9804106,39.3002529 25.89904,39.4896448 25.825706,39.684047 C25.645887,39.752188 25.4941962,39.8513933 25.3364778,39.8624161 C24.5609456,39.9115177 24.0445939,40.3714694 23.5543611,40.9065767 C22.833076,41.6952086 22.8159982,41.7252708 23.1324394,42.7804542 C22.6733485,43.2534329 22.2333444,43.7534676 21.7411025,44.195382 C21.5040227,44.4088236 21.1845677,44.5791761 20.874154,44.6543317 C20.1900381,44.8206759 19.5029085,45.04013 18.7695685,44.8166676 C18.4832645,45.2255136 18.2281024,45.5912704 17.9659082,45.9660459 C17.5369545,45.7926872 17.4575931,45.3918578 17.2617009,45.095244 C17.0095524,44.7124519 16.7001432,44.496004 16.2310065,44.5140414 C15.9005012,44.5270683 15.5689913,44.5170476 15.205335,44.5170476 C14.8989396,44.100185 14.6096218,43.6963494 14.3082492,43.3015324 C13.9315335,42.8075102 13.8742727,42.2884361 14.2811257,41.8124512 C14.7733676,41.2352568 14.7673402,40.6300044 14.6136401,39.9355675 C14.4971094,39.4144892 14.479027,38.8573364 14.5101689,38.321227 C14.5634114,37.393307 14.9220448,37.0355667 15.8552953,37.0405771 C16.9412413,37.0455875 18.0261827,37.1427886 19.1121287,37.202913 C19.5712197,37.2289669 20.0303106,37.2830789 20.4894016,37.2830789 C21.2840207,37.2840809 21.4959861,37.1117243 21.7481345,36.3391256 C21.7732489,36.2599618 21.7863084,36.1767897 21.8084091,36.0966238 C22.3086876,34.2748542 21.8968117,33.4852203 20.1066584,32.8228497 C19.6545994,32.6555034 19.1302111,32.650493 18.7766005,32.3218129 C18.775596,31.9740934 18.9855522,31.8788964 19.1784307,31.859857 C19.8173406,31.7967264 20.3768891,31.5452059 20.9444742,31.2636233 C21.3483135,31.0632086 21.8154411,30.9840448 22.260468,30.8758208 C22.7888746,30.7465533 23.3192904,30.6243004 23.8547291,30.5361179 C24.4373828,30.4389168 24.7407646,30.1202574 24.7889842,29.5390548 C24.8050574,29.3366359 24.8422267,29.1362212 24.8603091,29.0029454 C25.2370249,28.6211554 25.6489008,28.5389854 26.0637904,28.4818672 C26.5881788,28.4087158 26.9950318,28.165212 27.3345783,27.7583701 C27.6017953,27.4387087 27.9272777,27.1691509 28.2125772,26.8645205 C28.6746818,26.3694962 29.2472898,26.1801043 29.909305,26.2241956 C30.3513182,26.2532557 30.7933313,26.2923366 31.2232896,26.3264071 C31.3066693,25.9005258 31.0153425,25.7341816 30.8676699,25.4986943 C30.4467528,24.8253009 30.4547894,23.7099931 30.9821915,23.1548444 C31.4985432,22.6107185 32.1645767,22.4353556 32.9863194,22.7079196 C32.9863194,23.0987283 32.9722553,23.462481 32.9913423,23.8252316 C33.00842,24.1549138 33.0144475,24.4976229 33.1098822,24.8082657 C33.2676005,25.317319 33.5890646,25.5317628 34.1476085,25.5117213 C35.2285317,25.4716384 36.2973999,25.4646238 37.3833459,25.2431656 C38.6239965,24.989641 39.9419994,24.8062615 41.1957095,25.3684248 C41.3413729,25.4335596 41.5151644,25.4355637 41.6397318,25.4596135 C41.9782737,25.2521843 41.9973606,24.9575746 41.9802828,24.661963 C41.9390952,23.9715343 42.1400103,23.3412301 42.455447,22.7419901 C42.8783732,21.936323 43.188787,21.8020451 44.0748225,22.0144847 C44.3179298,22.0736071 44.5550095,22.1838352 44.8001259,22.2048787 C44.9960181,22.222916 45.206979,22.1617895 45.3988529,22.0986589 C45.5967542,22.0335241 45.6710928,21.7158668 45.5204065,21.5775807 C45.2160201,21.3010084 44.894556,21.0444776 44.5931834,20.7899509 C44.6233207,20.4592666 44.8684371,20.4763019 45.0572972,20.464277 C46.3089982,20.3851132 47.5617037,20.3219826 48.8134046,20.2488312 C49.2614452,20.2237794 49.7396231,20.2899162 50.0862016,19.9091283 C49.7737787,18.7807935 49.5748728,18.6254721 48.5723065,18.664553 C47.8198796,18.6936131 47.052384,18.6174555 46.3190439,18.7447188 C45.5917313,18.8719822 44.8985743,19.1946499 44.121033,19.455189 C43.9623101,19.3028738 43.7413035,19.1645877 43.628791,18.9661771 C43.361574,18.4962046 43.1204759,18.0071927 42.9165471,17.506156 C42.6061333,16.742576 42.8090575,16.1453402 43.5122603,15.6743656 C44.2405774,15.1863558 44.9889861,14.7264041 45.7112758,14.2293756 C45.9825112,14.0419878 46.2155727,13.7934736 46.4476296,13.5549801 C46.5249819,13.4748142 46.546078,13.3385322 46.619412,13.1651735 C46.4677211,13.0880139 46.3381309,12.9747796 46.1964857,12.9557402 C45.2793084,12.8344893 44.3691631,12.9216697 43.4208439,13.0208749 C43.3716197,13.2242959 43.3143589,13.375609 43.3033086,13.5299283 C43.1918007,14.9689058 42.3740764,15.9599566 40.9636525,16.2034604 C40.2152439,16.3327279 39.6135032,16.6123064 39.1765129,17.2285816 C38.9153233,17.5983467 39.0017168,17.9370476 39.4266522,18.1434747 C39.6888464,18.2717402 39.9731412,18.3549123 40.2343308,18.4841797 C40.5728727,18.651526 40.7155224,18.9571584 40.5899505,19.3159008 C40.4945158,19.5854585 40.3518661,19.8490039 40.1810883,20.0784787 C39.9590771,20.3791008 39.6798052,20.6376357 39.4387071,20.9262329 C39.1132247,21.3140353 38.8339527,21.7258876 38.8419893,22.2670073 C38.8520351,22.9083343 38.4692919,23.2911264 37.9077342,23.4474499 C36.8619712,23.7390532 35.8021442,23.9835592 34.7413126,24.2180444 C34.3424962,24.3052248 34.0521739,24.0817624 34.0823111,23.6779268 C34.1737275,22.454395 33.547877,21.4423008 33.2233992,20.3189763 C32.5985533,20.4121692 32.3062219,20.8290318 32.1012885,21.2829711 C31.8772682,21.7799995 31.4945249,21.9313126 31.0073059,21.9673873 C29.5546899,22.0746091 28.5902975,21.2849752 28.4084694,19.8620308 C28.3461857,19.3710148 28.2678288,18.8749884 28.1231699,18.4030118 C27.9473692,17.832832 28.0026209,17.329791 28.3813458,16.8758517 C28.889661,16.2685952 29.3889349,15.6513179 29.9364285,15.0811381 C30.3432815,14.657261 30.8686745,14.4067426 31.4382687,14.2123403 C32.2660388,13.9297556 33.0837632,13.5980693 33.8663274,13.2092648 C35.0868865,12.6030103 36.0974894,11.7302042 36.7996876,10.5497616 C37.1543027,9.95452998 37.6214302,9.51161348 38.2372349,9.20197277 C39.9530497,8.33618125 41.6638416,7.46137107 43.375638,6.58756297 C44.8021351,5.85905552 46.259774,5.82899332 47.7485547,6.38113582 C48.2970529,6.58455675 48.8596151,6.75090095 49.4010812,6.97135712 C51.064658,7.64875882 52.7362715,8.31213149 54.3747339,9.0456493 C55.3230531,9.47153054 56.281418,9.64088097 57.3020666,9.53065288 C57.7179608,9.48555957 58.1358642,9.45249115 58.5487447,9.39336881 C59.3041854,9.28614694 59.9581639,9.48355542 60.5106804,10.0056357 C60.9868491,10.4565688 61.4559859,10.9165206 61.99042,11.4325884 C60.9506844,12.1751249 59.8476607,12.5138257 58.7044539,12.735284 C57.5280961,12.9637567 56.4059854,12.6070186 55.287893,12.2091954 C55.2748335,12.3855603 55.2567511,12.4336599 55.2728243,12.4537013 C55.6595859,12.9527339 55.9458899,13.4617873 55.9257983,14.1441993 C55.9087206,14.6953398 56.2703677,14.8506612 56.7847103,14.5991407 C56.9705567,14.5089541 57.1423391,14.3867011 57.3211536,14.2794793 C57.4617941,14.194303 57.6014301,14.1081247 57.7792399,13.9999008 C58.0725759,14.1652429 58.3649074,14.3175581 58.6441793,14.4899147 C59.1695723,14.8135845 59.6608096,14.8095762 60.1349692,14.3746763 C60.1651065,14.2554295 60.2283947,14.1331765 60.2193535,14.0159339 C60.1570699,13.2102668 60.504653,12.7733628 61.3213727,12.6460994 C61.6388186,12.5969978 61.9251226,12.3695271 62.2345318,12.24527 C62.4987351,12.1390502 62.7759979,12.0648968 63.1085124,11.9556708 C63.3576471,12.3114069 63.5856857,12.6390849 63.8860537,13.0689745 C64.0116256,12.8615452 64.1542753,12.7342819 64.1422204,12.6250559 C64.0919917,12.1731207 64.0276988,11.7161752 63.9091589,11.2782691 C63.5354569,9.9044263 63.8589302,9.49357616 65.4059763,9.53666532 C65.6400423,9.54367984 65.8700901,9.66092244 66.1724673,9.74810283 C66.1383117,10.0296855 66.1363026,10.2721873 66.0750235,10.4976538 C65.9996803,10.7782344 65.8379437,11.0387735 65.782692,11.3213583 C65.7485365,11.5007294 65.77566,11.7762996 65.8911862,11.8835215 C66.0780372,12.0558781 66.2709157,11.8654842 66.4025151,11.7021462 C66.6375857,11.4095407 66.8595969,11.1089187 67.1388688,10.7441639 C67.6019781,10.7441639 68.0982383,10.7351452 68.593494,10.7461681 C69.3218111,10.7622012 70.0270231,10.6619939 70.6146997,10.2080546 C71.1441109,9.80021066 71.6795496,9.79920858 72.2642124,10.0266793 C72.6128001,10.1629613 72.9694244,10.2781997 73.358195,10.4154838 C73.8434049,9.84730811 74.4501685,9.6699411 75.1604033,9.81925005 C75.2799477,9.84430189 75.4256112,9.85332055 75.5331007,9.80822724 C76.348816,9.4695264 77.0721102,9.69399086 77.6818875,10.159955 C78.3107517,10.0717726 78.6462799,9.68797842 78.9546845,9.29616768 C79.2982493,8.86126777 79.741267,8.70594638 80.2696737,8.69692772 C80.5147901,8.69191735 80.7578973,8.69692772 81,8.70995467 C79.4087526,10.5437492 78.8883825,14.5770951 78.3720308,14.3676617 C77.8124823,14.1411931 77.981251,16.3858378 77.5613385,16.6644142 C77.1424305,16.9429907 76.2573996,17.8578838 75.0207673,17.6755064 C71.3369894,17.1323826 70.1304943,18.7908142 71.3882227,18.7908142 C72.6459511,18.7908142 72.7855871,21.8571592 72.7855871,22.6938906 C72.7855871,23.5296199 71.8071306,25.7602355 71.6674947,26.6079897 C71.5278587,27.456746 67.8943095,29.5240236 67.4754016,29.9298634 C67.0564936,30.3367053 65.9384012,29.5240236 65.6782162,30.9179079 C65.4953835,31.89994 66.901789,33.2487309 67.7486461,33.9612052 C67.6451748,33.9421658 67.5396944,33.9291388 67.4362231,33.9331471 C67.2744865,33.9371554 67.0976812,33.9602031 66.9550315,34.0303482 C66.1131973,34.4432025 65.6862528,35.6587177 66.1312797,36.4904387 C66.5029726,37.1858777 66.9459903,37.84424 67.3648983,38.5146272 C67.6632572,38.9906121 68.0670965,39.3212964 68.6326724,39.4585805 C68.953132,39.5367422 69.2685686,39.6650076 69.5639138,39.8123124 C69.9948766,40.0267562 70.0501283,40.3484218 69.7798975,40.7252014 C69.2745961,40.2632455 68.3272815,39.5116904 67.6150375,39.6349454 C66.5974027,39.8123124 67.1961296,40.8143859 66.6365811,40.8404399 C66.0780372,40.8674958 65.2402213,39.6990781 64.4014009,39.2230932 C63.8016694,38.8833903 62.3771815,38.6238532 61.6137042,38.5036044 C61.6006447,38.4785526 61.5926081,38.4555049 61.578544,38.429451 C61.4750728,38.2510819 61.3525146,38.0586838 61.1877642,37.9464515 C60.019443,37.147799 59.0701193,36.0405077 57.71997,35.4963818 C57.4949451,35.4051931 57.2568607,35.2919588 57.2146686,34.9201895 C57.4095562,34.7748889 57.6586909,34.6275841 57.8535785,34.4281714 C57.9721184,34.3069205 58.0072785,34.1055038 58.1167773,33.8549854 C57.1975908,33.7808319 56.5174932,33.8810393 56.1578553,34.7468308 C55.8173042,35.5715373 55.155289,36.0364994 54.2602124,36.3050551 C54.095462,36.044516 53.9387482,35.8090287 53.7920802,35.5665269 C53.5328998,35.1376395 53.309884,34.6857043 53.0195618,34.2798646 C52.5685074,33.6515645 51.9918811,33.6305209 51.4443875,34.1936862 C51.3007333,34.340991 51.1781751,34.517356 51.0807313,34.6997334 C50.5874847,35.621641 50.0470232,36.5024636 49.2976099,37.2560229 C48.8766929,37.6799 48.618517,38.197972 49.0193426,38.8322845 C49.1378825,39.0186702 49.098704,39.316286 49.0976994,39.5627961 C49.0966949,39.8433767 49.0575164,40.1239573 49.02537,40.5247867 Z" id="path-1"></path>
    </defs>
    <g id="⭕️-Symbols" stroke="none" stroke-width="1" fill="none" fill-rule="evenodd">
        <g id="Desktop-/-HD-/-Elements-/-Region-select-default" transform="translate(-391.000000, -28.000000)">
            <g id="Group-9" transform="translate(391.000000, 28.000000)">
                <g id="Europe">
                    <mask id="mask-2" fill="white">
                        <use xlink:href="#path-1"></use>
                    </mask>
                    <use id="Mask" fill="#D1D1D1" xlink:href="#path-1"></use>
                    <g id="Group-3" mask="url(#mask-2)">
                        <g transform="translate(-11.000000, -43.000000)" id="Colours-/-brand-/-Grey-#D1D1D1">
                            <g>
                                <rect fill="#D1D1D1" x="0" y="0" width="105" height="117"></rect>
                            </g>
                        </g>
                    </g>
                </g>
            </g>
        </g>
    </g>
</svg>