<svg xmlns="http://www.w3.org/2000/svg" xmlns:xlink="http://www.w3.org/1999/xlink" width="34" height="36" viewBox="0 0 34 36">
  <defs>
    <path id="loading-a" d="M21.0243056,33 C21.0243056,34.449 19.8824306,35.625 18.4722222,35.625 C17.0620139,35.625 15.9201389,34.449 15.9201389,33 C15.9201389,31.551 17.0620139,30.375 18.4722222,30.375 C19.8824306,30.375 21.0243056,31.551 21.0243056,33 Z M18.4722222,0 C16.8622222,0 15.5555556,1.344 15.5555556,3 C15.5555556,4.656 16.8622222,6 18.4722222,6 C20.0822222,6 21.3888889,4.656 21.3888889,3 C21.3888889,1.344 20.0822222,0 18.4722222,0 Z M33.0555556,16.125 C34.0603472,16.125 34.8770139,16.9665 34.8770139,18 C34.8770139,19.035 34.0603472,19.875 33.0555556,19.875 C32.0493056,19.875 31.2340972,19.0365 31.2340972,18 C31.2340972,16.9665 32.0493056,16.125 33.0555556,16.125 Z M0.972222222,18 C0.972222222,19.6575 2.27888889,21 3.88888889,21 C5.49888889,21 6.80555556,19.6575 6.80555556,18 C6.80555556,16.344 5.49888889,15 3.88888889,15 C2.27888889,15 0.972222222,16.344 0.972222222,18 Z M28.6805556,6 C29.4840972,6 30.1388889,6.6735 30.1388889,7.5 C30.1388889,8.3295 29.4840972,9.003 28.6805556,9 C27.8770139,9 27.2222222,8.3295 27.2222222,7.503 C27.2222222,6.6735 27.8770139,6 28.6805556,6 Z M28.6805556,26.25 C29.8880556,26.25 30.8680556,27.258 30.8680556,28.5 C30.8680556,29.742 29.8880556,30.7515 28.6776389,30.75 C27.4730556,30.75 26.4930556,29.7435 26.4930556,28.5015 C26.4930556,27.258 27.4730556,26.25 28.6805556,26.25 Z M8.26388889,4.5 C9.87388889,4.5 11.1805556,5.844 11.1805556,7.5 C11.1805556,9.156 9.87388889,10.5 8.26243056,10.5 C6.65388889,10.5 5.34722222,9.1575 5.34722222,7.5 C5.34722222,5.8425 6.65388889,4.5 8.26388889,4.5 Z M8.26388889,25.5 C9.87388889,25.5 11.1805556,26.844 11.1805556,28.5 C11.1805556,30.156 9.87388889,31.5 8.26243056,31.5 C6.65388889,31.5 5.34722222,30.1575 5.34722222,28.5 C5.34722222,26.8425 6.65388889,25.5 8.26388889,25.5 Z"/>
  </defs>
  <g fill="none" fill-rule="evenodd" transform="translate(-1)">
    <mask id="loading-b" fill="#fff">
      <use xlink:href="#loading-a"/>
    </mask>
    <use fill="#A25EB5" fill-rule="nonzero" xlink:href="#loading-a"/>
    <g fill="#D1D1D1" mask="url(#loading-b)">
      <rect width="35" height="36"/>
    </g>
  </g>
</svg>
