<?xml version="1.0" encoding="UTF-8"?>
<svg width="150px" height="82px" viewBox="0 0 150 82" version="1.1" xmlns="http://www.w3.org/2000/svg" xmlns:xlink="http://www.w3.org/1999/xlink">
    <!-- Generator: Sketch 51.1 (57501) - http://www.bohemiancoding.com/sketch -->
    <title>HH Logo</title>
    <desc>Created with Sketch.</desc>
    <defs>
        <polygon id="path-1" points="0.017077102 0.0599148181 48.2032406 0.0599148181 48.2032406 31.6087169 0.017077102 31.6087169"></polygon>
        <polygon id="path-3" points="0.0239333276 0 35.7740824 0 35.7740824 32.6767516 0.0239333276 32.6767516"></polygon>
    </defs>
    <g id="⭕️-Symbols" stroke="none" stroke-width="1" fill="none" fill-rule="evenodd">
        <g id="branding-/-logo-/-sub-brands-/-healing-hands">
            <g id="HH-Logo">
                <g id="Group-3" transform="translate(101.552795, 33.074534)">
                    <mask id="mask-2" fill="white">
                        <use xlink:href="#path-1"></use>
                    </mask>
                    <g id="Clip-2"></g>
                    <path d="M48.1302139,15.8883177 C47.903128,15.4382023 47.4125799,15.4652032 47.2489624,15.519205 C46.013536,15.906268 44.9233107,17.1487613 44.7596932,17.3379184 C43.551511,15.8973682 43.4970226,14.3307134 43.4970226,12.899063 C43.4970226,11.4675634 42.3912726,11.7736238 42.2705762,11.8366761 C41.3257041,12.3228429 40.8896444,13.4212813 40.7987796,13.6013878 C40.253743,14.9879361 41.3620804,16.6625945 41.5982985,17.0228075 C41.3438162,20.0479627 40.6715384,22.9111127 40.1265019,25.0360373 C39.5814653,27.1609618 38.8000585,27.2510151 38.49124,27.2510151 C36.6561364,27.2510151 37.0558198,19.6879006 37.0558198,19.6879006 C37.0558198,19.6879006 40.1083898,13.3852298 41.5255457,8.32520319 C41.8890049,7.11876131 42.3431767,5.0748394 42.3431767,3.5982378 C42.3431767,2.12178705 41.9343612,1.18535404 41.6255427,0.645034605 C41.3165719,0.104866016 40.7624032,0.0599148181 40.61705,0.0599148181 C36.9468429,0.0599148181 35.0208745,11.8006247 34.8755213,12.8811127 C29.5881644,13.4122307 29.0067515,20.570181 28.8976224,21.506614 C27.9346382,26.026472 27.3532253,26.0625235 27.0988952,26.0625235 C26.5538586,26.0625235 26.6992119,24.1717072 26.7173239,23.8475457 C26.7899245,22.6050524 27.9256583,16.3744845 28.143612,15.2220444 C28.361718,14.0696043 28.3889622,13.6644401 28.3979421,13.5653363 C28.4343185,13.2232245 27.7620408,12.7280071 27.2714927,12.4578474 C26.7809445,12.1878385 26.2267758,12.1608376 25.8452046,12.1608376 C24.4461607,13.2772263 22.5383044,18.9495244 21.6116966,21.5606158 C22.0658684,19.8319556 22.965232,13.3223283 23.0016083,12.944165 C23.0379847,12.5660018 22.9198757,12.512 22.8017667,12.4398971 C21.9205152,11.9446797 21.193749,11.96263 20.7485572,11.9267294 C20.3033653,11.8906779 20.2222415,12.1427365 20.1762764,12.2867915 C19.9945468,12.8900124 19.6493519,16.7346974 19.5221108,18.4454073 C19.3950218,20.1561171 19.304157,20.7683886 18.9588099,22.3618935 C18.613615,23.9555492 18.0049579,25.1440408 17.4962977,25.1440408 C16.9874853,25.1440408 17.0511058,23.8025945 17.0783501,23.2263744 C17.1055943,22.6500035 17.4144128,20.4801278 17.5507861,19.2196841 C17.6870072,17.9592405 17.777872,16.4735883 17.8232283,15.6542094 C17.8687368,14.8348305 17.2328354,14.8978829 17.2328354,14.8978829 L16.82402,14.8978829 C16.5241814,14.8978829 16.4334688,14.483819 16.3878081,14.3396131 C16.0971016,13.4843336 15.3975797,12.9530648 14.6163251,12.9530648 C13.8350705,12.9530648 13.1172843,13.259276 12.7448452,13.691441 C9.87400473,16.6806957 9.73778364,22.4789476 9.73778364,23.4244312 C9.71053942,26.4586371 10.7190321,27.8361349 10.828009,28.0071908 C10.2283318,29.4567915 9.1291265,29.3397374 9.1291265,29.3397374 C7.84819165,29.321787 7.77543893,26.4316362 7.78457107,25.0720887 C7.78457107,21.4705626 9.98313381,15.7082112 10.0951547,15.4110506 C10.2071756,15.1140408 10.1465991,14.915984 10.0557343,14.7989299 C9.41070082,13.8894978 8.51133723,13.6553895 7.98441274,13.4933842 C7.45748826,13.331228 7.1667818,13.6193381 7.02142857,13.7633931 C5.11357229,15.6362591 2.49721415,21.8487258 2.49721415,21.8487258 L2.93327384,18.5894623 C2.93327384,18.5894623 6.04033231,12.9171642 7.00331649,10.8462413 C7.96630066,8.77546939 8.19338655,6.85765217 8.19338655,6.04732387 C8.19338655,3.40923159 6.96694013,2.78790949 6.2674182,2.78790949 C5.56789627,2.78790949 4.98648335,3.06711979 4.5140473,3.49928483 C1.75233593,6.32638332 1.07990601,13.6013878 0.752975393,16.4465874 C0.425892574,19.291787 0.0260570398,26.5035883 0.017077102,27.1428607 C0.571245804,27.9892405 2.31548457,28.2953008 2.31548457,28.2953008 C4.44129458,21.2904561 6.45812772,18.0491429 6.45812772,18.0491429 C6.45812772,18.0491429 5.29530188,22.1368358 5.29530188,25.3962502 C5.29530188,28.6555138 6.58536888,31.6087169 8.92928484,31.6087169 C11.2730486,31.6087169 11.6456399,29.1237303 11.6909962,28.7185661 C12.0544554,28.9436238 12.2906734,28.9075723 12.472403,28.9075723 C14.3075066,28.9075723 15.1432496,26.0625235 15.1432496,26.0625235 C15.1432496,26.0625235 15.5611972,27.8272351 16.7421351,27.8272351 C18.250308,27.8272351 18.9225858,26.0625235 18.9225858,26.0625235 L18.9225858,27.1968625 C19.4676223,27.9892405 21.2118611,28.3313523 21.2118611,28.3313523 C21.2118611,28.3313523 22.6655456,21.6146176 25.3908806,16.8066495 C24.9367088,17.635079 24.373408,23.0912192 24.373408,23.6855404 C24.373408,25.4142005 24.4461607,28.745567 26.3176406,28.745567 C28.1889683,28.745567 29.0612399,25.6303585 29.0612399,25.6303585 C29.0612399,25.6303585 29.7880061,28.9256735 31.5141327,28.9256735 C33.6944312,28.9256735 34.5848149,25.018087 34.5848149,25.018087 C34.5848149,25.018087 35.3660694,29.8710062 37.9551834,29.8710062 C39.4814684,29.8710062 40.2718551,28.2594002 40.5444495,27.6831801 C41.9434934,24.657874 42.6338831,18.6164632 42.6338831,18.6164632 C42.6338831,18.6164632 42.960966,19.0576788 43.3789136,19.7058509 C42.1614471,22.3529938 42.3612888,25.5582555 42.3976651,25.9724703 C42.6702595,28.457457 44.1601682,28.6555138 44.5417394,28.6555138 C47.5215567,28.6555138 47.9393521,24.9280337 47.9393521,23.9555492 C47.9393521,20.7502875 45.6864532,18.5264099 45.6864532,18.5264099 C45.6864532,18.5264099 46.494952,17.3199681 47.9303722,16.6535439 C48.3481676,16.4375368 48.1732871,15.9783709 48.1302139,15.8883177 M3.56019526,14.5287702 C3.56019526,14.5287702 4.13247604,10.6121331 4.62302417,8.7934197 C5.11357229,6.9747063 5.37703454,5.93932032 5.61325256,5.40805146 C5.65723904,5.30894765 5.78585001,4.96683585 5.98584388,4.96683585 C6.18568554,4.96683585 6.2674182,5.30894765 6.2674182,5.98427152 C6.2674182,6.65959539 6.11293283,9.72743922 3.56019526,14.5287702 M15.3522234,16.887803 C15.2432465,18.0491429 14.9978963,20.3181224 14.725302,21.7046708 C14.4528598,23.0912192 14.1349091,24.6129228 13.6624731,25.5042538 C13.6079846,25.6213079 13.3717666,26.026472 13.0810601,26.026472 C12.7903537,26.026472 12.3905181,25.4321508 12.3451618,24.6669246 C12.2996533,23.9015475 12.236185,22.5149991 12.5994919,20.3900745 C12.5994919,20.3900745 13.0174396,17.4370222 14.1166448,15.8792671 C14.2479954,15.6902609 14.4709719,15.5281047 14.716322,15.5281047 C14.96152,15.5281047 15.4612003,15.7263123 15.3522234,16.887803 M34.7119038,14.123606 C34.23962,21.7407223 33.4401011,23.9196486 33.0612695,24.9820355 C32.6825901,26.0444224 32.4043642,26.026472 32.2227868,26.026472 C31.8865719,26.026472 31.6775981,25.5222041 31.6231096,25.306197 C31.2960268,23.9916007 31.4777564,21.218504 31.5503569,20.8403407 C32.4043642,15.4741029 34.7119038,14.123606 34.7119038,14.123606 M37.201173,15.4382023 C37.201173,15.4382023 37.6008563,9.40569122 38.1277808,7.33476841 C38.2369099,6.88465306 38.8728112,3.88649867 39.5542211,2.84206211 C39.6723301,2.65290506 39.899416,2.22979059 40.2354788,2.22979059 C40.380832,2.22979059 40.5534294,2.54490151 40.5353174,3.28312689 C40.5172053,4.02150311 40.6534264,6.43438687 37.201173,15.4382023 M45.3048819,24.801929 C45.3048819,26.0714232 44.8233137,26.4586371 44.6234721,26.4586371 C44.1329239,26.4586371 44.1056797,25.1081402 44.1056797,24.8919823 C44.1056797,22.6590541 44.4236304,21.5336149 44.4236304,21.5336149 C45.3138619,23.2713256 45.3048819,24.5047684 45.3048819,24.801929" id="Fill-1" fill="#F4364C" mask="url(#mask-2)"></path>
                </g>
                <path d="M102.776327,63.9331606 C100.657076,62.9270971 97.4329071,63.2324528 97.4329071,63.2324528 C97.4329071,63.2324528 98.9271712,58.0672912 100.376219,41.1074835 C100.506102,39.5888318 99.3800934,39.6612202 99.3800934,39.6612202 L98.7007859,39.6612202 C98.1574309,39.6612202 97.9399979,39.3916824 97.8131493,38.8348485 C97.2335302,36.4633378 95.1685993,36.265737 94.4440754,36.265737 C88.9194861,36.265737 86.7457628,48.2308947 86.5104253,49.937666 C86.2749361,51.6444373 85.7133732,53.8902841 85.2967151,55.4531815 C84.880057,57.0162295 84.173741,59.2440167 83.19552,59.2440167 C82.2174507,59.2440167 82.3442993,56.7826602 82.434732,55.6509328 C82.652165,52.3811136 85.1700182,39.1402042 85.3329792,38.1160812 C85.4959402,37.0921087 85.2061306,36.6788476 84.9888493,36.4812468 C83.956308,35.6009977 82.8513901,35.2056456 81.8190005,34.9362584 C80.931364,34.7205981 80.5147058,35.2775825 80.3336887,35.4930923 C77.5440821,38.8348485 73.5230126,51.464896 73.5230126,51.464896 C73.5230126,51.464896 74.5010819,46.2008587 74.9719086,43.4160869 C75.4428871,40.6313152 75.7509045,37.9904173 75.9320734,36.786753 C76.1130906,35.5829382 75.7326966,35.4930923 75.5516794,35.349369 C74.863268,34.8643214 73.5410688,34.6307522 72.417943,34.4870288 C71.294969,34.3433055 71.0594798,34.9362584 70.8420467,35.8344165 C70.6247654,36.7328756 70.1719949,42.2663001 69.9182978,45.3204591 C69.6647524,48.3747685 69.392999,50.5665874 69.392999,50.5665874 C68.1431764,56.9983205 66.8570896,57.6270913 66.368055,57.6270913 C65.8790203,57.6270913 65.5711546,57.0162295 65.4080419,56.4952135 C64.4842929,53.6925328 66.2956785,43.9730714 66.4949036,42.5716558 C66.6941286,41.1703907 65.9696048,40.811007 65.3899857,40.5595288 C64.8103666,40.3080505 63.7778253,40.0564218 63.3793751,39.9667264 C62.1476086,39.6971886 61.8758553,40.8290665 61.8397429,41.0445763 C60.3905434,47.7458472 60.299959,52.0397894 60.299959,53.405086 C59.4305303,58.5613684 57.9000021,61.5347112 56.4509544,61.3550194 C53.9693653,61.0046655 53.9602614,53.1266691 53.915045,50.4767414 C55.9074477,44.3234253 63.1376648,30.4447153 63.0895655,21.7672859 C63.0690816,18.0842056 61.8034788,15.8385093 59.6116992,15.8385093 C57.5830324,15.8385093 55.2463481,18.8566998 54.8659541,19.6651625 C49.1601959,30.5345612 49.1171038,47.9615074 49.0696115,49.0232543 C48.3450876,54.7562361 46.8597758,57.6091824 45.791122,57.6091824 C44.7223166,57.6091824 45.0846544,54.1148236 45.0846544,54.1148236 C45.0846544,54.1148236 46.2982129,42.7513476 46.3525332,41.0086078 C46.4611739,39.6252517 45.1841911,39.6881589 45.1841911,39.6881589 L44.6679963,39.6881589 C44.1518015,39.6881589 43.9977927,39.3916824 43.9072083,39.0234196 C43.3184852,36.5531838 41.2354981,36.2387983 40.5109742,36.2387983 C34.4882463,36.2387983 32.5862763,49.6232805 32.3598911,51.0606646 C30.5031375,60.1782938 27.6502584,63.3222987 24.9333318,63.3222987 C22.2162535,63.3222987 22.1708854,57.5283662 22.1256691,56.180828 C29.6880291,55.2825194 30.2767522,47.2877384 30.4579211,45.5361193 C31.4541983,36.1489524 27.8767954,34.532027 25.7484401,34.5768747 C19.9973138,34.7565665 17.0538503,48.5902783 17.0538503,54.3843613 C17.0538503,60.1782938 18.7746514,63.0079133 18.7746514,63.0079133 C18.7746514,63.0079133 18.0953439,65.0316284 16.0123567,64.9842223 C14.2009712,64.9842223 13.7028326,62.3341442 13.7028326,56.7647512 C13.7028326,51.1953582 17.3073957,41.5026851 17.5791491,40.7480998 C17.8509024,39.9935146 17.597357,39.3647437 17.3164997,39.0863267 C16.0575731,37.846694 14.5179409,37.3616465 14.2009712,37.2268023 C13.0688932,36.7777233 11.9368152,37.9455696 11.6198454,38.3496505 C7.68010469,43.6496562 4.38340731,51.913975 4.38340731,51.913975 L5.09897894,46.1648902 C11.4477805,35.0261043 14.0651704,30.1753281 14.3369237,24.5159387 C14.4962431,21.1960044 13.2952784,18.4974667 11.1669232,18.4974667 C5.46116501,18.4974667 3.24222532,29.0523295 2.01303835,37.0022628 C0.783699635,44.9521962 0.0180561968,60.1782938 0,61.1125709 C0.742580061,62.4239901 4.05733364,63.1606664 4.05733364,63.1606664 C7.66204849,51.1953582 10.9405379,46.0211669 11.3752523,45.1767357 C10.2522782,48.5543098 9.32852924,54.8963476 9.32852924,57.3575536 C9.32852924,64.2744847 11.7193821,68.9455691 15.4327376,68.9455691 C19.1459414,68.9455691 20.033578,65.7836552 20.2690672,65.1189159 C22.1528292,66.8795647 24.0728554,66.9873196 24.8699075,66.9873196 C30.0141028,66.9873196 32.5862763,58.7050918 32.5862763,58.7050918 C32.5862763,58.7050918 33.6006097,64.2385163 37.0059478,64.2385163 C40.1034201,64.2385163 41.6973726,59.2440167 41.6973726,59.2440167 C41.6973726,59.2440167 42.331312,62.2981757 44.432507,62.2981757 C48.0009578,62.2981757 49.5043258,56.4053676 49.5043258,56.4053676 C49.5043258,56.4053676 50.6998281,65.8375327 55.5542139,65.8735012 C59.7928681,65.8735012 61.2056517,59.0823844 61.2056517,59.0823844 C61.2056517,59.0823844 62.3287775,62.2981757 64.9733276,62.2981757 C67.6178776,62.2981757 68.8859082,59.1541708 68.8859082,59.1541708 C68.8859082,59.1541708 68.8315878,60.6004341 68.8315878,61.1664483 C69.5198476,62.4418991 72.417943,63.1426069 72.798337,63.1876051 C75.7871687,50.3418973 80.170576,42.9849169 80.170576,42.9849169 C80.170576,42.9849169 78.4135108,50.1533263 78.3230781,56.0461344 C78.3230781,59.0464159 78.9207533,63.8971921 81.8551129,63.8971921 C84.7896242,63.8971921 86.220464,59.3877401 86.5284815,58.5973369 C87.3073257,62.7294963 89.3722566,64.2385163 90.9118888,64.2385163 C92.451521,64.2385163 93.5383827,63.016943 93.5383827,63.016943 L93.3211014,64.3104532 C87.9232089,66.6459954 84.8076804,71.6584039 84.8076804,76.5632081 C84.8076804,81.4678617 87.9775292,81.5217391 88.3759794,81.5217391 C93.4116858,81.5217391 96.5633267,66.8795647 96.8168721,65.8626655 C99.5158942,64.8277068 100.783773,65.4423311 101.43592,65.6578409 C102.088068,65.8735012 103.102401,65.9633471 103.355947,65.2805482 C103.609492,64.5978999 102.99376,64.0409155 102.776327,63.9331606 M92.4154086,68.5682765 C91.4010752,73.544867 90.7669841,74.6588359 90.187365,76.0062236 C89.6077459,77.3536113 89.2092957,77.7129949 88.8469579,77.7129949 C88.4847718,77.7129949 88.2130185,77.1739194 88.2492826,76.3654567 C88.2855467,75.5571445 89.0071877,73.5088986 89.1549754,73.2035429 C90.2961573,70.4547396 92.4154086,68.5682765 92.4154086,68.5682765 M6.18568887,39.1581132 C6.18568887,39.1581132 8.495213,25.3693996 9.98962882,22.719472 C10.1254296,22.4499343 10.777577,21.7313175 10.9042738,22.9888592 C11.0311224,24.2465515 11.4115164,29.0973277 6.18568887,39.1581132 M22.1708854,52.9919754 C22.1708854,52.9919754 22.4789029,48.5183414 23.3483315,45.3025501 C24.2177602,42.0866083 24.7973793,39.9126984 25.7936565,38.7629116 C25.9748254,38.5653108 26.7717258,38.0083263 27.0797432,39.0324493 C27.387609,40.0564218 27.8042671,41.817221 27.2970245,45.2486726 C26.7899337,48.6801242 26.101674,52.5606549 22.1708854,52.9919754 M42.0597104,42.7873161 C41.9691259,43.8832255 41.6067881,48.1953777 41.1358097,50.6204648 C40.6649829,53.0454014 39.7954026,57.1420438 39.0708787,58.3098902 C38.9259739,58.5792774 38.7086926,59.1541708 38.0746015,59.1541708 C37.4406621,59.1541708 37.0059478,58.3098902 36.861043,57.2318897 C36.7161382,56.1538893 36.5712335,53.7285012 37.078476,49.901848 C37.078476,49.901848 37.8753764,43.9550119 39.8497229,41.4397779 C40.1034201,41.0984537 40.4656061,40.8290665 41.0091128,40.8290665 C41.5524678,40.8290665 42.1501431,41.6914067 42.0597104,42.7873161 M54.3225992,42.3471163 C54.3225992,42.3471163 55.1194996,27.0850502 58.3527727,20.3837793 C58.4887252,20.1323011 58.7785347,19.6651625 59.1589287,19.6651625 C59.539171,19.6651625 59.6660196,20.0784236 59.6842275,20.653317 C59.7022837,21.2282105 59.7203399,23.2045195 59.4667945,24.6417531 C59.2132491,26.0789867 58.3618766,30.6244071 56.5867552,35.7985985 C55.970872,37.6310337 54.3225992,42.3471163 54.3225992,42.3471163 M96.0019155,42.9849169 C95.8388028,45.1049493 95.6938981,47.4404915 95.1323352,50.5306189 C94.570924,53.6207463 93.8281922,57.1241348 93.0130839,58.3277991 C92.8681791,58.5792774 92.6508978,59.1541708 92.0530708,59.1541708 C91.4553955,59.1541708 90.948153,58.2019848 90.8395123,57.1780123 C90.7308717,56.1538893 90.4409104,54.6627783 91.1112657,49.4347095 C91.1112657,49.4347095 91.7089409,43.6856247 94.0818894,41.1523312 C94.2811145,40.9547304 94.5889802,40.7930981 94.9150539,40.7930981 C95.2411275,40.7930981 96.1648765,40.865035 96.0019155,42.9849169 M69.2118301,31.8819489 C69.6284882,31.1454231 69.8459213,30.3189009 69.8459213,29.4565608 C69.8459213,28.5942207 69.4473193,28.1270821 68.8133799,27.6780031 C68.1794405,27.2287735 66.8752975,27.2108645 66.585488,27.2108645 C63.2525265,27.2108645 63.4698078,30.4627748 63.4698078,30.4627748 C63.5060719,32.7623485 63.9046738,33.9121354 64.1400113,34.3433055 C64.9552714,35.8884444 66.205094,35.2237051 66.4043191,35.0978907 C67.8353106,34.289428 68.7953237,32.6186252 69.2118301,31.8819489" id="Fill-4" fill="#F4364C"></path>
                <path d="M86.4584078,19.5652136 C86.1790329,19.5665141 86.1810506,19.2342381 86.1802746,19.099377 C86.1790329,18.9558025 86.1790329,18.6335404 86.4584078,18.6335404 L90.5600971,18.6335404 C90.839472,18.6335404 90.839472,18.9558025 90.8383855,19.099377 C90.8374543,19.2342381 90.839472,19.5665141 90.5600971,19.5652136 L86.4584078,19.5652136 Z" id="Fill-6" fill="#F4364C"></path>
                <path d="M91.7701863,24.3804625 C91.7701863,24.967922 91.6953732,25.508805 91.5454428,26.0017001 C91.3949042,26.495693 91.1709209,26.9217814 90.8736451,27.2788677 C90.5759132,27.6367381 90.2030639,27.9160401 89.7554016,28.1156759 C89.3077392,28.3157823 88.788609,28.4161491 88.1984672,28.4161491 C87.6241395,28.4161491 87.1234084,28.3283281 86.6962741,28.1519021 C86.2692918,27.9761034 85.9133211,27.7196975 85.6286662,27.3828414 C85.3443155,27.0470831 85.1315846,26.6387157 84.9921463,26.1582096 C84.8524039,25.6775467 84.7826087,25.1333704 84.7826087,24.5244262 C84.7826087,23.937594 84.8562054,23.396711 85.0037028,22.9028749 C85.1512003,22.4095094 85.3735109,21.9837346 85.671699,21.626021 C85.9691268,21.2684642 86.3406075,20.9904168 86.7853808,20.793447 C87.2306102,20.5955362 87.7508048,20.4968944 88.3459646,20.4968944 C88.9209005,20.4968944 89.4216316,20.5848722 89.8484618,20.7609846 C90.2757483,20.9374106 90.6314148,21.1938164 90.9163738,21.5297316 C91.2007245,21.8661172 91.4142157,22.2746415 91.5569993,22.7546771 C91.6988706,23.2358105 91.7701863,23.7770071 91.7701863,24.3804625 M90.4425572,24.4685971 C90.4425572,24.0793621 90.4074315,23.7106709 90.336724,23.363935 C90.2663206,23.0168854 90.1499953,22.7126485 89.9882043,22.4504402 C89.8264132,22.1891729 89.6065356,21.98248 89.3299399,21.8302047 C89.0531921,21.6780863 88.7086259,21.602027 88.2959371,21.602027 C87.9145726,21.602027 87.586885,21.6710292 87.3125701,21.8099745 C87.0384073,21.948763 86.8127514,22.1447919 86.6352983,22.3983749 C86.457389,22.6522716 86.3254016,22.9525879 86.2394881,23.2997943 C86.1534226,23.6465302 86.1102378,24.0257286 86.1102378,24.4364484 C86.1102378,24.8316427 86.1453635,25.2025294 86.216071,25.5492653 C86.2861703,25.8966286 86.4038642,26.1992972 86.5686964,26.4586827 C86.7329203,26.7171272 86.9535583,26.9227224 87.2303061,27.0753113 C87.507358,27.2274297 87.8519242,27.3034889 88.264765,27.3034889 C88.6406554,27.3034889 88.9669745,27.2341731 89.2440264,27.0949142 C89.5207742,26.9564393 89.7479507,26.7613514 89.9255559,26.510748 C90.103009,26.2592037 90.2334758,25.9606124 90.3171084,25.6132492 C90.4007409,25.2665132 90.4425572,24.8852762 90.4425572,24.4685971" id="Fill-8" fill="#F4364C"></path>
                <path d="M133.628199,28.3564104 C133.670522,28.4710539 133.692617,28.5644898 133.695418,28.6347204 C133.698063,28.7054121 133.678302,28.7595066 133.636135,28.7960818 C133.593501,28.8325034 133.523326,28.8558624 133.42561,28.8660051 C133.327272,28.8766089 133.196413,28.8819876 133.032257,28.8819876 C132.8681,28.8819876 132.73693,28.8778383 132.638903,28.8703081 C132.541187,28.8624705 132.4665,28.8492543 132.416553,28.8309666 C132.36645,28.812679 132.329262,28.7877833 132.305455,28.7565867 C132.281337,28.7252365 132.258776,28.6857414 132.237614,28.6388697 L131.355992,26.166813 L127.081542,26.166813 L126.239131,28.6076732 C126.22326,28.6543912 126.202409,28.694962 126.175491,28.7289248 C126.149195,28.7630412 126.110917,28.7916252 126.060503,28.8149842 C126.010245,28.8391115 125.938825,28.8558624 125.8464,28.8660051 C125.753352,28.8766089 125.632763,28.8819876 125.484633,28.8819876 C125.330901,28.8819876 125.205178,28.8756868 125.107462,28.8624705 C125.009435,28.8492543 124.940193,28.8243585 124.90036,28.7877833 C124.860993,28.7510543 124.842322,28.6974209 124.844967,28.6271902 C124.847768,28.5566522 124.870329,28.4635237 124.912808,28.3482655 L128.360718,18.9169217 C128.38188,18.8589853 128.409576,18.81196 128.444119,18.7749237 C128.478506,18.7386558 128.528454,18.7100718 128.594894,18.6891716 C128.661024,18.6684252 128.745825,18.6539795 128.849298,18.6453735 C128.952771,18.6381507 129.083474,18.6335404 129.242651,18.6335404 C129.411943,18.6335404 129.552293,18.6381507 129.66339,18.6453735 C129.774954,18.6539795 129.86489,18.6684252 129.933821,18.6891716 C130.00244,18.7100718 130.055654,18.7401926 130.092531,18.779534 C130.129719,18.8179534 130.158816,18.8665155 130.179978,18.9241446 L133.628199,28.3564104 Z M129.202818,20.0307765 L129.194883,20.0307765 L127.423081,25.0919923 L130.998582,25.0919923 L129.202818,20.0307765 Z" id="Fill-10" fill="#F4364C"></path>
                <path d="M123.913043,28.6292616 C123.913043,28.6717171 123.904639,28.708306 123.88894,28.7399547 C123.872448,28.7712945 123.837086,28.7978485 123.783488,28.8189991 C123.729256,28.8396865 123.653774,28.8554336 123.556568,28.8659317 C123.459521,28.8765842 123.330124,28.8819876 123.168061,28.8819876 C123.027564,28.8819876 122.912598,28.8765842 122.823638,28.8659317 C122.734678,28.8554336 122.663478,28.8387602 122.609404,28.8146763 C122.555172,28.79121 122.513149,28.7583263 122.483813,28.716334 C122.453843,28.6738785 122.428312,28.6210793 122.406905,28.5580908 L121.443407,26.154338 C121.329868,25.8807702 121.212681,25.6305144 121.091055,25.4014091 C120.969587,25.172767 120.825284,24.9756191 120.657988,24.8104286 C120.490375,24.644775 120.293426,24.5157103 120.06714,24.4238521 C119.840062,24.3321482 119.567473,24.2856787 119.249214,24.2856787 L118.317907,24.2856787 L118.317907,28.6292616 C118.317907,28.6717171 118.305538,28.708306 118.281276,28.7399547 C118.257173,28.7712945 118.219432,28.7963047 118.168213,28.8146763 C118.116835,28.833048 118.046586,28.8487951 117.957626,28.8623809 C117.868349,28.8750403 117.756712,28.8819876 117.621924,28.8819876 C117.486502,28.8819876 117.374707,28.8750403 117.285747,28.8623809 C117.196787,28.8487951 117.125111,28.833048 117.070878,28.8146763 C117.017122,28.7963047 116.979064,28.7712945 116.957815,28.7399547 C116.936249,28.708306 116.925466,28.6717171 116.925466,28.6292616 L116.925466,19.1859249 C116.925466,18.9805947 116.980808,18.8376355 117.091335,18.7559666 C117.202019,18.6746064 117.319206,18.6335404 117.44337,18.6335404 L119.669912,18.6335404 C119.934572,18.6335404 120.154673,18.6407964 120.330374,18.6540734 C120.50544,18.6667328 120.663221,18.6810905 120.803718,18.6965289 C121.2084,18.7655384 121.565985,18.8732981 121.876473,19.0201169 C122.186962,19.1675533 122.4475,19.3538943 122.657769,19.5800663 C122.868197,19.8059295 123.026296,20.0645221 123.131113,20.3561527 C123.236883,20.6480921 123.289529,20.9701363 123.289529,21.3216678 C123.289529,21.6636275 123.242116,21.9699246 123.147605,22.2404047 C123.053412,22.5115023 122.91688,22.750025 122.738959,22.9578253 C122.560722,23.1654713 122.347281,23.3451738 122.09927,23.4978592 C121.851102,23.6500814 121.572962,23.7788373 121.265328,23.8838182 C121.438174,23.9576136 121.594528,24.0508613 121.734708,24.1638701 C121.875363,24.2770332 122.006029,24.4121189 122.127497,24.5697446 C122.249123,24.7275246 122.363772,24.9086166 122.471761,25.1134836 C122.579751,25.3185051 122.68774,25.5500805 122.795729,25.8072836 L123.735123,28.0538739 C123.810287,28.2433026 123.85897,28.3759181 123.880536,28.4517205 C123.901785,28.527986 123.913043,28.5874236 123.913043,28.6292616 M121.816057,21.4640095 C121.816057,21.0647735 121.724083,20.7266734 121.540454,20.4507898 C121.357301,20.1749063 121.049033,19.9768322 120.617393,19.8559498 C120.482605,19.8192065 120.330374,19.7929613 120.160065,19.7772142 C119.990232,19.7613126 119.766959,19.7537478 119.491991,19.7537478 L118.317907,19.7537478 L118.317907,23.190327 L119.677999,23.190327 C120.045257,23.190327 120.362564,23.1467908 120.629445,23.060336 C120.896801,22.9737268 121.11944,22.8528444 121.297677,22.6975345 C121.475598,22.5425334 121.60658,22.3598976 121.690466,22.1493183 C121.774193,21.939511 121.816057,21.7111776 121.816057,21.4640095" id="Fill-12" fill="#F4364C"></path>
                <path d="M115.52795,28.6298639 C115.52795,28.6720132 115.519547,28.7082955 115.503691,28.7399461 C115.48736,28.7712879 115.45216,28.798461 115.39841,28.8189953 C115.344184,28.8396839 115.268711,28.8557408 115.171516,28.8659307 C115.074479,28.8765838 114.945097,28.8819876 114.783211,28.8819876 C114.642572,28.8819876 114.528094,28.8765838 114.438827,28.8659307 C114.349877,28.8557408 114.278526,28.838912 114.224617,28.8146723 C114.17055,28.7912045 114.128532,28.7589364 114.099199,28.7164784 C114.069549,28.6747923 114.043546,28.6216811 114.021982,28.5586888 L113.058753,26.1541736 C112.945385,25.8812069 112.828212,25.6303184 112.706282,25.4015081 C112.585145,25.1728522 112.440858,24.9756925 112.273264,24.8101833 C112.10567,24.6443653 111.909061,24.5159104 111.682325,24.424201 C111.455748,24.331874 111.183031,24.2860193 110.864967,24.2860193 L109.933607,24.2860193 L109.933607,28.6298639 C109.933607,28.6720132 109.92124,28.7082955 109.897139,28.7399461 C109.87288,28.7712879 109.834985,28.7969171 109.78393,28.8146723 C109.732399,28.8336626 109.662793,28.8487931 109.573209,28.8623797 C109.483941,28.8756575 109.371049,28.8819876 109.236276,28.8819876 C109.101186,28.8819876 108.989721,28.8756575 108.900296,28.8623797 C108.811187,28.8487931 108.739837,28.8336626 108.686086,28.8146723 C108.63186,28.7969171 108.594123,28.7712879 108.57256,28.7399461 C108.550996,28.7082955 108.540373,28.6720132 108.540373,28.6298639 L108.540373,19.1853406 C108.540373,18.9809244 108.59555,18.837339 108.706381,18.755974 C108.816736,18.6746089 108.933909,18.6335404 109.058376,18.6335404 L111.285617,18.6335404 C111.54993,18.6335404 111.770007,18.6404881 111.945528,18.6534571 C112.120892,18.6664261 112.278655,18.6810934 112.419295,18.6965327 C112.823772,18.7652375 113.181158,18.8733126 113.491611,19.0195227 C113.801906,19.1672767 114.06289,19.3539377 114.272977,19.5798145 C114.48354,19.8060002 114.64162,20.0641451 114.746426,20.3562565 C114.851866,20.6475959 114.904507,20.9696595 114.904507,21.3218298 C114.904507,21.6638101 114.857257,21.9695081 114.762916,22.2403132 C114.668416,22.5111184 114.532217,22.750273 114.353999,22.9574683 C114.176099,23.1651268 113.962682,23.3454577 113.714383,23.4975347 C113.466242,23.6497661 113.188293,23.7785298 112.880535,23.8841346 C113.053362,23.9573168 113.209698,24.0511877 113.349862,24.1642033 C113.490343,24.2767558 113.621152,24.4124671 113.742606,24.5697935 C113.864219,24.7275831 113.978696,24.9083772 114.08699,25.1138741 C114.194809,25.3192167 114.302786,25.5498797 114.410921,25.8077159 L115.35005,28.0544416 C115.425364,28.2435729 115.474041,28.3758876 115.495446,28.4523121 C115.51701,28.5285822 115.52795,28.5877147 115.52795,28.6298639 M113.431043,21.46418 C113.431043,21.0643024 113.339239,20.7266451 113.155789,20.4505906 C112.972498,20.1749992 112.664581,19.9762955 112.232674,19.8557147 C112.097901,19.8189692 111.945528,19.7927224 111.775398,19.7766655 C111.605584,19.7610718 111.382971,19.7531978 111.107558,19.7531978 L109.933607,19.7531978 L109.933607,23.189984 L111.293862,23.189984 C111.660603,23.189984 111.977874,23.1464452 112.244724,23.0599852 C112.512526,22.9733708 112.734822,22.8527899 112.912722,22.6974706 C113.091415,22.5424602 113.221748,22.3601221 113.305466,22.1495302 C113.389342,21.9397102 113.431043,21.7110543 113.431043,21.46418" id="Fill-14" fill="#F4364C"></path>
                <path d="M106.21118,28.3191264 C106.21118,28.4142033 106.205858,28.4978026 106.195669,28.5686838 C106.185176,28.6401853 106.166927,28.6995889 106.141226,28.7472049 C106.11507,28.7942005 106.08572,28.8289431 106.052111,28.8501919 C106.018199,28.8714407 105.980789,28.8819876 105.939425,28.8819876 L101.117941,28.8819876 C100.99902,28.8819876 100.886182,28.8407307 100.780187,28.7589926 C100.673887,28.6769442 100.621118,28.5333207 100.621118,28.3270366 L100.621118,19.1881812 C100.621118,18.9825174 100.673887,18.8382736 100.780187,18.755915 C100.886182,18.6746421 100.99902,18.6335404 101.117941,18.6335404 L105.884831,18.6335404 C105.926195,18.6335404 105.964061,18.6443974 105.997669,18.6656463 C106.031125,18.6865849 106.058499,18.7203969 106.079181,18.7677027 C106.099862,18.8160941 106.116743,18.8748774 106.129669,18.9463789 C106.142443,19.0178804 106.148982,19.106443 106.148982,19.2117565 C106.148982,19.3069885 106.142443,19.3902777 106.129669,19.4611588 C106.116743,19.5326603 106.099862,19.5908231 106.079181,19.6356473 C106.058499,19.6807817 106.031125,19.7138182 105.997669,19.7346017 C105.964061,19.7558505 105.926195,19.7660872 105.884831,19.7660872 L101.956626,19.7660872 L101.956626,22.981484 L105.32657,22.981484 C105.368086,22.981484 105.40504,22.9932716 105.438648,23.016847 C105.472104,23.0411978 105.500542,23.0736139 105.523809,23.1162666 C105.547228,23.1584541 105.564108,23.2166169 105.574297,23.2901348 C105.584486,23.3641179 105.589809,23.4515948 105.589809,23.5519451 C105.589809,23.6470219 105.584486,23.7287601 105.574297,23.7973147 C105.564108,23.8660244 105.547228,23.9213954 105.523809,23.9638931 C105.500542,24.0059254 105.472104,24.0363252 105.438648,24.0550924 C105.40504,24.072929 105.368086,24.08208 105.32657,24.08208 L101.956626,24.08208 L101.956626,27.7492857 L105.939425,27.7492857 C105.980789,27.7492857 106.018199,27.7599877 106.052111,27.7807712 C106.08572,27.80202 106.11507,27.8350565 106.141226,27.8795704 C106.166927,27.9247048 106.185176,27.9825574 106.195669,28.0537488 C106.205858,28.1249401 106.21118,28.2136578 106.21118,28.3191264" id="Fill-16" fill="#F4364C"></path>
                <path d="M99.689441,19.2167 C99.689441,19.3167496 99.6843139,19.4036754 99.6742106,19.4767055 C99.6638056,19.5505075 99.6470672,19.6099506 99.6239953,19.6542627 C99.6007727,19.6988836 99.5725737,19.7317703 99.5393985,19.7526139 C99.5059217,19.773612 99.4685242,19.7842654 99.4273568,19.7842654 L96.6251063,19.7842654 L96.6251063,28.6301651 C96.6251063,28.6713893 96.6148522,28.7085991 96.5943439,28.7402506 C96.5738355,28.7715933 96.5376444,28.7966057 96.4865244,28.814979 C96.434952,28.8333523 96.3670936,28.8491009 96.2821952,28.8620703 C96.1975984,28.8753485 96.0909853,28.8819876 95.9628083,28.8819876 C95.8396076,28.8819876 95.7342009,28.8753485 95.6470406,28.8620703 C95.5597294,28.8491009 95.4905138,28.8333523 95.439243,28.814979 C95.388123,28.7966057 95.3519319,28.7715933 95.3314236,28.7402506 C95.3109153,28.7085991 95.3005103,28.6713893 95.3005103,28.6301651 L95.3005103,19.7842654 L92.4978075,19.7842654 C92.4566401,19.7842654 92.4196949,19.773612 92.3863689,19.7526139 C92.3528921,19.7317703 92.3260503,19.6988836 92.305542,19.6542627 C92.2850337,19.6099506 92.2682953,19.5505075 92.2554776,19.4767055 C92.2425091,19.4036754 92.2360248,19.3167496 92.2360248,19.2167 C92.2360248,19.1166504 92.2425091,19.0291069 92.2554776,18.9522169 C92.2682953,18.8765621 92.2850337,18.8141855 92.305542,18.7670943 C92.3260503,18.720003 92.3528921,18.6857267 92.3863689,18.6645743 C92.4196949,18.6437306 92.4566401,18.6335404 92.4978075,18.6335404 L99.4273568,18.6335404 C99.4685242,18.6335404 99.5059217,18.6437306 99.5393985,18.6645743 C99.5725737,18.6857267 99.6007727,18.720003 99.6239953,18.7670943 C99.6470672,18.8141855 99.6638056,18.8765621 99.6742106,18.9522169 C99.6843139,19.0291069 99.689441,19.1166504 99.689441,19.2167" id="Fill-18" fill="#F4364C"></path>
                <path d="M82.9192547,28.541986 C82.9192547,28.5832762 82.9099987,28.6194241 82.8917954,28.6498246 C82.873592,28.6811325 82.8419675,28.7056344 82.7973847,28.7233302 C82.7526476,28.741631 82.6934096,28.7555457 82.6201334,28.7661329 C82.5467029,28.7762664 82.4572287,28.7812576 82.3524823,28.7812576 C82.242028,28.7812576 82.1499313,28.7762664 82.0765008,28.7661329 C82.0029161,28.7555457 81.9429067,28.741631 81.8952386,28.7233302 C81.8481875,28.7056344 81.8137862,28.6811325 81.7928061,28.6498246 C81.7721345,28.6194241 81.7613359,28.5832762 81.7613359,28.541986 L81.7613359,27.6233161 C81.3887841,28.0194301 81.0012685,28.3284262 80.5995605,28.550002 C80.1978524,28.7706703 79.7580408,28.8819876 79.2802797,28.8819876 C78.7604041,28.8819876 78.3168901,28.78277 77.9489662,28.5844862 C77.5815052,28.3863536 77.283618,28.1186477 77.0551504,27.7813685 C76.8266829,27.4442405 76.6600758,27.0481266 76.5550209,26.5919678 C76.4499659,26.1362628 76.3975155,25.6565096 76.3975155,25.1519521 C76.3975155,24.5543781 76.4630785,24.0148826 76.5942044,23.5334658 C76.7256388,23.0525026 76.9197051,22.641869 77.1771747,22.3027749 C77.4343357,21.9624708 77.7535115,21.7008147 78.1339309,21.5182605 C78.5149673,21.3354037 78.9544704,21.244051 79.4538287,21.244051 C79.8683408,21.244051 80.2479888,21.3329838 80.5918472,21.5108494 C80.9357056,21.6884125 81.275553,21.9494636 81.6118524,22.2941538 L81.6118524,18.880828 C81.6118524,18.8448314 81.620954,18.8098935 81.6394659,18.7766193 C81.6578236,18.7434964 81.6933047,18.7171796 81.745755,18.6991813 C81.7983597,18.6817879 81.8650025,18.6660583 81.9466091,18.6530511 C82.0277529,18.640044 82.1314194,18.6335404 82.2576088,18.6335404 C82.3885805,18.6335404 82.496875,18.640044 82.5806413,18.6530511 C82.6645619,18.6660583 82.7301248,18.6817879 82.777793,18.6991813 C82.824844,18.7171796 82.8601709,18.7434964 82.8839278,18.7766193 C82.9075305,18.8098935 82.9192547,18.8448314 82.9192547,18.880828 L82.9192547,28.541986 Z M81.6118524,23.6531016 C81.2601264,23.2262846 80.9198162,22.9006514 80.5918472,22.6768069 C80.2634154,22.4525087 79.9210997,22.3402839 79.5638202,22.3402839 C79.2332287,22.3402839 78.9520022,22.4180245 78.7209121,22.572447 C78.4899763,22.7270207 78.3020806,22.9307494 78.1579963,23.1827257 C78.0134493,23.4347019 77.9083943,23.7204061 77.8428314,24.0399895 C77.7769599,24.3591191 77.7445641,24.6833911 77.7445641,25.012503 C77.7445641,25.3626381 77.7717149,25.7055134 77.8270963,26.0399189 C77.8823234,26.3746269 77.9781225,26.6715234 78.1146477,26.9318182 C78.2513271,27.1919618 78.4322809,27.4002279 78.6581259,27.5570703 C78.8836625,27.7145176 79.1672029,27.7928632 79.5087473,27.7928632 C79.682142,27.7928632 79.848749,27.7698738 80.0087226,27.7231387 C80.1690047,27.677311 80.3331435,27.6001754 80.5012932,27.4918831 C80.6692886,27.3840445 80.8449973,27.243083 81.0290363,27.071116 C81.2126126,26.8986952 81.407296,26.686043 81.6118524,26.4337642 L81.6118524,23.6531016 Z" id="Fill-20" fill="#F4364C"></path>
                <path d="M132.306378,18.6335404 C132.826586,18.6335404 133.229814,18.9434491 133.229814,19.3299844 C133.229814,19.7250942 132.826586,20.0310559 132.300884,20.0310559 C131.781031,20.0310559 131.36646,19.7250942 131.36646,19.3299844 C131.36646,18.9434491 131.781031,18.6335404 132.300884,18.6335404 L132.306378,18.6335404 Z M132.295035,18.7733191 C131.897302,18.7733191 131.598293,19.0240227 131.598293,19.3299844 C131.598293,19.6400292 131.897302,19.8863774 132.306378,19.8863774 C132.70482,19.8905966 132.998157,19.6400292 132.998157,19.3299844 C132.998157,19.0240227 132.70482,18.7733191 132.300884,18.7733191 L132.295035,18.7733191 Z M132.157317,19.6914765 L131.94693,19.6914765 L131.94693,18.9988434 C132.02988,18.9863219 132.146151,18.9729837 132.295035,18.9729837 C132.466606,18.9729837 132.543884,18.9944881 132.610882,19.0282419 C132.660155,19.0580486 132.698971,19.1133069 132.698971,19.1768674 C132.698971,19.2577132 132.621516,19.3169184 132.511448,19.3427781 L132.511448,19.3514888 C132.599538,19.3723127 132.649521,19.4278431 132.67717,19.5209382 C132.70482,19.6272354 132.721304,19.6699721 132.743459,19.6914765 L132.516588,19.6914765 C132.489116,19.6657529 132.472809,19.6060032 132.444451,19.5254297 C132.428322,19.4490753 132.372667,19.4150493 132.25675,19.4150493 L132.157317,19.4150493 L132.157317,19.6914765 Z M132.162457,19.3004498 L132.26189,19.3004498 C132.378162,19.3004498 132.472809,19.2705069 132.472809,19.1983718 C132.472809,19.134403 132.411838,19.0920746 132.278729,19.0920746 C132.223252,19.0920746 132.184613,19.0962939 132.162457,19.1006492 L132.162457,19.3004498 Z" id="Fill-22" fill="#F4364C"></path>
                <g id="Group-26" transform="translate(14.440994, 0.000000)">
                    <mask id="mask-4" fill="white">
                        <use xlink:href="#path-3"></use>
                    </mask>
                    <g id="Clip-25"></g>
                    <path d="M35.7002479,17.1315446 C35.4928875,16.5104917 34.852959,16.0511463 34.1684126,16.0339115 C32.8864382,16.0016899 31.7017161,16.3334976 30.6487305,17.05736 C30.167612,17.3879688 29.7752759,17.856606 29.2732852,18.1433034 C28.5075188,18.5806182 27.8579105,19.1334812 27.2471728,19.7516867 C25.4207073,21.6224888 22.1424163,16.4237181 21.9923788,14.9912799 C21.9433746,14.5232422 21.9022352,14.0484604 21.9261323,13.5802728 C21.977859,12.5638681 22.1610198,11.5471636 22.1310728,10.535255 C22.0856985,9.00240521 21.917965,7.47240291 21.776851,5.9434497 C21.6708264,4.79621025 21.526385,3.65241776 21.3960096,2.50742633 C21.3217471,1.85490111 21.1757932,1.22095951 20.7746846,0.681584624 C20.3867346,0.159594421 19.8606956,-0.0813933045 19.2009537,0.0244134953 C18.5460518,0.129470955 18.1842676,0.550450135 18.081268,1.16595796 C18.0011068,1.64553553 17.9229118,2.14789302 17.9808397,2.62372389 C18.2369018,4.72742084 18.0109379,6.80728878 17.6918056,8.8769657 C17.4966962,10.1430505 17.4230386,11.4049389 17.4658417,12.6795662 C17.4743116,12.9325433 17.4225849,13.1736809 17.1096537,13.2132461 C16.8024699,13.2522118 16.7356185,13.0151206 16.6726995,12.7934658 C16.2387702,11.2622646 15.7609792,9.74140426 15.3848265,8.1962653 C14.8277817,5.90868032 14.0671577,3.69093383 13.2011142,1.50540896 C13.0953921,1.23849407 12.9436908,0.976374957 12.7602275,0.755019939 C12.2990737,0.19841023 11.3964282,0.0896060703 10.6597014,0.469521421 C10.0241591,0.797132843 9.75236724,1.38356628 9.97046622,2.11387299 C10.4605083,3.75417812 10.8767416,5.40272599 11.1102679,7.10597568 C11.3239807,8.66520223 11.7020996,10.2022483 12.0124596,11.7481366 C12.1795881,12.5803536 12.3639589,13.4092734 12.5205001,14.2432888 C12.542431,14.3592866 12.44896,14.4965657 12.4088794,14.6241033 C12.2877301,14.5647556 12.1212066,14.5373298 12.0522377,14.4412644 C11.3552889,13.4711689 10.6395854,12.511714 9.99723704,11.5065494 C9.09580157,10.0958421 8.24397529,8.65636002 7.61796163,7.09353664 C7.37339432,6.48297445 7.05441321,5.88515105 6.67160563,5.35012233 C6.21861918,4.71722982 5.45118904,4.62236338 4.72459575,4.99508507 C4.03021819,5.35117141 3.73195799,6.00969135 3.94597329,6.76157904 C4.02189957,7.02804433 4.135184,7.28551753 4.24725844,7.54014324 C4.70674854,8.58427352 5.18438834,9.62046079 5.63162738,10.6695367 C5.93805495,11.3887532 6.16916122,12.1410905 6.49797342,12.8493666 C7.11218978,14.1719516 7.76981418,15.474754 8.41685126,16.7822024 C8.56961129,17.0909304 8.76880433,17.377478 8.91642196,17.6883042 C9.05133478,17.972304 8.87785383,18.1693805 8.65461242,18.323145 C8.43000979,18.4776589 8.25380638,18.402575 8.04750471,18.2390691 C7.38231792,17.7119834 6.71561867,17.1820501 6.01125877,16.7095164 C5.28557296,16.2225953 4.60692514,15.7028531 4.07196251,15.0049179 C3.58676033,14.3717256 3.0829547,13.7515719 2.56372182,13.1455057 C2.37708232,12.9275977 2.14022864,12.7371155 1.89324137,12.5873974 C1.19644385,12.1653691 0.334937728,12.5165098 0.0986890348,13.2931257 C-0.049836072,13.7813956 0.0309301266,14.2518312 0.270355019,14.6779059 C0.594781041,15.2553473 0.955355231,15.8140551 1.32213057,16.3666184 C2.53105234,18.1875145 4.1132531,19.6710577 5.71904847,21.1349682 C6.12953436,21.5091886 6.60082177,21.8748665 6.86006009,22.344253 C7.57152863,23.6319188 8.17137646,24.9795317 8.84231065,26.2896777 C9.2892472,27.1622091 9.77399564,28.0167564 10.2649452,28.8647094 C10.7639109,29.7264504 11.3770686,30.5854937 12.155691,31.2906226 C12.033483,31.1071842 11.9450032,30.9208982 11.8920665,30.7425553 C11.5148551,29.469127 11.5730854,28.9992909 11.4005119,28.0303944 C11.2932774,26.6148912 10.9012437,24.6830928 10.9091086,24.4605389 C10.9145535,24.3061748 10.9446518,24.1503121 10.9310395,23.9978964 C10.9000337,23.6540992 10.8452821,23.3125501 10.806714,22.9693524 C10.7533236,22.4948703 10.9739938,22.2162657 11.4545073,22.2802594 C11.6786562,22.3100831 11.9226185,22.4319258 12.0723536,22.5864397 C12.9477745,23.3575105 12.9331035,24.3596777 12.8850068,24.6688554 C13.1138443,25.0800931 13.2741667,25.8331798 13.2622182,26.1288693 C13.5863417,25.7765297 13.9649144,25.6140728 14.0939285,25.186949 C14.3011377,24.5011531 14.6839453,21.710761 15.0121525,20.6804186 C15.0357471,20.0449783 15.3510983,18.7235923 15.459694,18.3177498 C15.5148994,18.111981 15.6104878,17.9093595 15.7249823,17.728319 C15.9126805,17.4321798 16.2464838,17.3010453 16.5361229,17.371783 C16.8876223,17.4575075 17.1058725,17.7017923 17.1284084,18.0884517 C17.1627416,18.7165485 16.921653,20.0881403 16.8159309,20.8652058 C16.8006549,21.644969 16.7433321,22.7653821 16.6893367,23.552189 C16.6857068,23.5718217 16.6810181,23.6310196 16.7666242,23.6440581 C16.8089735,23.6400116 16.8420968,23.5060297 16.8573728,23.4564233 C17.1358195,22.5488228 17.3610271,21.6319305 17.7400535,20.7411151 C17.853338,20.2389075 18.5469593,18.4234067 18.7647558,17.9640613 C18.9591089,17.5541724 19.4294888,17.4138959 19.8525282,17.5967349 C20.269669,17.7770261 20.4160767,18.1113815 20.2633166,18.568329 C20.0096745,19.3280099 19.6132546,21.1748331 19.480308,21.4826619 C19.4541422,21.8959979 19.0881231,22.7482971 19.0283803,23.0062199 C18.9686375,23.2633934 18.5744863,24.1885285 18.7869892,24.2917875 C18.9574452,24.3745146 19.6416891,22.7169747 19.7871893,22.4920228 C20.0058933,21.9655366 20.2339746,21.4427971 20.4537373,20.9167604 C20.5948513,20.5788081 20.7017833,20.2242204 20.8708781,19.9014048 C21.1003206,19.4633407 21.6325608,19.3701228 22.0342743,19.662815 C22.3653553,19.9041024 22.444004,20.2233212 22.2963864,20.6828165 C22.0849423,21.3410367 21.618041,22.4403184 21.3966146,22.8647445 C21.1806331,23.5469436 20.7120681,24.9954177 20.3422679,25.6124242 C20.2655853,25.7405614 20.1751393,25.9945876 20.2279247,26.0477907 C20.2454694,26.0714699 20.2825251,26.0708704 20.3114134,26.0500388 C20.3696437,25.9909908 20.4079093,25.9511259 20.4668958,25.8926774 C20.7515438,25.6103261 21.0499552,25.340264 21.3175121,25.0430757 C21.5755405,24.7562284 21.8247965,24.4563426 22.0356356,24.1348757 C22.2432985,23.8177551 22.3886474,23.4612191 22.5799755,23.1327085 C22.660288,22.9946801 22.7781099,22.8731371 22.8966879,22.763134 C23.2563546,22.4290783 23.8772259,22.670066 23.9407499,23.1743718 C23.962832,23.3500171 23.9409011,23.5434966 23.8887207,23.7135968 C23.6922501,24.3544323 23.3741765,24.9464109 23.0080062,25.5007726 C22.5963103,26.1239237 22.1416601,26.724145 21.6569117,27.2934935 C21.2055889,27.8234267 20.8829779,28.4197514 20.6471829,29.0532434 C20.2498556,30.1203034 19.7508899,31.126667 19.0227841,32.0062422 C18.8090713,32.2643149 18.5604203,32.492414 18.2825785,32.6767516 L19.7952054,32.4852203 C24.0358846,31.9480934 24.5070207,30.489728 25.2407227,29.5496062 C26.3933804,28.072807 26.9700873,27.094169 27.9899496,25.6179693 C28.3875795,25.0423264 28.802754,24.4428544 29.334238,24.0008937 C30.4232204,23.0953914 31.4382428,22.130841 32.4127309,21.104545 C33.2409625,20.2320136 34.2221055,19.5021565 35.1347333,18.708006 C35.618423,18.2871767 35.9219768,17.7956097 35.7002479,17.1315446" id="Fill-24" fill="#F4364C" mask="url(#mask-4)"></path>
                </g>
                <path d="M28.5878904,75.8863426 L28.5878904,72.9063325 L31.6299779,72.9063325 L31.6299779,72.3809422 L28.5878904,72.3809422 L28.5878904,70.0168385 L32.194652,70.0168385 L32.194652,69.4552723 L27.9503106,69.4552723 L27.9503106,75.8863426 L28.5878904,75.8863426 Z M36.6302366,75.6644026 C37.0005977,75.4864232 37.3209225,75.2476927 37.5910574,74.9488217 C37.8611923,74.6499506 38.0737701,74.3043714 38.2286372,73.9117787 C38.3835043,73.5191861 38.4608611,73.1087345 38.4608611,72.6798133 C38.4608611,72.2753146 38.3881089,71.8782954 38.2422974,71.4887556 C38.0966395,71.0992158 37.891736,70.7505837 37.627587,70.4425542 C37.363438,70.1345247 37.0446481,69.8854146 36.6712173,69.6952239 C36.2977865,69.5050332 35.8862912,69.4099379 35.4370384,69.4099379 C35.0058969,69.4099379 34.6051457,69.4990802 34.2347845,69.6772123 C33.8644234,69.8553443 33.5425638,70.095296 33.2693592,70.3972198 C32.9961545,70.6992964 32.7820419,71.046402 32.6271748,71.438842 C32.4724612,71.8315873 32.3949509,72.2420389 32.3949509,72.6708075 C32.3949509,73.0815644 32.4678566,73.4830102 32.6135146,73.8754502 C32.759326,74.2680428 32.9656109,74.6168275 33.2329831,74.9216516 C33.5000483,75.2266283 33.820373,75.4713118 34.1938038,75.6553968 C34.5672347,75.8396345 34.9785765,75.931677 35.4279827,75.931677 C35.8589707,75.931677 36.259722,75.8426873 36.6302366,75.6644026 Z M33.201058,71.6925313 C33.3132561,71.3725958 33.4727278,71.0856307 33.6791661,70.832094 C33.8856045,70.5784047 34.1376281,70.374629 34.4352369,70.2206142 C34.7326923,70.0665994 35.0636076,69.9896684 35.4279827,69.9896684 C35.7800791,69.9896684 36.1019387,70.0636993 36.3934081,70.2116084 C36.6848775,70.3596702 36.9367477,70.5573402 37.1493254,70.8049239 C37.3619032,71.0525076 37.5273608,71.3377936 37.6456983,71.660782 C37.7641893,71.983923 37.8234348,72.320649 37.8234348,72.6708075 C37.8234348,73.0029543 37.7671056,73.3289954 37.6549075,73.6490836 C37.5424024,73.9691718 37.3830842,74.2559842 37.1766459,74.5095209 C36.9702076,74.7632102 36.718184,74.9685123 36.4207286,75.1254273 C36.1231197,75.2826475 35.7923579,75.3609523 35.4279827,75.3609523 C35.0695935,75.3609523 34.7448177,75.2870741 34.4533482,75.1390123 C34.1618788,74.9911032 33.9098552,74.7919067 33.6974309,74.5412702 C33.4848532,74.2907863 33.3209304,74.0038213 33.2056626,73.6806803 C33.0902413,73.3578446 33.0325307,73.0211185 33.0325307,72.6708075 C33.0325307,72.3388133 33.088553,72.0126195 33.201058,71.6925313 Z M40.9200098,75.1345857 C40.6527911,74.9836238 40.4386785,74.7844273 40.2779789,74.536691 C40.1169724,74.2891073 40.0030859,74.0053477 39.9363196,73.6852595 C39.8693999,73.365324 39.8362469,73.03623 39.8362469,72.6979776 L39.8362469,69.4552723 L39.2077228,69.4552723 L39.2077228,72.6979776 C39.2077228,73.1087345 39.2533081,73.5072801 39.3443251,73.8936145 C39.4354956,74.2801015 39.5871396,74.6243069 39.7997173,74.9262308 C40.0121416,75.2281547 40.2930205,75.4713118 40.6422006,75.6553968 C40.9913807,75.8396345 41.4209873,75.931677 41.9310204,75.931677 C42.4287747,75.931677 42.8508605,75.8442137 43.1969709,75.6689819 C43.5430813,75.4939026 43.8239602,75.2583776 44.0396077,74.9624067 C44.2549482,74.6665885 44.4113501,74.3239094 44.5086601,73.9343696 C44.6056631,73.5448298 44.6543181,73.1326991 44.6543181,72.6979776 L44.6543181,69.4552723 L44.0167383,69.4552723 L44.0167383,72.6979776 C44.0167383,73.0240187 43.9848132,73.3471597 43.9211167,73.6670952 C43.8574201,73.987336 43.744915,74.272622 43.5840619,74.5231059 C43.4232089,74.7737424 43.2075614,74.9759918 42.9374265,75.1300065 C42.6671381,75.2840213 42.328702,75.3609523 41.9219648,75.3609523 C41.5212135,75.3609523 41.1872285,75.2855477 40.9200098,75.1345857 Z M50.4833998,75.8863426 L51.0390182,75.8863426 L51.0390182,69.4642781 L50.4014384,69.4642781 L50.4014384,74.8083919 L46.1205674,69.4552723 L45.6287991,69.4552723 L45.6287991,75.8863426 L46.2663789,75.8863426 L46.2663789,70.6327449 L50.4833998,75.8863426 Z M54.2175546,75.8863426 C54.6912116,75.8863426 55.1177485,75.8094116 55.4971653,75.6553968 C55.8765821,75.5013821 56.2015114,75.2840213 56.4717998,75.0031618 C56.7419347,74.7224551 56.9499079,74.3843553 57.0957194,73.9887098 C57.2413774,73.593217 57.3142831,73.1508634 57.3142831,72.6618016 C57.3142831,72.2209744 57.2488982,71.8057909 57.1184353,71.4162511 C56.9878189,71.0267113 56.7935059,70.6870851 56.5354964,70.3972198 C56.2773334,70.1073546 55.9556272,69.8779352 55.570071,69.708809 C55.1843613,69.5398354 54.7335737,69.4552723 54.2175546,69.4552723 L52.0225549,69.4552723 L52.0225549,75.8863426 L54.2175546,75.8863426 Z M56.5173851,73.7170088 C56.4110195,74.0401498 56.2546175,74.3208566 56.0483326,74.5594345 C55.8417408,74.7980124 55.5852661,74.9851502 55.2786016,75.1210007 C54.9719371,75.2568512 54.6183059,75.3247764 54.2175546,75.3247764 L52.6601347,75.3247764 L52.6601347,70.0168385 L54.2175546,70.0168385 C54.6121665,70.0168385 54.9613466,70.0817109 55.2649414,70.2116084 C55.5685362,70.3415059 55.8251643,70.5240645 56.0346724,70.7595896 C56.244027,70.9951146 56.4034986,71.2744476 56.5127805,71.597436 C56.6220624,71.920577 56.6767033,72.2753146 56.6767033,72.6618016 C56.6767033,73.042183 56.6234437,73.3940205 56.5173851,73.7170088 Z M57.1957921,75.8863426 L57.8789572,75.8863426 L58.7077802,73.8754502 L61.6132654,73.8754502 L62.4511441,75.8863426 L63.1252535,75.8863426 L60.438332,69.4552723 L59.9009784,69.4552723 L57.1957921,75.8863426 Z M58.8443825,73.37723 L60.1651274,70.1980233 L61.467454,73.37723 L58.8443825,73.37723 Z M67.3330653,69.4552723 L62.0869224,69.4552723 L62.0869224,70.0168385 L64.391204,70.0168385 L64.391204,75.8863426 L65.0287838,75.8863426 L65.0287838,70.0168385 L67.3330653,70.0168385 L67.3330653,69.4552723 Z M68.2073202,75.8863426 L68.8449,75.8863426 L68.8449,69.4552723 L68.2073202,69.4552723 L68.2073202,75.8863426 Z M73.9088553,75.6644026 C74.2790629,75.4864232 74.5995411,75.2476927 74.869676,74.9488217 C75.139811,74.6499506 75.3523887,74.3043714 75.5072558,73.9117787 C75.662123,73.5191861 75.7394798,73.1087345 75.7394798,72.6798133 C75.7394798,72.2753146 75.6667275,71.8782954 75.5209161,71.4887556 C75.3752581,71.0992158 75.1703546,70.7505837 74.9062057,70.4425542 C74.6420567,70.1345247 74.3232668,69.8854146 73.949836,69.6952239 C73.5764051,69.5050332 73.1649098,69.4099379 72.715657,69.4099379 C72.2845156,69.4099379 71.8837643,69.4990802 71.5134032,69.6772123 C71.1430421,69.8553443 70.8211825,70.095296 70.5479778,70.3972198 C70.2747732,70.6992964 70.0606606,71.046402 69.9057934,71.438842 C69.7509263,71.8315873 69.6735695,72.2420389 69.6735695,72.6708075 C69.6735695,73.0815644 69.7464752,73.4830102 69.8921332,73.8754502 C70.0379447,74.2680428 70.2442295,74.6168275 70.5114482,74.9216516 C70.7786669,75.2266283 71.0989917,75.4713118 71.4724225,75.6553968 C71.8458533,75.8396345 72.2571951,75.931677 72.7066014,75.931677 C73.1375894,75.931677 73.5383407,75.8426873 73.9088553,75.6644026 Z M70.4796767,71.6925313 C70.5918747,71.3725958 70.7513464,71.0856307 70.9577848,70.832094 C71.1642231,70.5784047 71.4162467,70.374629 71.7138556,70.2206142 C72.0111575,70.0665994 72.3422262,69.9896684 72.7066014,69.9896684 C73.0586977,69.9896684 73.3805573,70.0636993 73.6720267,70.2116084 C73.9634962,70.3596702 74.2153663,70.5573402 74.4279441,70.8049239 C74.6405218,71.0525076 74.8059795,71.3377936 74.924317,71.660782 C75.042808,71.983923 75.1019,72.320649 75.1019,72.6708075 C75.1019,73.0029543 75.0457242,73.3289954 74.9335261,73.6490836 C74.8210211,73.9691718 74.6617029,74.2559842 74.4552645,74.5095209 C74.2488262,74.7632102 73.9968026,74.9685123 73.6993472,75.1254273 C73.4017383,75.2826475 73.0708231,75.3609523 72.7066014,75.3609523 C72.3482122,75.3609523 72.0234363,75.2870741 71.7319669,75.1390123 C71.4404974,74.9911032 71.1884738,74.7919067 70.9760496,74.5412702 C70.7634718,74.2907863 70.5993955,74.0038213 70.4841277,73.6806803 C70.36886,73.3578446 70.3111493,73.0211185 70.3111493,72.6708075 C70.3111493,72.3388133 70.3671716,72.0126195 70.4796767,71.6925313 Z M81.4319592,75.8863426 L81.9875776,75.8863426 L81.9875776,69.4642781 L81.3499978,69.4642781 L81.3499978,74.8083919 L77.0692803,69.4552723 L76.5773585,69.4552723 L76.5773585,75.8863426 L77.2149383,75.8863426 L77.2149383,70.6327449 L81.4319592,75.8863426 Z" id="Fill-27" fill="#F4364C"></path>
            </g>
        </g>
    </g>
</svg>