<svg xmlns="http://www.w3.org/2000/svg" width="20" height="28" viewBox="0 0 20 28">
  <path fill="#FFF" d="M20 16.7885175C20 18.4197167 19.7849998 19.9221152 19.3566596 21.29322 18.9258291 22.6651558 18.2858092 23.8484608 17.4332794 24.8406421 16.5824098 25.8353163 15.51571 26.6106138 14.2340099 27.1665345 12.9523098 27.7224551 11.4672311 28 9.77877392 28 8.13348275 28 6.70070145 27.7556941 5.47876977 27.2662512 4.25600797 26.7768083 3.23745486 26.0646648 2.42228033 25.1306516 1.60793591 24.1966383 1.00029054 23.0623607.601004441 21.7269877.200058108 20.3924457 1.0658141e-13 18.8800755 1.0658141e-13 17.1882153 1.0658141e-13 15.557847.211679741 14.0571105.63337899 12.6843437 1.05673847 11.3132389 1.69260781 10.1307649 2.54513759 9.13692162 3.39600714 8.14307838 4.45938654 7.37193579 5.73361557 6.82266289 7.0078446 6.27505194 8.49707384 6 10.199643 6 11.8449342 6 13.2777155 6.24430595 14.4996472 6.73374882 15.7232391 7.22319169 16.7409621 7.93450425 17.5561366 8.86934844 18.3704811 9.80419263 18.9814469 10.9384703 19.3898643 12.2721813 19.7957913 13.6075543 20 15.1132767 20 16.7885175zM16.2005562 17.0328234C16.2005562 15.9508971 16.1001121 14.9279698 15.8983937 13.9640415 15.6950151 12.9984514 15.3621384 12.1541832 14.8997634 11.4270822 14.4365583 10.7016431 13.80816 10.12661 13.0153987 9.70364495 12.2242975 9.28151086 11.2372888 9.06961284 10.0560329 9.06961284 8.9644295 9.06961284 8.02639771 9.26239849 7.24276761 9.64796978 6.45747728 10.0335411 5.81081642 10.5794901 5.30195492 11.2824929 4.79475366 11.9871577 4.4170506 12.8214542 4.17050596 13.7862134 3.92396132 14.7493107 3.80027394 15.802153 3.80027394 16.9439093 3.80027394 18.0416242 3.90071805 19.0728612 4.10409663 20.0367894 4.30498485 21.0007177 4.64118209 21.8416619 5.11185822 22.5612842 5.58336446 23.2800755 6.21508322 23.8517847 7.00701449 24.2739188 7.79977587 24.6968839 8.78512431 24.9079509 9.96638028 24.9079509 11.0422114 24.9079509 11.9769228 24.7159962 12.768854 24.329594 13.5616154 23.9448536 14.2115967 23.4030595 14.7204582 22.7058735 15.2284896 22.0086874 15.601212 21.1785458 15.8411157 20.2146176 16.0801893 19.2506893 16.2005562 18.1903683 16.2005562 17.0328234zM3.83575127 2.99999286C2.99760831 3.00318519 3.00205705 1.93535054 3.00027756 1.50039547 2.99760831 1.03750751 2.99760831 0 3.83575127 0L16.1632148 0C17.0031373 0 17.0031373 1.03750751 16.9995783 1.50039547 16.996909 1.93535054 17.0031373 3.00318519 16.1632148 2.99999286L3.83575127 2.99999286z"/>
</svg>
