<?xml version="1.0" encoding="UTF-8"?>
<svg width="70px" height="70px" viewBox="0 0 70 70" version="1.1" xmlns="http://www.w3.org/2000/svg" xmlns:xlink="http://www.w3.org/1999/xlink">
    <!-- Generator: sketchtool 53.2 (72643) - https://sketchapp.com -->
    <title>5920545A-32DA-43AB-A413-EA5721DE279F</title>
    <desc>Created with sketchtool.</desc>
    <g id="LRP-Create" stroke="none" stroke-width="1" fill="none" fill-rule="evenodd">
        <g id="LRP-Create-/-Feature-Page" transform="translate(-350.000000, -630.000000)" fill="#BD8BCA">
            <g id="Group-17" transform="translate(60.000000, 570.000000)">
                <g id="Group-39" transform="translate(290.000000, 60.000000)">
                    <g id="Icons-/-Ecommerce-/-Rewards-/-Circle-/-Outline-/-Purple">
                        <path d="M35.91,49.84 L35.77,49.77 C35.7466667,49.7466667 35.7,49.7466667 35.6766667,49.7466667 C35.5833333,49.6766667 35.49,49.6533333 35.3966667,49.6276667 C35.14,49.56 34.86,49.56 34.6033333,49.6276667 C34.51,49.6533333 34.4166667,49.6766667 34.3233333,49.7466667 C34.23,49.7466667 34.16,49.791 34.09,49.84 L27.9533333,52.8966667 L29.5633333,43.2366667 C31.2433333,43.9366667 33.0633333,44.3333333 35,44.3333333 C36.9366667,44.3333333 38.7566667,43.9366667 40.4366667,43.2366667 L42.0466667,52.8966667 L35.91,49.84 Z M24.5,30.3333333 C24.5,24.5443333 29.2133333,19.8333333 35,19.8333333 C40.7866667,19.8333333 45.5,24.5443333 45.5,30.3333333 C45.5,36.12 40.7866667,40.8333333 35,40.8333333 C29.2133333,40.8333333 24.5,36.12 24.5,30.3333333 L24.5,30.3333333 Z M43.7266667,41.72 C43.7033333,41.58 43.6566667,41.461 43.6333333,41.3443333 C46.9,38.78 49,34.8133333 49,30.3333333 C49,22.61 42.7233333,16.3333333 35,16.3333333 C27.2766667,16.3333333 21,22.61 21,30.3333333 C21,34.8133333 23.1,38.78 26.3666667,41.3443333 C26.3433333,41.461 26.2966667,41.58 26.2733333,41.72 L23.9866667,55.51 C23.94,55.6476667 23.9166667,55.79 23.9166667,55.9276667 L23.9166667,56.021 C23.9166667,56.1376667 23.94,56.2566667 23.9633333,56.3733333 C23.9866667,56.511 24.0333333,56.6533333 24.1033333,56.77 C24.1733333,56.9076667 24.2433333,57.0266667 24.3366667,57.1433333 C24.36,57.1666667 24.3833333,57.1666667 24.3833333,57.1876667 C24.4766667,57.3043333 24.5933333,57.3743333 24.71,57.47 C24.7333333,57.491 24.78,57.491 24.8033333,57.5166667 C24.92,57.5843333 25.06,57.6566667 25.2,57.6776667 C25.34,57.7266667 25.5033333,57.75 25.6666667,57.75 C25.9233333,57.75 26.2033333,57.6776667 26.4366667,57.5633333 L26.6,57.491 L35,53.291 L43.4,57.491 L43.5633333,57.5633333 C43.7966667,57.6776667 44.0766667,57.75 44.3333333,57.75 C44.4266667,57.75 44.52,57.75 44.6133333,57.7266667 C44.6833333,57.7266667 44.7533333,57.7033333 44.8,57.6776667 C44.94,57.6566667 45.08,57.5843333 45.1966667,57.5166667 C45.22,57.491 45.2666667,57.491 45.29,57.47 C45.4066667,57.3743333 45.5233333,57.3043333 45.6166667,57.1876667 C45.6166667,57.1666667 45.64,57.1666667 45.6633333,57.1433333 C45.7566667,57.0266667 45.8266667,56.9076667 45.8966667,56.77 C45.9666667,56.6533333 46.0133333,56.511 46.0366667,56.3733333 C46.06,56.2566667 46.0833333,56.1376667 46.0833333,56.021 L46.0833333,55.9276667 C46.0833333,55.79 46.06,55.6476667 46.0133333,55.51 L43.7266667,41.72 Z M46.0833333,12.8333333 C46.0833333,11.8673333 45.2993333,11.0833333 44.3333333,11.0833333 L25.6666667,11.0833333 C24.7006667,11.0833333 23.9166667,11.8673333 23.9166667,12.8333333 C23.9166667,13.7993333 24.7006667,14.5833333 25.6666667,14.5833333 L44.3333333,14.5833333 C45.2993333,14.5833333 46.0833333,13.7993333 46.0833333,12.8333333 L46.0833333,12.8333333 Z M46.0833333,55.9276667 C46.0833333,55.79 46.06,55.6476667 46.0133333,55.51 L46.06,55.72 C46.0833333,55.79 46.0833333,55.86 46.0833333,55.9276667 L46.0833333,55.9276667 Z M25.2,57.6776667 C25.2466667,57.7033333 25.3166667,57.7266667 25.3866667,57.7266667 C25.48,57.75 25.5733333,57.75 25.6666667,57.75 C25.5033333,57.75 25.34,57.7266667 25.2,57.6776667 L25.2,57.6776667 Z M23.94,55.72 L23.9866667,55.51 C23.94,55.6476667 23.9166667,55.79 23.9166667,55.9276667 C23.9166667,55.86 23.9166667,55.79 23.94,55.72 L23.94,55.72 Z M35,0 C15.6706667,0 0,15.6683333 0,35 C0,54.3293333 15.6706667,70 35,70 C54.3293333,70 70,54.3293333 70,35 C70,15.6683333 54.3293333,0 35,0 L35,0 Z M35,3.5 C52.3693333,3.5 66.5,17.6283333 66.5,35 C66.5,52.3693333 52.3693333,66.5 35,66.5 C17.6306667,66.5 3.5,52.3693333 3.5,35 C3.5,17.6283333 17.6306667,3.5 35,3.5 L35,3.5 Z" id="Icons-/-Rewards-/-Circle-/-Outline-/-Purple"></path>
                    </g>
                </g>
            </g>
        </g>
    </g>
</svg>