<?xml version="1.0" encoding="UTF-8"?>
<svg width="40px" height="40px" viewBox="0 0 40 40" version="1.1" xmlns="http://www.w3.org/2000/svg" xmlns:xlink="http://www.w3.org/1999/xlink">
    <!-- Generator: sketchtool 53.2 (72643) - https://sketchapp.com -->
    <title>EFF33B18-01CF-492F-8FC5-8FA45F28EFF5</title>
    <desc>Created with sketchtool.</desc>
    <defs>
        <path d="M26.838837,22.2502972 C26.838837,23.3778296 26.6900693,24.4163311 26.3936828,25.3640786 C26.0955732,26.3124006 25.6527166,27.1303354 25.0628156,27.81616 C24.4740633,28.5037077 23.735969,29.0396158 22.8491071,29.4238844 C21.9622452,29.8081529 20.9346571,30 19.7663429,30 C18.6278971,30 17.6364957,29.8311286 16.7909901,29.4928115 C15.94491,29.1544943 15.2401305,28.66224 14.6760771,28.0166229 C14.1125981,27.3710058 13.6921429,26.5869601 13.4158601,25.6639115 C13.1384286,24.7414372 13,23.696043 13,22.52658 C13,21.399622 13.1464701,20.3622693 13.4382614,19.413373 C13.7312016,18.4656255 14.1711862,17.648265 14.7610872,16.9612917 C15.3498395,16.2743183 16.0856362,15.7412822 16.9673286,15.3616088 C17.8490209,14.9830841 18.879481,14.7929602 20.0575599,14.7929602 C21.1960057,14.7929602 22.187407,14.9618316 23.0329127,15.3001488 C23.8795671,15.6384659 24.5837723,16.1301458 25.1478256,16.7763373 C25.7113046,17.4225288 26.1340575,18.2065745 26.4166585,19.1284744 C26.6975364,20.051523 26.838837,21.0923221 26.838837,22.2502972 M24.2098428,22.4191686 C24.2098428,23.2192973 24.1265559,23.952222 23.9611309,24.6185173 C23.7951314,25.2848125 23.5372292,25.8586305 23.1857011,26.3405458 C22.8335985,26.822461 22.3838492,27.1969649 21.8353045,27.4629086 C21.2873341,27.7300011 20.6405682,27.8626857 19.8961556,27.8626857 C19.0787952,27.8626857 18.3969913,27.7167901 17.8484466,27.4244243 C17.3004762,27.132633 16.8633635,26.737451 16.5371086,26.2406015 C16.2114281,25.7431777 15.9787992,25.1618925 15.8397962,24.4955973 C15.6990701,23.8293021 15.6295686,23.116481 15.6295686,22.3577086 C15.6295686,21.5684934 15.715153,20.8407382 15.8857476,20.1750174 C16.0563422,19.5081478 16.3176907,18.9314578 16.6686445,18.444373 C17.0207471,17.958437 17.4681988,17.5810611 18.011574,17.314543 C18.5538005,17.048025 19.2028639,16.9147659 19.95819,16.9147659 C20.7755504,16.9147659 21.458503,17.061236 22.005899,17.3530273 C22.5544438,17.6453931 22.9892589,18.0428727 23.3097698,18.5443172 C23.6297064,19.0469106 23.8600378,19.6304933 24.0007639,20.2979374 C24.1403413,20.9642326 24.2098428,21.6713097 24.2098428,22.4191686 Z M15.9371557,12.1591412 C15.396078,12.1614387 15.39895,11.3929017 15.3978012,11.0798578 C15.396078,10.7467102 15.396078,10 15.9371557,10 L23.8953629,10 C24.4375894,10 24.4375894,10.7467102 24.4352918,11.0798578 C24.4335686,11.3929017 24.4375894,12.1614387 23.8953629,12.1591412 L15.9371557,12.1591412 Z" id="path-1"></path>
    </defs>
    <g id="Symbols" stroke="none" stroke-width="1" fill="none" fill-rule="evenodd">
        <g id="Icons-/-navigation-/-macron">
            <mask id="mask-2" fill="white">
                <use xlink:href="#path-1"></use>
            </mask>
            <use id="Fill-16" fill="#364657" xlink:href="#path-1"></use>
            <g id="Colours-/-brand-/-Dark-blue-#364657" mask="url(#mask-2)" fill="#364657">
                <rect id="Colours-/-brand-/-Grey-#364657" x="0" y="0" width="40" height="40"></rect>
            </g>
        </g>
    </g>
</svg>