<?xml version="1.0" encoding="UTF-8"?>
<svg width="100px" height="100px" viewBox="0 0 100 100" version="1.1" xmlns="http://www.w3.org/2000/svg" xmlns:xlink="http://www.w3.org/1999/xlink">
    <title>Group 10</title>
    <g id="Self-Enrol---Updates---Apr-2020" stroke="none" stroke-width="1" fill="none" fill-rule="evenodd">
        <g id="Self-Enrol-/-Desktop-/-Final-Check-/-Pick-your-own-/-Free-Enrol" transform="translate(-145.000000, -748.000000)">
            <g id="Group-27" transform="translate(100.000000, 710.000000)">
                <g id="Group-7">
                    <g id="Group-10" transform="translate(45.000000, 38.000000)">
                        <circle id="Oval" fill="#BD8BCA" cx="50" cy="50" r="50"></circle>
                        <path d="M49.5898667,49.4032667 L49.5898667,49.4 C40.2602667,49.4 21,53.1926 21,64.9166667 L21,68.1833333 C21,71.3356667 23.5643333,73.9 26.7166667,73.9 L72.45,73.9 C75.6023333,73.9 78.1666667,71.3356667 78.1666667,68.1833333 L78.1666667,64.9166667 C78.1666667,53.1958667 58.9129333,49.4032667 49.5898667,49.4032667 L49.5898667,49.4032667 Z M49.5833333,47.7666667 C57.2404,47.7666667 63.4666667,41.5404 63.4666667,33.8833333 C63.4666667,26.2262667 57.2404,20 49.5833333,20 C41.9295333,20 35.7,26.2262667 35.7,33.8833333 C35.7,41.5404 41.9295333,47.7666667 49.5833333,47.7666667 L49.5833333,47.7666667 Z" id="Fill-2" fill="#FFFFFF"></path>
                    </g>
                </g>
            </g>
        </g>
    </g>
</svg>