<svg width="99" height="18" viewBox="0 0 99 18" fill="none" xmlns="http://www.w3.org/2000/svg">
<path fill-rule="evenodd" clip-rule="evenodd" d="M52.7945 4.00879C54.5235 4.00879 56.119 4.93795 55.9007 7.25364C55.6361 10.0057 54.1478 11.5286 51.7996 11.5351H49.7478C49.4528 11.5351 49.3099 11.7736 49.2332 12.2624L48.8363 14.7616C48.7768 15.139 48.581 15.3251 48.2926 15.3251H46.3836C46.0794 15.3251 45.9735 15.1325 46.041 14.7013L47.6166 4.68502C47.6946 4.19226 47.8812 4.00879 48.2212 4.00879H52.7945ZM49.6856 9.37144H51.2401C52.2124 9.33474 52.858 8.66769 52.9228 7.46463C52.9625 6.72157 52.4558 6.18949 51.6502 6.19342L50.187 6.19998L49.6856 9.37144ZM61.0905 14.5585C61.2651 14.4012 61.4424 14.32 61.4172 14.5139L61.3551 14.9778C61.3233 15.2203 61.4199 15.3487 61.6474 15.3487H63.3434C63.6292 15.3487 63.7681 15.2347 63.8382 14.797L64.8833 8.29943C64.9362 7.97311 64.8555 7.81323 64.6055 7.81323H62.7402C62.5721 7.81323 62.4901 7.90628 62.4465 8.16052L62.3777 8.56022C62.342 8.7686 62.2454 8.80529 62.1554 8.59561C61.8392 7.85386 61.0323 7.52098 59.9065 7.54719C57.2911 7.60093 55.5276 9.56802 55.3384 12.0895C55.1929 14.0395 56.6032 15.5715 58.4632 15.5715C59.8125 15.5715 60.4158 15.1784 61.0958 14.5624L61.0905 14.5585ZM59.6697 13.5586C58.5439 13.5586 57.7594 12.6687 57.9221 11.5784C58.0848 10.488 59.1379 9.59816 60.2637 9.59816C61.3895 9.59816 62.1739 10.488 62.0112 11.5784C61.8485 12.6687 60.7968 13.5586 59.6697 13.5586ZM66.4827 7.79226C66.1281 7.79226 65.9839 8.05436 66.0964 8.37675L68.2316 14.5703L66.1374 17.5176C65.9614 17.764 66.0977 17.9881 66.3451 17.9881H68.2779C68.3905 18.001 68.5045 17.9816 68.6063 17.9321C68.7081 17.8826 68.7934 17.8051 68.852 17.709L75.419 8.37806C75.6214 8.09106 75.5261 7.78964 75.1941 7.78964H73.3645C73.0509 7.78964 72.9253 7.91283 72.7454 8.171L70.0069 12.1026L68.7832 8.16183C68.7118 7.92331 68.5332 7.79226 68.2038 7.79226H66.4827Z" fill="white"/>
<path fill-rule="evenodd" clip-rule="evenodd" d="M82.2507 4.00897C83.9797 4.00897 85.5752 4.93813 85.3569 7.25382C85.0923 10.0059 83.604 11.5287 81.2559 11.5353H79.2053C78.9103 11.5353 78.7674 11.7738 78.6907 12.2626L78.2938 14.7618C78.2343 15.1392 78.0385 15.3253 77.7501 15.3253H75.8412C75.5369 15.3253 75.4311 15.1327 75.4985 14.7015L77.0768 4.68258C77.1548 4.18982 77.3413 4.00635 77.6813 4.00635H82.2507V4.00897ZM79.1418 9.37162H80.6963C81.6686 9.33492 82.3142 8.66787 82.379 7.46481C82.4187 6.72175 81.912 6.18967 81.1064 6.19361L79.6432 6.20016L79.1418 9.37162ZM90.5467 14.5587C90.7213 14.4014 90.8986 14.3201 90.8734 14.5141L90.8113 14.978C90.7795 15.2205 90.8761 15.3489 91.1036 15.3489H92.7996C93.0853 15.3489 93.2243 15.2349 93.2944 14.7972L94.3395 8.29961C94.3924 7.97329 94.3117 7.81341 94.0617 7.81341H92.199C92.031 7.81341 91.949 7.90646 91.9053 8.1607L91.8365 8.56041C91.8008 8.76878 91.7042 8.80548 91.6143 8.59579C91.2981 7.85404 90.4911 7.52117 89.3653 7.54738C86.7499 7.60111 84.9865 9.5682 84.7973 12.0896C84.6518 14.0397 86.062 15.5717 87.922 15.5717C89.2714 15.5717 89.8746 15.1785 90.5546 14.5626L90.5467 14.5587ZM89.1272 13.5587C88.0014 13.5587 87.2169 12.6689 87.3796 11.5785C87.5423 10.4882 88.5954 9.59834 89.7212 9.59834C90.847 9.59834 91.6315 10.4882 91.4687 11.5785C91.306 12.6689 90.253 13.5587 89.1272 13.5587ZM96.9496 15.3594H94.9917C94.9576 15.3609 94.9236 15.3549 94.8922 15.3419C94.8607 15.3289 94.8325 15.3092 94.8097 15.2842C94.7868 15.2591 94.7698 15.2294 94.7599 15.1971C94.7499 15.1648 94.7473 15.1307 94.7522 15.0973L96.472 4.30384C96.4884 4.23018 96.5295 4.16418 96.5886 4.11659C96.6477 4.06901 96.7213 4.04262 96.7975 4.04173H98.7554C98.7894 4.04023 98.8234 4.04618 98.8548 4.05919C98.8863 4.07219 98.9145 4.09192 98.9374 4.11695C98.9602 4.14199 98.9772 4.17173 98.9872 4.20403C98.9971 4.23634 98.9997 4.27042 98.9948 4.30384L97.275 15.0973C97.2591 15.1714 97.2183 15.238 97.1591 15.2861C97.1 15.3342 97.0261 15.361 96.9496 15.362V15.3594Z" fill="white"/>
<path d="M0.131348 6.146H3.59635C4.15368 6.146 4.60835 6.22666 4.96035 6.388C5.31235 6.54933 5.58368 6.751 5.77435 6.993C5.96501 7.235 6.09335 7.499 6.15935 7.785C6.23268 8.071 6.26935 8.335 6.26935 8.577C6.26935 8.819 6.23268 9.083 6.15935 9.369C6.09335 9.64766 5.96501 9.908 5.77435 10.15C5.58368 10.392 5.31235 10.5937 4.96035 10.755C4.60835 10.909 4.15368 10.986 3.59635 10.986H1.50635V14H0.131348V6.146ZM1.50635 9.864H3.51935C3.67335 9.864 3.83101 9.842 3.99235 9.798C4.15368 9.754 4.30035 9.68433 4.43235 9.589C4.57168 9.48633 4.68168 9.35433 4.76235 9.193C4.85035 9.02433 4.89435 8.81533 4.89435 8.566C4.89435 8.30933 4.85768 8.09666 4.78435 7.928C4.71101 7.75933 4.61201 7.62733 4.48735 7.532C4.36268 7.42933 4.21968 7.35966 4.05835 7.323C3.89701 7.28633 3.72468 7.268 3.54135 7.268H1.50635V9.864Z" fill="white"/>
<path d="M12.0553 12.735C12.0553 12.889 12.0736 12.999 12.1103 13.065C12.1543 13.131 12.2349 13.164 12.3523 13.164C12.3889 13.164 12.4329 13.164 12.4843 13.164C12.5356 13.164 12.5943 13.1567 12.6603 13.142V14.011C12.6163 14.0257 12.5576 14.0403 12.4843 14.055C12.4183 14.077 12.3486 14.0953 12.2753 14.11C12.2019 14.1247 12.1286 14.1357 12.0553 14.143C11.9819 14.1503 11.9196 14.154 11.8683 14.154C11.6116 14.154 11.3989 14.1027 11.2303 14C11.0616 13.8973 10.9516 13.7177 10.9003 13.461C10.6509 13.703 10.3429 13.879 9.97626 13.989C9.61693 14.099 9.26859 14.154 8.93126 14.154C8.67459 14.154 8.42893 14.1173 8.19426 14.044C7.95959 13.978 7.7506 13.879 7.56726 13.747C7.39126 13.6077 7.24826 13.4353 7.13826 13.23C7.0356 13.0173 6.98426 12.7717 6.98426 12.493C6.98426 12.141 7.04659 11.855 7.17126 11.635C7.30326 11.415 7.47193 11.2427 7.67726 11.118C7.88993 10.9933 8.1246 10.9053 8.38126 10.854C8.64526 10.7953 8.90926 10.7513 9.17326 10.722C9.40059 10.678 9.61693 10.6487 9.82226 10.634C10.0276 10.612 10.2073 10.579 10.3613 10.535C10.5226 10.491 10.6473 10.425 10.7353 10.337C10.8306 10.2417 10.8783 10.1023 10.8783 9.919C10.8783 9.75766 10.8379 9.62566 10.7573 9.523C10.6839 9.42033 10.5886 9.34333 10.4713 9.292C10.3613 9.23333 10.2366 9.19666 10.0973 9.182C9.95793 9.16 9.82593 9.149 9.70126 9.149C9.34926 9.149 9.05959 9.22233 8.83226 9.369C8.60493 9.51566 8.47659 9.743 8.44726 10.051H7.19326C7.21526 9.68433 7.30326 9.38 7.45726 9.138C7.61126 8.896 7.80559 8.70166 8.04026 8.555C8.28226 8.40833 8.55359 8.30566 8.85426 8.247C9.15493 8.18833 9.46293 8.159 9.77826 8.159C10.0569 8.159 10.3319 8.18833 10.6033 8.247C10.8746 8.30566 11.1166 8.401 11.3293 8.533C11.5493 8.665 11.7253 8.83733 11.8573 9.05C11.9893 9.25533 12.0553 9.50833 12.0553 9.809V12.735ZM10.8013 11.151C10.6106 11.2757 10.3759 11.3527 10.0973 11.382C9.81859 11.404 9.53993 11.4407 9.26126 11.492C9.12926 11.514 9.00093 11.547 8.87626 11.591C8.75159 11.6277 8.64159 11.6827 8.54626 11.756C8.45093 11.822 8.37393 11.9137 8.31526 12.031C8.26393 12.141 8.23826 12.2767 8.23826 12.438C8.23826 12.5773 8.27859 12.6947 8.35926 12.79C8.43993 12.8853 8.53526 12.9623 8.64526 13.021C8.7626 13.0723 8.88726 13.109 9.01926 13.131C9.1586 13.153 9.28326 13.164 9.39326 13.164C9.5326 13.164 9.68293 13.1457 9.84426 13.109C10.0056 13.0723 10.1559 13.01 10.2953 12.922C10.4419 12.834 10.5629 12.724 10.6583 12.592C10.7536 12.4527 10.8013 12.284 10.8013 12.086V11.151Z" fill="white"/>
<path d="M12.7776 8.313H14.1526L15.6376 12.559H15.6596L17.1006 8.313H18.4096L16.1986 14.308C16.0959 14.5647 15.9932 14.8103 15.8906 15.045C15.7952 15.2797 15.6742 15.485 15.5276 15.661C15.3882 15.8443 15.2122 15.9873 14.9996 16.09C14.7869 16.2 14.5156 16.255 14.1856 16.255C13.8922 16.255 13.6026 16.233 13.3166 16.189V15.133C13.4192 15.1477 13.5182 15.1623 13.6136 15.177C13.7089 15.199 13.8079 15.21 13.9106 15.21C14.0572 15.21 14.1782 15.1917 14.2736 15.155C14.3689 15.1183 14.4459 15.0633 14.5046 14.99C14.5706 14.924 14.6256 14.8433 14.6696 14.748C14.7136 14.6527 14.7539 14.5427 14.7906 14.418L14.9336 13.978L12.7776 8.313Z" fill="white"/>
<path d="M21.6532 8.313H22.9842L24.0952 12.559H24.1172L25.1842 8.313H26.4492L27.4722 12.559H27.4942L28.6492 8.313H29.9252L28.1432 14H26.8562L25.8002 9.776H25.7782L24.7332 14H23.4132L21.6532 8.313Z" fill="white"/>
<path d="M30.7647 6.146H32.0187V7.334H30.7647V6.146ZM30.7647 8.313H32.0187V14H30.7647V8.313Z" fill="white"/>
<path d="M32.813 8.313H33.759V6.608H35.013V8.313H36.146V9.248H35.013V12.284C35.013 12.416 35.0167 12.5297 35.024 12.625C35.0387 12.7203 35.0644 12.801 35.101 12.867C35.145 12.933 35.2074 12.9843 35.288 13.021C35.3687 13.0503 35.4787 13.065 35.618 13.065C35.706 13.065 35.794 13.065 35.882 13.065C35.97 13.0577 36.058 13.043 36.146 13.021V13.989C36.0067 14.0037 35.871 14.0183 35.739 14.033C35.607 14.0477 35.4714 14.055 35.332 14.055C35.002 14.055 34.7344 14.0257 34.529 13.967C34.331 13.901 34.1734 13.8093 34.056 13.692C33.946 13.5673 33.869 13.4133 33.825 13.23C33.7884 13.0467 33.7664 12.8377 33.759 12.603V9.248H32.813V8.313Z" fill="white"/>
<path d="M37.0481 6.146H38.3021V9.061H38.3241C38.4781 8.80433 38.7055 8.59166 39.0061 8.423C39.3141 8.247 39.6551 8.159 40.0291 8.159C40.6525 8.159 41.1438 8.32033 41.5031 8.643C41.8625 8.96566 42.0421 9.44966 42.0421 10.095V14H40.7881V10.425C40.7735 9.97766 40.6781 9.655 40.5021 9.457C40.3261 9.25166 40.0511 9.149 39.6771 9.149C39.4645 9.149 39.2738 9.18933 39.1051 9.27C38.9365 9.34333 38.7935 9.44966 38.6761 9.589C38.5588 9.721 38.4671 9.87866 38.4011 10.062C38.3351 10.2453 38.3021 10.4397 38.3021 10.645V14H37.0481V6.146Z" fill="white"/>
</svg>
