<svg width="75" height="18" viewBox="0 0 75 18" fill="none" xmlns="http://www.w3.org/2000/svg">
<g clip-path="url(#clip0)">
<path fill-rule="evenodd" clip-rule="evenodd" d="M6.54443 4.23694H11.6694C14.4211 4.23694 15.4569 5.61692 15.2968 7.64429C15.0322 10.9914 12.9897 12.8431 10.2803 12.8431H8.91245C8.54071 12.8431 8.29068 13.0869 8.19014 13.7474L7.60938 17.5872C7.57101 17.8362 7.43872 17.9804 7.24029 18H4.02031C3.71736 18 3.61021 17.7707 3.68958 17.274L5.65279 4.96428C5.72952 4.47152 6.00204 4.23694 6.54443 4.23694Z" fill="#C3DEF2"/>
<path fill-rule="evenodd" clip-rule="evenodd" d="M28.7946 4.00891C30.5236 4.00891 32.119 4.93807 31.9008 7.25376C31.6362 10.0059 30.1479 11.5287 27.7997 11.5352H25.7479C25.4529 11.5352 25.31 11.7737 25.2333 12.2626L24.8364 14.7617C24.7769 15.1392 24.5811 15.3253 24.2927 15.3253H22.3837C22.0795 15.3253 21.9736 15.1326 22.0411 14.7014L23.6167 4.68514C23.6947 4.19238 23.8813 4.00891 24.2213 4.00891H28.7946ZM25.6857 9.37156H27.2401C28.2125 9.33486 28.8581 8.66781 28.9229 7.46475C28.9626 6.72169 28.4559 6.18962 27.6502 6.19355L26.1871 6.2001L25.6857 9.37156ZM37.0906 14.5586C37.2652 14.4013 37.4425 14.3201 37.4173 14.514L37.3551 14.978C37.3234 15.2204 37.42 15.3488 37.6475 15.3488H39.3435C39.6292 15.3488 39.7681 15.2348 39.8383 14.7971L40.8834 8.29955C40.9363 7.97323 40.8556 7.81335 40.6055 7.81335H38.7402C38.5722 7.81335 38.4902 7.9064 38.4466 8.16064L38.3778 8.56035C38.342 8.76872 38.2455 8.80542 38.1555 8.59573C37.8393 7.85398 37.0324 7.52111 35.9066 7.54732C33.2912 7.60105 31.5277 9.56814 31.3385 12.0896C31.193 14.0396 32.6032 15.5716 34.4633 15.5716C35.8126 15.5716 36.4159 15.1785 37.0959 14.5625L37.0906 14.5586ZM35.6698 13.5587C34.544 13.5587 33.7595 12.6688 33.9222 11.5785C34.0849 10.4881 35.1379 9.59828 36.2637 9.59828C37.3895 9.59828 38.174 10.4881 38.0113 11.5785C37.8486 12.6688 36.7969 13.5587 35.6698 13.5587ZM42.4828 7.79238C42.1282 7.79238 41.984 8.05449 42.0965 8.37687L44.2317 14.5704L42.1375 17.5178C41.9615 17.7641 42.0978 17.9882 42.3452 17.9882H44.278C44.3906 18.0011 44.5046 17.9817 44.6064 17.9322C44.7082 17.8827 44.7935 17.8053 44.8521 17.7091L51.419 8.37819C51.6215 8.09118 51.5262 7.78976 51.1942 7.78976H49.3646C49.051 7.78976 48.9254 7.91295 48.7454 8.17113L46.007 12.1027L44.7833 8.16195C44.7119 7.92344 44.5333 7.79238 44.2039 7.79238H42.4828Z" fill="white"/>
<path fill-rule="evenodd" clip-rule="evenodd" d="M58.2506 4.00885C59.9797 4.00885 61.5751 4.93801 61.3568 7.2537C61.0922 10.0058 59.6039 11.5286 57.2558 11.5352H55.2053C54.9102 11.5352 54.7674 11.7737 54.6906 12.2625L54.2938 14.7617C54.2342 15.1391 54.0384 15.3252 53.75 15.3252H51.8411C51.5368 15.3252 51.431 15.1325 51.4984 14.7014L53.0767 4.68245C53.1547 4.1897 53.3413 4.00623 53.6813 4.00623H58.2506V4.00885ZM55.1418 9.3715H56.6962C57.6685 9.3348 58.3141 8.66775 58.3789 7.46469C58.4186 6.72163 57.9119 6.18955 57.1063 6.19348L55.6431 6.20004L55.1418 9.3715ZM66.5466 14.5585C66.7212 14.4013 66.8985 14.32 66.8734 14.514L66.8112 14.9779C66.7794 15.2203 66.876 15.3488 67.1035 15.3488H68.7995C69.0853 15.3488 69.2242 15.2348 69.2943 14.7971L70.3394 8.29949C70.3923 7.97317 70.3116 7.81329 70.0616 7.81329H68.1989C68.0309 7.81329 67.9489 7.90634 67.9052 8.16058L67.8364 8.56028C67.8007 8.76866 67.7042 8.80535 67.6142 8.59567C67.298 7.85392 66.491 7.52104 65.3652 7.54725C62.7498 7.60099 60.9864 9.56808 60.7972 12.0895C60.6517 14.0396 62.0619 15.5716 63.9219 15.5716C65.2713 15.5716 65.8746 15.1784 66.5545 14.5625L66.5466 14.5585ZM65.1271 13.5586C64.0013 13.5586 63.2168 12.6688 63.3795 11.5784C63.5423 10.4881 64.5953 9.59822 65.7211 9.59822C66.8469 9.59822 67.6314 10.4881 67.4687 11.5784C67.306 12.6688 66.2529 13.5586 65.1271 13.5586ZM72.9495 15.3593H70.9916C70.9575 15.3608 70.9236 15.3548 70.8921 15.3418C70.8606 15.3288 70.8325 15.3091 70.8096 15.284C70.7867 15.259 70.7697 15.2293 70.7598 15.197C70.7499 15.1647 70.7472 15.1306 70.7521 15.0972L72.4719 4.30372C72.4884 4.23005 72.5294 4.16406 72.5885 4.11647C72.6476 4.06888 72.7212 4.0425 72.7974 4.04161H74.7553C74.7893 4.0401 74.8233 4.04606 74.8548 4.05907C74.8862 4.07207 74.9144 4.09179 74.9373 4.11683C74.9602 4.14187 74.9772 4.17161 74.9871 4.20391C74.997 4.23622 74.9996 4.2703 74.9947 4.30372L73.2749 15.0972C73.259 15.1713 73.2182 15.2379 73.159 15.286C73.0999 15.3341 73.026 15.3609 72.9495 15.3619V15.3593Z" fill="white"/>
<path fill-rule="evenodd" clip-rule="evenodd" d="M3.3405 0H8.47076C9.91539 0 11.6299 0.0458682 12.7755 1.04842C13.5415 1.71809 13.9437 2.78355 13.8511 3.93156C13.5362 7.81201 11.1933 9.98616 8.05008 9.98616H5.52066C5.08939 9.98616 4.80497 10.2692 4.68326 11.0346L3.97682 15.4903C3.93052 15.7787 3.80484 15.949 3.57995 15.97H0.414213C0.0636408 15.97 -0.0607144 15.7079 0.0305667 15.1286L2.30598 0.846595C2.39726 0.272587 2.71608 0 3.3405 0Z" fill="white"/>
<path fill-rule="evenodd" clip-rule="evenodd" d="M4.75584 10.5825L5.65146 4.96425C5.72951 4.47149 6.00203 4.2356 6.54443 4.2356H11.6694C12.5174 4.2356 13.204 4.36665 13.7411 4.60909C13.2265 8.06363 10.9709 9.98223 8.01815 9.98223H5.49271C5.15404 9.98354 4.90533 10.1513 4.75584 10.5825Z" fill="#EDF5FB"/>
</g>
<defs>
<clipPath id="clip0">
<rect width="75" height="18" fill="white"/>
</clipPath>
</defs>
</svg>
