<?xml version="1.0" encoding="UTF-8"?>
<svg width="30px" height="30px" viewBox="0 0 30 30" version="1.1" xmlns="http://www.w3.org/2000/svg" xmlns:xlink="http://www.w3.org/1999/xlink">
    <!-- Generator: Sketch 52.6 (67491) - http://www.bohemiancoding.com/sketch -->
    <title>Fill 5</title>
    <desc>Created with Sketch.</desc>
    <g id="Shopping---Checkout---Authenticated" stroke="none" stroke-width="1" fill="none" fill-rule="evenodd">
        <g id="Checkout-/-Auth-/-LPR" transform="translate(-983.000000, -802.000000)" fill="#de6c6c">
            <g id="Group-7" transform="translate(953.000000, 678.000000)">
                <g id="Group-5-Copy" transform="translate(29.000000, 45.000000)">
                    <g id="Icons-/-LRP-Date-/-White" transform="translate(0.089515, 38.000000)">
                        <path d="M16.0047172,41 C12.6658252,41 9.42630489,42.1430191 6.81282687,44.2555634 L6.81282687,43.0411056 C6.81282687,42.622679 6.4749628,42.275691 6.06753847,42.275691 C5.66011414,42.275691 5.32225006,42.622679 5.32225006,43.0411056 L5.32225006,46.102764 C5.32225006,46.5211906 5.66011414,46.8681786 6.06753847,46.8681786 L9.04869209,46.8681786 C9.45611642,46.8681786 9.7939805,46.5211906 9.7939805,46.102764 C9.7939805,45.6843373 9.45611642,45.3373494 9.04869209,45.3373494 L7.89597936,45.3373494 C10.2212792,43.5207654 13.0633123,42.5308292 16.0047172,42.5308292 C23.3979782,42.5308292 29.4199085,48.7153792 29.4199085,56.308292 C29.4199085,57.9717931 29.1317304,59.594472 28.5752483,61.1457123 C28.4261907,61.5335223 28.6249342,61.9825656 29.002547,62.1254429 C29.0919816,62.1560595 29.1814163,62.1764706 29.2708509,62.1764706 C29.5689662,62.1764706 29.8571444,61.9825656 29.9664534,61.6763997 C30.5924956,59.961871 30.9104854,58.1554926 30.9104854,56.308292 C30.9104854,47.8683203 24.2227641,41 16.0047172,41 M25.7534322,65.131798 L22.7722786,65.131798 C22.3648543,65.131798 22.0269902,65.4787873 22.0269902,65.8972156 C22.0269902,66.3156439 22.3648543,66.6626333 22.7722786,66.6626333 L23.9349285,66.6626333 C21.5996915,68.4894301 18.7675956,69.4691647 15.8162535,69.4691647 C8.42299249,69.4691647 2.40106217,63.28459 2.40106217,55.6916469 C2.40106217,54.0281391 2.68924035,52.4054537 3.24572236,50.8542073 C3.39478004,50.4663956 3.19603647,50.0173506 2.81842368,49.8744727 C2.42093653,49.7213891 1.99363784,49.9255005 1.85451734,50.3235177 C1.22847508,52.0380532 0.910485355,53.8444389 0.910485355,55.6916469 C0.910485355,64.1316522 7.59820666,71 15.8162535,71 C19.1750199,71 22.3946658,69.8467707 25.0081438,67.734218 L25.0081438,68.9588862 C25.0081438,69.3773146 25.3460079,69.7243039 25.7534322,69.7243039 C26.1608566,69.7243039 26.4987206,69.3773146 26.4987206,68.9588862 L26.4987206,65.8972156 C26.4987206,65.4787873 26.1608566,65.131798 25.7534322,65.131798" id="Fill-5"></path>
                    </g>
                </g>
            </g>
        </g>
    </g>
</svg>