<?xml version="1.0" encoding="UTF-8"?>
<svg width="388px" height="285px" viewBox="0 0 388 285" version="1.1" xmlns="http://www.w3.org/2000/svg" xmlns:xlink="http://www.w3.org/1999/xlink">
    <!-- Generator: Sketch 53.2 (72643) - https://sketchapp.com -->
    <title>Group 16</title>
    <desc>Created with Sketch.</desc>
    <defs>
        <polygon id="path-1" points="0 0.145510836 101.887955 0.145510836 101.887955 174.102167 0 174.102167"></polygon>
        <polygon id="path-3" points="85.3457665 0.00938235231 81.2055291 0.00938235231 81.2055291 11.761795 85.3457665 11.761795 85.3457665 0.00938235231"></polygon>
        <polygon id="path-5" points="77.2847896 167 82.1488673 167 82.1488673 155.110032 77.2847896 155.110032 77.2847896 167"></polygon>
    </defs>
    <g id="Page-1" stroke="none" stroke-width="1" fill="none" fill-rule="evenodd">
        <g id="Product-Detail-/-Kit" transform="translate(-119.000000, -6378.000000)">
            <g id="Group-3" transform="translate(0.000000, 6001.000000)">
                <g id="Group" transform="translate(60.000000, 0.000000)">
                    <g id="Group-27">
                        <g id="Group-16" transform="translate(61.000000, 377.000000)">
                            <g id="bottle" transform="translate(284.000000, 0.000000)">
                                <path d="M22.3998182,81.493808 L22.3998182,85.5595975 L18.3484091,85.8173375 C10.4851364,86.3173375 4.32572727,92.995356 4.32572727,101.020124 L4.32572727,104.241486 L14.3116818,104.241486 L14.3116818,92.9713622 C14.3116818,90.5789474 16.2481364,88.6385449 18.6374091,88.6385449 C21.0259091,88.6385449 22.9623636,90.5789474 22.9623636,92.9713622 L22.9623636,104.241486 L97.563,104.241486 L97.563,101.020124 C97.563,93.2995356 91.6670909,86.6339009 84.1415,85.8444272 L80.2662727,85.4380805 L80.2662727,75.996904 L22.3998182,75.996904 L22.3998182,81.493808" id="Fill-1" fill="#C7BDD2"></path>
                                <polygon id="Fill-2" fill="#B6A7C5" points="4.32572727 159.089009 14.3116818 159.089009 14.3116818 104.241486 4.32572727 104.241486"></polygon>
                                <path d="M22.9623636,237.979876 C22.9623636,240.372291 21.0259091,242.312693 18.6374091,242.312693 C16.2481364,242.312693 14.3116818,240.372291 14.3116818,237.979876 L14.3116818,159.089009 L4.32572727,159.089009 L4.32572727,229.56192 C4.32572727,231.158669 4.49340909,232.706656 4.80713636,234.184211 C6.45845455,240.773994 12.3103182,245.667957 19.2756818,245.667957 L82.6122727,245.667957 C89.5784091,245.667957 95.4295,240.773994 97.0815909,234.184211 C97.3953182,232.706656 97.563,231.158669 97.563,229.56192 L97.563,159.089009 L22.9623636,159.089009 L22.9623636,237.979876" id="Fill-3" fill="#9F8AB4"></path>
                                <path d="M22.9623636,92.9713622 C22.9623636,90.5789474 21.0259091,88.6385449 18.6374091,88.6385449 C16.2481364,88.6385449 14.3116818,90.5789474 14.3116818,92.9713622 L14.3116818,104.241486 L22.9623636,104.241486 L22.9623636,92.9713622" id="Fill-4" fill="#E7E2EA"></path>
                                <polygon id="Fill-5" fill="#DBD4E1" points="14.3116818 159.089009 22.9623636 159.089009 22.9623636 104.241486 14.3116818 104.241486"></polygon>
                                <path d="M14.3116818,237.979876 C14.3116818,240.372291 16.2481364,242.312693 18.6374091,242.312693 C21.0259091,242.312693 22.9623636,240.372291 22.9623636,237.979876 L22.9623636,159.089009 L14.3116818,159.089009 L14.3116818,237.979876" id="Fill-6" fill="#C7BDD2"></path>
                                <g id="Group-10" transform="translate(0.000000, 75.851393)">
                                    <mask id="mask-2" fill="white">
                                        <use xlink:href="#path-1"></use>
                                    </mask>
                                    <g id="Clip-8"></g>
                                    <polyline id="Fill-7" fill="#B6A7C5" mask="url(#mask-2)" points="22.9623636 40.7724458 22.9623636 83.2376161 97.563 83.2376161 97.563 28.3900929 22.9623636 28.3900929 22.9623636 40.7724458"></polyline>
                                    <path d="M84.592,5.68421053 L84.592,0.145510836 L80.2662727,0.145510836 L80.2662727,9.58668731 L84.1415,9.99303406 C91.6670909,10.7825077 97.563,17.4481424 97.563,25.1687307 L97.563,154.560372 C97.563,155.863777 97.3845,157.123065 97.0815909,158.332817 C95.4295,164.922601 89.5784091,169.816563 82.6122727,169.816563 L19.2756818,169.816563 C12.3103182,169.816563 6.45845455,164.922601 4.80713636,158.332817 C4.50422727,157.123065 4.32572727,155.863777 4.32572727,154.560372 L4.32572727,25.1687307 C4.32572727,17.1439628 10.4851364,10.4659443 18.3484091,9.96594427 L22.3998182,9.70820433 L22.3998182,0.145510836 L18.0740909,0.145510836 L18.0740909,5.64241486 C8.02940909,6.28095975 0,14.8072755 0,25.1687307 L0,154.560372 C0,165.334365 8.67463636,174.148607 19.2756818,174.148607 L82.6122727,174.148607 C93.2140909,174.148607 101.887955,165.334365 101.887955,154.560372 L101.887955,25.1687307 C101.887955,15.0735294 94.2727273,6.6996904 84.592,5.68421053" id="Fill-9" fill="#272A29" mask="url(#mask-2)"></path>
                                </g>
                                <polygon id="Fill-11" fill="#454543" points="17.1228636 61.2143963 86.7873182 61.2143963 86.7873182 58.6617647 17.1228636 58.6617647"></polygon>
                                <path d="M20.7786364,72.8049536 L20.7786364,64.6911765 C20.7786364,63.6927245 21.5498182,62.8823529 22.5010455,62.8823529 L34.8986818,62.8823529 C35.8499091,62.8823529 36.6210909,63.6927245 36.6210909,64.6911765 L36.6210909,72.8049536 C36.6210909,73.8041796 35.8499091,74.6145511 34.8986818,74.6145511 L22.5010455,74.6145511 C21.5498182,74.6145511 20.7786364,73.8041796 20.7786364,72.8049536 Z M59.1646364,64.6911765 C59.1646364,63.6927245 59.6692273,62.8823529 60.2905,62.8823529 L68.3971818,62.8823529 C69.0184545,62.8823529 69.5230455,63.6927245 69.5230455,64.6911765 L69.5230455,72.8049536 C69.5230455,73.8041796 69.0184545,74.6145511 68.3971818,74.6145511 L60.2905,74.6145511 C59.6692273,74.6145511 59.1646364,73.8041796 59.1646364,72.8049536 L59.1646364,64.6911765 Z M80.2662727,75.996904 L90.2970455,75.996904 C90.9762727,75.996904 91.5272273,75.4450464 91.5272273,74.7647059 L91.5272273,62.4465944 C91.5272273,61.7662539 90.9762727,61.2151703 90.2970455,61.2151703 L13.7931818,61.2151703 C13.1139545,61.2151703 12.5637727,61.7662539 12.5637727,62.4465944 L12.5637727,74.7647059 C12.5637727,75.4450464 13.1139545,75.996904 13.7931818,75.996904 L80.2662727,75.996904 L80.2662727,75.996904 Z" id="Fill-12" fill="#2D2D2B"></path>
                                <path d="M84.9582727,47.9512384 C83.9490909,47.9512384 83.1307727,47.0913313 83.1307727,46.0317337 L83.1307727,10.1973684 C83.1307727,9.1369969 83.9490909,8.27786378 84.9582727,8.27786378 C85.9682273,8.27786378 86.7873182,9.1369969 86.7873182,10.1973684 L86.7873182,46.0317337 C86.7873182,47.0913313 85.9682273,47.9512384 84.9582727,47.9512384 Z M78.5353636,46.0317337 C78.5353636,47.0913313 77.7170455,47.9512384 76.7078636,47.9512384 C75.6979091,47.9512384 74.8795909,47.0913313 74.8795909,46.0317337 L74.8795909,10.1973684 C74.8795909,9.1369969 75.6979091,8.27786378 76.7078636,8.27786378 C77.7170455,8.27786378 78.5353636,9.1369969 78.5353636,10.1973684 L78.5353636,46.0317337 Z M70.2841818,46.0317337 C70.2841818,47.0913313 69.4658636,47.9512384 68.4566818,47.9512384 C67.4467273,47.9512384 66.6284091,47.0913313 66.6284091,46.0317337 L66.6284091,10.1973684 C66.6284091,9.1369969 67.4467273,8.27786378 68.4566818,8.27786378 C69.4658636,8.27786378 70.2841818,9.1369969 70.2841818,10.1973684 L70.2841818,46.0317337 Z M69.5230455,55.9721362 C69.5230455,56.6083591 69.0184545,57.123065 68.3971818,57.123065 L60.2905,57.123065 C59.6692273,57.123065 59.1646364,56.6083591 59.1646364,55.9721362 L59.1646364,50.8088235 C59.1646364,50.1733746 59.6692273,49.6578947 60.2905,49.6578947 L68.3971818,49.6578947 C69.0184545,49.6578947 69.5230455,50.1733746 69.5230455,50.8088235 L69.5230455,55.9721362 Z M58.378,46.0317337 L58.378,10.1973684 C58.378,9.1369969 59.1955455,8.27786378 60.2055,8.27786378 C61.2162273,8.27786378 62.0337727,9.1369969 62.0337727,10.1973684 L62.0337727,46.0317337 C62.0337727,47.0913313 61.2162273,47.9512384 60.2055,47.9512384 C59.1955455,47.9512384 58.378,47.0913313 58.378,46.0317337 Z M53.7833636,46.0317337 C53.7833636,47.0913313 52.9642727,47.9512384 51.9543182,47.9512384 C50.9451364,47.9512384 50.1268182,47.0913313 50.1268182,46.0317337 L50.1268182,10.1973684 C50.1268182,9.1369969 50.9451364,8.27786378 51.9543182,8.27786378 C52.9642727,8.27786378 53.7833636,9.1369969 53.7833636,10.1973684 L53.7833636,46.0317337 Z M45.5314091,46.0317337 C45.5314091,47.0913313 44.7130909,47.9512384 43.7039091,47.9512384 C42.6939545,47.9512384 41.8756364,47.0913313 41.8756364,46.0317337 L41.8756364,10.1973684 C41.8756364,9.1369969 42.6939545,8.27786378 43.7039091,8.27786378 C44.7130909,8.27786378 45.5314091,9.1369969 45.5314091,10.1973684 L45.5314091,46.0317337 Z M37.2802273,46.0317337 C37.2802273,47.0913313 36.4626818,47.9512384 35.4527273,47.9512384 C34.4427727,47.9512384 33.6244545,47.0913313 33.6244545,46.0317337 L33.6244545,10.1973684 C33.6244545,9.1369969 34.4427727,8.27786378 35.4527273,8.27786378 C36.4626818,8.27786378 37.2802273,9.1369969 37.2802273,10.1973684 L37.2802273,46.0317337 Z M36.6210909,55.9721362 C36.6210909,56.6083591 35.8499091,57.123065 34.8986818,57.123065 L22.5010455,57.123065 C21.5498182,57.123065 20.7786364,56.6083591 20.7786364,55.9721362 L20.7786364,50.8088235 C20.7786364,50.1733746 21.5498182,49.6578947 22.5010455,49.6578947 L34.8986818,49.6578947 C35.8499091,49.6578947 36.6210909,50.1733746 36.6210909,50.8088235 L36.6210909,55.9721362 Z M20.7786364,46.0317337 C20.7786364,47.0913313 19.9603182,47.9512384 18.9503636,47.9512384 C17.9411818,47.9512384 17.1228636,47.0913313 17.1228636,46.0317337 L17.1228636,10.1973684 C17.1228636,9.1369969 17.9411818,8.27786378 18.9503636,8.27786378 C19.9603182,8.27786378 20.7786364,9.1369969 20.7786364,10.1973684 L20.7786364,46.0317337 Z M29.0298182,10.1973684 L29.0298182,46.0317337 C29.0298182,47.0913313 28.2115,47.9512384 27.2023182,47.9512384 C26.1923636,47.9512384 25.3740455,47.0913313 25.3740455,46.0317337 L25.3740455,10.1973684 C25.3740455,9.1369969 26.1923636,8.27786378 27.2023182,8.27786378 C28.2115,8.27786378 29.0298182,9.1369969 29.0298182,10.1973684 Z M23.0125909,3.30727554 C23.0125909,2.98993808 23.6755909,2.73219814 24.4923636,2.73219814 L35.1413182,2.73219814 C35.9580909,2.73219814 36.6210909,2.98993808 36.6210909,3.30727554 L36.6210909,5.88931889 C36.6210909,6.20665635 35.9580909,6.46439628 35.1413182,6.46439628 L24.4923636,6.46439628 C23.6755909,6.46439628 23.0125909,6.20665635 23.0125909,5.88931889 L23.0125909,3.30727554 Z M59.1646364,3.30727554 C59.1646364,2.98993808 59.6692273,2.73219814 60.2905,2.73219814 L68.3971818,2.73219814 C69.0184545,2.73219814 69.5230455,2.98993808 69.5230455,3.30727554 L69.5230455,5.88931889 C69.5230455,6.20665635 69.0184545,6.46439628 68.3971818,6.46439628 L60.2905,6.46439628 C59.6692273,6.46439628 59.1646364,6.20665635 59.1646364,5.88931889 L59.1646364,3.30727554 Z M89.5884545,58.6617647 C90.6586818,58.6617647 91.5272273,57.75 91.5272273,56.625387 L91.5272273,50.2925697 C91.5272273,49.1679567 90.6586818,48.256192 89.5884545,48.256192 L88.8682727,48.256192 L88.8682727,10.3452012 C88.8682727,8.30882353 87.2277727,6.65789474 85.2047727,6.65789474 L84.7905909,6.65789474 L84.7905909,2.20123839 C84.7905909,1.36996904 84.1198636,0.695820433 83.2938182,0.695820433 L21.6085455,0.695820433 C20.7817273,0.695820433 20.1117727,1.36996904 20.1117727,2.20123839 L20.1117727,6.65789474 L18.6544091,6.65789474 C16.6306364,6.65789474 14.9901364,8.30882353 14.9901364,10.3452012 L14.9901364,48.256192 L14.5033182,48.256192 C13.4315455,48.256192 12.5637727,49.1679567 12.5637727,50.2925697 L12.5637727,56.625387 C12.5637727,57.75 13.4315455,58.6617647 14.5033182,58.6617647 L89.5884545,58.6617647 L89.5884545,58.6617647 Z" id="Fill-13" fill="#2D2D2B"></path>
                                <path d="M18.9503636,8.27786378 C17.9411818,8.27786378 17.1228636,9.1369969 17.1228636,10.1973684 L17.1228636,46.0317337 C17.1228636,47.0913313 17.9411818,47.9512384 18.9503636,47.9512384 C19.9603182,47.9512384 20.7786364,47.0913313 20.7786364,46.0317337 L20.7786364,10.1973684 C20.7786364,9.1369969 19.9603182,8.27786378 18.9503636,8.27786378" id="Fill-14" fill="#454543"></path>
                                <path d="M25.3740455,10.1973684 L25.3740455,46.0317337 C25.3740455,47.0913313 26.1923636,47.9512384 27.2023182,47.9512384 C28.2115,47.9512384 29.0298182,47.0913313 29.0298182,46.0317337 L29.0298182,10.1973684 C29.0298182,9.1369969 28.2115,8.27786378 27.2023182,8.27786378 C26.1923636,8.27786378 25.3740455,9.1369969 25.3740455,10.1973684" id="Fill-15" fill="#454543"></path>
                                <path d="M35.4527273,8.27786378 C34.4427727,8.27786378 33.6244545,9.1369969 33.6244545,10.1973684 L33.6244545,46.0317337 C33.6244545,47.0913313 34.4427727,47.9512384 35.4527273,47.9512384 C36.4626818,47.9512384 37.2802273,47.0913313 37.2802273,46.0317337 L37.2802273,10.1973684 C37.2802273,9.1369969 36.4626818,8.27786378 35.4527273,8.27786378" id="Fill-16" fill="#454543"></path>
                                <path d="M43.7039091,8.27786378 C42.6939545,8.27786378 41.8756364,9.1369969 41.8756364,10.1973684 L41.8756364,46.0317337 C41.8756364,47.0913313 42.6939545,47.9512384 43.7039091,47.9512384 C44.7130909,47.9512384 45.5314091,47.0913313 45.5314091,46.0317337 L45.5314091,10.1973684 C45.5314091,9.1369969 44.7130909,8.27786378 43.7039091,8.27786378" id="Fill-17" fill="#454543"></path>
                                <path d="M51.9543182,8.27786378 C50.9451364,8.27786378 50.1268182,9.1369969 50.1268182,10.1973684 L50.1268182,46.0317337 C50.1268182,47.0913313 50.9451364,47.9512384 51.9543182,47.9512384 C52.9642727,47.9512384 53.7833636,47.0913313 53.7833636,46.0317337 L53.7833636,10.1973684 C53.7833636,9.1369969 52.9642727,8.27786378 51.9543182,8.27786378" id="Fill-18" fill="#454543"></path>
                                <path d="M62.0337727,46.0317337 L62.0337727,10.1973684 C62.0337727,9.1369969 61.2162273,8.27786378 60.2055,8.27786378 C59.1955455,8.27786378 58.378,9.1369969 58.378,10.1973684 L58.378,46.0317337 C58.378,47.0913313 59.1955455,47.9512384 60.2055,47.9512384 C61.2162273,47.9512384 62.0337727,47.0913313 62.0337727,46.0317337" id="Fill-19" fill="#8F8F8B"></path>
                                <path d="M68.4566818,8.27786378 C67.4467273,8.27786378 66.6284091,9.1369969 66.6284091,10.1973684 L66.6284091,46.0317337 C66.6284091,47.0913313 67.4467273,47.9512384 68.4566818,47.9512384 C69.4658636,47.9512384 70.2841818,47.0913313 70.2841818,46.0317337 L70.2841818,10.1973684 C70.2841818,9.1369969 69.4658636,8.27786378 68.4566818,8.27786378" id="Fill-20" fill="#8F8F8B"></path>
                                <path d="M76.7078636,8.27786378 C75.6979091,8.27786378 74.8795909,9.1369969 74.8795909,10.1973684 L74.8795909,46.0317337 C74.8795909,47.0913313 75.6979091,47.9512384 76.7078636,47.9512384 C77.7170455,47.9512384 78.5353636,47.0913313 78.5353636,46.0317337 L78.5353636,10.1973684 C78.5353636,9.1369969 77.7170455,8.27786378 76.7078636,8.27786378" id="Fill-21" fill="#454543"></path>
                                <path d="M86.7873182,26.1068111 L86.7873182,10.1973684 C86.7873182,9.1369969 85.9682273,8.27786378 84.9582727,8.27786378 C83.9490909,8.27786378 83.1307727,9.1369969 83.1307727,10.1973684 L83.1307727,46.0317337 C83.1307727,47.0913313 83.9490909,47.9512384 84.9582727,47.9512384 C85.9682273,47.9512384 86.7873182,47.0913313 86.7873182,46.0317337 L86.7873182,26.1068111" id="Fill-22" fill="#454543"></path>
                                <path d="M34.8986818,74.6145511 C35.8499091,74.6145511 36.6210909,73.8041796 36.6210909,72.8049536 L36.6210909,64.6911765 C36.6210909,63.6927245 35.8499091,62.8823529 34.8986818,62.8823529 L22.5010455,62.8823529 C21.5498182,62.8823529 20.7786364,63.6927245 20.7786364,64.6911765 L20.7786364,72.8049536 C20.7786364,73.8041796 21.5498182,74.6145511 22.5010455,74.6145511 L34.8986818,74.6145511" id="Fill-23" fill="#454543"></path>
                                <path d="M34.8986818,49.6578947 L22.5010455,49.6578947 C21.5498182,49.6578947 20.7786364,50.1733746 20.7786364,50.8088235 L20.7786364,55.9721362 C20.7786364,56.6083591 21.5498182,57.123065 22.5010455,57.123065 L34.8986818,57.123065 C35.8499091,57.123065 36.6210909,56.6083591 36.6210909,55.9721362 L36.6210909,50.8088235 C36.6210909,50.1733746 35.8499091,49.6578947 34.8986818,49.6578947" id="Fill-24" fill="#454543"></path>
                                <path d="M24.4923636,6.46439628 L35.1413182,6.46439628 C35.9580909,6.46439628 36.6210909,6.20665635 36.6210909,5.88931889 L36.6210909,3.30727554 C36.6210909,2.98993808 35.9580909,2.73219814 35.1413182,2.73219814 L24.4923636,2.73219814 C23.6755909,2.73219814 23.0125909,2.98993808 23.0125909,3.30727554 L23.0125909,5.88931889 C23.0125909,6.20665635 23.6755909,6.46439628 24.4923636,6.46439628" id="Fill-25" fill="#454543"></path>
                                <path d="M60.2905,74.6145511 L68.3971818,74.6145511 C69.0184545,74.6145511 69.5230455,73.8041796 69.5230455,72.8049536 L69.5230455,64.6911765 C69.5230455,63.6927245 69.0184545,62.8823529 68.3971818,62.8823529 L60.2905,62.8823529 C59.6692273,62.8823529 59.1646364,63.6927245 59.1646364,64.6911765 L59.1646364,72.8049536 C59.1646364,73.8041796 59.6692273,74.6145511 60.2905,74.6145511" id="Fill-26" fill="#8F8F8B"></path>
                                <path d="M68.3971818,49.6578947 L60.2905,49.6578947 C59.6692273,49.6578947 59.1646364,50.1733746 59.1646364,50.8088235 L59.1646364,55.9721362 C59.1646364,56.6083591 59.6692273,57.123065 60.2905,57.123065 L68.3971818,57.123065 C69.0184545,57.123065 69.5230455,56.6083591 69.5230455,55.9721362 L69.5230455,50.8088235 C69.5230455,50.1733746 69.0184545,49.6578947 68.3971818,49.6578947" id="Fill-27" fill="#8F8F8B"></path>
                                <path d="M60.2905,6.46439628 L68.3971818,6.46439628 C69.0184545,6.46439628 69.5230455,6.20665635 69.5230455,5.88931889 L69.5230455,3.30727554 C69.5230455,2.98993808 69.0184545,2.73219814 68.3971818,2.73219814 L60.2905,2.73219814 C59.6692273,2.73219814 59.1646364,2.98993808 59.1646364,3.30727554 L59.1646364,5.88931889 C59.1646364,6.20665635 59.6692273,6.46439628 60.2905,6.46439628" id="Fill-28" fill="#8F8F8B"></path>
                            </g>
                            <circle id="Oval-4" stroke="#000000" stroke-width="3" fill="#9F8AB4" cx="97" cy="125" r="97"></circle>
                            <g id="Page-1" transform="translate(13.000000, 41.000000)">
                                <path d="M28.1035599,37.2084518 L19.3021143,29.7249191 C18.4305476,30.7790252 17.5727666,31.8688375 16.7540453,32.9648595 L25.912389,39.9935275 C26.6169948,39.0519732 27.3537674,38.1143 28.1035599,37.2084518" id="Fill-1" fill="#B6A7C5"></path>
                                <path d="M19.9967638,49.2873816 L9.96379427,43.776699 C9.31940524,44.9698996 8.69405845,46.199188 8.10679612,47.4300121 L18.4017867,52.4239482 C18.9067866,51.3666527 19.4430157,50.3108928 19.9967638,49.2873816" id="Fill-3" fill="#B6A7C5"></path>
                                <path d="M23.7799353,42.5193892 L14.1427627,36.210356 C13.3666876,37.3032946 12.6084981,38.4298277 11.8899676,39.5586005 L21.8428581,45.3980583 C22.4602966,44.4282992 23.1127285,43.4592866 23.7799353,42.5193892" id="Fill-5" fill="#B6A7C5"></path>
                                <path d="M33.5080906,32.051767 L25.1305734,23.7799353 C24.1167388,24.7369876 23.1172849,25.7279725 22.1585761,26.7258981 L30.9483381,34.5889968 C31.7736266,33.7291149 32.6348667,32.8754027 33.5080906,32.051767" id="Fill-7" fill="#B6A7C5"></path>
                                <path d="M17.4212305,111.333333 L6.48543689,115.763422 C7.02929749,116.995054 7.61432366,118.231992 8.22389084,119.440129 L18.9158576,114.493134 C18.3917882,113.454773 17.8890931,112.391401 17.4212305,111.333333" id="Fill-9" fill="#B6A7C5"></path>
                                <path d="M50.802589,19.3944124 L45.3340597,9.18770227 C44.0845195,9.80696344 42.8333874,10.4652633 41.6148867,11.1449962 L47.6039252,21.0776699 C48.6513105,20.4936201 49.7273477,19.927176 50.802589,19.3944124" id="Fill-11" fill="#B6A7C5"></path>
                                <path d="M44.3171521,23.3726187 L37.9956714,13.5113269 C36.8477197,14.2635589 35.7020917,15.0573204 34.5889968,15.8691042 L41.3868542,25.4012945 C42.3442552,24.7031291 43.3303164,24.0206353 44.3171521,23.3726187" id="Fill-13" fill="#B6A7C5"></path>
                                <path d="M15.1326861,62.4179464 L3.83445239,58.9093851 C3.4263293,60.2563793 3.04499422,61.6352551 2.70226537,63.0069575 L14.1604392,65.9352751 C14.4551072,64.7572529 14.7820784,63.5736515 15.1326861,62.4179464" id="Fill-15" fill="#B6A7C5"></path>
                                <path d="M11.9930639,90.7961165 L0.540453074,91.9867698 C0.676263882,93.3924575 0.847370153,94.8100916 1.04916813,96.2006472 L12.4304207,94.4214369 C12.2570126,93.226005 12.1096924,92.0066804 11.9930639,90.7961165" id="Fill-17" fill="#B6A7C5"></path>
                                <path d="M11.7971633,83.2297735 L0,83.2443338 C0.0015729551,84.6793404 0.0377509225,86.1289073 0.106960947,87.5533981 L11.8899676,86.9450976 C11.8301953,85.717981 11.7987362,84.4674059 11.7971633,83.2297735" id="Fill-19" fill="#B6A7C5"></path>
                                <path d="M13.2446406,97.8220065 L1.62135922,100.178472 C1.89804755,101.55506 2.21426278,102.944343 2.56051846,104.307443 L14.0517799,101.366226 C13.7537471,100.195927 13.4825925,99.0034128 13.2446406,97.8220065" id="Fill-21" fill="#B6A7C5"></path>
                                <path d="M56.7475728,16.967129 L52.4620178,5.94498382 C51.1828174,6.45600696 49.8973846,7.00889135 48.6407767,7.58626062 L53.4677716,18.3754045 C54.545977,17.8793883 55.6498911,17.4054873 56.7475728,16.967129" id="Fill-23" fill="#B6A7C5"></path>
                                <path d="M17.8349515,55.7026469 L6.94030824,51.3430421 C6.39738844,52.5701179 5.88047205,53.8264277 5.40453074,55.0752416 L16.5150811,58.9093851 C16.9248319,57.8359748 17.3684659,56.7573175 17.8349515,55.7026469" id="Fill-25" fill="#B6A7C5"></path>
                                <path d="M11.8899676,76.2995104 L0.299675319,75.1229773 C0.166141239,76.5372345 0.065990679,77.9788904 0,79.4084586 L11.6314394,79.987055 C11.6881138,78.7565304 11.7758426,77.5163356 11.8899676,76.2995104" id="Fill-27" fill="#B6A7C5"></path>
                                <path d="M12.9708738,69.3592559 L1.77722722,67.0161812 C1.51315792,68.3985873 1.27952888,69.8088966 1.08090615,71.2064501 L12.3727226,72.961165 C12.5431881,71.7597314 12.7440938,70.5479337 12.9708738,69.3592559" id="Fill-29" fill="#B6A7C5"></path>
                                <path d="M38.3721683,27.437528 L31.2162079,18.3754045 C30.1610989,19.2320155 29.1136245,20.1249956 28.1035599,21.029583 L35.6908781,29.7249191 C36.5604651,28.9449156 37.4628811,28.1757456 38.3721683,27.437528" id="Fill-31" fill="#B6A7C5"></path>
                                <path d="M148.064426,52.9644013 L158.352751,47.6319981 C157.764237,46.3333196 157.137606,45.0362705 156.49268,43.776699 L146.462783,49.6476383 C147.018517,50.7312283 147.55748,51.8465927 148.064426,52.9644013" id="Fill-33" fill="#B6A7C5"></path>
                                <path d="M144.623134,45.3980583 L154.569579,39.5418487 C153.851947,38.4233977 153.092284,37.3027098 152.311606,36.210356 L142.679612,42.5310955 C143.3521,43.47134 144.005908,44.4354447 144.623134,45.3980583" id="Fill-35" fill="#B6A7C5"></path>
                                <path d="M151.03094,58.368932 L162.135922,54.5053312 C161.655737,53.2641008 161.136915,52.0183813 160.593651,50.802589 L149.705502,55.1846785 C150.172283,56.2298858 150.618564,57.3005312 151.03094,58.368932" id="Fill-37" fill="#B6A7C5"></path>
                                <path d="M155.379977,79.987055 L167,79.373647 C166.930962,77.964488 166.824691,76.5345356 166.686616,75.1229773 L155.110032,76.3266006 C155.229491,77.5422202 155.320248,78.7738347 155.379977,79.987055" id="Fill-39" fill="#B6A7C5"></path>
                                <path d="M140.55566,39.9935275 L149.705502,32.949073 C148.880528,31.8536824 148.02182,30.7699202 147.152378,29.7249191 L138.355987,37.2166775 C139.10429,38.1159366 139.844926,39.0500807 140.55566,39.9935275" id="Fill-41" fill="#B6A7C5"></path>
                                <path d="M152.851317,65.9352751 L164.297735,62.9788009 C163.950301,61.6143964 163.565838,60.2444391 163.153802,58.9093851 L151.867314,62.4330391 C152.220263,63.5816773 152.55194,64.7596661 152.851317,65.9352751" id="Fill-43" fill="#B6A7C5"></path>
                                <path d="M154.097966,72.961165 L165.378641,71.178383 C165.176304,69.7901901 164.938215,68.3893196 164.6697,67.0161812 L153.488673,69.3837158 C153.719155,70.5643136 153.923774,71.7678896 154.097966,72.961165" id="Fill-45" fill="#B6A7C5"></path>
                                <path d="M78.3656958,12.0771541 L77.4173409,0.540453074 C75.933069,0.643039237 74.4336771,0.781106328 72.961165,0.951569049 L74.5311166,12.4304207 C75.7978297,12.2846404 77.0880627,12.1658564 78.3656958,12.0771541" id="Fill-47" fill="#B6A7C5"></path>
                                <path d="M113.01509,18.3754045 L117.81877,7.58027472 C116.554644,7.00492382 115.260085,6.45482838 113.971768,5.94498382 L109.711974,16.9713589 C110.817695,17.408594 111.928097,17.8813446 113.01509,18.3754045" id="Fill-49" fill="#B6A7C5"></path>
                                <path d="M63.7734628,14.6073597 L60.6557816,3.24271845 C59.353556,3.62054278 58.0390742,4.03851096 56.7475728,4.48717736 L60.422147,15.6731392 C61.5305707,15.2890177 62.6581449,14.9300846 63.7734628,14.6073597" id="Fill-51" fill="#B6A7C5"></path>
                                <path d="M136.058909,35.1294498 L144.841424,26.8629788 C143.873499,25.8115736 142.869578,24.7747263 141.858457,23.7799353 L133.491909,32.4758649 C134.361442,33.3307382 135.224574,34.2236238 136.058909,35.1294498" id="Fill-53" fill="#B6A7C5"></path>
                                <path d="M70.7993528,12.7899645 L68.8222418,1.08090615 C67.4981007,1.32505956 66.1633423,1.60726285 64.8543689,1.92038166 L67.3934435,13.5113269 C68.5173708,13.2425996 69.6632913,13.0000316 70.7993528,12.7899645" id="Fill-55" fill="#B6A7C5"></path>
                                <path d="M130.77492,29.7249191 L138.355987,21.0256863 C137.343191,20.1219 136.290647,19.2304838 135.228166,18.3754045 L128.087379,27.4488312 C129.000806,28.1833025 129.904297,28.949472 130.77492,29.7249191" id="Fill-57" fill="#B6A7C5"></path>
                                <path d="M119.409281,21.0776699 L125.385113,11.141065 C124.160936,10.4634302 122.901692,9.80568077 121.642448,9.18770227 L116.197411,19.4011738 C117.27813,19.9311974 118.358848,20.4956382 119.409281,21.0776699" id="Fill-59" fill="#B6A7C5"></path>
                                <path d="M125.626732,25.4012945 L132.411003,15.8628617 C131.293475,15.0526625 130.141824,14.2620332 128.990173,13.5113269 L122.682848,23.3777534 C123.67319,24.0227816 124.664308,24.7038186 125.626732,25.4012945" id="Fill-61" fill="#B6A7C5"></path>
                                <path d="M15.062161,104.847896 L3.78317152,108.127978 C4.19479049,109.381517 4.64654822,110.64172 5.12506511,111.873786 L16.2135922,108.063561 C15.8027603,107.006234 15.4155394,105.924474 15.062161,104.847896" id="Fill-63" fill="#B6A7C5"></path>
                                <path d="M125.385113,141.542002 L132.301882,150.786408 C133.43521,150.001169 134.563013,149.178718 135.653722,148.341079 L128.269731,139.436893 C127.330553,140.158341 126.359806,140.866119 125.385113,141.542002" id="Fill-65" fill="#B6A7C5"></path>
                                <path d="M20.3934246,117.81877 L10.2686084,123.415617 C10.9200608,124.623726 11.6115079,125.831057 12.3237215,127.006472 L22.1585761,120.902874 C21.5471184,119.893262 20.9533507,118.855627 20.3934246,117.81877" id="Fill-67" fill="#B6A7C5"></path>
                                <path d="M130.789644,137.577188 L138.543665,146.462783 C139.576597,145.540887 140.604841,144.577122 141.598706,143.596768 L133.415729,135.113269 C132.560942,135.956168 131.677247,136.785637 130.789644,137.577188" id="Fill-69" fill="#B6A7C5"></path>
                                <path d="M99.4433657,153.299317 L101.983533,164.838188 C103.296335,164.528907 104.623629,164.180176 105.928803,163.800676 L102.831019,152.407767 C101.710446,152.733617 100.570803,153.03343 99.4433657,153.299317" id="Fill-71" fill="#B6A7C5"></path>
                                <path d="M136.194175,132.435362 L144.786798,140.517799 C145.730768,139.486403 146.659109,138.421737 147.543689,137.353109 L138.57129,129.708738 C137.807831,130.628439 137.008427,131.545763 136.194175,132.435362" id="Fill-73" fill="#B6A7C5"></path>
                                <path d="M112.954693,149.054901 L117.824186,159.433657 C119.094728,158.879293 120.36527,158.288478 121.601942,157.67564 L116.203122,147.543689 C115.139742,148.069955 114.047217,148.578755 112.954693,149.054901" id="Fill-75" fill="#B6A7C5"></path>
                                <path d="M105.928803,151.480572 L109.621981,162.676375 C110.918958,162.230716 112.221343,161.747263 113.495146,161.237039 L109.255831,150.245955 C108.162786,150.682952 107.042704,151.099478 105.928803,151.480572" id="Fill-77" fill="#B6A7C5"></path>
                                <path d="M105.786397,3.24271845 L102.686084,14.6159512 C103.81438,14.9379094 104.948059,15.2937165 106.057127,15.6731392 L109.711974,4.47308686 C108.420626,4.0314767 107.10005,3.61820516 105.786397,3.24271845" id="Fill-79" fill="#B6A7C5"></path>
                                <path d="M140.517799,126.596127 L149.517112,133.491909 C150.324618,132.419029 151.114797,131.311933 151.867314,130.200274 L142.540328,123.763754 C141.891763,124.720298 141.211561,125.673039 140.517799,126.596127" id="Fill-81" fill="#B6A7C5"></path>
                                <path d="M155.198153,83.2297735 L155.198153,83.3975979 C155.198153,84.5848578 155.168255,85.7908517 155.110032,86.9827951 L166.897717,87.5533981 C166.965381,86.1725546 167,84.7745384 167,83.3975979 L167,83.2297735 L155.198153,83.2297735 Z" id="Fill-83" fill="#B6A7C5"></path>
                                <path d="M152.94822,101.37628 L164.444046,104.307443 C164.787205,102.949158 165.101109,101.557491 165.378641,100.172183 L153.75156,97.8220065 C153.512772,99.0133876 153.242356,100.209537 152.94822,101.37628" id="Fill-85" fill="#B6A7C5"></path>
                                <path d="M154.569579,94.4313544 L165.956073,96.2006472 C166.157156,94.7987922 166.326004,93.3761689 166.459547,91.9727162 L155.002444,90.7961165 C154.888855,92.002271 154.743032,93.2251999 154.569579,94.4313544" id="Fill-87" fill="#B6A7C5"></path>
                                <path d="M150.786408,107.533753 L161.876933,111.333333 C162.356085,110.09347 162.806127,108.829906 163.216828,107.576712 L151.937475,104.307443 C151.585782,105.38288 151.197896,106.468686 150.786408,107.533753" id="Fill-89" fill="#B6A7C5"></path>
                                <path d="M144.841424,120.912985 L154.67607,127.006472 C155.392435,125.821239 156.083435,124.611102 156.731392,123.409525 L146.610046,117.81877 C146.053557,118.851472 145.458635,119.891957 144.841424,120.912985" id="Fill-91" fill="#B6A7C5"></path>
                                <path d="M148.084142,114.502595 L158.772469,119.440129 C159.381648,118.229979 159.967884,116.98878 160.514563,115.75061 L149.580983,111.333333 C149.112627,112.396569 148.608669,113.462835 148.084142,114.502595" id="Fill-93" fill="#B6A7C5"></path>
                                <path d="M119.440129,145.610206 L125.162917,155.650485 C126.328811,154.966905 127.493943,154.242341 128.627832,153.497671 L122.415064,143.760518 C121.441962,144.400794 120.440665,145.022512 119.440129,145.610206" id="Fill-95" fill="#B6A7C5"></path>
                                <path d="M44.5803222,143.760518 L38.3721683,153.493873 C39.5054934,154.239025 40.6746158,154.964853 41.8444998,155.650485 L47.5598706,145.61103 C46.5560248,145.02202 45.5529406,144.399772 44.5803222,143.760518" id="Fill-97" fill="#B6A7C5"></path>
                                <path d="M50.7882241,147.543689 L45.3980583,157.672855 C46.6440618,158.289136 47.9191887,158.881129 49.1872315,159.433657 L54.0453074,149.057068 C52.9559398,148.583473 51.8602752,148.074207 50.7882241,147.543689" id="Fill-99" fill="#B6A7C5"></path>
                                <path d="M38.7272105,139.436893 L31.3462783,148.339292 C32.4382302,149.178281 33.5664753,150.001326 34.7002433,150.786408 L41.6148867,141.543098 C40.6389153,140.867351 39.6676777,140.158956 38.7272105,139.436893" id="Fill-101" fill="#B6A7C5"></path>
                                <path d="M52.9644013,161.238282 C54.2397492,161.747557 55.5459958,162.231645 56.8468352,162.676375 L60.5307443,151.480968 C59.4122079,151.099208 58.289809,150.684388 57.1944467,150.245955 L52.9644013,161.238282 Z" id="Fill-103" fill="#B6A7C5"></path>
                                <path d="M33.5824971,135.113269 L25.4012945,143.595978 C26.3894757,144.570012 27.4167154,145.534567 28.4564538,146.462783 L36.210356,137.578768 C35.3159153,136.780108 34.4316299,135.950638 33.5824971,135.113269" id="Fill-105" fill="#B6A7C5"></path>
                                <path d="M23.9208076,123.763754 L14.592233,130.205083 C15.3480133,131.319197 16.137702,132.424946 16.9402006,133.491909 L25.9417476,126.592767 C25.2515235,125.675619 24.5710951,124.723489 23.9208076,123.763754" id="Fill-107" fill="#B6A7C5"></path>
                                <path d="M28.4319633,129.708738 L19.4563107,137.352549 C20.345825,138.425851 21.2744216,139.490439 22.2163063,140.517799 L30.8058252,132.431202 C29.9960389,131.547213 29.1971957,130.63154 28.4319633,129.708738" id="Fill-109" fill="#B6A7C5"></path>
                                <path d="M61.0711974,163.804621 C62.373632,164.180965 63.7020389,164.528118 65.0205153,164.838188 L67.5566343,153.296161 C66.4222558,153.030274 65.2794744,152.73125 64.1596098,152.407767 L61.0711974,163.804621 Z" id="Fill-111" fill="#B6A7C5"></path>
                                <path d="M97.6146572,1.08090615 L95.6601942,12.8000429 C96.8032843,13.0062122 97.9562878,13.2456857 99.088702,13.5113269 L101.605178,1.90796208 C100.28746,1.59870819 98.9453392,1.32037968 97.6146572,1.08090615" id="Fill-113" fill="#B6A7C5"></path>
                                <path d="M89.547889,0.540453074 L88.6343042,12.0877303 C89.921782,12.1726311 91.2219485,12.287633 92.4950458,12.4304207 L94.038835,0.938714892 C92.5559515,0.772772468 91.045153,0.639246704 89.547889,0.540453074" id="Fill-115" fill="#B6A7C5"></path>
                                <path d="M92.4174757,154.548572 L93.8226082,165.919094 C95.1602883,165.751038 96.5063053,165.547079 97.8220065,165.314856 L95.853002,154.029126 C94.7245002,154.229266 93.5687143,154.404197 92.4174757,154.548572" id="Fill-117" fill="#B6A7C5"></path>
                                <path d="M85.3915858,155.288101 L85.6790689,167 C87.0262193,166.964855 88.3839891,166.895346 89.7152104,166.793035 L88.8709658,155.110032 C87.724826,155.198286 86.5536547,155.258423 85.3915858,155.288101" id="Fill-119" fill="#B6A7C5"></path>
                                <path d="M69.1779935,165.319324 C70.5069018,165.552355 71.8563249,165.754062 73.1882724,165.919094 L74.5825243,154.544852 C73.4390098,154.403505 72.280299,154.229304 71.1383041,154.029126 L69.1779935,165.319324 Z" id="Fill-124" fill="#B6A7C5"></path>
                                <path d="M77.2847896,166.798435 C78.8027794,166.899218 80.3361888,166.966406 81.8387588,167 L82.1488673,155.284253 C80.8518942,155.256128 79.5283647,155.196752 78.2151152,155.110032 L77.2847896,166.798435 Z" id="Fill-126" fill="#B6A7C5"></path>
                                <mask id="mask-4" fill="white">
                                    <use xlink:href="#path-3"></use>
                                </mask>
                                <g id="Clip-122"></g>
                                <path d="M81.2055291,0.037763968 L81.510632,11.761795 C82.6937787,11.7305205 83.8877943,11.7289568 85.0740465,11.756322 L85.3457665,0.0315090665 C83.968534,-0.000547303885 82.5804327,0.00179828419 81.2055291,0.037763968" id="Fill-121" fill="#B6A7C5"></path>
                                <mask id="mask-6" fill="white">
                                    <use xlink:href="#path-5"></use>
                                </mask>
                                <use id="Clip-127" fill="#B6A7C5" xlink:href="#path-5"></use>
                            </g>
                            <text id="163059A" font-family="Raleway-ExtraBold, Raleway" font-size="24" font-weight="600" fill="#FFFFFF">
                                <tspan x="47.488" y="117">163059A</tspan>
                            </text>
                            <text id="EXP-2021.10" font-family="Raleway-Medium, Raleway" font-size="14" font-weight="400" fill="#FFFFFF">
                                <tspan x="58.297" y="139">EXP 2021.10</tspan>
                            </text>
                            <path d="M96.5,223.5 L96.5,282.5" id="Line-5" stroke="#272A29" stroke-width="2" stroke-linecap="square"></path>
                            <path d="M336.5,283.5 L96.5,283.25" id="Line-5" stroke="#272A29" stroke-width="2" stroke-linecap="square"></path>
                            <path d="M336.201389,249.5 L336.5,282.5" id="Line-5" stroke="#272A29" stroke-width="2" stroke-linecap="square"></path>
                        </g>
                    </g>
                </g>
            </g>
        </g>
    </g>
</svg>