<?xml version="1.0" encoding="UTF-8"?>
<svg width="150px" height="69px" viewBox="0 0 150 69" version="1.1" xmlns="http://www.w3.org/2000/svg" xmlns:xlink="http://www.w3.org/1999/xlink">
    <!-- Generator: Sketch 53.2 (72643) - https://sketchapp.com -->
    <title>Group 40 Copy 4</title>
    <desc>Created with Sketch.</desc>
    <defs>
        <polygon id="path-1" points="0 0 149.297349 0 149.297349 68.0859375 0 68.0859375"></polygon>
    </defs>
    <g id="Page-1" stroke="none" stroke-width="1" fill="none" fill-rule="evenodd">
        <g id="Product-Detail-/-Lavender" transform="translate(-310.000000, -5797.000000)">
            <g id="Group-52" transform="translate(60.000000, 5630.000000)">
                <g id="Group-40" transform="translate(0.000000, 127.000000)">
                    <g id="Group-39" transform="translate(60.000000, 40.000000)">
                        <g id="Group-40-Copy-4" transform="translate(190.000000, 0.000000)">
                            <mask id="mask-2" fill="white">
                                <use xlink:href="#path-1"></use>
                            </mask>
                            <g id="Clip-2"></g>
                            <path d="M118.558696,26.0859375 L121.386957,26.0859375 L121.386957,21.7109375 L118.558696,21.7109375 L118.558696,26.0859375 Z M129.645652,26.0859375 L132.471739,26.0859375 L132.471739,21.7109375 L129.645652,21.7109375 L129.645652,26.0859375 Z M118.558696,34.3984375 L121.386957,34.3984375 L121.386957,30.0234375 L118.558696,30.0234375 L118.558696,34.3984375 Z M129.645652,34.3984375 L132.471739,34.3984375 L132.471739,30.0234375 L129.645652,30.0234375 L129.645652,34.3984375 Z M67.9065217,42.4921875 L70.7326087,42.4921875 L70.7326087,38.1171875 L67.9065217,38.1171875 L67.9065217,42.4921875 Z M78.9956522,42.4921875 L81.8217391,42.4921875 L81.8217391,38.1171875 L78.9956522,38.1171875 L78.9956522,42.4921875 Z M118.558696,42.4921875 L121.386957,42.4921875 L121.386957,38.1171875 L118.558696,38.1171875 L118.558696,42.4921875 Z M129.645652,42.4921875 L132.471739,42.4921875 L132.471739,38.1171875 L129.645652,38.1171875 L129.645652,42.4921875 Z M67.9065217,50.5859375 L70.7326087,50.5859375 L70.7326087,46.2109375 L67.9065217,46.2109375 L67.9065217,50.5859375 Z M78.9956522,50.5859375 L81.8217391,50.5859375 L81.8217391,46.2109375 L78.9956522,46.2109375 L78.9956522,50.5859375 Z M118.558696,50.5859375 L121.386957,50.5859375 L121.386957,46.2109375 L118.558696,46.2109375 L118.558696,50.5859375 Z M129.645652,50.5859375 L132.471739,50.5859375 L132.471739,46.2109375 L129.645652,46.2109375 L129.645652,50.5859375 Z M17.2543478,58.6796875 L20.0804348,58.6796875 L20.0804348,54.3046875 L17.2543478,54.3046875 L17.2543478,58.6796875 Z M28.5586957,58.6796875 L31.3847826,58.6796875 L31.3847826,54.3046875 L28.5586957,54.3046875 L28.5586957,58.6796875 Z M67.9065217,58.6796875 L70.7326087,58.6796875 L70.7326087,54.3046875 L67.9065217,54.3046875 L67.9065217,58.6796875 Z M78.9956522,58.6796875 L81.8217391,58.6796875 L81.8217391,54.3046875 L78.9956522,54.3046875 L78.9956522,58.6796875 Z M118.558696,58.6796875 L121.386957,58.6796875 L121.386957,54.3046875 L118.558696,54.3046875 L118.558696,58.6796875 Z M129.645652,58.6796875 L132.471739,58.6796875 L132.471739,54.3046875 L129.645652,54.3046875 L129.645652,58.6796875 Z M5.0826087,46.8671875 L6.38478261,48.6171875 L22.473913,39.2109375 C23.5608696,38.5546875 24.8630435,38.5546875 26.1673913,39.2109375 L42.0391304,48.3984375 L43.5586957,46.2109375 L24.4282609,35.7109375 L5.0826087,46.8671875 Z M11.1695652,63.7109375 L37.6913043,63.7109375 L37.6913043,51.0234375 L24.4282609,43.3671875 L11.1695652,51.0234375 L11.1695652,63.7109375 Z M41.8195652,68.0859375 L6.60217391,68.0859375 L6.60217391,53.2109375 C5.29782609,53.4296875 3.99565217,52.7734375 3.12391304,51.6796875 L0.734782609,48.6171875 C0.0804347826,47.7421875 -0.136956522,46.8671875 0.0804347826,45.7734375 C0.3,44.8984375 0.95,44.0234375 1.82173913,43.3671875 L22.2543478,31.5546875 C23.3413043,30.8984375 24.6478261,30.8984375 25.7347826,31.5546875 L46.1673913,42.7109375 C47.0391304,43.1484375 47.6891304,44.0234375 47.9086957,44.8984375 C48.126087,45.7734375 47.9086957,46.8671875 47.473913,47.7421875 L45.0804348,51.4609375 C44.2130435,52.5546875 42.9065217,53.2109375 41.6043478,52.9921875 L41.6043478,68.0859375 L41.8195652,68.0859375 Z M55.7347826,33.3046875 L57.0369565,35.0546875 L73.126087,25.6484375 C74.2130435,24.9921875 75.5152174,24.9921875 76.8217391,25.6484375 L92.6913043,34.8359375 L94.2130435,32.6484375 L75.0804348,22.1484375 L55.7347826,33.3046875 Z M61.6043478,63.7109375 L88.123913,63.7109375 L88.123913,37.4609375 L74.8630435,29.8046875 L61.6043478,37.4609375 L61.6043478,63.7109375 Z M92.4717391,68.0859375 L57.2565217,68.0859375 L57.2565217,39.6484375 C55.95,39.8671875 54.6478261,39.2109375 53.776087,38.1171875 L51.3869565,35.0546875 C50.7347826,34.1796875 50.5152174,33.3046875 50.7347826,32.2109375 C50.95,31.3359375 51.6021739,30.4609375 52.473913,29.8046875 L72.9086957,17.9921875 C73.9956522,17.3359375 75.3,17.3359375 76.3869565,17.9921875 L96.8217391,29.1484375 C97.6891304,29.5859375 98.3413043,30.4609375 98.5608696,31.3359375 C98.776087,32.2109375 98.5608696,33.3046875 98.126087,34.1796875 L95.7347826,37.8984375 C94.8652174,38.9921875 93.5608696,39.6484375 92.2543478,39.4296875 L92.2543478,68.0859375 L92.4717391,68.0859375 Z M106.384783,15.8046875 L107.68913,17.5546875 L123.776087,8.1484375 C124.863043,7.4921875 126.167391,7.4921875 127.473913,8.1484375 L143.341304,17.3359375 L144.865217,15.1484375 L125.732609,4.6484375 L106.384783,15.8046875 Z M112.256522,63.7109375 L138.778261,63.7109375 L138.778261,19.7421875 L125.515217,12.0859375 L112.256522,19.7421875 L112.256522,63.7109375 Z M143.126087,68.0859375 L107.908696,68.0859375 L107.908696,22.1484375 C106.602174,22.3671875 105.297826,21.7109375 104.428261,20.6171875 L102.036957,17.5546875 C101.386957,16.6796875 101.167391,15.8046875 101.386957,14.7109375 C101.602174,13.8359375 102.254348,12.9609375 103.123913,12.3046875 L123.56087,0.4921875 C124.647826,-0.1640625 125.95,-0.1640625 127.036957,0.4921875 L147.473913,11.6484375 C148.341304,12.0859375 148.993478,12.9609375 149.213043,13.8359375 C149.428261,14.7109375 149.213043,15.8046875 148.776087,16.6796875 L146.386957,20.3984375 C145.515217,21.4921875 144.213043,22.1484375 142.906522,21.9296875 L142.906522,68.0859375 L143.126087,68.0859375 Z" id="Fill-1" fill="#B298C7" mask="url(#mask-2)"></path>
                        </g>
                    </g>
                </g>
            </g>
        </g>
    </g>
</svg>