<?xml version="1.0" encoding="UTF-8"?>
<svg width="1440px" height="238px" viewBox="0 0 1440 238" version="1.1" xmlns="http://www.w3.org/2000/svg" xmlns:xlink="http://www.w3.org/1999/xlink">
    <!-- Generator: Sketch 53.2 (72643) - https://sketchapp.com -->
    <title>Group 53</title>
    <desc>Created with Sketch.</desc>
    <g id="Page-1" stroke="none" stroke-width="1" fill="none" fill-rule="evenodd" fill-opacity="0.5">
        <g id="Product-Detail-/-Lavender" transform="translate(0.000000, -5174.000000)" fill="#B298C7">
            <g id="Group-51" transform="translate(0.000000, 3930.000000)">
                <g id="Fill-1-+-Fill-1-Copy-Mask">
                    <g id="Group-53" transform="translate(-101.000000, 1201.402867)">
                        <path d="M218.047776,38.4782991 C217.678643,37.1689918 217.36831,35.8716144 217.129843,34.6279216 C217.312776,34.4966926 217.528376,34.4131833 217.688443,34.2372171 C218.165376,33.7003713 218.619443,32.9249273 218.97551,31.9049203 C219.01471,31.9645698 219.047376,32.0272018 219.086576,32.0838689 C218.81871,33.8316003 218.47571,35.9730186 218.047776,38.4782991 M224.779848,51.6161345 C226.226291,50.6084945 227.498882,49.5910398 228.475927,48.6161154 C228.336846,49.0806767 228.18038,49.5354233 228.05173,49.9803553 C225.760369,53.8702383 225.527408,56.4678557 225.927266,58.1199927 C226.055916,58.6467136 226.334079,59.0949171 226.678304,59.4776895 C225.663012,61.3948227 224.160937,63.7209008 221.942594,66.1451256 C223.048288,60.8288431 223.994039,55.9607641 224.779848,51.6161345 M227.333918,40.972107 C227.395984,41.9613704 227.588718,42.7632267 227.853318,43.4053263 C227.997051,43.7524901 228.212651,44.0535703 228.451118,44.3300725 C227.921918,44.984461 227.235918,45.6972222 226.419251,46.4499227 C226.758984,44.4744681 227.066051,42.6464814 227.333918,40.972107 M228.071261,31.736287 C228.211728,31.5686659 228.355461,31.3846113 228.489395,31.1906966 C228.424061,31.6639799 228.365261,32.1208297 228.303195,32.5776795 C228.299928,32.5711062 228.303195,32.5546727 228.303195,32.5546727 C228.077795,33.1627103 227.885061,33.7411676 227.721728,34.2966181 C227.855661,33.3533382 227.969995,32.498799 228.071261,31.736287 M228.636866,58.1345802 C229.001254,58.101415 229.348124,58.0848324 229.691489,57.9355888 C231.345252,57.2225363 233.419462,55.4680954 235.36053,51.3489733 C240.388387,44.9580327 247.003435,35.7380976 249.38247,28.8165133 C250.048179,26.8862967 250.177818,24.9361809 249.760873,23.2779192 C249.14772,20.8071093 247.413372,19.3445224 245.237554,19.1488476 C247.304756,14.399586 248.990052,9.68348976 249.683791,5.71029472 C250.097232,3.33234744 249.876497,1.02404714 249.070638,-0.853105103 C247.802286,-3.85455879 245.23405,-5.30056299 242.410041,-4.89926366 C242.441575,-5.03524112 242.480116,-5.17785163 242.497634,-5.31382909 C242.904067,-7.69177637 242.686836,-10.0000767 241.887985,-11.8772289 C240.164148,-15.9300205 236.103321,-17.1670837 232.20717,-14.8156686 C230.402747,-13.727849 228.812052,-11.9734081 227.68385,-9.81766787 C225.515039,-5.6421649 223.808721,0.062255357 222.48431,5.89933655 C222.564896,3.36219615 222.501829,0.9610332 222.189997,-1.10847741 C221.895683,-3.14150625 221.100336,-4.95896108 219.954615,-6.29220349 C217.470468,-9.17757885 213.837097,-9.21074409 211.300394,-6.37511658 C210.126643,-5.06177331 209.299762,-3.25426805 208.9599,-1.23118877 C207.744105,6.02868097 209.229687,17.1954153 210.645196,25.1219062 C210.396431,29.6622268 211.419521,32.1496193 212.561738,33.4994443 C213.087298,34.1229507 213.812571,34.4347039 214.569377,34.580631 C215.1545,37.5787681 216.030434,40.8322776 217.330319,43.9265939 C216.349273,49.5248854 215.080922,56.2209462 213.486723,63.8124683 C210.487528,58.7879353 208.809239,53.2427082 208.076959,50.3407502 C208.521933,50.0389466 208.907344,49.6509133 209.198154,49.1667009 C210.259785,47.4023105 210.974547,44.3411594 209.807803,39.1076854 L209.8043,39.1209515 C209.940945,29.6688598 209.527505,16.4491975 206.731526,8.22421946 C205.953697,5.93250179 204.643301,3.97575298 203.02808,2.65577666 C199.534858,-0.206383039 195.319867,0.453605119 192.989884,4.22780876 C191.914238,5.97561659 191.339626,8.22753598 191.388678,10.635332 C191.542842,19.278192 195.666736,31.9307288 199.009298,40.8355941 C199.009298,40.8256446 198.995283,40.8057454 198.995283,40.8057454 C199.682014,46.1188159 201.398844,48.7952503 203.014065,50.1450753 C203.613203,50.6458704 204.327965,50.9178253 205.056741,51.0272706 C205.767999,53.9060129 207.316649,59.1394868 210.165184,64.2170841 C210.879946,65.5038952 211.699819,66.7575411 212.596775,67.9747052 C209.107057,84.0034628 204.215845,103.531153 197.513204,124.826549 C196.448069,121.476861 195.947035,118.352696 195.740315,116.584989 C196.020613,116.399263 196.307919,116.223488 196.525151,115.948216 C197.572767,114.598391 198.462715,112.15743 198.049275,107.772986 C199.110906,100.062069 200.119981,89.207088 198.662428,82.2357558 C198.263002,80.2889566 197.387069,78.5709974 196.199304,77.3438838 C193.641578,74.6873485 190.127334,74.8432251 187.839396,77.7219675 C186.774261,79.0485768 186.084026,80.8361829 185.866794,82.8128309 C185.127507,89.8936084 187.212228,100.605979 189.037673,108.187551 L189.034169,108.174285 C189.055192,112.585262 190.186897,114.923411 191.364152,116.177056 C191.72854,116.56509 192.177018,116.830411 192.653526,117.002871 C192.968862,119.616291 193.83078,124.717104 196.020613,129.536013 C195.29534,131.7614 194.549045,134.013319 193.785231,136.271872 C189.030665,131.343518 185.908839,124.819916 184.559902,121.612838 C184.945313,121.254654 185.274663,120.816873 185.491895,120.302811 C186.273227,118.409077 186.518489,115.284912 184.566909,110.257062 L184.566909,110.276961 C183.270528,100.907783 180.85996,87.8738456 176.844681,80.1098643 C175.72699,77.947491 174.132792,76.1864171 172.331873,75.0952809 C168.446233,72.7405493 164.374895,73.9643464 162.640547,78.017138 C161.838192,79.8976068 161.613953,82.1992741 162.020386,84.5772213 C163.481443,93.1073195 169.479834,105.053437 174.139799,113.414392 L174.125784,113.407759 C175.60436,118.571586 177.710103,120.989332 179.511022,122.103684 C180.176732,122.518249 180.923027,122.697341 181.662314,122.703974 C182.299994,124.229575 183.288047,126.425114 184.672021,128.892607 C186.602578,132.345108 189.317972,136.228757 192.7236,139.399353 C187.688736,154.108135 181.784945,169.433789 174.917628,184.84899 C174.038191,181.545733 173.880523,178.305489 173.866508,176.759989 C173.968116,176.680393 174.094251,176.647228 174.192355,176.544415 C175.113837,175.572674 176.000282,173.738637 176.0178,170.309351 C176.0178,170.309351 176.007289,170.329251 176.007289,170.335884 C177.457835,164.419206 179.097582,156.051617 178.519466,150.50639 C178.368805,148.97084 177.818719,147.571267 176.998846,146.529879 C175.225957,144.284592 172.47903,144.158564 170.467887,146.224758 C169.542901,147.183234 168.85617,148.519793 168.53733,150.03876 C167.391609,155.491125 168.165934,163.94826 168.989311,169.981016 L168.982304,169.974383 C168.642442,173.400351 169.343188,175.307352 170.159558,176.35869 C170.32073,176.567631 170.548473,176.693659 170.755193,176.842903 C170.776215,179.104771 171.070529,184.324979 173.071161,188.94158 C171.84135,191.634597 170.58351,194.324297 169.290632,197.020631 C166.326474,192.384131 164.732276,187.01468 164.073574,184.364778 C164.38891,184.116038 164.672712,183.827501 164.88644,183.469316 C165.82544,181.923816 166.452609,179.257332 165.447037,174.677213 C165.447037,174.677213 165.447037,174.697112 165.436526,174.703745 C165.569668,166.442285 165.243821,154.864302 162.819237,147.66413 C162.136009,145.654316 160.993792,143.939674 159.585291,142.782207 C156.540547,140.271599 152.847613,140.845357 150.80844,144.141982 C149.858928,145.664266 149.35439,147.630964 149.389428,149.74359 C149.501547,157.285364 153.082363,168.342653 155.983454,176.1398 C156.575585,180.792882 158.071679,183.127714 159.476676,184.318346 C159.939169,184.70638 160.485751,184.941853 161.049852,185.061248 C161.663005,187.581805 163.022454,192.268053 165.56266,196.798424 C166.210851,197.952574 166.964154,199.080192 167.766509,200.164695 C166.032161,203.726641 164.234745,207.285271 162.388278,210.837267 C162.332218,210.8439 162.293677,210.857167 162.237618,210.8638 L162.272655,211.062791 C154.788681,225.396805 146.404247,239.551727 136.996723,253.109675 C136.737447,250.091638 136.863582,247.401938 136.996723,245.859755 C137.248992,245.74036 137.51878,245.650814 137.75353,245.451822 C138.98334,244.373952 140.276218,242.271276 140.717688,238.122306 C140.717688,238.122306 140.707177,238.128939 140.707177,238.135572 C143.163294,231.15429 146.151978,221.254467 146.130956,214.521925 C146.127452,212.651406 145.629922,210.903598 144.771507,209.560406 C142.893506,206.665081 139.596493,206.220667 136.93716,208.495802 C135.696838,209.550456 134.715793,211.086007 134.137677,212.883562 C132.098504,219.337517 132.014415,229.651905 132.277195,237.001321 C132.280699,237.001321 132.270187,236.974788 132.270187,236.974788 C131.460825,241.060745 132.059963,243.435376 132.921882,244.788518 C133.17415,245.183184 133.507005,245.488304 133.874897,245.733727 C133.692703,248.002229 133.517516,252.346874 134.375931,256.847397 C133.328315,258.329883 132.26318,259.792469 131.187534,261.25174 C130.89322,261.64309 130.616425,262.047705 130.336127,262.442372 C128.247902,258.154107 127.196782,253.673484 126.748304,251.312119 C127.077655,251.083279 127.375472,250.814641 127.610222,250.466406 C128.629808,248.967337 129.397126,246.324068 128.654335,241.700834 L128.643823,241.733999 C129.239458,233.492439 129.55129,221.911139 127.522629,214.601521 C126.958528,212.558543 125.910912,210.790836 124.568982,209.557089 C121.660883,206.907187 117.943422,207.29522 115.725559,210.485716 C114.698965,211.954936 114.089316,213.895102 113.994715,216.011044 C113.700401,223.549502 116.668063,234.77925 119.138195,242.709057 L119.131188,242.695791 C119.460539,247.358823 120.816483,249.779885 122.151406,251.033531 C122.603387,251.441464 123.125444,251.703469 123.686041,251.849396 C124.218608,254.67839 125.525501,260.180503 128.317976,265.241517 C119.400975,277.651948 110.939459,290.944574 103,305 L111.258299,305 C118.36387,292.662533 125.861859,280.925357 133.738252,269.914499 C140.64411,270.256101 147.826763,267.665896 150.896033,266.382401 C151.260421,266.65104 151.687877,266.850031 152.160881,266.932944 C153.807635,267.254647 156.365361,267.012541 160.177422,264.936397 C160.177422,264.936397 160.131874,264.949663 160.117859,264.94303 C167.545773,262.757441 177.811712,259.288358 183.58236,255.335062 C185.197581,254.237293 186.402866,252.83772 187.044049,251.395032 C188.438535,248.254285 186.903899,245.465088 183.396662,244.742086 C181.774434,244.410434 179.868403,244.543095 177.99741,245.163285 C171.266738,247.36214 162.381271,253.298717 156.221708,257.789289 C156.225211,257.782656 156.246234,257.772707 156.246234,257.772707 C152.251978,259.533781 150.570186,261.377768 149.900973,262.830405 C149.781846,263.099043 149.788853,263.367682 149.743305,263.642953 C147.269669,264.681025 141.548073,266.777068 135.82998,266.986009 C136.260939,266.389034 136.684891,265.778794 137.11585,265.195086 C138.734575,262.999548 140.279721,260.767527 141.852898,258.538824 C147.150542,256.326702 151.617802,252.701742 153.692012,250.857755 C154.122971,250.9871 154.592472,251.036848 155.079491,250.967201 C156.729749,250.75826 159.059731,249.726821 161.922282,246.559541 C161.922282,246.559541 161.887244,246.582757 161.880237,246.582757 C168.109874,242.178414 176.550368,235.664762 180.604187,230.109585 C181.728885,228.570718 182.384084,226.875975 182.475181,225.303943 C182.692412,221.914456 180.257317,219.765348 176.701028,220.189863 C175.043762,220.388855 173.302407,221.115173 171.757261,222.28259 C166.189829,226.484625 159.904131,234.885379 155.685636,241.060745 L155.68914,241.050796 C152.549795,243.959387 151.621306,246.237838 151.505683,247.80987 C151.481157,248.105041 151.575757,248.367046 151.642328,248.635685 C150.426533,249.713555 148.233196,251.547592 145.49678,253.272184 C154.631013,239.737452 162.780696,225.718508 170.008898,211.669715 C174.826531,209.68975 178.876847,206.980151 180.993101,205.421385 C181.50815,205.67344 182.08977,205.816051 182.716938,205.796152 C184.591435,205.719872 187.320844,204.797878 190.873629,201.551002 C190.873629,201.551002 190.807058,201.580851 190.796547,201.587484 C198.259499,197.292586 208.46237,190.85853 213.630376,185.051298 C215.056396,183.432835 215.977878,181.602114 216.265184,179.857622 C216.888848,176.086735 214.418716,173.440149 210.371904,173.559544 C208.507918,173.619242 206.482761,174.256014 204.611767,175.400215 C197.919637,179.522653 189.941636,188.284908 184.524865,194.762078 L184.524865,194.755445 C180.69178,197.707151 179.388392,200.154746 179.080063,201.909186 C179.002981,202.313802 179.031011,202.708469 179.118604,203.083236 C177.661051,204.144523 175.187416,205.819368 172.184716,207.384767 C175.695457,200.390219 178.974951,193.402304 182.054733,186.48072 C185.236122,184.454324 187.772825,182.255469 189.18483,180.925543 C189.629804,181.058204 190.102808,181.091369 190.59333,181.011772 C192.257604,180.7564 194.573571,179.658631 197.366047,176.391855 L197.348528,176.398488 C203.501084,171.80842 211.801428,165.049345 215.715098,159.368141 C216.797751,157.782842 217.407401,156.064883 217.470468,154.479585 C217.57558,151.0503 215.070411,148.947624 211.50361,149.468318 C209.842841,149.717058 208.111997,150.493124 206.584369,151.706972 C201.10453,156.0682 195.004531,164.697794 190.922681,171.022404 L190.933193,170.995872 C187.856915,174.017225 186.984485,176.328841 186.914411,177.920773 C186.896892,178.215943 187.002004,178.477949 187.075582,178.75322 C186.44491,179.346878 185.547955,180.14616 184.437271,181.051571 C190.130838,167.818642 195.074605,154.870935 199.317626,142.63628 C204.545196,140.271599 208.90384,136.543827 210.928998,134.643459 C211.366965,134.769487 211.839969,134.805968 212.326988,134.729688 C213.998268,134.470999 216.31774,133.369914 219.110215,130.116404 C219.110215,130.116404 219.06817,130.13962 219.050652,130.146253 C225.203207,125.552868 233.542092,118.777211 237.459266,113.08274 C238.548927,111.500758 239.151569,109.779483 239.214636,108.190868 C239.319748,104.771532 236.811075,102.66554 233.244275,103.189551 C231.587009,103.434973 229.863172,104.21104 228.328537,105.424887 C222.855706,109.779483 216.752203,118.402444 212.673857,124.727054 C209.601083,127.738457 208.72515,130.046757 208.651571,131.638688 C208.64106,131.933859 208.742669,132.192548 208.816247,132.467819 C207.330664,133.864076 204.345483,136.470863 200.687586,138.580172 C201.577534,135.926953 202.453467,133.310216 203.283852,130.736594 C205.400107,128.269101 206.878682,125.914369 207.887758,123.950987 C208.241635,123.914505 208.595512,123.894606 208.942381,123.748679 C210.599647,123.035627 212.673857,121.281186 214.611422,117.16538 C214.611422,117.16538 214.590399,117.188596 214.586896,117.191913 C219.614753,110.797655 226.24732,101.561138 228.629858,94.6296038 C229.299071,92.7027037 229.425206,90.7525879 229.011765,89.0910097 C228.121817,85.5058479 224.891375,83.9835636 221.328078,85.4726827 C219.688331,86.165836 218.122162,87.432748 216.895856,89.1009593 C215.886781,90.474 214.902232,92.0957799 213.970239,93.8634869 C216.244161,84.9752041 218.188733,76.6639965 219.810962,69.1155892 C224.358807,65.2219907 227.067193,61.2023644 228.636866,58.1345802" id="Fill-1" transform="translate(176.500000, 144.500000) rotate(120.000000) translate(-176.500000, -144.500000) "></path>
                        <path d="M1507.22841,38.9233945 C1506.88941,37.5291113 1506.60441,36.1475324 1506.38541,34.8231222 C1506.55341,34.6833763 1506.75141,34.5944471 1506.89841,34.4070605 C1507.33641,33.8353727 1507.75341,33.0096014 1508.08041,31.9233945 C1508.11641,31.9869153 1508.14641,32.0536122 1508.18241,32.1139571 C1507.93641,33.9751186 1507.62141,36.2555179 1507.22841,38.9233945 M1513.17613,51.0255999 C1514.72589,49.9908854 1516.08938,48.9460926 1517.13621,47.9449728 C1516.9872,48.4220164 1516.81955,48.8889817 1516.68171,49.3458686 C1514.22668,53.3402695 1513.97708,56.0076827 1514.4055,57.7042113 C1514.54334,58.2450848 1514.84137,58.7053311 1515.21019,59.0983882 C1514.12237,61.0670332 1512.51301,63.4556111 1510.13621,65.9449728 C1511.32088,60.4858462 1512.33419,55.4869661 1513.17613,51.0255999 M1515.40373,39.7285341 C1515.46073,40.8121012 1515.63773,41.6903962 1515.88073,42.3937052 C1516.01273,42.7739632 1516.21073,43.1037445 1516.42973,43.4066048 C1515.94373,44.1233743 1515.31373,44.904081 1514.56373,45.7285341 C1514.87573,43.5647652 1515.15773,41.5625218 1515.40373,39.7285341 M1516.65534,32.1811189 C1516.78434,32.0281189 1516.91634,31.8601189 1517.03934,31.6831189 C1516.97934,32.1151189 1516.92534,32.5321189 1516.86834,32.9491189 C1516.86534,32.9431189 1516.86834,32.9281189 1516.86834,32.9281189 C1516.66134,33.4831189 1516.48434,34.0111189 1516.33434,34.5181189 C1516.45734,33.6571189 1516.56234,32.8771189 1516.65534,32.1811189 M1516.63687,58.1345802 C1517.00125,58.101415 1517.34812,58.0848324 1517.69149,57.9355888 C1519.34525,57.2225363 1521.41946,55.4680954 1523.36053,51.3489733 C1528.38839,44.9580327 1535.00344,35.7380976 1537.38247,28.8165133 C1538.04818,26.8862967 1538.17782,24.9361809 1537.76087,23.2779192 C1537.14772,20.8071093 1535.41337,19.3445224 1533.23755,19.1488476 C1535.30476,14.399586 1536.99005,9.68348976 1537.68379,5.71029472 C1538.09723,3.33234744 1537.8765,1.02404714 1537.07064,-0.853105103 C1535.80229,-3.85455879 1533.23405,-5.30056299 1530.41004,-4.89926366 C1530.44157,-5.03524112 1530.48012,-5.17785163 1530.49763,-5.31382909 C1530.90407,-7.69177637 1530.68684,-10.0000767 1529.88798,-11.8772289 C1528.16415,-15.9300205 1524.10332,-17.1670837 1520.20717,-14.8156686 C1518.40275,-13.727849 1516.81205,-11.9734081 1515.68385,-9.81766787 C1513.51504,-5.6421649 1511.80872,0.062255357 1510.48431,5.89933655 C1510.5649,3.36219615 1510.50183,0.9610332 1510.19,-1.10847741 C1509.89568,-3.14150625 1509.10034,-4.95896108 1507.95461,-6.29220349 C1505.47047,-9.17757885 1501.8371,-9.21074409 1499.30039,-6.37511658 C1498.12664,-5.06177331 1497.29976,-3.25426805 1496.9599,-1.23118877 C1495.7441,6.02868097 1497.22969,17.1954153 1498.6452,25.1219062 C1498.39643,29.6622268 1499.41952,32.1496193 1500.56174,33.4994443 C1501.0873,34.1229507 1501.81257,34.4347039 1502.56938,34.580631 C1503.1545,37.5787681 1504.03043,40.8322776 1505.33032,43.9265939 C1504.34927,49.5248854 1503.08092,56.2209462 1501.48672,63.8124683 C1498.48753,58.7879353 1496.80924,53.2427082 1496.07696,50.3407502 C1496.52193,50.0389466 1496.90734,49.6509133 1497.19815,49.1667009 C1498.25979,47.4023105 1498.97455,44.3411594 1497.8078,39.1076854 L1497.8043,39.1209515 C1497.94095,29.6688598 1497.5275,16.4491975 1494.73153,8.22421946 C1493.9537,5.93250179 1492.6433,3.97575298 1491.02808,2.65577666 C1487.53486,-0.206383039 1483.31987,0.453605119 1480.98988,4.22780876 C1479.91424,5.97561659 1479.33963,8.22753598 1479.38868,10.635332 C1479.54284,19.278192 1483.66674,31.9307288 1487.0093,40.8355941 C1487.0093,40.8256446 1486.99528,40.8057454 1486.99528,40.8057454 C1487.68201,46.1188159 1489.39884,48.7952503 1491.01406,50.1450753 C1491.6132,50.6458704 1492.32796,50.9178253 1493.05674,51.0272706 C1493.768,53.9060129 1495.31665,59.1394868 1498.16518,64.2170841 C1498.87995,65.5038952 1499.69982,66.7575411 1500.59678,67.9747052 C1497.10706,84.0034628 1492.21585,103.531153 1485.5132,124.826549 C1484.44807,121.476861 1483.94703,118.352696 1483.74031,116.584989 C1484.02061,116.399263 1484.30792,116.223488 1484.52515,115.948216 C1485.57277,114.598391 1486.46272,112.15743 1486.04927,107.772986 C1487.11091,100.062069 1488.11998,89.207088 1486.66243,82.2357558 C1486.263,80.2889566 1485.38707,78.5709974 1484.1993,77.3438838 C1481.64158,74.6873485 1478.12733,74.8432251 1475.8394,77.7219675 C1474.77426,79.0485768 1474.08403,80.8361829 1473.86679,82.8128309 C1473.12751,89.8936084 1475.21223,100.605979 1477.03767,108.187551 L1477.03417,108.174285 C1477.05519,112.585262 1478.1869,114.923411 1479.36415,116.177056 C1479.72854,116.56509 1480.17702,116.830411 1480.65353,117.002871 C1480.96886,119.616291 1481.83078,124.717104 1484.02061,129.536013 C1483.29534,131.7614 1482.54905,134.013319 1481.78523,136.271872 C1477.03067,131.343518 1473.90884,124.819916 1472.5599,121.612838 C1472.94531,121.254654 1473.27466,120.816873 1473.49189,120.302811 C1474.27323,118.409077 1474.51849,115.284912 1472.56691,110.257062 L1472.56691,110.276961 C1471.27053,100.907783 1468.85996,87.8738456 1464.84468,80.1098643 C1463.72699,77.947491 1462.13279,76.1864171 1460.33187,75.0952809 C1456.44623,72.7405493 1452.37489,73.9643464 1450.64055,78.017138 C1449.83819,79.8976068 1449.61395,82.1992741 1450.02039,84.5772213 C1451.48144,93.1073195 1457.47983,105.053437 1462.1398,113.414392 L1462.12578,113.407759 C1463.60436,118.571586 1465.7101,120.989332 1467.51102,122.103684 C1468.17673,122.518249 1468.92303,122.697341 1469.66231,122.703974 C1470.29999,124.229575 1471.28805,126.425114 1472.67202,128.892607 C1474.60258,132.345108 1477.31797,136.228757 1480.7236,139.399353 C1475.68874,154.108135 1469.78495,169.433789 1462.91763,184.84899 C1462.03819,181.545733 1461.88052,178.305489 1461.86651,176.759989 C1461.96812,176.680393 1462.09425,176.647228 1462.19236,176.544415 C1463.11384,175.572674 1464.00028,173.738637 1464.0178,170.309351 C1464.0178,170.309351 1464.00729,170.329251 1464.00729,170.335884 C1465.45783,164.419206 1467.09758,156.051617 1466.51947,150.50639 C1466.36881,148.97084 1465.81872,147.571267 1464.99885,146.529879 C1463.22596,144.284592 1460.47903,144.158564 1458.46789,146.224758 C1457.5429,147.183234 1456.85617,148.519793 1456.53733,150.03876 C1455.39161,155.491125 1456.16593,163.94826 1456.98931,169.981016 L1456.9823,169.974383 C1456.64244,173.400351 1457.34319,175.307352 1458.15956,176.35869 C1458.32073,176.567631 1458.54847,176.693659 1458.75519,176.842903 C1458.77622,179.104771 1459.07053,184.324979 1461.07116,188.94158 C1459.84135,191.634597 1458.58351,194.324297 1457.29063,197.020631 C1454.32647,192.384131 1452.73228,187.01468 1452.07357,184.364778 C1452.38891,184.116038 1452.67271,183.827501 1452.88644,183.469316 C1453.82544,181.923816 1454.45261,179.257332 1453.44704,174.677213 C1453.44704,174.677213 1453.44704,174.697112 1453.43653,174.703745 C1453.56967,166.442285 1453.24382,154.864302 1450.81924,147.66413 C1450.13601,145.654316 1448.99379,143.939674 1447.58529,142.782207 C1444.54055,140.271599 1440.84761,140.845357 1438.80844,144.141982 C1437.85893,145.664266 1437.35439,147.630964 1437.38943,149.74359 C1437.50155,157.285364 1441.08236,168.342653 1443.98345,176.1398 C1444.57558,180.792882 1446.07168,183.127714 1447.47668,184.318346 C1447.93917,184.70638 1448.48575,184.941853 1449.04985,185.061248 C1449.66301,187.581805 1451.02245,192.268053 1453.56266,196.798424 C1454.21085,197.952574 1454.96415,199.080192 1455.76651,200.164695 C1454.03216,203.726641 1452.23475,207.285271 1450.38828,210.837267 C1450.33222,210.8439 1450.29368,210.857167 1450.23762,210.8638 L1450.27265,211.062791 C1442.78868,225.396805 1434.40425,239.551727 1424.99672,253.109675 C1424.73745,250.091638 1424.86358,247.401938 1424.99672,245.859755 C1425.24899,245.74036 1425.51878,245.650814 1425.75353,245.451822 C1426.98334,244.373952 1428.27622,242.271276 1428.71769,238.122306 C1428.71769,238.122306 1428.70718,238.128939 1428.70718,238.135572 C1431.16329,231.15429 1434.15198,221.254467 1434.13096,214.521925 C1434.12745,212.651406 1433.62992,210.903598 1432.77151,209.560406 C1430.89351,206.665081 1427.59649,206.220667 1424.93716,208.495802 C1423.69684,209.550456 1422.71579,211.086007 1422.13768,212.883562 C1420.0985,219.337517 1420.01441,229.651905 1420.27719,237.001321 C1420.2807,237.001321 1420.27019,236.974788 1420.27019,236.974788 C1419.46082,241.060745 1420.05996,243.435376 1420.92188,244.788518 C1421.17415,245.183184 1421.50701,245.488304 1421.8749,245.733727 C1421.6927,248.002229 1421.51752,252.346874 1422.37593,256.847397 C1421.32831,258.329883 1420.26318,259.792469 1419.18753,261.25174 C1418.89322,261.64309 1418.61643,262.047705 1418.33613,262.442372 C1416.2479,258.154107 1415.19678,253.673484 1414.7483,251.312119 C1415.07765,251.083279 1415.37547,250.814641 1415.61022,250.466406 C1416.62981,248.967337 1417.39713,246.324068 1416.65433,241.700834 L1416.64382,241.733999 C1417.23946,233.492439 1417.55129,221.911139 1415.52263,214.601521 C1414.95853,212.558543 1413.91091,210.790836 1412.56898,209.557089 C1409.66088,206.907187 1405.94342,207.29522 1403.72556,210.485716 C1402.69897,211.954936 1402.08932,213.895102 1401.99471,216.011044 C1401.7004,223.549502 1404.66806,234.77925 1407.1382,242.709057 L1407.13119,242.695791 C1407.46054,247.358823 1408.81648,249.779885 1410.15141,251.033531 C1410.60339,251.441464 1411.12544,251.703469 1411.68604,251.849396 C1412.21861,254.67839 1413.5255,260.180503 1416.31798,265.241517 C1407.40098,277.651948 1398.93946,290.944574 1391,305 L1399.2583,305 C1406.36387,292.662533 1413.86186,280.925357 1421.73825,269.914499 C1428.64411,270.256101 1435.82676,267.665896 1438.89603,266.382401 C1439.26042,266.65104 1439.68788,266.850031 1440.16088,266.932944 C1441.80764,267.254647 1444.36536,267.012541 1448.17742,264.936397 C1448.17742,264.936397 1448.13187,264.949663 1448.11786,264.94303 C1455.54577,262.757441 1465.81171,259.288358 1471.58236,255.335062 C1473.19758,254.237293 1474.40287,252.83772 1475.04405,251.395032 C1476.43853,248.254285 1474.9039,245.465088 1471.39666,244.742086 C1469.77443,244.410434 1467.8684,244.543095 1465.99741,245.163285 C1459.26674,247.36214 1450.38127,253.298717 1444.22171,257.789289 C1444.22521,257.782656 1444.24623,257.772707 1444.24623,257.772707 C1440.25198,259.533781 1438.57019,261.377768 1437.90097,262.830405 C1437.78185,263.099043 1437.78885,263.367682 1437.7433,263.642953 C1435.26967,264.681025 1429.54807,266.777068 1423.82998,266.986009 C1424.26094,266.389034 1424.68489,265.778794 1425.11585,265.195086 C1426.73458,262.999548 1428.27972,260.767527 1429.8529,258.538824 C1435.15054,256.326702 1439.6178,252.701742 1441.69201,250.857755 C1442.12297,250.9871 1442.59247,251.036848 1443.07949,250.967201 C1444.72975,250.75826 1447.05973,249.726821 1449.92228,246.559541 C1449.92228,246.559541 1449.88724,246.582757 1449.88024,246.582757 C1456.10987,242.178414 1464.55037,235.664762 1468.60419,230.109585 C1469.72889,228.570718 1470.38408,226.875975 1470.47518,225.303943 C1470.69241,221.914456 1468.25732,219.765348 1464.70103,220.189863 C1463.04376,220.388855 1461.30241,221.115173 1459.75726,222.28259 C1454.18983,226.484625 1447.90413,234.885379 1443.68564,241.060745 L1443.68914,241.050796 C1440.5498,243.959387 1439.62131,246.237838 1439.50568,247.80987 C1439.48116,248.105041 1439.57576,248.367046 1439.64233,248.635685 C1438.42653,249.713555 1436.2332,251.547592 1433.49678,253.272184 C1442.63101,239.737452 1450.7807,225.718508 1458.0089,211.669715 C1462.82653,209.68975 1466.87685,206.980151 1468.9931,205.421385 C1469.50815,205.67344 1470.08977,205.816051 1470.71694,205.796152 C1472.59144,205.719872 1475.32084,204.797878 1478.87363,201.551002 C1478.87363,201.551002 1478.80706,201.580851 1478.79655,201.587484 C1486.2595,197.292586 1496.46237,190.85853 1501.63038,185.051298 C1503.0564,183.432835 1503.97788,181.602114 1504.26518,179.857622 C1504.88885,176.086735 1502.41872,173.440149 1498.3719,173.559544 C1496.50792,173.619242 1494.48276,174.256014 1492.61177,175.400215 C1485.91964,179.522653 1477.94164,188.284908 1472.52486,194.762078 L1472.52486,194.755445 C1468.69178,197.707151 1467.38839,200.154746 1467.08006,201.909186 C1467.00298,202.313802 1467.03101,202.708469 1467.1186,203.083236 C1465.66105,204.144523 1463.18742,205.819368 1460.18472,207.384767 C1463.69546,200.390219 1466.97495,193.402304 1470.05473,186.48072 C1473.23612,184.454324 1475.77283,182.255469 1477.18483,180.925543 C1477.6298,181.058204 1478.10281,181.091369 1478.59333,181.011772 C1480.2576,180.7564 1482.57357,179.658631 1485.36605,176.391855 L1485.34853,176.398488 C1491.50108,171.80842 1499.80143,165.049345 1503.7151,159.368141 C1504.79775,157.782842 1505.4074,156.064883 1505.47047,154.479585 C1505.57558,151.0503 1503.07041,148.947624 1499.50361,149.468318 C1497.84284,149.717058 1496.112,150.493124 1494.58437,151.706972 C1489.10453,156.0682 1483.00453,164.697794 1478.92268,171.022404 L1478.93319,170.995872 C1475.85691,174.017225 1474.98449,176.328841 1474.91441,177.920773 C1474.89689,178.215943 1475.002,178.477949 1475.07558,178.75322 C1474.44491,179.346878 1473.54795,180.14616 1472.43727,181.051571 C1478.13084,167.818642 1483.07461,154.870935 1487.31763,142.63628 C1492.5452,140.271599 1496.90384,136.543827 1498.929,134.643459 C1499.36696,134.769487 1499.83997,134.805968 1500.32699,134.729688 C1501.99827,134.470999 1504.31774,133.369914 1507.11022,130.116404 C1507.11022,130.116404 1507.06817,130.13962 1507.05065,130.146253 C1513.20321,125.552868 1521.54209,118.777211 1525.45927,113.08274 C1526.54893,111.500758 1527.15157,109.779483 1527.21464,108.190868 C1527.31975,104.771532 1524.81108,102.66554 1521.24427,103.189551 C1519.58701,103.434973 1517.86317,104.21104 1516.32854,105.424887 C1510.85571,109.779483 1504.7522,118.402444 1500.67386,124.727054 C1497.60108,127.738457 1496.72515,130.046757 1496.65157,131.638688 C1496.64106,131.933859 1496.74267,132.192548 1496.81625,132.467819 C1495.33066,133.864076 1492.34548,136.470863 1488.68759,138.580172 C1489.57753,135.926953 1490.45347,133.310216 1491.28385,130.736594 C1493.40011,128.269101 1494.87868,125.914369 1495.88776,123.950987 C1496.24163,123.914505 1496.59551,123.894606 1496.94238,123.748679 C1498.59965,123.035627 1500.67386,121.281186 1502.61142,117.16538 C1502.61142,117.16538 1502.5904,117.188596 1502.5869,117.191913 C1507.61475,110.797655 1514.24732,101.561138 1516.62986,94.6296038 C1517.29907,92.7027037 1517.42521,90.7525879 1517.01177,89.0910097 C1516.12182,85.5058479 1512.89137,83.9835636 1509.32808,85.4726827 C1507.68833,86.165836 1506.12216,87.432748 1504.89586,89.1009593 C1503.88678,90.474 1502.90223,92.0957799 1501.97024,93.8634869 C1504.24416,84.9752041 1506.18873,76.6639965 1507.81096,69.1155892 C1512.35881,65.2219907 1515.06719,61.2023644 1516.63687,58.1345802" id="Fill-1-Copy" transform="translate(1464.500000, 144.500000) scale(-1, 1) rotate(120.000000) translate(-1464.500000, -144.500000) "></path>
                    </g>
                </g>
            </g>
        </g>
    </g>
</svg>