<?xml version="1.0" encoding="UTF-8"?>
<svg width="174px" height="95px" viewBox="0 0 174 95" version="1.1" xmlns="http://www.w3.org/2000/svg" xmlns:xlink="http://www.w3.org/1999/xlink">
    <!-- Generator: Sketch 53.2 (72643) - https://sketchapp.com -->
    <title>Group 21 Copy 10</title>
    <desc>Created with Sketch.</desc>
    <defs>
        <polygon id="path-1" points="0.0302208305 0.411974391 55.5810667 0.411974391 55.5810667 36.3980988 0.0302208305 36.3980988"></polygon>
        <polygon id="path-3" points="-117.551358 -19.8640597 2.04018795 -19.8640597 2.04018795 55.2306473 -117.551358 55.2306473"></polygon>
    </defs>
    <g id="Page-1" stroke="none" stroke-width="1" fill="none" fill-rule="evenodd">
        <g id="Product-Detail-/-Lavender" transform="translate(-965.000000, -5630.000000)">
            <g id="Group-52" transform="translate(60.000000, 5630.000000)">
                <g id="Group-21-Copy-10" transform="translate(921.000000, 0.000000)">
                    <g id="Group-16" transform="translate(101.857868, 39.110092)">
                        <mask id="mask-2" fill="white">
                            <use xlink:href="#path-1"></use>
                        </mask>
                        <g id="Clip-2"></g>
                        <path d="M55.4970126,18.4666644 C55.2352481,17.9530602 54.6694993,17.9840515 54.4810772,18.045561 C53.0566928,18.4872464 51.7999824,19.9045669 51.611319,20.1200867 C50.2185394,18.4768371 50.1553299,16.6899866 50.1553299,15.0569097 C50.1553299,13.4240695 48.8807664,13.7732541 48.7418021,13.8451729 C47.6522832,14.3997045 47.1495025,15.6523689 47.045038,15.8579525 C46.4163209,17.4396926 47.6940207,19.3495621 47.9666417,19.7607293 C47.6732726,23.2114115 46.8981122,26.477092 46.2701189,28.9008023 C45.6414018,31.3247492 44.7407875,31.4274227 44.3844501,31.4274227 C42.2691042,31.4274227 42.7299061,22.8007174 42.7299061,22.8007174 C42.7299061,22.8007174 46.2491295,15.611678 47.8826841,9.83972248 C48.3017484,8.46356603 48.8255185,6.13235654 48.8255185,4.44794293 C48.8255185,2.76376591 48.3541013,1.69563004 47.9980052,1.07935231 C47.6416678,0.463311153 47.0030592,0.411974391 46.8356265,0.411974391 C42.6042109,0.411974391 40.3836767,13.8040088 40.2164853,15.0365643 C34.1206316,15.6424327 33.4504182,23.8071072 33.3249643,24.875243 C32.2146972,30.0306842 31.5444839,30.0718483 31.2511147,30.0718483 C30.6226389,30.0718483 30.7903129,27.9149945 30.8113023,27.5454644 C30.8947774,26.1281439 32.2043232,19.0211961 32.4557135,17.7067857 C32.7066213,16.3919021 32.7384673,15.9296347 32.7488414,15.817025 C32.7908202,15.4264398 32.015901,14.861972 31.4499109,14.5537148 C30.8844033,14.2456942 30.2457946,14.2147029 29.8059822,14.2147029 C28.1926932,15.4884224 25.9936309,21.9585106 24.9251014,24.9367525 C25.4486302,22.9649004 26.4857963,15.5397592 26.5277751,15.1082465 C26.5695126,14.6767338 26.4332021,14.6154609 26.2973741,14.5331328 C25.2814387,13.9681918 24.4433101,13.9890104 23.9301554,13.9476098 C23.4170007,13.9066823 23.323634,14.1941209 23.2705573,14.3585405 C23.0609046,15.046737 22.6628297,19.4321267 22.5163863,21.3833969 C22.3694605,23.334667 22.264996,24.0330362 21.8669211,25.8508781 C21.4690875,27.6684834 20.7672694,29.0242944 20.1805311,29.0242944 C19.5942753,29.0242944 19.6673763,27.4941277 19.6987398,26.8366859 C19.7305858,26.1794807 20.0866819,23.7044336 20.2437405,22.2665311 C20.4005579,20.8286286 20.505505,19.1342789 20.5578578,18.1995713 C20.6102107,17.2651002 19.8767879,17.337019 19.8767879,17.337019 L19.4056119,17.337019 C19.0601312,17.337019 18.9556667,16.8645789 18.9028313,16.7001593 C18.5679658,15.7245242 17.761442,15.1186558 16.8605864,15.1186558 C15.9599721,15.1186558 15.1324588,15.4678404 14.7032617,15.9608626 C11.3934498,19.3703807 11.2366324,25.9840698 11.2366324,27.062615 C11.205269,30.5237064 12.3674064,32.0948006 12.4933428,32.2902115 C11.8021401,33.9436338 10.5348143,33.809969 10.5348143,33.809969 C9.05807708,33.7896235 8.97436072,30.4929517 8.98473479,28.9422029 C8.98473479,24.834079 11.5193863,18.2613173 11.648459,17.9223054 C11.7772905,17.5835301 11.7078084,17.3576011 11.6031026,17.2239362 C10.8593057,16.1867917 9.82262215,15.919462 9.21513572,15.7346969 C8.6076493,15.5499319 8.27254261,15.8785345 8.10510989,16.0429541 C5.90532386,18.1789893 2.88912239,25.2653551 2.88912239,25.2653551 L3.39190306,21.5473433 C3.39190306,21.5473433 6.97409465,15.0774917 8.08412049,12.7152909 C9.19438757,10.3533267 9.45615198,8.16571818 9.45615198,7.24141987 C9.45615198,4.23242316 8.04214168,3.52364463 7.23585906,3.52364463 C6.42909393,3.52364463 5.7591218,3.8420745 5.21436233,4.33509669 C2.0304869,7.55984975 1.25556775,15.8579525 0.878240999,19.1032876 C0.501396759,22.3488592 0.0405949036,30.5750432 0.0302208305,31.3041671 C0.668829475,32.2696295 2.67971087,32.6188141 2.67971087,32.6188141 C5.13040472,24.628732 7.45564466,20.9315387 7.45564466,20.9315387 C7.45564466,20.9315387 6.11497664,25.5941943 6.11497664,29.3119695 C6.11497664,33.0297448 7.60232923,36.3980988 10.3044134,36.3980988 C13.0064976,36.3980988 13.4356947,33.5634579 13.4882888,33.1011904 C13.9071119,33.3583474 14.1794916,33.3169468 14.3889032,33.3169468 C16.5047316,33.3169468 17.4683141,30.0718483 17.4683141,30.0718483 C17.4683141,30.0718483 17.9501053,32.0846279 19.3115215,32.0846279 C21.0500232,32.0846279 21.8251836,30.0718483 21.8251836,30.0718483 L21.8251836,31.3656766 C22.4536594,32.2696295 24.4645408,32.6599782 24.4645408,32.6599782 C24.4645408,32.6599782 26.1400742,24.998262 29.2822121,19.5142182 C28.7584421,20.4590986 28.1092181,26.6826756 28.1092181,27.3604628 C28.1092181,29.332315 28.1926932,33.1324183 30.3505004,33.1324183 C32.5080664,33.1324183 33.5133864,29.5788261 33.5133864,29.5788261 C33.5133864,29.5788261 34.3512738,33.3375288 36.3411658,33.3375288 C38.8548278,33.3375288 39.8811373,28.8804568 39.8811373,28.8804568 C39.8811373,28.8804568 40.7819929,34.416074 43.7668309,34.416074 C45.5263219,34.416074 46.4373103,32.5774135 46.7516689,31.9204449 C48.3647166,28.4697627 49.1603839,21.5785712 49.1603839,21.5785712 C49.1603839,21.5785712 49.5377107,22.0817661 50.0195019,22.8210628 C48.6161069,25.8407054 48.8465079,29.4967346 48.8880042,29.9691747 C49.2023627,32.8038157 50.919875,33.0297448 51.3601699,33.0297448 C54.7951944,33.0297448 55.2769857,28.7777833 55.2769857,27.6684834 C55.2769857,24.0122176 52.679366,21.4758977 52.679366,21.4758977 C52.679366,21.4758977 53.6118263,20.0992681 55.2666116,19.3393894 C55.7484029,19.0928783 55.5467116,18.5693379 55.4970126,18.4666644 M4.11446932,16.9159156 C4.11446932,16.9159156 4.77454988,12.4484344 5.3400575,10.3739087 C5.90532386,8.29938302 6.20930833,7.11816433 6.48168806,6.5122959 C6.53235214,6.39921307 6.68048426,6.00910099 6.91088519,6.00910099 C7.14128611,6.00910099 7.23585906,6.39921307 7.23585906,7.16950109 C7.23585906,7.93978911 7.05781101,11.4392057 4.11446932,16.9159156 M17.7090891,19.6064825 C17.5833939,20.9315387 17.3006401,23.519432 16.9865228,25.1011721 C16.671923,26.6826756 16.3056941,28.4181894 15.7611759,29.4349885 C15.6979664,29.5686534 15.425828,30.0306842 15.0907213,30.0306842 C14.7556146,30.0306842 14.2948127,29.352897 14.2424598,28.4799355 C14.1898657,27.6069739 14.1165234,26.0254704 14.535829,23.6017601 C14.535829,23.6017601 15.0176202,20.2331695 16.2847047,18.4564917 C16.4362144,18.2407353 16.6929124,18.0557337 16.9761488,18.0557337 C17.2589026,18.0557337 17.8347843,18.2818994 17.7090891,19.6064825 M40.0278219,16.4536482 C39.4833037,25.1420996 38.5617,27.6275559 38.1247826,28.8395294 C37.6883478,30.0512662 37.3674753,30.0306842 37.1578225,30.0306842 C36.7706042,30.0306842 36.5298292,29.4555705 36.466861,29.2090594 C36.0897755,27.7094109 36.2994282,24.5466404 36.3829033,24.1151277 C37.3674753,17.9942242 40.0278219,16.4536482 40.0278219,16.4536482 M42.8973388,17.9530602 C42.8973388,17.9530602 43.3583819,11.0722779 43.9658683,8.71007712 C44.0915635,8.19647292 44.8247451,4.77654553 45.6102795,3.58539069 C45.7463488,3.36963434 46.0081132,2.88702145 46.3955728,2.88702145 C46.5632467,2.88702145 46.7622842,3.24637879 46.7412948,4.08858559 C46.7203054,4.93079239 46.8771228,7.68310529 42.8973388,17.9530602 M52.2397948,28.6339458 C52.2397948,30.082021 51.68442,30.5237064 51.4540191,30.5237064 C50.8885115,30.5237064 50.8573893,28.9831304 50.8573893,28.7368559 C50.8573893,26.1896534 51.2238594,24.9059978 51.2238594,24.9059978 C52.2501689,26.8880227 52.2397948,28.2951704 52.2397948,28.6339458" id="Fill-1" fill="#364657" mask="url(#mask-2)"></path>
                        <mask id="mask-4" fill="white">
                            <use xlink:href="#path-3"></use>
                        </mask>
                        <g id="Clip-5"></g>
                        <path d="M1.3002969,35.1218716 C-1.15039695,33.9716443 -4.87903186,34.3205923 -4.87903186,34.3205923 C-4.87903186,34.3205923 -3.15090427,28.4152086 -1.47512957,9.02528958 C-1.32506739,7.28930264 -2.6271342,7.37210387 -2.6271342,7.37210387 L-3.41266868,7.37210387 C-4.04114451,7.37210387 -4.29253484,7.06384672 -4.43921941,6.42722355 C-5.10943279,3.71607469 -7.49739968,3.48990904 -8.33528703,3.48990904 C-14.7240273,3.48990904 -17.2374481,17.1696186 -17.5098278,19.1208887 C-17.7822076,21.0721589 -18.4314316,23.6399433 -18.9132228,25.4267939 C-19.3950141,27.2136444 -20.211912,29.7608468 -21.3431685,29.7608468 C-22.4741838,29.7608468 -22.3277404,26.9465513 -22.2227934,25.6529595 C-21.9714031,21.9146023 -19.0599074,6.77640816 -18.8714853,5.60559877 C-18.6828219,4.43478937 -19.0179286,3.9623492 -19.2693189,3.73618356 C-20.4633024,2.73003032 -21.7410022,2.2779356 -22.9349856,1.9701516 C-23.9612951,1.72364051 -24.4433276,2.36026368 -24.6527391,2.60677478 C-27.8783521,6.42722355 -32.5285907,20.8670484 -32.5285907,20.8670484 C-32.5285907,20.8670484 -31.3975755,14.8488184 -30.852816,11.6649928 C-30.3082978,8.48116721 -29.9522017,5.46152462 -29.7427902,4.08560475 C-29.5333787,2.7094483 -29.9731911,2.60677478 -30.1826026,2.44235519 C-30.9785112,1.88782352 -32.5076013,1.62096698 -33.8062905,1.4565474 C-35.1049797,1.29189124 -35.3773595,1.9701516 -35.6287498,2.99688686 C-35.8801401,4.02409526 -36.403669,10.3503458 -36.6970381,13.842192 C-36.990166,17.3340382 -37.3045245,19.83984 -37.3045245,19.83984 C-38.7498983,27.1930624 -40.2370096,27.9120137 -40.8025172,27.9120137 C-41.3682661,27.9120137 -41.724121,27.2136444 -41.9127843,26.6181853 C-42.9810726,23.4140142 -40.8864749,12.301616 -40.6560739,10.6995305 C-40.425673,9.09744494 -41.2633191,8.68675084 -41.9337737,8.39883913 C-42.6039871,8.11163715 -43.7979706,7.82396201 -44.2587724,7.72128849 C-45.6831568,7.41303134 -45.9972741,8.70733286 -46.0392529,8.95360737 C-47.7150276,16.6148504 -47.8197334,21.524017 -47.8197334,23.0854116 C-48.8250534,28.9803861 -50.5951598,32.3794949 -52.2709345,32.1743844 C-55.1406927,31.773863 -55.1510667,22.7667452 -55.2034196,19.737403 C-52.8994104,12.7021374 -44.5381486,-3.16494413 -44.5938791,-13.085951 C-44.6175223,-17.2965118 -46.0812317,-19.8640597 -48.6156419,-19.8640597 C-50.96163,-19.8640597 -53.6639554,-16.4133776 -54.1037679,-15.4890793 C-60.7019197,-3.06227061 -60.7516187,16.8613614 -60.8066254,18.0752275 C-61.6445128,24.6297729 -63.3622663,27.8916682 -64.5979873,27.8916682 C-65.8339496,27.8916682 -65.4148852,23.8966271 -65.4148852,23.8966271 C-65.4148852,23.8966271 -64.0114903,10.9051141 -63.9487633,8.91267991 C-63.8230682,7.33093983 -65.2998054,7.40285861 -65.2998054,7.40285861 L-65.8966765,7.40285861 C-66.4937889,7.40285861 -66.6718369,7.06384672 -66.7765427,6.64297989 C-67.4573714,3.81874821 -69.8660864,3.4591543 -70.7039738,3.4591543 C-77.668837,3.4591543 -79.8681405,18.7615314 -80.1301462,20.404781 C-82.2770968,30.8289827 -85.5762933,34.4235024 -88.71819,34.4235024 C-91.8600866,34.4235024 -91.9126807,27.7991674 -91.9650336,26.2588279 C-83.2196899,25.2316195 -82.5388612,16.09131 -82.3294497,14.0887031 C-81.1774451,3.35648077 -85.3142877,1.50788416 -87.7755969,1.55922092 C-94.4261015,1.76456798 -97.8300038,17.5805493 -97.8300038,24.2048843 C-97.8300038,30.8289827 -95.8401118,34.0639085 -95.8401118,34.0639085 C-95.8401118,34.0639085 -96.6256463,36.377848 -99.0343614,36.3234358 C-101.1292,36.3234358 -101.705082,33.2936205 -101.705082,26.9262059 C-101.705082,20.5585547 -97.5366347,9.4773843 -97.2225174,8.61483205 C-96.9084001,7.75204323 -97.201528,7.03309198 -97.5262606,6.71489868 C-98.9820085,5.29757819 -100.762489,4.74304652 -101.1292,4.58879966 C-102.438264,4.07543203 -103.747568,5.41042444 -104.114038,5.87269188 C-108.669945,11.9320859 -112.482297,21.380416 -112.482297,21.380416 L-111.654783,14.8076544 C-104.313076,2.07282513 -101.286259,-3.47320128 -100.9719,-9.94328943 C-100.787821,-13.7388978 -102.176499,-16.8243082 -104.637808,-16.8243082 C-111.23596,-16.8243082 -113.801975,-4.75685693 -115.223464,4.33211584 C-116.644954,13.4210886 -117.530369,30.8289827 -117.551358,31.896882 C-116.692481,33.3965306 -112.859382,34.2387374 -112.859382,34.2387374 C-108.690935,20.5585547 -104.899573,14.6432348 -104.396792,13.6777724 C-105.695481,17.5393852 -106.76377,24.7901707 -106.76377,27.6042297 C-106.76377,35.5119837 -103.998717,40.8526631 -99.704816,40.8526631 C-95.4106735,40.8526631 -94.384364,37.2373248 -94.1119843,36.4772095 C-91.9334289,38.4902257 -89.713136,38.6137178 -88.7915323,38.6137178 C-82.8426044,38.6137178 -79.8681405,29.1443325 -79.8681405,29.1443325 C-79.8681405,29.1443325 -78.6951465,35.4710563 -74.7573413,35.4710563 C-71.175391,35.4710563 -69.3319423,29.7608468 -69.3319423,29.7608468 C-69.3319423,29.7608468 -68.5987607,33.252693 -66.1690562,33.252693 C-62.0425877,33.252693 -60.304086,26.5155118 -60.304086,26.5155118 C-60.304086,26.5155118 -58.9214392,37.2990709 -53.3078593,37.3402349 C-48.4062304,37.3402349 -46.7724345,29.5760818 -46.7724345,29.5760818 C-46.7724345,29.5760818 -45.4737453,33.252693 -42.415565,33.252693 C-39.3571435,33.252693 -37.8910215,29.6579367 -37.8910215,29.6579367 C-37.8910215,29.6579367 -37.9537485,31.3115956 -37.9537485,31.9586281 C-37.1578399,33.4171126 -33.8062905,34.2181554 -33.3664781,34.2692555 C-29.9102229,19.5829196 -24.8411612,11.1719706 -24.8411612,11.1719706 C-24.8411612,11.1719706 -26.873032,19.3673998 -26.9777378,26.1048177 C-26.9777378,29.5349178 -26.286535,35.080471 -22.8932481,35.080471 C-19.4997198,35.080471 -17.8449345,29.9250299 -17.4888384,29.0215501 C-16.5882241,33.7457152 -14.2002572,35.4710563 -12.4197768,35.4710563 C-10.6392963,35.4710563 -9.38258591,34.0740812 -9.38258591,34.0740812 L-9.63397624,35.5529112 C-15.876032,38.2231326 -19.4787304,43.9541606 -19.4787304,49.5616965 C-19.4787304,55.1687592 -15.8130637,55.2307419 -15.3522619,55.2307419 C-9.52902922,55.2307419 -5.88435193,38.4902257 -5.59122405,37.3274598 C-2.47007556,36.1443486 -1.00371238,36.8472127 -0.249782643,37.0937238 C0.504388352,37.3402349 1.67714114,37.4429084 1.97051028,36.6624477 C2.26387942,35.8817504 1.55168723,35.2451272 1.3002969,35.1218716 M-10.6812751,40.4209138 C-11.8542692,46.1105412 -12.5874508,47.3842607 -13.2576641,48.9248368 C-13.9278775,50.4651762 -14.3886794,50.8761069 -14.8077437,50.8761069 C-15.2265667,50.8761069 -15.5409253,50.2595926 -15.4989465,49.3355309 C-15.4569676,48.4112325 -14.6224579,46.0696138 -14.4516476,45.7206657 C-13.131969,42.5780042 -10.6812751,40.4209138 -10.6812751,40.4209138 M-110.398073,6.79699018 C-110.398073,6.79699018 -107.727352,-8.96765436 -105.999225,-11.9972331 C-105.842166,-12.3057268 -105.087995,-13.1268784 -104.94131,-11.6892125 C-104.794867,-10.25131 -104.354813,-4.70575674 -110.398073,6.79699018 M-91.9126807,22.6129715 C-91.9126807,22.6129715 -91.5565846,17.4984578 -90.5510233,13.82161 C-89.5457033,10.1449988 -88.8752486,7.65954243 -87.723244,6.34513204 C-87.5138325,6.11920297 -86.5922287,5.48234322 -86.2358914,6.65315262 C-85.8797953,7.82396201 -85.3982453,9.83697821 -85.9847423,13.7601005 C-86.5712393,17.6832228 -87.3671479,22.1199493 -91.9126807,22.6129715 M-68.9131192,10.9460415 C-69.017825,12.1987059 -69.436648,17.1289277 -69.9814075,19.9015861 C-70.5259257,22.6740078 -71.5314871,27.3577186 -72.3693744,28.6924744 C-72.5368071,29.0009681 -72.7881975,29.6579367 -73.521379,29.6579367 C-74.2545606,29.6579367 -74.7573413,28.6924744 -74.924774,27.4601555 C-75.092448,26.2278366 -75.2598807,23.4549417 -74.6733837,19.0797247 C-74.6733837,19.0797247 -73.75178,12.2812705 -71.4685188,9.40546551 C-71.175391,9.01511686 -70.7563267,8.70733286 -70.1280921,8.70733286 C-69.4996163,8.70733286 -68.8084135,9.69314065 -68.9131192,10.9460415 M-54.7322437,10.4428466 C-54.7322437,10.4428466 -53.8103987,-7.00597492 -50.071631,-14.6674545 C-49.9143311,-14.9551296 -49.5792244,-15.4890793 -49.139412,-15.4890793 C-48.6995995,-15.4890793 -48.5529149,-15.0168757 -48.5319255,-14.3594339 C-48.5109361,-13.7019921 -48.4899467,-11.4427014 -48.7833159,-9.79945186 C-49.0764438,-8.15643887 -50.0610157,-2.95959708 -52.1138759,2.95595939 C-52.8260681,5.0510671 -54.7322437,10.4428466 -54.7322437,10.4428466 M-6.53381716,11.1719706 C-6.72223928,13.5956809 -6.88991325,16.2659023 -7.53913723,19.798676 C-8.18860246,23.3316862 -9.04747922,27.3371365 -9.99007233,28.713293 C-10.1575051,29.0009681 -10.4088954,29.6579367 -11.1000982,29.6579367 C-11.7913009,29.6579367 -12.377798,28.5694554 -12.5034931,27.398646 C-12.6291883,26.2278366 -12.9645362,24.522841 -12.1893759,18.5460116 C-12.1893759,18.5460116 -11.4981731,11.9727768 -8.75411008,9.07662634 C-8.52370915,8.85093385 -8.16761306,8.66616881 -7.79052756,8.66616881 C-7.41344206,8.66616881 -6.34515378,8.74826032 -6.53381716,11.1719706 M-37.513936,-1.52193115 C-37.0321448,-2.36390137 -36.7807545,-3.3087817 -36.7807545,-4.29458949 C-36.7807545,-5.28063386 -37.2415563,-5.81482008 -37.9747379,-6.32818771 C-38.7079195,-6.84179191 -40.2160202,-6.86213736 -40.5511269,-6.86213736 C-44.405457,-6.86213736 -44.1540667,-3.14436211 -44.1540667,-3.14436211 C-44.1120878,-0.51530476 -43.651286,0.799105629 -43.3791475,1.29189124 C-42.4363131,3.05863292 -40.9911806,2.2987542 -40.7607797,2.15468006 C-39.1059944,1.23061833 -37.9957273,-0.679724346 -37.513936,-1.52193115" id="Fill-4" fill="#364657" mask="url(#mask-4)"></path>
                    </g>
                    <path d="M82.1426265,21.5504557 C81.805966,21.5515277 81.8082807,21.2666885 81.8072519,21.1515278 C81.805966,21.0284038 81.805966,20.7522936 82.1426265,20.7522936 L87.0857999,20.7522936 C87.4224604,20.7522936 87.4224604,21.0284038 87.4211745,21.1515278 C87.4204029,21.2666885 87.4224604,21.5515277 87.0857999,21.5504557 L82.1426265,21.5504557 Z" id="Fill-7" fill="#364657"></path>
                    <path d="M88.2233503,27.8434632 C88.2233503,28.5540927 88.1462476,29.2078718 87.9913945,29.8045398 C87.8356774,30.4017294 87.6045855,30.9170335 87.2974709,31.3488876 C86.9897083,31.7820456 86.6048431,32.1194969 86.1420114,32.3612413 C85.6798276,32.6032465 85.1433488,32.7247706 84.533871,32.7247706 C83.9408071,32.7247706 83.423334,32.618111 82.9820997,32.4047918 C82.5410813,32.1917333 82.1732781,31.8819249 81.8791218,31.4748451 C81.5856135,31.0688083 81.3657523,30.5748882 81.2216978,29.9933456 C81.0774273,29.4123245 81.0050761,28.7541121 81.0050761,28.0176652 C81.0050761,27.3080788 81.0815308,26.6537781 81.2337923,26.0565886 C81.3862698,25.459399 81.6156339,24.9448772 81.9236124,24.5125015 C82.231159,24.0796043 82.6145124,23.7437178 83.0741045,23.5053635 C83.5339126,23.2657053 84.0714712,23.146789 84.6861325,23.146789 C85.2800602,23.146789 85.7975333,23.252927 86.2383357,23.4659855 C86.679786,23.6793047 87.0471573,23.9896347 87.3413135,24.3959322 C87.6352538,24.8027513 87.8559789,25.2964106 88.003057,25.8771709 C88.1497032,26.4589744 88.2233503,27.1137966 88.2233503,27.8434632 M86.851917,27.9501228 C86.851917,27.4794123 86.8156335,27.0334759 86.7428503,26.6141394 C86.6700672,26.1942812 86.5497698,25.8265793 86.3828221,25.5092083 C86.2154425,25.1939235 85.9884541,24.9433125 85.7025048,24.7594616 C85.4169876,24.5753499 85.0606309,24.483294 84.6347307,24.483294 C84.2407946,24.483294 83.9019318,24.5670048 83.6190062,24.7346873 C83.3354327,24.9028914 83.1023971,25.1399417 82.9190354,25.44636 C82.7354577,25.7535605 82.5989623,26.1168291 82.5104131,26.5364265 C82.4214319,26.9557631 82.3769413,27.4142169 82.3769413,27.9115271 C82.3769413,28.3892788 82.4132249,28.8378229 82.486224,29.2571595 C82.5585752,29.6770177 82.6799524,30.0434156 82.8501397,30.3566142 C83.0198951,30.6695519 83.2481793,30.9180767 83.5336966,31.1029707 C83.8198618,31.2865609 84.1760025,31.3786167 84.6023346,31.3786167 C84.9904394,31.3786167 85.3277904,31.2946451 85.6137396,31.126441 C85.8996889,30.9584978 86.1344523,30.7227513 86.31803,30.4197233 C86.5011757,30.1161736 86.6359433,29.7547305 86.7225488,29.3348724 C86.8087223,28.915275 86.851917,28.4539526 86.851917,27.9501228" id="Fill-9" fill="#364657"></path>
                    <path d="M137.870054,31.353617 C137.919703,31.4787207 137.945913,31.5803242 137.948937,31.6568148 C137.952213,31.734227 137.928775,31.7929773 137.879379,31.8328354 C137.829227,31.8726934 137.746564,31.8980367 137.63139,31.909326 C137.515461,31.9206153 137.361224,31.9266055 137.168176,31.9266055 C136.974371,31.9266055 136.820134,31.922228 136.704709,31.9141643 C136.589535,31.9054093 136.501328,31.8908945 136.442607,31.8710807 C136.383886,31.8510365 136.339782,31.8240804 136.311808,31.7899822 C136.283581,31.7556536 136.256867,31.71257 136.231917,31.6614227 L135.19359,28.9660499 L130.157955,28.9660499 L129.165748,31.627094 C129.147098,31.6782414 129.122652,31.7229377 129.090897,31.7598007 C129.059899,31.7971244 129.014535,31.8282275 128.95531,31.8538012 C128.896085,31.8798356 128.81191,31.8980367 128.703037,31.909326 C128.593408,31.9206153 128.45152,31.9266055 128.277121,31.9266055 C128.095918,31.9266055 127.947729,31.9196937 127.832556,31.9054093 C127.71713,31.8908945 127.635727,31.8639385 127.588599,31.8240804 C127.542479,31.7835312 127.520302,31.725472 127.523074,31.648751 C127.526854,31.5715692 127.553064,31.4704265 127.603217,31.3448621 L131.665042,21.0607904 C131.689992,20.9981234 131.72225,20.9462848 131.76333,20.9064268 C131.803653,20.8665687 131.862626,20.8354656 131.941005,20.8126567 C132.018627,20.7898477 132.11868,20.774181 132.240406,20.7649652 C132.362384,20.7566711 132.516621,20.7522936 132.703873,20.7522936 C132.903221,20.7522936 133.068547,20.7566711 133.199598,20.7649652 C133.330901,20.774181 133.437002,20.7898477 133.517901,20.8126567 C133.599052,20.8354656 133.661553,20.8681815 133.705153,20.911265 C133.7485,20.9527359 133.782775,21.0061871 133.807977,21.0688542 L137.870054,31.353617 Z M132.656745,22.2754246 L132.64742,22.2754246 L130.560433,27.7938081 L134.772462,27.7938081 L132.656745,22.2754246 Z" id="Fill-11" fill="#364657"></path>
                    <path d="M127.522843,31.6511823 C127.522843,31.6974719 127.514284,31.7375124 127.497843,31.7717668 C127.480725,31.8062525 127.444013,31.8349521 127.388833,31.8580969 C127.332752,31.8805473 127.255049,31.8974431 127.154373,31.9092469 C127.054372,31.9205879 126.920588,31.9266055 126.75302,31.9266055 C126.607974,31.9266055 126.48928,31.9205879 126.397387,31.9092469 C126.305495,31.8974431 126.232071,31.8796216 126.176215,31.8534679 C126.119909,31.8277772 126.076665,31.7916713 126.04626,31.7458446 C126.015404,31.7000179 125.988827,31.6423873 125.96698,31.5734158 L124.971706,28.952498 C124.854138,28.654393 124.733191,28.3812843 124.60774,28.1313204 C124.482289,27.8825137 124.333189,27.6670356 124.160216,27.4872004 C123.987242,27.3069024 123.783637,27.1657191 123.549853,27.0657335 C123.315392,26.965748 123.033634,26.9150608 122.704804,26.9150608 L121.743088,26.9150608 L121.743088,31.6511823 C121.743088,31.6974719 121.730025,31.7375124 121.70525,31.7717668 C121.68025,31.8062525 121.641286,31.8333319 121.588133,31.8534679 C121.535204,31.8733725 121.462907,31.8902682 121.371015,31.9053123 C121.278447,31.9189677 121.163356,31.9266055 121.024166,31.9266055 C120.884076,31.9266055 120.76876,31.9189677 120.676867,31.9053123 C120.58475,31.8902682 120.51065,31.8733725 120.454794,31.8534679 C120.399164,31.8333319 120.359974,31.8062525 120.338127,31.7717668 C120.31583,31.7375124 120.304569,31.6974719 120.304569,31.6511823 L120.304569,21.3545214 C120.304569,21.1307111 120.361776,20.9744837 120.476191,20.8858391 C120.590381,20.7971945 120.711552,20.7522936 120.839481,20.7522936 L123.139491,20.7522936 C123.41314,20.7522936 123.640394,20.7601628 123.821701,20.7742811 C124.002557,20.788168 124.165846,20.8043694 124.310667,20.8212651 C124.728912,20.8960228 125.098057,21.0135984 125.41878,21.1737605 C125.739502,21.3346169 126.008872,21.5378283 126.22599,21.784089 C126.443334,22.0305812 126.606848,22.3129478 126.714956,22.630726 C126.824191,22.9487356 126.878696,23.3000737 126.878696,23.6833517 C126.878696,24.0562145 126.829596,24.3904255 126.731848,24.6848274 C126.634776,24.980618 126.493784,25.2407656 126.309774,25.4671218 C126.12599,25.693478 125.905268,25.8895145 125.649186,26.0559257 C125.392879,26.2221054 125.10549,26.3623629 124.787696,26.4769297 C124.966075,26.5577051 125.127562,26.6593107 125.272608,26.7824411 C125.417653,26.90534 125.553014,27.0530039 125.678465,27.2247383 C125.803691,27.3964728 125.922385,27.5943609 126.033872,27.8177082 C126.145584,28.0410556 126.257071,28.2935654 126.368558,28.5743119 L127.339058,31.0239581 C127.416311,31.2301783 127.466987,31.3750648 127.489284,31.4574603 C127.510906,31.5405502 127.522843,31.6053556 127.522843,31.6511823 M125.356617,23.8386533 C125.356617,23.4030681 125.261572,23.0346028 125.071706,22.7339518 C124.882516,22.4330693 124.564271,22.2166654 124.118549,22.0849715 C123.979134,22.0449309 123.821701,22.0162314 123.645799,21.9993357 C123.470573,21.9819771 123.239716,21.9736449 122.955931,21.9736449 L121.743088,21.9736449 L121.743088,25.7207889 L123.147824,25.7207889 C123.52733,25.7207889 123.855259,25.6735735 124.130711,25.5791427 C124.406838,25.4847119 124.637019,25.352555 124.821029,25.1833665 C125.004814,25.014178 125.1404,24.8153641 125.226887,24.5859991 C125.313149,24.3568655 125.356617,24.1078274 125.356617,23.8386533" id="Fill-13" fill="#364657"></path>
                    <path d="M117.096447,31.6516281 C117.096447,31.6976892 117.087889,31.7375007 117.071674,31.7719886 C117.054559,31.806245 117.018301,31.8356408 116.962675,31.8580926 C116.906599,31.8805445 116.828903,31.8979042 116.728236,31.9092458 C116.62802,31.9205875 116.494473,31.9266055 116.327146,31.9266055 C116.181664,31.9266055 116.063656,31.9205875 115.971547,31.9092458 C115.879664,31.8979042 115.806021,31.8796186 115.750171,31.8534634 C115.69432,31.827771 115.650855,31.7923573 115.620452,31.7458333 C115.59005,31.7009296 115.563025,31.6428326 115.540955,31.5740882 L114.545774,28.9523132 C114.428667,28.654884 114.307507,28.3810639 114.181842,28.1315474 C114.056403,27.8824939 113.907542,27.6674653 113.73436,27.4869246 C113.561402,27.3063839 113.358042,27.1658862 113.124054,27.0658944 C112.88984,26.9654397 112.608109,26.9154438 112.279535,26.9154438 L111.317458,26.9154438 L111.317458,31.6516281 C111.317458,31.6976892 111.304622,31.7375007 111.279849,31.7719886 C111.255077,31.806245 111.215666,31.8340205 111.162743,31.8534634 C111.109594,31.8740635 111.037979,31.8902659 110.94542,31.905311 C110.85286,31.9196616 110.736429,31.9266055 110.597252,31.9266055 C110.457625,31.9266055 110.342771,31.9196616 110.250211,31.905311 C110.158103,31.8902659 110.084235,31.8740635 110.02861,31.8534634 C109.972759,31.8340205 109.933798,31.806245 109.911728,31.7719886 C109.889208,31.7375007 109.878173,31.6976892 109.878173,31.6516281 L109.878173,21.3538644 C109.878173,21.1311976 109.935149,20.9744975 110.049779,20.8856159 C110.163733,20.7969658 110.284668,20.7522936 110.41326,20.7522936 L112.714181,20.7522936 C112.987129,20.7522936 113.214586,20.7599318 113.395876,20.7735881 C113.576941,20.7881703 113.740215,20.8043726 113.885022,20.8210379 C114.303228,20.8960317 114.672114,21.0136147 114.992806,21.1730923 C115.313498,21.3344216 115.583068,21.5376456 115.800166,21.7841531 C116.017489,22.0306606 116.181213,22.3123504 116.289086,22.6303798 C116.398086,22.9481777 116.452811,23.2995377 116.452811,23.6833024 C116.452811,24.0561884 116.403716,24.3899572 116.306202,24.6848403 C116.208688,24.9801864 116.06816,25.2410446 115.883717,25.4667204 C115.69995,25.6930907 115.479474,25.8898338 115.223191,26.0555609 C114.966682,26.2217509 114.679771,26.3620171 114.361556,26.4772854 C114.540144,26.5573714 114.701616,26.6596778 114.846648,26.7825844 C114.99168,26.905028 115.126803,27.0529325 115.252467,27.2251405 C115.377681,27.3968857 115.496364,27.5940917 115.608291,27.8179158 C115.719543,28.04174 115.830794,28.2933397 115.942721,28.5745665 L116.912905,31.0241335 C116.9906,31.2308294 117.040821,31.3750305 117.063116,31.4581255 C117.085186,31.5412206 117.096447,31.60603 117.096447,31.6516281 M114.930424,23.8383822 C114.930424,23.4025384 114.835613,23.0345132 114.64599,22.7340749 C114.456592,22.4329423 114.138603,22.216062 113.692697,22.0850543 C113.55352,22.0450113 113.395876,22.015847 113.219991,21.9987188 C113.044782,21.9815906 112.814622,21.9732579 112.530413,21.9732579 L111.317458,21.9732579 L111.317458,25.7204033 L112.722738,25.7204033 C113.101533,25.7204033 113.429207,25.6731849 113.704858,25.5787483 C113.98141,25.4843116 114.211119,25.3528409 114.394886,25.1836419 C114.579329,25.0144428 114.714227,24.8153851 114.800931,24.5860059 C114.887185,24.3570895 114.930424,24.1080359 114.930424,23.8383822" id="Fill-15" fill="#364657"></path>
                    <path d="M108.274112,31.3125148 C108.274112,31.4162196 108.267362,31.5078333 108.254131,31.5850306 C108.240631,31.6629255 108.217141,31.7277992 108.18393,31.7796516 C108.14991,31.8308064 108.11184,31.868475 108.068369,31.8914947 C108.024898,31.9152119 107.976298,31.9266055 107.923107,31.9266055 L101.697366,31.9266055 C101.543194,31.9266055 101.397932,31.8814962 101.26077,31.7922078 C101.123878,31.7031518 101.055838,31.546432 101.055838,31.3213506 L101.055838,21.3573159 C101.055838,21.1329322 101.123878,20.9755147 101.26077,20.8857612 C101.397932,20.7971703 101.543194,20.7522936 101.697366,20.7522936 L107.852366,20.7522936 C107.906097,20.7522936 107.954698,20.7643847 107.998438,20.7871719 C108.041639,20.8097265 108.077009,20.8471626 108.103739,20.8985499 C108.13047,20.9513324 108.15207,21.0157411 108.16854,21.0936359 C108.185281,21.1715308 108.193921,21.2680275 108.193921,21.3828934 C108.193921,21.4863657 108.185281,21.5772818 108.16854,21.6547116 C108.15207,21.7326065 108.13047,21.7958525 108.103739,21.8449147 C108.077009,21.8939768 108.041639,21.9300177 107.998438,21.9525724 C107.954698,21.9762896 107.906097,21.9872182 107.852366,21.9872182 L102.78008,21.9872182 L102.78008,25.492953 L107.131727,25.492953 C107.185457,25.492953 107.233248,25.5059743 107.276719,25.5317842 C107.319919,25.5578267 107.35664,25.5936351 107.38634,25.639907 C107.41685,25.6859463 107.438181,25.7491923 107.451681,25.829645 C107.464911,25.9103301 107.471391,26.0054316 107.471391,26.1149495 C107.471391,26.2186543 107.464911,26.3081753 107.451681,26.3828149 C107.438181,26.4574545 107.41685,26.5176777 107.38634,26.5641821 C107.35664,26.6099889 107.319919,26.6430071 107.276719,26.6637015 C107.233248,26.6834659 107.185457,26.6932318 107.131727,26.6932318 L102.78008,26.6932318 L102.78008,30.6916809 L107.923107,30.6916809 C107.976298,30.6916809 108.024898,30.703307 108.068369,30.7258617 C108.11184,30.7491139 108.14991,30.7851548 108.18393,30.8335194 C108.217141,30.882349 108.240631,30.94606 108.254131,31.0234899 C108.267362,31.1013848 108.274112,31.1976489 108.274112,31.3125148" id="Fill-17" fill="#364657"></path>
                    <path d="M100.253807,21.3881472 C100.253807,21.4969391 100.247114,21.5923056 100.233995,21.6717005 C100.220609,21.7522527 100.198922,21.8170649 100.169204,21.8654425 C100.138951,21.9138202 100.102807,21.9499298 100.059703,21.9723826 C100.016598,21.9955298 99.9684067,22.0068719 99.9151284,22.0068719 L96.2967546,22.0068719 L96.2967546,31.6520797 C96.2967546,31.6972167 96.2836359,31.7379558 96.2568628,31.7722137 C96.2306253,31.806703 96.1840402,31.8337852 96.1179109,31.8539233 C96.0515138,31.8738299 95.9636983,31.8907273 95.8539289,31.9050786 C95.7444272,31.9194299 95.6073494,31.9266055 95.4416244,31.9266055 C95.2825926,31.9266055 95.1465857,31.9194299 95.034139,31.9050786 C94.9211568,31.8907273 94.831735,31.8738299 94.7656056,31.8539233 C94.6994762,31.8337852 94.6526234,31.806703 94.6261182,31.7722137 C94.5998806,31.7379558 94.5864941,31.6972167 94.5864941,31.6520797 L94.5864941,22.0068719 L90.9673171,22.0068719 C90.9140388,22.0068719 90.8663829,21.9955298 90.8232783,21.9723826 C90.7801737,21.9499298 90.7453688,21.9138202 90.7191312,21.8654425 C90.6923582,21.8170649 90.6712075,21.7522527 90.6546083,21.6717005 C90.6377413,21.5923056 90.6294416,21.4969391 90.6294416,21.3881472 C90.6294416,21.2791239 90.6377413,21.183526 90.6546083,21.0997331 C90.6712075,21.0168661 90.6923582,20.9492763 90.7191312,20.8978895 C90.7453688,20.8467342 90.7801737,20.8092357 90.8232783,20.7860885 C90.8663829,20.7636357 90.9140388,20.7522936 90.9673171,20.7522936 L99.9151284,20.7522936 C99.9684067,20.7522936 100.016598,20.7636357 100.059703,20.7860885 C100.102807,20.8092357 100.138951,20.8467342 100.169204,20.8978895 C100.198922,20.9492763 100.220609,21.0168661 100.233995,21.0997331 C100.247114,21.183526 100.253807,21.2791239 100.253807,21.3881472" id="Fill-19" fill="#364657"></path>
                    <path d="M80.2030457,31.5558744 C80.2030457,31.6012238 80.1927161,31.640451 80.1727612,31.673556 C80.1525715,31.7077948 80.1175918,31.7343242 80.0680567,31.7535977 C80.0185216,31.7735514 79.9532573,31.7887434 79.8717944,31.8005343 C79.7905662,31.8111914 79.6917307,31.81686 79.5757575,31.81686 C79.4536805,31.81686 79.3515584,31.8111914 79.2703302,31.8005343 C79.1888673,31.7887434 79.1224292,31.7735514 79.0696074,31.7535977 C79.0177246,31.7343242 78.9794582,31.7077948 78.9562166,31.673556 C78.9334445,31.640451 78.9214716,31.6012238 78.9214716,31.5558744 L78.9214716,30.5541068 C78.5089921,30.9862863 78.0803139,31.3232321 77.6356718,31.5644908 C77.1910297,31.8055227 76.7041301,31.9266055 76.1754426,31.9266055 C75.6000372,31.9266055 75.1091467,31.8182205 74.7020668,31.6021308 C74.2952216,31.3864945 73.9656136,31.0944445 73.7127733,30.7268879 C73.4599329,30.3593312 73.2754088,29.926925 73.1589661,29.4298958 C73.0427582,28.9328667 72.9847716,28.4097617 72.9847716,27.8596739 C72.9847716,27.2080034 73.0575483,26.6200488 73.2023974,26.0951298 C73.3479507,25.5706643 73.5627594,25.123066 73.8477623,24.7530151 C74.1322957,24.3816038 74.4856148,24.0968097 74.9065458,23.8974993 C75.3284158,23.6981888 75.8148459,23.5986469 76.3674792,23.5986469 C76.8264419,23.5986469 77.2464338,23.6956945 77.6269855,23.8893364 C78.007772,24.0829782 78.3838631,24.3675455 78.7559633,24.7437185 L78.7559633,21.0221223 C78.7559633,20.9828951 78.7660581,20.9445749 78.7867173,20.9082954 C78.806907,20.8722427 78.8461125,20.8434458 78.9040991,20.8237188 C78.9623205,20.8046721 79.036271,20.7876661 79.1264202,20.7736078 C79.2163346,20.7595495 79.331134,20.7522936 79.4705835,20.7522936 C79.6156673,20.7522936 79.7353967,20.7595495 79.8281283,20.7736078 C79.9213295,20.7876661 79.9938714,20.8046721 80.0464584,20.8237188 C80.0985759,20.8434458 80.1375467,20.8722427 80.1640749,20.9082954 C80.1901337,20.9445749 80.2030457,20.9828951 80.2030457,21.0221223 L80.2030457,31.5558744 Z M78.7559633,26.2255092 C78.3667254,25.7602247 77.9899299,25.4051391 77.6269855,25.160706 C77.2635716,24.9164996 76.8846633,24.7942831 76.4893215,24.7942831 C76.1233251,24.7942831 75.8120287,24.8788597 75.5563712,25.0471058 C75.3007138,25.215352 75.0927133,25.4380174 74.9333088,25.7123811 C74.7734349,25.987425 74.6569922,26.2985217 74.5844502,26.6474851 C74.5116735,26.9953148 74.4757547,27.3488132 74.4757547,27.7077535 C74.4757547,28.0895952 74.5058045,28.463274 74.5670777,28.8278829 C74.6281163,29.1929454 74.7342294,29.5169666 74.8851823,29.8004002 C75.0366048,30.0840605 75.2368581,30.3114876 75.4868812,30.482228 C75.7364349,30.6538754 76.0503137,30.7391322 76.428283,30.7391322 C76.6200848,30.7391322 76.8046089,30.7141901 76.9816206,30.6633988 C77.1591018,30.613061 77.3408088,30.5291646 77.5267415,30.4108028 C77.712909,30.2931211 77.9072932,30.1398403 78.1110679,29.9520939 C78.3141384,29.7643475 78.5296513,29.5323854 78.7559633,29.2571147 L78.7559633,26.2255092 Z" id="Fill-21" fill="#364657"></path>
                    <path d="M42.4198628,19.2489393 C42.1733369,18.5511065 41.4122469,18.0350252 40.5984889,18.0155766 C39.0740835,17.9794579 37.6656467,18.3522219 36.413483,19.1655883 C35.8415528,19.5369632 35.3749587,20.0634634 34.7780545,20.3857538 C33.8673675,20.8770614 33.0951505,21.4982576 32.3689252,22.192849 C30.197173,24.2949139 26.2992449,18.4536322 26.1209649,16.8440325 C26.0626097,16.3182269 26.013898,15.7847807 26.0420865,15.2587436 C26.1036562,14.1168354 26.321499,12.9744642 26.2858925,11.8374181 C26.2317408,10.1150631 26.0324431,8.39594954 25.8645483,6.67799362 C25.738689,5.38906361 25.566838,4.10383809 25.4118011,2.81722339 C25.3235266,2.08419799 25.1499446,1.37201033 24.6729652,0.765863621 C24.211811,0.179396995 23.586471,-0.0914936295 22.8018905,0.0275130209 C22.0229973,0.14559355 21.5929987,0.618378725 21.4706012,1.3101917 C21.3751559,1.84896306 21.2821832,2.41343429 21.3511709,2.9480381 C21.6555575,5.31173244 21.3870247,7.64856926 21.0074688,9.97429261 C20.7755317,11.3965842 20.6879989,12.8144766 20.7386888,14.246724 C20.7488268,14.5310434 20.6875044,14.801934 20.3153665,14.8463878 C19.9499048,14.8901471 19.8705319,14.6238871 19.7958571,14.3747603 C19.2798094,12.6542576 18.7115882,10.9453313 18.2645282,9.20931601 C17.602098,6.63886497 16.6975927,4.14713429 15.66797,1.69152235 C15.5421108,1.39145889 15.3618526,1.09695216 15.1437625,0.84828846 C14.5953227,0.222924719 13.5221809,0.100676643 12.6461114,0.527387259 C11.8904613,0.895752202 11.5672824,1.55468786 11.8266663,2.37523177 C12.4094762,4.21821414 12.9042589,6.07045772 13.1819405,7.98428841 C13.4358845,9.73604778 13.8856644,11.4632649 14.2545878,13.2002063 C14.4533911,14.1353578 14.6724703,15.0665733 14.8586628,16.003577 C14.884626,16.1341602 14.7736028,16.2883595 14.7258801,16.4316768 C14.5819703,16.364996 14.3839089,16.3342025 14.301816,16.2263093 C13.4732219,15.136264 12.6223737,14.0580267 11.8583165,12.9286211 C10.7866583,11.3437952 9.7738498,9.72609197 9.02932675,7.97039658 C8.7387872,7.28437186 8.35947854,6.6124705 7.9042587,6.01141746 C7.36546238,5.30015592 6.45304455,5.19365191 5.5890912,5.6124905 C4.76346434,6.01257511 4.40888245,6.75254642 4.66356819,7.5971695 C4.75357363,7.8967699 4.88833453,8.18595143 5.02161182,8.47212306 C5.56807344,9.64528784 6.13604736,10.8094229 6.66767292,11.988376 C7.03214551,12.7964172 7.30685993,13.6417349 7.69779017,14.4375051 C8.42797169,15.9234675 9.20983217,17.3874345 9.97932926,18.8564952 C10.161071,19.2033278 10.3979535,19.5251551 10.5732663,19.8745346 C10.733743,20.1935835 10.5275218,20.4151582 10.2619562,20.5876484 C9.99490713,20.7615277 9.78547138,20.6770191 9.54018182,20.4934155 C8.74917244,19.9011606 7.95667945,19.3056643 7.11893648,18.774765 C6.25621946,18.2276585 5.44913768,17.6437387 4.81316515,16.8595451 C4.2362896,16.148052 3.63740722,15.4511454 3.0197325,14.7702143 C2.79793337,14.5254866 2.51629545,14.311321 2.22254142,14.1432299 C1.39419462,13.6690555 0.369764525,14.0635834 0.088868415,14.9359901 C-0.0876807248,15.4847173 0.00825914389,16.0133013 0.293111538,16.4921063 C0.678849154,17.1408546 1.10736408,17.7685336 1.54354431,18.3894983 C2.98115874,20.4353013 4.86237142,22.1023206 6.77152535,23.7471129 C7.2596318,24.1675722 7.81994041,24.5785387 8.12828324,25.1059651 C8.97418605,26.5525673 9.68755337,28.0667764 10.485239,29.5390786 C11.0166173,30.5193785 11.5929983,31.4795352 12.1767973,32.432283 C12.7699926,33.4005434 13.499185,34.3657938 14.4249553,35.1578595 C14.2795619,34.9517974 14.1744731,34.7427254 14.1114198,34.54222 C13.6628762,33.1113618 13.7321112,32.5834724 13.526879,31.4948163 C13.3995361,29.9044336 12.9334365,27.7338356 12.9428327,27.4837828 C12.9492616,27.3103665 12.9848682,27.1350979 12.9687958,26.9639969 C12.9319529,26.5775726 12.8669215,26.1939266 12.8209297,25.8084284 C12.7573819,25.2749823 13.0199802,24.9621847 13.5911686,25.0339591 C13.8577232,25.067531 14.1477682,25.2043655 14.3258009,25.3780133 C15.366798,26.2444003 15.349242,27.3705644 15.2921231,27.71786 C15.5641176,28.1797633 15.754761,29.0260071 15.7406667,29.3582533 C16.1259098,28.9623362 16.5761843,28.7798902 16.7294903,28.2999276 C16.9760162,27.5293943 17.4309888,24.3940089 17.8214245,23.2363567 C17.8493657,22.5223168 18.2242235,21.0377436 18.3535446,20.5816286 C18.4190705,20.3505612 18.5328136,20.1227352 18.6688109,19.9194515 C18.8918463,19.5867422 19.2889583,19.4392573 19.6334022,19.5189038 C20.0512846,19.6152205 20.3106684,19.8898156 20.3376206,20.3239352 C20.3784198,21.0298715 20.0915892,22.5709382 19.9659772,23.4440395 C19.9479267,24.3201507 19.8796808,25.5789818 19.8153912,26.4631965 C19.8111877,26.4851919 19.8057478,26.5516412 19.9073748,26.5664591 C19.9575701,26.5618285 19.997133,26.4113337 20.0154308,26.3555349 C20.3465222,25.3358748 20.6140659,24.3055643 21.0648349,23.3046582 C21.1995958,22.7401869 22.0242336,20.7006352 22.2833702,20.1843223 C22.5143182,19.7238083 23.0736377,19.566136 23.5765802,19.7715035 C24.0725993,19.9740927 24.2466757,20.3498666 24.0651812,20.8634011 C23.7635146,21.7168224 23.2919751,23.7920298 23.1342183,24.1379363 C23.1028153,24.6021548 22.6678714,25.5597647 22.5966583,25.8496409 C22.5256925,26.1385909 22.0568729,27.1781626 22.3095805,27.2941593 C22.51234,27.387003 23.3258508,25.5245721 23.4989382,25.2719724 C23.7588165,24.6804121 24.0303165,24.0930193 24.2914312,23.5019221 C24.4593259,23.1222122 24.5864215,22.7239798 24.7874502,22.3611716 C25.0601865,21.8689379 25.6931918,21.7640546 26.1706657,22.0930593 C26.5645632,22.3641815 26.6580304,22.7228222 26.4824703,23.2391351 C26.230999,23.9786433 25.675883,25.2138582 25.4125429,25.690811 C25.1558791,26.4574083 24.5985377,28.0848358 24.1588957,28.778038 C24.0676539,28.9220499 23.9600924,29.207527 24.0231457,29.2672618 C24.0439162,29.2938878 24.0879299,29.2931932 24.1220528,29.2698086 C24.191535,29.2033594 24.2370323,29.1584425 24.307009,29.0929194 C24.6455185,28.7757227 25.0003477,28.4721862 25.3183339,28.1383193 C25.6251932,27.816029 25.9216671,27.4789206 26.1723966,27.1177331 C26.4191698,26.7616393 26.5920099,26.3608601 26.8194962,25.9918006 C26.9149415,25.8366752 27.0551423,25.7003037 27.1960849,25.5764349 C27.623858,25.2011241 28.3619521,25.4720147 28.437616,26.0385697 C28.4638264,26.2358336 28.437616,26.4532407 28.3755518,26.6444849 C28.1421311,27.3645446 27.7640588,28.0295 27.3283731,28.6525485 C26.8390303,29.3526965 26.2985031,30.0271447 25.7218748,30.6668634 C25.1855512,31.2623597 24.8017917,31.9321773 24.5213901,32.6441334 C24.0491088,33.8432296 23.4556663,34.9737928 22.5899821,35.9619647 C22.3357909,36.2520724 22.040306,36.5083766 21.7099564,36.7155963 L23.5085816,36.500273 C28.5506174,35.8966731 29.110926,34.2581322 29.9832864,33.2018902 C31.353644,31.5425115 32.0395646,30.4429734 33.2521655,28.7842893 C33.7249413,28.1373932 34.2187349,27.4638711 34.8505039,26.9674699 C36.1451976,25.9498935 37.3521112,24.8660995 38.5108077,23.7128464 C39.495675,22.7325464 40.662284,21.9124656 41.7472947,21.0203788 C42.3224393,20.5473621 42.6834502,19.9951619 42.4198628,19.2489393" id="Fill-23" fill="#364657"></path>
                    <path d="M10.3435167,86.9500649 L10.3435167,83.6677575 L13.7750178,83.6677575 L13.7750178,83.0888804 L10.3435167,83.0888804 L10.3435167,80.4846268 L14.4120415,80.4846268 L14.4120415,79.8659865 L9.62436548,79.8659865 L9.62436548,86.9500649 L10.3435167,86.9500649 Z M19.4153915,86.7057066 C19.8329325,86.5096652 20.1942935,86.2465812 20.4992364,85.9173795 C20.8039414,85.5881778 21.0436584,85.2074228 21.2183877,84.7748832 C21.3931169,84.3428059 21.4804815,83.890616 21.4804815,83.4183133 C21.4804815,82.9725963 21.398116,82.5349708 21.233861,82.1061301 C21.0693679,81.6770582 20.8382207,81.2928354 20.5404192,80.9539241 C20.2423797,80.6145505 19.8826851,80.3399075 19.4615734,80.1304575 C19.0402236,79.9212387 18.5762627,79.8165138 18.0694528,79.8165138 C17.5831151,79.8165138 17.1310568,79.9143033 16.7132778,80.110576 C16.2954988,80.3070798 15.9324715,80.5713196 15.6241958,80.903989 C15.3159201,81.2364273 15.0745367,81.6188006 14.9000455,82.0513402 C14.7253163,82.4838798 14.6379517,82.9360698 14.6379517,83.4083725 C14.6379517,83.8607936 14.7200792,84.3028116 14.8845722,84.7351201 C15.0488272,85.1674285 15.2816408,85.5516512 15.5832511,85.8875572 C15.8843852,86.2234631 16.2457462,86.492789 16.667096,86.6955347 C17.0882077,86.8985116 17.5521686,87 18.0592166,87 C18.5453161,87 18.9973745,86.9019793 19.4153915,86.7057066 L19.4153915,86.7057066 Z M15.5470674,82.330838 C15.6739484,81.9780558 15.8536767,81.6620314 16.0864903,81.3827648 C16.3193039,81.103267 16.6035364,80.8787903 16.939188,80.7091035 C17.2748395,80.5396478 17.648103,80.4548044 18.0592166,80.4548044 C18.4562852,80.4548044 18.8193125,80.5361801 19.1482986,80.6991627 C19.4770467,80.8623765 19.7610412,81.0801489 20.0009963,81.3527113 C20.2407134,81.625736 20.4273451,81.939911 20.5608916,82.2956985 C20.694438,82.651486 20.7610922,83.0225314 20.7610922,83.4083725 C20.7610922,83.7741008 20.6977707,84.1331248 20.5711278,84.4856758 C20.4442467,84.8382268 20.2645184,85.15402 20.0317048,85.4335178 C19.7988912,85.7127844 19.5144206,85.9391105 19.1790072,86.1120339 C18.8433556,86.2849573 18.4700921,86.3714189 18.0592166,86.3714189 C17.6550065,86.3714189 17.2886464,86.2902744 16.9598984,86.1268295 C16.6311503,85.9640781 16.3466797,85.7444562 16.1072007,85.4684261 C15.8672456,85.192396 15.6822802,84.8763716 15.5523045,84.5205841 C15.4220907,84.1647966 15.3571029,83.7942135 15.3571029,83.4083725 C15.3571029,83.0426442 15.4204244,82.6831578 15.5470674,82.330838 L15.5470674,82.330838 Z M24.2542485,86.1219747 C23.9528763,85.9557556 23.7112548,85.7361336 23.5298601,85.4633401 C23.3484655,85.1910089 23.2199181,84.8782211 23.1446941,84.5256701 C23.069232,84.1731191 23.03162,83.8106274 23.03162,83.4381948 L23.03162,79.8659865 L22.3227049,79.8659865 L22.3227049,83.4381948 C22.3227049,83.890616 22.3741239,84.3293975 22.4769618,84.7550016 C22.5795617,85.1810681 22.7507201,85.5599737 22.9906753,85.8926432 C23.2301543,86.2250814 23.5469998,86.492789 23.9409737,86.6955347 C24.3347096,86.8985116 24.8193809,87 25.3947495,87 C25.9563111,87 26.4324125,86.9035975 26.8228157,86.7105614 C27.2132189,86.5177565 27.5298264,86.2583715 27.7731142,85.9326375 C28.016164,85.6064411 28.1925596,85.2291538 28.3023009,84.7998507 C28.4115662,84.3712412 28.4665559,83.9169706 28.4665559,83.4381948 L28.4665559,79.8659865 L27.7474047,79.8659865 L27.7474047,83.4381948 C27.7474047,83.7972189 27.7114591,84.1530064 27.6395677,84.5057885 C27.5676764,84.8583395 27.4407954,85.1727456 27.2594007,85.4485445 C27.077768,85.7245746 26.8347183,85.947433 26.5300133,86.1168887 C26.2250704,86.2865755 25.843237,86.3714189 25.3842752,86.3714189 C24.932455,86.3714189 24.5556207,86.288425 24.2542485,86.1219747 L24.2542485,86.1219747 Z M35.0417548,86.9500649 L35.6685424,86.9500649 L35.6685424,79.8761585 L34.9493911,79.8761585 L34.9493911,85.7627195 L30.1205323,79.8659865 L29.5658742,79.8659865 L29.5658742,86.9500649 L30.2850254,86.9500649 L30.2850254,81.1633741 L35.0417548,86.9500649 Z M39.2540623,86.9500649 C39.7882481,86.9500649 40.2693486,86.8652215 40.6973638,86.6955347 C41.125379,86.526079 41.4919771,86.2865755 41.796682,85.9772554 C42.1013869,85.6679353 42.3361049,85.2957339 42.500598,84.8597266 C42.664853,84.4241816 42.7469805,83.9368522 42.7469805,83.3984317 C42.7469805,82.9127205 42.6734228,82.4554445 42.5263075,82.0261415 C42.3789541,81.5973008 42.1597094,81.22325 41.8685733,80.903989 C41.5774373,80.5844969 41.21441,80.3318161 40.7797293,80.1454843 C40.3445726,79.9596148 39.8360963,79.8659865 39.2540623,79.8659865 L36.7778587,79.8659865 L36.7778587,86.9500649 L39.2540623,86.9500649 Z M41.848101,84.5605784 C41.7281234,84.9163659 41.5517278,85.2256861 41.3189142,85.4885388 C41.0861006,85.7511604 40.7966309,85.9573738 40.4509813,86.1071791 C40.1048556,86.256522 39.7061206,86.3314246 39.2540623,86.3314246 L37.4970099,86.3314246 L37.4970099,80.4846268 L39.2540623,80.4846268 C39.6992171,80.4846268 40.092953,80.556524 40.435508,80.6991627 C40.7778249,80.8422637 41.0672946,81.0433912 41.303679,81.3027762 C41.5398253,81.5621613 41.7197916,81.8700943 41.8431019,82.2256506 C41.9661741,82.5816693 42.0278293,82.9725963 42.0278293,83.3984317 C42.0278293,83.8171004 41.9678405,84.2047909 41.848101,84.5605784 L41.848101,84.5605784 Z M42.613434,86.9500649 L43.3840042,86.9500649 L44.3190674,84.7351201 L47.5963117,84.7351201 L48.5416111,86.9500649 L49.3019451,86.9500649 L46.2710833,79.8659865 L45.6647681,79.8659865 L42.613434,86.9500649 Z M44.4730862,84.1862964 L45.9628076,80.6841359 L47.4320567,84.1862964 L44.4730862,84.1862964 Z M54.0484383,79.8659865 L48.1304975,79.8659865 L48.1304975,80.4846268 L50.7297733,80.4846268 L50.7297733,86.9500649 L51.4491625,86.9500649 L51.4491625,80.4846268 L54.0484383,80.4846268 L54.0484383,79.8659865 Z M55.0344444,86.9500649 L55.7535956,86.9500649 L55.7535956,79.8659865 L55.0344444,79.8659865 L55.0344444,86.9500649 Z M61.4658607,86.7057066 C61.8836397,86.5096652 62.2450007,86.2465812 62.5497056,85.9173795 C62.8544105,85.5881778 63.0943656,85.2074228 63.2688568,84.7748832 C63.443586,84.3428059 63.5309506,83.890616 63.5309506,83.4183133 C63.5309506,82.9725963 63.4488231,82.5349708 63.2843301,82.1061301 C63.119837,81.6770582 62.8886898,81.2928354 62.5908884,80.9539241 C62.2928489,80.6145505 61.9333923,80.3399075 61.5120425,80.1304575 C61.0909308,79.9212387 60.6267319,79.8165138 60.1199219,79.8165138 C59.6335843,79.8165138 59.181526,79.9143033 58.763747,80.110576 C58.3459679,80.3070798 57.9829406,80.5713196 57.6746649,80.903989 C57.3666273,81.2364273 57.1250058,81.6188006 56.9505146,82.0513402 C56.7757854,82.4838798 56.6884208,82.9360698 56.6884208,83.4083725 C56.6884208,83.8607936 56.7705483,84.3028116 56.9350413,84.7351201 C57.0995344,85.1674285 57.3321099,85.5516512 57.6337202,85.8875572 C57.9350924,86.2234631 58.2962153,86.492789 58.7175651,86.6955347 C59.1389149,86.8985116 59.6026377,87 60.1096857,87 C60.5960233,87 61.0480816,86.9019793 61.4658607,86.7057066 L61.4658607,86.7057066 Z M57.5977745,82.330838 C57.7244175,81.9780558 57.9041458,81.6620314 58.1371975,81.3827648 C58.369773,81.103267 58.6542436,80.8787903 58.9898951,80.7091035 C59.3253086,80.5396478 59.6988102,80.4548044 60.1096857,80.4548044 C60.5067543,80.4548044 60.8700197,80.5361801 61.1987678,80.6991627 C61.5275158,80.8623765 61.8115103,81.0801489 62.0514654,81.3527113 C62.2911825,81.625736 62.4778143,81.939911 62.6113607,82.2956985 C62.7449072,82.651486 62.8117994,83.0225314 62.8117994,83.4083725 C62.8117994,83.7741008 62.7482399,84.1331248 62.6215969,84.4856758 C62.4949539,84.8382268 62.3149876,85.15402 62.082174,85.4335178 C61.8493604,85.7127844 61.5651278,85.9391105 61.2294763,86.1120339 C60.8938248,86.2849573 60.5205613,86.3714189 60.1096857,86.3714189 C59.7054756,86.3714189 59.3391155,86.2902744 59.0103675,86.1268295 C58.6816195,85.9640781 58.3973869,85.7444562 58.1576698,85.4684261 C57.9177147,85.192396 57.7329873,84.8763716 57.6027736,84.5205841 C57.4725599,84.1647966 57.407572,83.7942135 57.407572,83.4083725 C57.407572,83.0426442 57.4708935,82.6831578 57.5977745,82.330838 L57.5977745,82.330838 Z M69.9521307,86.9500649 L70.5786802,86.9500649 L70.5786802,79.8761585 L69.859529,79.8761585 L69.859529,85.7627195 L65.0309082,79.8659865 L64.476012,79.8659865 L64.476012,86.9500649 L65.1951632,86.9500649 L65.1951632,81.1633741 L69.9521307,86.9500649 Z" id="Fill-25" fill="#364657"></path>
                    <path d="M77.1573632,81.4350277 L77.7969543,81.4350277 L77.7969543,84.6055046 L77.338566,84.6055046 L77.338566,82.1999811 L76.5366611,84.139648 L76.1549271,84.139648 L75.3525829,82.1999811 L75.3525829,84.6055046 L74.8944142,84.6055046 L74.8944142,81.4350277 L75.5245608,81.4350277 L76.3361299,83.5077964 L77.1573632,81.4350277 Z M74.4551346,81.9449966 L73.5480222,81.9449966 L73.5480222,84.6055046 L73.0896339,84.6055046 L73.0896339,81.9449966 L72.1827411,81.9449966 L72.1827411,81.412844 L74.4551346,81.412844 L74.4551346,81.9449966 Z" id="Fill-27" fill="#364657"></path>
                </g>
            </g>
        </g>
    </g>
</svg>