<?xml version="1.0" encoding="UTF-8"?>
<svg width="214px" height="51px" viewBox="0 0 214 51" version="1.1" xmlns="http://www.w3.org/2000/svg" xmlns:xlink="http://www.w3.org/1999/xlink">
    <!-- Generator: Sketch 53.2 (72643) - https://sketchapp.com -->
    <title>Group 50 Copy</title>
    <desc>Created with Sketch.</desc>
    <g id="Page-1" stroke="none" stroke-width="1" fill="none" fill-rule="evenodd">
        <g id="Product-Detail-/-Lavender" transform="translate(-278.000000, -5666.000000)" fill="#364657" fill-rule="nonzero">
            <g id="Group-52" transform="translate(60.000000, 5630.000000)">
                <g id="Group-50-Copy" transform="translate(218.000000, 36.000000)">
                    <path d="M0.0196633424,25.843262 C0.00898513952,24.1196668 0.31548141,22.4092545 0.923333,20.8003044 C2.10836603,17.6334855 4.52089826,15.1010802 7.59568698,13.7964168 C9.28570082,13.0816757 11.1019018,12.7270793 12.9320121,12.7545489 C15.2625188,12.6913396 17.564461,13.2879425 19.5809953,14.4777905 C21.3789475,15.5527085 22.8299518,17.1371801 23.7565724,19.0374481 L18.65785,20.6854217 C18.0814347,19.6476168 17.2421513,18.7858302 16.2272903,18.1896925 C15.198285,17.5881324 14.0292159,17.2789149 12.8424242,17.2943991 C11.8314443,17.2859703 10.8307179,17.5008783 9.90939291,17.9242736 C9.00968588,18.3405215 8.20562439,18.9437187 7.54894545,19.6950529 C6.86931117,20.4850809 6.34088423,21.3973646 5.99089431,22.3848944 C5.59715951,23.4878109 5.40316511,24.6541553 5.41831052,25.8274161 C5.40889089,26.9932591 5.61091988,28.1508757 6.01426508,29.2422075 C6.38511418,30.2478345 6.93434226,31.1756735 7.63463826,31.9795866 C8.30134475,32.742103 9.11202283,33.360468 10.0184565,33.7979036 C10.9161425,34.2449665 11.9013391,34.4805667 12.9008511,34.4872002 C13.545894,34.4863866 14.1878833,34.3971092 14.8094637,34.2217814 C15.9947649,33.897399 17.0715746,33.2526286 17.925566,32.3559267 C18.3034658,31.9650365 18.6036811,31.5036803 18.80976,30.9971408 L23.9552239,32.5460775 C23.0850074,34.5054694 21.6364883,36.1406574 19.8108079,37.2245794 C17.7360037,38.4732833 15.3577266,39.1033759 12.9475926,39.0428964 C11.1305924,39.0670609 9.32874509,38.7040617 7.65800902,37.9772596 C6.11070092,37.3013353 4.71411082,36.3135387 3.55254429,35.0734985 C2.42338833,33.859649 1.53352015,32.4368896 0.931123256,30.8822581 C0.307179066,29.2784902 -0.00883034376,27.5679849 0.000187703281,25.843262" id="Shape"></path>
                    <path d="M31.7238974,25.9887233 C31.7117836,27.1434389 31.9050683,28.2908493 32.2944014,29.3754481 C32.6441094,30.3601018 33.1705139,31.2699881 33.8467931,32.0587457 C34.5030321,32.8104411 35.3016793,33.4193546 36.1947857,33.8489281 C38.048316,34.7174965 40.1821295,34.7174965 42.0356598,33.8489281 C42.9338383,33.4155195 43.7344986,32.7980065 44.3875333,32.0350347 C45.0606803,31.2351168 45.5865678,30.3180918 45.9399251,29.328026 C46.6981572,27.1457053 46.6981572,24.7645601 45.9399251,22.5822394 C45.5903608,21.5832048 45.0642342,20.6577269 44.3875333,19.8515197 C43.734882,19.0881298 42.9341296,18.4705459 42.0356598,18.0376263 C41.1232324,17.5999469 40.1257311,17.3770843 39.1171632,17.3855731 C38.1214005,17.3815197 37.1383011,17.6128431 36.2452384,18.0613373 C35.348715,18.5079367 34.5490496,19.1327444 33.8933649,19.8989417 C33.2084613,20.7061396 32.6697041,21.6307206 32.3021633,22.6296614 C31.902011,23.7037187 31.7006856,24.8439541 31.7083735,25.9926752 M39.1171632,39.0337389 C37.2987703,39.0630661 35.4948139,38.700805 33.8235073,37.9706946 C30.788089,36.6410788 28.4156032,34.1096949 27.2530091,30.9601349 C26.049992,27.7358978 26.049992,24.1743676 27.2530091,20.9501305 C27.8261743,19.380408 28.7068971,17.9457924 29.8416224,16.7335199 C30.9910559,15.5230847 32.3623005,14.5537438 33.877841,13.8802932 C38.8324281,11.64793 44.6276582,12.7855934 48.412109,16.7335199 C49.5412566,17.9366127 50.4215425,19.3584219 51.0007223,20.914564 C52.2037393,24.1388011 52.2037393,27.7003312 51.0007223,30.9245684 C50.4247044,32.4893418 49.5442281,33.9195234 48.412109,35.1293235 C47.2626101,36.3396805 45.8913817,37.3090099 44.3758904,37.9825502 C42.7198589,38.7090732 40.9318254,39.0713237 39.1288062,39.0455944" id="Shape"></path>
                    <path d="M62.2830234,26.6729148 C62.2992555,27.634089 61.961173,28.5601126 61.3487319,29.2319822 C60.7622301,29.9144992 59.9503445,30.2941704 59.1057053,30.2809141 C58.6769914,30.2860017 58.2517313,30.1943997 57.8551362,30.0115386 C57.4754036,29.8338294 57.132545,29.569799 56.8481373,29.2360636 C56.5599157,28.8989865 56.3261834,28.5081307 56.1574159,28.0810141 C55.9806992,27.6397873 55.8913942,27.1607532 55.8956689,26.6769962 C55.8944615,26.2067352 55.9837465,25.7417302 56.1574159,25.3137928 C56.4920806,24.4622314 57.0973617,23.7812253 57.8551362,23.4036755 C58.6534826,23.0112748 59.5615635,23.0112748 60.3599098,23.4036755 C60.7344025,23.5920357 61.0755375,23.8547387 61.3669088,24.1791505 C61.9551471,24.8424945 62.2846683,25.7409554 62.2830234,26.6769962" id="Shape"></path>
                    <polygon id="Rectangle-path" points="67.0746269 15.140625 71.8656716 15.140625 71.8656716 39.046875 67.0746269 39.046875"></polygon>
                    <path d="M114.985075,39.0312924 L109.832838,39.0312924 L109.832838,25.4471738 C109.832838,23.190296 109.451045,21.5359449 108.687459,20.4841204 C107.940251,19.4512386 106.714382,18.8643956 105.43238,18.9258619 C103.934284,18.9382095 102.496163,19.5100631 101.405842,20.5269725 C100.158098,21.6408031 99.2500823,23.0779198 98.7844595,24.6758358 L98.7844595,39.046875 L93.624351,39.046875 L93.624351,25.4471738 C93.624351,23.1617279 93.2569901,21.5008841 92.5222683,20.4646422 C91.7824884,19.423069 90.5514633,18.8337577 89.2671884,18.9063836 C87.784778,18.9214635 86.3598569,19.4761572 85.2642668,20.4646422 C84.0018179,21.5608942 83.0838053,22.9927481 82.6192684,24.5901316 L82.6192684,39.0040229 L77.4552239,39.0040229 L77.4552239,14.7886855 L82.1390752,14.7886855 L82.1390752,19.6543477 C83.0311916,18.0310242 84.3504454,16.6768393 85.9570044,15.7353275 C87.6038037,14.8057854 89.4735561,14.3333832 91.3690175,14.3679557 C93.4288625,14.3679557 95.0373784,14.8873752 96.1945652,15.9262142 C97.3441759,16.9655484 98.1183358,18.3488509 98.3987305,19.8647126 C99.3172871,18.1893083 100.656622,16.7764972 102.287508,15.7625971 C103.883757,14.8103696 105.717887,14.3204352 107.581441,14.3484775 C108.827731,14.3032897 110.064171,14.5826994 111.167145,15.1587719 C112.094371,15.6774769 112.875247,16.4181985 113.438223,17.3130643 C114.01933,18.272525 114.419431,19.3285204 114.619026,20.4295813 C114.858692,21.6750386 114.976007,22.9405302 114.969331,24.2083582 L114.969331,39.0118142 L114.985075,39.0312924 Z" id="Shape"></path>
                    <path d="M131.641135,34.4617049 C132.63328,34.4706156 133.612682,34.2310669 134.495132,33.7636549 C135.354456,33.3101842 136.110615,32.6739371 136.713639,31.8969593 C137.329427,31.0985888 137.811708,30.1999747 138.140638,29.2380947 C138.49202,28.2426776 138.671052,27.1914019 138.669578,26.1321642 C138.675181,25.0473574 138.482842,23.971134 138.102584,22.9595661 C137.743934,21.9960319 137.213472,21.1101812 136.538594,20.347761 C135.875149,19.6018965 135.074471,18.9993647 134.183095,18.5751845 C133.275338,18.1388598 132.28506,17.9151973 131.283435,17.9202724 C130.602159,17.9350784 129.928128,18.0676415 129.289442,18.3124354 C128.592435,18.5637139 127.930874,18.9092197 127.322087,19.3399022 C126.717771,19.7622758 126.176746,20.273593 125.716238,20.8575728 C125.273558,21.4116147 124.949377,22.0557375 124.764906,22.7477981 L124.764906,29.1400539 C125.067006,29.8889529 125.462265,30.5942161 125.940753,31.2381256 C126.405743,31.873658 126.953835,32.4398206 127.569433,32.9205046 C128.166804,33.382209 128.822232,33.7581973 129.517762,34.0381689 C130.194783,34.3150932 130.916543,34.4574699 131.644941,34.4577833 M133.231763,38.8460865 C131.467914,38.8843061 129.730696,38.398267 128.227755,37.4460648 C126.811655,36.530717 125.625204,35.2838194 124.764906,33.8067928 L124.764906,50.203125 L119.776119,50.203125 L119.776119,13.9751133 L124.167469,13.9751133 L124.167469,18.3634165 C125.055142,16.9198405 126.267883,15.7184662 127.70262,14.8614016 C129.184504,13.9792594 130.869848,13.5254018 132.581052,13.5476557 C134.117084,13.5335907 135.635526,13.8852121 137.018065,14.5751226 C138.358949,15.2437195 139.559903,16.1762931 140.553216,17.3202631 C141.564308,18.4977547 142.355184,19.8579406 142.885883,21.3320899 C143.447534,22.8660999 143.733786,24.4925899 143.730666,26.1321642 C143.746362,27.8217357 143.489161,29.5022243 142.9696,31.1047902 C142.497156,32.5835651 141.75731,33.9567883 140.789147,35.1519117 C139.867917,36.2763104 138.735262,37.196787 137.459484,37.8578359 C136.146541,38.5345871 134.695874,38.8787605 133.227958,38.861773" id="Shape"></path>
                    <path d="M154.912939,35.3545988 C156.113115,35.3618963 157.303028,35.1367653 158.414924,34.6920256 C159.423793,34.3147341 160.31087,33.6770864 160.983046,32.8460122 C161.555973,32.442919 161.913424,31.806811 161.955819,31.114896 L161.955819,27.9705455 C161.063688,27.6315443 160.141403,27.3751087 159.200925,27.2045649 C158.26236,27.0255465 157.308667,26.9344982 156.352644,26.9326417 C154.5368,26.9326417 153.046511,27.315632 151.881777,28.0816127 C150.79553,28.7313667 150.135281,29.8944375 150.142458,31.1455352 C150.122636,32.2859064 150.613618,33.3770946 151.484886,34.1290298 C152.426687,34.9517466 153.654578,35.3852446 154.912939,35.3392792 M153.523819,39.0313058 C152.40911,39.041554 151.302151,38.8480581 150.259191,38.4606503 C149.298522,38.1066311 148.41702,37.5719988 147.663831,36.8865601 C146.938145,36.2166792 146.356018,35.4106107 145.95175,34.51585 C145.531445,33.5828614 145.319153,32.5720512 145.329175,31.551505 C145.311991,30.4854761 145.566149,29.4321658 146.068483,28.4875824 C146.581419,27.5524722 147.300737,26.742387 148.173565,26.1168724 C149.153498,25.4216562 150.250913,24.9029736 151.414846,24.5849111 C152.762087,24.2064402 154.157907,24.0219677 155.558861,24.0372349 C156.69279,24.037075 157.824447,24.1370533 158.940221,24.3359674 C159.9655,24.5102679 160.972338,24.7769289 161.948037,25.1325872 L161.948037,23.4895588 C161.948037,21.7278033 161.438304,20.3528681 160.418837,19.3647531 C159.399371,18.376638 157.937616,17.8876871 156.033574,17.8979001 C154.727959,17.8994823 153.433868,18.1383897 152.216411,18.6026023 C150.85296,19.1323053 149.555328,19.8133212 148.348664,20.632451 L146.792226,17.4421417 C149.905102,15.3765472 153.14768,14.34375 156.519961,14.34375 C159.892242,14.34375 162.486305,15.1799455 164.302149,16.8523366 C166.154309,18.5221744 167.08039,20.922247 167.08039,24.0525545 L167.08039,32.6698367 C167.039304,33.1041505 167.153527,33.5389586 167.403351,33.8992356 C167.699875,34.1608633 168.087004,34.3006697 168.485075,34.2898857 L168.485075,38.5717175 C168.033711,38.6583422 167.577721,38.719719 167.119301,38.7555528 C166.702954,38.786192 166.341082,38.8015117 165.983101,38.8015117 C165.168041,38.804627 164.376197,38.5344739 163.73794,38.035531 C163.215987,37.5548076 162.880307,36.910255 162.788513,36.2124971 L162.648434,34.7188349 C161.59629,36.0933087 160.220997,37.195954 158.640607,37.9321236 C157.041686,38.6771206 155.292805,39.058049 153.523819,39.0466255" id="Shape"></path>
                    <path d="M171.679474,26.6325008 C171.669224,25.0151074 171.966604,23.4101365 172.556226,21.900635 C173.703854,18.9283917 176.040732,16.5513717 179.019365,15.3264758 C180.657012,14.6551255 182.417093,14.3220937 184.190651,14.3479963 C186.44783,14.2888502 188.677321,14.8485836 190.630513,15.9647808 C192.37386,16.9801242 193.778703,18.4744871 194.672885,20.2647396 L189.730485,21.7936138 C188.584733,19.7976165 186.424747,18.576738 184.097545,18.6097332 C183.118607,18.6024709 182.14973,18.8046019 181.257799,19.202172 C180.38725,19.5923927 179.608983,20.15739 178.972811,20.8610005 C178.308676,21.60178 177.791522,22.4587632 177.448194,23.3874652 C177.067022,24.4222571 176.879074,25.5164718 176.893434,26.6172121 C176.883233,27.7121659 177.079226,28.7994885 177.47147,29.8240258 C177.824768,30.7665729 178.350749,31.6371821 179.023244,32.3925345 C179.668215,33.1082056 180.453358,33.6880477 181.331508,34.0972293 C182.203933,34.506188 183.158572,34.7165059 184.124701,34.7126012 C184.748982,34.7111394 185.370179,34.6262782 185.971312,34.460337 C187.121162,34.1549913 188.166383,33.5503157 188.997271,32.709776 C189.361144,32.3427018 189.650788,31.9107552 189.850747,31.4369881 L194.835821,32.8932409 C194.00702,34.7471117 192.611453,36.2998016 190.843882,37.3346205 C188.834185,38.5078672 186.529827,39.0999601 184.194531,39.0431375 C182.434015,39.06598 180.688202,38.7248346 179.069797,38.0417249 C177.583219,37.4104929 176.241285,36.4900713 175.124412,35.3356175 C174.029399,34.1957127 173.166767,32.8592255 172.583382,31.3987663 C171.973842,29.8820482 171.666935,28.2637381 171.679474,26.6325008" id="Shape"></path>
                    <path d="M211.604478,38.1786022 C210.93748,38.4960513 210.046453,38.8521813 208.931397,39.246992 C207.767091,39.6541375 206.54629,39.8556233 205.318919,39.8432095 C204.572687,39.8494227 203.829842,39.7374518 203.115537,39.5110883 C202.454586,39.3014234 201.837725,38.9619353 201.297843,38.5107234 C200.75344,38.0464465 200.3249,37.4504585 200.049132,36.7740898 C199.732883,35.9496935 199.584601,35.0651232 199.613802,34.1771424 L199.613802,18.611464 L196.432836,18.611464 L196.432836,14.5699896 L199.613802,14.5699896 L199.613802,6.375 L204.612462,6.375 L204.612462,14.5699896 L209.79442,14.5699896 L209.79442,18.611464 L204.604825,18.611464 L204.604825,32.5165366 C204.604825,33.4075283 204.846675,34.0504295 205.330376,34.4452402 C205.838889,34.8493646 206.46434,35.0584106 207.102246,35.0374563 C207.787077,35.0344343 208.465474,34.8987726 209.103238,34.6373103 C209.73714,34.3705463 210.206838,34.1638042 210.512333,34.017084 L211.604478,38.1786022 Z" id="Shape"></path>
                    <path d="M135.850469,46.1272387 C135.775174,46.0485035 135.690774,45.9794503 135.599136,45.9216073 C135.477235,45.840608 135.348693,45.7705776 135.214954,45.7123038 C135.057438,45.6439889 134.893936,45.59112 134.726649,45.5544082 C134.539172,45.5122248 134.347722,45.4912906 134.155763,45.4919844 C133.850455,45.4713648 133.54684,45.5525348 133.290457,45.7233198 C133.09449,45.8762184 132.984438,46.1177892 132.996038,46.3695901 C132.992894,46.4990089 133.026572,46.6265757 133.092981,46.7367891 C133.167078,46.8430188 133.265767,46.9288086 133.380219,46.9864844 C133.530768,47.0679542 133.689731,47.1319979 133.854162,47.1774279 C134.044458,47.2361798 134.267068,47.2949316 134.521992,47.3610275 C134.776916,47.4271233 135.096469,47.529939 135.347802,47.6180668 C135.576614,47.6945815 135.792271,47.8073361 135.986908,47.9522179 C136.158947,48.0798845 136.29917,48.2471921 136.396222,48.4405926 C136.503327,48.66938 136.553876,48.9215589 136.543432,49.1749907 C136.552104,49.4665353 136.489145,49.755649 136.360318,50.0158764 C136.243796,50.2403708 136.076348,50.4330258 135.872012,50.5776909 C135.653741,50.728151 135.410355,50.8364272 135.153916,50.8971541 C134.870532,50.9666505 134.580026,51.0011684 134.28861,50.9999698 C133.827926,51.0006509 133.369978,50.9275496 132.931409,50.7833224 C132.507299,50.6479413 132.108985,50.4392954 131.753731,50.166428 L132.202541,49.3145263 C132.301023,49.4101692 132.408002,49.4962208 132.522094,49.5715656 C132.676398,49.6741312 132.839905,49.7614293 133.010399,49.8322769 C133.210907,49.9156304 133.417366,49.9831479 133.627962,50.0342364 C133.862955,50.0928562 134.104188,50.1212278 134.346058,50.1186922 C134.647083,50.1360593 134.946531,50.0633258 135.207773,49.9093887 C135.409745,49.7789103 135.52765,49.5475626 135.516555,49.3035103 C135.52178,49.1625589 135.482778,49.0235944 135.40525,48.9069354 C135.318077,48.7901314 135.206434,48.6947744 135.078516,48.6278641 C134.910319,48.5382592 134.733424,48.4668796 134.550716,48.4148887 L133.832619,48.2166012 C133.561078,48.1454075 133.293747,48.0583611 133.031942,47.9558899 C132.826556,47.8779538 132.63495,47.7663334 132.464646,47.6254108 C132.313475,47.5026954 132.19084,47.3471755 132.105598,47.170084 C132.02324,46.9691967 131.984057,46.7525541 131.990703,46.5348296 C131.986576,46.252427 132.044233,45.9726528 132.159456,45.7159758 C132.268525,45.4827668 132.428159,45.2780659 132.626218,45.1174414 C132.83998,44.9484853 133.083893,44.8237601 133.344314,44.7502424 C133.627665,44.6654861 133.921585,44.623428 134.216801,44.6253947 C134.613406,44.6191256 135.007751,44.6875865 135.380116,44.8273542 C135.70899,44.9521392 136.019492,45.1226528 136.30287,45.3340888 L135.850469,46.1272387 Z" id="Shape"></path>
                    <path d="M142.401184,47.8253224 C142.400804,48.1168987 142.451443,48.4065938 142.551119,48.6830749 C142.642125,48.9494884 142.785248,49.1980206 142.973305,49.4161967 C143.155243,49.6261062 143.382364,49.7984023 143.640122,49.9220507 C144.195297,50.1797822 144.848656,50.1797822 145.403832,49.9220507 C145.663524,49.7915386 145.890725,49.6116878 146.070649,49.394203 C146.2459,49.1723448 146.379319,48.924446 146.465215,48.6610812 C146.66143,48.1112935 146.66143,47.5173576 146.465215,46.9675699 C146.372029,46.7012792 146.22765,46.452889 146.039083,46.2344481 C145.856259,46.026316 145.629277,45.8553729 145.372267,45.7322597 C144.821813,45.4723676 144.170848,45.4723676 143.620393,45.7322597 C143.362907,45.8610445 143.136094,46.0368475 142.953577,46.2491106 C142.776554,46.4699594 142.642974,46.7181565 142.559011,46.9822323 C142.464188,47.2520427 142.416239,47.5341647 142.416967,47.8179912 M144.520004,50.9997397 C144.070784,51.0055528 143.626298,50.9139284 143.221882,50.7321503 C142.837683,50.5518959 142.495721,50.3027271 142.215738,49.9990285 C141.9318,49.7003238 141.710942,49.3546217 141.564704,48.9799892 C141.413423,48.6036061 141.335917,48.2050959 141.335856,47.8033287 C141.333883,47.3920516 141.415543,46.9841288 141.576541,46.601009 C141.732963,46.2280062 141.96015,45.8841005 142.247303,45.5856353 C142.532228,45.2907589 142.878525,45.0525879 143.265284,44.885504 C143.666152,44.7100666 144.104526,44.6210961 144.547624,44.6252458 C144.998183,44.6194848 145.443556,44.715065 145.845746,44.9038321 C146.22754,45.0859279 146.567848,45.3348678 146.847944,45.6369539 C147.41251,46.2497857 147.72312,47.0296858 147.723881,47.8363192 C147.719695,48.6483046 147.395447,49.4307309 146.812433,50.0356846 C146.526316,50.3268177 146.181889,50.5633791 145.798398,50.7321503 C145.398954,50.9076518 144.961843,50.9966397 144.520004,50.9924085" id="Shape"></path>
                    <path d="M156.119529,50.0922923 C156.414776,50.1025298 156.707394,50.0348076 156.966646,49.8962392 C157.186229,49.7694546 157.371646,49.5931633 157.50744,49.3820622 C157.650966,49.1554442 157.749741,48.9044937 157.798636,48.6422391 C157.856789,48.3684658 157.885937,48.0895582 157.885617,47.8099382 L157.885617,44.625 L158.902914,44.625 L158.902914,47.835832 C158.905192,48.2487868 158.853079,48.6603085 158.747861,49.0602392 C158.652711,49.4238041 158.485691,49.7656232 158.25623,50.0663985 C158.026187,50.358122 157.727888,50.5915453 157.386423,50.7470357 C156.983781,50.9238789 156.545622,51.0098482 156.104402,50.9985756 C155.653216,51.0126196 155.204979,50.9226508 154.795909,50.7359384 C154.454478,50.5735215 154.158558,50.3323114 153.933665,50.0331065 C153.71038,49.7298001 153.5498,49.3867603 153.460943,49.023248 C153.361797,48.6349263 153.312256,48.2360786 153.313454,47.835832 L153.313433,44.625 L154.364787,44.625 L154.364787,47.835832 C154.363432,48.1191719 154.392586,48.4018637 154.451768,48.6792303 C154.501346,48.9412966 154.600074,49.1921269 154.742964,49.4190533 C154.880308,49.6295618 155.068669,49.8036404 155.291321,49.9258321 C155.550214,50.0614633 155.841133,50.1278181 156.134656,50.1181861" id="Shape"></path>
                    <path d="M165.621197,47.8908107 L167.572579,47.8908107 C167.717145,47.8897419 167.859172,47.8564432 167.986007,47.7938816 C168.11808,47.7308469 168.232578,47.641621 168.320884,47.5329185 C168.415869,47.4201924 168.489875,47.2942784 168.540002,47.160114 C168.593378,47.0120715 168.619903,46.85723 168.618553,46.7015645 C168.619783,46.5446285 168.5875,46.3889461 168.523464,46.243015 C168.464256,46.1063901 168.378895,45.9802048 168.271273,45.8702105 C168.17209,45.7647513 168.051393,45.6774283 167.915725,45.6129755 C167.78751,45.5541037 167.64615,45.5222364 167.502296,45.5197743 L165.621197,45.5197743 L165.621197,47.9019949 L165.621197,47.8908107 Z M164.50494,51 L164.50494,44.6250436 L167.584982,44.6250436 C167.890306,44.6231072 168.191891,44.6856687 168.465584,44.8077178 C168.728962,44.9218016 168.964944,45.0813968 169.160144,45.2774514 C169.353668,45.4729215 169.507599,45.6975338 169.614915,45.9410434 C169.721297,46.178058 169.777392,46.4309741 169.780287,46.6866523 C169.780816,46.8961943 169.747388,47.1046816 169.681064,47.3055077 C169.617282,47.4988543 169.524061,47.6832867 169.404067,47.8535303 C169.28581,48.0198227 169.137712,48.1672265 168.965833,48.2897115 C168.796821,48.4114361 168.604992,48.5048706 168.399436,48.5655868 L170.08209,50.9925439 L168.816999,50.9925439 L167.262508,48.7557171 L165.608794,48.7557171 L165.608794,50.9925439 L164.492537,50.9925439 L164.50494,51 Z" id="Shape"></path>
                    <path d="M176.485175,47.7746854 C176.487169,47.3884413 176.558366,47.0055269 176.695534,46.643316 C176.830857,46.2745264 177.034611,45.933321 177.296562,45.6368381 C177.562354,45.3302171 177.889649,45.0801774 178.258205,44.9021826 C178.662764,44.7140721 179.106259,44.619794 179.55417,44.6266868 C180.07324,44.6086148 180.58677,44.7360677 181.034199,44.9940146 C181.4325,45.2329483 181.754027,45.5766356 181.962035,45.9857994 L181.161917,46.5184246 C181.019492,46.181738 180.761899,45.9038782 180.433172,45.7323433 C180.289302,45.656873 180.134902,45.6024201 179.974889,45.5707191 C179.823107,45.5384316 179.668179,45.5224195 179.512849,45.5229665 C179.212404,45.5171945 178.915299,45.5854057 178.648873,45.7213235 C178.403737,45.8505049 178.189812,46.029632 178.021551,46.2466021 C177.85254,46.467625 177.725323,46.7164283 177.645909,46.9812576 C177.562217,47.2453828 177.519173,47.5202133 177.51819,47.7967251 C177.515841,48.0953631 177.565379,48.3922221 177.664691,48.6746384 C177.7588,48.9421881 177.901304,49.1910266 178.08541,49.4092938 C178.262616,49.6196222 178.481005,49.7932141 178.727757,49.9198794 C178.979267,50.0481487 179.259255,50.1137576 179.5429,50.1108898 C179.70248,50.1095058 179.86134,50.0897796 180.016209,50.0521174 C180.181331,50.0126959 180.339567,49.9495645 180.485762,49.8647802 C180.638581,49.7768862 180.777731,49.6680302 180.898968,49.5415318 C181.031831,49.4035944 181.139795,49.2446114 181.218264,49.0713523 L182.059701,49.5415318 C181.959304,49.774651 181.813909,49.9866685 181.63147,50.165989 C181.447384,50.3450959 181.238795,50.4983837 181.01166,50.6214753 C180.774575,50.7466632 180.522102,50.8417137 180.260377,50.9043177 C180.008818,50.9677019 179.750086,50.9997905 179.490311,50.9998229 C179.065819,51.0047298 178.646592,50.9076037 178.269474,50.7169805 C177.907286,50.5325377 177.583656,50.2833511 177.315344,49.9823251 C177.046512,49.6757908 176.83539,49.3250748 176.691778,48.9464609 C176.545472,48.5685162 176.470384,48.1677825 176.470149,47.7636656" id="Shape"></path>
                    <polygon id="Rectangle-path" points="187.649254 44.625 188.447761 44.625 188.447761 51 187.649254 51"></polygon>
                    <polygon id="Shape" points="195.068878 46.510301 195.068878 51 194.037313 51 194.037313 44.625 194.847283 44.625 198.583839 49.2227499 198.583839 44.6324518 199.626866 44.6324518 199.626866 51 198.771049 51"></polygon>
                    <path d="M210.76779,50.1794487 C210.31208,50.6983405 209.65221,50.9974094 208.957436,50.9999456 C208.556444,51.0025588 208.160558,50.9109129 207.802363,50.7325516 C207.445203,50.5505831 207.127112,50.3017921 206.865717,49.999965 C206.597756,49.6972056 206.385947,49.3499986 206.240053,48.9743438 C205.939883,48.2009128 205.939883,47.344891 206.240053,46.57146 C206.384434,46.2005826 206.596516,45.8591359 206.865717,45.5641535 C207.129715,45.2759098 207.449473,45.0429922 207.806065,44.879185 C208.17819,44.7083103 208.584234,44.6219546 208.994457,44.6264427 C209.512908,44.6098474 210.025756,44.736701 210.47532,44.992736 C210.869496,45.2317638 211.187682,45.5757756 211.393455,45.9853907 L210.627108,46.5348306 C210.47427,46.2155147 210.229578,45.9479318 209.923698,45.7656148 C209.628323,45.595141 209.291976,45.5065675 208.950031,45.5092095 C208.672736,45.5054046 208.398957,45.5709194 208.154068,45.699682 C207.91836,45.8245324 207.710583,45.9952224 207.543212,46.2015038 C207.368635,46.4201666 207.235666,46.6683935 207.150783,46.9340903 C207.059108,47.2132375 207.012871,47.5050301 207.013803,47.7985424 C207.00811,48.1100449 207.058247,48.4200816 207.16189,48.7142756 C207.25599,48.9827838 207.40043,49.2313233 207.587638,49.4468622 C207.765208,49.6503105 207.981595,49.8171052 208.224409,49.9376952 C208.471826,50.058472 208.744494,50.1199565 209.020372,50.1171789 C209.711006,50.091209 210.350073,49.7486589 210.749279,49.1904569 L210.749279,48.531129 L209.420205,48.531129 L209.420205,47.7985424 L211.604478,47.7985424 L211.604478,50.9669793 L210.764088,50.9669793 L210.764088,50.1794487 L210.76779,50.1794487 Z" id="Shape"></path>
                    <rect id="Rectangle-path" x="31.9402985" y="5.578125" width="14.3731343" height="4.78125"></rect>
                    <path d="M76.942627,0.796875 C76.6567164,0.796875 76.6567164,0.512276786 76.6567164,0.3984375 C76.6567164,0.284598214 76.6567164,0 76.942627,0 L81.1618506,0 C81.4477612,0 81.4477612,0.284598214 81.4477612,0.3984375 C81.4477612,0.512276786 81.4477612,0.796875 81.1618506,0.796875 L76.942627,0.796875 Z" id="Shape"></path>
                    <path d="M80.8817374,6.39520534 C80.8842035,6.02169956 80.8479968,5.6489581 80.7737088,5.2830693 C80.7096346,4.95755707 80.5876243,4.64650725 80.4136133,4.36505154 C80.2462689,4.09998512 80.0131349,3.88386231 79.737434,3.73821122 C79.4068658,3.57396207 79.0412799,3.49477892 78.6731518,3.50769575 C78.3242034,3.49799844 77.9777609,3.56997053 77.6608835,3.71799056 C77.3832776,3.85417239 77.1439093,4.05857416 76.9646989,4.31247783 C76.7759575,4.58768706 76.6402201,4.89638401 76.5645928,5.22240733 C76.4736923,5.59687438 76.4293385,5.98133614 76.4325578,6.36689643 C76.4304313,6.74306257 76.4666318,7.11845028 76.5405864,7.48712074 C76.601975,7.81342769 76.7241761,8.12496406 76.9006819,8.4051385 C77.0717236,8.66644405 77.3058133,8.87939269 77.5808622,9.02389055 C77.9114305,9.18813971 78.2770164,9.26732285 78.6451444,9.25440602 C78.9927111,9.26304493 79.3376182,9.19110748 79.6534117,9.04411121 C79.9315586,8.90890706 80.1721488,8.70602544 80.3535974,8.45366807 C80.5437483,8.18223044 80.6796577,7.87589 80.7537035,7.55182684 C80.8426334,7.17296186 80.8856273,6.78456757 80.8817374,6.39520534 M82.2460991,6.30623446 C82.2504187,6.85423132 82.1721683,7.3996989 82.0140376,7.9238869 C81.8735505,8.39623814 81.6378818,8.83409585 81.3218541,9.20992058 C81.0082606,9.57692251 80.6153676,9.86611614 80.1735496,10.055144 C79.6662836,10.2660612 79.1215295,10.3693021 78.5731253,10.3584538 C78.0462086,10.3696291 77.5220247,10.279037 77.0287159,10.0915412 C76.6065626,9.92609063 76.2303881,9.65965631 75.9324252,9.31506799 C75.6272277,8.95726906 75.4032564,8.53625329 75.2762512,8.08160801 C75.1257263,7.54643033 75.0529466,6.99198261 75.0601939,6.43564666 C75.0572832,5.88804005 75.1341268,5.34298197 75.2882544,4.81799422 C75.4277602,4.34606359 75.6620309,3.90827274 75.9764369,3.53196053 C76.2885381,3.16606819 76.6801944,2.87816104 77.1207403,2.69078127 C77.6285819,2.48223814 78.1731214,2.38041391 78.7211646,2.39151557 C79.2480667,2.38053859 79.7722138,2.47112434 80.265574,2.65842822 C80.687352,2.8245881 81.0633703,3.09091169 81.3618647,3.43490139 C81.6659939,3.79406719 81.8910349,4.21452994 82.0220397,4.66836137 C82.172339,5.1939986 82.2464625,5.73888138 82.2420981,6.28601381" id="Shape"></path>
                    <path d="M120.100521,1.42699069 L120.100521,1.42699069 L118.345037,6.54269268 L121.895454,6.54269268 L120.100521,1.42699069 Z M124.499093,9.84186336 C124.534818,9.9321913 124.557406,10.0272457 124.566156,10.1240816 C124.572254,10.1846711 124.550446,10.2447332 124.506983,10.2870527 C124.44547,10.3304696 124.372935,10.3552915 124.297903,10.3586009 C124.19928,10.3586009 124.069098,10.3586009 123.903412,10.3586009 C123.737726,10.3586009 123.611489,10.3586009 123.508921,10.3586009 C123.43385,10.3553635 123.35955,10.3419946 123.288006,10.3188519 C123.244339,10.3057565 123.205758,10.2793775 123.177549,10.2433287 C123.15089,10.2061988 123.128398,10.1662055 123.110485,10.1240816 L122.234716,7.62386669 L118.00183,7.62386669 L117.169454,10.0922823 C117.154756,10.1363515 117.133471,10.1779035 117.106335,10.2155044 C117.075907,10.2536773 117.036615,10.2837111 116.991933,10.3029523 C116.923986,10.3311175 116.852132,10.3485473 116.778908,10.354626 C116.659328,10.360958 116.539501,10.360958 116.419921,10.354626 C116.294703,10.3562299 116.169515,10.3495909 116.045155,10.3347515 C115.971086,10.3295307 115.899982,10.303353 115.84002,10.2592283 C115.798487,10.2158748 115.778248,10.1561517 115.784791,10.0962572 C115.793541,9.99942135 115.816129,9.90436697 115.851855,9.81403902 L119.268145,0.274268405 C119.285479,0.22123637 119.313706,0.172478739 119.350988,0.131171846 C119.392821,0.0897278613 119.444395,0.0596420309 119.500895,0.0437239487 C119.583109,0.0194362935 119.667824,0.00476508073 119.753369,0 C119.855936,0 119.986118,0 120.147859,0 C120.309601,0 120.455562,0 120.56602,0 C120.656758,0.00461800337 120.746718,0.0192808612 120.834273,0.0437239487 C120.893863,0.0598639584 120.948249,0.0913737675 120.99207,0.13514675 C121.031252,0.177241003 121.060868,0.227427427 121.078858,0.282218214 L124.499093,9.84186336 Z" id="Shape"></path>
                    <path d="M113.065043,2.8692224 C113.07564,2.50847668 112.988175,2.15229287 112.813482,1.84478595 C112.611796,1.53849161 112.312815,1.32335976 111.973711,1.24052851 C111.838064,1.2006187 111.699406,1.1738352 111.559374,1.16049441 C111.403998,1.16049441 111.189431,1.13648419 110.948967,1.13648419 L109.872432,1.13648419 L109.872432,4.59795891 L111.111742,4.59795891 C111.404933,4.60363281 111.697105,4.55906238 111.97741,4.46590264 C112.201817,4.38913751 112.40948,4.26388887 112.587817,4.0977458 C112.751353,3.94787443 112.878384,3.75687469 112.95776,3.54150882 C113.035383,3.32044467 113.074273,3.08567857 113.072442,2.84921387 M114.98505,10.1083065 C114.985569,10.1469898 114.977981,10.1852979 114.962853,10.2203543 C114.940244,10.2581933 114.906278,10.2864559 114.866668,10.3003884 C114.799864,10.3261803 114.730207,10.3423264 114.659499,10.3484088 C114.536284,10.3559681 114.412772,10.3559681 114.289556,10.3484088 C114.184836,10.3552991 114.079825,10.3552991 113.975104,10.3484088 C113.907756,10.3414756 113.841704,10.3239503 113.779034,10.2963867 C113.740434,10.2730047 113.707479,10.2400993 113.682849,10.2003457 C113.652992,10.1505783 113.629357,10.0967547 113.61256,10.0402775 L112.735794,7.60724097 C112.63221,7.33112334 112.524926,7.07501423 112.413943,6.84291534 C112.310659,6.62243194 112.177211,6.42006874 112.018104,6.24265961 C111.865246,6.07073395 111.681421,5.93453892 111.477986,5.84248912 C111.242261,5.74366656 110.990841,5.69607291 110.7381,5.70242945 L109.872432,5.70242945 L109.872432,10.1043048 C109.873249,10.1446337 109.861524,10.1840914 109.839137,10.2163526 C109.811304,10.2510031 109.775603,10.2772085 109.735553,10.2923849 C109.67308,10.3153269 109.608632,10.3314147 109.543182,10.3404054 C109.339148,10.3656982 109.133111,10.3656982 108.929076,10.3404054 C108.862556,10.3305775 108.796953,10.3145101 108.733006,10.2923849 C108.69216,10.2789668 108.65604,10.2524541 108.629422,10.2163526 C108.609069,10.1832195 108.598728,10.144068 108.599827,10.1043048 L108.599827,0.560238683 C108.583386,0.397025461 108.639698,0.235085061 108.751504,0.124052851 C108.842726,0.0445114337 108.956187,0.000779583988 109.073354,0 L111.093245,0 C111.333708,0 111.537177,0 111.696253,0 L112.125387,0.0440187537 C112.463478,0.103657445 112.792206,0.214105232 113.102038,0.372158554 C113.371215,0.510844578 113.613525,0.703691182 113.816029,0.940400646 C114.007361,1.17325991 114.153315,1.44546638 114.245163,1.74074162 C114.344545,2.05626846 114.39334,2.3878484 114.389441,2.72115932 C114.393565,3.03620581 114.349823,3.34984595 114.259961,3.64955485 C114.179782,3.91518812 114.054302,4.16222 113.890017,4.37786514 C113.722649,4.59230003 113.525454,4.7772572 113.305507,4.92609871 C113.067649,5.09033994 112.813199,5.22460324 112.547123,5.32626919 C112.701659,5.39898395 112.846089,5.49460808 112.976257,5.61039024 C113.11315,5.72823654 113.237256,5.86248315 113.3462,6.01056073 C113.464658,6.18513251 113.569821,6.36981737 113.660652,6.562796 C113.756838,6.77088465 113.856722,7.00298354 113.956607,7.26709606 L114.814876,9.54406614 C114.881465,9.73614797 114.929558,9.86820423 114.948055,9.94423662 C114.965156,10.0026046 114.975106,10.0631464 114.977651,10.1243133" id="Shape"></path>
                    <path d="M103.468288,2.87081189 C103.47845,2.50992022 103.391022,2.15367146 103.216741,1.84580793 C103.013916,1.53880531 102.713617,1.32354144 102.373316,1.24121574 C102.237567,1.20181887 102.09896,1.17502892 101.959003,1.16113731 C101.803635,1.16113731 101.58908,1.13711378 101.34863,1.13711378 L100.279553,1.13711378 L100.279553,4.60050609 L101.518794,4.60050609 C101.812007,4.60686658 102.104262,4.56225628 102.384414,4.46837667 C102.609354,4.39294326 102.817253,4.26747597 102.994787,4.10001587 C103.158539,3.95028623 103.285606,3.759115 103.36471,3.54347075 C103.442328,3.32228414 103.481216,3.08738798 103.479386,2.85079229 M105.391887,10.1139063 C105.393107,10.1526821 105.385484,10.191186 105.369692,10.2260161 C105.348977,10.264077 105.316065,10.2925749 105.277211,10.3060946 C105.210343,10.3316382 105.140722,10.3477859 105.070054,10.3541416 C104.946831,10.3611195 104.823355,10.3611195 104.700132,10.3541416 C104.595401,10.3604407 104.490428,10.3604407 104.385697,10.3541416 C104.318353,10.3472046 104.252304,10.3296696 104.189638,10.3020907 C104.143478,10.2810582 104.103732,10.2463649 104.074962,10.2019926 C104.044294,10.1526943 104.020604,10.0987126 104.004676,10.0418357 L103.127959,7.6034474 C103.024381,7.3271768 102.917103,7.07092581 102.806126,6.84270227 C102.704372,6.62210499 102.572148,6.41958325 102.414008,6.24211401 C102.261023,6.07026636 102.077244,5.934022 101.87392,5.84172183 C101.638131,5.74314693 101.38678,5.69553749 101.134074,5.70158457 L100.286951,5.70158457 L100.286951,10.1058985 C100.287768,10.1462497 100.276044,10.1857293 100.253658,10.2180083 C100.226735,10.2537687 100.190728,10.2802147 100.150079,10.2940828 C100.087507,10.3166441 100.023099,10.3327318 99.9577196,10.3421299 C99.8554891,10.349553 99.752914,10.349553 99.6506835,10.3421299 C99.5496876,10.349555 99.4483426,10.349555 99.3473467,10.3421299 C99.2808994,10.3318872 99.2153307,10.3158187 99.1512876,10.2940828 C99.1097688,10.2822221 99.0732305,10.255386 99.0477092,10.2180083 C99.0273568,10.1848569 99.0170162,10.1456837 99.0181153,10.1058985 L99.0181153,0.560549045 C99.0004376,0.397078943 99.0569522,0.234457588 99.1697837,0.124121574 C99.2610013,0.0445360923 99.3744558,0.000780015863 99.4916167,0 L101.522494,0 C101.762943,0 101.966401,0 102.125468,0.0200196087 L102.554579,0.064062748 C102.892763,0.123218119 103.221539,0.233749137 103.531175,0.392384331 C103.800666,0.530551189 104.043061,0.723583059 104.245126,0.96094122 C104.436781,1.19366906 104.582768,1.46610371 104.674237,1.76172557 C104.773684,2.07740819 104.822479,2.40918511 104.818507,2.7426864 C104.822631,3.05790742 104.778891,3.37172131 104.689034,3.67159624 C104.608461,3.93718938 104.483027,4.18428153 104.319111,4.40031 C104.152547,4.61571058 103.955229,4.80089457 103.734633,4.94884728 C103.496631,5.11287621 103.242228,5.24719656 102.976291,5.34923946 C103.130976,5.42166628 103.275439,5.51737039 103.405401,5.6335179 C103.542501,5.75116823 103.666627,5.88551744 103.775324,6.03391008 C103.894266,6.20822093 103.999448,6.39305308 104.089759,6.58645128 C104.189638,6.79465521 104.285818,7.02688267 104.385697,7.29114151 L105.240219,9.56937298 C105.306805,9.76156122 105.354895,9.89369064 105.373391,9.96976516 C105.390575,10.028143 105.400526,10.0887305 105.402985,10.1499416" id="Shape"></path>
                    <path d="M96.6147382,9.78920849 C96.6209579,9.87340637 96.6209579,9.95797143 96.6147382,10.0421693 C96.6075811,10.1053582 96.5891291,10.1666252 96.5603201,10.2228556 C96.5397649,10.265058 96.5089608,10.3010289 96.470919,10.3272521 C96.4368842,10.3483797 96.3979032,10.3594878 96.3581959,10.3593741 L91.5266493,10.3593741 C91.4048779,10.3576908 91.2871723,10.3138621 91.1923669,10.2349014 C91.0748926,10.1234933 91.0157252,9.96100471 91.0329998,9.797239 L91.0329998,0.562161712 C91.0150812,0.398312659 91.0743551,0.23553168 91.1923669,0.124499353 C91.2871723,0.0455385763 91.4048779,0.0017099517 91.5266493,2.6572648e-05 L96.2882298,2.6572648e-05 C96.3292284,-0.000618751234 96.3695962,0.0105011508 96.4048399,0.0321485806 C96.441221,0.0580928664 96.4695675,0.0943464721 96.486467,0.136545106 C96.5098744,0.194604965 96.5268265,0.255221704 96.5369981,0.317231401 C96.5512764,0.406121429 96.557781,0.496158573 96.5564331,0.586253218 C96.557417,0.671008626 96.5509116,0.75567997 96.5369981,0.83921403 C96.5272771,0.900032874 96.5103043,0.95937456 96.486467,1.01588507 C96.4687637,1.05649653 96.4405084,1.09124354 96.4048399,1.11626635 C96.3698521,1.13853494 96.3293058,1.14970403 96.2882298,1.14838836 L92.3662423,1.14838836 L92.3662423,4.40074166 L95.7323881,4.40074166 C95.7726805,4.40042553 95.8120718,4.41305377 95.8451113,4.43687892 C95.8809168,4.46286307 95.9102277,4.49726985 95.9306254,4.5372602 C95.9586877,4.59208799 95.9758673,4.65215299 95.9811564,4.71393124 C95.9862181,4.80218939 95.9862181,4.89067966 95.9811564,4.9789378 C95.9862963,5.06183473 95.9862963,5.14498644 95.9811564,5.22788337 C95.9751638,5.28697223 95.9579952,5.34427008 95.9306254,5.39652391 C95.9115546,5.43534067 95.881804,5.46746978 95.8451113,5.48887468 C95.8103115,5.50758133 95.771617,5.51722954 95.7323881,5.51698144 L92.3662423,5.51698144 L92.3662423,9.22707336 L96.3426478,9.22707336 C96.3823551,9.22695966 96.4213362,9.23806783 96.455371,9.25919536 C96.4923036,9.28504169 96.5229104,9.31940755 96.5447721,9.35957664 C96.5740923,9.41414819 96.5925918,9.4742079 96.5991901,9.53624768 C96.6057198,9.62579478 96.6057198,9.7157224 96.5991901,9.8052695" id="Shape"></path>
                    <path d="M89.4283457,0.594582041 C89.4343325,0.682253334 89.4343325,0.770279667 89.4283457,0.857950959 C89.4220525,0.920357251 89.405752,0.981114757 89.3801696,1.03752068 C89.3617951,1.07804662 89.333635,1.11250415 89.2986408,1.13728163 C89.2662688,1.15847044 89.2290533,1.16952517 89.1911709,1.16920514 L86.4636613,1.16920514 L86.4636613,10.1037962 C86.4642932,10.1433827 86.4539732,10.1822767 86.4340145,10.2155284 C86.4076852,10.2519148 86.3713784,10.2784435 86.3302505,10.2913467 C86.2663108,10.3138704 86.2005541,10.329902 86.1338402,10.339232 C86.0319007,10.3539514 85.9290976,10.3606199 85.8262542,10.3591842 C85.7246486,10.3603437 85.6230961,10.3536759 85.5223741,10.339232 C85.4544629,10.3298087 85.3874839,10.3137814 85.3222579,10.2913467 C85.28113,10.2784435 85.2448232,10.2519148 85.2184939,10.2155284 C85.199117,10.1819956 85.1888471,10.1432904 85.1888471,10.1037962 L85.1888471,1.1652147 L82.498396,1.1652147 C82.4605392,1.16532769 82.4233749,1.15428816 82.3909262,1.13329119 C82.3565063,1.10892013 82.3294554,1.07424368 82.3131033,1.03353024 C82.2903682,0.975988529 82.2741916,0.91569258 82.2649271,0.853960521 C82.2514758,0.766940677 82.2452747,0.678800357 82.2463979,0.590591603 C82.2456003,0.501069982 82.2517986,0.411634797 82.2649271,0.323232247 C82.2745116,0.258993178 82.2906687,0.196093498 82.3131033,0.135681654 C82.3290283,0.0936246798 82.3560931,0.0575425988 82.3909262,0.0319302621 C82.4233749,0.0109332912 82.4605392,-0.000106241006 82.498396,6.75684635e-06 L89.1689358,6.75684635e-06 C89.2068181,-0.000313281102 89.2440336,0.0107414479 89.2764056,0.0319302621 C89.3119127,0.0577980472 89.3401198,0.0936936788 89.3579344,0.135681654 C89.3832624,0.194999221 89.3995304,0.258330928 89.4061106,0.323232247 C89.4118818,0.412243697 89.4118818,0.501580153 89.4061106,0.590591603" id="Shape"></path>
                    <path d="M72.1797353,5.07365309 C71.8933064,4.69929552 71.5564032,4.36747335 71.1788788,4.08789103 C70.8872144,3.87118686 70.5359254,3.752197 70.174158,3.74756842 C69.8812567,3.73816794 69.5925754,3.82010033 69.3471954,3.98227367 C69.1195301,4.14256517 68.931697,4.3541284 68.7984633,4.60033083 C68.650852,4.87150128 68.546516,5.1645883 68.4893184,5.46874026 C68.4253594,5.79202075 68.3930007,6.12089069 68.3927107,6.45059056 C68.3919547,6.79778444 68.4190944,7.14446548 68.4738612,7.48720543 C68.5207856,7.80020609 68.6159767,8.10380559 68.7559559,8.38690889 C68.8803379,8.63878084 69.0633528,8.85626214 69.2892308,9.02061307 C69.5342672,9.18711073 69.8251533,9.27065445 70.1200576,9.25923007 C70.2861512,9.2599295 70.4514651,9.23621153 70.6108251,9.1888185 C70.7822109,9.13466065 70.944921,9.05560094 71.093864,8.95411325 C71.2776267,8.82809283 71.4496565,8.68537504 71.6078173,8.52773204 C71.8129667,8.32622722 72.0040645,8.11056338 72.1797353,7.8822926 L72.1797353,5.07365309 L72.1797353,5.07365309 Z M73.4588223,10.0141986 C73.4597895,10.0525165 73.4504388,10.0903786 73.4317721,10.1237278 C73.4106415,10.1589401 73.3777343,10.1853115 73.3390286,10.1980511 C73.2842415,10.2191792 73.2271626,10.2336241 73.1689989,10.2410804 C73.0815003,10.2468396 72.9937245,10.2468396 72.9062258,10.2410804 C72.816156,10.2470805 72.7257939,10.2470805 72.635724,10.2410804 C72.5751424,10.2330988 72.5155606,10.218676 72.4579657,10.1980511 C72.4171597,10.1854423 72.3817562,10.1592529 72.3574936,10.1237278 C72.3359937,10.0914518 72.3251691,10.0531007 72.3265792,10.0141986 L72.3265792,9.08711289 C71.9981096,9.45655322 71.614816,9.7719677 71.1904718,10.0220221 C70.7964157,10.245743 70.3515818,10.3616873 69.8997919,10.358433 C69.4463514,10.370475 68.9971997,10.2668972 68.5936548,10.0572279 C68.2413401,9.862182 67.9415132,9.58284722 67.7203206,9.24358306 C67.4852404,8.87719857 67.3188731,8.47009747 67.2295531,8.04267452 C67.1252957,7.56485133 67.0734577,7.07683903 67.0749806,6.58750196 C67.0692058,6.03629634 67.1341539,5.48666446 67.2681962,4.95238871 C67.3781736,4.50441951 67.5723489,4.08208264 67.8401142,3.70845088 C68.0854649,3.37564026 68.4061769,3.10733491 68.7752774,2.92610004 C69.1788181,2.73469541 69.6203972,2.63967435 70.0659573,2.64836549 C70.4532376,2.64410472 70.8355523,2.73682551 71.1788788,2.91827653 C71.5522155,3.1223714 71.8902525,3.38660863 72.1797353,3.70062737 L72.1797353,0.250460171 C72.1798078,0.213508387 72.1891131,0.177175609 72.2067855,0.144842807 C72.2311171,0.106891466 72.2681676,0.0791097079 72.3111219,0.0666077236 C72.375572,0.0460265433 72.4414478,0.0303360752 72.5082018,0.0196666733 C72.6093658,0.00573316428 72.7113902,-0.000803350782 72.8134823,0.000107902349 C72.9194301,-0.00093631203 73.0253183,0.00559955653 73.1303558,0.0196666733 C73.1960109,0.0294711517 73.260672,0.0451803313 73.3235714,0.0666077236 C73.3654412,0.0812603969 73.4018598,0.10856831 73.4279078,0.144842807 C73.4504831,0.175312743 73.4626866,0.212372752 73.4626866,0.250460171 L73.4626866,10.0298457 L73.4588223,10.0141986 Z" id="Shape"></path>
                    <path d="M212.665841,45.76577 L212.793715,45.76577 C212.947165,45.76577 213.070777,45.7147247 213.070777,45.5913652 C213.070777,45.4680058 212.994052,45.4084529 212.815028,45.4084529 C212.764085,45.4019562 212.712521,45.4019562 212.661578,45.4084529 L212.661578,45.7487549 L212.665841,45.76577 Z M212.665841,46.4336128 L212.367467,46.4336128 L212.367467,45.2468094 C212.517728,45.2177248 212.670494,45.2034768 212.823553,45.2042717 C212.972089,45.1877086 213.121945,45.2206097 213.249801,45.2978547 C213.324488,45.3614672 213.366713,45.4551089 213.364888,45.5530813 C213.357761,45.693435 213.255833,45.8109383 213.117664,45.8380842 L213.117664,45.8380842 C213.239706,45.8849338 213.324155,45.9973025 213.335051,46.1273409 C213.345732,46.2300049 213.376123,46.3296559 213.424563,46.4208514 L213.126189,46.4208514 C213.079497,46.3316185 213.047817,46.2353346 213.032414,46.1358485 C213.026177,46.0775556 212.996106,46.0244171 212.949305,45.9889854 C212.902504,45.9535536 212.843123,45.9389711 212.78519,45.9486824 L212.653054,45.9486824 L212.653054,46.4208514 L212.665841,46.4336128 Z M212.844865,44.8639697 C212.343417,44.8974617 211.953829,45.3131449 211.953829,45.8146885 C211.953829,46.316232 212.343417,46.7319152 212.844865,46.7654073 C213.094358,46.7656793 213.333073,46.6639551 213.505418,46.4839249 C213.677764,46.3038947 213.768695,46.0612725 213.757036,45.8125616 C213.766304,45.5630355 213.673409,45.3204919 213.49973,45.1407486 C213.326051,44.9610054 213.086549,44.8595446 212.83634,44.8597159 L212.83634,44.8597159 L212.844865,44.8639697 Z M212.844865,44.6257582 C213.500864,44.6490733 214.015844,45.1949685 213.999627,45.8498422 C213.98341,46.5047159 213.442039,47.0245591 212.785687,47.0155086 C212.129335,47.0064581 211.602563,46.4718862 211.604483,45.8168153 C211.605432,45.4930283 211.737965,45.1834773 211.971763,44.9589766 C212.205561,44.7344759 212.52062,44.6142341 212.844865,44.6257582 L212.844865,44.6257582 L212.844865,44.6257582 Z" id="Shape"></path>
                </g>
            </g>
        </g>
    </g>
</svg>