<?xml version="1.0" encoding="UTF-8"?>
<svg width="30px" height="30px" viewBox="0 0 30 30" version="1.1" xmlns="http://www.w3.org/2000/svg" xmlns:xlink="http://www.w3.org/1999/xlink">
    <!-- Generator: Sketch 53.2 (72643) - https://sketchapp.com -->
    <title>Icons / Supportive / Loading / Purple</title>
    <desc>Created with Sketch.</desc>
    <g id="Icons-/-Supportive-/-Loading-/-Purple" stroke="none" stroke-width="1" fill="none" fill-rule="evenodd">
        <g fill="#BD8BCA">
            <path d="M27.7485821,11.01655 C27.7475821,11.03155 27.7425821,11.04255 27.7295821,11.04855 C27.6325821,11.09655 27.5345821,11.14455 27.4365821,11.19155 C27.4055821,11.20655 27.3975821,11.20455 27.3765821,11.17155 C27.3475821,11.12655 27.3185821,11.08155 27.2905821,11.03655 C27.2775821,11.01755 27.2725821,11.01455 27.2555821,11.02355 C27.2395821,11.03155 27.2265821,11.04155 27.2125821,11.05255 C27.1935821,11.06755 27.1755821,11.08255 27.1595821,11.10155 C27.1445821,11.11855 27.1325821,11.13755 27.1305821,11.16255 C27.1285821,11.18255 27.1225821,11.20055 27.1185821,11.21955 C27.1175821,11.22455 27.1185821,11.23055 27.1205821,11.23655 C27.1365821,11.30855 27.1485821,11.38155 27.1475821,11.45555 C27.1475821,11.54655 27.1185821,11.62255 27.0525821,11.67655 C27.0275821,11.69655 26.9995821,11.71255 26.9715821,11.72455 C26.7525821,11.81555 26.5345821,11.90555 26.3145821,11.99355 C26.0115821,12.11655 25.7065821,12.23855 25.4015821,12.35955 C25.1125821,12.47455 24.8235821,12.58755 24.5355821,12.70355 C24.2945821,12.79955 24.0545821,12.89955 23.8115821,12.99655 C23.6525821,13.05955 23.4925821,13.12055 23.3315821,13.18155 C23.3105821,13.18955 23.2895821,13.19955 23.2635821,13.18855 C23.2525821,13.18455 23.2385821,13.19155 23.2265821,13.19355 C23.1805821,13.20055 23.1385821,13.18355 23.0965821,13.16155 C23.0705821,13.14755 23.0445821,13.13255 23.0195821,13.11655 C22.9995821,13.10155 22.9775821,13.08555 22.9605821,13.06655 C22.9295821,13.03155 22.8985821,12.99655 22.8785821,12.95355 C22.8685821,12.93355 22.8535821,12.91555 22.8435821,12.89555 C22.8275821,12.86755 22.8115821,12.83955 22.7975821,12.81055 C22.7535821,12.72655 22.7105821,12.64255 22.6675821,12.55855 C22.6285821,12.47555 22.5935821,12.40055 22.5585821,12.32555 C22.5475821,12.30155 22.5375821,12.27755 22.5265821,12.25355 C22.4635821,12.10455 22.3965821,11.95655 22.3365821,11.80655 C22.2755821,11.65855 22.2215821,11.50955 22.1655821,11.36055 C22.1285821,11.25755 22.0935821,11.15455 22.0595821,11.05155 C22.0475821,11.01555 22.0405821,10.97755 22.0315821,10.94155 C22.0275821,10.92655 22.0235821,10.91155 22.0195821,10.89655 C22.0155821,10.87755 22.0095821,10.85855 22.0055821,10.83855 C21.9965821,10.79555 21.9855821,10.75355 21.9795821,10.70955 C21.9755821,10.68055 21.9765821,10.64955 21.9745821,10.61955 C21.9855821,10.58055 21.9975821,10.55455 22.0045821,10.52555 C22.0155821,10.47555 22.0355821,10.43255 22.0695821,10.39955 C22.0895821,10.38155 22.1105821,10.36855 22.1375821,10.36255 C22.1605821,10.35755 22.1835821,10.34655 22.2055821,10.33655 C22.2955821,10.29855 22.3835821,10.25755 22.4735821,10.22055 C22.6685821,10.14155 22.8645821,10.06355 23.0605821,9.98455 C23.4165821,9.84155 23.7715821,9.69655 24.1285821,9.55455 C24.6025821,9.36455 25.0755821,9.17555 25.5495821,8.98755 C25.6445821,8.94955 25.7405821,8.91255 25.8385821,8.87755 C25.9115821,8.85155 25.9875821,8.85855 26.0595821,8.89955 C26.1055821,8.92555 26.1425821,8.96755 26.1745821,9.01255 C26.2045821,9.05455 26.2325821,9.09655 26.2635821,9.13755 C26.2755821,9.15555 26.2895821,9.17155 26.3045821,9.18755 C26.3095821,9.19255 26.3155821,9.19555 26.3225821,9.19655 C26.3635821,9.20055 26.4045821,9.20555 26.4465821,9.20755 C26.4665821,9.20855 26.4855821,9.20255 26.5065821,9.19955 C26.5005821,9.17355 26.4945821,9.15155 26.4915821,9.12955 C26.4885821,9.10855 26.4895821,9.08655 26.4865821,9.06455 C26.4855821,9.05055 26.4795821,9.03755 26.4775821,9.02255 C26.4765821,9.00955 26.4755821,8.99655 26.4765821,8.98355 C26.5415821,8.94955 26.5935821,8.92855 26.6445821,8.90755 C26.6925821,8.88855 26.7415821,8.87055 26.7895821,8.84955 C26.8135821,8.83955 26.8365821,8.83955 26.8585821,8.86055 C26.8685821,8.86955 26.8755821,8.86355 26.8775821,8.84755 C26.8785821,8.83655 26.8815821,8.82555 26.8865821,8.81655 C26.9415821,8.78955 26.9825821,8.77555 27.0225821,8.75955 C27.0445821,8.75055 27.0645821,8.74855 27.0855821,8.76455 C27.1095821,8.78455 27.1325821,8.78055 27.1565821,8.76955 C27.3315821,8.69555 27.5065821,8.61955 27.6835821,8.54955 C27.8025821,8.50155 27.9255821,8.46355 28.0465821,8.42255 C28.0735821,8.41255 28.1025821,8.40455 28.1305821,8.39555 C28.1455821,8.39155 28.1585821,8.39555 28.1735821,8.40855 C28.1845821,8.41755 28.2025821,8.42055 28.2165821,8.41855 C28.2435821,8.41355 28.2695821,8.40555 28.2965821,8.39555 C28.3275821,8.38255 28.3555821,8.39455 28.3825821,8.41455 C28.4425821,8.45955 28.4855821,8.52155 28.5255821,8.58655 C28.6015821,8.70955 28.6675821,8.83655 28.7295821,8.96655 C28.8045821,9.12355 28.8685821,9.28455 28.9315821,9.44655 C28.9785821,9.57055 29.0235821,9.69555 29.0625821,9.82255 C29.0975821,9.93355 29.1265821,10.04555 29.1385821,10.16055 C29.1425821,10.20055 29.1415821,10.24055 29.1295821,10.27855 C29.1225821,10.29955 29.1045821,10.30655 29.0895821,10.31455 C29.0655821,10.32755 29.0405821,10.33855 29.0175821,10.35155 C29.0115821,10.35455 29.0075821,10.36155 29.0025821,10.36755 C28.9965821,10.37655 28.9905821,10.38655 28.9855821,10.39655 C28.9845821,10.42455 28.9775821,10.43355 28.9655821,10.43855 C28.9055821,10.46755 28.8465821,10.49655 28.7855821,10.52355 C28.5325821,10.64055 28.2755821,10.74855 28.0185821,10.85255 C28.0075821,10.85655 27.9955821,10.86855 27.9905821,10.87955 C27.9755821,10.92655 27.9455821,10.95455 27.9005821,10.96855 C27.8795821,10.97555 27.8595821,10.98655 27.8395821,10.99555 C27.8085821,11.00855 27.7915821,11.00355 27.7685821,10.97555 C27.7645821,10.97155 27.7605821,10.96855 27.7555821,10.96455 C27.7505821,10.98355 27.7485821,10.99955 27.7485821,11.01655" id="Fill-1" fill-opacity="0.24"></path>
            <path d="M26.8306821,21.19815 C26.8196821,21.20815 26.8096821,21.21315 26.7956821,21.20815 C26.6926821,21.17215 26.5896821,21.13715 26.4866821,21.10115 C26.4536821,21.09015 26.4506821,21.08315 26.4586821,21.04515 C26.4696821,20.99315 26.4806821,20.94015 26.4926821,20.88815 C26.4976821,20.86615 26.4966821,20.86015 26.4766821,20.85415 C26.4606821,20.84915 26.4436821,20.84615 26.4276821,20.84415 C26.4026821,20.84215 26.3786821,20.83915 26.3546821,20.84215 C26.3326821,20.84415 26.3096821,20.84715 26.2906821,20.86415 C26.2756821,20.87715 26.2586821,20.88615 26.2426821,20.89615 C26.2376821,20.89915 26.2336821,20.90415 26.2306821,20.91015 C26.1906821,20.97215 26.1486821,21.03215 26.0966821,21.08415 C26.0316821,21.14815 25.9566821,21.18115 25.8716821,21.17315 C25.8406821,21.16915 25.8096821,21.16115 25.7796821,21.14915 C25.5616821,21.05815 25.3446821,20.96815 25.1276821,20.87615 C24.8246821,20.74715 24.5226821,20.61815 24.2226821,20.48815 C23.9366821,20.36615 23.6516821,20.24115 23.3666821,20.11915 C23.1276821,20.01615 22.8876821,19.91715 22.6476821,19.81415 C22.4896821,19.74715 22.3336821,19.67615 22.1776821,19.60615 C22.1556821,19.59615 22.1346821,19.58915 22.1236821,19.56215 C22.1186821,19.55215 22.1036821,19.54715 22.0936821,19.54015 C22.0566821,19.51115 22.0386821,19.46915 22.0246821,19.42515 C22.0176821,19.39715 22.0086821,19.36815 22.0036821,19.34015 C21.9986821,19.31415 21.9946821,19.28815 21.9956821,19.26115 C21.9986821,19.21615 22.0026821,19.17015 22.0186821,19.12415 C22.0256821,19.10315 22.0276821,19.08015 22.0336821,19.05815 C22.0426821,19.02715 22.0516821,18.99615 22.0606821,18.96615 C22.0896821,18.87615 22.1186821,18.78615 22.1476821,18.69615 C22.1796821,18.61015 22.2066821,18.53215 22.2356821,18.45415 C22.2446821,18.42915 22.2546821,18.40515 22.2646821,18.38115 C22.3246821,18.23015 22.3826821,18.07915 22.4456821,17.92915 C22.5076821,17.78315 22.5736821,17.63715 22.6406821,17.49315 C22.6856821,17.39415 22.7346821,17.29715 22.7836821,17.20015 C22.8006821,17.16615 22.8216821,17.13515 22.8416821,17.10215 C22.8506821,17.09015 22.8576821,17.07615 22.8656821,17.06215 C22.8756821,17.04615 22.8856821,17.02815 22.8956821,17.01115 C22.9196821,16.97415 22.9426821,16.93715 22.9686821,16.90215 C22.9866821,16.87815 23.0086821,16.85615 23.0286821,16.83415 C23.0636821,16.81515 23.0916821,16.80415 23.1166821,16.78915 C23.1596821,16.76215 23.2036821,16.74515 23.2526821,16.74715 C23.2776821,16.74715 23.3026821,16.75415 23.3256821,16.76715 C23.3466821,16.78115 23.3696821,16.78915 23.3926821,16.79915 C23.4826821,16.83415 23.5736821,16.86715 23.6636821,16.90515 C23.8576821,16.98615 24.0516821,17.07115 24.2456821,17.15315 C24.5996821,17.30315 24.9526821,17.45315 25.3056821,17.60415 C25.7736821,17.80415 26.2426821,18.00715 26.7106821,18.20815 C26.8056821,18.24915 26.8996821,18.29115 26.9926821,18.33515 C27.0626821,18.36815 27.1116821,18.42715 27.1336821,18.50715 C27.1476821,18.55715 27.1446821,18.61315 27.1356821,18.66815 C27.1276821,18.71915 27.1176821,18.76815 27.1096821,18.81915 C27.1056821,18.84115 27.1036821,18.86215 27.1026821,18.88415 C27.1026821,18.89015 27.1056821,18.89715 27.1096821,18.90215 C27.1366821,18.93415 27.1616821,18.96815 27.1896821,18.99815 C27.2026821,19.01215 27.2216821,19.02215 27.2376821,19.03515 C27.2526821,19.01215 27.2636821,18.99315 27.2756821,18.97515 C27.2896821,18.95815 27.3056821,18.94315 27.3186821,18.92615 C27.3276821,18.91515 27.3336821,18.90115 27.3426821,18.88915 C27.3506821,18.87915 27.3586821,18.86915 27.3686821,18.86115 C27.4386821,18.88315 27.4906821,18.90415 27.5426821,18.92715 C27.5896821,18.94615 27.6376821,18.96915 27.6846821,18.98715 C27.7106821,18.99815 27.7256821,19.01315 27.7266821,19.04415 C27.7276821,19.05715 27.7366821,19.05815 27.7486821,19.04815 C27.7576821,19.04115 27.7676821,19.03615 27.7766821,19.03315 C27.8356821,19.05315 27.8746821,19.07215 27.9136821,19.08915 C27.9346821,19.09815 27.9516821,19.11115 27.9546821,19.13615 C27.9576821,19.16815 27.9766821,19.18115 28.0016821,19.19115 C28.1776821,19.26215 28.3546821,19.33215 28.5296821,19.40715 C28.6466821,19.45815 28.7616821,19.51815 28.8766821,19.57415 C28.9026821,19.58715 28.9286821,19.60115 28.9536821,19.61515 C28.9696821,19.62315 28.9746821,19.63515 28.9766821,19.65415 C28.9766821,19.66815 28.9876821,19.68315 28.9996821,19.69115 C29.0216821,19.70815 29.0466821,19.72015 29.0716821,19.73215 C29.1026821,19.74615 29.1146821,19.77415 29.1196821,19.80615 C29.1296821,19.88115 29.1166821,19.95615 29.0996821,20.02915 C29.0656821,20.17015 29.0226821,20.30615 28.9746821,20.44215 C28.9166821,20.60615 28.8476821,20.76515 28.7776821,20.92415 C28.7246821,21.04515 28.6666821,21.16615 28.6046821,21.28315 C28.5506821,21.38515 28.4916821,21.48615 28.4186821,21.57515 C28.3926821,21.60615 28.3636821,21.63415 28.3286821,21.65215 C28.3096821,21.66315 28.2926821,21.65515 28.2756821,21.65015 C28.2496821,21.64215 28.2246821,21.63315 28.1986821,21.62515 C28.1916821,21.62315 28.1846821,21.62515 28.1776821,21.62615 C28.1656821,21.62915 28.1546821,21.63215 28.1436821,21.63515 C28.1246821,21.65315 28.1126821,21.65415 28.1006821,21.65015 C28.0376821,21.62815 27.9756821,21.60615 27.9126821,21.58315 C27.6516821,21.48615 27.3936821,21.38215 27.1386821,21.27215 C27.1266821,21.26815 27.1106821,21.26715 27.1006821,21.27215 C27.0556821,21.29415 27.0146821,21.29415 26.9736821,21.27215 C26.9526821,21.26115 26.9316821,21.25615 26.9096821,21.24715 C26.8796821,21.23415 26.8706821,21.21915 26.8736821,21.18215 C26.8746821,21.17715 26.8736821,21.17215 26.8736821,21.16615 C26.8556821,21.17615 26.8436821,21.18615 26.8306821,21.19815" id="Fill-3" fill-opacity="0.36"></path>
            <path d="M18.9829821,27.74895 C18.9679821,27.74795 18.9579821,27.74295 18.9509821,27.72995 C18.9029821,27.63295 18.8549821,27.53495 18.8079821,27.43695 C18.7929821,27.40595 18.7959821,27.39795 18.8279821,27.37695 C18.8729821,27.34795 18.9179821,27.31895 18.9619821,27.29095 C18.9819821,27.27795 18.9849821,27.27295 18.9759821,27.25595 C18.9669821,27.23995 18.9579821,27.22695 18.9469821,27.21295 C18.9319821,27.19395 18.9169821,27.17595 18.8979821,27.15995 C18.8809821,27.14495 18.8629821,27.13295 18.8369821,27.13095 C18.8179821,27.12895 18.7989821,27.12295 18.7809821,27.11895 C18.7749821,27.11795 18.7679821,27.11895 18.7619821,27.12095 C18.6899821,27.13695 18.6179821,27.14895 18.5449821,27.14795 C18.4529821,27.14795 18.3769821,27.11895 18.3229821,27.05295 C18.3029821,27.02795 18.2869821,26.99995 18.2749821,26.97195 C18.1839821,26.75295 18.0939821,26.53495 18.0059821,26.31495 C17.8829821,26.01195 17.7609821,25.70695 17.6399821,25.40195 C17.5249821,25.11295 17.4119821,24.82395 17.2959821,24.53595 C17.1999821,24.29495 17.0999821,24.05495 17.0039821,23.81195 C16.9399821,23.65295 16.8789821,23.49295 16.8179821,23.33195 C16.8089821,23.31095 16.7989821,23.28995 16.8099821,23.26395 C16.8149821,23.25295 16.8069821,23.23895 16.8049821,23.22695 C16.7989821,23.18095 16.8159821,23.13895 16.8379821,23.09695 C16.8519821,23.07095 16.8669821,23.04495 16.8829821,23.01995 C16.8979821,22.99995 16.9139821,22.97795 16.9329821,22.96095 C16.9669821,22.92995 17.0029821,22.89895 17.0459821,22.87895 C17.0659821,22.86895 17.0849821,22.85395 17.1039821,22.84395 C17.1309821,22.82795 17.1609821,22.81195 17.1889821,22.79795 C17.2729821,22.75395 17.3569821,22.71095 17.4399821,22.66795 C17.5229821,22.62895 17.5979821,22.59395 17.6739821,22.55895 C17.6979821,22.54795 17.7219821,22.53795 17.7469821,22.52695 C17.8949821,22.46395 18.0439821,22.39695 18.1929821,22.33695 C18.3399821,22.27595 18.4899821,22.22195 18.6389821,22.16595 C18.7419821,22.12895 18.8449821,22.09395 18.9479821,22.05995 C18.9839821,22.04795 19.0209821,22.04095 19.0579821,22.03195 C19.0729821,22.02795 19.0879821,22.02395 19.1029821,22.01995 C19.1229821,22.01595 19.1409821,22.00995 19.1609821,22.00595 C19.2039821,21.99695 19.2469821,21.98595 19.2899821,21.97995 C19.3199821,21.97595 19.3499821,21.97695 19.3799821,21.97495 C19.4189821,21.98595 19.4459821,21.99795 19.4739821,22.00495 C19.5229821,22.01595 19.5669821,22.03595 19.5999821,22.06995 C19.6179821,22.08995 19.6299821,22.11095 19.6359821,22.13795 C19.6419821,22.16095 19.6529821,22.18395 19.6629821,22.20595 C19.7009821,22.29595 19.7419821,22.38395 19.7789821,22.47395 C19.8589821,22.66895 19.9359821,22.86495 20.0139821,23.06095 C20.1579821,23.41695 20.3019821,23.77195 20.4459821,24.12895 C20.6349821,24.60295 20.8239821,25.07595 21.0119821,25.54995 C21.0499821,25.64495 21.0869821,25.74095 21.1219821,25.83895 C21.1479821,25.91195 21.1409821,25.98795 21.0999821,26.05995 C21.0739821,26.10595 21.0329821,26.14295 20.9869821,26.17495 C20.9459821,26.20495 20.9039821,26.23295 20.8619821,26.26395 C20.8439821,26.27595 20.8279821,26.28995 20.8119821,26.30495 C20.8069821,26.30995 20.8039821,26.31595 20.8029821,26.32295 C20.7979821,26.36395 20.7939821,26.40495 20.7919821,26.44695 C20.7919821,26.46695 20.7969821,26.48595 20.7999821,26.50695 C20.8269821,26.50095 20.8479821,26.49495 20.8699821,26.49195 C20.8909821,26.48895 20.9129821,26.48995 20.9349821,26.48695 C20.9489821,26.48595 20.9619821,26.47995 20.9769821,26.47795 C20.9899821,26.47695 21.0039821,26.47595 21.0149821,26.47695 C21.0499821,26.54195 21.0709821,26.59395 21.0919821,26.64495 C21.1119821,26.69295 21.1289821,26.74195 21.1499821,26.78995 C21.1609821,26.81395 21.1599821,26.83695 21.1389821,26.85895 C21.1299821,26.86895 21.1359821,26.87595 21.1519821,26.87795 C21.1629821,26.87895 21.1729821,26.88195 21.1829821,26.88695 C21.2099821,26.94195 21.2239821,26.98295 21.2399821,27.02295 C21.2489821,27.04495 21.2509821,27.06495 21.2349821,27.08595 C21.2149821,27.10995 21.2189821,27.13295 21.2289821,27.15695 C21.3039821,27.33195 21.3799821,27.50695 21.4499821,27.68395 C21.4979821,27.80295 21.5359821,27.92595 21.5779821,28.04695 C21.5869821,28.07395 21.5949821,28.10295 21.6039821,28.13095 C21.6089821,28.14595 21.6039821,28.15895 21.5909821,28.17395 C21.5829821,28.18495 21.5789821,28.20295 21.5819821,28.21695 C21.5859821,28.24395 21.5929821,28.26995 21.6039821,28.29695 C21.6169821,28.32795 21.6049821,28.35595 21.5849821,28.38295 C21.5399821,28.44295 21.4779821,28.48595 21.4129821,28.52595 C21.2909821,28.60195 21.1629821,28.66795 21.0329821,28.72995 C20.8769821,28.80495 20.7149821,28.86895 20.5529821,28.93195 C20.4289821,28.97895 20.3039821,29.02395 20.1769821,29.06295 C20.0669821,29.09795 19.9539821,29.12695 19.8379821,29.13895 C19.7979821,29.14295 19.7589821,29.14195 19.7199821,29.12995 C19.6999821,29.12295 19.6929821,29.10495 19.6849821,29.08995 C19.6719821,29.06595 19.6609821,29.04095 19.6479821,29.01795 C19.6449821,29.01195 19.6379821,29.00795 19.6309821,29.00295 C19.6229821,28.99695 19.6129821,28.99095 19.6029821,28.98595 C19.5759821,28.98495 19.5669821,28.97795 19.5609821,28.96595 C19.5329821,28.90595 19.5039821,28.84695 19.4749821,28.78595 C19.3599821,28.53295 19.2509821,28.27595 19.1469821,28.01895 C19.1429821,28.00795 19.1309821,27.99595 19.1199821,27.99095 C19.0739821,27.97595 19.0449821,27.94595 19.0309821,27.90095 C19.0239821,27.87995 19.0129821,27.85995 19.0039821,27.83995 C18.9919821,27.80895 18.9969821,27.79195 19.0239821,27.76895 C19.0279821,27.76495 19.0319821,27.76095 19.0359821,27.75595 C19.0159821,27.75095 18.9999821,27.74895 18.9829821,27.74895" id="Fill-5" fill-opacity="0.48"></path>
            <path d="M8.80138214,26.83105 C8.79138214,26.82005 8.78638214,26.81005 8.79138214,26.79605 C8.82738214,26.69305 8.86238214,26.59005 8.89838214,26.48705 C8.90938214,26.45405 8.91638214,26.45105 8.95438214,26.45905 C9.00638214,26.47005 9.05938214,26.48105 9.11138214,26.49305 C9.13338214,26.49805 9.13938214,26.49705 9.14538214,26.47705 C9.15038214,26.46105 9.15338214,26.44405 9.15538214,26.42805 C9.15738214,26.40305 9.16038214,26.37905 9.15738214,26.35505 C9.15538214,26.33305 9.15238214,26.31005 9.13538214,26.29105 C9.12238214,26.27605 9.11338214,26.25905 9.10338214,26.24305 C9.10038214,26.23805 9.09538214,26.23405 9.08938214,26.23105 C9.02738214,26.19105 8.96738214,26.14905 8.91538214,26.09705 C8.85138214,26.03205 8.81838214,25.95705 8.82638214,25.87205 C8.83038214,25.84105 8.83838214,25.81005 8.85038214,25.78005 C8.94138214,25.56205 9.03138214,25.34505 9.12338214,25.12805 C9.25238214,24.82505 9.38138214,24.52305 9.51138214,24.22305 C9.63338214,23.93705 9.75838214,23.65205 9.88038214,23.36705 C9.98338214,23.12805 10.0823821,22.88805 10.1853821,22.64805 C10.2523821,22.49005 10.3233821,22.33405 10.3933821,22.17805 C10.4033821,22.15605 10.4103821,22.13505 10.4373821,22.12405 C10.4473821,22.11905 10.4523821,22.10405 10.4593821,22.09405 C10.4883821,22.05705 10.5303821,22.03905 10.5743821,22.02505 C10.6023821,22.01805 10.6313821,22.00905 10.6593821,22.00405 C10.6853821,21.99905 10.7113821,21.99505 10.7383821,21.99605 C10.7833821,21.99905 10.8293821,22.00305 10.8753821,22.01905 C10.8963821,22.02605 10.9193821,22.02805 10.9413821,22.03405 C10.9723821,22.04305 11.0033821,22.05205 11.0333821,22.06105 C11.1233821,22.09005 11.2133821,22.11905 11.3033821,22.14805 C11.3893821,22.18005 11.4673821,22.20705 11.5453821,22.23605 C11.5703821,22.24505 11.5943821,22.25505 11.6183821,22.26505 C11.7693821,22.32505 11.9203821,22.38305 12.0703821,22.44605 C12.2163821,22.50805 12.3623821,22.57405 12.5063821,22.64105 C12.6053821,22.68605 12.7023821,22.73505 12.7993821,22.78405 C12.8333821,22.80105 12.8643821,22.82205 12.8973821,22.84205 C12.9093821,22.85105 12.9233821,22.85805 12.9373821,22.86605 C12.9533821,22.87605 12.9713821,22.88605 12.9883821,22.89605 C13.0253821,22.92005 13.0623821,22.94305 13.0973821,22.96905 C13.1213821,22.98705 13.1433821,23.00905 13.1653821,23.02905 C13.1843821,23.06405 13.1953821,23.09205 13.2103821,23.11705 C13.2373821,23.16005 13.2543821,23.20405 13.2523821,23.25305 C13.2523821,23.27805 13.2453821,23.30305 13.2323821,23.32605 C13.2183821,23.34705 13.2103821,23.37005 13.2003821,23.39305 C13.1653821,23.48305 13.1323821,23.57405 13.0943821,23.66405 C13.0133821,23.85805 12.9283821,24.05205 12.8463821,24.24605 C12.6963821,24.60005 12.5463821,24.95305 12.3953821,25.30605 C12.1953821,25.77405 11.9923821,26.24305 11.7913821,26.71105 C11.7503821,26.80605 11.7083821,26.90005 11.6643821,26.99305 C11.6313821,27.06305 11.5723821,27.11205 11.4923821,27.13405 C11.4423821,27.14805 11.3863821,27.14505 11.3313821,27.13605 C11.2803821,27.12805 11.2313821,27.11805 11.1803821,27.11005 C11.1583821,27.10605 11.1373821,27.10405 11.1153821,27.10305 C11.1093821,27.10305 11.1023821,27.10605 11.0973821,27.11005 C11.0653821,27.13705 11.0313821,27.16205 11.0013821,27.19005 C10.9873821,27.20305 10.9773821,27.22205 10.9643821,27.23805 C10.9873821,27.25305 11.0063821,27.26405 11.0243821,27.27605 C11.0413821,27.29005 11.0563821,27.30605 11.0733821,27.31905 C11.0843821,27.32805 11.0983821,27.33405 11.1103821,27.34305 C11.1203821,27.35105 11.1303821,27.35905 11.1383821,27.36905 C11.1163821,27.43905 11.0953821,27.49105 11.0723821,27.54305 C11.0533821,27.59005 11.0303821,27.63805 11.0123821,27.68505 C11.0013821,27.71105 10.9863821,27.72605 10.9553821,27.72705 C10.9423821,27.72805 10.9413821,27.73705 10.9513821,27.74905 C10.9583821,27.75805 10.9633821,27.76805 10.9663821,27.77705 C10.9463821,27.83605 10.9273821,27.87505 10.9103821,27.91405 C10.9013821,27.93505 10.8883821,27.95205 10.8633821,27.95505 C10.8313821,27.95805 10.8183821,27.97705 10.8083821,28.00205 C10.7373821,28.17805 10.6673821,28.35505 10.5923821,28.53005 C10.5413821,28.64705 10.4813821,28.76205 10.4253821,28.87705 C10.4123821,28.90305 10.3983821,28.92905 10.3843821,28.95405 C10.3763821,28.97005 10.3643821,28.97505 10.3453821,28.97705 C10.3313821,28.97705 10.3163821,28.98805 10.3083821,29.00005 C10.2913821,29.02205 10.2793821,29.04705 10.2673821,29.07205 C10.2533821,29.10305 10.2253821,29.11505 10.1933821,29.12005 C10.1183821,29.13005 10.0433821,29.11705 9.97038214,29.10005 C9.82938214,29.06605 9.69338214,29.02305 9.55738214,28.97505 C9.39338214,28.91705 9.23438214,28.84805 9.07538214,28.77805 C8.95438214,28.72505 8.83338214,28.66705 8.71638214,28.60505 C8.61438214,28.55105 8.51338214,28.49205 8.42438214,28.41905 C8.39338214,28.39305 8.36538214,28.36405 8.34738214,28.32905 C8.33638214,28.31005 8.34438214,28.29305 8.34938214,28.27605 C8.35738214,28.25005 8.36638214,28.22505 8.37438214,28.19905 C8.37638214,28.19205 8.37438214,28.18505 8.37338214,28.17805 C8.37038214,28.16605 8.36738214,28.15505 8.36438214,28.14405 C8.34638214,28.12505 8.34538214,28.11305 8.34938214,28.10105 C8.37138214,28.03805 8.39338214,27.97605 8.41638214,27.91305 C8.51338214,27.65205 8.61738214,27.39405 8.72738214,27.13905 C8.73138214,27.12705 8.73238214,27.11105 8.72738214,27.10105 C8.70538214,27.05605 8.70538214,27.01505 8.72738214,26.97405 C8.73838214,26.95305 8.74338214,26.93205 8.75238214,26.91005 C8.76538214,26.88005 8.78038214,26.87105 8.81738214,26.87405 C8.82238214,26.87505 8.82738214,26.87405 8.83338214,26.87405 C8.82338214,26.85605 8.81338214,26.84405 8.80138214,26.83105" id="Fill-7" fill-opacity="0.6"></path>
            <path d="M2.25058214,18.98335 C2.25158214,18.96835 2.25658214,18.95835 2.26958214,18.95135 C2.36658214,18.90335 2.46458214,18.85535 2.56258214,18.80835 C2.59358214,18.79335 2.60158214,18.79635 2.62258214,18.82835 C2.65158214,18.87335 2.68058214,18.91835 2.70858214,18.96235 C2.72158214,18.98235 2.72658214,18.98535 2.74358214,18.97635 C2.75958214,18.96735 2.77258214,18.95835 2.78658214,18.94735 C2.80558214,18.93235 2.82358214,18.91735 2.83958214,18.89835 C2.85458214,18.88135 2.86658214,18.86335 2.86858214,18.83735 C2.87058214,18.81835 2.87658214,18.79935 2.88058214,18.78135 C2.88158214,18.77535 2.88058214,18.76835 2.87858214,18.76235 C2.86258214,18.69035 2.85058214,18.61835 2.85158214,18.54535 C2.85158214,18.45335 2.88058214,18.37735 2.94658214,18.32335 C2.97158214,18.30335 2.99958214,18.28735 3.02758214,18.27535 C3.24658214,18.18435 3.46458214,18.09435 3.68458214,18.00635 C3.98758214,17.88335 4.29258214,17.76135 4.59758214,17.64035 C4.88658214,17.52535 5.17558214,17.41235 5.46358214,17.29635 C5.70458214,17.20035 5.94458214,17.10035 6.18758214,17.00435 C6.34658214,16.94035 6.50658214,16.87935 6.66758214,16.81835 C6.68858214,16.80935 6.70958214,16.79935 6.73558214,16.81035 C6.74658214,16.81535 6.76058214,16.80735 6.77258214,16.80535 C6.81858214,16.79935 6.86058214,16.81635 6.90258214,16.83835 C6.92858214,16.85235 6.95458214,16.86735 6.97958214,16.88335 C6.99958214,16.89835 7.02158214,16.91435 7.03858214,16.93335 C7.06958214,16.96735 7.10058214,17.00335 7.12058214,17.04635 C7.13058214,17.06635 7.14558214,17.08535 7.15558214,17.10435 C7.17158214,17.13135 7.18758214,17.16135 7.20158214,17.18935 C7.24558214,17.27335 7.28858214,17.35735 7.33158214,17.44035 C7.37058214,17.52335 7.40558214,17.59835 7.44058214,17.67435 C7.45158214,17.69835 7.46158214,17.72235 7.47258214,17.74735 C7.53558214,17.89535 7.60258214,18.04435 7.66258214,18.19335 C7.72358214,18.34035 7.77758214,18.49035 7.83358214,18.63935 C7.87058214,18.74235 7.90558214,18.84535 7.93958214,18.94835 C7.95158214,18.98435 7.95858214,19.02135 7.96758214,19.05835 C7.97158214,19.07335 7.97558214,19.08835 7.97958214,19.10335 C7.98358214,19.12335 7.98958214,19.14135 7.99358214,19.16135 C8.00258214,19.20435 8.01358214,19.24735 8.01958214,19.29035 C8.02358214,19.32035 8.02258214,19.35035 8.02458214,19.38035 C8.01358214,19.41935 8.00158214,19.44635 7.99458214,19.47435 C7.98358214,19.52335 7.96358214,19.56735 7.92958214,19.60035 C7.90958214,19.61835 7.88858214,19.63035 7.86158214,19.63635 C7.83858214,19.64235 7.81558214,19.65335 7.79358214,19.66335 C7.70358214,19.70135 7.61558214,19.74235 7.52558214,19.77935 C7.33058214,19.85935 7.13458214,19.93635 6.93858214,20.01435 C6.58258214,20.15835 6.22758214,20.30235 5.87058214,20.44635 C5.39658214,20.63535 4.92358214,20.82435 4.44958214,21.01235 C4.35458214,21.05035 4.25858214,21.08735 4.16058214,21.12235 C4.08758214,21.14835 4.01158214,21.14135 3.93958214,21.10035 C3.89358214,21.07435 3.85658214,21.03335 3.82458214,20.98735 C3.79458214,20.94635 3.76658214,20.90435 3.73558214,20.86235 C3.72358214,20.84435 3.70958214,20.82835 3.69458214,20.81235 C3.68958214,20.80735 3.68358214,20.80435 3.67658214,20.80335 C3.63558214,20.79835 3.59458214,20.79435 3.55258214,20.79235 C3.53258214,20.79235 3.51358214,20.79735 3.49258214,20.80035 C3.49858214,20.82735 3.50458214,20.84835 3.50758214,20.87035 C3.51058214,20.89135 3.50958214,20.91335 3.51258214,20.93535 C3.51358214,20.94935 3.51958214,20.96235 3.52158214,20.97735 C3.52258214,20.99035 3.52358214,21.00435 3.52258214,21.01535 C3.45758214,21.05035 3.40558214,21.07135 3.35458214,21.09235 C3.30658214,21.11235 3.25758214,21.12935 3.20958214,21.15035 C3.18558214,21.16135 3.16258214,21.16035 3.14058214,21.13935 C3.13058214,21.13035 3.12358214,21.13635 3.12158214,21.15235 C3.12058214,21.16335 3.11758214,21.17335 3.11258214,21.18335 C3.05758214,21.21035 3.01658214,21.22435 2.97658214,21.24035 C2.95458214,21.24935 2.93458214,21.25135 2.91358214,21.23535 C2.88958214,21.21535 2.86658214,21.21935 2.84258214,21.22935 C2.66758214,21.30435 2.49258214,21.38035 2.31558214,21.45035 C2.19658214,21.49835 2.07358214,21.53635 1.95258214,21.57835 C1.92558214,21.58735 1.89658214,21.59535 1.86858214,21.60435 C1.85358214,21.60935 1.84058214,21.60435 1.82558214,21.59135 C1.81458214,21.58335 1.79658214,21.57935 1.78258214,21.58235 C1.75558214,21.58635 1.72958214,21.59335 1.70258214,21.60435 C1.67158214,21.61735 1.64358214,21.60535 1.61658214,21.58535 C1.55658214,21.54035 1.51358214,21.47835 1.47358214,21.41335 C1.39758214,21.29135 1.33158214,21.16335 1.26958214,21.03335 C1.19458214,20.87735 1.13058214,20.71535 1.06758214,20.55335 C1.02058214,20.42935 0.975582135,20.30435 0.936582135,20.17735 C0.901582135,20.06735 0.872582135,19.95435 0.860582135,19.83835 C0.856582135,19.79835 0.857582135,19.75935 0.869582135,19.72035 C0.876582135,19.70035 0.894582135,19.69335 0.909582135,19.68535 C0.933582135,19.67235 0.958582135,19.66135 0.981582135,19.64835 C0.987582135,19.64535 0.991582135,19.63835 0.996582135,19.63135 C1.00258214,19.62335 1.00858214,19.61335 1.01358214,19.60335 C1.01458214,19.57635 1.02158214,19.56735 1.03358214,19.56135 C1.09358214,19.53335 1.15258214,19.50435 1.21358214,19.47535 C1.46658214,19.36035 1.72358214,19.25135 1.98058214,19.14735 C1.99158214,19.14335 2.00358214,19.13135 2.00858214,19.12035 C2.02358214,19.07435 2.05358214,19.04535 2.09858214,19.03135 C2.11958214,19.02435 2.13958214,19.01335 2.15958214,19.00435 C2.19058214,18.99235 2.20758214,18.99735 2.23058214,19.02435 C2.23458214,19.02835 2.23858214,19.03235 2.24358214,19.03635 C2.24858214,19.01635 2.25058214,19.00035 2.25058214,18.98335" id="Fill-9" fill-opacity="0.72"></path>
            <path d="M3.16848214,8.80175 C3.17948214,8.79175 3.18948214,8.78775 3.20348214,8.79275 C3.30648214,8.82775 3.40948214,8.86275 3.51248214,8.89875 C3.54548214,8.90975 3.54848214,8.91675 3.54048214,8.95475 C3.52948214,9.00775 3.51848214,9.05975 3.50648214,9.11175 C3.50148214,9.13375 3.50248214,9.13975 3.52248214,9.14575 C3.53848214,9.15075 3.55548214,9.15375 3.57148214,9.15575 C3.59648214,9.15775 3.62048214,9.16075 3.64448214,9.15875 C3.66648214,9.15575 3.68948214,9.15275 3.70848214,9.13575 C3.72348214,9.12375 3.74048214,9.11475 3.75648214,9.10375 C3.76148214,9.10075 3.76548214,9.09475 3.76848214,9.09075 C3.80848214,9.02775 3.85048214,8.96775 3.90248214,8.91575 C3.96748214,8.85175 4.04248214,8.81875 4.12748214,8.82675 C4.15848214,8.83075 4.18948214,8.83875 4.21948214,8.85075 C4.43748214,8.94075 4.65448214,9.03175 4.87148214,9.12475 C5.17448214,9.25275 5.47648214,9.38175 5.77648214,9.51175 C6.06248214,9.63475 6.34748214,9.75875 6.63248214,9.88075 C6.87148214,9.98375 7.11148214,10.08275 7.35148214,10.18475 C7.50948214,10.25275 7.66548214,10.32375 7.82148214,10.39375 C7.84348214,10.40375 7.86448214,10.41075 7.87548214,10.43775 C7.88048214,10.44775 7.89548214,10.45275 7.90548214,10.45975 C7.94248214,10.48775 7.96048214,10.52975 7.97448214,10.57475 C7.98148214,10.60275 7.99048214,10.63175 7.99548214,10.66075 C8.00048214,10.68575 8.00448214,10.71275 8.00348214,10.73875 C8.00048214,10.78375 7.99648214,10.83075 7.98048214,10.87575 C7.97348214,10.89675 7.97148214,10.91975 7.96548214,10.94175 C7.95648214,10.97275 7.94748214,11.00375 7.93848214,11.03475 C7.90948214,11.12375 7.88048214,11.21375 7.85148214,11.30375 C7.81948214,11.38975 7.79248214,11.46875 7.76348214,11.54575 C7.75448214,11.57075 7.74448214,11.59475 7.73448214,11.61975 C7.67448214,11.76975 7.61648214,11.92175 7.55348214,12.07075 C7.49148214,12.21775 7.42548214,12.36175 7.35848214,12.50675 C7.31348214,12.60575 7.26448214,12.70275 7.21548214,12.80075 C7.19848214,12.83375 7.17748214,12.86475 7.15748214,12.89775 C7.14848214,12.91075 7.14148214,12.92375 7.13348214,12.93675 C7.12348214,12.95375 7.11348214,12.97175 7.10348214,12.98875 C7.07948214,13.02475 7.05648214,13.06275 7.03048214,13.09775 C7.01248214,13.12175 6.99048214,13.14375 6.97048214,13.16575 C6.93548214,13.18475 6.90748214,13.19575 6.88248214,13.21075 C6.83948214,13.23775 6.79548214,13.25475 6.74648214,13.25375 C6.72148214,13.25275 6.69648214,13.24675 6.67348214,13.23175 C6.65248214,13.21875 6.62948214,13.21075 6.60648214,13.20175 C6.51648214,13.16575 6.42548214,13.13275 6.33548214,13.09475 C6.14148214,13.01275 5.94748214,12.92875 5.75348214,12.84675 C5.39948214,12.69675 5.04648214,12.54675 4.69348214,12.39575 C4.22548214,12.19475 3.75648214,11.99375 3.28848214,11.79175 C3.19348214,11.75075 3.09948214,11.70975 3.00648214,11.66475 C2.93648214,11.63175 2.88748214,11.57275 2.86548214,11.49275 C2.85148214,11.44175 2.85448214,11.38675 2.86348214,11.33175 C2.87148214,11.28175 2.88148214,11.23175 2.88948214,11.18075 C2.89348214,11.15975 2.89548214,11.13775 2.89648214,11.11575 C2.89648214,11.10975 2.89348214,11.10175 2.88948214,11.09675 C2.86248214,11.06475 2.83748214,11.03175 2.80948214,11.00175 C2.79648214,10.98775 2.77748214,10.97775 2.76148214,10.96475 C2.74648214,10.98775 2.73548214,11.00775 2.72348214,11.02475 C2.70948214,11.04175 2.69348214,11.05675 2.68048214,11.07375 C2.67148214,11.08475 2.66548214,11.09875 2.65648214,11.11075 C2.64848214,11.12075 2.64048214,11.13075 2.63048214,11.13875 C2.56048214,11.11675 2.50848214,11.09575 2.45648214,11.07375 C2.40948214,11.05275 2.36148214,11.03175 2.31448214,11.01175 C2.28848214,11.00175 2.27348214,10.98675 2.27248214,10.95575 C2.27148214,10.94175 2.26248214,10.94175 2.25048214,10.95175 C2.24148214,10.95875 2.23148214,10.96375 2.22248214,10.96775 C2.16348214,10.94675 2.12448214,10.92775 2.08548214,10.91075 C2.06448214,10.90175 2.04748214,10.88875 2.04448214,10.86275 C2.04148214,10.83175 2.02248214,10.81875 1.99748214,10.80875 C1.82148214,10.73775 1.64448214,10.66775 1.46948214,10.59275 C1.35248214,10.54175 1.23748214,10.48175 1.12248214,10.42575 C1.09648214,10.41275 1.07048214,10.39875 1.04548214,10.38475 C1.02948214,10.37675 1.02448214,10.36475 1.02248214,10.34575 C1.02248214,10.33175 1.01148214,10.31675 0.999482135,10.30875 C0.977482135,10.29275 0.952482135,10.27875 0.927482135,10.26775 C0.896482135,10.25475 0.884482135,10.22575 0.879482135,10.19375 C0.869482135,10.11875 0.882482135,10.04475 0.899482135,9.97075 C0.933482135,9.83075 0.976482135,9.69375 1.02448214,9.55675 C1.08248214,9.39375 1.15148214,9.23475 1.22148214,9.07575 C1.27448214,8.95475 1.33248214,8.83375 1.39448214,8.71675 C1.44848214,8.61475 1.50748214,8.51375 1.58048214,8.42475 C1.60648214,8.39375 1.63548214,8.36575 1.67048214,8.34675 C1.68948214,8.33675 1.70648214,8.34475 1.72348214,8.34975 C1.74948214,8.35775 1.77448214,8.36775 1.80048214,8.37475 C1.80748214,8.37675 1.81448214,8.37475 1.82148214,8.37375 C1.83348214,8.37175 1.84448214,8.36875 1.85548214,8.36475 C1.87448214,8.34675 1.88648214,8.34475 1.89848214,8.34975 C1.96148214,8.37175 2.02348214,8.39375 2.08648214,8.41675 C2.34748214,8.51375 2.60548214,8.61775 2.86048214,8.72675 C2.87248214,8.73175 2.88848214,8.73275 2.89848214,8.72675 C2.94348214,8.70575 2.98448214,8.70675 3.02548214,8.72775 C3.04648214,8.73775 3.06748214,8.74375 3.08948214,8.75275 C3.11948214,8.76575 3.12848214,8.78075 3.12548214,8.81675 C3.12448214,8.82275 3.12548214,8.82775 3.12548214,8.83375 C3.14348214,8.82375 3.15548214,8.81275 3.16848214,8.80175" id="Fill-11" fill-opacity="0.84"></path>
            <path d="M11.0161821,2.25145 C11.0311821,2.25145 11.0411821,2.25645 11.0481821,2.26945 C11.0961821,2.36745 11.1441821,2.46445 11.1911821,2.56345 C11.2061821,2.59445 11.2031821,2.60145 11.1711821,2.62345 C11.1261821,2.65145 11.0811821,2.68045 11.0371821,2.70945 C11.0171821,2.72145 11.0141821,2.72645 11.0231821,2.74445 C11.0321821,2.75945 11.0411821,2.77345 11.0521821,2.78645 C11.0671821,2.80545 11.0821821,2.82445 11.1011821,2.84045 C11.1181821,2.85445 11.1361821,2.86745 11.1621821,2.86945 C11.1811821,2.87145 11.2001821,2.87645 11.2181821,2.88045 C11.2241821,2.88145 11.2311821,2.88045 11.2371821,2.87945 C11.3091821,2.86345 11.3811821,2.85045 11.4541821,2.85145 C11.5461821,2.85145 11.6221821,2.88045 11.6761821,2.94745 C11.6961821,2.97145 11.7121821,3.00045 11.7241821,3.02845 C11.8151821,3.24745 11.9051821,3.46545 11.9931821,3.68445 C12.1161821,3.98845 12.2381821,4.29345 12.3591821,4.59745 C12.4741821,4.88645 12.5871821,5.17545 12.7031821,5.46345 C12.7991821,5.70545 12.8991821,5.94545 12.9951821,6.18745 C13.0591821,6.34645 13.1201821,6.50745 13.1811821,6.66745 C13.1901821,6.68945 13.2001821,6.71045 13.1891821,6.73645 C13.1841821,6.74745 13.1921821,6.76145 13.1941821,6.77345 C13.2001821,6.81945 13.1831821,6.86145 13.1611821,6.90345 C13.1471821,6.92845 13.1321821,6.95445 13.1161821,6.97945 C13.1011821,7.00045 13.0851821,7.02245 13.0661821,7.03945 C13.0321821,7.06945 12.9961821,7.10045 12.9531821,7.12045 C12.9331821,7.13045 12.9141821,7.14545 12.8951821,7.15645 C12.8681821,7.17245 12.8381821,7.18745 12.8101821,7.20245 C12.7261821,7.24545 12.6421821,7.28845 12.5591821,7.33245 C12.4761821,7.37045 12.4011821,7.40645 12.3251821,7.44045 C12.3011821,7.45245 12.2771821,7.46145 12.2521821,7.47245 C12.1041821,7.53645 11.9551821,7.60245 11.8061821,7.66345 C11.6591821,7.72345 11.5091821,7.77845 11.3601821,7.83445 C11.2571821,7.87145 11.1541821,7.90645 11.0511821,7.94045 C11.0151821,7.95245 10.9781821,7.95945 10.9411821,7.96745 C10.9261821,7.97145 10.9111821,7.97545 10.8961821,7.97945 C10.8761821,7.98445 10.8581821,7.98945 10.8381821,7.99445 C10.7951821,8.00345 10.7521821,8.01345 10.7091821,8.02045 C10.6791821,8.02445 10.6491821,8.02345 10.6191821,8.02545 C10.5801821,8.01345 10.5531821,8.00245 10.5251821,7.99545 C10.4761821,7.98345 10.4321821,7.96445 10.3991821,7.92945 C10.3811821,7.91045 10.3691821,7.88845 10.3631821,7.86245 C10.3571821,7.83845 10.3461821,7.81545 10.3361821,7.79345 C10.2981821,7.70445 10.2571821,7.61645 10.2201821,7.52645 C10.1401821,7.33145 10.0631821,7.13545 9.98518214,6.93945 C9.84118214,6.58345 9.69718214,6.22745 9.55318214,5.87145 C9.36418214,5.39745 9.17518214,4.92345 8.98718214,4.45045 C8.94918214,4.35445 8.91218214,4.25845 8.87718214,4.16145 C8.85118214,4.08745 8.85818214,4.01245 8.89918214,3.94045 C8.92518214,3.89445 8.96618214,3.85645 9.01218214,3.82445 C9.05318214,3.79545 9.09518214,3.76645 9.13718214,3.73645 C9.15518214,3.72345 9.17118214,3.70945 9.18718214,3.69545 C9.19218214,3.69045 9.19518214,3.68345 9.19618214,3.67745 C9.20118214,3.63545 9.20518214,3.59445 9.20718214,3.55345 C9.20718214,3.53345 9.20218214,3.51345 9.19918214,3.49245 C9.17218214,3.49845 9.15118214,3.50445 9.12918214,3.50845 C9.10818214,3.51145 9.08618214,3.51045 9.06418214,3.51245 C9.05018214,3.51445 9.03718214,3.52045 9.02218214,3.52245 C9.00918214,3.52345 8.99518214,3.52445 8.98418214,3.52245 C8.94918214,3.45845 8.92818214,3.40645 8.90718214,3.35545 C8.88718214,3.30645 8.87018214,3.25745 8.84918214,3.21045 C8.83818214,3.18545 8.83918214,3.16345 8.86018214,3.14045 C8.86918214,3.13045 8.86318214,3.12445 8.84718214,3.12245 C8.83618214,3.12145 8.82618214,3.11745 8.81618214,3.11345 C8.78918214,3.05745 8.77518214,3.01645 8.75918214,2.97645 C8.75018214,2.95545 8.74818214,2.93445 8.76418214,2.91445 C8.78418214,2.88945 8.78018214,2.86745 8.77018214,2.84245 C8.69518214,2.66745 8.61918214,2.49345 8.54918214,2.31645 C8.50118214,2.19745 8.46318214,2.07445 8.42118214,1.95345 C8.41218214,1.92545 8.40418214,1.89745 8.39518214,1.86945 C8.39018214,1.85345 8.39518214,1.84045 8.40818214,1.82645 C8.41618214,1.81545 8.42018214,1.79645 8.41718214,1.78345 C8.41318214,1.75545 8.40618214,1.72945 8.39518214,1.70345 C8.38218214,1.67145 8.39418214,1.64345 8.41418214,1.61645 C8.45918214,1.55745 8.52118214,1.51345 8.58618214,1.47345 C8.70818214,1.39845 8.83618214,1.33145 8.96618214,1.26945 C9.12218214,1.19445 9.28418214,1.13145 9.44618214,1.06845 C9.57018214,1.02045 9.69518214,0.97545 9.82218214,0.93745 C9.93218214,0.90245 10.0451821,0.87345 10.1611821,0.86145 C10.2011821,0.85745 10.2401821,0.85845 10.2791821,0.87045 C10.2991821,0.87645 10.3061821,0.89445 10.3141821,0.90945 C10.3271821,0.93445 10.3381821,0.95845 10.3511821,0.98245 C10.3541821,0.98845 10.3611821,0.99245 10.3681821,0.99645 C10.3761821,1.00245 10.3861821,1.00845 10.3961821,1.01345 C10.4231821,1.01445 10.4321821,1.02145 10.4381821,1.03345 C10.4661821,1.09345 10.4951821,1.15345 10.5241821,1.21345 C10.6391821,1.46645 10.7481821,1.72345 10.8521821,1.98145 C10.8561821,1.99245 10.8681821,2.00445 10.8791821,2.00845 C10.9251821,2.02445 10.9541821,2.05445 10.9681821,2.09845 C10.9751821,2.11945 10.9861821,2.13945 10.9951821,2.16045 C11.0071821,2.19145 11.0021821,2.20845 10.9751821,2.23145 C10.9711821,2.23545 10.9671821,2.23945 10.9631821,2.24345 C10.9831821,2.24945 10.9991821,2.25045 11.0161821,2.25145" id="Fill-13"></path>
            <path d="M21.1977821,3.16885 C21.2077821,3.17985 21.2127821,3.19085 21.2077821,3.20385 C21.1717821,3.30685 21.1367821,3.40985 21.1007821,3.51285 C21.0897821,3.54585 21.0827821,3.54885 21.0447821,3.54085 C20.9927821,3.52985 20.9397821,3.51785 20.8877821,3.50685 C20.8657821,3.50185 20.8597821,3.50285 20.8537821,3.52285 C20.8487821,3.53885 20.8457821,3.55585 20.8437821,3.57185 C20.8417821,3.59685 20.8387821,3.62085 20.8417821,3.64485 C20.8437821,3.66685 20.8467821,3.68985 20.8637821,3.70985 C20.8767821,3.72385 20.8857821,3.74085 20.8957821,3.75685 C20.8987821,3.76085 20.9037821,3.76485 20.9097821,3.76885 C20.9717821,3.80785 21.0317821,3.85085 21.0837821,3.90285 C21.1477821,3.96785 21.1807821,4.04285 21.1727821,4.12685 C21.1687821,4.15885 21.1607821,4.18985 21.1487821,4.21885 C21.0577821,4.43785 20.9677821,4.65485 20.8757821,4.87285 C20.7467821,5.17385 20.6177821,5.47585 20.4877821,5.77785 C20.3657821,6.06285 20.2407821,6.34685 20.1187821,6.63285 C20.0157821,6.87185 19.9167821,7.11185 19.8137821,7.35185 C19.7467821,7.50885 19.6757821,7.66585 19.6057821,7.82185 C19.5957821,7.84385 19.5887821,7.86585 19.5617821,7.87685 C19.5517821,7.88085 19.5467821,7.89585 19.5397821,7.90585 C19.5107821,7.94285 19.4687821,7.96085 19.4247821,7.97485 C19.3967821,7.98285 19.3677821,7.99085 19.3397821,7.99585 C19.3137821,8.00085 19.2877821,8.00485 19.2607821,8.00285 C19.2157821,8.00085 19.1697821,7.99785 19.1237821,7.98085 C19.1027821,7.97385 19.0797821,7.97185 19.0577821,7.96585 C19.0267821,7.95785 18.9957821,7.94785 18.9657821,7.93885 L18.6957821,7.85185 C18.6097821,7.82085 18.5317821,7.79285 18.4537821,7.76385 C18.4287821,7.75485 18.4047821,7.74485 18.3807821,7.73485 C18.2297821,7.67485 18.0787821,7.61685 17.9287821,7.55385 C17.7827821,7.49185 17.6367821,7.42585 17.4927821,7.35885 C17.3937821,7.31385 17.2967821,7.26485 17.1997821,7.21585 C17.1657821,7.19885 17.1347821,7.17685 17.1017821,7.15785 C17.0897821,7.14985 17.0757821,7.14185 17.0617821,7.13385 C17.0457821,7.12385 17.0277821,7.11385 17.0107821,7.10385 C16.9737821,7.07985 16.9367821,7.05685 16.9017821,7.03085 C16.8777821,7.01285 16.8557821,6.99085 16.8337821,6.97085 C16.8147821,6.93485 16.8037821,6.90785 16.7887821,6.88285 C16.7617821,6.83985 16.7447821,6.79485 16.7467821,6.74685 C16.7467821,6.72085 16.7537821,6.69685 16.7667821,6.67385 C16.7807821,6.65385 16.7887821,6.62985 16.7987821,6.60685 C16.8337821,6.51685 16.8667821,6.42485 16.9047821,6.33585 C16.9857821,6.14185 17.0707821,5.94785 17.1527821,5.75385 C17.3027821,5.40085 17.4527821,5.04685 17.6037821,4.69385 C17.8037821,4.22485 18.0067821,3.75685 18.2077821,3.28885 C18.2487821,3.19385 18.2907821,3.09985 18.3347821,3.00585 C18.3677821,2.93685 18.4267821,2.88785 18.5067821,2.86585 C18.5567821,2.85185 18.6127821,2.85485 18.6677821,2.86385 C18.7187821,2.87285 18.7677821,2.88185 18.8187821,2.88985 C18.8407821,2.89385 18.8617821,2.89485 18.8837821,2.89685 C18.8897821,2.89685 18.8967821,2.89385 18.9017821,2.88985 C18.9337821,2.86385 18.9677821,2.83785 18.9977821,2.80985 C19.0117821,2.79685 19.0217821,2.77885 19.0347821,2.76185 C19.0117821,2.74685 18.9927821,2.73585 18.9747821,2.72285 C18.9577821,2.70985 18.9427821,2.69385 18.9257821,2.67985 C18.9147821,2.67085 18.9007821,2.66585 18.8887821,2.65685 C18.8787821,2.64885 18.8687821,2.64085 18.8607821,2.62985 C18.8827821,2.56085 18.9037821,2.50885 18.9267821,2.45785 C18.9457821,2.40985 18.9687821,2.36285 18.9867821,2.31485 C18.9977821,2.28985 19.0127821,2.27385 19.0437821,2.27285 C19.0567821,2.27185 19.0577821,2.26285 19.0477821,2.25085 C19.0407821,2.24185 19.0357821,2.23185 19.0327821,2.22285 C19.0527821,2.16385 19.0717821,2.12585 19.0887821,2.08585 C19.0977821,2.06485 19.1107821,2.04785 19.1357821,2.04485 C19.1677821,2.04185 19.1807821,2.02285 19.1907821,1.99785 C19.2617821,1.82185 19.3317821,1.64485 19.4067821,1.46985 C19.4577821,1.35285 19.5177821,1.23785 19.5737821,1.12285 C19.5867821,1.09685 19.6007821,1.07085 19.6147821,1.04485 C19.6227821,1.03085 19.6347821,1.02485 19.6537821,1.02285 C19.6677821,1.02285 19.6827821,1.01085 19.6907821,1.00085 C19.7077821,0.97785 19.7197821,0.95285 19.7317821,0.92785 C19.7457821,0.89685 19.7737821,0.88385 19.8057821,0.87985 C19.8807821,0.86985 19.9557821,0.88285 20.0287821,0.90085 C20.1697821,0.93385 20.3057821,0.97685 20.4417821,1.02485 C20.6057821,1.08285 20.7647821,1.15185 20.9237821,1.22185 C21.0447821,1.27485 21.1657821,1.33285 21.2827821,1.39485 C21.3847821,1.44885 21.4857821,1.50685 21.5747821,1.58085 C21.6057821,1.60685 21.6337821,1.63485 21.6517821,1.66985 C21.6627821,1.68985 21.6547821,1.70685 21.6497821,1.72385 C21.6417821,1.74985 21.6327821,1.77485 21.6247821,1.80085 C21.6227821,1.80785 21.6247821,1.81485 21.6257821,1.82285 C21.6287821,1.83385 21.6317821,1.84485 21.6347821,1.85585 C21.6527821,1.87585 21.6537821,1.88585 21.6497821,1.89885 C21.6277821,1.96085 21.6057821,2.02385 21.5827821,2.08685 C21.4857821,2.34785 21.3817821,2.60585 21.2717821,2.86185 C21.2677821,2.87285 21.2667821,2.88885 21.2717821,2.89985 C21.2937821,2.94385 21.2937821,2.98485 21.2717821,3.02585 C21.2607821,3.04585 21.2557821,3.06785 21.2467821,3.08885 C21.2337821,3.11985 21.2187821,3.12785 21.1817821,3.12585 C21.1767821,3.12585 21.1717821,3.12585 21.1657821,3.12685 C21.1757821,3.14385 21.1857821,3.15585 21.1977821,3.16885" id="Fill-15" fill-opacity="0.12"></path>
            <path d="M16.1987821,1.69725 C16.2117821,1.70325 16.2197821,1.71225 16.2207821,1.72625 C16.2267821,1.83525 16.2337821,1.94425 16.2407821,2.05225 C16.2427821,2.08725 16.2377821,2.09325 16.1987821,2.10025 C16.1467821,2.11025 16.0947821,2.11925 16.0417821,2.12825 C16.0187821,2.13225 16.0137821,2.13525 16.0157821,2.15525 C16.0177821,2.17225 16.0207821,2.18925 16.0257821,2.20525 C16.0327821,2.22825 16.0397821,2.25225 16.0517821,2.27425 C16.0607821,2.29325 16.0737821,2.31325 16.0957821,2.32425 C16.1137821,2.33325 16.1287821,2.34525 16.1437821,2.35625 C16.1487821,2.35925 16.1557821,2.36125 16.1617821,2.36225 C16.2337821,2.37425 16.3057821,2.39025 16.3737821,2.41925 C16.4587821,2.45525 16.5167821,2.51125 16.5417821,2.59325 C16.5507821,2.62325 16.5547821,2.65525 16.5547821,2.68725 C16.5547821,2.92325 16.5537821,3.15825 16.5527821,3.39525 C16.5497821,3.72325 16.5457821,4.05125 16.5407821,4.37925 C16.5367821,4.69025 16.5307821,5.00025 16.5267821,5.31025 C16.5237821,5.57125 16.5237821,5.83125 16.5207821,6.09125 C16.5187821,6.26225 16.5127821,6.43425 16.5087821,6.60625 C16.5077821,6.62925 16.5087821,6.65225 16.4887821,6.67225 C16.4807821,6.68025 16.4817821,6.69625 16.4787821,6.70825 C16.4677821,6.75325 16.4357821,6.78625 16.3987821,6.81625 C16.3767821,6.83425 16.3527821,6.85225 16.3287821,6.86825 C16.3067821,6.88325 16.2837821,6.89625 16.2597821,6.90525 C16.2167821,6.92025 16.1717821,6.93525 16.1247821,6.93725 C16.1017821,6.93825 16.0797821,6.94525 16.0567821,6.94825 C16.0247821,6.95225 15.9927821,6.95525 15.9607821,6.95825 C15.8667821,6.96625 15.7727821,6.97325 15.6787821,6.98125 C15.5877821,6.98625 15.5047821,6.98925 15.4217821,6.99225 C15.3947821,6.99425 15.3687821,6.99425 15.3427821,6.99425 C15.1797821,6.99625 15.0177821,7.00125 14.8567821,7.00025 C14.6977821,6.99825 14.5387821,6.99225 14.3797821,6.98625 C14.2697821,6.98225 14.1617821,6.97425 14.0527821,6.96725 C14.0147821,6.96425 13.9777821,6.95525 13.9407821,6.95025 C13.9267821,6.94725 13.9107821,6.94625 13.8947821,6.94325 C13.8757821,6.94025 13.8557821,6.93825 13.8367821,6.93525 C13.7937821,6.92625 13.7497821,6.92025 13.7077821,6.90925 C13.6777821,6.90225 13.6497821,6.89025 13.6217821,6.88025 C13.5907821,6.85425 13.5697821,6.83325 13.5467821,6.81625 C13.5057821,6.78625 13.4717821,6.75225 13.4547821,6.70725 C13.4457821,6.68225 13.4417821,6.65725 13.4467821,6.63125 C13.4507821,6.60725 13.4497821,6.58225 13.4497821,6.55725 C13.4477821,6.46025 13.4437821,6.36325 13.4437821,6.26625 C13.4447821,6.05525 13.4487821,5.84425 13.4507821,5.63425 C13.4547821,5.25025 13.4577821,4.86525 13.4617821,4.48225 C13.4677821,3.97225 13.4747821,3.46225 13.4817821,2.95225 C13.4827821,2.84925 13.4857821,2.74625 13.4907821,2.64325 C13.4957821,2.56625 13.5307821,2.49825 13.5947821,2.44725 C13.6377821,2.41525 13.6897821,2.39625 13.7447821,2.38425 C13.7947821,2.37225 13.8447821,2.36225 13.8937821,2.35025 C13.9147821,2.34525 13.9347821,2.33925 13.9557821,2.33125 C13.9617821,2.32925 13.9677821,2.32325 13.9697821,2.31825 C13.9907821,2.28125 14.0107821,2.24525 14.0287821,2.20825 C14.0367821,2.19025 14.0387821,2.16925 14.0447821,2.14925 C14.0167821,2.14425 13.9957821,2.14225 13.9737821,2.13625 C13.9527821,2.13125 13.9327821,2.12125 13.9127821,2.11525 C13.8987821,2.11225 13.8837821,2.11225 13.8697821,2.10825 C13.8567821,2.10525 13.8447821,2.10025 13.8337821,2.09425 C13.8267821,2.02125 13.8267821,1.96525 13.8267821,1.90925 C13.8277821,1.85825 13.8297821,1.80625 13.8297821,1.75425 C13.8287821,1.72725 13.8377821,1.70625 13.8657821,1.69425 C13.8777821,1.68825 13.8747821,1.67925 13.8607821,1.67225 C13.8507821,1.66725 13.8427821,1.65925 13.8357821,1.65225 C13.8327821,1.59025 13.8347821,1.54725 13.8357821,1.50425 C13.8357821,1.48125 13.8417821,1.46025 13.8637821,1.44825 C13.8907821,1.43325 13.8967821,1.41025 13.8957821,1.38425 C13.8947821,1.19425 13.8907821,1.00325 13.8937821,0.81325 C13.8957821,0.68525 13.9077821,0.55725 13.9157821,0.42825 C13.9177821,0.40025 13.9207821,0.37025 13.9237821,0.34225 C13.9247821,0.32425 13.9337821,0.31525 13.9507821,0.30625 C13.9637821,0.30025 13.9727821,0.28325 13.9757821,0.27025 C13.9827821,0.24325 13.9857821,0.21625 13.9857821,0.18825 C13.9867821,0.15425 14.0087821,0.13225 14.0367821,0.11525 C14.1017821,0.07725 14.1757821,0.06125 14.2507821,0.04925 C14.3927821,0.02625 14.5357821,0.01325 14.6797821,0.00625 C14.8527821,-0.00275 15.0267821,-0.00075 15.1997821,0.00425 C15.3327821,0.00725 15.4657821,0.01325 15.5977821,0.02625 C15.7137821,0.03625 15.8287821,0.05225 15.9387821,0.08625 C15.9777821,0.09725 16.0137821,0.11425 16.0447821,0.13925 C16.0617821,0.15325 16.0607821,0.17225 16.0627821,0.18925 C16.0647821,0.21625 16.0657821,0.24325 16.0687821,0.27025 C16.0697821,0.27725 16.0747821,0.28325 16.0787821,0.29025 C16.0857821,0.29925 16.0927821,0.30825 16.0987821,0.31725 C16.1237821,0.32825 16.1297821,0.33825 16.1307821,0.35125 C16.1337821,0.41725 16.1367821,0.48425 16.1397821,0.55025 C16.1497821,0.82825 16.1527821,1.10725 16.1497821,1.38525 C16.1497821,1.39725 16.1547821,1.41225 16.1647821,1.42025 C16.2017821,1.45325 16.2167821,1.49125 16.2127821,1.53725 C16.2107821,1.56025 16.2137821,1.58325 16.2137821,1.60525 C16.2137821,1.63825 16.2027821,1.65225 16.1677821,1.66325 C16.1627821,1.66525 16.1577821,1.66825 16.1527821,1.67025 C16.1687821,1.68225 16.1827821,1.69025 16.1987821,1.69725" id="Fill-17" fill-opacity="0.06"></path>
            <path d="M25.2534821,6.44135 C25.2584821,6.45535 25.2584821,6.46735 25.2484821,6.47835 C25.1764821,6.55935 25.1054821,6.64135 25.0324821,6.72235 C25.0094821,6.74835 25.0014821,6.74835 24.9694821,6.72635 C24.9254821,6.69635 24.8814821,6.66535 24.8384821,6.63435 C24.8184821,6.62135 24.8134821,6.62135 24.8004821,6.63635 C24.7894821,6.64935 24.7804821,6.66435 24.7724821,6.67935 C24.7614821,6.70035 24.7484821,6.72135 24.7414821,6.74435 C24.7344821,6.76535 24.7304821,6.78835 24.7374821,6.81335 C24.7434821,6.83135 24.7454821,6.85035 24.7494821,6.86935 C24.7504821,6.87435 24.7544821,6.88035 24.7574821,6.88435 C24.8004821,6.94535 24.8394821,7.00735 24.8664821,7.07635 C24.9014821,7.16035 24.9034821,7.24235 24.8624821,7.31735 C24.8484821,7.34535 24.8284821,7.37135 24.8064821,7.39335 C24.6394821,7.56035 24.4724821,7.72635 24.3034821,7.89235 C24.0694821,8.12235 23.8344821,8.35135 23.5994821,8.58035 C23.3774821,8.79635 23.1524821,9.01135 22.9314821,9.22935 C22.7444821,9.41035 22.5614821,9.59435 22.3744821,9.77635 C22.2514821,9.89635 22.1264821,10.01335 22.0014821,10.13135 C21.9844821,10.14735 21.9694821,10.16435 21.9404821,10.16435 C21.9294821,10.16435 21.9194821,10.17635 21.9084821,10.18335 C21.8684821,10.20735 21.8224821,10.20735 21.7764821,10.20235 C21.7474821,10.19935 21.7184821,10.19635 21.6894821,10.19035 C21.6634821,10.18435 21.6384821,10.17835 21.6134821,10.16735 C21.5724821,10.14735 21.5314821,10.12635 21.4954821,10.09435 C21.4794821,10.07935 21.4584821,10.06835 21.4404821,10.05435 C21.4154821,10.03435 21.3904821,10.01435 21.3654821,9.99335 C21.2934821,9.93235 21.2224821,9.87135 21.1494821,9.81035 C21.0824821,9.74935 21.0214821,9.69235 20.9594821,9.63635 C20.9404821,9.61835 20.9214821,9.60035 20.9024821,9.58135 C20.7864821,9.46835 20.6694821,9.35735 20.5554821,9.24135 C20.4434821,9.12835 20.3354821,9.01135 20.2274821,8.89535 C20.1534821,8.81535 20.0814821,8.73335 20.0104821,8.65035 C19.9854821,8.62235 19.9654821,8.58935 19.9424821,8.55935 C19.9344821,8.54635 19.9244821,8.53435 19.9154821,8.52235 C19.9034821,8.50635 19.8914821,8.49035 19.8794821,8.47435 C19.8554821,8.43835 19.8294821,8.40235 19.8064821,8.36535 C19.7904821,8.33935 19.7794821,8.31135 19.7674821,8.28335 C19.7634821,8.24335 19.7634821,8.21435 19.7584821,8.18535 C19.7504821,8.13535 19.7514821,8.08735 19.7714821,8.04435 C19.7814821,8.02035 19.7974821,8.00035 19.8184821,7.98435 C19.8394821,7.97035 19.8564821,7.95235 19.8724821,7.93435 C19.9414821,7.86435 20.0064821,7.79335 20.0744821,7.72435 C20.2254821,7.57635 20.3764821,7.42935 20.5264821,7.28235 C20.8014821,7.01335 21.0744821,6.74335 21.3494821,6.47535 C21.7144821,6.11935 22.0794821,5.76335 22.4444821,5.40835 C22.5194821,5.33635 22.5944821,5.26435 22.6704821,5.19535 C22.7284821,5.14435 22.8004821,5.12135 22.8824821,5.13135 C22.9364821,5.13835 22.9854821,5.16235 23.0324821,5.19135 C23.0754821,5.21835 23.1184821,5.24635 23.1624821,5.27335 C23.1804821,5.28435 23.1994821,5.29535 23.2194821,5.30335 C23.2254821,5.30635 23.2334821,5.30635 23.2394821,5.30435 C23.2794821,5.29335 23.3194821,5.28235 23.3574821,5.26835 C23.3764821,5.26135 23.3934821,5.24835 23.4104821,5.23735 C23.3954821,5.21535 23.3814821,5.19735 23.3704821,5.17935 C23.3584821,5.16035 23.3524821,5.13935 23.3414821,5.12035 C23.3344821,5.10835 23.3234821,5.09735 23.3164821,5.08535 C23.3104821,5.07435 23.3044821,5.06235 23.3004821,5.04935 C23.3474821,4.99335 23.3874821,4.95435 23.4264821,4.91435 C23.4634821,4.87835 23.5014821,4.84335 23.5384821,4.80635 C23.5574821,4.78735 23.5774821,4.77835 23.6074821,4.78935 C23.6194821,4.79435 23.6224821,4.78535 23.6184821,4.77035 C23.6154821,4.75935 23.6144821,4.74835 23.6144821,4.73835 C23.6564821,4.69235 23.6894821,4.66335 23.7194821,4.63335 C23.7354821,4.61735 23.7544821,4.60735 23.7784821,4.61435 C23.8094821,4.62335 23.8284821,4.61135 23.8474821,4.59135 C23.9814821,4.45635 24.1124821,4.31835 24.2494821,4.18635 C24.3414821,4.09735 24.4404821,4.01535 24.5364821,3.93035 C24.5584821,3.91035 24.5804821,3.89235 24.6034821,3.87335 C24.6164821,3.86335 24.6294821,3.86235 24.6484821,3.86835 C24.6614821,3.87335 24.6804821,3.86835 24.6914821,3.86135 C24.7144821,3.84635 24.7364821,3.82935 24.7564821,3.81035 C24.7804821,3.78635 24.8124821,3.78535 24.8444821,3.79435 C24.9164821,3.81335 24.9804821,3.85435 25.0414821,3.89835 C25.1584821,3.98335 25.2694821,4.07535 25.3754821,4.17135 C25.5044821,4.28835 25.6254821,4.41235 25.7444821,4.53735 C25.8364821,4.63335 25.9264821,4.73235 26.0114821,4.83535 C26.0844821,4.92335 26.1544821,5.01635 26.2094821,5.11835 C26.2294821,5.15335 26.2424821,5.19135 26.2464821,5.23135 C26.2484821,5.25335 26.2344821,5.26535 26.2244821,5.27935 C26.2064821,5.30035 26.1884821,5.31935 26.1714821,5.34035 C26.1664821,5.34635 26.1654821,5.35435 26.1644821,5.36135 C26.1624821,5.37235 26.1604821,5.38335 26.1594821,5.39535 C26.1694821,5.42035 26.1664821,5.43135 26.1564821,5.44135 C26.1124821,5.49035 26.0684821,5.54035 26.0234821,5.58835 C25.8334821,5.79335 25.6394821,5.99135 25.4404821,6.18635 C25.4314821,6.19435 25.4244821,6.20935 25.4254821,6.22135 C25.4284821,6.27035 25.4114821,6.30835 25.3764821,6.33835 C25.3584821,6.35335 25.3454821,6.37035 25.3284821,6.38635 C25.3064821,6.41035 25.2884821,6.41235 25.2564821,6.39635 C25.2504821,6.39335 25.2454821,6.39235 25.2404821,6.39035 C25.2424821,6.40935 25.2474821,6.42535 25.2534821,6.44135" id="Fill-19" fill-opacity="0.18"></path>
            <path d="M28.3022821,16.19915 C28.2952821,16.21215 28.2872821,16.22015 28.2732821,16.22115 C28.1642821,16.22715 28.0562821,16.23415 27.9482821,16.24115 C27.9122821,16.24315 27.9062821,16.23815 27.9002821,16.19915 C27.8902821,16.14715 27.8802821,16.09515 27.8712821,16.04215 C27.8672821,16.01915 27.8642821,16.01415 27.8432821,16.01615 C27.8262821,16.01815 27.8102821,16.02115 27.7932821,16.02615 C27.7712821,16.03315 27.7472821,16.04015 27.7262821,16.05215 C27.7062821,16.06115 27.6872821,16.07415 27.6752821,16.09615 C27.6662821,16.11415 27.6542821,16.12915 27.6432821,16.14415 C27.6402821,16.14915 27.6392821,16.15615 27.6372821,16.16215 C27.6242821,16.23415 27.6092821,16.30615 27.5802821,16.37415 C27.5442821,16.45915 27.4892821,16.51715 27.4062821,16.54215 C27.3762821,16.55115 27.3442821,16.55515 27.3132821,16.55515 C27.0762821,16.55515 26.8402821,16.55415 26.6052821,16.55315 C26.2772821,16.55015 25.9482821,16.54615 25.6202821,16.54115 C25.3102821,16.53715 24.9992821,16.53115 24.6892821,16.52715 C24.4282821,16.52415 24.1682821,16.52415 23.9082821,16.52115 C23.7372821,16.51915 23.5652821,16.51315 23.3942821,16.50915 C23.3702821,16.50815 23.3472821,16.50915 23.3262821,16.48915 C23.3192821,16.48115 23.3032821,16.48215 23.2902821,16.47915 C23.2452821,16.46815 23.2132821,16.43615 23.1842821,16.39915 C23.1652821,16.37715 23.1472821,16.35315 23.1302821,16.32915 C23.1162821,16.30715 23.1032821,16.28415 23.0942821,16.26015 C23.0782821,16.21715 23.0652821,16.17215 23.0622821,16.12515 C23.0612821,16.10215 23.0542821,16.08015 23.0512821,16.05715 C23.0472821,16.02515 23.0442821,15.99315 23.0412821,15.96115 C23.0332821,15.86715 23.0262821,15.77315 23.0182821,15.67915 C23.0142821,15.58815 23.0102821,15.50515 23.0062821,15.42215 C23.0052821,15.39515 23.0052821,15.36915 23.0052821,15.34315 C23.0032821,15.18115 22.9982821,15.01915 22.9992821,14.85715 C23.0002821,14.69815 23.0072821,14.53815 23.0132821,14.37915 C23.0172821,14.27115 23.0252821,14.16215 23.0322821,14.05315 C23.0352821,14.01615 23.0432821,13.97915 23.0492821,13.94115 C23.0512821,13.92615 23.0542821,13.91115 23.0562821,13.89515 C23.0592821,13.87615 23.0612821,13.85615 23.0652821,13.83715 C23.0732821,13.79315 23.0792821,13.75015 23.0902821,13.70815 C23.0972821,13.67815 23.1102821,13.65015 23.1192821,13.62215 C23.1452821,13.59115 23.1652821,13.57015 23.1832821,13.54615 C23.2122821,13.50515 23.2472821,13.47215 23.2922821,13.45515 C23.3172821,13.44615 23.3412821,13.44215 23.3672821,13.44715 C23.3922821,13.45115 23.4172821,13.45015 23.4422821,13.44915 C23.5382821,13.44815 23.6362821,13.44415 23.7332821,13.44415 C23.9442821,13.44615 24.1552821,13.44915 24.3652821,13.45115 C24.7492821,13.45515 25.1332821,13.45715 25.5182821,13.46215 C26.0282821,13.46815 26.5372821,13.47515 27.0472821,13.48215 C27.1502821,13.48415 27.2532821,13.48615 27.3562821,13.49115 C27.4342821,13.49515 27.5012821,13.53115 27.5522821,13.59615 C27.5842821,13.63815 27.6032821,13.69015 27.6152821,13.74415 C27.6262821,13.79415 27.6372821,13.84415 27.6492821,13.89415 C27.6542821,13.91515 27.6602821,13.93615 27.6682821,13.95615 C27.6702821,13.96215 27.6762821,13.96815 27.6812821,13.97115 C27.7182821,13.99115 27.7542821,14.01115 27.7912821,14.02915 C27.8102821,14.03715 27.8292821,14.03915 27.8512821,14.04415 C27.8552821,14.01815 27.8582821,13.99515 27.8632821,13.97415 C27.8682821,13.95315 27.8772821,13.93315 27.8842821,13.91215 C27.8882821,13.89915 27.8882821,13.88415 27.8912821,13.87015 C27.8942821,13.85815 27.8992821,13.84515 27.9052821,13.83415 C27.9782821,13.82715 28.0332821,13.82715 28.0892821,13.82715 C28.1422821,13.82815 28.1942821,13.83015 28.2452821,13.82915 C28.2722821,13.82915 28.2922821,13.83815 28.3062821,13.86615 C28.3122821,13.87815 28.3202821,13.87515 28.3272821,13.86115 C28.3322821,13.85115 28.3402821,13.84315 28.3482821,13.83615 C28.4092821,13.83315 28.4522821,13.83515 28.4952821,13.83615 C28.5192821,13.83615 28.5382821,13.84215 28.5512821,13.86515 C28.5672821,13.89215 28.5882821,13.89715 28.6152821,13.89715 C28.8062821,13.89515 28.9952821,13.89115 29.1862821,13.89415 C29.3142821,13.89615 29.4432821,13.90815 29.5712821,13.91615 C29.6002821,13.91715 29.6282821,13.92115 29.6572821,13.92315 C29.6742821,13.92515 29.6842821,13.93415 29.6932821,13.95115 C29.6992821,13.96415 29.7152821,13.97415 29.7292821,13.97715 C29.7552821,13.98315 29.7832821,13.98615 29.8112821,13.98715 C29.8452821,13.98715 29.8672821,14.00915 29.8842821,14.03715 C29.9222821,14.10215 29.9382821,14.17615 29.9502821,14.25115 C29.9732821,14.39315 29.9862821,14.53615 29.9932821,14.68015 C30.0022821,14.85315 29.9992821,15.02715 29.9952821,15.20015 C29.9922821,15.33315 29.9862821,15.46615 29.9732821,15.59815 C29.9622821,15.71315 29.9472821,15.82815 29.9132821,15.93915 C29.9022821,15.97815 29.8852821,16.01415 29.8602821,16.04515 C29.8462821,16.06215 29.8272821,16.06115 29.8102821,16.06315 C29.7822821,16.06515 29.7562821,16.06615 29.7292821,16.06915 C29.7222821,16.07015 29.7152821,16.07515 29.7092821,16.07915 C29.7002821,16.08615 29.6912821,16.09315 29.6822821,16.09915 C29.6712821,16.12415 29.6612821,16.13015 29.6482821,16.13115 C29.5812821,16.13415 29.5152821,16.13715 29.4482821,16.14015 C29.1712821,16.15015 28.8932821,16.15315 28.6142821,16.15015 C28.6022821,16.15015 28.5872821,16.15515 28.5792821,16.16515 C28.5462821,16.20215 28.5082821,16.21715 28.4622821,16.21315 C28.4402821,16.21115 28.4162821,16.21415 28.3942821,16.21415 C28.3612821,16.21415 28.3472821,16.20315 28.3362821,16.16815 C28.3342821,16.16315 28.3312821,16.15815 28.3292821,16.15315 C28.3172821,16.16915 28.3092821,16.18315 28.3022821,16.19915" id="Fill-21" fill-opacity="0.3"></path>
            <path d="M23.5581821,25.25385 C23.5441821,25.25885 23.5331821,25.25885 23.5221821,25.24885 C23.4401821,25.17685 23.3591821,25.10585 23.2771821,25.03285 C23.2511821,25.00985 23.2501821,25.00185 23.2731821,24.96985 C23.3031821,24.92585 23.3331821,24.88185 23.3651821,24.83885 C23.3771821,24.81885 23.3781821,24.81385 23.3631821,24.80085 C23.3501821,24.78985 23.3351821,24.78085 23.3211821,24.77285 C23.2991821,24.76185 23.2781821,24.74885 23.2541821,24.74185 C23.2341821,24.73485 23.2111821,24.73085 23.1871821,24.73785 C23.1681821,24.74385 23.1491821,24.74585 23.1301821,24.74985 C23.1241821,24.75085 23.1201821,24.75485 23.1151821,24.75785 C23.0541821,24.80085 22.9921821,24.83985 22.9231821,24.86685 C22.8381821,24.90185 22.7571821,24.90385 22.6821821,24.86285 C22.6551821,24.84885 22.6281821,24.82885 22.6061821,24.80685 C22.4391821,24.63985 22.2731821,24.47285 22.1081821,24.30385 C21.8771821,24.06985 21.6481821,23.83485 21.4191821,23.59985 C21.2031821,23.37785 20.9881821,23.15285 20.7711821,22.93185 C20.5891821,22.74485 20.4051821,22.56185 20.2231821,22.37485 C20.1031821,22.25185 19.9861821,22.12685 19.8681821,22.00185 C19.8521821,21.98485 19.8341821,21.96985 19.8341821,21.94085 C19.8341821,21.92985 19.8231821,21.91985 19.8161821,21.90885 C19.7921821,21.86885 19.7911821,21.82285 19.7961821,21.77685 C19.8001821,21.74785 19.8031821,21.71885 19.8091821,21.68985 C19.8151821,21.66385 19.8211821,21.63885 19.8321821,21.61385 C19.8521821,21.57285 19.8731821,21.53185 19.9061821,21.49585 C19.9201821,21.47985 19.9311821,21.45885 19.9451821,21.44085 C19.9651821,21.41585 19.9851821,21.39085 20.0061821,21.36585 C20.0671821,21.29385 20.1281821,21.22285 20.1891821,21.14985 C20.2501821,21.08285 20.3071821,21.02185 20.3631821,20.95985 C20.3811821,20.94085 20.4001821,20.92185 20.4171821,20.90285 C20.5311821,20.78685 20.6421821,20.66985 20.7571821,20.55585 C20.8701821,20.44385 20.9881821,20.33585 21.1051821,20.22785 C21.1851821,20.15385 21.2671821,20.08185 21.3491821,20.01085 C21.3771821,19.98585 21.4101821,19.96585 21.4401821,19.94285 C21.4531821,19.93485 21.4651821,19.92485 21.4771821,19.91585 C21.4931821,19.90385 21.5081821,19.89185 21.5251821,19.87985 C21.5611821,19.85585 21.5971821,19.82985 21.6341821,19.80685 C21.6601821,19.79085 21.6881821,19.77985 21.7151821,19.76785 C21.7551821,19.76385 21.7851821,19.76385 21.8141821,19.75885 C21.8641821,19.75085 21.9121821,19.75185 21.9551821,19.77185 C21.9791821,19.78185 21.9991821,19.79785 22.0151821,19.81885 C22.0291821,19.83985 22.0471821,19.85685 22.0651821,19.87285 C22.1351821,19.94185 22.2061821,20.00685 22.2751821,20.07485 C22.4231821,20.22585 22.5701821,20.37685 22.7171821,20.52685 C22.9861821,20.80185 23.2561821,21.07485 23.5241821,21.34985 C23.8801821,21.71485 24.2361821,22.07985 24.5911821,22.44485 C24.6631821,22.51985 24.7351821,22.59485 24.8031821,22.67085 C24.8561821,22.72885 24.8781821,22.80085 24.8681821,22.88285 C24.8621821,22.93685 24.8371821,22.98585 24.8081821,23.03285 C24.7811821,23.07585 24.7521821,23.11885 24.7261821,23.16285 C24.7141821,23.18085 24.7041821,23.19985 24.6961821,23.21985 C24.6931821,23.22585 24.6931821,23.23385 24.6951821,23.23985 C24.7061821,23.27985 24.7171821,23.31985 24.7321821,23.35785 C24.7391821,23.37685 24.7511821,23.39385 24.7621821,23.41085 C24.7851821,23.39585 24.8011821,23.38185 24.8211821,23.37085 C24.8391821,23.35885 24.8601821,23.35285 24.8791821,23.34185 C24.8911821,23.33485 24.9021821,23.32385 24.9141821,23.31685 C24.9251821,23.31085 24.9371821,23.30485 24.9501821,23.30085 C25.0061821,23.34785 25.0451821,23.38785 25.0841821,23.42685 C25.1201821,23.46385 25.1561821,23.50185 25.1931821,23.53885 C25.2121821,23.55785 25.2211821,23.57785 25.2101821,23.60785 C25.2051821,23.61985 25.2141821,23.62285 25.2291821,23.61885 C25.2401821,23.61585 25.2501821,23.61485 25.2611821,23.61485 C25.3071821,23.65685 25.3351821,23.68985 25.3661821,23.71985 C25.3821821,23.73585 25.3921821,23.75485 25.3851821,23.77885 C25.3761821,23.80985 25.3881821,23.82885 25.4081821,23.84785 C25.5431821,23.98185 25.6801821,24.11285 25.8131821,24.24985 C25.9021821,24.34185 25.9851821,24.44085 26.0701821,24.53685 C26.0881821,24.55885 26.1071821,24.58085 26.1251821,24.60385 C26.1361821,24.61685 26.1371821,24.62985 26.1301821,24.64885 C26.1261821,24.66185 26.1311821,24.68085 26.1381821,24.69185 C26.1531821,24.71485 26.1701821,24.73685 26.1891821,24.75685 C26.2131821,24.78085 26.2131821,24.81285 26.2051821,24.84485 C26.1861821,24.91685 26.1451821,24.98085 26.1011821,25.04185 C26.0161821,25.15885 25.9241821,25.26985 25.8281821,25.37585 C25.7111821,25.50485 25.5871821,25.62585 25.4611821,25.74485 C25.3661821,25.83685 25.2671821,25.92685 25.1641821,26.01185 C25.0761821,26.08485 24.9831821,26.15485 24.8811821,26.20985 C24.8451821,26.22985 24.8081821,26.24285 24.7681821,26.24685 C24.7461821,26.24885 24.7341821,26.23485 24.7201821,26.22485 C24.7001821,26.20685 24.6791821,26.18885 24.6591821,26.17185 C24.6531821,26.16685 24.6451821,26.16585 24.6381821,26.16485 C24.6271821,26.16285 24.6161821,26.16085 24.6051821,26.15985 C24.5791821,26.16985 24.5681821,26.16685 24.5581821,26.15685 C24.5091821,26.11285 24.4591821,26.06885 24.4111821,26.02385 C24.2061821,25.83385 24.0081821,25.63985 23.8131821,25.44085 C23.8051821,25.43185 23.7901821,25.42485 23.7781821,25.42585 C23.7291821,25.42885 23.6911821,25.41185 23.6621821,25.37685 C23.6471821,25.35885 23.6281821,25.34585 23.6131821,25.32885 C23.5891821,25.30685 23.5871821,25.28885 23.6041821,25.25685 C23.6061821,25.25085 23.6081821,25.24585 23.6101821,25.24085 C23.5901821,25.24285 23.5741821,25.24785 23.5581821,25.25385" id="Fill-23" fill-opacity="0.42"></path>
            <path d="M13.8003821,28.30265 C13.7873821,28.29565 13.7793821,28.28765 13.7783821,28.27365 C13.7723821,28.16465 13.7653821,28.05665 13.7583821,27.94865 C13.7563821,27.91265 13.7613821,27.90665 13.8003821,27.90065 C13.8523821,27.89065 13.9043821,27.88065 13.9573821,27.87165 C13.9803821,27.86765 13.9853821,27.86465 13.9833821,27.84365 C13.9813821,27.82665 13.9783821,27.81065 13.9733821,27.79365 C13.9663821,27.77165 13.9593821,27.74765 13.9473821,27.72665 C13.9383821,27.70665 13.9253821,27.68765 13.9033821,27.67565 C13.8853821,27.66665 13.8703821,27.65465 13.8553821,27.64365 C13.8503821,27.64065 13.8433821,27.63965 13.8373821,27.63765 C13.7653821,27.62465 13.6933821,27.60965 13.6253821,27.58065 C13.5403821,27.54465 13.4823821,27.48965 13.4573821,27.40665 C13.4483821,27.37665 13.4443821,27.34465 13.4443821,27.31365 C13.4443821,27.07665 13.4453821,26.84065 13.4463821,26.60565 C13.4493821,26.27765 13.4533821,25.94865 13.4583821,25.62065 C13.4623821,25.31065 13.4683821,24.99965 13.4723821,24.68965 C13.4753821,24.42865 13.4753821,24.16865 13.4783821,23.90865 C13.4803821,23.73765 13.4863821,23.56565 13.4903821,23.39465 C13.4913821,23.37065 13.4903821,23.34765 13.5103821,23.32665 C13.5183821,23.31965 13.5173821,23.30365 13.5203821,23.29065 C13.5313821,23.24565 13.5633821,23.21365 13.6003821,23.18465 C13.6223821,23.16565 13.6463821,23.14765 13.6703821,23.13065 C13.6923821,23.11665 13.7153821,23.10365 13.7393821,23.09465 C13.7823821,23.07865 13.8273821,23.06565 13.8743821,23.06265 C13.8973821,23.06165 13.9193821,23.05465 13.9423821,23.05165 C13.9743821,23.04765 14.0063821,23.04465 14.0383821,23.04165 L14.3203821,23.01865 C14.4113821,23.01465 14.4943821,23.01065 14.5773821,23.00665 C14.6043821,23.00565 14.6303821,23.00565 14.6563821,23.00565 C14.8193821,23.00365 14.9813821,22.99865 15.1423821,22.99965 C15.3013821,23.00065 15.4603821,23.00765 15.6193821,23.01365 C15.7293821,23.01765 15.8373821,23.02565 15.9463821,23.03265 C15.9843821,23.03565 16.0213821,23.04365 16.0583821,23.04965 C16.0723821,23.05165 16.0883821,23.05465 16.1043821,23.05665 C16.1233821,23.05965 16.1433821,23.06165 16.1623821,23.06565 C16.2053821,23.07365 16.2493821,23.07965 16.2913821,23.09065 C16.3213821,23.09765 16.3493821,23.11065 16.3773821,23.11965 C16.4083821,23.14565 16.4293821,23.16565 16.4523821,23.18365 C16.4933821,23.21265 16.5273821,23.24765 16.5443821,23.29265 C16.5533821,23.31765 16.5573821,23.34165 16.5523821,23.36765 C16.5483821,23.39265 16.5493821,23.41765 16.5493821,23.44265 C16.5513821,23.53865 16.5553821,23.63665 16.5553821,23.73365 C16.5543821,23.94465 16.5503821,24.15565 16.5483821,24.36565 C16.5443821,24.74965 16.5413821,25.13365 16.5373821,25.51865 C16.5313821,26.02865 16.5243821,26.53765 16.5173821,27.04765 C16.5163821,27.15065 16.5133821,27.25365 16.5083821,27.35665 C16.5033821,27.43465 16.4683821,27.50165 16.4043821,27.55265 C16.3613821,27.58465 16.3093821,27.60365 16.2543821,27.61565 C16.2043821,27.62665 16.1543821,27.63765 16.1053821,27.64965 C16.0843821,27.65465 16.0643821,27.66065 16.0433821,27.66865 C16.0373821,27.67065 16.0313821,27.67665 16.0293821,27.68165 C16.0083821,27.71865 15.9883821,27.75465 15.9703821,27.79165 C15.9623821,27.81065 15.9603821,27.82965 15.9543821,27.85165 C15.9823821,27.85565 16.0033821,27.85865 16.0253821,27.86365 C16.0463821,27.86865 16.0663821,27.87765 16.0863821,27.88465 C16.1003821,27.88865 16.1153821,27.88865 16.1293821,27.89165 C16.1423821,27.89465 16.1543821,27.89965 16.1653821,27.90565 C16.1723821,27.97865 16.1723821,28.03365 16.1723821,28.08965 C16.1713821,28.14265 16.1693821,28.19465 16.1693821,28.24565 C16.1703821,28.27265 16.1613821,28.29265 16.1333821,28.30665 C16.1213821,28.31265 16.1243821,28.32065 16.1383821,28.32765 C16.1483821,28.33265 16.1563821,28.34065 16.1633821,28.34865 C16.1663821,28.40965 16.1643821,28.45265 16.1633821,28.49565 C16.1633821,28.51965 16.1573821,28.53865 16.1353821,28.55165 C16.1083821,28.56765 16.1023821,28.58865 16.1033821,28.61565 C16.1043821,28.80665 16.1083821,28.99565 16.1053821,29.18665 C16.1033821,29.31465 16.0913821,29.44365 16.0833821,29.57165 C16.0813821,29.60065 16.0783821,29.62865 16.0753821,29.65765 C16.0743821,29.67465 16.0653821,29.68465 16.0483821,29.69365 C16.0353821,29.69965 16.0263821,29.71565 16.0233821,29.72965 C16.0163821,29.75565 16.0133821,29.78365 16.0133821,29.81165 C16.0123821,29.84565 15.9903821,29.86765 15.9623821,29.88465 C15.8973821,29.92265 15.8233821,29.93865 15.7483821,29.95065 C15.6063821,29.97365 15.4633821,29.98665 15.3193821,29.99365 C15.1463821,30.00265 14.9723821,29.99965 14.7993821,29.99565 C14.6663821,29.99265 14.5333821,29.98665 14.4013821,29.97365 C14.2853821,29.96265 14.1703821,29.94765 14.0603821,29.91365 C14.0213821,29.90265 13.9853821,29.88565 13.9543821,29.86065 C13.9373821,29.84665 13.9383821,29.82765 13.9363821,29.81065 C13.9343821,29.78265 13.9333821,29.75665 13.9303821,29.72965 C13.9293821,29.72265 13.9243821,29.71565 13.9203821,29.70965 C13.9133821,29.70065 13.9063821,29.69165 13.9003821,29.68265 C13.8753821,29.67165 13.8693821,29.66165 13.8683821,29.64865 C13.8653821,29.58165 13.8623821,29.51565 13.8593821,29.44865 C13.8493821,29.17165 13.8463821,28.89365 13.8493821,28.61465 C13.8493821,28.60265 13.8443821,28.58765 13.8343821,28.57965 C13.7973821,28.54665 13.7823821,28.50865 13.7863821,28.46265 C13.7883821,28.44065 13.7853821,28.41665 13.7853821,28.39465 C13.7853821,28.36165 13.7963821,28.34765 13.8313821,28.33665 C13.8363821,28.33465 13.8413821,28.33165 13.8463821,28.32965 C13.8303821,28.31765 13.8163821,28.30965 13.8003821,28.30265" id="Fill-25" fill-opacity="0.54"></path>
            <path d="M4.74568214,23.55855 C4.74068214,23.54455 4.74068214,23.53355 4.75068214,23.52255 C4.82268214,23.44055 4.89368214,23.35955 4.96668214,23.27755 C4.98968214,23.25155 4.99768214,23.25055 5.02968214,23.27355 C5.07368214,23.30355 5.11768214,23.33355 5.16068214,23.36555 C5.18068214,23.37755 5.18568214,23.37855 5.19868214,23.36355 C5.20968214,23.35055 5.21868214,23.33555 5.22668214,23.32155 C5.23768214,23.29955 5.25068214,23.27855 5.25768214,23.25455 C5.26468214,23.23455 5.26868214,23.21155 5.26168214,23.18755 C5.25568214,23.16855 5.25368214,23.14955 5.24968214,23.13055 C5.24868214,23.12455 5.24468214,23.12055 5.24168214,23.11555 C5.19868214,23.05455 5.15968214,22.99255 5.13268214,22.92355 C5.09768214,22.83855 5.09568214,22.75755 5.13668214,22.68255 C5.15068214,22.65555 5.17068214,22.62855 5.19268214,22.60655 C5.35968214,22.43955 5.52668214,22.27355 5.69568214,22.10855 C5.92968214,21.87755 6.16468214,21.64855 6.39968214,21.41955 C6.62168214,21.20355 6.84668214,20.98855 7.06768214,20.77155 C7.25468214,20.58955 7.43768214,20.40555 7.62468214,20.22355 C7.74768214,20.10355 7.87268214,19.98655 7.99768214,19.86855 C8.01468214,19.85255 8.02968214,19.83455 8.05868214,19.83455 C8.06968214,19.83455 8.07968214,19.82355 8.09068214,19.81655 C8.13068214,19.79255 8.17668214,19.79155 8.22268214,19.79655 C8.25168214,19.80055 8.28068214,19.80355 8.30968214,19.80955 C8.33568214,19.81555 8.36068214,19.82155 8.38568214,19.83255 C8.42668214,19.85255 8.46768214,19.87355 8.50368214,19.90655 C8.51968214,19.92055 8.54068214,19.93155 8.55868214,19.94555 C8.58368214,19.96555 8.60868214,19.98555 8.63368214,20.00655 C8.70568214,20.06755 8.77668214,20.12855 8.84968214,20.18955 C8.91668214,20.25055 8.97768214,20.30755 9.03968214,20.36355 C9.05868214,20.38155 9.07768214,20.40055 9.09668214,20.41755 C9.21268214,20.53155 9.32968214,20.64255 9.44368214,20.75755 C9.55568214,20.87055 9.66368214,20.98855 9.77168214,21.10555 C9.84568214,21.18555 9.91768214,21.26755 9.98868214,21.34955 C10.0136821,21.37755 10.0336821,21.41055 10.0566821,21.44055 C10.0646821,21.45355 10.0746821,21.46555 10.0836821,21.47755 C10.0956821,21.49355 10.1076821,21.50855 10.1196821,21.52555 C10.1436821,21.56155 10.1696821,21.59755 10.1926821,21.63455 C10.2086821,21.66055 10.2196821,21.68855 10.2316821,21.71555 C10.2356821,21.75555 10.2356821,21.78555 10.2406821,21.81455 C10.2486821,21.86455 10.2476821,21.91255 10.2276821,21.95555 C10.2176821,21.97955 10.2016821,21.99955 10.1806821,22.01555 C10.1596821,22.02955 10.1426821,22.04755 10.1266821,22.06555 C10.0576821,22.13555 9.99268214,22.20655 9.92468214,22.27555 C9.77368214,22.42355 9.62268214,22.57055 9.47268214,22.71755 C9.19768214,22.98655 8.92468214,23.25655 8.64968214,23.52455 C8.28468214,23.88055 7.91968214,24.23655 7.55468214,24.59155 C7.47968214,24.66355 7.40468214,24.73555 7.32868214,24.80355 C7.27068214,24.85655 7.19868214,24.87855 7.11668214,24.86855 C7.06268214,24.86255 7.01368214,24.83755 6.96668214,24.80855 C6.92368214,24.78155 6.88068214,24.75255 6.83668214,24.72655 C6.81868214,24.71455 6.79968214,24.70455 6.77968214,24.69655 C6.77368214,24.69355 6.76568214,24.69355 6.75968214,24.69555 C6.71968214,24.70655 6.67968214,24.71755 6.64168214,24.73255 C6.62268214,24.73955 6.60568214,24.75155 6.58868214,24.76255 C6.60368214,24.78555 6.61768214,24.80155 6.62868214,24.82155 C6.64068214,24.83955 6.64668214,24.86055 6.65768214,24.87955 C6.66468214,24.89155 6.67568214,24.90255 6.68268214,24.91455 C6.68868214,24.92555 6.69468214,24.93755 6.69868214,24.95055 C6.65168214,25.00655 6.61168214,25.04555 6.57268214,25.08455 C6.53568214,25.12055 6.49768214,25.15655 6.46068214,25.19355 C6.44168214,25.21255 6.42168214,25.22155 6.39168214,25.21055 C6.37968214,25.20555 6.37668214,25.21455 6.38068214,25.22955 C6.38368214,25.24055 6.38468214,25.25055 6.38468214,25.26155 C6.34268214,25.30755 6.30968214,25.33555 6.27968214,25.36655 C6.26368214,25.38255 6.24468214,25.39255 6.22068214,25.38555 C6.18968214,25.37655 6.17068214,25.38855 6.15168214,25.40855 C6.01768214,25.54355 5.88668214,25.68055 5.74968214,25.81355 C5.65768214,25.90255 5.55868214,25.98555 5.46268214,26.07055 C5.44068214,26.08855 5.41868214,26.10755 5.39568214,26.12555 C5.38268214,26.13655 5.36968214,26.13755 5.35068214,26.13055 C5.33768214,26.12655 5.31868214,26.13155 5.30768214,26.13855 C5.28468214,26.15355 5.26268214,26.17055 5.24268214,26.18955 C5.21868214,26.21355 5.18668214,26.21355 5.15468214,26.20555 C5.08268214,26.18655 5.01868214,26.14555 4.95768214,26.10155 C4.84068214,26.01655 4.72968214,25.92455 4.62368214,25.82855 C4.49468214,25.71155 4.37368214,25.58755 4.25468214,25.46155 C4.16268214,25.36655 4.07268214,25.26755 3.98768214,25.16455 C3.91468214,25.07655 3.84468214,24.98355 3.78968214,24.88155 C3.76968214,24.84555 3.75668214,24.80855 3.75268214,24.76855 C3.75068214,24.74655 3.76468214,24.73455 3.77468214,24.72055 C3.79268214,24.70055 3.81068214,24.67955 3.82768214,24.65955 C3.83268214,24.65355 3.83368214,24.64555 3.83468214,24.63855 C3.83668214,24.62755 3.83868214,24.61655 3.83968214,24.60555 C3.82968214,24.57955 3.83268214,24.56855 3.84268214,24.55855 C3.88668214,24.50955 3.93068214,24.45955 3.97568214,24.41155 C4.16568214,24.20655 4.35968214,24.00855 4.55868214,23.81355 C4.56768214,23.80555 4.57468214,23.79055 4.57368214,23.77855 C4.57068214,23.72955 4.58768214,23.69155 4.62268214,23.66255 C4.64068214,23.64755 4.65368214,23.62855 4.67068214,23.61355 C4.69268214,23.58955 4.71068214,23.58755 4.74268214,23.60455 C4.74868214,23.60655 4.75368214,23.60855 4.75868214,23.61055 C4.75668214,23.59055 4.75168214,23.57455 4.74568214,23.55855" id="Fill-27" fill-opacity="0.66"></path>
            <path d="M1.69688214,13.80125 C1.70388214,13.78725 1.71188214,13.78025 1.72588214,13.77925 C1.83488214,13.77225 1.94288214,13.76525 2.05088214,13.75925 C2.08688214,13.75725 2.09288214,13.76225 2.09888214,13.80025 C2.10888214,13.85325 2.11888214,13.90525 2.12788214,13.95825 C2.13188214,13.98025 2.13488214,13.98525 2.15588214,13.98325 C2.17288214,13.98225 2.18888214,13.97825 2.20588214,13.97325 C2.22788214,13.96625 2.25188214,13.96025 2.27288214,13.94825 C2.29288214,13.93825 2.31188214,13.92625 2.32388214,13.90325 C2.33288214,13.88525 2.34488214,13.87125 2.35588214,13.85525 C2.35888214,13.85025 2.35988214,13.84425 2.36188214,13.83825 C2.37488214,13.76525 2.38988214,13.69325 2.41888214,13.62525 C2.45488214,13.54125 2.50988214,13.48225 2.59288214,13.45825 C2.62288214,13.44825 2.65488214,13.44425 2.68588214,13.44425 C2.92288214,13.44425 3.15888214,13.44525 3.39388214,13.44725 C3.72188214,13.45025 4.05088214,13.45425 4.37888214,13.45825 C4.68888214,13.46325 4.99988214,13.46825 5.30988214,13.47225 C5.57088214,13.47525 5.83088214,13.47525 6.09088214,13.47825 C6.26188214,13.48125 6.43388214,13.48725 6.60488214,13.49125 C6.62888214,13.49125 6.65188214,13.49025 6.67288214,13.51025 C6.67988214,13.51925 6.69588214,13.51725 6.70888214,13.52025 C6.75388214,13.53125 6.78588214,13.56425 6.81488214,13.60025 C6.83388214,13.62325 6.85188214,13.64625 6.86888214,13.67125 C6.88288214,13.69225 6.89588214,13.71525 6.90488214,13.74025 C6.92088214,13.78325 6.93388214,13.82725 6.93688214,13.87525 C6.93788214,13.89825 6.94488214,13.92025 6.94788214,13.94225 C6.95188214,13.97425 6.95488214,14.00625 6.95788214,14.03825 C6.96588214,14.13325 6.97288214,14.22625 6.98088214,14.32025 C6.98488214,14.41225 6.98888214,14.49525 6.99288214,14.57825 C6.99388214,14.60425 6.99388214,14.63125 6.99388214,14.65625 C6.99588214,14.81925 7.00088214,14.98125 6.99988214,15.14325 C6.99888214,15.30225 6.99188214,15.46125 6.98588214,15.62025 C6.98188214,15.72925 6.97388214,15.83825 6.96688214,15.94625 C6.96388214,15.98425 6.95588214,16.02125 6.94988214,16.05825 C6.94788214,16.07325 6.94488214,16.08925 6.94288214,16.10425 C6.93988214,16.12425 6.93788214,16.14325 6.93388214,16.16325 C6.92588214,16.20625 6.91988214,16.25025 6.90888214,16.29225 C6.90188214,16.32125 6.88888214,16.34925 6.87988214,16.37825 C6.85388214,16.40925 6.83388214,16.42925 6.81588214,16.45325 C6.78688214,16.49425 6.75188214,16.52725 6.70688214,16.54525 C6.68188214,16.55325 6.65788214,16.55725 6.63188214,16.55225 C6.60688214,16.54925 6.58188214,16.55025 6.55688214,16.55025 C6.46088214,16.55125 6.36288214,16.55525 6.26588214,16.55525 C6.05488214,16.55425 5.84388214,16.55125 5.63388214,16.54925 C5.24988214,16.54525 4.86588214,16.54225 4.48088214,16.53825 C3.97088214,16.53225 3.46188214,16.52425 2.95188214,16.51725 C2.84888214,16.51625 2.74588214,16.51325 2.64288214,16.50925 C2.56488214,16.50425 2.49788214,16.46825 2.44688214,16.40425 C2.41488214,16.36125 2.39588214,16.30925 2.38388214,16.25525 C2.37288214,16.20525 2.36188214,16.15525 2.34988214,16.10525 C2.34488214,16.08525 2.33888214,16.06425 2.33088214,16.04425 C2.32888214,16.03825 2.32288214,16.03225 2.31788214,16.02925 C2.28088214,16.00925 2.24488214,15.98825 2.20788214,15.97125 C2.18888214,15.96225 2.16988214,15.96025 2.14788214,15.95525 C2.14388214,15.98225 2.14088214,16.00425 2.13588214,16.02525 C2.13088214,16.04725 2.12188214,16.06625 2.11488214,16.08725 C2.11088214,16.10025 2.11088214,16.11625 2.10788214,16.13025 C2.10488214,16.14225 2.09988214,16.15525 2.09388214,16.16625 C2.02088214,16.17325 1.96588214,16.17325 1.90988214,16.17325 C1.85688214,16.17225 1.80488214,16.17025 1.75388214,16.17025 C1.72688214,16.17125 1.70688214,16.16225 1.69288214,16.13425 C1.68688214,16.12225 1.67888214,16.12525 1.67188214,16.13825 C1.66688214,16.14825 1.65888214,16.15725 1.65088214,16.16425 C1.58988214,16.16725 1.54688214,16.16525 1.50388214,16.16425 C1.47988214,16.16425 1.46088214,16.15825 1.44788214,16.13525 C1.43188214,16.10825 1.41088214,16.10225 1.38388214,16.10325 C1.19288214,16.10425 1.00388214,16.10825 0.812882135,16.10525 C0.684882135,16.10325 0.555882135,16.09225 0.427882135,16.08425 C0.398882135,16.08225 0.370882135,16.07925 0.341882135,16.07625 C0.324882135,16.07525 0.314882135,16.06525 0.305882135,16.04925 C0.299882135,16.03625 0.283882135,16.02625 0.269882135,16.02325 C0.243882135,16.01625 0.215882135,16.01325 0.187882135,16.01325 C0.153882135,16.01225 0.131882135,15.99125 0.114882135,15.96225 C0.0768821352,15.89725 0.0608821352,15.82325 0.0488821352,15.74925 C0.0258821352,15.60725 0.0128821352,15.46325 0.00588213516,15.31925 C-0.00311786484,15.14625 -0.000117864844,14.97325 0.00388213516,14.80025 C0.00688213516,14.66725 0.0128821352,14.53325 0.0258821352,14.40225 C0.0368821352,14.28625 0.0518821352,14.17125 0.0858821352,14.06025 C0.0968821352,14.02225 0.113882135,13.98525 0.138882135,13.95425 C0.152882135,13.93725 0.171882135,13.93825 0.188882135,13.93725 C0.216882135,13.93425 0.242882135,13.93325 0.269882135,13.93025 C0.276882135,13.92925 0.283882135,13.92525 0.289882135,13.92125 C0.298882135,13.91425 0.307882135,13.90725 0.316882135,13.90025 C0.327882135,13.87525 0.337882135,13.87025 0.350882135,13.86925 C0.417882135,13.86625 0.483882135,13.86225 0.550882135,13.85925 C0.827882135,13.84925 1.10588214,13.84725 1.38488214,13.84925 C1.39688214,13.85025 1.41188214,13.84425 1.41988214,13.83525 C1.45288214,13.79825 1.49088214,13.78325 1.53688214,13.78725 C1.55888214,13.78925 1.58288214,13.78625 1.60488214,13.78625 C1.63788214,13.78625 1.65188214,13.79725 1.66288214,13.83125 C1.66488214,13.83725 1.66788214,13.84225 1.66988214,13.84625 C1.68188214,13.83125 1.68988214,13.81625 1.69688214,13.80125" id="Fill-29" fill-opacity="0.78"></path>
            <path d="M6.44098214,4.74605 C6.45498214,4.74105 6.46598214,4.74105 6.47698214,4.75105 C6.55898214,4.82305 6.63998214,4.89405 6.72198214,4.96705 C6.74798214,4.99005 6.74898214,4.99805 6.72598214,5.03005 C6.69598214,5.07405 6.66598214,5.11805 6.63398214,5.16205 C6.62198214,5.18005 6.62098214,5.18605 6.63598214,5.19905 C6.64898214,5.20905 6.66398214,5.21905 6.67798214,5.22705 C6.69998214,5.23805 6.72098214,5.25005 6.74498214,5.25805 C6.76498214,5.26405 6.78798214,5.26905 6.81198214,5.26105 C6.83098214,5.25505 6.84998214,5.25405 6.86898214,5.25005 C6.87498214,5.24805 6.87898214,5.24505 6.88398214,5.24205 C6.94498214,5.19905 7.00698214,5.16005 7.07598214,5.13205 C7.16098214,5.09805 7.24198214,5.09605 7.31698214,5.13705 C7.34398214,5.15105 7.37098214,5.17105 7.39298214,5.19305 C7.55998214,5.36005 7.72598214,5.52705 7.89098214,5.69605 C8.12198214,5.93005 8.35098214,6.16505 8.57998214,6.40005 C8.79598214,6.62205 9.01098214,6.84605 9.22798214,7.06805 C9.40998214,7.25505 9.59398214,7.43805 9.77598214,7.62405 C9.89598214,7.74705 10.0129821,7.87305 10.1309821,7.99705 C10.1469821,8.01505 10.1649821,8.03005 10.1649821,8.05905 C10.1649821,8.07005 10.1759821,8.08005 10.1829821,8.09105 C10.2069821,8.13105 10.2079821,8.17605 10.2029821,8.22305 C10.1989821,8.25205 10.1959821,8.28205 10.1899821,8.31005 C10.1839821,8.33605 10.1779821,8.36205 10.1669821,8.38505 C10.1469821,8.42705 10.1259821,8.46805 10.0929821,8.50405 C10.0789821,8.52005 10.0679821,8.54105 10.0539821,8.55905 C10.0339821,8.58405 10.0139821,8.60905 9.99298214,8.63405 C9.93198214,8.70605 9.87098214,8.77805 9.80998214,8.85005 C9.74898214,8.91705 9.69198214,8.97805 9.63598214,9.04005 C9.61798214,9.05905 9.59898214,9.07805 9.58198214,9.09705 C9.46798214,9.21205 9.35698214,9.33005 9.24198214,9.44405 C9.12898214,9.55605 9.01098214,9.66405 8.89398214,9.77205 C8.81398214,9.84605 8.73198214,9.91705 8.64998214,9.98905 C8.62198214,10.01405 8.58898214,10.03405 8.55898214,10.05605 C8.54598214,10.06505 8.53398214,10.07505 8.52198214,10.08405 C8.50598214,10.09605 8.49098214,10.10805 8.47398214,10.12005 C8.43798214,10.14405 8.40198214,10.17005 8.36498214,10.19305 C8.33898214,10.20805 8.31098214,10.22005 8.28398214,10.23205 C8.24398214,10.23605 8.21398214,10.23605 8.18498214,10.24105 C8.13498214,10.24905 8.08698214,10.24705 8.04398214,10.22805 C8.01998214,10.21705 7.99998214,10.20305 7.98398214,10.18105 C7.96998214,10.16105 7.95198214,10.14305 7.93398214,10.12605 C7.86398214,10.05905 7.79298214,9.99305 7.72398214,9.92405 C7.57598214,9.77405 7.42898214,9.62205 7.28198214,9.47205 C7.01298214,9.19805 6.74298214,8.92505 6.47498214,8.65005 C6.11898214,8.28505 5.76298214,7.92005 5.40798214,7.55405 C5.33598214,7.48005 5.26398214,7.40605 5.19598214,7.32905 C5.14298214,7.27105 5.12098214,7.19905 5.13098214,7.11705 C5.13698214,7.06405 5.16198214,7.01405 5.19098214,6.96705 C5.21798214,6.92405 5.24698214,6.88105 5.27298214,6.83705 C5.28498214,6.81905 5.29498214,6.79905 5.30298214,6.78005 C5.30598214,6.77405 5.30598214,6.76605 5.30398214,6.76005 C5.29298214,6.72005 5.28198214,6.68005 5.26698214,6.64105 C5.25998214,6.62205 5.24798214,6.60705 5.23698214,6.58805 C5.21398214,6.60405 5.19798214,6.61805 5.17798214,6.62905 C5.15998214,6.64005 5.13898214,6.64705 5.11998214,6.65805 C5.10798214,6.66505 5.09698214,6.67605 5.08498214,6.68305 C5.07398214,6.68905 5.06198214,6.69505 5.04898214,6.69905 C4.99298214,6.65205 4.95398214,6.61305 4.91498214,6.57305 C4.87898214,6.53605 4.84298214,6.49705 4.80598214,6.46105 C4.78698214,6.44205 4.77798214,6.42205 4.78898214,6.39305 C4.79398214,6.38005 4.78498214,6.37605 4.76998214,6.38105 C4.75898214,6.38405 4.74898214,6.38505 4.73798214,6.38405 C4.69198214,6.34305 4.66398214,6.31105 4.63298214,6.28005 C4.61698214,6.26405 4.60698214,6.24505 4.61398214,6.22005 C4.62298214,6.19005 4.61098214,6.17105 4.59098214,6.15205 C4.45598214,6.01905 4.31898214,5.88705 4.18598214,5.75005 C4.09698214,5.65805 4.01398214,5.55905 3.92898214,5.46305 C3.91098214,5.44105 3.89198214,5.41805 3.87398214,5.39605 C3.86298214,5.38305 3.86198214,5.37005 3.86898214,5.35105 C3.87298214,5.33805 3.86798214,5.32005 3.86098214,5.30805 C3.84598214,5.28505 3.82898214,5.26305 3.80998214,5.24305 C3.78598214,5.21805 3.78598214,5.18705 3.79398214,5.15605 C3.81298214,5.08305 3.85398214,5.01905 3.89798214,4.95705 C3.98298214,4.84105 4.07498214,4.73105 4.17098214,4.62305 C4.28798214,4.49505 4.41198214,4.37405 4.53798214,4.25405 C4.63298214,4.16305 4.73198214,4.07305 4.83498214,3.98905 C4.92298214,3.91505 5.01598214,3.84405 5.11798214,3.78905 C5.15398214,3.77005 5.19098214,3.75605 5.23098214,3.75305 C5.25298214,3.75005 5.26498214,3.76405 5.27898214,3.77505 C5.29898214,3.79305 5.31998214,3.81105 5.33998214,3.82905 C5.34598214,3.83205 5.35398214,3.83405 5.36098214,3.83505 C5.37198214,3.83705 5.38298214,3.83905 5.39398214,3.84005 C5.41998214,3.83005 5.43098214,3.83305 5.44098214,3.84205 C5.48998214,3.88705 5.53998214,3.93105 5.58798214,3.97605 C5.79298214,4.16505 5.99098214,4.36105 6.18598214,4.55905 C6.19398214,4.56805 6.20898214,4.57505 6.22098214,4.57405 C6.26998214,4.57105 6.30798214,4.58805 6.33698214,4.62305 C6.35198214,4.64005 6.37098214,4.65405 6.38598214,4.67005 C6.40998214,4.69405 6.41198214,4.71105 6.39498214,4.74405 C6.39298214,4.74805 6.39098214,4.75405 6.38898214,4.75905 C6.40898214,4.75705 6.42498214,4.75205 6.44098214,4.74605" id="Fill-31" fill-opacity="0.94"></path>
        </g>
    </g>
</svg>