<?xml version="1.0" encoding="UTF-8"?>
<svg width="635px" height="101px" viewBox="0 0 635 101" version="1.1" xmlns="http://www.w3.org/2000/svg" xmlns:xlink="http://www.w3.org/1999/xlink">
    <!-- Generator: Sketch 53.2 (72643) - https://sketchapp.com -->
    <title>Group 36</title>
    <desc>Created with Sketch.</desc>
    <g id="Shopping---Homepage" stroke="none" stroke-width="1" fill="none" fill-rule="evenodd">
        <g id="Shop-Homepage" transform="translate(-395.000000, -1285.000000)">
            <g id="Group-50" transform="translate(60.000000, 1253.000000)">
                <g id="Group-36" transform="translate(335.000000, 32.000000)">
                    <g id="Group-25">
                        <path d="M82,29.64 L282.000081,29.8213603" id="Line-2" stroke="#BD8BCA" stroke-width="4" stroke-linecap="round"></path>
                        <path d="M368,30 L568.000081,29.8186397" id="Line-2-Copy" stroke="#C1C7CD" stroke-width="4" stroke-linecap="round" stroke-dasharray="1,8"></path>
                        <circle id="Oval-Copy" fill="#FFFFFF" cx="325" cy="30" r="25"></circle>
                        <g id="Icons-/-Ecommerce-/-Delivery-/-Circle-/-Fill-/-Purple" transform="translate(295.000000, 0.000000)" fill="#BD8BCA">
                            <path d="M60,30 C60,46.568 46.568,60 30,60 C13.432,60 0,46.568 0,30 C0,13.432 13.432,0 30,0 C46.568,0 60,13.432 60,30 L60,30 Z M46.5,37 L44.84,37 C44.06,36.378 43.08,36 42,36 C40.92,36 39.94,36.378 39.16,37 L37.5,37 L37.5,24 L41.38,24 L46.5,29.122 L46.5,37 Z M43.5,40.5 C43.5,41.32 42.82,42 42,42 C41.18,42 40.5,41.32 40.5,40.5 C40.5,40.32 40.54,40.16 40.6,40 C40.8,39.42 41.36,39 42,39 C42.64,39 43.2,39.42 43.4,40 C43.46,40.16 43.5,40.32 43.5,40.5 L43.5,40.5 Z M34.5,37 L20.84,37 C20.06,36.378 19.08,36 18,36 C16.92,36 15.94,36.378 15.16,37 L13.5,37 L13.5,18 L34.5,18 L34.5,37 Z M19.5,40.5 C19.5,41.32 18.82,42 18,42 C17.18,42 16.5,41.32 16.5,40.5 C16.5,40.32 16.54,40.16 16.6,40 C16.8,39.42 17.36,39 18,39 C18.64,39 19.2,39.42 19.4,40 C19.46,40.16 19.5,40.32 19.5,40.5 L19.5,40.5 Z M49.06,27.44 L43.06,21.44 C42.78,21.16 42.4,21 42,21 L37.5,21 L37.5,16.5 C37.5,15.68 36.82,15 36,15 L12,15 C11.18,15 10.5,15.68 10.5,16.5 L10.5,38.5 C10.5,39.32 11.18,40 12,40 L13.52,40 C13.5,40.16 13.5,40.34 13.5,40.5 C13.5,42.98 15.52,45 18,45 C20.48,45 22.5,42.98 22.5,40.5 C22.5,40.34 22.5,40.16 22.48,40 L37.52,40 C37.5,40.16 37.5,40.34 37.5,40.5 C37.5,42.98 39.52,45 42,45 C44.48,45 46.5,42.98 46.5,40.5 C46.5,40.34 46.5,40.16 46.48,40 L48,40 C48.82,40 49.5,39.32 49.5,38.5 L49.5,28.5 C49.5,28.1 49.34,27.72 49.06,27.44 L49.06,27.44 Z" id="Icons-/-Delivery-/-Circle-/-Fill-/-Purple"></path>
                        </g>
                        <text id="Out-for-Delivery-Mar" font-family="Raleway-Bold, Raleway" font-size="12" font-weight="bold" line-spacing="18" fill="#BD8BCA">
                            <tspan x="281.338" y="79">Out for Delivery</tspan>
                            <tspan x="371.662" y="79" font-family="Helvetica" font-weight="normal"></tspan>
                            <tspan x="294.481445" y="97" font-family="Helvetica" font-weight="normal">Mar 1, 2019</tspan>
                        </text>
                        <text id="Estimated-Mar-3,-201" font-family="Helvetica" font-size="12" font-weight="normal" line-spacing="18" fill="#C1C7CD">
                            <tspan x="577.322266" y="68">Estimated</tspan>
                            <tspan x="571.981445" y="86">Mar 3, 2019</tspan>
                        </text>
                        <text id="Order-Processed-Feb" font-family="Helvetica" font-size="12" font-weight="normal" line-spacing="18" fill="#354657">
                            <tspan x="1.1484375" y="68">Order Processed</tspan>
                            <tspan x="11.1386719" y="86">Feb 28, 2019</tspan>
                        </text>
                    </g>
                    <g id="Icons-/-Ecommerce-/-Home-/-Circle-/-Outline-/-Body-Blue" opacity="0.3" transform="translate(584.000000, 10.000000)" fill="#354657">
                        <path d="M20,0 C8.95466667,0 0,8.95466667 0,20 C0,31.0453333 8.95466667,40 20,40 C31.0453333,40 40,31.0453333 40,20 C40,8.95466667 31.0453333,0 20,0 L20,0 Z M20,2 C29.9253333,2 38,10.0746667 38,20 C38,29.9253333 29.9253333,38 20,38 C10.0746667,38 2,29.9253333 2,20 C2,10.0746667 10.0746667,2 20,2 L20,2 Z M27,16.3733333 L27,28.3333333 L22,28.3333333 L22,23.0666667 C22,22.84 21.8266667,22.6666667 21.6,22.6666667 L18.4,22.6666667 C18.1733333,22.6666667 18,22.84 18,23.0666667 L18,28.3333333 L13,28.3333333 L13,16.3733333 L11.3866667,16.3733333 L20,9.22666667 L28.6133333,16.3733333 L27,16.3733333 Z M31.12,15.8533333 L20.76,7.26666667 C20.2933333,6.94666667 19.7066667,6.96 19.16,7.32 L8.98666667,15.7866667 C8.45333333,16.12 8.21333333,16.76 8.38666667,17.3733333 C8.57333333,17.9733333 9.10666667,18.3733333 9.72,18.3733333 L11,18.3733333 L11,28.6666667 C11,29.5866667 11.7466667,30.3333333 12.6666667,30.3333333 L27.3333333,30.3333333 C28.2533333,30.3333333 29,29.5866667 29,28.6666667 L29,18.3733333 L30.28,18.3733333 C30.8933333,18.3733333 31.4266667,17.9733333 31.6133333,17.3733333 C31.7866667,16.76 31.5466667,16.12 31.12,15.8533333 L31.12,15.8533333 Z" id="Icons-/-Home-/-Circle-/-Outline-/-Body-Blue"></path>
                    </g>
                    <g id="Icons-/-Supportive-/-Complete-/-Circle-/-Outline-/-Purple" transform="translate(26.000000, 10.000000)" fill="#BD8BCA">
                        <g id="Icons-/-Complete-/-Circle-/-Outline-/-Purple">
                            <path d="M30.28,12.3866667 C29.76,11.8666667 28.9066667,11.8666667 28.3866667,12.3866667 L16,24.7733333 L11.6133333,20.3866667 C11.0933333,19.8666667 10.24,19.8666667 9.72,20.3866667 C9.2,20.9066667 9.2,21.76 9.72,22.28 L15.0533333,27.6133333 C15.32,27.8666667 15.6533333,28 16,28 C16.3466667,28 16.68,27.8666667 16.9466667,27.6133333 L30.28,14.28 C30.8,13.76 30.8,12.9066667 30.28,12.3866667 M20,0 C8.95466667,0 0,8.95466667 0,20 C0,31.0453333 8.95466667,40 20,40 C31.0453333,40 40,31.0453333 40,20 C40,8.95466667 31.0453333,0 20,0 M20,2 C29.9253333,2 38,10.0746667 38,20 C38,29.9253333 29.9253333,38 20,38 C10.0746667,38 2,29.9253333 2,20 C2,10.0746667 10.0746667,2 20,2" id="Fill-1"></path>
                        </g>
                    </g>
                </g>
            </g>
        </g>
    </g>
</svg>