<?xml version="1.0" encoding="UTF-8"?>
<svg width="420px" height="760px" viewBox="0 0 420 760" version="1.1" xmlns="http://www.w3.org/2000/svg" xmlns:xlink="http://www.w3.org/1999/xlink">
    <!-- Generator: Sketch 54.1 (76490) - https://sketchapp.com -->
    <title>Combined Shape</title>
    <desc>Created with Sketch.</desc>
    <g id="Page-1" stroke="none" stroke-width="1" fill="none" fill-rule="evenodd">
        <g id="Brand-Feature---Deep-Blue" transform="translate(-120.000000, -100.000000)" fill="#FFFFFF">
            <path d="M500.875127,483.529274 L500.875127,339.767657 C500.875127,327.518242 496.392472,325.472205 491.504471,325.472205 C486.613489,325.472205 482.136795,327.518242 482.136795,339.767657 L482.136795,483.529274 C482.136795,495.725081 486.613489,497.640076 491.504471,497.640076 C496.392472,497.640076 500.875127,495.725081 500.875127,483.529274 Z M513.920725,292 C529.398402,292 540,302.215292 540,327.518242 L540,495.725081 C540,518.627586 531.03469,531.246301 511.062437,531.246301 C498.431126,531.246301 488.640221,522.689877 482.944508,513.701612 L482.136795,513.701612 L482.136795,860 L443,860 L443,294.873981 L482.136795,294.873981 L482.136795,308.731635 L482.944508,308.731635 C489.051529,300.163299 499.25076,292 513.920725,292 Z M375.172848,332.965729 L375.172848,390.452353 L393.883734,390.452353 L393.883734,332.965729 C393.883734,322.362152 390.226728,321.546949 384.520846,321.546949 C378.871546,321.546949 375.172848,322.362152 375.172848,332.965729 Z M433,417.78245 L375.172848,417.78245 L375.172848,492.025345 C375.172848,502.643799 378.871546,503.351894 384.520846,503.351894 C390.226728,503.351894 393.883734,502.643799 393.883734,492.025345 L393.883734,437.34135 L433,437.34135 L433,492.885175 C433,516.817605 414.271245,532 384.520846,532 C354.779381,532 336,516.817605 336,492.885175 L336,332.159453 C336,308.075288 354.779381,293 384.520846,293 C414.271245,293 433,308.075288 433,332.159453 L433,417.78245 Z M267.127027,332.965729 L267.127027,390.452353 L285.855103,390.452353 L285.855103,332.965729 C285.855103,322.362152 282.158929,321.546949 276.5,321.546949 C270.76959,321.546949 267.127027,322.362152 267.127027,332.965729 Z M325,417.78245 L267.127027,417.78245 L267.127027,492.025345 C267.127027,502.643799 270.76959,503.351894 276.5,503.351894 C282.158929,503.351894 285.855103,502.643799 285.855103,492.025345 L285.855103,437.34135 L325,437.34135 L325,492.885175 C325,516.817605 306.203421,532 276.5,532 C246.73999,532 228,516.817605 228,492.885175 L228,332.159453 C228,308.075288 246.73999,293 276.5,293 C306.203421,293 325,308.075288 325,332.159453 L325,417.78245 Z M168.5,498.408303 C173.38129,498.408303 177.863257,496.490989 177.863257,484.302351 L177.863257,340.587169 C177.863257,328.344941 173.38129,326.296631 168.5,326.296631 C163.600829,326.296631 159.121843,328.344941 159.121843,340.587169 L159.121843,484.302351 C159.121843,496.490989 163.600829,498.408303 168.5,498.408303 Z M217,529.106166 L177.863257,529.106166 L177.863257,515.321751 L177.058648,515.321751 C170.931705,523.875233 160.74894,532 148.939078,532 C133.857143,532 120,523.875233 120,504.615756 L120,320.187425 C120,300.996423 133.857143,292.838908 148.939078,292.838908 C161.562488,292.838908 171.348909,301.413231 177.058648,310.386498 L177.863257,310.386498 L177.863257,100 L216.707957,100 L217,529.106166 Z M123,631.773171 L123,553 L159.55074,553 C168.55082,553 175.643776,555.444726 180.145304,559.944093 C183.727485,563.559071 185.536427,567.954217 185.536427,573.349885 L185.536427,573.570237 C185.536427,582.461773 180.826632,587.428646 175.197491,590.588029 C184.31063,594.066031 189.927871,599.360456 189.927871,609.943348 L189.927871,610.15179 C189.927871,624.552148 178.220328,631.773171 160.455211,631.773171 L123,631.773171 Z M168.327678,576.500335 L168.327678,576.285938 C168.327678,571.119556 164.27541,568.177548 156.962287,568.177548 L139.869572,568.177548 L139.869572,584.840989 L155.84955,584.840989 C163.495899,584.840989 168.327678,582.363508 168.327678,576.500335 Z M172.713171,607.802352 C172.713171,602.490062 168.770987,599.244324 159.889916,599.244324 L139.869572,599.244324 L139.869572,616.571801 L160.455211,616.571801 C168.10156,616.571801 172.713171,613.8829 172.713171,608.028661 L172.713171,607.802352 Z M205.16404,631.773171 L205.16404,553 L222.488823,553 L222.488823,616.003052 L261.770827,616.003052 L261.770827,631.773171 L205.16404,631.773171 Z M305.851882,633 C284.694998,633 271.734883,621.202189 271.734883,597.993672 L271.734883,553 L289.086443,553 L289.086443,597.552967 C289.086443,610.384054 295.411788,617.045262 306.08395,617.045262 C316.527018,617.045262 323.033853,610.607385 323.033853,598.11576 L323.033853,553 L340.328884,553 L340.328884,597.439812 C340.328884,621.312365 326.940335,633 305.851882,633 Z M359.09963,631.773171 L359.09963,553 L418.428755,553 L418.428755,568.391945 L376.293503,568.391945 L376.293503,584.388372 L413.379784,584.388372 L413.379784,599.81605 L376.293503,599.81605 L376.293503,616.345492 L419,616.345492 L419,631.773171 L359.09963,631.773171 Z" id="Combined-Shape"></path>
        </g>
    </g>
</svg>