<?xml version="1.0" encoding="UTF-8"?>
<svg width="219px" height="121px" viewBox="0 0 219 121" version="1.1" xmlns="http://www.w3.org/2000/svg" xmlns:xlink="http://www.w3.org/1999/xlink">
    <!-- Generator: Sketch 52.6 (67491) - http://www.bohemiancoding.com/sketch -->
    <title>Group</title>
    <desc>Created with Sketch.</desc>
    <g id="Healing-Hands" stroke="none" stroke-width="1" fill="none" fill-rule="evenodd">
        <g id="HH---Final" transform="translate(-100.000000, -401.000000)" fill="#EF3A4E">
            <g id="Group-18" transform="translate(0.000000, 50.000000)">
                <g id="Group-12" transform="translate(60.000000, 0.000000)">
                    <g id="Group" transform="translate(40.000000, 351.000000)">
                        <path d="M218.893829,72.5807985 C218.563981,71.9100011 217.851083,71.9501686 217.613652,72.0305036 C215.818486,72.6073708 214.23491,74.4587839 213.997175,74.7402655 C212.242442,72.5937757 212.162792,70.2603525 212.162792,68.1271489 C212.162792,65.9945633 210.556719,66.4509279 210.38161,66.5445491 C209.008711,67.2688002 208.375159,68.9051626 208.243219,69.173358 C207.451279,71.2395127 209.061305,73.7339149 209.404833,74.2706146 C209.03516,78.7774089 208.058383,83.0428892 207.266746,86.2083977 C206.474806,89.3739062 205.339945,89.5083129 204.890925,89.5083129 C202.225385,89.5083129 202.80604,78.2413272 202.80604,78.2413272 C202.80604,78.2413272 207.240602,68.8517089 209.299039,61.3135038 C209.826796,59.5158533 210.486797,56.4711563 210.486797,54.2712128 C210.486797,52.0718873 209.892766,50.6765299 209.444354,49.8716349 C208.995335,49.0670488 208.190626,49 207.979341,49 C202.647348,49 199.849564,66.4910954 199.638886,68.1005765 C191.957521,68.8918764 191.112987,79.5557316 190.954599,80.950471 C189.555859,87.6837811 188.711021,87.7375438 188.341652,87.7375438 C187.549711,87.7375438 187.760693,84.9208746 187.787141,84.4379376 C187.892632,82.5868335 189.542787,73.3047406 189.859563,71.5883521 C190.175731,69.8710367 190.21586,69.2672881 190.228932,69.1199043 C190.281526,68.6100859 189.305052,67.8725487 188.592154,67.4699467 C187.87956,67.0679626 187.074851,67.0274861 186.520341,67.0274861 C184.487745,68.6910389 181.716713,77.1410465 180.370263,81.030806 C181.02996,78.4554509 182.336889,68.7577788 182.389483,68.1941977 C182.442076,67.6309257 182.270616,67.5505907 182.099155,67.4433743 C180.818978,66.7055281 179.763159,66.7327184 179.116534,66.6786468 C178.46991,66.6248841 178.351955,67.0006048 178.285073,67.2150375 C178.02089,68.1138627 177.519581,73.8417492 177.334745,76.3902231 C177.149908,78.9386969 177.017969,79.8508083 176.51666,82.2247079 C176.015351,84.5989166 175.130688,86.3693767 174.391645,86.3693767 C173.652602,86.3693767 173.74502,84.3711977 173.784541,83.512231 C173.82467,82.6538823 174.273082,79.4213249 174.471295,77.5433395 C174.6689,75.665663 174.801144,73.4527424 174.866809,72.2319591 C174.932779,71.0111759 174.008899,71.1051061 174.008899,71.1051061 L173.415172,71.1051061 C172.979529,71.1051061 172.848197,70.4880714 172.78162,70.2736387 C172.359353,68.9994018 171.343359,68.2077929 170.208193,68.2077929 C169.073332,68.2077929 168.030585,68.6641576 167.489755,69.3080736 C163.319072,73.7611052 163.121467,82.3989731 163.121467,83.8073077 C163.081946,88.3276972 164.546352,90.3799478 164.705044,90.634857 C163.833757,92.794324 162.236804,92.6200588 162.236804,92.6200588 C160.375973,92.5931774 160.270786,88.2875297 160.283858,86.2624693 C160.283858,80.8970173 163.47746,72.3122941 163.640408,71.8698336 C163.802749,71.4270641 163.715194,71.1319874 163.582951,70.9577222 C162.645999,69.6031503 161.339373,69.254002 160.574186,69.0126879 C159.808694,68.7710649 159.386123,69.2002393 159.175142,69.414981 C156.403502,72.2050778 152.602797,81.4602894 152.602797,81.4602894 L153.236349,76.6043468 C153.236349,76.6043468 157.750257,68.1540302 159.148693,65.0691657 C160.548041,61.9843011 160.877889,59.1271555 160.877889,57.9196584 C160.877889,53.9900403 159.095796,53.0640248 158.080106,53.0640248 C157.063503,53.0640248 156.21897,53.479913 155.532824,54.123829 C151.520529,58.3355466 150.544056,69.173358 150.068891,73.4122659 C149.594031,77.6511738 149.013072,88.394746 149,89.3470249 C149.805013,90.6079756 152.338918,91.0643403 152.338918,91.0643403 C155.427029,80.628513 158.357057,75.7997607 158.357057,75.7997607 C158.357057,75.7997607 156.667685,81.8894638 156.667685,86.7450974 C156.667685,91.600731 158.541589,96 161.946477,96 C165.351668,96 165.892498,92.2981008 165.958772,91.6943522 C166.48653,92.0302144 166.829755,91.9761427 167.093633,91.9761427 C169.759782,91.9761427 170.973989,87.7375438 170.973989,87.7375438 C170.973989,87.7375438 171.581093,90.3666616 173.296305,90.3666616 C175.486985,90.3666616 176.463762,87.7375438 176.463762,87.7375438 L176.463762,89.4276689 C177.256007,90.6079756 179.789912,91.118103 179.789912,91.118103 C179.789912,91.118103 181.901246,81.11145 185.86034,73.9486566 C185.200643,75.182726 184.382254,83.3110845 184.382254,84.1963146 C184.382254,86.7716697 184.487745,91.7351377 187.206487,91.7351377 C189.925532,91.7351377 191.192333,87.0936278 191.192333,87.0936278 C191.192333,87.0936278 192.247848,92.0030241 194.755305,92.0030241 C197.922762,92.0030241 199.216315,86.1815164 199.216315,86.1815164 C199.216315,86.1815164 200.351177,93.4113587 204.112665,93.4113587 C206.32949,93.4113587 207.477728,91.0102687 207.87385,90.1522289 C209.906142,85.6454346 210.909064,76.6451322 210.909064,76.6451322 C210.909064,76.6451322 211.384228,77.3023344 211.991636,78.2678995 C210.222918,82.2114218 210.513246,86.9867204 210.565839,87.6037551 C210.961961,91.3056543 213.126193,91.600731 213.680703,91.600731 C218.009167,91.600731 218.616574,86.0474187 218.616574,84.5989166 C218.616574,79.823618 215.343322,76.5107256 215.343322,76.5107256 C215.343322,76.5107256 216.518008,74.7130751 218.603502,73.7206287 C219.210606,73.3986707 218.956455,72.7145872 218.893829,72.5807985 M154.146852,70.5554292 C154.146852,70.5554292 154.978314,64.7203263 155.690908,62.0111825 C156.403502,59.3014207 156.786552,57.7586794 157.129777,56.9673795 C157.193619,56.8196867 157.38028,56.3101773 157.670607,56.3101773 C157.960934,56.3101773 158.080106,56.8196867 158.080106,57.8260372 C158.080106,58.8317698 157.855444,63.4022141 154.146852,70.5554292 M171.277389,74.0694681 C171.118697,75.7997607 170.7624,79.1800109 170.366885,81.2455477 C169.970459,83.3110845 169.508671,85.5780768 168.822526,86.9060764 C168.74318,87.0803416 168.400259,87.6837811 167.977688,87.6837811 C167.555725,87.6837811 166.974766,86.7985511 166.909101,85.6587208 C166.842827,84.5182726 166.750408,82.4530448 167.27847,79.2875362 C167.27847,79.2875362 167.885574,74.8876493 169.482223,72.5675123 C169.67314,72.2854128 169.996908,72.0437898 170.353813,72.0437898 C170.709806,72.0437898 171.435473,72.3391755 171.277389,74.0694681 M199.400848,69.9516807 C198.715006,81.2990014 197.553393,84.5451539 197.003138,86.1280627 C196.452884,87.7106625 196.048858,87.6837811 195.784675,87.6837811 C195.296439,87.6837811 194.993039,86.9329577 194.913997,86.6109997 C194.438528,84.6523703 194.702711,80.5216056 194.808202,79.9577156 C196.048858,71.9634548 199.400848,69.9516807 199.400848,69.9516807 M203.017021,71.9100011 C203.017021,71.9100011 203.597676,62.9232939 204.363472,59.8378114 C204.521556,59.167014 205.445436,54.7003872 206.435285,53.1446688 C206.607049,52.8631872 206.936898,52.2328664 207.425134,52.2328664 C207.636116,52.2328664 207.887226,52.7022082 207.860778,53.801871 C207.834329,54.9018427 208.031934,58.4965256 203.017021,71.9100011 M214.78942,85.8595584 C214.78942,87.75083 214.089594,88.3276972 213.799266,88.3276972 C213.086672,88.3276972 213.047151,86.315923 213.047151,85.994274 C213.047151,82.6671685 213.509243,80.9906385 213.509243,80.9906385 C214.802492,83.5792799 214.78942,85.4170978 214.78942,85.8595584" id="Fill-1" fill-rule="nonzero"></path>
                        <path d="M150.065791,95.0253603 C146.971468,93.5396109 142.263578,93.9903473 142.263578,93.9903473 C142.263578,93.9903473 144.445566,86.3623596 146.561451,61.3163897 C146.750924,59.0737088 145.106894,59.1809687 145.106894,59.1809687 L144.115054,59.1809687 C143.321521,59.1809687 143.004108,58.7827928 142.818899,57.9601607 C141.972667,54.4581681 138.957546,54.1660298 137.899603,54.1660298 C129.832981,54.1660298 126.659458,71.8364244 126.315543,74.3568812 C125.971628,76.877338 125.151897,80.1941466 124.543573,82.501917 C123.935248,84.8102985 122.903808,88.1005214 121.475448,88.1005214 C120.047393,88.1005214 120.232602,84.4652942 120.364806,82.7940553 C120.682219,77.9655226 124.358364,58.4112026 124.596272,56.899173 C124.834484,55.3868378 124.411368,54.776281 124.093955,54.4844483 C122.586394,53.184494 120.973131,52.6008285 119.46557,52.2032638 C118.16972,51.8848452 117.561091,52.7068662 117.296681,53.0252847 C113.223922,57.9601607 107.352387,76.6123966 107.352387,76.6123966 C107.352387,76.6123966 108.780441,68.8386453 109.468272,64.7260959 C110.155797,60.6135465 110.605415,56.7130724 110.869825,54.9354903 C111.134234,53.1582138 110.578913,53.0252847 110.314504,52.8132094 C109.309565,52.0966149 107.378888,51.7519162 105.739123,51.5398409 C104.099358,51.3271544 103.755443,52.2032638 103.438029,53.5294983 C103.120616,54.856344 102.459592,63.0279657 102.089175,67.5383854 C101.719063,72.0484996 101.322144,75.2855509 101.322144,75.2855509 C99.4971704,84.7837127 97.6194975,85.7123825 96.90547,85.7123825 C96.1911379,85.7123825 95.7418245,84.8102985 95.5036123,84.0411436 C94.1547583,79.9023139 96.7994625,65.5484225 97.0903739,63.4787021 C97.3812852,61.4095928 96.3236473,60.879099 95.4771104,60.5072033 C94.6308782,60.1362243 93.1233176,59.7646342 92.5414949,59.6320107 C90.7430229,59.2338348 90.3464087,60.9056848 90.2934049,61.2237977 C88.1775198,71.1198299 88.045315,77.4610034 88.045315,79.4778578 C86.7759667,87.0923998 84.5409754,91.4830306 82.4250902,91.2180893 C78.8016444,90.7007356 78.7885458,79.0662361 78.7224434,75.153233 C81.6315571,66.0657762 92.1887458,45.5702575 92.1183788,32.7549815 C92.0885261,27.3165031 90.2404012,24 87.0403762,24 C84.0782588,24 80.6662187,28.4572482 80.1108979,29.6511648 C71.7798665,45.702881 71.717115,71.4382484 71.6476618,73.0061999 C70.5897192,81.4727101 68.4208302,85.6857966 66.8605705,85.6857966 C65.3000062,85.6857966 65.8291298,80.5257053 65.8291298,80.5257053 C65.8291298,80.5257053 67.6010999,63.7445601 67.6803009,61.1709317 C67.8390075,59.1277971 65.9744332,59.2203891 65.9744332,59.2203891 L65.2208052,59.2203891 C64.4668726,59.2203891 64.2420636,58.7827928 64.1098589,58.2391589 C63.2502234,54.5910971 60.208905,54.1266094 59.1509624,54.1266094 C50.3569098,54.1266094 47.5800009,73.8926991 47.2491844,76.0152855 C44.5383779,89.4799275 40.3727099,94.1232764 36.4056536,94.1232764 C32.4385974,94.1232764 32.3721904,85.5666189 32.306088,83.5769615 C43.3482305,82.2501158 44.207866,70.4435725 44.4722755,67.856804 C45.9268323,53.9936804 40.7035264,51.6058471 37.595801,51.6724644 C29.1986672,51.9374057 24.9007945,72.3669182 24.9007945,80.9235756 C24.9007945,89.4799275 27.4132939,93.6587887 27.4132939,93.6587887 C27.4132939,93.6587887 26.4214537,96.6474002 23.3801353,96.5774214 C20.7351265,96.5774214 20.0080004,92.6638072 20.0080004,84.4390139 C20.0080004,76.2139151 25.2712115,61.9000551 25.6678257,60.7858959 C26.0644399,59.6717366 25.6943276,58.7427613 25.2843101,58.3320564 C23.4462376,56.5013027 21.1981477,55.7850138 20.7351265,55.5854674 C19.0822625,54.9223502 17.429094,56.6470662 16.9663773,57.2441774 C11.2139478,65.0707947 6.40035468,77.2755139 6.40035468,77.2755139 L7.44519864,68.7854737 C16.7150665,52.3358872 20.5368194,45.1720816 20.9337382,36.8146649 C21.1661627,31.9118752 19.4127744,27.9264488 16.305049,27.9264488 C7.97401763,27.9264488 4.73408748,43.5139828 2.93927097,55.2539088 C1.14445445,66.9941403 0.0265018732,89.4799275 0,90.8596393 C1.08444446,92.7967362 5.92423482,93.8843097 5.92423482,93.8843097 C11.1874459,76.2139151 15.9745371,68.5727873 16.6093636,67.3260046 C14.9695983,72.3140521 13.6207443,81.679896 13.6207443,85.3148177 C13.6207443,95.5292683 17.1119853,102.427827 22.5335984,102.427827 C27.9555161,102.427827 29.2513663,97.7578924 29.5952815,96.776051 C32.3459931,99.3762653 35.1494039,99.5357801 36.3130494,99.5357801 C43.8243504,99.5357801 47.5800009,87.3041695 47.5800009,87.3041695 C47.5800009,87.3041695 49.0610596,95.4760967 54.0330547,95.4760967 C58.5557364,95.4760967 60.883332,88.1005214 60.883332,88.1005214 C60.883332,88.1005214 61.8090698,92.6109412 64.8768901,92.6109412 C70.0870974,92.6109412 72.2821836,83.9085201 72.2821836,83.9085201 C72.2821836,83.9085201 74.0279564,97.8376498 81.1158367,97.8908215 C87.3047857,97.8908215 89.3676671,87.8615547 89.3676671,87.8615547 C89.3676671,87.8615547 91.0074324,92.6109412 94.8687858,92.6109412 C98.7304438,92.6109412 100.581615,87.9675923 100.581615,87.9675923 C100.581615,87.9675923 100.502414,90.1033189 100.502414,90.9393967 C101.507353,92.823322 105.739123,93.8580295 106.294444,93.9240356 C110.658419,74.9536867 117.058774,64.0892589 117.058774,64.0892589 C117.058774,64.0892589 114.493271,74.6752997 114.361066,83.3780263 C114.361066,87.8086887 115.2338,94.9718831 119.518269,94.9718831 C123.803044,94.9718831 125.892427,88.3125967 126.342045,87.1455714 C127.479188,93.2474726 130.49431,95.4760967 132.742399,95.4760967 C134.990489,95.4760967 136.577251,93.6719288 136.577251,93.6719288 L136.259838,95.5821344 C128.378424,99.0312609 123.829545,106.434033 123.829545,113.677291 C123.829545,120.919937 128.45793,121 129.039753,121 C136.392347,121 140.99423,99.3762653 141.364342,97.8743199 C145.305201,96.3460944 147.156677,97.2539844 148.108612,97.5724029 C149.060852,97.8908215 150.54191,98.0231393 150.912023,97.0153233 C151.28244,96.0068961 150.383204,95.184264 150.065791,95.0253603 M134.937486,101.870136 C133.456427,109.219431 132.530689,110.864696 131.684457,112.854659 C130.838225,114.844316 130.256402,115.375115 129.727278,115.375115 C129.198459,115.375115 128.80154,114.578763 128.854544,113.385152 C128.907548,112.191236 129.961226,109.166565 130.176896,108.715829 C131.843164,104.656146 134.937486,101.870136 134.937486,101.870136 M9.03196022,58.4377885 C9.03196022,58.4377885 12.4040951,38.0748933 14.5860827,34.1615846 C14.7843898,33.7631031 15.7366295,32.702421 15.921838,34.559455 C16.1067419,36.4164889 16.6623674,43.579989 9.03196022,58.4377885 M32.3721904,78.8676065 C32.3721904,78.8676065 32.8218084,72.2611861 34.0914613,67.5117996 C35.3608097,62.7627188 36.2073465,59.5519477 37.6619033,57.8544286 C37.9263128,57.5625959 39.0899583,56.7399638 39.5398809,58.2519934 C39.9894989,59.7646342 40.5975189,62.3648484 39.8569895,67.4323478 C39.1164602,72.4998472 38.1115213,78.2307695 32.3721904,78.8676065 M61.412151,63.7971206 C61.2799462,65.4154934 60.7511272,71.7838639 60.063297,75.3653083 C59.3757714,78.9464472 58.1061184,84.9963991 57.0481759,86.7205041 C56.8367701,87.1189856 56.5193569,87.9675923 55.593619,87.9675923 C54.6678812,87.9675923 54.0330547,86.7205041 53.821649,85.128717 C53.6099386,83.53693 53.3985328,79.9548744 54.1390622,74.3037095 C54.1390622,74.3037095 55.3027077,65.5221422 58.1856241,61.8074632 C58.5557364,61.3032496 59.08486,60.9056848 59.8780885,60.9056848 C60.6716216,60.9056848 61.5443557,62.1790533 61.412151,63.7971206 M79.3173648,63.147449 C79.3173648,63.147449 80.4813149,40.6087958 85.2019991,30.7121525 C85.4006108,30.3408679 85.823727,29.6511648 86.3790478,29.6511648 C86.9343687,29.6511648 87.1195772,30.2611105 87.146079,31.1103284 C87.1725809,31.9592408 87.1990828,34.8778735 86.8286658,37.00046 C86.4585534,39.1227408 85.2154023,45.8355044 82.6233973,53.4766323 C81.7241613,56.1828841 79.3173648,63.147449 79.3173648,63.147449 M140.174195,64.0892589 C139.936287,67.2199669 139.724577,70.6690935 138.904847,75.2323793 C138.084812,79.7959707 137.000367,84.9698133 135.81022,86.7473954 C135.598814,87.1189856 135.281401,87.9675923 134.408667,87.9675923 C133.535933,87.9675923 132.795403,86.5616004 132.636697,85.0489596 C132.47799,83.53693 132.054569,81.3345861 133.033311,73.6140065 C133.033311,73.6140065 133.906045,65.1236607 137.370784,61.3827014 C137.661695,61.0911743 138.111313,60.8525132 138.587433,60.8525132 C139.063553,60.8525132 140.412407,60.9582453 140.174195,64.0892589 M101.057735,47.6925384 C101.666059,46.604965 101.983473,45.3844625 101.983473,44.111094 C101.983473,42.8374199 101.40165,42.1474112 100.475912,41.4839883 C99.5501742,40.8208711 97.6459993,40.7945908 97.2228832,40.7945908 C92.3562864,40.7945908 92.6736996,45.5965378 92.6736996,45.5965378 C92.7267034,48.9927983 93.3085261,50.690623 93.6521366,51.3271544 C94.8425885,53.6092557 96.6672577,52.6277199 96.9581691,52.4416193 C99.0475524,51.2480082 100.44941,48.7801118 101.057735,47.6925384" id="Fill-3" fill-rule="nonzero"></path>
                        <g id="Group-17" transform="translate(123.000000, 29.000000)">
                            <path d="M2.41801744,1.19999667 C1.99857792,1.20137809 2.00146397,0.773136762 2.00018128,0.60022857 C1.99857792,0.414887566 1.99857792,0 2.41801744,0 L8.58134134,0 C9.00142221,0 9.00142221,0.414887566 8.99981884,0.60022857 C8.99853615,0.773136762 9.00142221,1.20137809 8.58134134,1.19999667 L2.41801744,1.19999667" id="Fill-5"></path>
                            <path d="M11,8.88466565 C11,9.77466783 10.8821734,10.5937704 10.6461911,11.3416467 C10.4092215,12.0898497 10.0567291,12.735134 9.58871402,13.2761926 C9.12004069,13.8192115 8.53321166,14.2416685 7.82822692,14.5445437 C7.1235713,14.8477456 6.3063551,15 5.37756568,15 C4.47346059,15 3.68520735,14.866369 3.01280594,14.5991069 C2.34073365,14.3321716 1.78023458,13.9440209 1.33196697,13.4340013 C0.884357609,12.9252886 0.549637963,12.3064692 0.330111902,11.5778697 C0.110256717,10.8499238 0,10.0252668 0,9.10259203 C0,8.21357003 0.116180959,7.39381398 0.348213751,6.64561098 C0.580575669,5.89740797 0.930435043,5.25277717 1.39976662,4.71139185 C1.86811083,4.16869963 2.45263599,3.74787628 3.15301299,3.44924853 C3.85371911,3.14898715 4.67291006,3 5.60959847,3 C6.51469092,3 7.30294417,3.13297756 7.97468733,3.39991287 C8.64741787,3.66717491 9.20725869,4.05597909 9.65585542,4.56501851 C10.1037939,5.07471139 10.4398301,5.69320409 10.664293,6.42082335 C10.8877685,7.14974951 11,7.97015901 11,8.88466565 M8.91005924,9.01796994 C8.91005924,8.42855587 8.85476632,7.86985406 8.74352223,7.3441516 C8.63260726,6.81812241 8.44961403,6.35743847 8.19487164,5.95981268 C7.94012926,5.5648007 7.59421938,5.25081682 7.1584585,5.02047484 C6.72302675,4.78980614 6.1803004,4.67447179 5.53093771,4.67447179 C4.93061457,4.67447179 4.4145473,4.77967763 3.98306505,4.98943585 C3.55125367,5.20017425 3.1961283,5.49716837 2.91670157,5.88107166 C2.6366166,6.26595513 2.42893902,6.72108473 2.29366884,7.24678719 C2.15806954,7.77216293 2.09026988,8.34687432 2.09026988,8.96961446 C2.09026988,9.56817687 2.1455628,10.1301459 2.25680689,10.6555217 C2.36706361,11.1815509 2.55236072,11.6409279 2.81171085,12.0329993 C3.07040273,12.4250708 3.41795823,12.7367676 3.85338998,12.9684165 C4.28947998,13.198105 4.83187721,13.3134393 5.48189815,13.3134393 C6.07333493,13.3134393 6.58709832,13.2082335 7.02318832,12.9974951 C7.4589492,12.7870834 7.81670756,12.4920497 8.09613428,12.1120671 C8.37556101,11.7317578 8.58093471,11.2789153 8.71258453,10.7528861 C8.84423434,10.2271836 8.91005924,9.64920497 8.91005924,9.01796994" id="Fill-6" fill-rule="nonzero"></path>
                        </g>
                        <path d="M194.90127,43.1798763 C194.963173,43.3590103 194.995853,43.5044948 194.999624,43.6140206 C195.003709,43.7245361 194.974486,43.8086598 194.912897,43.865732 C194.850365,43.923134 194.747298,43.9590928 194.603696,43.9752577 C194.45915,43.9917526 194.266842,44 194.026143,44 C193.784501,44 193.592193,43.993732 193.448276,43.9821856 C193.304674,43.9699794 193.194694,43.9491959 193.121478,43.9204948 C193.047949,43.8917938 192.993273,43.8535258 192.958393,43.804701 C192.9232,43.7552165 192.889892,43.6935258 192.858783,43.6206186 L191.56416,39.7608247 L185.285554,39.7608247 L184.048435,43.5714639 C184.025182,43.6443711 183.994702,43.708701 183.955109,43.7611546 C183.916459,43.8145979 183.859897,43.8594639 183.786054,43.8960825 C183.711896,43.9330309 183.607257,43.9590928 183.47151,43.9752577 C183.334821,43.9917526 183.15791,44 182.94015,44 C182.714533,44 182.529767,43.990433 182.386164,43.9699794 C182.242247,43.9491959 182.140751,43.910268 182.081991,43.8535258 C182.024172,43.795134 181.996835,43.712 182.000291,43.6021443 C182.005004,43.4916289 182.037684,43.3468041 182.100216,43.1673402 L187.164642,28.4414021 C187.195436,28.3516701 187.235972,28.2774433 187.286877,28.2203711 C187.337468,28.1636289 187.410997,28.1187629 187.508723,28.086433 C187.605505,28.0537732 187.730254,28.0313402 187.882027,28.0181443 C188.033799,28.006268 188.226421,28 188.459893,28 C188.708448,28 188.914582,28.006268 189.077981,28.0181443 C189.241695,28.0313402 189.373985,28.0537732 189.474853,28.086433 C189.576034,28.1187629 189.653963,28.1656082 189.708325,28.227299 C189.762372,28.2870103 189.805107,28.3635464 189.83653,28.4532784 L194.90127,43.1798763 Z M188.401133,30.1806186 L188.389506,30.1806186 L185.787377,38.0823093 L191.039084,38.0823093 L188.401133,30.1806186 Z" id="Fill-7" fill-rule="nonzero"></path>
                        <path d="M181,43.6059652 C181,43.6719138 180.988143,43.7295775 180.965366,43.7786247 C180.941964,43.8276719 180.891104,43.8687655 180.814347,43.902237 C180.736653,43.9340514 180.629006,43.9582436 180.489532,43.975145 C180.350994,43.9913836 180.165653,44 179.933508,44 C179.732878,44 179.56813,43.9913836 179.440825,43.975145 C179.31352,43.9582436 179.211801,43.9327258 179.134419,43.8956089 C179.056726,43.8584921 178.996505,43.8067937 178.954694,43.7411765 C178.911635,43.6755592 178.875129,43.5930406 178.844551,43.4942833 L177.465724,39.7415079 C177.303161,39.3146645 177.135293,38.9236123 176.961496,38.5657001 C176.7877,38.2094449 176.581141,37.9009114 176.34182,37.6434134 C176.101875,37.3852527 175.820119,37.1830986 175.49624,37.0399337 C175.171425,36.8967688 174.781085,36.8241922 174.325533,36.8241922 L172.992886,36.8241922 L172.992886,43.6059652 C172.992886,43.6719138 172.974789,43.7295775 172.940466,43.7786247 C172.905832,43.8276719 172.851852,43.8664457 172.778527,43.8956089 C172.704889,43.923778 172.60473,43.9479702 172.477425,43.9695112 C172.349496,43.9890638 172.189741,44 171.996911,44 C171.803145,44 171.643078,43.9890638 171.515773,43.9695112 C171.388468,43.9479702 171.2855,43.923778 171.208119,43.8956089 C171.131049,43.8664457 171.076757,43.8276719 171.046491,43.7786247 C171.015601,43.7295775 171,43.6719138 171,43.6059652 L171,28.8623032 C171,28.5418393 171.079254,28.3181442 171.237761,28.1912179 C171.395956,28.064623 171.563824,28 171.741053,28 L174.927424,28 C175.306531,28 175.621361,28.0112676 175.872851,28.031483 C176.123093,28.051367 176.349309,28.074565 176.550251,28.0990886 C177.129364,28.2057995 177.641081,28.3741508 178.085088,28.6038111 C178.529408,28.8338028 178.902899,29.1247722 179.203376,29.4773819 C179.504478,29.8303231 179.731006,30.2346313 179.880776,30.6896437 C180.032419,31.1449876 180.107616,31.6483844 180.107616,32.1968517 C180.107616,32.7310688 180.039596,33.2092792 179.90449,33.6308202 C179.769696,34.0543496 179.57437,34.4268434 179.319448,34.7509528 C179.064838,35.0750621 178.759368,35.3557581 178.404287,35.5940348 C178.049206,35.8319801 177.651066,36.0328086 177.211114,36.1971831 C177.458236,36.3125104 177.681644,36.457995 177.882586,36.6342999 C178.08384,36.8102734 178.271054,37.0217067 178.44485,37.267937 C178.618334,37.5135046 178.78277,37.7968517 178.937221,38.1169843 C179.091984,38.436454 179.246435,38.7980116 179.400886,39.2003314 L180.74539,42.7078708 C180.852726,43.0028169 180.922618,43.2102734 180.953509,43.3282519 C180.983463,43.4472245 181,43.5400166 181,43.6059652 M177.99897,32.4192212 C177.99897,31.7955261 177.867297,31.2682684 177.604262,30.8374482 C177.342476,30.406628 176.901276,30.0967688 176.283784,29.9085336 C176.090642,29.8508699 175.872851,29.8097763 175.62885,29.7855841 C175.386096,29.7607291 175.066586,29.7491301 174.673126,29.7491301 L172.992886,29.7491301 L172.992886,35.1141674 L174.938968,35.1141674 C175.464726,35.1141674 175.91903,35.0465617 176.300945,34.9113505 C176.683173,34.7761392 177.002059,34.5869097 177.256981,34.3446562 C177.511904,34.1024027 177.699429,33.8177299 177.819246,33.4893123 C177.939062,33.1612262 177.99897,32.8046396 177.99897,32.4192212" id="Fill-8" fill-rule="nonzero"></path>
                        <path d="M169,43.6062721 C169,43.6722249 168.988144,43.7295607 168.96568,43.7786109 C168.942279,43.8276612 168.892047,43.8697516 168.814982,43.9022309 C168.737294,43.9340473 168.629341,43.9589038 168.490188,43.9751434 C168.351034,43.9917145 168.166017,44 167.934199,44 C167.732957,44 167.569155,43.9917145 167.441546,43.9751434 C167.314249,43.9589038 167.212224,43.9327216 167.13516,43.8956025 C167.057783,43.8584833 166.997254,43.807776 166.955446,43.7411604 C166.913014,43.6768648 166.875885,43.5936781 166.844997,43.4955776 L165.466257,39.7412432 C165.304327,39.3153676 165.136158,38.9236282 164.96206,38.5660252 C164.788275,38.2094165 164.582041,37.901858 164.342423,37.6430184 C164.102493,37.3848416 163.821066,37.1836692 163.496896,37.0401641 C163.172413,36.8963274 162.782097,36.825072 162.326885,36.825072 L160.993698,36.825072 L160.993698,43.6062721 C160.993698,43.6722249 160.976225,43.7295607 160.941593,43.7786109 C160.907273,43.8276612 160.852672,43.8677631 160.779664,43.8956025 C160.705719,43.9247675 160.606502,43.9479669 160.478269,43.9695093 C160.350348,43.9900574 160.18873,44 159.995913,44 C159.802783,44 159.64335,43.9900574 159.515117,43.9695093 C159.387819,43.9479669 159.285483,43.9247675 159.208106,43.8956025 C159.130729,43.8677631 159.077065,43.8276612 159.046176,43.7786109 C159.014976,43.7295607 159,43.6722249 159,43.6062721 L159,28.8613626 C159,28.5425358 159.078625,28.3184953 159.237434,28.1908984 C159.395307,28.0642956 159.562853,28 159.741007,28 L162.928739,28 C163.306886,28 163.622009,28.0109369 163.873483,28.0304907 C164.124021,28.0513702 164.350223,28.0745697 164.551153,28.0987634 C165.13023,28.2058123 165.641602,28.3745055 166.085582,28.6028544 C166.529874,28.8335232 166.903654,29.1245106 167.204112,29.4774737 C167.505195,29.8307683 167.732021,30.2337759 167.88147,30.689148 C168.032791,31.1441887 168.108296,31.6476169 168.108296,32.1967811 C168.108296,32.7310313 168.04028,33.2086087 167.905182,33.6308387 C167.770085,34.0537316 167.575395,34.4272428 167.320177,34.750378 C167.065271,35.0745075 166.760132,35.3562152 166.404761,35.5935124 C166.04939,35.8314725 165.651899,36.0323135 165.211351,36.1973611 C165.458769,36.3120326 165.682163,36.458852 165.883093,36.634505 C166.084334,36.8098266 166.271224,37.0216045 166.445322,37.2681815 C166.618795,37.5140957 166.78322,37.7964662 166.938286,38.1169501 C167.092415,38.437434 167.246545,38.7976883 167.40161,39.200696 L168.745718,42.7081219 C168.853671,43.0037492 168.922935,43.2102243 168.953824,43.3295358 C168.9844,43.4481844 169,43.5409822 169,43.6062721 M165.999158,32.418833 C165.999158,31.7947677 165.867804,31.2681401 165.605098,30.8376245 C165.343016,30.4064461 164.902156,30.0959049 164.284391,29.9083207 C164.091573,29.8513164 163.873483,29.8095573 163.629497,29.7847008 C163.386759,29.7601757 163.068204,29.7485759 162.674144,29.7485759 L160.993698,29.7485759 L160.993698,35.1136152 L162.940595,35.1136152 C163.465383,35.1136152 163.919347,35.0460053 164.301551,34.9107857 C164.684378,34.775566 165.002933,34.5876504 165.257215,34.3450504 C165.513057,34.1027819 165.699635,33.81776 165.819756,33.4896535 C165.939565,33.1615469 165.999158,32.8049382 165.999158,32.418833" id="Fill-9" fill-rule="nonzero"></path>
                        <path d="M156,43.1210255 C156,43.2691859 155.991247,43.4003662 155.975089,43.5109039 C155.958257,43.6224405 155.92897,43.7153321 155.887563,43.7895788 C155.845147,43.8631596 155.797681,43.9167638 155.743482,43.9497253 C155.689284,43.9836857 155.628689,44 155.562371,44 L147.79985,44 C147.607967,44 147.426856,43.9354087 147.255844,43.8078908 C147.084833,43.68004 147,43.4556351 147,43.1333444 L147,28.8663226 C147,28.5446979 147.084833,28.3196271 147.255844,28.1907774 C147.426856,28.0642584 147.607967,28 147.79985,28 L155.474172,28 C155.541163,28 155.601758,28.0169802 155.655957,28.0499417 C155.710155,28.0822374 155.753918,28.1355086 155.787582,28.2090894 C155.820909,28.2850008 155.84784,28.3768936 155.868375,28.4884302 C155.889246,28.5999667 155.900019,28.7381388 155.900019,28.9029466 C155.900019,29.0507741 155.889246,29.1809556 155.868375,29.2921591 C155.84784,29.4033627 155.820909,29.4939238 155.787582,29.5641751 C155.753918,29.6344265 155.710155,29.6863659 155.655957,29.7183286 C155.601758,29.752289 155.541163,29.7682704 155.474172,29.7682704 L149.150103,29.7682704 L149.150103,34.7877476 L154.575351,34.7877476 C154.642678,34.7877476 154.701926,34.8063925 154.756462,34.8433494 C154.810324,34.8809722 154.85577,34.9319128 154.893136,34.9985017 C154.931176,35.0640919 154.957771,35.1546529 154.974603,35.2701848 C154.991098,35.3853837 154.999177,35.5215582 154.999177,35.6787082 C154.999177,35.8268687 154.991098,35.9553854 154.974603,36.0619278 C154.957771,36.1688031 154.931176,36.2553687 154.893136,36.3216248 C154.85577,36.3872149 154.810324,36.434826 154.756462,36.4641252 C154.701926,36.4924255 154.642678,36.5064092 154.575351,36.5064092 L149.150103,36.5064092 L149.150103,42.2317296 L155.562371,42.2317296 C155.628689,42.2317296 155.689284,42.2483769 155.743482,42.2810055 C155.797681,42.313967 155.845147,42.3659064 155.887563,42.435159 C155.92897,42.5050774 155.958257,42.5959714 155.975089,42.706842 C155.991247,42.8183786 156,42.9562177 156,43.1210255" id="Fill-10"></path>
                        <path d="M145,28.9104505 C145,29.0658933 144.99235,29.2024443 144.977356,29.3164578 C144.962056,29.4314656 144.937271,29.5245987 144.903305,29.5938685 C144.868727,29.6631383 144.827417,29.7145106 144.778152,29.7469912 C144.728886,29.7801346 144.673807,29.7963749 144.612913,29.7963749 L140.477356,29.7963749 L140.477356,43.6065873 C140.477356,43.6715484 140.462362,43.7298809 140.431763,43.7789332 C140.401775,43.8279855 140.348531,43.8670948 140.27295,43.8959296 C140.197062,43.9241015 140.096695,43.9486277 139.971236,43.9691766 C139.846083,43.9897255 139.689412,44 139.5,44 C139.318237,44 139.162791,43.9897255 139.034272,43.9691766 C138.905141,43.9486277 138.802938,43.9241015 138.727356,43.8959296 C138.651775,43.8670948 138.598225,43.8279855 138.568237,43.7789332 C138.537944,43.7298809 138.522644,43.6715484 138.522644,43.6065873 L138.522644,29.7963749 L134.386475,29.7963749 C134.325275,29.7963749 134.271114,29.7801346 134.221542,29.7469912 C134.172277,29.7145106 134.132497,29.6631383 134.102509,29.5938685 C134.071909,29.5245987 134.047736,29.4314656 134.028764,29.3164578 C134.009486,29.2024443 134,29.0658933 134,28.9104505 C134,28.7543449 134.009486,28.617131 134.028764,28.4974832 C134.047736,28.3788296 134.071909,28.2820508 134.102509,28.2081409 C134.132497,28.1348938 134.172277,28.0815329 134.221542,28.0483894 C134.271114,28.0159089 134.325275,28 134.386475,28 L144.612913,28 C144.673807,28 144.728886,28.0159089 144.778152,28.0483894 C144.827417,28.0815329 144.868727,28.1348938 144.903305,28.2081409 C144.937271,28.2820508 144.962056,28.3788296 144.977356,28.4974832 C144.99235,28.617131 145,28.7543449 145,28.9104505" id="Fill-11"></path>
                        <path d="M120,43.4691666 C120,43.5341004 119.98569,43.5902681 119.958045,43.6376697 C119.930074,43.6866947 119.881614,43.7246809 119.81299,43.7522778 C119.744365,43.7808486 119.65395,43.8026014 119.541093,43.8194842 C119.428562,43.8347436 119.291638,43.8428603 119.130972,43.8428603 C118.96185,43.8428603 118.820373,43.8347436 118.708167,43.8194842 C118.594985,43.8026014 118.503269,43.7808486 118.429766,43.7522778 C118.357889,43.7246809 118.304875,43.6866947 118.273002,43.6376697 C118.241129,43.5902681 118.224542,43.5341004 118.224542,43.4691666 L118.224542,42.0347801 C117.653104,42.6535988 117.059225,43.1360565 116.443555,43.481504 C115.827235,43.8266269 115.152698,44 114.420269,44 C113.623118,44 112.943051,43.8448083 112.379419,43.535399 C111.815462,43.2266391 111.358832,42.8084657 111.008554,42.2821777 C110.658601,41.7558897 110.402641,41.1367464 110.241324,40.4250725 C110.080333,39.713074 110,38.9643879 110,38.1767415 C110,37.2436436 110.100823,36.4017776 110.301493,35.6501694 C110.503139,34.8992106 110.800729,34.2583146 111.195564,33.7284552 C111.589749,33.1966478 112.079552,32.7888639 112.662699,32.50348 C113.247146,32.2180962 113.920708,32.0755666 114.686311,32.0755666 C115.322145,32.0755666 115.903991,32.2145249 116.431522,32.491792 C116.959053,32.7690591 117.479754,33.1765183 117.995252,33.7151438 L117.995252,28.3863558 C117.995252,28.3301881 118.009237,28.2753191 118.037857,28.2233721 C118.065828,28.1717498 118.120142,28.1305168 118.200475,28.1022707 C118.281133,28.0749985 118.383582,28.0506483 118.508472,28.0305189 C118.633037,28.0103894 118.792077,28 118.985267,28 C119.186262,28 119.352132,28.0103894 119.480925,28.0305189 C119.609718,28.0506483 119.710541,28.0749985 119.783068,28.1022707 C119.85527,28.1305168 119.909259,28.1717498 119.946011,28.2233721 C119.982437,28.2753191 120,28.3301881 120,28.3863558 L120,43.4691666 Z M117.995252,35.836854 C117.456012,35.1706337 116.93401,34.6622025 116.431522,34.3122096 C115.928058,33.9625413 115.402804,33.7875449 114.855108,33.7875449 C114.348066,33.7875449 113.916805,33.9086463 113.562624,34.1495505 C113.208443,34.3904547 112.92061,34.7092794 112.69945,35.1021286 C112.477965,35.4959518 112.316649,35.9413973 112.216476,36.4410625 C112.115328,36.9391043 112.065567,37.4452629 112.065567,37.9592135 C112.065567,38.5059556 112.107523,39.0410097 112.192084,39.563077 C112.276645,40.0857937 112.423651,40.5497453 112.632777,40.9555813 C112.842554,41.3617418 113.119979,41.6873846 113.466354,41.9318601 C113.812079,42.1776344 114.246918,42.2997098 114.770547,42.2997098 C115.036589,42.2997098 115.292224,42.2639963 115.537451,42.1912705 C115.783003,42.119194 116.034735,41.9990666 116.292321,41.8295895 C116.550233,41.6610864 116.819527,41.4416104 117.101831,41.1727846 C117.383159,40.9039589 117.681725,40.5718228 117.995252,40.177675 L117.995252,35.836854 Z" id="Fill-12" fill-rule="nonzero"></path>
                        <path d="M72.8926528,25.6893016 C72.5910751,24.757986 71.660026,24.0692327 70.6645475,24.043277 C68.7997267,23.9950736 67.0767715,24.492558 65.5449869,25.5780628 C64.8453388,26.0736932 64.2745494,26.7763514 63.5443503,27.2064745 C62.4302977,27.8621652 61.4856367,28.6912029 60.5972379,29.6181925 C57.9405111,32.423572 53.1721358,24.6278985 52.954044,22.4797546 C52.8826575,21.7780234 52.8230679,21.0660954 52.8575513,20.3640553 C52.93287,18.8400844 53.1993594,17.3154955 53.1558016,15.7980135 C53.0895573,13.4993883 52.8457543,11.2050891 52.6403669,8.91233481 C52.486402,7.19215111 52.2761749,5.47691136 52.0865167,3.75981763 C51.9785295,2.7815346 51.766185,1.83106127 51.1826912,1.02210835 C50.6185564,0.239420128 49.8535716,-0.122105816 48.8937863,0.036718402 C47.9409582,0.194306634 47.4149366,0.825277554 47.2652065,1.74855919 C47.1484472,2.46759413 47.0347128,3.22092767 47.1191061,3.93440067 C47.4914653,7.08894627 47.1629665,10.2076483 46.6986518,13.3115184 C46.4149208,15.2096842 46.3078411,17.1019789 46.3698505,19.0134315 C46.3822524,19.3928792 46.3072361,19.7544052 45.851996,19.8137325 C45.404923,19.8721328 45.3078253,19.5167868 45.2164748,19.1843066 C44.5851883,16.8881533 43.8900776,14.6074499 43.3431845,12.2905939 C42.5328268,8.8601144 41.4263363,5.53469371 40.1667883,2.25747648 C40.0128234,1.85701698 39.7923117,1.46397339 39.5255198,1.13211111 C38.8546079,0.297511476 37.5418225,0.134361306 36.4701177,0.703841916 C35.5457232,1.1954554 35.1503751,2.07485953 35.467682,3.16994325 C36.1806394,5.62955565 36.7859122,8.10152791 37.1256029,10.6556932 C37.4362551,12.993561 37.9864756,15.2986752 38.4377834,17.6167671 C38.6809814,18.8648041 38.9489832,20.1075882 39.1767545,21.3580972 C39.2085154,21.5323712 39.0726996,21.7381629 39.01432,21.9294318 C38.8382737,21.8404407 38.5959831,21.7993442 38.495558,21.6553518 C37.4819304,20.2005961 36.4410791,18.7615993 35.5064001,17.2543142 C34.1954296,15.1392329 32.9564506,12.9802742 32.0456679,10.6371535 C31.6902479,9.72159673 31.2262357,8.82488879 30.6693607,8.02273379 C30.0102456,7.07349644 28.8940755,6.93135804 27.8371925,7.49033277 C26.8271947,8.02427878 26.3934311,9.01183169 26.7049907,10.139051 C26.8150953,10.5388926 26.9799497,10.9248292 27.1429892,11.3067489 C27.8114813,12.8724344 28.5062896,14.4260689 29.1566326,15.9994793 C29.6024957,17.0778772 29.9385566,18.2060235 30.4167856,19.2680446 C31.3100241,21.2511844 32.2664821,23.2049694 33.2078157,25.1655524 C33.4301423,25.6284292 33.719923,26.0579344 33.934385,26.5242102 C34.1306978,26.9500074 33.8784252,27.2457171 33.5535562,27.4759195 C33.2268723,27.7079759 32.9706674,27.5951922 32.6706022,27.3501579 C31.7029523,26.5597448 30.7334875,25.7650057 29.7086679,25.0564767 C28.6532974,24.3263179 27.665986,23.5470286 26.8879942,22.5004573 C26.1822965,21.550911 25.4496775,20.6208314 24.6940697,19.7120726 C24.4227406,19.3854633 24.07821,19.0996415 23.7188577,18.87531 C22.7055326,18.2424851 21.4523367,18.7690152 21.1087136,19.9333141 C20.8927393,20.6656359 21.0101035,21.371075 21.3585663,22.0100798 C21.8304431,22.8758881 22.3546498,23.7135777 22.8882336,24.5423064 C24.646882,27.2725998 26.9481888,29.4973748 29.2836763,31.6924862 C29.880782,32.2536239 30.5662132,32.8020928 30.9434122,33.5059869 C31.9782137,35.4365972 32.8508833,37.4574345 33.8267003,39.4223435 C34.4767408,40.7306348 35.1818336,42.0120434 35.8960009,43.2835641 C36.6216627,44.5757876 37.5136913,45.8639942 38.6461956,46.9210713 C38.4683344,46.6460644 38.3397782,46.3670405 38.2626445,46.0994495 C37.7139365,44.189851 37.7986323,43.4853389 37.5475697,42.0324372 C37.3917898,39.90994 36.8216054,37.0130975 36.8330998,36.6793812 C36.8409644,36.4479428 36.8845223,36.2140325 36.8648608,35.985684 C36.8197905,35.4699688 36.7402369,34.9579616 36.6839747,34.4434823 C36.606236,33.7315543 36.9274752,33.3141 37.6262158,33.4098889 C37.9522948,33.4546934 38.3071098,33.6373104 38.5248991,33.8690578 C39.7983614,35.0253228 39.776885,36.5282819 39.7070109,36.9917767 C40.0397445,37.6082248 40.2729606,38.7376072 40.2557189,39.1810172 C40.7269907,38.6526331 41.2778161,38.4091438 41.4653569,37.768594 C41.7669345,36.7402536 42.3235071,32.5558225 42.8011311,31.0108399 C42.835312,30.0578945 43.2938794,28.0766088 43.4520791,27.4678856 C43.5322377,27.1595071 43.6713808,26.8554545 43.8377476,26.5841555 C44.1105892,26.1401275 44.5963803,25.9432967 45.0177421,26.0495915 C45.5289419,26.1781341 45.8462488,26.544604 45.8792197,27.1239725 C45.9291297,28.0661029 45.578247,30.1227838 45.4245845,31.2880097 C45.4025031,32.4572526 45.3190172,34.1372668 45.2403711,35.3173245 C45.2352289,35.3466792 45.2285742,35.4353612 45.3528956,35.455137 C45.4143,35.4489571 45.4626977,35.2481093 45.4850816,35.1736411 C45.8901091,33.8128204 46.217398,32.4377858 46.7688284,31.1019938 C46.9336828,30.3486603 47.9424706,27.6267098 48.259475,26.9376476 C48.5419961,26.3230535 49.2262175,26.1126268 49.8414722,26.3867067 C50.4482573,26.6570787 50.6612068,27.1585801 50.4391828,27.8439344 C50.0701509,28.9828956 49.4933118,31.7524315 49.3003263,32.2140723 C49.2619107,32.8336104 48.7298394,34.1116201 48.6427237,34.4984837 C48.5559104,34.8841114 47.9823987,36.2715058 48.2915385,36.4263131 C48.5395762,36.5502207 49.5347523,34.0646526 49.7464919,33.7275374 C50.0644037,32.9380512 50.3965324,32.154127 50.7159566,31.3652589 C50.921344,30.8585046 51.0768214,30.3270305 51.3227418,29.842833 C51.6563829,29.1859063 52.4307448,29.0459309 53.0148435,29.485015 C53.4967023,29.8468499 53.6110417,30.3254855 53.3962772,31.0145478 C53.0886499,32.0014827 52.4095708,33.6499792 52.0874242,34.2865121 C51.7734446,35.3095996 51.0916432,37.4815362 50.5538246,38.4066719 C50.4422076,38.5988677 50.3106266,38.9798604 50.3877603,39.0595815 C50.413169,39.0951161 50.4670114,39.0941892 50.5087543,39.0629805 C50.5937527,38.9742985 50.6494099,38.9143532 50.7350132,38.8269071 C51.1491153,38.4035819 51.5831815,37.9984874 51.9721773,37.5529144 C52.3475613,37.1227913 52.710241,36.6728923 53.0169609,36.1908577 C53.3188411,35.7156211 53.5302781,35.1807481 53.8085645,34.6882076 C53.9253237,34.4811799 54.0968328,34.299181 54.2692493,34.1338678 C54.7925485,33.6329844 55.6954666,33.9945104 55.788027,34.7506249 C55.8200905,35.0138899 55.788027,35.3040377 55.7121033,35.5592688 C55.4265573,36.520248 54.9640576,37.4076861 54.4310788,38.2391957 C53.8324608,39.1736013 53.1712283,40.0737082 52.465833,40.9274656 C51.8097428,41.7222047 51.3402859,42.6161316 50.9972678,43.566296 C50.4195212,45.166589 49.693557,46.6754191 48.6345566,47.9942163 C48.3236019,48.3813889 47.9621322,48.7234481 47.558012,49 L49.7582888,48.7126332 C55.9262627,47.9070793 56.611694,45.7203108 57.6788615,44.3106686 C59.355234,42.0960905 60.1943277,40.6286659 61.6777147,38.4150148 C62.2560662,37.5516785 62.860129,36.6528075 63.6329785,35.990319 C65.2167905,34.6322792 66.6932204,33.1858664 68.1106656,31.6467547 C69.3154638,30.3384634 70.7425886,29.2439977 72.0698933,28.053434 C72.7734737,27.4221541 73.2151019,26.6851974 72.8926528,25.6893016" id="Fill-14"></path>
                        <path d="M33.9202596,113.930808 L33.9202596,109.361246 L38.3113694,109.361246 L38.3113694,108.555402 L33.9202596,108.555402 L33.9202596,104.93039 L39.1268394,104.93039 L39.1268394,104.069192 L33,104.069192 L33,113.930808 L33.9202596,113.930808 Z M45.5290561,113.590641 C46.0636658,113.317414 46.5260802,112.951501 46.9159949,112.493226 C47.3059096,112.03495 47.6126629,111.504586 47.8362546,110.902456 C48.0598463,110.300969 48.1716421,109.671483 48.1716421,109.013999 C48.1716421,108.393525 48.0662433,107.784636 47.8560549,107.187333 C47.6455619,106.590352 47.349775,106.055482 46.9686943,105.583368 C46.587309,105.110932 46.1273315,104.728929 45.5881526,104.437357 C45.0489737,104.145786 44.4552676,104 43.8067298,104 C43.1843894,104 42.6059143,104.136453 42.0716093,104.40968 C41.5366951,104.682908 41.0721483,105.051073 40.6776643,105.513854 C40.2831802,105.976957 39.9742947,106.509252 39.7510076,107.111061 C39.5274159,107.713192 39.41562,108.342677 39.41562,109.000161 C39.41562,109.629968 39.5207142,110.245293 39.7312072,110.847424 C39.9413956,111.449232 40.2393148,111.984102 40.6252695,112.45171 C41.0106149,112.919319 41.4730293,113.294243 42.0122083,113.576481 C42.5510826,113.859042 43.1447886,114 43.7936311,114 C44.4156669,114 44.9941419,113.863869 45.5290561,113.590641 Z M40.5789671,107.500145 C40.74133,107.009365 40.9713188,106.569433 41.269238,106.180671 C41.5671572,105.791588 41.9308745,105.479098 42.3603899,105.242558 C42.7899053,105.006984 43.2675508,104.888875 43.7936311,104.888875 C44.3017387,104.888875 44.7662855,105.001834 45.1875762,105.229041 C45.6079529,105.456248 45.9713656,105.759405 46.2787281,106.138834 C46.5851767,106.518585 46.8243041,106.956264 46.9948917,107.45155 C47.165784,107.946835 47.2510779,108.463039 47.2510779,109.000161 C47.2510779,109.509285 47.1700487,110.009397 47.0079904,110.499855 C46.8456275,110.990957 46.6159434,111.430567 46.3177196,111.819651 C46.0198004,112.208412 45.6557784,112.523477 45.2265676,112.7642 C44.7970522,113.004924 44.3194067,113.125286 43.7936311,113.125286 C43.2763849,113.125286 42.807878,113.012004 42.3868919,112.784797 C41.9662105,112.558234 41.6021886,112.252502 41.29574,111.867924 C40.9886822,111.483989 40.7519918,111.044058 40.5859734,110.548772 C40.4190411,110.053487 40.3358797,109.537283 40.3358797,109.000161 C40.3358797,108.491037 40.4169088,107.990925 40.5789671,107.500145 Z M51.7210845,112.778039 C51.3354344,112.546648 51.0265489,112.240917 50.7941232,111.861166 C50.5623067,111.481737 50.3978114,111.046632 50.3012466,110.555531 C50.2046818,110.065073 50.1568563,109.560133 50.1568563,109.041676 L50.1568563,104.069192 L49.2496954,104.069192 L49.2496954,109.041676 C49.2496954,109.671483 49.3151889,110.282625 49.4467851,110.874779 C49.5780767,111.467898 49.7970991,111.995688 50.1041569,112.458469 C50.4109101,112.921572 50.8163605,113.294243 51.3202034,113.576481 C51.8240463,113.859042 52.4442544,114 53.180523,114 C53.8991236,114 54.5083654,113.8658 55.0079436,113.597078 C55.5075218,113.328678 55.9129722,112.967592 56.2239901,112.514144 C56.535008,112.060374 56.760732,111.534837 56.9011622,110.937534 C57.0409832,110.340553 57.1116553,109.708171 57.1116553,109.041676 L57.1116553,104.069192 L56.1913956,104.069192 L56.1913956,109.041676 C56.1913956,109.541789 56.1450933,110.037074 56.0530978,110.527854 C55.9611023,111.018955 55.799044,111.456313 55.5666182,111.840247 C55.3341925,112.224825 55.0231746,112.535063 54.6332599,112.770959 C54.2433452,113.006855 53.7547333,113.125286 53.1671197,113.125286 C52.5889493,113.125286 52.1067345,113.009429 51.7210845,112.778039 Z M65.5252835,113.930808 L66.3273503,113.930808 L66.3273503,104.083352 L65.4070906,104.083352 L65.4070906,112.277926 L59.2278564,104.069192 L58.5180898,104.069192 L58.5180898,113.930808 L59.4383494,113.930808 L59.4383494,105.87494 L65.5252835,113.930808 Z M70.9158543,113.930808 C71.5991189,113.930808 72.2147577,113.812377 72.762466,113.576481 C73.3101743,113.340585 73.7792905,113.006855 74.1692052,112.576578 C74.5591199,112.145979 74.8594761,111.627522 75.0699691,111.020886 C75.2801575,110.414572 75.3852517,109.735848 75.3852517,108.986323 C75.3852517,108.310495 75.2911238,107.673607 75.1028681,107.076304 C74.9143078,106.479001 74.6340566,105.958292 74.2612007,105.513854 C73.8886494,105.069095 73.4241025,104.717665 72.8678648,104.458276 C72.3113225,104.199208 71.6603477,104.069192 70.9158543,104.069192 L67.7468835,104.069192 L67.7468835,113.930808 L70.9158543,113.930808 Z M74.2350033,110.604448 C74.081779,111.099733 73.8557503,111.530332 73.5578311,111.895923 C73.2599119,112.261835 72.8894929,112.548901 72.4471834,112.75712 C72.0042647,112.96534 71.4940247,113.06961 70.9158543,113.06961 L68.6671431,113.06961 L68.6671431,104.93039 L70.9158543,104.93039 C71.4851907,104.93039 71.9890336,105.030155 72.4273831,105.229041 C72.8654279,105.42825 73.2358468,105.708235 73.5383354,106.069321 C73.8408239,106.430406 74.0708126,106.859074 74.2286062,107.354037 C74.3863999,107.849644 74.464992,108.393525 74.464992,108.986323 C74.464992,109.569465 74.3882276,110.109162 74.2350033,110.604448 Z M75.2143594,113.930808 L76.2004171,113.930808 L77.3969679,110.847424 L81.5906833,110.847424 L82.8003327,113.930808 L83.7732918,113.930808 L79.8951636,104.069192 L79.1189896,104.069192 L75.2143594,113.930808 Z M77.5940575,110.083095 L79.5003749,105.208123 L81.3804949,110.083095 L77.5940575,110.083095 Z M89.8471272,104.069192 L82.2742525,104.069192 L82.2742525,104.93039 L85.6007123,104.93039 L85.6007123,113.930808 L86.520972,113.930808 L86.520972,104.93039 L89.8471272,104.93039 L89.8471272,104.069192 Z M91.1091714,113.930808 L92.0294311,113.930808 L92.0294311,104.069192 L91.1091714,104.069192 L91.1091714,113.930808 Z M99.3388087,113.590641 C99.8734183,113.317414 100.335833,112.951501 100.725747,112.493226 C101.115662,112.03495 101.42272,111.504586 101.646007,110.902456 C101.869599,110.300969 101.981395,109.671483 101.981395,109.013999 C101.981395,108.393525 101.8763,107.784636 101.665807,107.187333 C101.455314,106.590352 101.159528,106.055482 100.778447,105.583368 C100.397062,105.110932 99.9370841,104.728929 99.3979051,104.437357 C98.8590308,104.145786 98.2650202,104 97.6164823,104 C96.9941419,104 96.4156669,104.136453 95.8813619,104.40968 C95.3464477,104.682908 94.8819008,105.051073 94.4874168,105.513854 C94.0932374,105.976957 93.7840472,106.509252 93.5607601,107.111061 C93.3371684,107.713192 93.2253726,108.342677 93.2253726,109.000161 C93.2253726,109.629968 93.3304668,110.245293 93.5409598,110.847424 C93.7514528,111.449232 94.0490674,111.984102 94.435022,112.45171 C94.820672,112.919319 95.2827819,113.294243 95.8219608,113.576481 C96.3611398,113.859042 96.9545412,114 97.6033836,114 C98.2257241,114 98.8041991,113.863869 99.3388087,113.590641 Z M94.3890243,107.500145 C94.5510826,107.009365 94.7810713,106.569433 95.0792952,106.180671 C95.3769097,105.791588 95.7409317,105.479098 96.1704471,105.242558 C96.5996579,105.006984 97.077608,104.888875 97.6033836,104.888875 C98.1114912,104.888875 98.5763427,105.001834 98.9973287,105.229041 C99.4177055,105.456248 99.7811182,105.759405 100.088176,106.138834 C100.394929,106.518585 100.633752,106.956264 100.804644,107.45155 C100.975537,107.946835 101.061135,108.463039 101.061135,109.000161 C101.061135,109.509285 100.979801,110.009397 100.817743,110.499855 C100.655685,110.990957 100.425696,111.430567 100.127472,111.819651 C99.8295529,112.208412 99.4658356,112.523477 99.0363202,112.7642 C98.6068048,113.004924 98.1291592,113.125286 97.6033836,113.125286 C97.0861374,113.125286 96.6176305,113.012004 96.1966445,112.784797 C95.7759631,112.558234 95.4122458,112.252502 95.1054925,111.867924 C94.7984347,111.483989 94.5620489,111.044058 94.3954213,110.548772 C94.2287937,110.053487 94.1456322,109.537283 94.1456322,109.000161 C94.1456322,108.491037 94.2266614,107.990925 94.3890243,107.500145 Z M110.198543,113.930808 L111,113.930808 L111,104.083352 L110.07974,104.083352 L110.07974,112.277926 L103.900811,104.069192 L103.19074,104.069192 L103.19074,113.930808 L104.110999,113.930808 L104.110999,105.87494 L110.198543,113.930808 Z" id="Fill-16" fill-rule="nonzero"></path>
                        <path d="M118.974728,106.027793 L120,106.027793 L120,110 L119.265198,110 L119.265198,106.986183 L117.979383,109.41666 L117.36746,109.41666 L116.081645,106.986183 L116.081645,110 L115.347195,110 L115.347195,106.027793 L116.357327,106.027793 L117.65793,108.62471 L118.974728,106.027793 Z M114.643025,106.66672 L113.188913,106.66672 L113.188913,110 L112.454112,110 L112.454112,106.66672 L111,106.66672 L111,106 L114.643025,106 L114.643025,106.66672 Z" id="Fill-17" fill-rule="nonzero"></path>
                    </g>
                </g>
            </g>
        </g>
    </g>
</svg>