<?xml version="1.0" encoding="UTF-8"?>
<svg width="501px" height="106px" viewBox="0 0 501 106" version="1.1" xmlns="http://www.w3.org/2000/svg" xmlns:xlink="http://www.w3.org/1999/xlink">
    <!-- Generator: Sketch 52.6 (67491) - http://www.bohemiancoding.com/sketch -->
    <title>Group 5</title>
    <desc>Created with Sketch.</desc>
    <g id="Healing-Hands" stroke="none" stroke-width="1" fill="none" fill-rule="evenodd">
        <g id="HH---Final" transform="translate(-80.000000, -1146.000000)">
            <g id="Group-18" transform="translate(0.000000, 50.000000)">
                <g id="Group-5" transform="translate(80.000000, 1096.000000)">
                    <g id="Group-15" fill="#FFFFFF">
                        <path d="M45,81.5139665 L45,97 L2.27973568,97 L2.27973568,81.5139665 L16.2555066,81.5139665 L16.2555066,36.8840782 C15.7268696,37.7444177 14.834808,38.6943617 13.5792952,39.7339385 C12.3237823,40.7735154 10.9030916,41.7772298 9.31718062,42.7451117 C7.7312696,43.7129937 6.11234306,44.5195498 4.46035242,45.1648045 C2.80836178,45.8100591 1.32159251,46.1326816 0,46.1326816 L0,30.3240223 C1.78414989,30.3240223 3.61783199,29.8042417 5.50110132,28.7646648 C7.38437065,27.7250879 9.1189348,26.5779858 10.7048458,25.323324 C12.2907568,24.0686623 13.5958099,22.9036367 14.6200441,21.8282123 C15.6442782,20.7527879 16.189427,20.1433899 16.2555066,20 L32.4118943,20 L32.4118943,81.5139665 L45,81.5139665 Z M83.4499205,98 C78.2416274,98 73.6844392,96.7879751 69.7782194,94.3638889 C65.8719995,91.9398027 62.6001722,88.8562687 59.9626391,85.1131944 C57.325106,81.3701202 55.3386394,77.2349763 54.0031797,72.7076389 C52.6677199,68.1803014 52,63.7777992 52,59.5 C52,54.9370142 52.7344919,50.356273 54.2034976,45.7576389 C55.6725034,41.1590048 57.759128,37.023861 60.463434,33.3520833 C63.1677401,29.6803057 66.4562604,26.7037151 70.3290938,24.4222222 C74.2019272,22.1407293 78.5754923,21 83.4499205,21 C88.6582136,21 93.2320948,22.2298488 97.1717011,24.6895833 C101.111307,27.1493179 104.399828,30.2684996 107.037361,34.0472222 C109.674894,37.8259448 111.661361,41.9789125 112.99682,46.50625 C114.33228,51.0335875 115,55.3647941 115,59.5 C115,64.1342824 114.265508,68.7328476 112.796502,73.2958333 C111.327497,77.8588191 109.240872,81.976139 106.536566,85.6479167 C103.83226,89.3196943 100.527047,92.2962849 96.6208267,94.5777778 C92.7146069,96.8592707 88.3243487,98 83.4499205,98 Z M68,60 C68,62.722755 68.3030273,65.4454693 68.9090909,68.1682243 C69.5151545,70.8909793 70.4242364,73.3450046 71.6363636,75.5303738 C72.8484909,77.715743 74.397297,79.5070024 76.2828283,80.9042056 C78.1683596,82.3014089 80.3905596,83 82.9494949,83 C85.6431111,83 87.9494854,82.2476711 89.8686869,80.7429907 C91.7878884,79.2383102 93.3535293,77.3574879 94.5656566,75.1004673 C95.7777838,72.8434467 96.653196,70.3715088 97.1919192,67.6845794 C97.7306424,64.9976501 98,62.4361493 98,60 C98,57.3488964 97.6969727,54.6440948 97.0909091,51.885514 C96.4848455,49.1269332 95.5589288,46.6549954 94.3131313,44.4696262 C93.0673338,42.284257 91.5016929,40.4929976 89.6161616,39.0957944 C87.7306303,37.6985911 85.5084303,37 82.9494949,37 C80.2558788,37 77.9663394,37.7523289 76.0808081,39.2570093 C74.1952768,40.7616898 72.6464707,42.6425121 71.4343434,44.8995327 C70.2222162,47.1565533 69.346804,49.6284912 68.8080808,52.3154206 C68.2693576,55.0023499 68,57.5638507 68,60 Z M153.449921,98 C148.241627,98 143.684439,96.7879751 139.778219,94.3638889 C135.872,91.9398027 132.600172,88.8562687 129.962639,85.1131944 C127.325106,81.3701202 125.338639,77.2349763 124.00318,72.7076389 C122.66772,68.1803014 122,63.7777992 122,59.5 C122,54.9370142 122.734492,50.356273 124.203498,45.7576389 C125.672503,41.1590048 127.759128,37.023861 130.463434,33.3520833 C133.16774,29.6803057 136.45626,26.7037151 140.329094,24.4222222 C144.201927,22.1407293 148.575492,21 153.449921,21 C158.658214,21 163.232095,22.2298488 167.171701,24.6895833 C171.111307,27.1493179 174.399828,30.2684996 177.037361,34.0472222 C179.674894,37.8259448 181.661361,41.9789125 182.99682,46.50625 C184.33228,51.0335875 185,55.3647941 185,59.5 C185,64.1342824 184.265508,68.7328476 182.796502,73.2958333 C181.327497,77.8588191 179.240872,81.976139 176.536566,85.6479167 C173.83226,89.3196943 170.527047,92.2962849 166.620827,94.5777778 C162.714607,96.8592707 158.324349,98 153.449921,98 Z M139,60 C139,62.722755 139.303027,65.4454693 139.909091,68.1682243 C140.515155,70.8909793 141.424236,73.3450046 142.636364,75.5303738 C143.848491,77.715743 145.397297,79.5070024 147.282828,80.9042056 C149.16836,82.3014089 151.39056,83 153.949495,83 C156.643111,83 158.949485,82.2476711 160.868687,80.7429907 C162.787888,79.2383102 164.353529,77.3574879 165.565657,75.1004673 C166.777784,72.8434467 167.653196,70.3715088 168.191919,67.6845794 C168.730642,64.9976501 169,62.4361493 169,60 C169,57.3488964 168.696973,54.6440948 168.090909,51.885514 C167.484845,49.1269332 166.558929,46.6549954 165.313131,44.4696262 C164.067334,42.284257 162.501693,40.4929976 160.616162,39.0957944 C158.73063,37.6985911 156.50843,37 153.949495,37 C151.255879,37 148.966339,37.7523289 147.080808,39.2570093 C145.195277,40.7616898 143.646471,42.6425121 142.434343,44.8995327 C141.222216,47.1565533 140.346804,49.6284912 139.808081,52.3154206 C139.269358,55.0023499 139,57.5638507 139,60 Z M210,53 C207.614023,53 205.393772,52.5728198 203.339181,51.7184466 C201.28459,50.8640734 199.495134,49.6893279 197.97076,48.1941748 C196.446386,46.6990217 195.236847,44.9369033 194.342105,42.907767 C193.447364,40.8786306 193,38.7249305 193,36.4466019 C193,34.1682734 193.447364,32.0323724 194.342105,30.038835 C195.236847,28.0452975 196.446386,26.3009783 197.97076,24.8058252 C199.495134,23.3106721 201.28459,22.1359266 203.339181,21.2815534 C205.393772,20.4271802 207.614023,20 210,20 C212.385977,20 214.606228,20.4271802 216.660819,21.2815534 C218.71541,22.1359266 220.521435,23.3106721 222.078947,24.8058252 C223.63646,26.3009783 224.846,28.0452975 225.707602,30.038835 C226.569205,32.0323724 227,34.1682734 227,36.4466019 C227,38.7249305 226.569205,40.8786306 225.707602,42.907767 C224.846,44.9369033 223.63646,46.6990217 222.078947,48.1941748 C220.521435,49.6893279 218.71541,50.8640734 216.660819,51.7184466 C214.606228,52.5728198 212.385977,53 210,53 Z M210,45 C211.666675,45 213.083327,44.2156941 214.25,42.6470588 C215.416673,41.0784235 216,39.1786604 216,36.9477124 C216,34.7167644 215.416673,32.8344303 214.25,31.3006536 C213.083327,29.7668769 211.666675,29 210,29 C208.333325,29 206.916673,29.7843059 205.75,31.3529412 C204.583327,32.9215765 204,34.7864816 204,36.9477124 C204,39.1786604 204.583327,41.0784235 205.75,42.6470588 C206.916673,44.2156941 208.333325,45 210,45 Z M250,98 C247.614023,98 245.393772,97.5728198 243.339181,96.7184466 C241.28459,95.8640734 239.495134,94.6893279 237.97076,93.1941748 C236.446386,91.6990217 235.236847,89.9547025 234.342105,87.961165 C233.447364,85.9676276 233,83.8317266 233,81.5533981 C233,79.2750695 233.447364,77.1213694 234.342105,75.092233 C235.236847,73.0630967 236.446386,71.3009783 237.97076,69.8058252 C239.495134,68.3106721 241.28459,67.1359266 243.339181,66.2815534 C245.393772,65.4271802 247.614023,65 250,65 C252.385977,65 254.606228,65.4271802 256.660819,66.2815534 C258.71541,67.1359266 260.521435,68.3106721 262.078947,69.8058252 C263.63646,71.3009783 264.846,73.0630967 265.707602,75.092233 C266.569205,77.1213694 267,79.2750695 267,81.5533981 C267,83.8317266 266.569205,85.9676276 265.707602,87.961165 C264.846,89.9547025 263.63646,91.6990217 262.078947,93.1941748 C260.521435,94.6893279 258.71541,95.8640734 256.660819,96.7184466 C254.606228,97.5728198 252.385977,98 250,98 Z M249.950413,89 C251.603314,89 253.024787,88.2156941 254.214876,86.6470588 C255.404965,85.0784235 256,83.2135184 256,81.0522876 C256,78.8213396 255.404965,76.9215765 254.214876,75.3529412 C253.024787,73.7843059 251.603314,73 249.950413,73 C248.297512,73 246.892568,73.7843059 245.735537,75.3529412 C244.578507,76.9215765 244,78.8213396 244,81.0522876 C244,83.2832356 244.578507,85.1655697 245.735537,86.6993464 C246.892568,88.2331231 248.297512,89 249.950413,89 Z M200,91.0357143 L228.2,56.3214286 L253.8,20 L261,26.8571429 L233.7,60.7142857 L207.1,98 L200,91.0357143 Z" id="100%"></path>
                        <g id="Group-14" transform="translate(302.000000, 0.000000)">
                            <g id="Group-3" opacity="0.8">
                                <path d="M8.97718565,25.0081521 C10.4283466,24.9279897 11.728345,25.4390268 12.8771808,26.5412634 C14.0260166,27.6435 14.6004345,29.2968553 14.6004345,31.5013295 C15.6081855,31.1005157 16.3740754,31.2608414 16.8981061,31.9823056 C17.4221367,32.7037697 17.6841516,33.9462916 17.6841516,35.7098703 L17.6841516,35.9503584 C18.732212,36.0706024 19.6391876,36.0906428 20.4050785,36.0104804 C21.0500392,35.930318 21.4934492,35.930318 21.7353094,36.0104804 C21.9771695,36.0906428 22.3802701,36.3712125 22.9446102,36.8521886 C23.9120508,37.5335711 24.2143761,38.0145472 23.8515858,38.2951169 C23.650036,38.4153609 22.0779449,38.836215 19.1353126,39.5576792 C19.0950023,39.5977608 19.0345372,39.6178012 18.9539175,39.6178012 L17.4422914,39.9785332 C16.9585711,44.6680502 15.8399678,48.6361031 14.0864816,51.8826918 C12.3329954,55.1292805 10.2267968,56.8327372 7.76788482,56.9930628 C5.59114334,57.1133069 3.6461842,55.6703786 1.93300834,52.6642779 C0.219832476,49.6581773 -0.354585416,45.2091484 0.209754662,39.3171911 C0.572544909,35.6697887 1.64076095,32.393139 3.41440185,29.487242 C5.18804275,26.5813451 7.04230433,25.0883145 8.97718565,25.0081521 Z M8.13067507,51.2814716 C9.58183606,51.2013093 10.3678816,47.3334592 10.4888117,39.6779232 C9.15858077,39.1167847 8.49346532,38.1949132 8.49346532,36.9123106 C8.49346532,35.749952 9.60199077,34.4473081 11.8190426,33.0043798 C11.7787323,31.9622652 11.6074149,31.120557 11.3050897,30.4792552 C11.0027645,29.8379535 10.529122,29.6776287 9.88416127,29.9982791 C8.23145045,30.7999057 7.12292408,34.1667384 6.558584,40.0987773 C6.2764135,42.7441458 6.17563904,44.8985176 6.25625879,46.5618936 C6.33687854,48.2252696 6.53842929,49.4377296 6.8609092,50.1992754 C7.18338912,50.9608212 7.60664441,51.3215533 8.13067507,51.2814716 Z" id="Combined-Shape"></path>
                                <path d="M36.0559886,29.6666667 C38.0427317,31.2402235 36.8935369,32.5918681 32.608405,33.7216015 L29.9204585,34.3268156 L28.1674499,34.5689013 C29.8815024,40.2175664 30.91383,46.057883 31.2644318,52.089851 C31.6150335,58.1218191 31.2254757,63.1148358 30.0957594,67.0689013 C28.966043,71.0229668 27.2909456,73 25.070468,73 C22.3825215,73 20.5223849,69.9134078 19.4900573,63.7402235 C18.4577297,57.5670391 18.3506017,49.1949103 19.1686724,38.6238361 L19.5192741,34.2662942 C18.506425,33.4593423 18,32.3497824 18,30.9376164 C18,30.2517073 18.2532121,29.5153631 18.7596371,28.7285847 C19.2660621,27.9418063 19.8114422,27.3870264 20.3957784,27.0642458 C21.2138491,21.0524522 22.2072206,16.3721288 23.375893,13.0232775 C24.5445654,9.67442613 25.6158482,8 26.5897421,8 C27.1351223,8 27.9337154,8.31269429 28.9855206,8.93808194 C30.0373257,9.56346959 30.5437507,10.3401617 30.5047947,11.2681564 C30.193149,15.7467412 29.0829102,20.9314094 27.1740783,26.8221601 L26.8819102,29.1824953 L26.8819102,29.3035382 L26.8234766,29.424581 C27.953193,29.3438861 29.433512,29.1421474 31.2644318,28.8193669 C33.2122188,28.5772812 34.2737632,28.4764119 34.449064,28.5167598 C34.6243649,28.5571077 35.1600067,28.9404097 36.0559886,29.6666667 Z M24.6029991,66.1005587 C25.9274948,66.1005587 26.6481758,63.0543144 26.765043,56.961825 C26.8819102,50.8693355 26.511831,45.2004969 25.6548042,39.9553073 C25.3042025,43.1427688 25.0120344,46.1688395 24.7782999,49.0335196 C24.5445654,51.8981996 24.3400478,54.6720984 24.1647469,57.3552142 C23.9894461,60.0383299 23.9407517,62.1666667 24.0186629,63.7402235 C24.0965741,65.3137803 24.2913534,66.1005587 24.6029991,66.1005587 Z" id="Combined-Shape"></path>
                                <path d="M70.9489913,8.26364573 C70.7874638,10.7751456 70.1817367,13.7626159 69.1318102,17.2260556 C68.0818836,20.6894954 67.0420519,23.7073467 66.0123159,26.2796087 C64.9825799,28.8518706 63.6802668,31.9608651 62.1053765,35.6065911 L61.378504,37.2471679 C61.378504,37.5307246 61.3684083,37.9358047 61.3482177,38.4624099 C61.3280271,38.9890151 61.3179313,39.3940951 61.3179313,39.6776519 C60.914113,49.1160313 61.7419402,53.8352214 63.8014122,53.8352214 C65.2551571,53.8352214 66.7694747,49.946447 68.344365,42.168898 C68.5462737,41.2372128 68.9702826,40.7713697 69.6163918,40.7713697 C70.4644097,40.7713697 70.7874638,41.4600066 70.5855551,42.8372812 C70.1817367,45.2677652 69.7678236,47.3539303 69.3438146,49.0957775 C68.9198057,50.8376248 68.394842,52.5085825 67.7689243,54.1086509 C67.1430067,55.7087192 66.3858479,56.9239612 65.4974479,57.7543769 C64.6090479,58.5847926 63.5995035,59 62.4688127,59 C60.9343045,59 59.5512271,58.189839 58.3195825,56.569516 C57.0879378,54.949193 56.1490609,52.6199794 55.5029517,49.5818744 C54.2511155,54.604875 52.3733617,57.1163749 49.8696902,57.1163749 C48.6582361,57.1163749 47.5275454,56.3264676 46.4776188,54.7466529 C45.4276922,53.1668383 44.6806283,50.9794027 44.2364287,48.184346 C43.7922292,45.3892894 43.9739473,42.0676276 44.7815831,38.2193615 C45.6296009,34.3710954 47.0631552,31.3431168 49.0822451,29.1354274 C51.1013349,26.927738 53.3223344,25.7023687 55.7452425,25.4593203 C56.7951691,17.7222797 58.3397731,11.5447992 60.3790544,6.92687951 C62.4183358,2.30895984 64.8109576,2.27373675e-13 67.5569199,2.27373675e-13 C68.7683739,2.27373675e-13 69.6769645,0.840542087 70.2826915,2.52162719 C70.8884186,4.20271229 71.1105188,6.11671847 70.9489913,8.26364573 Z M54.7760793,36.2142122 C54.8972247,33.2976313 55.0991334,30.7253693 55.3818063,28.4974253 C53.6857706,30.1987642 52.2522163,33.5001713 51.0811443,38.4016478 C50.6369448,40.2245108 50.3138897,42.1283897 50.111981,44.1132853 C49.9100723,46.0981809 49.8898808,47.8096461 50.0514083,49.2476828 C50.2129359,50.6857195 50.5965627,51.4047374 51.2022897,51.4047374 C52.6156525,51.4047374 53.7867254,46.6045314 54.7155066,37.0041195 C54.7155066,36.9231036 54.7256023,36.8015794 54.7457929,36.6395469 C54.7659835,36.4775143 54.7760793,36.3357364 54.7760793,36.2142122 Z M66.8300474,4.31410917 C65.8608841,4.31410917 64.9421978,6.35976687 64.0739894,10.4510814 C63.2057809,14.5423958 62.4890033,20.3553038 61.9236584,27.8898043 C65.3157298,18.5324408 67.1531015,11.8081013 67.4357744,7.71678682 C67.5569199,5.44833536 67.3550111,4.31410917 66.8300474,4.31410917 Z" id="Combined-Shape"></path>
                                <path d="M76.9771856,25.0081521 C78.4283466,24.9279897 79.728345,25.4390268 80.8771808,26.5412634 C82.0260166,27.6435 82.6004345,29.2968553 82.6004345,31.5013295 C83.6081855,31.1005157 84.3740754,31.2608414 84.8981061,31.9823056 C85.4221367,32.7037697 85.6841516,33.9462916 85.6841516,35.7098703 L85.6841516,35.9503584 C86.732212,36.0706024 87.6391876,36.0906428 88.4050785,36.0104804 C89.0500392,35.930318 89.4934492,35.930318 89.7353094,36.0104804 C89.9771695,36.0906428 90.3802701,36.3712125 90.9446102,36.8521886 C91.9120508,37.5335711 92.2143761,38.0145472 91.8515858,38.2951169 C91.650036,38.4153609 90.0779449,38.836215 87.1353126,39.5576792 C87.0950023,39.5977608 87.0345372,39.6178012 86.9539175,39.6178012 L85.4422914,39.9785332 C84.9585711,44.6680502 83.8399678,48.6361031 82.0864816,51.8826918 C80.3329954,55.1292805 78.2267968,56.8327372 75.7678848,56.9930628 C73.5911433,57.1133069 71.6461842,55.6703786 69.9330083,52.6642779 C68.2198325,49.6581773 67.6454146,45.2091484 68.2097547,39.3171911 C68.5725449,35.6697887 69.6407609,32.393139 71.4144019,29.487242 C73.1880428,26.5813451 75.0423043,25.0883145 76.9771856,25.0081521 Z M76.1306751,51.2814716 C77.5818361,51.2013093 78.3678816,47.3334592 78.4888117,39.6779232 C77.1585808,39.1167847 76.4934653,38.1949132 76.4934653,36.9123106 C76.4934653,35.749952 77.6019908,34.4473081 79.8190426,33.0043798 C79.7787323,31.9622652 79.6074149,31.120557 79.3050897,30.4792552 C79.0027645,29.8379535 78.529122,29.6776287 77.8841613,29.9982791 C76.2314504,30.7999057 75.1229241,34.1667384 74.558584,40.0987773 C74.2764135,42.7441458 74.175639,44.8985176 74.2562588,46.5618936 C74.3368785,48.2252696 74.5384293,49.4377296 74.8609092,50.1992754 C75.1833891,50.9608212 75.6066444,51.3215533 76.1306751,51.2814716 Z" id="Combined-Shape"></path>
                                <path d="M102.075297,42.321972 C101.872743,43.7279364 101.7107,44.8928792 101.589168,45.8167985 C101.467635,46.7407179 101.396741,47.6043825 101.376486,48.4077906 C101.356231,49.2111987 101.406869,49.803713 101.528401,50.1853317 C101.649934,50.5669504 101.872743,50.7577602 102.196829,50.7577602 C102.845002,50.7577602 103.483047,49.5225198 104.110964,47.052039 C104.738881,44.5815581 105.255394,41.7997562 105.660502,38.7066342 C105.782034,37.8630554 106.146631,37.4010953 106.754293,37.3207547 C107.442976,37.2002435 107.848084,37.5617772 107.969617,38.4053561 C108.010128,38.6463786 108.010128,38.9476567 107.969617,39.3091905 C106.349185,50.4363971 103.77675,56 100.252312,56 C98.6318798,56 97.4570672,54.8852708 96.7278731,52.6558125 C95.9986789,50.4263542 95.7151031,47.7248938 95.8771465,44.5514303 C96.03919,41.3779668 96.4848083,38.0639072 97.2140025,34.6092514 C95.7556142,37.5416923 94.5099074,40.7352407 93.4768823,44.1898965 C92.4438573,47.6445523 91.7349182,50.3460137 91.350066,52.2942788 C90.9652138,54.2425438 90.7525322,55.2166768 90.7120211,55.2166768 C90.1853805,55.2166768 89.1017173,54.9354836 87.4610304,54.373098 C85.8203435,53.8107124 85,53.2884967 85,52.8064516 C85,51.5611683 85.3645971,46.3189285 86.0937913,37.0797322 C86.8229855,27.9208764 87.3901362,23.2811929 87.7952444,23.1606817 C88.3623951,22.9196592 89.5169525,22.949787 91.2589167,23.2510651 C93.0008809,23.5523433 93.9933949,23.9640898 94.2364596,24.4863055 C94.3174809,24.7273281 94.0744162,26.7659766 93.5072654,30.602252 C92.9401147,34.4385274 92.2919418,38.2245892 91.5627476,41.9604382 C93.2236896,36.4169203 94.7833553,31.9479607 96.2417436,28.5535606 C97.700132,25.1591604 98.7534121,23.4619598 99.4015851,23.4619598 C100.535887,23.4619598 101.720828,23.7833229 102.956407,24.4260499 C104.191985,25.0687769 104.809775,25.6512474 104.809775,26.1734632 C104.809775,26.534997 104.718626,27.1978089 104.536327,28.161899 C104.354029,29.125989 104.029943,30.9336579 103.564069,33.5849057 C103.098194,36.2361534 102.601938,39.1485085 102.075297,42.321972 Z" id="Path"></path>
                                <path d="M118.784617,29.1 C118.906779,29.5371792 119.171462,29.7557692 119.578669,29.7557692 C121.288934,29.7557692 122.144067,30.2326923 122.144067,31.1865385 C122.144067,33.3724362 121.838662,36.7506407 121.227853,41.3211538 C120.820647,44.2224362 120.617044,46.3387824 120.617044,47.6701923 C120.617044,49.0016023 120.922449,49.6673077 121.533258,49.6673077 C122.754876,49.6673077 123.793252,46.2891023 124.648385,39.5326923 C124.770546,38.6980769 125.137032,38.2410253 125.747841,38.1615385 C126.440091,38.0423077 126.847297,38.4 126.969459,39.2346154 C127.01018,39.4730769 127.01018,39.7711538 126.969459,40.1288462 C126.725136,41.8378208 126.419731,43.4474362 126.053246,44.9576923 C125.68676,46.4679484 125.208293,48.0179484 124.617844,49.6076923 C124.027395,51.1974362 123.284244,52.4692308 122.388391,53.4230769 C121.492537,54.3769231 120.494882,54.8538462 119.395426,54.8538462 C117.929484,54.8538462 116.809667,53.7410253 116.035976,51.5153846 C114.732916,55.1717946 113.022651,57 110.905179,57 C109.724281,57 108.645185,56.44359 107.66789,55.3307692 C106.690596,54.2179484 105.927084,52.3897439 105.377356,49.8461538 C104.827628,47.3025638 104.878528,43.9641023 105.530058,39.8307692 C106.100146,36.29359 107.270864,33.104167 109.042211,30.2625 C110.813557,27.420833 112.737606,26 114.814357,26 C116.728226,26 117.929484,26.8147439 118.418131,28.4442308 C118.621734,28.7621792 118.743896,28.9807692 118.784617,29.1 Z M115.303005,31.0076923 C114.040665,31.0076923 112.920849,33.8891023 111.943554,39.6519231 C110.559053,47.48141 110.660855,51.3961538 112.248959,51.3961538 C113.592739,51.3961538 114.875438,45.1762824 116.097056,32.7365385 C116.097056,32.6173077 116.107237,32.458333 116.127597,32.2596154 C116.147957,32.0608977 116.158137,31.9217946 116.158137,31.8423077 C116.035976,31.2858977 115.750931,31.0076923 115.303005,31.0076923 Z" id="Combined-Shape"></path>
                                <path d="M121.179571,26.3526012 C120.976057,25.9075148 120.94553,25.6040466 121.08799,25.4421965 C121.230449,25.2803465 121.332206,25.199422 121.393261,25.199422 C121.454315,25.199422 121.668004,25.2398847 122.03433,25.3208092 C122.400655,25.4017338 122.726277,25.4624274 123.011197,25.5028902 L124.964931,25.6849711 C125.534769,21.6791908 126.216541,18.583815 127.010246,16.3988439 C127.80395,14.2138728 128.628182,13.0809245 129.482941,13 C129.971374,13 130.897363,13.515896 132.260906,14.5476879 C133.624449,15.5794798 134.326572,16.560694 134.367276,17.4913295 C134.367276,17.572254 134.275694,17.9364159 134.092532,18.583815 C133.909369,19.2312142 133.634625,20.2528902 133.2683,21.6488439 C132.901975,23.0447977 132.576353,24.511561 132.291433,26.0491329 L132.596704,26.0491329 C133.817788,26.0491329 135.099926,25.9884393 136.443118,25.867052 C137.419985,25.8265893 137.908418,25.9075148 137.908418,26.1098266 C137.949122,26.1502893 137.949122,26.2514448 137.908418,26.4132948 C137.78631,27.1820812 137.440336,28.1531795 136.870497,29.3265896 C136.300659,30.4999997 135.832576,31.1069361 135.466251,31.1473988 C135.018521,31.2283234 133.695679,31.1878616 131.497729,31.0260116 C131.334917,32.2398844 131.233161,33.1705199 131.192458,33.8179191 C130.581916,39.4421968 130.327523,43.4985549 130.42928,45.9869942 C130.531038,48.4754335 131.029646,49.7196532 131.925108,49.7196532 C132.617055,49.7196532 133.329354,48.6878613 134.062005,46.6242775 C134.794655,44.5606936 135.323791,42.1531789 135.649414,39.4017341 C135.771522,38.5520231 136.137847,38.0867049 136.748389,38.0057803 C137.440336,37.8843931 137.847364,38.2485549 137.969473,39.0982659 C138.010176,39.3410405 138.010176,39.6445087 137.969473,40.0086705 C136.422767,50.0028905 133.899193,55 130.398753,55 C127.956586,55 126.165663,53.6242771 125.025985,50.8728324 C123.886306,48.1213876 123.458927,44.2572254 123.743847,39.2803468 C123.906658,36.4075148 124.130523,33.3323699 124.415443,30.0549133 C122.705926,29.2052023 121.627301,27.9710986 121.179571,26.3526012 Z" id="Path"></path>
                                <path d="M135.113858,33.0831224 C135.430031,31.5176311 135.86477,30.5642874 136.418073,30.2230903 C136.971376,29.8818931 137.919896,29.9320697 139.263633,30.3736183 C140.212153,30.6144631 140.903783,30.9656948 141.338521,31.4273143 C141.773259,31.8889338 141.911585,32.5412215 141.753498,33.3841784 C141.279238,36.1538937 140.903783,38.4619895 140.627131,40.3084666 C140.350479,42.1549438 140.162752,43.830822 140.063947,45.336102 C139.965143,46.8413821 140.004665,47.9552893 140.182512,48.6778238 C140.36036,49.4003582 140.666653,49.7616254 141.101391,49.7616254 C141.773259,49.7616254 142.464888,48.738035 143.176278,46.6908541 C143.887668,44.6436732 144.40145,42.2552952 144.717623,39.525721 C144.836188,38.6827642 145.191883,38.2211447 145.784708,38.1408634 C146.456577,38.020441 146.851794,38.3817082 146.970359,39.224665 C147.00988,39.4655098 147.00988,39.7665658 146.970359,40.127833 C145.468535,50.0426113 143.018191,55 139.619328,55 C137.129463,55 135.439912,53.063206 134.550675,49.189619 C133.661437,45.3160319 133.849165,39.9471994 135.113858,33.0831224 Z" id="Path"></path>
                                <path d="M145.73749,19.3144165 C145.422478,20.2576926 144.674323,21.3090522 143.493027,22.4684961 C142.311731,23.6279399 141.327317,24.1290554 140.539787,23.9718424 C139.673503,23.8146294 139.004102,22.9794376 138.531583,21.4662652 C138.059065,19.9530927 137.901558,18.6266106 138.059065,17.4868189 C138.216571,16.5042393 138.767843,15.8066083 139.71288,15.393925 C140.657916,14.9812417 141.76046,14.8928095 143.020509,15.1286286 C144.241182,15.3251441 145.097621,15.786957 145.589828,16.5140654 C146.082034,17.2411738 146.131255,18.1746247 145.73749,19.3144165 Z" id="Path"></path>
                                <path d="M152.977186,25.0081521 C154.428347,24.9279897 155.728345,25.4390268 156.877181,26.5412634 C158.026017,27.6435 158.600434,29.2968553 158.600434,31.5013295 C159.608185,31.1005157 160.374075,31.2608414 160.898106,31.9823056 C161.422137,32.7037697 161.684152,33.9462916 161.684152,35.7098703 L161.684152,35.9503584 C162.732212,36.0706024 163.639188,36.0906428 164.405078,36.0104804 C165.050039,35.930318 165.493449,35.930318 165.735309,36.0104804 C165.97717,36.0906428 166.38027,36.3712125 166.94461,36.8521886 C167.912051,37.5335711 168.214376,38.0145472 167.851586,38.2951169 C167.650036,38.4153609 166.077945,38.836215 163.135313,39.5576792 C163.095002,39.5977608 163.034537,39.6178012 162.953917,39.6178012 L161.442291,39.9785332 C160.958571,44.6680502 159.839968,48.6361031 158.086482,51.8826918 C156.332995,55.1292805 154.226797,56.8327372 151.767885,56.9930628 C149.591143,57.1133069 147.646184,55.6703786 145.933008,52.6642779 C144.219832,49.6581773 143.645415,45.2091484 144.209755,39.3171911 C144.572545,35.6697887 145.640761,32.393139 147.414402,29.487242 C149.188043,26.5813451 151.042304,25.0883145 152.977186,25.0081521 Z M152.130675,51.2814716 C153.581836,51.2013093 154.367882,47.3334592 154.488812,39.6779232 C153.158581,39.1167847 152.493465,38.1949132 152.493465,36.9123106 C152.493465,35.749952 153.601991,34.4473081 155.819043,33.0043798 C155.778732,31.9622652 155.607415,31.120557 155.30509,30.4792552 C155.002765,29.8379535 154.529122,29.6776287 153.884161,29.9982791 C152.23145,30.7999057 151.122924,34.1667384 150.558584,40.0987773 C150.276413,42.7441458 150.175639,44.8985176 150.256259,46.5618936 C150.336879,48.2252696 150.538429,49.4377296 150.860909,50.1992754 C151.183389,50.9608212 151.606644,51.3215533 152.130675,51.2814716 Z" id="Combined-Shape"></path>
                                <path d="M179.075297,42.321972 C178.872743,43.7279364 178.7107,44.8928792 178.589168,45.8167985 C178.467635,46.7407179 178.396741,47.6043825 178.376486,48.4077906 C178.356231,49.2111987 178.406869,49.803713 178.528401,50.1853317 C178.649934,50.5669504 178.872743,50.7577602 179.196829,50.7577602 C179.845002,50.7577602 180.483047,49.5225198 181.110964,47.052039 C181.738881,44.5815581 182.255394,41.7997562 182.660502,38.7066342 C182.782034,37.8630554 183.146631,37.4010953 183.754293,37.3207547 C184.442976,37.2002435 184.848084,37.5617772 184.969617,38.4053561 C185.010128,38.6463786 185.010128,38.9476567 184.969617,39.3091905 C183.349185,50.4363971 180.77675,56 177.252312,56 C175.63188,56 174.457067,54.8852708 173.727873,52.6558125 C172.998679,50.4263542 172.715103,47.7248938 172.877147,44.5514303 C173.03919,41.3779668 173.484808,38.0639072 174.214003,34.6092514 C172.755614,37.5416923 171.509907,40.7352407 170.476882,44.1898965 C169.443857,47.6445523 168.734918,50.3460137 168.350066,52.2942788 C167.965214,54.2425438 167.752532,55.2166768 167.712021,55.2166768 C167.185381,55.2166768 166.101717,54.9354836 164.46103,54.373098 C162.820343,53.8107124 162,53.2884967 162,52.8064516 C162,51.5611683 162.364597,46.3189285 163.093791,37.0797322 C163.822985,27.9208764 164.390136,23.2811929 164.795244,23.1606817 C165.362395,22.9196592 166.516953,22.949787 168.258917,23.2510651 C170.000881,23.5523433 170.993395,23.9640898 171.23646,24.4863055 C171.317481,24.7273281 171.074416,26.7659766 170.507265,30.602252 C169.940115,34.4385274 169.291942,38.2245892 168.562748,41.9604382 C170.22369,36.4169203 171.783355,31.9479607 173.241744,28.5535606 C174.700132,25.1591604 175.753412,23.4619598 176.401585,23.4619598 C177.535887,23.4619598 178.720828,23.7833229 179.956407,24.4260499 C181.191985,25.0687769 181.809775,25.6512474 181.809775,26.1734632 C181.809775,26.534997 181.718626,27.1978089 181.536327,28.161899 C181.354029,29.125989 181.029943,30.9336579 180.564069,33.5849057 C180.098194,36.2361534 179.601938,39.1485085 179.075297,42.321972 Z" id="Path"></path>
                                <path d="M187.932567,21.622975 C187.932567,23.4344624 188.116768,25.0346097 188.485171,26.4234168 C188.853574,27.8122239 189.20151,28.7984778 189.528979,29.3821797 C189.856448,29.9658815 190.449986,30.9018167 191.309592,32.1899853 C192.906004,30.257732 194.625217,28.8487976 196.467231,27.9631811 C197.654306,27.4398622 198.452512,27.621011 198.861849,28.5066274 C199.107451,29.1507121 199.025584,29.6136472 198.616247,29.8954345 C196.364897,30.9420714 194.461482,32.5522828 192.906004,34.7260677 C193.765611,36.2960236 194.48195,37.9666179 195.05502,39.7378498 C196.078362,43.1998033 196.40583,46.3598432 196.037428,49.2179676 C195.669025,52.076092 194.788952,54.4209625 193.397208,56.2525773 C192.005464,58.0841921 190.409052,59 188.607972,59 C186.806892,59 185.568649,57.9734904 184.893244,55.9204713 C184.217839,53.8674521 184.105272,51.3213055 184.555542,48.2820324 C185.005811,45.2427593 185.885885,42.193422 187.195761,39.1340206 C186.909226,38.4094256 186.397555,37.2822776 185.66075,35.7525773 L185.046745,40.0397644 C184.964878,40.3618063 184.842077,41.0562098 184.678342,42.122975 C184.514608,43.1897401 184.412274,43.8036325 184.37134,43.9646539 C184.125738,45.0515464 183.634535,45.5547371 182.897729,45.4742268 C182.11999,45.3132054 181.853921,44.5483557 182.099523,43.179676 C182.304191,42.3343152 182.50886,41.0864013 182.713528,39.4359352 C183.000064,37.0608741 183.266132,34.3637703 183.511734,31.3446244 C181.587853,27.1580759 180.76918,24.2395677 181.055715,22.5891016 C181.260383,21.5022091 181.853921,20.4656354 182.836329,19.4793814 C183.818736,18.4931275 184.698809,18 185.476548,18 C187.113894,18 187.932567,19.2076583 187.932567,21.622975 Z M188.546572,54.65243 C189.078709,54.8134515 189.467578,54.4310257 189.71318,53.5051546 C190.286251,51.3313697 189.999716,48.0304366 188.853574,43.6023564 C188.403304,45.3735883 188.096302,47.1146297 187.932567,48.8254786 C187.768832,50.5363276 187.748366,51.9050074 187.871166,52.9315169 C187.993967,53.9580265 188.219103,54.5316642 188.546572,54.65243 Z" id="Combined-Shape"></path>
                            </g>
                            <text id="go-directly-to-aid" font-family="Raleway-ExtraBold, Raleway" font-size="24" font-weight="600">
                                <tspan x="1" y="100">go directly to aid</tspan>
                            </text>
                        </g>
                    </g>
                    <g id="Group-4" transform="translate(282.000000, 0.000000)"></g>
                </g>
            </g>
        </g>
    </g>
</svg>