<?xml version="1.0" encoding="UTF-8"?>
<svg width="322px" height="241px" viewBox="0 0 322 241" version="1.1" xmlns="http://www.w3.org/2000/svg" xmlns:xlink="http://www.w3.org/1999/xlink">
    <!-- Generator: Sketch 54.1 (76490) - https://sketchapp.com -->
    <title>Group</title>
    <desc>Created with Sketch.</desc>
    <defs>
        <polygon id="path-1" points="0 0.120582685 84.9066288 0.120582685 84.9066288 144.275899 0 144.275899"></polygon>
        <polygon id="path-3" points="70.5252442 0.00775308155 67.1039702 0.00775308155 67.1039702 9.71932764 70.5252442 9.71932764 70.5252442 0.00775308155"></polygon>
        <polygon id="path-5" points="63.8640777 138 67.8834951 138 67.8834951 128.174757 63.8640777 128.174757 63.8640777 138"></polygon>
    </defs>
    <g id="Product-Detail" stroke="none" stroke-width="1" fill="none" fill-rule="evenodd">
        <g id="Product-Detail-/-Single-Oils-/-What's-in-your-bottle-/-Error-7" transform="translate(-878.000000, -146.000000)">
            <g id="Group" transform="translate(880.000000, 146.000000)">
                <g id="Group-16">
                    <g id="bottle" transform="translate(235.000000, 0.000000)">
                        <path d="M18.6665152,67.5327174 L18.6665152,70.9019772 L15.2903409,71.1155625 C8.73761364,71.5299051 3.60477273,77.0638807 3.60477273,83.7138875 L3.60477273,86.3833829 L11.9264015,86.3833829 L11.9264015,77.0439974 C11.9264015,75.0614385 13.5401136,73.4534555 15.5311742,73.4534555 C17.5215909,73.4534555 19.135303,75.0614385 19.135303,77.0439974 L19.135303,86.3833829 L81.3025,86.3833829 L81.3025,83.7138875 C81.3025,77.3159498 76.3892424,71.7922366 70.1179167,71.1380114 L66.8885606,70.8012779 L66.8885606,62.9775141 L18.6665152,62.9775141 L18.6665152,67.5327174" id="Fill-1" fill="#C7BDD2"></path>
                        <polygon id="Fill-2" fill="#B6A7C5" points="3.60477273 131.834717 11.9264015 131.834717 11.9264015 86.3833829 3.60477273 86.3833829"></polygon>
                        <path d="M19.135303,197.210415 C19.135303,199.192974 17.5215909,200.800957 15.5311742,200.800957 C13.5401136,200.800957 11.9264015,199.192974 11.9264015,197.210415 L11.9264015,131.834717 L3.60477273,131.834717 L3.60477273,190.234579 C3.60477273,191.557781 3.74450758,192.840576 4.00594697,194.065003 C5.38204545,199.525859 10.2585985,203.581414 16.0630682,203.581414 L68.8435606,203.581414 C74.6486742,203.581414 79.5245833,199.525859 80.9013258,194.065003 C81.1627652,192.840576 81.3025,191.557781 81.3025,190.234579 L81.3025,131.834717 L19.135303,131.834717 L19.135303,197.210415" id="Fill-3" fill="#9F8AB4"></path>
                        <path d="M19.135303,77.0439974 C19.135303,75.0614385 17.5215909,73.4534555 15.5311742,73.4534555 C13.5401136,73.4534555 11.9264015,75.0614385 11.9264015,77.0439974 L11.9264015,86.3833829 L19.135303,86.3833829 L19.135303,77.0439974" id="Fill-4" fill="#E7E2EA"></path>
                        <polygon id="Fill-5" fill="#DBD4E1" points="11.9264015 131.834717 19.135303 131.834717 19.135303 86.3833829 11.9264015 86.3833829"></polygon>
                        <path d="M11.9264015,197.210415 C11.9264015,199.192974 13.5401136,200.800957 15.5311742,200.800957 C17.5215909,200.800957 19.135303,199.192974 19.135303,197.210415 L19.135303,131.834717 L11.9264015,131.834717 L11.9264015,197.210415" id="Fill-6" fill="#C7BDD2"></path>
                        <g id="Group-10" transform="translate(0.000000, 62.856931)">
                            <mask id="mask-2" fill="white">
                                <use xlink:href="#path-1"></use>
                            </mask>
                            <g id="Clip-8"></g>
                            <polyline id="Fill-7" fill="#B6A7C5" mask="url(#mask-2)" points="19.135303 33.7875248 19.135303 68.9777855 81.3025 68.9777855 81.3025 23.5264515 19.135303 23.5264515 19.135303 33.7875248"></polyline>
                            <path d="M70.4933333,4.58983879 L70.4933333,0 L66.8885606,0 L66.8885606,7.82376377 L70.1179167,8.16049733 C76.3892424,8.81472253 81.3025,14.3384357 81.3025,20.7363734 L81.3025,127.961319 C81.3025,129.041432 81.15375,130.084985 80.9013258,131.087489 C79.5245833,136.548345 74.6486742,140.6039 68.8435606,140.6039 L16.0630682,140.6039 C10.2585985,140.6039 5.38204545,136.548345 4.00594697,131.087489 C3.75352273,130.084985 3.60477273,129.041432 3.60477273,127.961319 L3.60477273,20.7363734 C3.60477273,14.0863666 8.73761364,8.55239105 15.2903409,8.13804843 L18.6665152,7.92446314 L18.6665152,0 L15.0617424,0 L15.0617424,4.55520334 C6.69117424,5.08435607 0,12.1499883 0,20.7363734 L0,127.961319 C0,136.889569 7.22886364,144.193801 16.0630682,144.193801 L68.8435606,144.193801 C77.6784091,144.193801 84.9066288,136.889569 84.9066288,127.961319 L84.9066288,20.7363734 C84.9066288,12.3706289 78.5606061,5.43135199 70.4933333,4.58983879" id="Fill-9" fill="#354657" mask="url(#mask-2)"></path>
                        </g>
                        <polygon id="Fill-11" fill="#454543" points="14.269053 50.7274678 72.3227652 50.7274678 72.3227652 48.6121397 14.269053 48.6121397"></polygon>
                        <path d="M17.3155303,60.3323918 L17.3155303,53.6086243 C17.3155303,52.7812219 17.9581818,52.1096789 18.7508712,52.1096789 L29.0822348,52.1096789 C29.8749242,52.1096789 30.5175758,52.7812219 30.5175758,53.6086243 L30.5175758,60.3323918 C30.5175758,61.1604357 29.8749242,61.8319786 29.0822348,61.8319786 L18.7508712,61.8319786 C17.9581818,61.8319786 17.3155303,61.1604357 17.3155303,60.3323918 Z M49.3038636,53.6086243 C49.3038636,52.7812219 49.7243561,52.1096789 50.2420833,52.1096789 L56.9976515,52.1096789 C57.5153788,52.1096789 57.9358712,52.7812219 57.9358712,53.6086243 L57.9358712,60.3323918 C57.9358712,61.1604357 57.5153788,61.8319786 56.9976515,61.8319786 L50.2420833,61.8319786 C49.7243561,61.8319786 49.3038636,61.1604357 49.3038636,60.3323918 L49.3038636,53.6086243 Z M66.8885606,62.9775141 L75.2475379,62.9775141 C75.8135606,62.9775141 76.2726894,62.5201978 76.2726894,61.9564097 L76.2726894,51.7485723 C76.2726894,51.1847841 75.8135606,50.7281092 75.2475379,50.7281092 L11.4943182,50.7281092 C10.9282955,50.7281092 10.4698106,51.1847841 10.4698106,51.7485723 L10.4698106,61.9564097 C10.4698106,62.5201978 10.9282955,62.9775141 11.4943182,62.9775141 L66.8885606,62.9775141 L66.8885606,62.9775141 Z" id="Fill-12" fill="#2D2D2B"></path>
                        <path d="M70.7985606,39.7364844 C69.9575758,39.7364844 69.2756439,39.023892 69.2756439,38.1458192 L69.2756439,8.45040889 C69.2756439,7.57169465 69.9575758,6.85974369 70.7985606,6.85974369 C71.6401894,6.85974369 72.3227652,7.57169465 72.3227652,8.45040889 L72.3227652,38.1458192 C72.3227652,39.023892 71.6401894,39.7364844 70.7985606,39.7364844 Z M65.4461364,38.1458192 C65.4461364,39.023892 64.7642045,39.7364844 63.9232197,39.7364844 C63.0815909,39.7364844 62.3996591,39.023892 62.3996591,38.1458192 L62.3996591,8.45040889 C62.3996591,7.57169465 63.0815909,6.85974369 63.9232197,6.85974369 C64.7642045,6.85974369 65.4461364,7.57169465 65.4461364,8.45040889 L65.4461364,38.1458192 Z M58.5701515,38.1458192 C58.5701515,39.023892 57.8882197,39.7364844 57.0472348,39.7364844 C56.2056061,39.7364844 55.5236742,39.023892 55.5236742,38.1458192 L55.5236742,8.45040889 C55.5236742,7.57169465 56.2056061,6.85974369 57.0472348,6.85974369 C57.8882197,6.85974369 58.5701515,7.57169465 58.5701515,8.45040889 L58.5701515,38.1458192 Z M57.9358712,46.3832842 C57.9358712,46.9105127 57.5153788,47.3370419 56.9976515,47.3370419 L50.2420833,47.3370419 C49.7243561,47.3370419 49.3038636,46.9105127 49.3038636,46.3832842 L49.3038636,42.1045231 C49.3038636,41.5779359 49.7243561,41.1507654 50.2420833,41.1507654 L56.9976515,41.1507654 C57.5153788,41.1507654 57.9358712,41.5779359 57.9358712,42.1045231 L57.9358712,46.3832842 Z M48.6483333,38.1458192 L48.6483333,8.45040889 C48.6483333,7.57169465 49.3296212,6.85974369 50.17125,6.85974369 C51.0135227,6.85974369 51.6948106,7.57169465 51.6948106,8.45040889 L51.6948106,38.1458192 C51.6948106,39.023892 51.0135227,39.7364844 50.17125,39.7364844 C49.3296212,39.7364844 48.6483333,39.023892 48.6483333,38.1458192 Z M44.8194697,38.1458192 C44.8194697,39.023892 44.1368939,39.7364844 43.2952652,39.7364844 C42.4542803,39.7364844 41.7723485,39.023892 41.7723485,38.1458192 L41.7723485,8.45040889 C41.7723485,7.57169465 42.4542803,6.85974369 43.2952652,6.85974369 C44.1368939,6.85974369 44.8194697,7.57169465 44.8194697,8.45040889 L44.8194697,38.1458192 Z M37.9428409,38.1458192 C37.9428409,39.023892 37.2609091,39.7364844 36.4199242,39.7364844 C35.5782955,39.7364844 34.8963636,39.023892 34.8963636,38.1458192 L34.8963636,8.45040889 C34.8963636,7.57169465 35.5782955,6.85974369 36.4199242,6.85974369 C37.2609091,6.85974369 37.9428409,7.57169465 37.9428409,8.45040889 L37.9428409,38.1458192 Z M31.0668561,38.1458192 C31.0668561,39.023892 30.3855682,39.7364844 29.5439394,39.7364844 C28.7023106,39.7364844 28.0203788,39.023892 28.0203788,38.1458192 L28.0203788,8.45040889 C28.0203788,7.57169465 28.7023106,6.85974369 29.5439394,6.85974369 C30.3855682,6.85974369 31.0668561,7.57169465 31.0668561,8.45040889 L31.0668561,38.1458192 Z M30.5175758,46.3832842 C30.5175758,46.9105127 29.8749242,47.3370419 29.0822348,47.3370419 L18.7508712,47.3370419 C17.9581818,47.3370419 17.3155303,46.9105127 17.3155303,46.3832842 L17.3155303,42.1045231 C17.3155303,41.5779359 17.9581818,41.1507654 18.7508712,41.1507654 L29.0822348,41.1507654 C29.8749242,41.1507654 30.5175758,41.5779359 30.5175758,42.1045231 L30.5175758,46.3832842 Z M17.3155303,38.1458192 C17.3155303,39.023892 16.6335985,39.7364844 15.7919697,39.7364844 C14.9509848,39.7364844 14.269053,39.023892 14.269053,38.1458192 L14.269053,8.45040889 C14.269053,7.57169465 14.9509848,6.85974369 15.7919697,6.85974369 C16.6335985,6.85974369 17.3155303,7.57169465 17.3155303,8.45040889 L17.3155303,38.1458192 Z M24.1915152,8.45040889 L24.1915152,38.1458192 C24.1915152,39.023892 23.5095833,39.7364844 22.6685985,39.7364844 C21.8269697,39.7364844 21.1450379,39.023892 21.1450379,38.1458192 L21.1450379,8.45040889 C21.1450379,7.57169465 21.8269697,6.85974369 22.6685985,6.85974369 C23.5095833,6.85974369 24.1915152,7.57169465 24.1915152,8.45040889 Z M19.1771591,2.74069049 C19.1771591,2.47771761 19.7296591,2.26413233 20.410303,2.26413233 L29.2844318,2.26413233 C29.9650758,2.26413233 30.5175758,2.47771761 30.5175758,2.74069049 L30.5175758,4.88039175 C30.5175758,5.14336462 29.9650758,5.35694991 29.2844318,5.35694991 L20.410303,5.35694991 C19.7296591,5.35694991 19.1771591,5.14336462 19.1771591,4.88039175 L19.1771591,2.74069049 Z M49.3038636,2.74069049 C49.3038636,2.47771761 49.7243561,2.26413233 50.2420833,2.26413233 L56.9976515,2.26413233 C57.5153788,2.26413233 57.9358712,2.47771761 57.9358712,2.74069049 L57.9358712,4.88039175 C57.9358712,5.14336462 57.5153788,5.35694991 56.9976515,5.35694991 L50.2420833,5.35694991 C49.7243561,5.35694991 49.3038636,5.14336462 49.3038636,4.88039175 L49.3038636,2.74069049 Z M74.6570455,48.6121397 C75.5489015,48.6121397 76.2726894,47.8565737 76.2726894,46.9246235 L76.2726894,41.6767111 C76.2726894,40.7447609 75.5489015,39.9891949 74.6570455,39.9891949 L74.0568939,39.9891949 L74.0568939,8.57291577 C74.0568939,6.88539958 72.6898106,5.51729922 71.0039773,5.51729922 L70.6588258,5.51729922 L70.6588258,1.82413381 C70.6588258,1.13527315 70.0998864,0.576616136 69.4115152,0.576616136 L18.0071212,0.576616136 C17.3181061,0.576616136 16.7598106,1.13527315 16.7598106,1.82413381 L16.7598106,5.51729922 L15.5453409,5.51729922 C13.8588636,5.51729922 12.4917803,6.88539958 12.4917803,8.57291577 L12.4917803,39.9891949 L12.0860985,39.9891949 C11.1929545,39.9891949 10.4698106,40.7447609 10.4698106,41.6767111 L10.4698106,46.9246235 C10.4698106,47.8565737 11.1929545,48.6121397 12.0860985,48.6121397 L74.6570455,48.6121397 L74.6570455,48.6121397 Z" id="Fill-13" fill="#2D2D2B"></path>
                        <path d="M15.7919697,6.85974369 C14.9509848,6.85974369 14.269053,7.57169465 14.269053,8.45040889 L14.269053,38.1458192 C14.269053,39.023892 14.9509848,39.7364844 15.7919697,39.7364844 C16.6335985,39.7364844 17.3155303,39.023892 17.3155303,38.1458192 L17.3155303,8.45040889 C17.3155303,7.57169465 16.6335985,6.85974369 15.7919697,6.85974369" id="Fill-14" fill="#454543"></path>
                        <path d="M21.1450379,8.45040889 L21.1450379,38.1458192 C21.1450379,39.023892 21.8269697,39.7364844 22.6685985,39.7364844 C23.5095833,39.7364844 24.1915152,39.023892 24.1915152,38.1458192 L24.1915152,8.45040889 C24.1915152,7.57169465 23.5095833,6.85974369 22.6685985,6.85974369 C21.8269697,6.85974369 21.1450379,7.57169465 21.1450379,8.45040889" id="Fill-15" fill="#454543"></path>
                        <path d="M29.5439394,6.85974369 C28.7023106,6.85974369 28.0203788,7.57169465 28.0203788,8.45040889 L28.0203788,38.1458192 C28.0203788,39.023892 28.7023106,39.7364844 29.5439394,39.7364844 C30.3855682,39.7364844 31.0668561,39.023892 31.0668561,38.1458192 L31.0668561,8.45040889 C31.0668561,7.57169465 30.3855682,6.85974369 29.5439394,6.85974369" id="Fill-16" fill="#454543"></path>
                        <path d="M36.4199242,6.85974369 C35.5782955,6.85974369 34.8963636,7.57169465 34.8963636,8.45040889 L34.8963636,38.1458192 C34.8963636,39.023892 35.5782955,39.7364844 36.4199242,39.7364844 C37.2609091,39.7364844 37.9428409,39.023892 37.9428409,38.1458192 L37.9428409,8.45040889 C37.9428409,7.57169465 37.2609091,6.85974369 36.4199242,6.85974369" id="Fill-17" fill="#454543"></path>
                        <path d="M43.2952652,6.85974369 C42.4542803,6.85974369 41.7723485,7.57169465 41.7723485,8.45040889 L41.7723485,38.1458192 C41.7723485,39.023892 42.4542803,39.7364844 43.2952652,39.7364844 C44.1368939,39.7364844 44.8194697,39.023892 44.8194697,38.1458192 L44.8194697,8.45040889 C44.8194697,7.57169465 44.1368939,6.85974369 43.2952652,6.85974369" id="Fill-18" fill="#454543"></path>
                        <path d="M51.6948106,38.1458192 L51.6948106,8.45040889 C51.6948106,7.57169465 51.0135227,6.85974369 50.17125,6.85974369 C49.3296212,6.85974369 48.6483333,7.57169465 48.6483333,8.45040889 L48.6483333,38.1458192 C48.6483333,39.023892 49.3296212,39.7364844 50.17125,39.7364844 C51.0135227,39.7364844 51.6948106,39.023892 51.6948106,38.1458192" id="Fill-19" fill="#8F8F8B"></path>
                        <path d="M57.0472348,6.85974369 C56.2056061,6.85974369 55.5236742,7.57169465 55.5236742,8.45040889 L55.5236742,38.1458192 C55.5236742,39.023892 56.2056061,39.7364844 57.0472348,39.7364844 C57.8882197,39.7364844 58.5701515,39.023892 58.5701515,38.1458192 L58.5701515,8.45040889 C58.5701515,7.57169465 57.8882197,6.85974369 57.0472348,6.85974369" id="Fill-20" fill="#8F8F8B"></path>
                        <path d="M63.9232197,6.85974369 C63.0815909,6.85974369 62.3996591,7.57169465 62.3996591,8.45040889 L62.3996591,38.1458192 C62.3996591,39.023892 63.0815909,39.7364844 63.9232197,39.7364844 C64.7642045,39.7364844 65.4461364,39.023892 65.4461364,38.1458192 L65.4461364,8.45040889 C65.4461364,7.57169465 64.7642045,6.85974369 63.9232197,6.85974369" id="Fill-21" fill="#454543"></path>
                        <path d="M72.3227652,21.6343296 L72.3227652,8.45040889 C72.3227652,7.57169465 71.6401894,6.85974369 70.7985606,6.85974369 C69.9575758,6.85974369 69.2756439,7.57169465 69.2756439,8.45040889 L69.2756439,38.1458192 C69.2756439,39.023892 69.9575758,39.7364844 70.7985606,39.7364844 C71.6401894,39.7364844 72.3227652,39.023892 72.3227652,38.1458192 L72.3227652,21.6343296" id="Fill-22" fill="#454543"></path>
                        <path d="M29.0822348,61.8319786 C29.8749242,61.8319786 30.5175758,61.1604357 30.5175758,60.3323918 L30.5175758,53.6086243 C30.5175758,52.7812219 29.8749242,52.1096789 29.0822348,52.1096789 L18.7508712,52.1096789 C17.9581818,52.1096789 17.3155303,52.7812219 17.3155303,53.6086243 L17.3155303,60.3323918 C17.3155303,61.1604357 17.9581818,61.8319786 18.7508712,61.8319786 L29.0822348,61.8319786" id="Fill-23" fill="#454543"></path>
                        <path d="M29.0822348,41.1507654 L18.7508712,41.1507654 C17.9581818,41.1507654 17.3155303,41.5779359 17.3155303,42.1045231 L17.3155303,46.3832842 C17.3155303,46.9105127 17.9581818,47.3370419 18.7508712,47.3370419 L29.0822348,47.3370419 C29.8749242,47.3370419 30.5175758,46.9105127 30.5175758,46.3832842 L30.5175758,42.1045231 C30.5175758,41.5779359 29.8749242,41.1507654 29.0822348,41.1507654" id="Fill-24" fill="#454543"></path>
                        <path d="M20.410303,5.35694991 L29.2844318,5.35694991 C29.9650758,5.35694991 30.5175758,5.14336462 30.5175758,4.88039175 L30.5175758,2.74069049 C30.5175758,2.47771761 29.9650758,2.26413233 29.2844318,2.26413233 L20.410303,2.26413233 C19.7296591,2.26413233 19.1771591,2.47771761 19.1771591,2.74069049 L19.1771591,4.88039175 C19.1771591,5.14336462 19.7296591,5.35694991 20.410303,5.35694991" id="Fill-25" fill="#454543"></path>
                        <path d="M50.2420833,61.8319786 L56.9976515,61.8319786 C57.5153788,61.8319786 57.9358712,61.1604357 57.9358712,60.3323918 L57.9358712,53.6086243 C57.9358712,52.7812219 57.5153788,52.1096789 56.9976515,52.1096789 L50.2420833,52.1096789 C49.7243561,52.1096789 49.3038636,52.7812219 49.3038636,53.6086243 L49.3038636,60.3323918 C49.3038636,61.1604357 49.7243561,61.8319786 50.2420833,61.8319786" id="Fill-26" fill="#8F8F8B"></path>
                        <path d="M56.9976515,41.1507654 L50.2420833,41.1507654 C49.7243561,41.1507654 49.3038636,41.5779359 49.3038636,42.1045231 L49.3038636,46.3832842 C49.3038636,46.9105127 49.7243561,47.3370419 50.2420833,47.3370419 L56.9976515,47.3370419 C57.5153788,47.3370419 57.9358712,46.9105127 57.9358712,46.3832842 L57.9358712,42.1045231 C57.9358712,41.5779359 57.5153788,41.1507654 56.9976515,41.1507654" id="Fill-27" fill="#8F8F8B"></path>
                        <path d="M50.2420833,5.35694991 L56.9976515,5.35694991 C57.5153788,5.35694991 57.9358712,5.14336462 57.9358712,4.88039175 L57.9358712,2.74069049 C57.9358712,2.47771761 57.5153788,2.26413233 56.9976515,2.26413233 L50.2420833,2.26413233 C49.7243561,2.26413233 49.3038636,2.47771761 49.3038636,2.74069049 L49.3038636,4.88039175 C49.3038636,5.14336462 49.7243561,5.35694991 50.2420833,5.35694991" id="Fill-28" fill="#8F8F8B"></path>
                    </g>
                    <circle id="Oval-4" stroke="#354657" stroke-width="3" fill="#9F8AB4" cx="80.5" cy="103.5" r="80.5"></circle>
                    <g id="Page-1" transform="translate(11.000000, 34.000000)">
                        <path d="M23.223301,30.7471039 L15.9502502,24.5631068 C15.2300333,25.4341646 14.5212083,26.334728 13.8446602,27.2404228 L21.4126328,33.0485437 C21.9948819,32.2704928 22.603712,31.4956491 23.223301,30.7471039" id="Fill-1" fill="#B6A7C5"></path>
                        <path d="M16.5242718,40.728495 L8.23355454,36.1747573 C7.70106541,37.1607554 7.18431177,38.1765745 6.69902913,39.1936627 L15.2062668,43.3203883 C15.6235721,42.446695 16.0666837,41.5742707 16.5242718,40.728495" id="Fill-3" fill="#B6A7C5"></path>
                        <path d="M19.6504854,35.1357827 L11.6868338,29.9223301 C11.0455263,30.825477 10.4189984,31.7563846 9.82524272,32.6891429 L18.049787,37.5145631 C18.5600056,36.7132053 19.0991409,35.9124644 19.6504854,35.1357827" id="Fill-5" fill="#B6A7C5"></path>
                        <path d="M27.6893204,26.4858913 L20.7665816,19.6504854 C19.9288021,20.441343 19.1029061,21.2602407 18.3106796,22.0848739 L25.5740758,28.5825243 C26.2560507,27.8719632 26.9677341,27.1665004 27.6893204,26.4858913" id="Fill-7" fill="#B6A7C5"></path>
                        <path d="M14.3959869,92 L5.3592233,95.6607914 C5.80864104,96.6785478 6.29207583,97.7006884 6.79579004,98.6990291 L15.631068,94.6110932 C15.1980046,93.7530462 14.7826039,92.874331 14.3959869,92" id="Fill-9" fill="#B6A7C5"></path>
                        <path d="M41.9805825,16.0265204 L37.4616781,7.59223301 C36.4291239,8.10395781 35.3952543,8.64794215 34.3883495,9.20963761 L39.3373753,17.4174757 C40.2028793,16.9348478 41.0920598,16.4667682 41.9805825,16.0265204" id="Fill-11" fill="#B6A7C5"></path>
                        <path d="M36.6213592,19.3139005 L31.3976207,11.1650485 C30.4490139,11.7866535 29.5023273,12.4425761 28.5825243,13.1133915 L34.1999154,20.9902913 C34.9910612,20.4133642 35.8058902,19.8493872 36.6213592,19.3139005" id="Fill-13" fill="#B6A7C5"></path>
                        <path d="M12.5048544,51.5789018 L3.1685894,48.6796117 C2.83133799,49.7926967 2.51622277,50.9321269 2.23300971,52.0656295 L11.7014408,54.4854369 C11.9449389,53.5119815 12.2151307,52.5339156 12.5048544,51.5789018" id="Fill-15" fill="#B6A7C5"></path>
                        <path d="M9.91043602,75.0291262 L0.446601942,76.0130194 C0.558828837,77.1746056 0.700222043,78.3460637 0.866977259,79.4951456 L10.2718447,78.0248999 C10.1285493,77.037058 10.0068117,76.0294724 9.91043602,75.0291262" id="Fill-17" fill="#B6A7C5"></path>
                        <path d="M9.74855409,68.776699 L0,68.788731 C0.00129980721,69.9745448 0.0311953731,71.1723905 0.0883868904,72.3495146 L9.82524272,71.8468472 C9.77585004,70.8328226 9.7498539,69.7994133 9.74855409,68.776699" id="Fill-19" fill="#B6A7C5"></path>
                        <path d="M10.944673,80.8349515 L1.33980583,82.7822102 C1.56844648,83.9197503 1.82975008,85.0677806 2.11587753,86.1941748 L11.6116505,83.7637073 C11.3653718,82.7966344 11.141304,81.8112034 10.944673,80.8349515" id="Fill-21" fill="#B6A7C5"></path>
                        <path d="M46.8932039,14.0207413 L43.351847,4.91262136 C42.2947833,5.33490396 41.2325693,5.79177848 40.1941748,6.26888602 L44.182949,15.184466 C45.0739211,14.7745843 45.9861376,14.3829776 46.8932039,14.0207413" id="Fill-23" fill="#B6A7C5"></path>
                        <path d="M14.7378641,46.0297322 L5.73510501,42.4271845 C5.2864647,43.4411753 4.85931223,44.4793235 4.46601942,45.5112775 L13.6471928,48.6796117 C13.9857892,47.792602 14.352385,46.9012563 14.7378641,46.0297322" id="Fill-25" fill="#B6A7C5"></path>
                        <path d="M9.82524272,63.0498948 L0.247635892,62.0776699 C0.137290365,63.2463375 0.0545312198,64.437646 0,65.6189658 L9.61160865,66.0970874 C9.65844134,65.0802467 9.73093579,64.0554151 9.82524272,63.0498948" id="Fill-27" fill="#B6A7C5"></path>
                        <path d="M10.7184466,57.3148342 L1.46860692,55.3786408 C1.25039397,56.5209883 1.05733524,57.6863936 0.893203883,58.8412582 L10.224166,60.2912621 C10.3650297,59.2984607 10.5310476,58.2970949 10.7184466,57.3148342" id="Fill-29" fill="#B6A7C5"></path>
                        <path d="M31.7087379,22.6729273 L25.7954293,15.184466 C24.9235428,15.8923242 24.0579651,16.6302359 23.223301,17.3777392 L29.493061,24.5631068 C30.2116418,23.918553 30.9573508,23.2829514 31.7087379,22.6729273" id="Fill-31" fill="#B6A7C5"></path>
                        <path d="M122.352639,43.7669903 L130.854369,39.3605732 C130.368052,38.2874138 129.850238,37.2156008 129.317305,36.1747573 L121.029126,41.0261922 C121.488356,41.9216138 121.933726,42.8432922 122.352639,43.7669903" id="Fill-33" fill="#B6A7C5"></path>
                        <path d="M119.508937,37.5145631 L127.728155,32.6753002 C127.135142,31.7510712 126.507397,30.8249937 125.862285,29.9223301 L117.902913,35.1454561 C118.458622,35.9224246 118.998894,36.71911 119.508937,37.5145631" id="Fill-35" fill="#B6A7C5"></path>
                        <path d="M124.80401,48.2330097 L133.980583,45.0403336 C133.583782,44.0146461 133.155056,42.9852492 132.706131,41.9805825 L123.708738,45.6017104 C124.094461,46.4654146 124.463244,47.3501395 124.80401,48.2330097" id="Fill-37" fill="#B6A7C5"></path>
                        <path d="M128.397825,66.0970874 L138,65.5901993 C137.942951,64.4257446 137.855134,63.2441072 137.741036,62.0776699 L128.174757,63.0722808 C128.273471,64.0768047 128.348468,65.0945461 128.397825,66.0970874" id="Fill-39" fill="#B6A7C5"></path>
                        <path d="M116.147791,33.0485437 L123.708738,27.2273777 C123.027024,26.3222046 122.317432,25.4266406 121.598971,24.5631068 L114.330097,30.7539012 C114.948455,31.4970015 115.560477,32.268929 116.147791,33.0485437" id="Fill-41" fill="#B6A7C5"></path>
                        <path d="M126.308274,54.4854369 L135.76699,52.0423624 C135.479889,50.9148904 135.16219,49.7828299 134.821705,48.6796117 L125.495146,51.5913736 C125.786804,52.5405477 126.060885,53.5139756 126.308274,54.4854369" id="Fill-43" fill="#B6A7C5"></path>
                        <path d="M127.338439,60.2912621 L136.660194,58.818065 C136.492993,57.6709355 136.29625,56.5133299 136.074363,55.3786408 L126.834951,57.3350466 C127.025409,58.3106304 127.194496,59.3052022 127.338439,60.2912621" id="Fill-45" fill="#B6A7C5"></path>
                        <path d="M64.7572816,9.97992373 L63.9736111,0.446601942 C62.7470869,0.531373741 61.5080685,0.645465109 60.2912621,0.78632652 L61.5885873,10.2718447 C62.6353323,10.1513795 63.7015129,10.0532227 64.7572816,9.97992373" id="Fill-47" fill="#B6A7C5"></path>
                        <path d="M93.3897148,15.184466 L97.3592233,6.26393959 C96.3146158,5.78849992 95.2448604,5.33393004 94.1802635,4.91262136 L90.6601942,14.0242367 C91.5739033,14.3855448 92.4914814,14.776201 93.3897148,15.184466" id="Fill-49" fill="#B6A7C5"></path>
                        <path d="M52.6990291,12.0707523 L50.1227416,2.67961165 C49.0466511,2.99182577 47.9604326,3.33721265 46.8932039,3.70796692 L49.9296783,12.9514563 C50.8456213,12.6340386 51.7773892,12.3374352 52.6990291,12.0707523" id="Fill-51" fill="#B6A7C5"></path>
                        <path d="M112.431913,29.0291262 L119.68932,22.1981501 C118.889479,21.3293243 118.059891,20.4725283 117.224353,19.6504854 L110.31068,26.8363435 C111.029215,27.5427657 111.742463,28.2805993 112.431913,29.0291262" id="Fill-53" fill="#B6A7C5"></path>
                        <path d="M58.5048544,10.5689527 L56.8710741,0.893203883 C55.7768737,1.09495939 54.6738996,1.32815732 53.592233,1.58690221 L55.6903905,11.1650485 C56.6191448,10.9429865 57.566073,10.7425411 58.5048544,10.5689527" id="Fill-55" fill="#B6A7C5"></path>
                        <path d="M108.065503,24.5631068 L114.330097,17.3745192 C113.493176,16.6276778 112.623409,15.8910584 111.745431,15.184466 L105.84466,22.6822677 C106.599469,23.2891961 107.346066,23.9223182 108.065503,24.5631068" id="Fill-57" fill="#B6A7C5"></path>
                        <path d="M98.6735378,17.4174757 L103.61165,9.20638906 C102.600055,8.64642733 101.559482,8.10289788 100.518909,7.59223301 L96.0194175,16.0321077 C96.9124664,16.4700913 97.8055153,16.9365154 98.6735378,17.4174757" id="Fill-59" fill="#B6A7C5"></path>
                        <path d="M103.811311,20.9902913 L109.417476,13.108233 C108.494009,12.4387271 107.542346,11.7853927 106.590682,11.1650485 L101.378641,19.3181435 C102.197008,19.8511608 103.016015,20.4139339 103.811311,20.9902913" id="Fill-61" fill="#B6A7C5"></path>
                        <path d="M12.4465761,86.6407767 L3.12621359,89.3512631 C3.46635382,90.3871217 3.8396626,91.4284869 4.23508374,92.4466019 L13.3980583,89.2980324 C13.0585684,88.4243135 12.7385894,87.5304036 12.4465761,86.6407767" id="Fill-63" fill="#B6A7C5"></path>
                        <path d="M103.61165,116.962852 L109.327304,124.601942 C110.263826,123.953062 111.195783,123.273432 112.097087,122.581251 L105.995347,115.223301 C105.21926,115.819467 104.417085,116.404338 103.61165,116.962852" id="Fill-65" fill="#B6A7C5"></path>
                        <path d="M16.8520515,97.3592233 L8.48543689,101.984162 C9.02376283,102.98248 9.59513828,103.980155 10.1836741,104.951456 L18.3106796,99.9077641 C17.8054032,99.073474 17.3147449,98.216027 16.8520515,97.3592233" id="Fill-67" fill="#B6A7C5"></path>
                        <path d="M108.07767,113.686539 L114.485184,121.029126 C115.338745,120.26732 116.188431,119.470915 117.009709,118.660802 L110.247728,111.650485 C109.541378,112.347013 108.811138,113.032443 108.07767,113.686539" id="Fill-69" fill="#B6A7C5"></path>
                        <path d="M82.1747573,126.678478 L84.2738179,136.213592 C85.3586478,135.958019 86.4554542,135.669846 87.5339806,135.356247 L84.9741352,125.941748 C84.0481531,126.211013 83.1064124,126.458763 82.1747573,126.678478" id="Fill-71" fill="#B6A7C5"></path>
                        <path d="M112.543689,109.437605 L119.644181,116.116505 C120.424227,115.264214 121.191359,114.384429 121.92233,113.501371 L114.508012,107.184466 C113.87713,107.944458 113.216544,108.702487 112.543689,109.437605" id="Fill-73" fill="#B6A7C5"></path>
                        <path d="M93.3398058,123.171115 L97.3636983,131.747573 C98.4136074,131.289476 99.4635166,130.801257 100.485437,130.29484 L96.0241365,121.92233 C95.1454153,122.357209 94.2426106,122.777654 93.3398058,123.171115" id="Fill-75" fill="#B6A7C5"></path>
                        <path d="M87.5339806,125.175562 L90.5858289,134.427184 C91.6575824,134.058915 92.7338042,133.659415 93.7864078,133.237792 L90.2832612,124.15534 C89.3800265,124.516452 88.4544502,124.860647 87.5339806,125.175562" id="Fill-77" fill="#B6A7C5"></path>
                        <path d="M87.4163045,2.67961165 L84.8543689,12.0778519 C85.786733,12.3439012 86.7235459,12.6379214 87.640021,12.9514563 L90.6601942,3.69632327 C89.5930918,3.33139991 88.5018381,2.98989408 87.4163045,2.67961165" id="Fill-79" fill="#B6A7C5"></path>
                        <path d="M116.116505,104.612368 L123.553063,110.31068 C124.220343,109.424108 124.873306,108.509262 125.495146,107.590645 L117.787816,102.271845 C117.251876,103.062282 116.689793,103.849578 116.116505,104.612368" id="Fill-81" fill="#B6A7C5"></path>
                        <path d="M128.247575,68.776699 L128.247575,68.9153803 C128.247575,69.8964693 128.222869,70.8930391 128.174757,71.8779984 L137.915479,72.3495146 C137.971393,71.2084583 138,70.0532114 138,68.9153803 L138,68.776699 L128.247575,68.776699 Z" id="Fill-83" fill="#B6A7C5"></path>
                        <path d="M126.38835,83.772016 L135.887895,86.1941748 C136.171463,85.071759 136.430857,83.921759 136.660194,82.7770131 L127.052187,80.8349515 C126.854865,81.819446 126.631408,82.8078812 126.38835,83.772016" id="Fill-85" fill="#B6A7C5"></path>
                        <path d="M127.728155,78.0330952 L137.137354,79.4951456 C137.303518,78.3367265 137.443045,77.1611455 137.553398,76.0014062 L128.085852,75.0291262 C127.991988,76.0258287 127.871488,77.0363927 127.728155,78.0330952" id="Fill-87" fill="#B6A7C5"></path>
                        <path d="M124.601942,88.8602273 L133.766568,92 C134.162514,90.9754426 134.534404,89.9312999 134.873786,88.8957257 L125.553123,86.1941748 C125.262502,87.082859 124.941974,87.9801117 124.601942,88.8602273" id="Fill-89" fill="#B6A7C5"></path>
                        <path d="M119.68932,99.9161197 L127.816153,104.951456 C128.40812,103.972042 128.979126,102.972048 129.514563,101.979129 L121.150817,97.3592233 C120.690963,98.2125939 120.199351,99.0723953 119.68932,99.9161197" id="Fill-91" fill="#B6A7C5"></path>
                        <path d="M122.368932,94.6189105 L131.201202,98.6990291 C131.704595,97.6990246 132.18903,96.6733629 132.640777,95.6502043 L123.605842,92 C123.218817,92.8786022 122.802374,93.7597076 122.368932,94.6189105" id="Fill-93" fill="#B6A7C5"></path>
                        <path d="M98.6990291,120.324601 L103.428039,128.621359 C104.391472,128.056484 105.354276,127.457743 106.291262,126.842387 L101.157359,118.796117 C100.353238,119.325207 99.5258187,119.838962 98.6990291,120.324601" id="Fill-95" fill="#B6A7C5"></path>
                        <path d="M36.8388292,118.796117 L31.7087379,126.839248 C32.645258,127.455003 33.6113591,128.054789 34.5780896,128.621359 L39.3009709,120.325282 C38.4714456,119.838555 37.6425498,119.324362 36.8388292,118.796117" id="Fill-97" fill="#B6A7C5"></path>
                        <path d="M41.9687122,121.92233 L37.5145631,130.292539 C38.5441948,130.801801 39.5978925,131.290993 40.6457362,131.747573 L44.6601942,123.172907 C43.7599982,122.781553 42.8545987,122.360722 41.9687122,121.92233" id="Fill-99" fill="#B6A7C5"></path>
                        <path d="M32.002126,115.223301 L25.9029126,122.579774 C26.8052441,123.273071 27.7375664,123.953192 28.6744526,124.601942 L34.3883495,116.963758 C33.5818581,116.405356 32.7792786,115.819975 32.002126,115.223301" id="Fill-101" fill="#B6A7C5"></path>
                        <path d="M43.7669903,133.238819 C44.8208706,133.659658 45.900284,134.059682 46.9752291,134.427184 L50.0194175,125.17589 C49.0951179,124.860423 48.1676266,124.517638 47.2624769,124.15534 L43.7669903,133.238819 Z" id="Fill-103" fill="#B6A7C5"></path>
                        <path d="M27.750806,111.650485 L20.9902913,118.66015 C21.8068721,119.46504 22.6557289,120.262097 23.5149139,121.029126 L29.9223301,113.687845 C29.1832115,113.027873 28.4524846,112.342443 27.750806,111.650485" id="Fill-105" fill="#B6A7C5"></path>
                        <path d="M19.7668949,102.271845 L12.0582524,107.594619 C12.6827895,108.515264 13.3353466,109.428997 13.9984891,110.31068 L21.4368932,104.609592 C20.8665284,103.85171 20.3042583,103.064919 19.7668949,102.271845" id="Fill-107" fill="#B6A7C5"></path>
                        <path d="M23.4946762,107.184466 L16.0776699,113.500909 C16.8127176,114.387829 17.580061,115.267549 18.3583848,116.116505 L25.4563107,109.434167 C24.787146,108.703685 24.127024,107.947021 23.4946762,107.184466" id="Fill-109" fill="#B6A7C5"></path>
                        <path d="M50.4660194,135.359507 C51.5422828,135.670498 52.6400082,135.957367 53.7295276,136.213592 L55.8252427,126.67587 C54.8878521,126.456155 53.9435178,126.209057 53.0181207,125.941748 L50.4660194,135.359507 Z" id="Fill-111" fill="#B6A7C5"></path>
                        <path d="M80.6636089,0.893203883 L79.0485437,10.577281 C79.9931331,10.7476484 80.9459145,10.9455367 81.8816819,11.1650485 L83.961165,1.57663932 C82.8722721,1.3210882 81.7632144,1.09109219 80.6636089,0.893203883" id="Fill-113" fill="#B6A7C5"></path>
                        <path d="M73.9976568,0.446601942 L73.2427184,9.98866337 C74.3066223,10.0588209 75.3810114,10.1538525 76.4330319,10.2718447 L77.7087379,0.775704522 C76.4833611,0.638578447 75.2349168,0.528239791 73.9976568,0.446601942" id="Fill-115" fill="#B6A7C5"></path>
                        <path d="M76.368932,127.710796 L77.5300595,137.106796 C78.6354479,136.967923 79.7477253,136.799382 80.8349515,136.607486 L79.2078699,127.281553 C78.2753355,127.446938 77.3202549,127.591492 76.368932,127.710796" id="Fill-117" fill="#B6A7C5"></path>
                        <path d="M70.5631068,128.321904 L70.8006677,138 C71.9138818,137.970958 73.0358712,137.913519 74.1359223,137.828975 L73.4382831,128.174757 C72.4911736,128.247685 71.5233793,128.297379 70.5631068,128.321904" id="Fill-119" fill="#B6A7C5"></path>
                        <path d="M57.1650485,136.611178 C58.2631883,136.803743 59.3782804,136.970422 60.4789316,137.106796 L61.631068,127.707722 C60.6861278,127.59092 59.7286303,127.44697 58.7849459,127.281553 L57.1650485,136.611178 Z" id="Fill-124" fill="#B6A7C5"></path>
                        <path d="M63.8640777,137.833438 C65.1184644,137.916719 66.3855932,137.97224 67.6272378,138 L67.8834951,128.318724 C66.8117449,128.295483 65.7180499,128.246418 64.6328497,128.174757 L63.8640777,137.833438 Z" id="Fill-126" fill="#B6A7C5"></path>
                        <mask id="mask-4" fill="white">
                            <use xlink:href="#path-3"></use>
                        </mask>
                        <g id="Clip-122"></g>
                        <path d="M67.1039702,0.0312061532 L67.3560911,9.71932764 C68.3337812,9.69348403 69.3204528,9.69219185 70.300709,9.71480501 L70.5252442,0.0260374322 C69.3871718,-0.00045226309 68.240118,0.0014860073 67.1039702,0.0312061532" id="Fill-121" fill="#B6A7C5"></path>
                        <mask id="mask-6" fill="white">
                            <use xlink:href="#path-5"></use>
                        </mask>
                        <use id="Clip-127" fill="#B6A7C5" xlink:href="#path-5"></use>
                    </g>
                    <g id="Group-6" transform="translate(37.500000, 81.000000)" fill="#FFFFFF">
                        <text id="163059A" font-family="Raleway-ExtraBold, Raleway" font-size="20" font-weight="600" line-spacing="28">
                            <tspan x="0.28" y="19">163059A</tspan>
                        </text>
                        <text id="EXP-2021.10" font-family="Raleway-Medium, Raleway" font-size="14" font-weight="400">
                            <tspan x="2.659" y="41">EXP 2021.10</tspan>
                        </text>
                    </g>
                </g>
                <path d="M82,239 L276,239 L276,206 C276,205.447715 276.447715,205 277,205 C277.552285,205 278,205.447715 278,206 L278,240 C278,240.552285 277.552285,241 277,241 L81,241 C80.4477153,241 80,240.552285 80,240 L80,185 C80,184.447715 80.4477153,184 81,184 C81.5522847,184 82,184.447715 82,185 L82,239 Z" id="Combined-Shape" fill="#354657"></path>
            </g>
        </g>
    </g>
</svg>