<?xml version="1.0" encoding="UTF-8"?>
<svg width="141px" height="469px" viewBox="0 0 141 469" version="1.1" xmlns="http://www.w3.org/2000/svg" xmlns:xlink="http://www.w3.org/1999/xlink">
    <!-- Generator: Sketch 54.1 (76490) - https://sketchapp.com -->
    <title>veráge 2</title>
    <desc>Created with Sketch.</desc>
    <g id="Page-1" stroke="none" stroke-width="1" fill="none" fill-rule="evenodd">
        <g id="Brand-Feature---Verage" transform="translate(-60.000000, -270.000000)" fill="#F7AD0E" fill-rule="nonzero">
            <g id="veráge-2" transform="translate(130.500000, 504.500000) rotate(-90.000000) translate(-130.500000, -504.500000) translate(-104.000000, 434.000000)">
                <path d="M32.9789834,107.740294 L0.5,31.3499475 L5.76686217,31.3499475 L35.4661127,102.011018 L65.311665,31.3499475 L70.4322255,31.3499475 L37.9532421,107.740294 L32.9789834,107.740294 Z M114.615347,109.209339 C109.445993,109.209339 104.618085,108.156534 100.131476,106.050892 C95.6448673,103.94525 91.7191436,101.056157 88.354187,97.3835257 C84.9892305,93.7108945 82.3558257,89.4507063 80.4538938,84.6028332 C78.5519618,79.75496 77.6010101,74.5888697 77.6010101,69.1044071 C77.6010101,63.7178814 78.5275784,58.6742103 80.3807429,53.9732424 C82.2339074,49.2722745 84.8185454,45.1589893 88.1347344,41.6332634 C91.4509235,38.1075375 95.3034971,35.3163796 99.6925709,33.2597062 C104.081645,31.2030327 108.860787,30.1747114 114.03014,30.1747114 C119.297029,30.1747114 124.173704,31.2030327 128.660313,33.2597062 C133.146922,35.3163796 137.048262,38.1320213 140.364451,41.7067156 C143.68064,45.28141 146.289661,49.4681467 148.191593,54.2670514 C150.093525,59.0659561 151.044477,64.158595 151.044477,69.5451207 L151.044477,70.7203568 C151.044477,71.3079778 150.99571,71.6507515 150.898175,71.7486884 L82.7215705,71.7486884 C83.1117104,76.4496562 84.2089624,80.8322637 86.0133594,84.8966422 C87.8177564,88.9610207 90.1585606,92.4622099 93.0358423,95.4003148 C95.913124,98.3384197 99.2292633,100.664385 102.98436,102.378279 C106.739456,104.092174 110.713947,104.949108 114.90795,104.949108 C117.63893,104.949108 120.345485,104.58185 123.027696,103.847324 C125.709908,103.112798 128.221396,102.059993 130.562235,100.688877 C132.903075,99.3177616 134.951278,97.6773443 136.706908,95.7675761 C138.462537,93.8578079 139.876773,91.7766814 140.949658,89.5241343 L145.485011,90.6993704 C144.412127,93.3436648 142.851591,95.8165327 140.803356,98.1180483 C138.755122,100.419564 136.341167,102.378271 133.561421,103.994229 C130.781674,105.610186 127.782519,106.883346 124.563864,107.813746 C121.34521,108.744146 118.029071,109.209339 114.615347,109.209339 Z M146.070218,67.4884575 C145.777613,62.6895528 144.753512,58.2824615 142.997882,54.2670514 C141.242253,50.2516413 138.925832,46.774936 136.04855,43.8368311 C133.171268,40.8987261 129.879512,38.621729 126.173183,37.0057712 C122.466854,35.3898135 118.467981,34.5818468 114.176442,34.5818468 C109.884903,34.5818468 105.886029,35.4142974 102.1797,37.0792235 C98.4733713,38.7441496 95.2303821,41.0456306 92.4506354,43.9837356 C89.6708887,46.9218405 87.427618,50.3985459 85.7207559,54.4139559 C84.0138939,58.429366 83.0141755,62.7874896 82.7215705,67.4884575 L146.070218,67.4884575 Z M201.811176,36.0508919 C194.788658,36.3447024 188.692814,38.5727319 183.52346,42.7350472 C178.354107,46.8973625 174.745367,52.5531297 172.697133,59.7025184 L172.697133,107.740294 L167.722874,107.740294 L167.722874,31.3499475 L172.550831,31.3499475 L172.550831,50.7413431 C175.184275,45.3548174 178.695481,40.9477261 183.084555,37.519937 C187.473629,34.092148 192.155237,32.084473 197.129521,31.496852 C198.104871,31.3989152 199.007056,31.3499475 199.836103,31.3499475 L201.811176,31.3499475 L201.811176,36.0508919 Z M233.558651,109.209339 C230.047392,109.209339 226.780019,108.597243 223.756435,107.373033 C220.732851,106.148822 218.099446,104.483921 215.856142,102.378279 C213.612838,100.272637 211.857235,97.7997694 210.58928,94.9596013 C209.321325,92.1194332 208.687357,89.0344693 208.687357,85.704617 C208.687357,82.4727016 209.467626,79.5101569 211.028185,76.816894 C212.588745,74.1236312 214.758865,71.7976663 217.538612,69.8389297 C220.318359,67.8801931 223.634498,66.362195 227.487129,65.2848898 C231.339761,64.2075847 235.558085,63.6689402 240.142229,63.6689402 C244.433768,63.6689402 248.749625,64.011714 253.089932,64.6972718 C257.430238,65.3828296 261.355962,66.4111509 264.867221,67.7822665 L264.867221,59.5556139 C264.867221,51.916541 262.6971,45.8200647 258.356794,41.2660021 C254.016487,36.7119395 248.18886,34.4349423 240.873737,34.4349423 C237.167408,34.4349423 233.217301,35.242909 229.023297,36.8588667 C224.829294,38.4748244 220.635353,40.8007893 216.441349,43.8368311 L214.100521,40.1642183 C223.854019,33.5045137 232.875868,30.1747114 241.166341,30.1747114 C250.042023,30.1747114 257.040053,32.8189662 262.160639,38.1075551 C267.281225,43.396144 269.841479,50.6433608 269.841479,59.8494229 L269.841479,99.8074502 C269.841479,101.96206 270.719281,103.039349 272.47491,103.039349 L272.47491,107.740294 C272.182305,107.838231 271.914088,107.887198 271.670251,107.887198 L271.011893,107.887198 C269.353799,107.887198 267.963946,107.275102 266.842294,106.050892 C265.720642,104.826682 265.159824,103.333167 265.159824,101.570304 L265.159824,94.8126967 C261.648565,99.4157278 257.113257,102.965885 251.553763,105.463274 C245.99427,107.960663 239.995959,109.209339 233.558651,109.209339 Z M234.143858,104.949108 C237.752652,104.949108 241.385775,104.459431 245.043337,103.480063 C248.700898,102.500695 251.992654,101.154083 254.918703,99.4401889 C257.844752,97.7262943 260.234323,95.7431033 262.087488,93.4905561 C263.940652,91.238009 264.867221,88.8385927 264.867221,86.292235 L264.867221,71.8955929 C257.259493,68.9574879 249.164211,67.4884575 240.581134,67.4884575 C236.5822,67.4884575 232.924693,67.9291666 229.608504,68.8105981 C226.292315,69.6920296 223.43946,70.9162216 221.049853,72.4832109 C218.660247,74.0502002 216.80711,75.9354559 215.490388,78.1390346 C214.173666,80.3426133 213.515314,82.8154812 213.515314,85.5577125 C213.515314,88.2999438 214.051749,90.8462632 215.124633,93.1967471 C216.197518,95.5472311 217.660521,97.6038737 219.513685,99.3667366 C221.36685,101.1296 223.53697,102.500695 226.024112,103.480063 C228.511254,104.459431 231.217809,104.949108 234.143858,104.949108 Z M239.995927,14.0152151 L236.484686,12.1054565 L245.555393,0.5 L252.13897,0.5 L239.995927,14.0152151 Z M323.680515,109.062434 C318.413626,109.062434 313.536951,107.936178 309.050342,105.683631 C304.563733,103.431084 300.71116,100.468539 297.492506,96.7959077 C294.273852,93.1232765 291.762364,88.9365398 289.957967,84.2355719 C288.15357,79.534604 287.251385,74.7357712 287.251385,69.8389297 C287.251385,64.6482776 288.104803,59.678058 289.811665,54.9281217 C291.518527,50.1781854 293.932481,45.9669648 297.053601,42.2943337 C300.17472,38.6217025 303.905376,35.6836417 308.245683,33.480063 C312.585989,31.2764843 317.389514,30.1747114 322.656403,30.1747114 C325.972592,30.1747114 329.093664,30.6643882 332.019713,31.6437566 C334.945762,32.6231249 337.676701,33.9452523 340.21261,35.6101784 C342.748519,37.2751045 345.089323,39.2338118 347.235093,41.4863589 C349.380862,43.738906 351.331532,46.1383224 353.087162,48.68468 L353.087162,31.3499475 L357.768817,31.3499475 L357.768817,110.090766 C357.768817,115.281418 356.817865,119.761961 354.915934,123.532529 C353.014002,127.303097 350.47813,130.461512 347.308244,133.00787 C344.138357,135.554227 340.456467,137.439483 336.262463,138.663694 C332.06846,139.887904 327.679452,140.5 323.095308,140.5 C318.608699,140.5 314.634209,140.059291 311.171717,139.177859 C307.709226,138.296428 304.661303,137.072236 302.027859,135.505247 C299.394415,133.938257 297.077994,132.053002 295.078527,129.849423 C293.07906,127.645844 291.34784,125.221944 289.884816,122.57765 L293.542359,120.520986 C296.663478,126.005449 300.857419,129.971831 306.124308,132.420252 C311.391196,134.868673 317.04814,136.092865 323.095308,136.092865 C327.191777,136.092865 331.019967,135.55422 334.579993,134.476915 C338.14002,133.39961 341.285476,131.759193 344.016455,129.555614 C346.747434,127.352035 348.893171,124.634329 350.453731,121.402413 C352.01429,118.170498 352.794558,114.399987 352.794558,110.090766 L352.794558,92.1684155 C351.233999,94.7147731 349.356479,97.0162541 347.161942,99.0729276 C344.967405,101.129601 342.602218,102.892438 340.066308,104.36149 C337.530399,105.830542 334.872611,106.981283 332.092864,107.813746 C329.313117,108.646209 326.509029,109.062434 323.680515,109.062434 Z M324.412023,104.508395 C327.825747,104.508395 331.16627,103.847331 334.433692,102.525184 C337.701113,101.203036 340.651502,99.4891676 343.284946,97.3835257 C345.91839,95.2778838 348.088511,92.9274352 349.795373,90.3321091 C351.502235,87.7367831 352.501954,85.1170122 352.794558,82.4727177 L352.794558,56.1768101 C351.624139,53.1407683 349.990453,50.3006428 347.893451,47.6563484 C345.796449,45.0120539 343.431261,42.7595406 340.797817,40.8987408 C338.164373,39.037941 335.335901,37.5689106 332.312317,36.4916055 C329.288733,35.4143003 326.216427,34.8756558 323.095308,34.8756558 C318.218559,34.8756558 313.878318,35.9039771 310.074454,37.9606506 C306.27059,40.017324 303.051984,42.7105465 300.41854,46.0403987 C297.785096,49.370251 295.785659,53.1162786 294.420169,57.2785939 C293.05468,61.4409092 292.371945,65.627646 292.371945,69.8389297 C292.371945,74.4419608 293.20098,78.8245682 294.859075,82.9868835 C296.517169,87.1491988 298.784823,90.8217749 301.662105,94.0047219 C304.539387,97.1876689 307.928676,99.7339884 311.830075,101.643757 C315.731474,103.553525 319.925415,104.508395 324.412023,104.508395 Z M413.07087,109.209339 C407.901516,109.209339 403.073608,108.156534 398.586999,106.050892 C394.10039,103.94525 390.174667,101.056157 386.80971,97.3835257 C383.444753,93.7108945 380.811349,89.4507063 378.909417,84.6028332 C377.007485,79.75496 376.056533,74.5888697 376.056533,69.1044071 C376.056533,63.7178814 376.983101,58.6742103 378.836266,53.9732424 C380.68943,49.2722745 383.274068,45.1589893 386.590257,41.6332634 C389.906446,38.1075375 393.75902,35.3163796 398.148094,33.2597062 C402.537168,31.2030327 407.31631,30.1747114 412.485663,30.1747114 C417.752552,30.1747114 422.629227,31.2030327 427.115836,33.2597062 C431.602445,35.3163796 435.503785,38.1320213 438.819974,41.7067156 C442.136163,45.28141 444.745184,49.4681467 446.647116,54.2670514 C448.549048,59.0659561 449.5,64.158595 449.5,69.5451207 L449.5,70.7203568 C449.5,71.3079778 449.451233,71.6507515 449.353698,71.7486884 L381.177094,71.7486884 C381.567233,76.4496562 382.664485,80.8322637 384.468882,84.8966422 C386.273279,88.9610207 388.614084,92.4622099 391.491365,95.4003148 C394.368647,98.3384197 397.684786,100.664385 401.439883,102.378279 C405.194979,104.092174 409.16947,104.949108 413.363473,104.949108 C416.094453,104.949108 418.801008,104.58185 421.483219,103.847324 C424.165431,103.112798 426.676919,102.059993 429.017758,100.688877 C431.358598,99.3177616 433.406801,97.6773443 435.162431,95.7675761 C436.91806,93.8578079 438.332296,91.7766814 439.405181,89.5241343 L443.940534,90.6993704 C442.86765,93.3436648 441.307114,95.8165327 439.258879,98.1180483 C437.210645,100.419564 434.79669,102.378271 432.016944,103.994229 C429.237197,105.610186 426.238042,106.883346 423.019387,107.813746 C419.800733,108.744146 416.484594,109.209339 413.07087,109.209339 Z M444.525741,67.4884575 C444.233136,62.6895528 443.209035,58.2824615 441.453405,54.2670514 C439.697776,50.2516413 437.381355,46.774936 434.504073,43.8368311 C431.626791,40.8987261 428.335035,38.621729 424.628706,37.0057712 C420.922377,35.3898135 416.923504,34.5818468 412.631965,34.5818468 C408.340426,34.5818468 404.341552,35.4142974 400.635223,37.0792235 C396.928894,38.7441496 393.685905,41.0456306 390.906158,43.9837356 C388.126412,46.9218405 385.883141,50.3985459 384.176279,54.4139559 C382.469417,58.429366 381.469698,62.7874896 381.177094,67.4884575 L444.525741,67.4884575 Z M468.94,22.96 C468.94,24.026672 468.756668,25.0066622 468.39,25.9 C468.023331,26.7933378 467.51667,27.5699967 466.87,28.23 C466.22333,28.8900033 465.460004,29.4033315 464.58,29.77 C463.699996,30.1366685 462.740005,30.32 461.7,30.32 C460.673328,30.32 459.720004,30.1366685 458.84,29.77 C457.959996,29.4033315 457.200003,28.8900033 456.56,28.23 C455.919997,27.5699967 455.416669,26.7933378 455.05,25.9 C454.683332,25.0066622 454.5,24.026672 454.5,22.96 C454.5,21.9066614 454.683332,20.9300045 455.05,20.03 C455.416669,19.1299955 455.919997,18.3533366 456.56,17.7 C457.200003,17.0466634 457.959996,16.5333352 458.84,16.16 C459.720004,15.7866648 460.673328,15.6 461.7,15.6 C462.740005,15.6 463.699996,15.7866648 464.58,16.16 C465.460004,16.5333352 466.22333,17.0466634 466.87,17.7 C467.51667,18.3533366 468.023331,19.1299955 468.39,20.03 C468.756668,20.9300045 468.94,21.9066614 468.94,22.96 Z M468.3,22.96 C468.3,22.026662 468.140002,21.1566707 467.82,20.35 C467.499998,19.5433293 467.053336,18.840003 466.48,18.24 C465.906664,17.639997 465.216671,17.1700017 464.41,16.83 C463.603329,16.4899983 462.706672,16.32 461.72,16.32 C460.786662,16.32 459.920004,16.486665 459.12,16.82 C458.319996,17.153335 457.62667,17.6166637 457.04,18.21 C456.45333,18.8033363 455.993335,19.5033293 455.66,20.31 C455.326665,21.1166707 455.16,21.9999952 455.16,22.96 C455.16,23.9200048 455.326665,24.8066626 455.66,25.62 C455.993335,26.4333374 456.45333,27.1333304 457.04,27.72 C457.62667,28.3066696 458.316663,28.766665 459.11,29.1 C459.903337,29.433335 460.766662,29.6 461.7,29.6 C462.646671,29.6 463.519996,29.433335 464.32,29.1 C465.120004,28.766665 465.816664,28.3066696 466.41,27.72 C467.003336,27.1333304 467.466665,26.4333374 467.8,25.62 C468.133335,24.8066626 468.3,23.9200048 468.3,22.96 Z M457.2,26.02 L457.2,22.2 C457.2,21.8133314 457.283333,21.453335 457.45,21.12 C457.616668,20.786665 457.836665,20.5000012 458.11,20.26 C458.383335,20.0199988 458.689998,19.833334 459.03,19.7 C459.370002,19.566666 459.713332,19.5 460.06,19.5 C460.713337,19.5 461.296664,19.6899981 461.81,20.07 C462.323336,20.4500019 462.639999,20.9466636 462.76,21.56 L466.26,19.34 L466.26,20.5 L462.9,22.62 L462.9,24.96 L466.26,24.96 L466.26,26.02 L457.2,26.02 Z M461.98,22.2 C461.98,21.6533306 461.796669,21.2400014 461.43,20.96 C461.063332,20.6799986 460.606669,20.54 460.06,20.54 C459.499997,20.54 459.043335,20.7033317 458.69,21.03 C458.336665,21.3566683 458.16,21.7733308 458.16,22.28 L458.16,24.96 L461.98,24.96 L461.98,22.2 Z" id="Combined-Shape"></path>
            </g>
        </g>
    </g>
</svg>